<?xml version='1.0' encoding='utf-8'?>
<svg xmlns="http://www.w3.org/2000/svg" width="600" height="600" viewBox="0 0 600 600">
<title>Embroidery Pattern</title><g>
<path d="M 0 0 L 0 599 L 599 599 L 599 0 Z" fill="#ffffff" stroke="#ffffff" stroke-width="1" />
<path d="M 0 0 L 0 599 L 599 599 L 599 0 Z" fill="#ffffff" stroke="#ffffff" stroke-width="1" />
<path d="M 0 0 L 0 599 L 599 599 L 599 0 Z" fill="#ffffff" stroke="#ffffff" stroke-width="1" />
<path d="M 0 0 L 0 599 L 599 599 L 599 0 Z" fill="#ffffff" stroke="#ffffff" stroke-width="1" />
<path d="M 0 0 L 0 599 L 599 599 L 599 0 Z" fill="#ffffff" stroke="#ffffff" stroke-width="1" />
<path d="M 0 0 L 0 599 L 599 599 L 599 0 Z" fill="#ffffff" stroke="#ffffff" stroke-width="1" />
<path d="M 0 0 L 0 599 L 599 599 L 599 0 Z" fill="#ffffff" stroke="#ffffff" stroke-width="1" />
<path d="M 0 0 L 0 599 L 599 599 L 599 0 Z" fill="#ffffff" stroke="#ffffff" stroke-width="1" />
<path d="M 0 0 L 0 599 L 599 599 L 599 0 Z" fill="#ffffff" stroke="#ffffff" stroke-width="1" />
<path d="M 0 0 L 0 599 L 599 599 L 599 0 Z" fill="#ffffff" stroke="#ffffff" stroke-width="1" />
<path d="M 501 282 L 501 323 L 510 323 L 510 282 Z" fill="#00b2a5" stroke="#00b2a5" stroke-width="1" />
<path d="M 538 281 L 535 282 L 533 283 L 531 286 L 528 286 L 528 282 L 520 282 L 520 323 L 529 323 L 529 297 L 530 295 L 533 292 L 535 291 L 538 290 L 542 290 L 542 281 Z" fill="#00b2a5" stroke="#00b2a5" stroke-width="1" />
<path d="M 423 281 L 419 282 L 415 284 L 413 286 L 411 290 L 411 295 L 412 298 L 415 301 L 418 303 L 421 304 L 424 305 L 426 305 L 430 306 L 433 307 L 435 308 L 438 311 L 438 313 L 434 317 L 431 318 L 426 318 L 422 316 L 420 314 L 419 311 L 410 311 L 410 315 L 411 317 L 414 320 L 417 322 L 420 323 L 423 324 L 435 324 L 438 323 L 441 322 L 446 317 L 447 314 L 447 309 L 446 306 L 443 303 L 439 301 L 436 300 L 432 299 L 430 299 L 426 298 L 422 296 L 420 294 L 420 291 L 423 288 L 433 288 L 436 292 L 445 293 L 445 289 L 444 287 L 441 284 L 437 282 L 434 281 Z" fill="#00b2a5" stroke="#00b2a5" stroke-width="1" />
<path d="M 334 281 L 329 282 L 327 283 L 324 285 L 322 288 L 321 291 L 321 294 L 330 293 L 334 288 L 342 288 L 344 289 L 346 291 L 346 295 L 343 298 L 341 299 L 335 300 L 331 300 L 327 301 L 325 302 L 322 304 L 321 306 L 320 308 L 319 311 L 319 314 L 320 318 L 321 320 L 323 322 L 325 323 L 328 324 L 337 324 L 340 323 L 342 322 L 344 320 L 347 321 L 347 323 L 356 323 L 356 294 L 355 290 L 354 287 L 351 284 L 347 282 L 343 281 Z" fill="#00b2a5" stroke="#00b2a5" stroke-width="1" />
<path d="M 290 281 L 287 282 L 284 283 L 281 285 L 279 287 L 277 290 L 276 292 L 275 296 L 275 309 L 276 313 L 278 317 L 282 321 L 286 323 L 290 324 L 299 324 L 302 323 L 305 322 L 311 316 L 312 314 L 312 312 L 303 312 L 300 316 L 298 317 L 291 317 L 288 315 L 286 313 L 284 309 L 284 306 L 286 304 L 313 304 L 313 296 L 312 293 L 311 290 L 309 287 L 306 284 L 302 282 L 299 281 Z" fill="#00b2a5" stroke="#00b2a5" stroke-width="1" />
<path d="M 265 281 L 262 282 L 255 286 L 255 282 L 247 282 L 247 323 L 256 323 L 256 298 L 258 294 L 260 292 L 262 291 L 265 290 L 270 290 L 270 281 Z" fill="#00b2a5" stroke="#00b2a5" stroke-width="1" />
<path d="M 218 281 L 217 282 L 214 283 L 209 285 L 208 282 L 200 282 L 200 339 L 209 338 L 211 319 L 213 321 L 216 323 L 219 324 L 226 324 L 229 323 L 231 322 L 235 318 L 237 315 L 238 312 L 239 308 L 239 298 L 238 294 L 237 291 L 236 289 L 234 287 L 232 285 L 230 283 L 228 282 L 225 281 Z" fill="#00b2a5" stroke="#00b2a5" stroke-width="1" />
<path d="M 168 281 L 164 282 L 160 284 L 158 286 L 157 288 L 156 291 L 156 294 L 157 297 L 158 299 L 160 301 L 166 304 L 169 305 L 172 305 L 176 306 L 179 307 L 183 311 L 183 313 L 179 317 L 175 318 L 172 318 L 169 317 L 167 316 L 165 314 L 164 311 L 155 311 L 155 314 L 157 318 L 159 320 L 165 323 L 169 324 L 179 324 L 183 323 L 186 322 L 191 317 L 192 315 L 192 308 L 185 301 L 182 300 L 178 299 L 175 299 L 172 298 L 169 297 L 165 293 L 165 291 L 168 288 L 171 287 L 175 287 L 178 288 L 181 292 L 190 293 L 190 289 L 189 287 L 185 283 L 183 282 L 179 281 Z" fill="#00b2a5" stroke="#00b2a5" stroke-width="1" />
</g>
</svg>