<?xml version="1.0" encoding="UTF-8"?>
<!-- Generator: visioncortex VTracer 0.6.4 -->
<svg version="1.1" xmlns="http://www.w3.org/2000/svg" width="2250" height="1376">
<path d="M0 0 C3.66 0.01 7.31 0 10.97 -0.01 C26.55 -0.05 41.93 0.13 57.39 2.26 C58 2.34 58.61 2.42 59.23 2.5 C62.84 2.99 66.43 3.54 70.02 4.14 C71.07 4.31 72.12 4.48 73.2 4.66 C87.79 7.1 102.02 10.53 116.22 14.64 C118.27 15.23 120.33 15.79 122.39 16.34 C131.44 18.82 140.2 21.96 148.95 25.32 C149.51 25.54 150.07 25.75 150.65 25.97 C156.43 28.19 162.07 30.49 167.57 33.34 C170.05 34.59 172.61 35.67 175.17 36.75 C181.99 39.62 188.35 42.81 194.67 46.65 C197.16 48.12 199.66 49.4 202.27 50.64 C209.74 54.28 216.75 58.96 223.52 63.78 C224.59 64.56 225.66 65.35 226.73 66.13 C230.12 68.44 233.77 70.33 237.39 72.26 C237.39 72.92 237.39 73.58 237.39 74.26 C238.1 74.51 238.8 74.75 239.53 75 C240.47 75.42 241.42 75.83 242.39 76.26 C244.38 77.6 246.3 78.94 248.2 80.39 C248.71 80.76 249.21 81.13 249.73 81.51 C250.95 82.43 252.17 83.34 253.39 84.26 C253.39 84.92 253.39 85.58 253.39 86.26 C254.09 86.49 254.79 86.71 255.52 86.95 C256.94 87.6 256.94 87.6 258.39 88.26 C260.49 89.83 262.45 91.51 264.39 93.26 C264.39 93.92 264.39 94.58 264.39 95.26 C264.94 95.51 265.5 95.75 266.06 96 C268.39 97.26 268.39 97.26 270.97 99.21 C271.85 99.93 272.73 100.64 273.64 101.39 C274.53 102.11 275.43 102.83 276.34 103.58 C277.02 104.14 277.7 104.69 278.39 105.26 C278.39 105.92 278.39 106.58 278.39 107.26 C279.05 107.26 279.71 107.26 280.39 107.26 C280.39 107.92 280.39 108.58 280.39 109.26 C281.05 109.26 281.71 109.26 282.39 109.26 C282.39 109.92 282.39 110.58 282.39 111.26 C283.05 111.26 283.71 111.26 284.39 111.26 C284.39 111.92 284.39 112.58 284.39 113.26 C285.05 113.26 285.71 113.26 286.39 113.26 C286.39 113.92 286.39 114.58 286.39 115.26 C287.05 115.26 287.71 115.26 288.39 115.26 C288.39 115.92 288.39 116.58 288.39 117.26 C288.95 117.49 289.51 117.71 290.08 117.95 C290.84 118.38 291.61 118.81 292.39 119.26 C294.15 120.85 295.76 122.53 297.39 124.26 C297.39 124.92 297.39 125.58 297.39 126.26 C298.05 126.26 298.71 126.26 299.39 126.26 C299.39 126.92 299.39 127.58 299.39 128.26 C300.05 128.26 300.71 128.26 301.39 128.26 C302.31 129.4 302.31 129.4 303.25 130.56 C304.07 131.57 304.89 132.57 305.7 133.57 C306.11 134.07 306.51 134.57 306.93 135.09 C308.98 137.6 311.03 140.02 313.39 142.26 C313.39 142.92 313.39 143.58 313.39 144.26 C314.05 144.26 314.71 144.26 315.39 144.26 C317.87 147.23 317.87 147.23 320.39 150.26 C320.39 150.92 320.39 151.58 320.39 152.26 C321.05 152.26 321.71 152.26 322.39 152.26 C322.84 152.9 323.29 153.54 323.75 154.2 C327.27 159.24 330.8 164.27 334.39 169.26 C334.39 169.92 334.39 170.58 334.39 171.26 C335.05 171.26 335.71 171.26 336.39 171.26 C337.05 173.24 337.71 175.22 338.39 177.26 C339.05 177.26 339.71 177.26 340.39 177.26 C341.05 179.24 341.71 181.22 342.39 183.26 C343.05 183.26 343.71 183.26 344.39 183.26 C344.92 184.15 344.92 184.15 345.46 185.06 C348.16 189.61 350.93 194.09 353.83 198.51 C357.5 204.24 360.5 210.22 363.46 216.34 C364.54 218.57 365.66 220.78 366.77 222.99 C377.04 243.51 385.95 264.44 392.52 286.45 C399.53 310.25 404.73 334.58 407.69 359.22 C408.64 367.67 408.72 376.09 408.73 384.58 C408.73 386.3 408.74 388.02 408.75 389.74 C408.76 393.33 408.76 396.92 408.76 400.5 C408.76 404.11 408.78 407.72 408.8 411.32 C408.96 432.46 408.49 453.06 404.98 473.94 C400.61 498.59 394.77 522.71 386.2 546.26 C383.45 553.67 380.57 561.02 377.39 568.26 C376.81 569.61 376.24 570.96 375.66 572.31 C368.35 589.25 359.88 605.95 349.95 621.52 C349.03 622.89 348.11 624.26 347.18 625.62 C344.57 629.48 342.05 633.41 339.52 637.32 C339.02 638.1 338.51 638.87 338 639.67 C336.8 641.54 335.59 643.4 334.39 645.26 C333.73 645.26 333.07 645.26 332.39 645.26 C332.1 646.02 331.81 646.79 331.52 647.57 C330.39 650.26 330.39 650.26 329.27 652.07 C328.98 652.47 328.69 652.86 328.39 653.26 C327.73 653.26 327.07 653.26 326.39 653.26 C326.08 654.28 326.08 654.28 325.77 655.31 C325.32 656.28 324.86 657.26 324.39 658.26 C322.5 660.77 320.42 663.1 318.33 665.45 C317.23 666.69 316.14 667.93 315.04 669.18 C314.56 669.72 314.07 670.27 313.57 670.83 C313.18 671.3 312.79 671.77 312.39 672.26 C312.06 672.92 311.73 673.58 311.39 674.26 C310.73 674.26 310.07 674.26 309.39 674.26 C309.05 675.07 309.05 675.07 308.71 675.91 C308.27 676.68 307.84 677.46 307.39 678.26 C305.74 680.22 304.08 682.09 302.33 683.95 C301.55 684.78 301.55 684.78 300.76 685.63 C296.14 690.54 291.4 695.35 286.64 700.14 C285.95 700.84 285.25 701.54 284.53 702.26 C279.98 706.79 275.28 711.09 270.39 715.26 C269.73 715.26 269.07 715.26 268.39 715.26 C268.39 715.92 268.39 716.58 268.39 717.26 C267.93 717.58 267.47 717.89 267 718.21 C265.11 719.53 263.23 720.87 261.39 722.26 C260.75 722.9 260.11 723.54 259.45 724.2 C256.39 727.26 252.89 729.71 249.39 732.26 C248.73 732.26 248.07 732.26 247.39 732.26 C247.39 732.92 247.39 733.58 247.39 734.26 C245.41 735.58 243.43 736.9 241.39 738.26 C240.73 738.26 240.07 738.26 239.39 738.26 C239.39 738.92 239.39 739.58 239.39 740.26 C237.41 740.92 235.43 741.58 233.39 742.26 C233.39 742.92 233.39 743.58 233.39 744.26 C232.96 744.51 232.54 744.76 232.09 745.02 C230.13 746.18 228.17 747.35 226.2 748.51 C225.53 748.91 224.86 749.3 224.16 749.71 C221.31 751.41 218.64 753.05 216.09 755.18 C211.85 758.45 207.12 760.78 202.39 763.26 C201.43 763.77 200.47 764.28 199.48 764.8 C196.56 766.34 193.63 767.86 190.7 769.39 C189.72 769.9 188.74 770.41 187.73 770.94 C184.96 772.38 182.17 773.82 179.39 775.26 C178.65 775.65 177.9 776.03 177.13 776.43 C173.12 778.48 169.12 780.21 164.89 781.76 C161.33 783.09 157.86 784.45 154.52 786.26 C149.08 789.1 143.16 790.76 137.34 792.62 C135.52 793.22 133.71 793.84 131.9 794.48 C115.42 800.25 98.5 804.19 81.39 807.51 C80.75 807.64 80.12 807.76 79.46 807.89 C70.14 809.7 60.81 811.11 51.39 812.26 C50.06 812.43 50.06 812.43 48.7 812.6 C24.13 815.57 -1.28 815.21 -25.96 813.95 C-31.54 813.57 -37.07 812.99 -42.61 812.26 C-44.23 812.05 -44.23 812.05 -45.89 811.84 C-60.25 809.95 -74.51 807.62 -88.61 804.26 C-89.45 804.06 -90.29 803.87 -91.16 803.66 C-103.37 800.76 -115.32 797.19 -127.23 793.26 C-127.86 793.06 -128.48 792.85 -129.12 792.64 C-136.9 790.1 -144.32 787.17 -151.7 783.63 C-154.57 782.28 -157.47 781.06 -160.42 779.89 C-168.02 776.76 -175.31 773.02 -182.61 769.26 C-183.23 768.94 -183.85 768.62 -184.5 768.3 C-201.62 759.51 -217.69 749.06 -233.61 738.26 C-233.61 737.6 -233.61 736.94 -233.61 736.26 C-234.37 735.97 -235.13 735.68 -235.92 735.39 C-238.61 734.26 -238.61 734.26 -240.42 733.14 C-240.81 732.85 -241.2 732.56 -241.61 732.26 C-241.61 731.6 -241.61 730.94 -241.61 730.26 C-242.33 730.02 -243.06 729.78 -243.81 729.53 C-244.73 729.11 -245.66 728.69 -246.61 728.26 C-249 726.31 -249 726.31 -251.42 724.01 C-255.6 720.11 -259.95 716.58 -264.61 713.26 C-264.61 712.6 -264.61 711.94 -264.61 711.26 C-265.27 711.26 -265.93 711.26 -266.61 711.26 C-266.61 710.6 -266.61 709.94 -266.61 709.26 C-267.15 709.05 -267.7 708.83 -268.26 708.61 C-269.42 707.94 -269.42 707.94 -270.61 707.26 C-272.59 705.51 -274.41 703.61 -276.23 701.7 C-278.01 699.86 -279.79 698.06 -281.61 696.26 C-282.27 695.93 -282.93 695.6 -283.61 695.26 C-283.61 694.6 -283.61 693.94 -283.61 693.26 C-284.27 693.26 -284.93 693.26 -285.61 693.26 C-285.61 692.6 -285.61 691.94 -285.61 691.26 C-286.27 691.26 -286.93 691.26 -287.61 691.26 C-288.76 690 -289.9 688.72 -291.05 687.45 C-291.68 686.74 -292.32 686.03 -292.98 685.3 C-293.52 684.63 -294.05 683.96 -294.61 683.26 C-295.1 681.78 -295.1 681.78 -295.61 680.26 C-296.27 680.26 -296.93 680.26 -297.61 680.26 C-297.61 679.6 -297.61 678.94 -297.61 678.26 C-298.27 678.26 -298.93 678.26 -299.61 678.26 C-301.09 676.49 -302.57 674.72 -304.05 672.95 C-304.47 672.45 -304.89 671.95 -305.32 671.43 C-306.45 670.07 -307.53 668.67 -308.61 667.26 C-309.1 665.78 -309.1 665.78 -309.61 664.26 C-310.27 664.26 -310.93 664.26 -311.61 664.26 C-313.26 661.95 -314.91 659.64 -316.61 657.26 C-316.61 656.6 -316.61 655.94 -316.61 655.26 C-317.27 655.26 -317.93 655.26 -318.61 655.26 C-319.93 653.28 -321.25 651.3 -322.61 649.26 C-322.61 648.6 -322.61 647.94 -322.61 647.26 C-323.27 647.26 -323.93 647.26 -324.61 647.26 C-328.57 641.32 -332.53 635.38 -336.61 629.26 C-336.61 628.27 -336.61 627.28 -336.61 626.26 C-337.27 626.26 -337.93 626.26 -338.61 626.26 C-339.12 625.37 -339.62 624.47 -340.15 623.55 C-340.84 622.33 -341.54 621.11 -342.23 619.89 C-342.6 619.24 -342.97 618.6 -343.34 617.93 C-345.36 614.41 -347.42 610.91 -349.55 607.45 C-355.89 596.89 -361.56 586.06 -366.05 574.58 C-367.49 570.92 -369.03 567.34 -370.73 563.78 C-374.28 556.3 -377.05 548.69 -379.61 540.82 C-379.82 540.17 -380.04 539.52 -380.26 538.85 C-387.01 518.27 -392.46 497.47 -396.27 476.14 C-396.49 474.92 -396.71 473.7 -396.94 472.48 C-400.26 454.36 -400.91 436.18 -401.06 417.8 C-401.08 414.83 -401.09 411.86 -401.1 408.9 C-401.11 406.74 -401.12 404.59 -401.14 402.44 C-401.3 379.38 -399.41 356.85 -395.6 334.09 C-391.74 311.66 -385.66 289.32 -378.05 267.87 C-375.38 260.52 -372.44 253.36 -369.01 246.33 C-367.56 243.37 -366.28 240.44 -365.17 237.34 C-363.6 233.06 -361.54 229.13 -359.36 225.14 C-356.46 219.77 -353.65 214.37 -350.98 208.89 C-348.36 203.53 -345.39 198.53 -342.09 193.57 C-340.77 191.51 -339.65 189.47 -338.61 187.26 C-337.95 187.26 -337.29 187.26 -336.61 187.26 C-336.36 186.39 -336.11 185.53 -335.86 184.64 C-335.32 183 -335.32 183 -334.61 181.26 C-333.37 179.17 -332.02 177.24 -330.61 175.26 C-329.95 175.26 -329.29 175.26 -328.61 175.26 C-327.62 172.29 -327.62 172.29 -326.61 169.26 C-325.95 169.26 -325.29 169.26 -324.61 169.26 C-324.32 168.5 -324.03 167.73 -323.73 166.95 C-322.61 164.26 -322.61 164.26 -321.48 162.45 C-321.19 162.06 -320.91 161.66 -320.61 161.26 C-319.95 161.26 -319.29 161.26 -318.61 161.26 C-318.4 160.58 -318.2 159.91 -317.99 159.21 C-317.53 158.24 -317.08 157.26 -316.61 156.26 C-314.72 153.75 -312.64 151.42 -310.55 149.07 C-309.45 147.83 -308.35 146.59 -307.26 145.34 C-306.78 144.8 -306.29 144.25 -305.79 143.69 C-305.4 143.22 -305.01 142.75 -304.61 142.26 C-304.28 141.6 -303.95 140.94 -303.61 140.26 C-302.95 140.26 -302.29 140.26 -301.61 140.26 C-301.38 139.72 -301.15 139.17 -300.92 138.61 C-300.49 137.84 -300.05 137.06 -299.61 136.26 C-297.98 134.33 -296.34 132.48 -294.61 130.64 C-294.1 130.09 -293.58 129.53 -293.05 128.97 C-288.22 123.83 -283.27 118.82 -278.3 113.82 C-277.54 113.07 -276.79 112.31 -276.02 111.53 C-271.71 107.23 -267.3 103.13 -262.61 99.26 C-261.95 99.26 -261.29 99.26 -260.61 99.26 C-260.61 98.6 -260.61 97.94 -260.61 97.26 C-259.95 97.26 -259.29 97.26 -258.61 97.26 C-258.61 96.6 -258.61 95.94 -258.61 95.26 C-255.64 92.95 -252.67 90.64 -249.61 88.26 C-248.95 88.26 -248.29 88.26 -247.61 88.26 C-247.61 87.6 -247.61 86.94 -247.61 86.26 C-244.51 83.99 -241.4 81.73 -238.29 79.48 C-237.17 78.67 -236.06 77.86 -234.94 77.05 C-222.22 67.8 -209.03 59.44 -195.61 51.26 C-194.62 51.26 -193.63 51.26 -192.61 51.26 C-192.61 50.6 -192.61 49.94 -192.61 49.26 C-189.75 47.91 -186.9 46.55 -184.05 45.2 C-183.18 44.79 -182.32 44.38 -181.44 43.96 C-175.53 41.16 -169.61 38.39 -163.67 35.65 C-160.36 34.11 -157.14 32.49 -153.92 30.76 C-146.63 27.07 -138.75 24.68 -131.02 22.08 C-128.93 21.37 -126.84 20.65 -124.75 19.91 C-104.11 12.74 -82.78 7.67 -61.23 4.14 C-60.28 3.98 -59.32 3.82 -58.34 3.65 C-55.1 3.14 -51.86 2.69 -48.61 2.26 C-47.96 2.17 -47.31 2.08 -46.63 1.99 C-31.12 -0.08 -15.62 -0.05 0 0 Z " fill="#017143" transform="translate(1120.6083984375,280.7392578125)"/>
<path d="M0 0 C3.66 0.01 7.31 0 10.97 -0.01 C26.55 -0.05 41.93 0.13 57.39 2.26 C58 2.34 58.61 2.42 59.23 2.5 C62.84 2.99 66.43 3.54 70.02 4.14 C71.07 4.31 72.12 4.48 73.2 4.66 C87.79 7.1 102.02 10.53 116.22 14.64 C118.27 15.23 120.33 15.79 122.39 16.34 C131.44 18.82 140.2 21.96 148.95 25.32 C149.51 25.54 150.07 25.75 150.65 25.97 C156.43 28.19 162.07 30.49 167.57 33.34 C170.05 34.59 172.61 35.67 175.17 36.75 C181.99 39.62 188.35 42.81 194.67 46.65 C197.16 48.12 199.66 49.4 202.27 50.64 C209.74 54.28 216.75 58.96 223.52 63.78 C224.59 64.56 225.66 65.35 226.73 66.13 C230.12 68.44 233.77 70.33 237.39 72.26 C237.39 72.92 237.39 73.58 237.39 74.26 C238.1 74.51 238.8 74.75 239.53 75 C240.47 75.42 241.42 75.83 242.39 76.26 C244.38 77.6 246.3 78.94 248.2 80.39 C248.71 80.76 249.21 81.13 249.73 81.51 C250.95 82.43 252.17 83.34 253.39 84.26 C253.39 84.92 253.39 85.58 253.39 86.26 C254.09 86.49 254.79 86.71 255.52 86.95 C256.94 87.6 256.94 87.6 258.39 88.26 C260.49 89.83 262.45 91.51 264.39 93.26 C264.39 93.92 264.39 94.58 264.39 95.26 C264.94 95.51 265.5 95.75 266.06 96 C268.39 97.26 268.39 97.26 270.97 99.21 C271.85 99.93 272.73 100.64 273.64 101.39 C274.53 102.11 275.43 102.83 276.34 103.58 C277.02 104.14 277.7 104.69 278.39 105.26 C278.39 105.92 278.39 106.58 278.39 107.26 C279.05 107.26 279.71 107.26 280.39 107.26 C280.39 107.92 280.39 108.58 280.39 109.26 C281.05 109.26 281.71 109.26 282.39 109.26 C282.39 109.92 282.39 110.58 282.39 111.26 C283.05 111.26 283.71 111.26 284.39 111.26 C284.39 111.92 284.39 112.58 284.39 113.26 C285.05 113.26 285.71 113.26 286.39 113.26 C286.39 113.92 286.39 114.58 286.39 115.26 C287.05 115.26 287.71 115.26 288.39 115.26 C288.39 115.92 288.39 116.58 288.39 117.26 C288.95 117.49 289.51 117.71 290.08 117.95 C290.84 118.38 291.61 118.81 292.39 119.26 C294.15 120.85 295.76 122.53 297.39 124.26 C297.39 124.92 297.39 125.58 297.39 126.26 C298.05 126.26 298.71 126.26 299.39 126.26 C299.39 126.92 299.39 127.58 299.39 128.26 C300.05 128.26 300.71 128.26 301.39 128.26 C302.31 129.4 302.31 129.4 303.25 130.56 C304.07 131.57 304.89 132.57 305.7 133.57 C306.11 134.07 306.51 134.57 306.93 135.09 C308.98 137.6 311.03 140.02 313.39 142.26 C313.39 142.92 313.39 143.58 313.39 144.26 C314.05 144.26 314.71 144.26 315.39 144.26 C317.87 147.23 317.87 147.23 320.39 150.26 C320.39 150.92 320.39 151.58 320.39 152.26 C321.05 152.26 321.71 152.26 322.39 152.26 C322.84 152.9 323.29 153.54 323.75 154.2 C327.27 159.24 330.8 164.27 334.39 169.26 C334.39 169.92 334.39 170.58 334.39 171.26 C335.05 171.26 335.71 171.26 336.39 171.26 C337.05 173.24 337.71 175.22 338.39 177.26 C339.05 177.26 339.71 177.26 340.39 177.26 C341.05 179.24 341.71 181.22 342.39 183.26 C343.05 183.26 343.71 183.26 344.39 183.26 C344.92 184.15 344.92 184.15 345.46 185.06 C348.16 189.61 350.93 194.09 353.83 198.51 C357.5 204.24 360.5 210.22 363.46 216.34 C364.54 218.57 365.66 220.78 366.77 222.99 C377.04 243.51 385.95 264.44 392.52 286.45 C399.53 310.25 404.73 334.58 407.69 359.22 C408.64 367.67 408.72 376.09 408.73 384.58 C408.73 386.3 408.74 388.02 408.75 389.74 C408.76 393.33 408.76 396.92 408.76 400.5 C408.76 404.11 408.78 407.72 408.8 411.32 C408.96 432.46 408.49 453.06 404.98 473.94 C400.61 498.59 394.77 522.71 386.2 546.26 C383.45 553.67 380.57 561.02 377.39 568.26 C376.81 569.61 376.24 570.96 375.66 572.31 C368.35 589.25 359.88 605.95 349.95 621.52 C349.03 622.89 348.11 624.26 347.18 625.62 C344.57 629.48 342.05 633.41 339.52 637.32 C339.02 638.1 338.51 638.87 338 639.67 C336.8 641.54 335.59 643.4 334.39 645.26 C333.73 645.26 333.07 645.26 332.39 645.26 C332.1 646.02 331.81 646.79 331.52 647.57 C330.39 650.26 330.39 650.26 329.27 652.07 C328.98 652.47 328.69 652.86 328.39 653.26 C327.73 653.26 327.07 653.26 326.39 653.26 C326.08 654.28 326.08 654.28 325.77 655.31 C325.32 656.28 324.86 657.26 324.39 658.26 C322.5 660.77 320.42 663.1 318.33 665.45 C317.23 666.69 316.14 667.93 315.04 669.18 C314.56 669.72 314.07 670.27 313.57 670.83 C313.18 671.3 312.79 671.77 312.39 672.26 C312.06 672.92 311.73 673.58 311.39 674.26 C310.73 674.26 310.07 674.26 309.39 674.26 C309.05 675.07 309.05 675.07 308.71 675.91 C308.27 676.68 307.84 677.46 307.39 678.26 C305.74 680.22 304.08 682.09 302.33 683.95 C301.55 684.78 301.55 684.78 300.76 685.63 C296.14 690.54 291.4 695.35 286.64 700.14 C285.95 700.84 285.25 701.54 284.53 702.26 C279.98 706.79 275.28 711.09 270.39 715.26 C269.73 715.26 269.07 715.26 268.39 715.26 C268.39 715.92 268.39 716.58 268.39 717.26 C267.93 717.58 267.47 717.89 267 718.21 C265.11 719.53 263.23 720.87 261.39 722.26 C260.75 722.9 260.11 723.54 259.45 724.2 C256.39 727.26 252.89 729.71 249.39 732.26 C248.73 732.26 248.07 732.26 247.39 732.26 C247.39 732.92 247.39 733.58 247.39 734.26 C245.41 735.58 243.43 736.9 241.39 738.26 C240.73 738.26 240.07 738.26 239.39 738.26 C239.39 738.92 239.39 739.58 239.39 740.26 C237.41 740.92 235.43 741.58 233.39 742.26 C233.39 742.92 233.39 743.58 233.39 744.26 C232.96 744.51 232.54 744.76 232.09 745.02 C230.13 746.18 228.17 747.35 226.2 748.51 C225.53 748.91 224.86 749.3 224.16 749.71 C221.31 751.41 218.64 753.05 216.09 755.18 C211.85 758.45 207.12 760.78 202.39 763.26 C201.43 763.77 200.47 764.28 199.48 764.8 C196.56 766.34 193.63 767.86 190.7 769.39 C189.72 769.9 188.74 770.41 187.73 770.94 C184.96 772.38 182.17 773.82 179.39 775.26 C178.65 775.65 177.9 776.03 177.13 776.43 C173.12 778.48 169.12 780.21 164.89 781.76 C161.33 783.09 157.86 784.45 154.52 786.26 C149.08 789.1 143.16 790.76 137.34 792.62 C135.52 793.22 133.71 793.84 131.9 794.48 C115.42 800.25 98.5 804.19 81.39 807.51 C80.75 807.64 80.12 807.76 79.46 807.89 C70.14 809.7 60.81 811.11 51.39 812.26 C50.06 812.43 50.06 812.43 48.7 812.6 C24.13 815.57 -1.28 815.21 -25.96 813.95 C-31.54 813.57 -37.07 812.99 -42.61 812.26 C-44.23 812.05 -44.23 812.05 -45.89 811.84 C-60.25 809.95 -74.51 807.62 -88.61 804.26 C-89.45 804.06 -90.29 803.87 -91.16 803.66 C-103.37 800.76 -115.32 797.19 -127.23 793.26 C-127.86 793.06 -128.48 792.85 -129.12 792.64 C-136.9 790.1 -144.32 787.17 -151.7 783.63 C-154.57 782.28 -157.47 781.06 -160.42 779.89 C-168.02 776.76 -175.31 773.02 -182.61 769.26 C-183.23 768.94 -183.85 768.62 -184.5 768.3 C-201.62 759.51 -217.69 749.06 -233.61 738.26 C-233.61 737.6 -233.61 736.94 -233.61 736.26 C-234.37 735.97 -235.13 735.68 -235.92 735.39 C-238.61 734.26 -238.61 734.26 -240.42 733.14 C-240.81 732.85 -241.2 732.56 -241.61 732.26 C-241.61 731.6 -241.61 730.94 -241.61 730.26 C-242.33 730.02 -243.06 729.78 -243.81 729.53 C-244.73 729.11 -245.66 728.69 -246.61 728.26 C-249 726.31 -249 726.31 -251.42 724.01 C-255.6 720.11 -259.95 716.58 -264.61 713.26 C-264.61 712.6 -264.61 711.94 -264.61 711.26 C-265.27 711.26 -265.93 711.26 -266.61 711.26 C-266.61 710.6 -266.61 709.94 -266.61 709.26 C-267.15 709.05 -267.7 708.83 -268.26 708.61 C-269.42 707.94 -269.42 707.94 -270.61 707.26 C-272.59 705.51 -274.41 703.61 -276.23 701.7 C-278.01 699.86 -279.79 698.06 -281.61 696.26 C-282.27 695.93 -282.93 695.6 -283.61 695.26 C-283.61 694.6 -283.61 693.94 -283.61 693.26 C-284.27 693.26 -284.93 693.26 -285.61 693.26 C-285.61 692.6 -285.61 691.94 -285.61 691.26 C-286.27 691.26 -286.93 691.26 -287.61 691.26 C-288.76 690 -289.9 688.72 -291.05 687.45 C-291.68 686.74 -292.32 686.03 -292.98 685.3 C-293.52 684.63 -294.05 683.96 -294.61 683.26 C-295.1 681.78 -295.1 681.78 -295.61 680.26 C-296.27 680.26 -296.93 680.26 -297.61 680.26 C-297.61 679.6 -297.61 678.94 -297.61 678.26 C-298.27 678.26 -298.93 678.26 -299.61 678.26 C-301.09 676.49 -302.57 674.72 -304.05 672.95 C-304.47 672.45 -304.89 671.95 -305.32 671.43 C-306.45 670.07 -307.53 668.67 -308.61 667.26 C-309.1 665.78 -309.1 665.78 -309.61 664.26 C-310.27 664.26 -310.93 664.26 -311.61 664.26 C-313.26 661.95 -314.91 659.64 -316.61 657.26 C-316.61 656.6 -316.61 655.94 -316.61 655.26 C-317.27 655.26 -317.93 655.26 -318.61 655.26 C-319.93 653.28 -321.25 651.3 -322.61 649.26 C-322.61 648.6 -322.61 647.94 -322.61 647.26 C-323.27 647.26 -323.93 647.26 -324.61 647.26 C-328.57 641.32 -332.53 635.38 -336.61 629.26 C-336.61 628.27 -336.61 627.28 -336.61 626.26 C-337.27 626.26 -337.93 626.26 -338.61 626.26 C-339.12 625.37 -339.62 624.47 -340.15 623.55 C-340.84 622.33 -341.54 621.11 -342.23 619.89 C-342.6 619.24 -342.97 618.6 -343.34 617.93 C-345.36 614.41 -347.42 610.91 -349.55 607.45 C-355.89 596.89 -361.56 586.06 -366.05 574.58 C-367.49 570.92 -369.03 567.34 -370.73 563.78 C-374.28 556.3 -377.05 548.69 -379.61 540.82 C-379.82 540.17 -380.04 539.52 -380.26 538.85 C-387.01 518.27 -392.46 497.47 -396.27 476.14 C-396.49 474.92 -396.71 473.7 -396.94 472.48 C-400.26 454.36 -400.91 436.18 -401.06 417.8 C-401.08 414.83 -401.09 411.86 -401.1 408.9 C-401.11 406.74 -401.12 404.59 -401.14 402.44 C-401.3 379.38 -399.41 356.85 -395.6 334.09 C-391.74 311.66 -385.66 289.32 -378.05 267.87 C-375.38 260.52 -372.44 253.36 -369.01 246.33 C-367.56 243.37 -366.28 240.44 -365.17 237.34 C-363.6 233.06 -361.54 229.13 -359.36 225.14 C-356.46 219.77 -353.65 214.37 -350.98 208.89 C-348.36 203.53 -345.39 198.53 -342.09 193.57 C-340.77 191.51 -339.65 189.47 -338.61 187.26 C-337.95 187.26 -337.29 187.26 -336.61 187.26 C-336.36 186.39 -336.11 185.53 -335.86 184.64 C-335.32 183 -335.32 183 -334.61 181.26 C-333.37 179.17 -332.02 177.24 -330.61 175.26 C-329.95 175.26 -329.29 175.26 -328.61 175.26 C-327.62 172.29 -327.62 172.29 -326.61 169.26 C-325.95 169.26 -325.29 169.26 -324.61 169.26 C-324.32 168.5 -324.03 167.73 -323.73 166.95 C-322.61 164.26 -322.61 164.26 -321.48 162.45 C-321.19 162.06 -320.91 161.66 -320.61 161.26 C-319.95 161.26 -319.29 161.26 -318.61 161.26 C-318.4 160.58 -318.2 159.91 -317.99 159.21 C-317.53 158.24 -317.08 157.26 -316.61 156.26 C-314.72 153.75 -312.64 151.42 -310.55 149.07 C-309.45 147.83 -308.35 146.59 -307.26 145.34 C-306.78 144.8 -306.29 144.25 -305.79 143.69 C-305.4 143.22 -305.01 142.75 -304.61 142.26 C-304.28 141.6 -303.95 140.94 -303.61 140.26 C-302.95 140.26 -302.29 140.26 -301.61 140.26 C-301.38 139.72 -301.15 139.17 -300.92 138.61 C-300.49 137.84 -300.05 137.06 -299.61 136.26 C-297.98 134.33 -296.34 132.48 -294.61 130.64 C-294.1 130.09 -293.58 129.53 -293.05 128.97 C-288.22 123.83 -283.27 118.82 -278.3 113.82 C-277.54 113.07 -276.79 112.31 -276.02 111.53 C-271.71 107.23 -267.3 103.13 -262.61 99.26 C-261.95 99.26 -261.29 99.26 -260.61 99.26 C-260.61 98.6 -260.61 97.94 -260.61 97.26 C-259.95 97.26 -259.29 97.26 -258.61 97.26 C-258.61 96.6 -258.61 95.94 -258.61 95.26 C-255.64 92.95 -252.67 90.64 -249.61 88.26 C-248.95 88.26 -248.29 88.26 -247.61 88.26 C-247.61 87.6 -247.61 86.94 -247.61 86.26 C-244.51 83.99 -241.4 81.73 -238.29 79.48 C-237.17 78.67 -236.06 77.86 -234.94 77.05 C-222.22 67.8 -209.03 59.44 -195.61 51.26 C-194.62 51.26 -193.63 51.26 -192.61 51.26 C-192.61 50.6 -192.61 49.94 -192.61 49.26 C-189.75 47.91 -186.9 46.55 -184.05 45.2 C-183.18 44.79 -182.32 44.38 -181.44 43.96 C-175.53 41.16 -169.61 38.39 -163.67 35.65 C-160.36 34.11 -157.14 32.49 -153.92 30.76 C-146.63 27.07 -138.75 24.68 -131.02 22.08 C-128.93 21.37 -126.84 20.65 -124.75 19.91 C-104.11 12.74 -82.78 7.67 -61.23 4.14 C-60.28 3.98 -59.32 3.82 -58.34 3.65 C-55.1 3.14 -51.86 2.69 -48.61 2.26 C-47.96 2.17 -47.31 2.08 -46.63 1.99 C-31.12 -0.08 -15.62 -0.05 0 0 Z M-54.61 7.26 C-55.82 7.45 -57.04 7.63 -58.25 7.81 C-81.76 11.41 -104.82 16.59 -127.38 24.2 C-138.46 28.01 -149.29 32.14 -159.79 37.35 C-161.74 38.33 -163.7 39.28 -165.66 40.23 C-172.84 43.74 -179.78 47.45 -186.63 51.56 C-189.26 53.06 -191.89 54.39 -194.61 55.68 C-200.81 58.63 -206.43 62.01 -212.05 65.95 C-212.7 66.41 -213.35 66.88 -214.02 67.35 C-216.97 69.46 -219.88 71.46 -223.07 73.21 C-227.3 75.56 -231.04 78.48 -234.86 81.45 C-235.6 82.02 -236.35 82.6 -237.12 83.19 C-245.72 89.86 -254.11 96.69 -262.16 104.03 C-263.74 105.47 -265.33 106.89 -266.93 108.3 C-277.46 117.58 -287.61 127.49 -296.61 138.26 C-297.38 139.15 -298.16 140.04 -298.94 140.92 C-311.82 155.73 -323.24 171.61 -333.61 188.26 C-334.31 189.37 -335.01 190.47 -335.71 191.57 C-348.14 211.28 -358.69 232.14 -367.6 253.65 C-372.99 266.97 -377.44 280.52 -381.61 294.26 C-382.1 295.83 -382.58 297.4 -383.07 298.98 C-388.51 316.66 -392.25 334.91 -394.61 353.26 C-395.82 363.57 -396.72 373.92 -397.61 384.26 C-395.63 387.73 -395.63 387.73 -393.61 391.26 C-392.43 391.88 -391.26 392.5 -390.05 393.14 C-389.38 393.48 -388.72 393.83 -388.04 394.19 C-385.61 395.26 -383.2 396.17 -380.63 396.86 C-377.52 397.48 -374.46 397.62 -371.29 397.69 C-363.34 397.75 -363.34 397.75 -355.45 396.89 C-351.65 395.98 -348.07 394.65 -344.49 393.1 C-343.87 392.82 -343.25 392.54 -342.61 392.26 C-341.93 391.97 -341.25 391.67 -340.55 391.37 C-332.32 387.77 -324.46 383.7 -316.72 379.13 C-309.7 375.05 -302.25 371.98 -294.64 369.16 C-291.94 368.36 -289.33 367.77 -286.54 367.42 C-282.79 367.11 -279.05 367.12 -275.3 367.14 C-274.08 367.13 -274.08 367.13 -272.84 367.12 C-271.68 367.13 -271.68 367.13 -270.5 367.13 C-269.8 367.13 -269.1 367.13 -268.38 367.13 C-267.79 367.17 -267.21 367.22 -266.61 367.26 C-265.95 367.59 -265.29 367.92 -264.61 368.26 C-264.36 370.76 -264.36 370.76 -264.35 372.42 C-264.44 373.03 -264.52 373.64 -264.61 374.26 C-265.45 376.34 -266.45 378.26 -267.52 380.23 C-269.09 383.16 -270.33 386.19 -271.61 389.26 C-272.12 389.59 -272.62 389.92 -273.14 390.26 C-273.96 390.59 -274.77 390.92 -275.61 391.26 C-277.38 391.29 -279.16 391.32 -280.94 391.28 C-284.01 391.25 -287 391.4 -290.05 391.75 C-292.66 392.21 -292.66 392.21 -295.3 393.18 C-304.25 396.93 -312.77 401.57 -320.97 406.76 C-329.3 411.49 -338.44 415.12 -347.36 418.57 C-353.03 420.52 -358.79 422.07 -364.71 423.02 C-369.36 423.61 -374 423.71 -378.67 423.57 C-381.97 423.37 -385.13 422.88 -388.35 422.18 C-390.79 421.6 -393.2 420.95 -395.61 420.26 C-395.88 432.1 -395.15 443.53 -393.61 455.26 C-391.58 456.38 -391.58 456.38 -388.61 457.26 C-382.53 457.91 -376.34 457.71 -370.25 457.46 C-367.22 457.23 -364.34 456.81 -361.39 456.13 C-357.3 455.03 -353.46 453.63 -349.58 451.94 C-347.11 450.73 -344.67 449.46 -342.25 448.14 C-332.62 442.97 -322.81 438.18 -312.61 434.26 C-311.67 433.88 -310.73 433.5 -309.76 433.1 C-306.72 431.96 -303.78 431.01 -300.61 430.26 C-295.3 429.58 -289.96 429.4 -284.61 429.26 C-285.22 432.51 -285.85 435.76 -286.48 439.01 C-286.66 439.93 -286.83 440.85 -287.01 441.8 C-287.18 442.69 -287.36 443.58 -287.54 444.5 C-287.77 445.72 -287.77 445.72 -288.01 446.97 C-288.21 447.73 -288.41 448.48 -288.61 449.26 C-289.24 450.61 -289.89 451.95 -290.61 453.26 C-291.72 453.47 -292.84 453.68 -293.98 453.89 C-300.33 455.14 -306.67 456.43 -312.73 458.73 C-321.57 462.38 -329.85 467.07 -338.16 471.77 C-346.12 476.25 -354.12 480.66 -362.71 483.83 C-366.62 485.18 -370.55 486.4 -374.61 487.26 C-378.93 487.92 -383.24 488.18 -387.61 488.26 C-386.85 494.51 -385.47 500.57 -384.05 506.7 C-383.69 508.22 -383.69 508.22 -383.34 509.78 C-382.76 512.28 -382.19 514.77 -381.61 517.26 C-376.92 517.59 -372.29 517.71 -367.61 517.26 C-364.5 516.7 -361.56 515.79 -358.58 514.74 C-349.31 511.2 -340.49 506.32 -331.95 501.28 C-330.65 500.49 -329.35 499.69 -328.05 498.89 C-324.88 496.93 -321.74 495.36 -318.3 493.95 C-315.98 493.04 -313.72 492.29 -311.3 491.69 C-307.81 491.13 -304.33 490.9 -300.8 490.7 C-300.1 490.66 -299.41 490.61 -298.7 490.57 C-297 490.46 -295.3 490.36 -293.61 490.26 C-293.68 490.93 -293.75 491.59 -293.83 492.28 C-294.5 498.97 -294.73 505.54 -294.61 512.26 C-295.35 512.22 -295.35 512.22 -296.11 512.17 C-298.3 512.1 -300.42 512.11 -302.61 512.26 C-304.47 512.7 -306.16 513.28 -307.93 513.99 C-308.82 514.37 -308.82 514.37 -309.73 514.76 C-310.37 515.03 -311.01 515.29 -311.67 515.57 C-318.63 518.55 -325.21 522.22 -331.61 526.26 C-333.05 527.25 -334.49 528.25 -335.92 529.26 C-341.36 532.95 -347.23 535.79 -353.21 538.49 C-356.05 539.7 -358.83 540.67 -361.82 541.44 C-365.06 542.17 -368.32 542.76 -371.61 543.26 C-371.8 546.61 -371.82 549.91 -371.61 553.26 C-371.08 555.93 -370.39 558.42 -369.53 561 C-368.66 563.23 -368.66 563.23 -367.62 565.15 C-366.52 566.96 -366.52 566.96 -364.61 569.26 C-363.63 569.96 -362.63 570.63 -361.61 571.26 C-359.5 571.55 -357.48 571.63 -355.34 571.62 C-353.99 571.44 -353.99 571.44 -352.61 571.26 C-349.57 570.18 -346.87 568.82 -344.03 567.3 C-340.04 564.98 -336.21 562.42 -332.36 559.89 C-318.83 551.03 -318.83 551.03 -311.57 547.66 C-309.62 546.87 -309.62 546.87 -307.61 546.26 C-304.76 545.82 -301.99 545.71 -299.11 545.76 C-296.93 545.86 -294.78 546.04 -292.61 546.26 C-291.17 550.95 -289.83 555.57 -289.19 560.44 C-288.96 563.05 -288.75 565.65 -288.61 568.26 C-289.43 568.16 -289.43 568.16 -290.27 568.05 C-292.74 567.85 -292.74 567.85 -295.48 567.92 C-298.65 568.19 -298.65 568.19 -301.8 569.07 C-305.92 570.46 -309.79 572.19 -313.61 574.26 C-318.58 577.29 -323.43 580.5 -328.22 583.79 C-332.97 587.02 -337.59 589.85 -342.81 592.23 C-344.41 592.91 -346 593.6 -347.61 594.26 C-347.53 596.88 -347.53 596.88 -347.21 598.92 C-346.63 601.41 -346.63 601.41 -345.38 604.22 C-343.93 607.33 -342.36 610.31 -340.61 613.26 C-339.18 615.11 -339.18 615.11 -337.73 616.51 C-337.03 617.09 -336.33 617.67 -335.61 618.26 C-332.93 618.19 -332.93 618.19 -330.83 617.85 C-330.1 617.65 -329.37 617.46 -328.61 617.26 C-324.81 615.51 -321.22 613.37 -317.61 611.26 C-302.19 602.27 -302.19 602.27 -295.73 599.76 C-293.04 598.86 -290.52 598.25 -287.71 597.81 C-285.34 597.56 -282.99 597.36 -280.61 597.26 C-280.75 596.13 -280.89 594.99 -281.04 593.82 C-281.61 589.3 -282.14 584.78 -282.67 580.26 C-282.76 579.49 -282.85 578.71 -282.95 577.91 C-283.17 576.03 -283.39 574.14 -283.61 572.26 C-283.06 572.42 -282.52 572.58 -281.96 572.75 C-279.57 573.33 -279.57 573.33 -276.94 573.46 C-273.81 573.51 -270.74 573.47 -267.61 573.26 C-264.95 572.77 -262.51 572.11 -259.96 571.22 C-256.87 569.96 -253.96 568.59 -251.08 566.9 C-246.29 563.72 -241.82 560.14 -237.31 556.59 C-234.5 554.4 -231.65 552.27 -228.8 550.14 C-228.27 549.75 -227.75 549.36 -227.21 548.95 C-226.01 548.05 -224.81 547.16 -223.61 546.26 C-223.39 545.14 -223.17 544.01 -222.94 542.85 C-221.54 535.93 -220.1 529.06 -217.59 522.44 C-212.1 508.85 -205.19 495.79 -197.61 483.26 C-196.53 481.57 -195.45 479.88 -194.36 478.2 C-190.86 472.77 -187.6 467.22 -184.36 461.64 C-183.84 460.75 -183.32 459.87 -182.78 458.96 C-180.54 455.06 -178.4 451.15 -176.78 446.95 C-176.07 444.7 -176.07 444.7 -175.61 442.26 C-175.15 437.8 -175.08 433.37 -175.11 428.89 C-175.11 428.26 -175.11 427.63 -175.11 426.98 C-175.15 418.76 -175.75 410.8 -177.15 402.7 C-178.2 397.19 -179.37 391.72 -180.61 386.26 C-180.84 385.21 -181.08 384.15 -181.32 383.06 C-182.38 378.3 -183.47 373.55 -184.59 368.81 C-185.47 364.97 -186.3 361.19 -186.61 357.26 C-187.05 347 -187.46 336.23 -186.18 326.01 C-184.93 319.49 -182.65 313.33 -180.3 307.14 C-177.23 299.46 -174.05 291.84 -169.7 284.79 C-167.54 281.44 -165.21 278.29 -162.61 275.26 C-160.67 273.47 -158.71 271.91 -156.57 270.38 C-154.32 269.1 -152.03 268.17 -149.61 267.26 C-150.01 267.76 -150.41 268.26 -150.82 268.78 C-153.94 272.93 -156.6 277.12 -158.97 281.73 C-163.35 290.54 -163.35 290.54 -166.78 299.73 C-167.51 302.57 -168.07 305.38 -168.61 308.26 C-168.78 309.14 -168.96 310.01 -169.14 310.92 C-170.27 317.01 -170.86 322.97 -170.93 329.16 C-170.94 331.05 -170.93 332.93 -170.92 334.82 C-170.92 335.48 -170.92 336.14 -170.92 336.81 C-170.87 345.51 -170.56 354.04 -169.02 362.62 C-168.58 364.84 -168.1 367.05 -167.61 369.26 C-167.43 370.08 -167.25 370.89 -167.07 371.73 C-164.94 381.38 -162.36 390.72 -158.66 399.89 C-157.18 403.57 -155.89 407.23 -154.98 411.1 C-154.28 415.19 -154.22 419.25 -154.23 423.39 C-154.25 427.73 -154.31 432.05 -154.9 436.37 C-155.47 439.34 -156.28 442.17 -157.3 445.02 C-160.33 452.52 -163.86 459.52 -168.16 466.39 C-170.91 470.72 -173.75 475 -176.61 479.26 C-177.27 480.25 -177.27 480.25 -177.95 481.27 C-178.81 482.55 -179.68 483.84 -180.54 485.13 C-182.18 487.59 -183.82 490.05 -185.46 492.52 C-186.2 493.65 -186.95 494.77 -187.71 495.9 C-191.07 500.95 -194.11 506.02 -196.59 511.57 C-198.91 517.01 -201.18 522.46 -202.78 528.17 C-203.46 531.08 -203.81 533.91 -203.98 536.9 C-204.14 543.3 -204.09 549.67 -203.24 556.02 C-202.16 562.23 -200.67 568.3 -198.61 574.26 C-196.37 579.82 -193.56 585.05 -190.61 590.26 C-189.46 592.34 -188.31 594.43 -187.17 596.51 C-186.7 597.34 -186.22 598.17 -185.74 599.03 C-185.36 599.76 -184.99 600.5 -184.61 601.26 C-184.25 602.59 -183.92 603.92 -183.61 605.26 C-188.27 609.06 -192.94 612.85 -197.61 616.64 C-199.26 617.97 -200.9 619.32 -202.55 620.66 C-210.73 627.3 -219.24 633.54 -228.46 638.69 C-231.11 640.08 -233.78 641.14 -236.62 642.07 C-239.27 642.87 -241.93 643.58 -244.61 644.26 C-245.47 644.49 -246.33 644.71 -247.22 644.94 C-249.35 645.46 -251.44 645.92 -253.61 646.26 C-255.64 646.39 -257.57 646.37 -259.61 646.26 C-261.45 644.64 -263.05 643.14 -264.61 641.26 C-265.92 638.82 -266.86 636.3 -267.8 633.7 C-268.29 632.38 -268.78 631.07 -269.28 629.76 C-269.5 629.15 -269.73 628.54 -269.96 627.92 C-270.72 625.96 -271.62 624.11 -272.61 622.26 C-274.88 622.15 -277.15 622.07 -279.42 622.01 C-280.04 621.98 -280.67 621.94 -281.31 621.91 C-283.46 621.87 -285.47 621.97 -287.61 622.26 C-291.44 623.26 -295.01 624.62 -298.61 626.26 C-302.45 628.35 -306.12 630.64 -309.8 633.01 C-310.75 633.61 -311.7 634.21 -312.68 634.83 C-315 636.3 -317.3 637.78 -319.61 639.26 C-319.61 640.58 -319.61 641.9 -319.61 643.26 C-318.86 644.13 -318.11 645 -317.34 645.89 C-316.35 647.06 -315.35 648.22 -314.36 649.39 C-313.87 649.96 -313.38 650.53 -312.87 651.11 C-309.83 654.68 -307.13 658.31 -304.61 662.26 C-302.29 661.95 -302.29 661.95 -299.61 661.26 C-297.17 660.01 -297.17 660.01 -294.8 658.45 C-290.52 655.8 -286.24 653.23 -281.61 651.26 C-279.68 650.67 -279.68 650.67 -277.61 650.26 C-275.11 650.01 -272.67 649.95 -270.16 649.96 C-269.32 650.06 -268.48 650.16 -267.61 650.26 C-265.4 651.16 -265.4 651.16 -263.48 652.26 C-262.51 652.91 -261.55 653.57 -260.61 654.26 C-259.83 655.6 -259.05 656.93 -258.26 658.26 C-258.05 658.92 -257.83 659.58 -257.61 660.26 C-257.48 662.61 -257.54 664.91 -257.61 667.26 C-258.58 667.51 -259.54 667.77 -260.54 668.03 C-263.92 668.92 -267.3 669.83 -270.68 670.74 C-272.34 671.19 -274 671.62 -275.66 672.05 C-278.02 672.7 -280.32 673.37 -282.61 674.26 C-284.32 675.28 -284.32 675.28 -285.73 676.45 C-286.35 677.05 -286.97 677.64 -287.61 678.26 C-287.94 679.25 -288.27 680.24 -288.61 681.26 C-286.63 683.57 -284.65 685.88 -282.61 688.26 C-281.95 688.26 -281.29 688.26 -280.61 688.26 C-280.38 688.82 -280.16 689.38 -279.93 689.96 C-279.49 690.72 -279.06 691.48 -278.61 692.26 C-276.93 693.92 -275.27 695.48 -273.48 697.01 C-273.02 697.42 -272.55 697.83 -272.07 698.26 C-270.92 699.26 -269.76 700.26 -268.61 701.26 C-266.6 701 -264.6 700.65 -262.61 700.26 C-259.97 699.14 -259.97 699.14 -257.48 697.76 C-255.87 696.9 -254.25 696.06 -252.61 695.26 C-250.57 694.61 -250.57 694.61 -248.61 694.26 C-247.19 694.2 -245.78 694.17 -244.36 694.2 C-242.5 694.23 -242.5 694.23 -240.61 694.26 C-237.64 698.22 -234.67 702.18 -231.61 706.26 C-231.61 707.58 -231.61 708.9 -231.61 710.26 C-238.04 714.22 -238.04 714.22 -244.61 718.26 C-244.61 719.58 -244.61 720.9 -244.61 722.26 C-240.16 727.15 -235.25 731.37 -230.03 735.4 C-223.32 740.41 -215.99 744.34 -208.61 748.26 C-207.29 747.93 -205.97 747.6 -204.61 747.26 C-204.35 746.51 -204.1 745.76 -203.83 744.98 C-201.24 737.78 -198.12 731.13 -194.33 724.49 C-190.99 718.77 -187.4 713.23 -183.78 707.7 C-180.51 702.7 -177.35 697.65 -174.3 692.51 C-173.91 691.87 -173.53 691.24 -173.13 690.58 C-171.91 688.5 -170.75 686.39 -169.61 684.26 C-169.1 683.32 -168.6 682.38 -168.08 681.4 C-166.39 678.1 -164.83 674.77 -163.61 671.26 C-162.23 666.11 -161.53 660.84 -160.8 655.57 C-160.49 653.54 -160.19 651.51 -159.88 649.48 C-159.69 648.23 -159.51 646.98 -159.33 645.73 C-159.11 644.24 -158.86 642.75 -158.61 641.26 C-158.28 640.6 -157.95 639.94 -157.61 639.26 C-156.98 640.47 -156.35 641.68 -155.73 642.89 C-155.39 643.56 -155.04 644.23 -154.68 644.92 C-153.4 647.71 -152.4 650.29 -151.61 653.26 C-151.31 656.37 -151.28 659.45 -151.3 662.57 C-151.27 663.78 -151.27 663.78 -151.25 665.01 C-151.25 667.46 -151.34 669.82 -151.61 672.26 C-152.68 676.66 -154.36 680.79 -156.16 684.94 C-159.49 691.97 -163.29 698.45 -167.77 704.81 C-168.99 706.53 -170.22 708.24 -171.45 709.96 C-177.03 717.75 -181.82 725.72 -186.13 734.28 C-188 738.23 -189.72 742.18 -190.92 746.39 C-191.4 748.55 -191.62 750.54 -191.72 752.75 C-191.73 754.93 -191.7 757.09 -191.61 759.26 C-188.59 761.77 -185.51 764.16 -182.1 766.13 C-178.67 767.99 -175.21 769.76 -171.61 771.26 C-170.62 771.26 -169.63 771.26 -168.61 771.26 C-168.57 770.71 -168.54 770.16 -168.5 769.6 C-168.09 763.46 -167.62 757.33 -166.61 751.26 C-166.03 749.07 -165.31 747.28 -164.36 745.2 C-163.47 743.54 -162.55 741.89 -161.61 740.26 C-161 739.06 -161 739.06 -160.37 737.83 C-154.74 726.92 -147.94 716.43 -140.92 706.37 C-136.23 699.62 -132.17 692.81 -128.61 685.39 C-128.23 684.61 -127.86 683.84 -127.47 683.04 C-126.1 680.07 -124.87 677.13 -123.93 673.98 C-123.22 671.05 -122.7 668.16 -122.39 665.15 C-122.1 660.19 -122.17 655.21 -122.61 650.26 C-123.09 647.12 -123.09 647.12 -123.98 644.26 C-126.22 638.56 -129.15 633.22 -132.27 627.97 C-137.23 619.96 -143.06 612.65 -148.95 605.33 C-152.56 600.83 -156.07 596.25 -159.56 591.65 C-160.53 590.36 -161.51 589.08 -162.5 587.8 C-166.15 582.85 -169.09 577.68 -171.86 572.2 C-172.19 571.55 -172.52 570.9 -172.86 570.23 C-174.87 566.13 -176.66 561.96 -178.05 557.6 C-178.61 555.26 -178.61 555.26 -178.87 552.85 C-178.97 550.35 -178.97 547.88 -178.92 545.39 C-178.91 544.5 -178.89 543.62 -178.88 542.71 C-178.77 538.34 -178.67 533.97 -178.11 529.64 C-177.36 526.28 -176.21 523.17 -174.94 519.99 C-172.14 513.29 -169.09 506.71 -165.3 500.51 C-159.74 492.26 -153.37 484.55 -146.99 476.93 C-143.07 472.23 -139.4 467.47 -136.25 462.22 C-135.71 461.24 -135.17 460.27 -134.61 459.26 C-134.32 458.75 -134.03 458.24 -133.73 457.72 C-132.13 454.82 -130.8 451.9 -129.73 448.78 C-129.04 446.36 -128.58 444.03 -128.24 441.53 C-127.7 435.18 -127.72 428.9 -128.21 422.54 C-128.87 417.09 -130.17 411.9 -131.73 406.64 C-133.93 399.65 -136.45 392.81 -139.33 386.07 C-141.8 380.15 -143.57 374.04 -145.36 367.89 C-145.65 366.87 -145.95 365.86 -146.25 364.82 C-147.06 361.97 -147.84 359.12 -148.61 356.26 C-148.82 355.51 -149.03 354.77 -149.24 353.99 C-149.82 351.75 -150.27 349.55 -150.61 347.26 C-150.93 342.88 -150.99 338.52 -150.98 334.14 C-150.98 333.54 -150.98 332.94 -150.98 332.32 C-150.96 327.49 -150.9 322.67 -150.32 317.87 C-149.65 314.18 -148.58 310.7 -147.3 307.18 C-146.5 304.95 -145.78 302.7 -145.07 300.44 C-142.47 292.46 -139.64 284.64 -135.73 277.2 C-133.52 273.17 -131.1 269.36 -128.3 265.72 C-125.15 261.82 -121.71 258.24 -118.05 254.82 C-116.61 253.59 -115.13 252.4 -113.61 251.26 C-111.01 249.73 -108.39 248.41 -105.61 247.26 C-106.15 247.87 -106.7 248.48 -107.26 249.1 C-110.86 253.24 -114.19 257.44 -117.03 262.13 C-120.97 268.89 -124.62 275.79 -127.49 283.07 C-128.85 286.94 -130.11 290.83 -131.3 294.76 C-131.5 295.42 -131.7 296.09 -131.91 296.77 C-133.67 302.84 -134.87 308.98 -135.61 315.26 C-135.97 320.19 -136 325.13 -135.98 330.07 C-135.98 330.74 -135.98 331.4 -135.98 332.08 C-135.95 340.98 -135.95 340.98 -135.03 349.81 C-134.39 352.74 -133.5 355.55 -132.4 358.34 C-132.01 359.29 -132.01 359.29 -131.61 360.26 C-131.29 361.06 -130.97 361.85 -130.65 362.67 C-127.12 371.47 -123.29 380.1 -118.92 388.51 C-116.26 393.62 -114.16 398.83 -112.23 404.26 C-111.86 405.32 -111.86 405.32 -111.47 406.4 C-110.49 409.28 -109.64 412.12 -108.96 415.08 C-108.45 419.75 -108.42 424.38 -108.42 429.07 C-108.41 430.02 -108.4 430.97 -108.38 431.94 C-108.38 435.55 -108.46 439.09 -108.91 442.68 C-109.34 444.95 -109.87 447.07 -110.61 449.26 C-111.93 452.14 -113.5 454.82 -115.17 457.51 C-115.62 458.24 -116.06 458.98 -116.52 459.73 C-121.68 468.17 -127.22 476.26 -133.34 484.03 C-139.82 492.25 -145.19 500.95 -150.17 510.15 C-152.35 514.38 -154.41 518.67 -155.98 523.17 C-156.96 526.43 -157.71 529.65 -158.26 533.01 C-158.91 539.08 -159.03 545.12 -158.75 551.22 C-158.54 554.2 -158.13 557.01 -157.55 559.95 C-156.47 563.97 -155.08 567.75 -153.35 571.54 C-151.08 576.21 -148.5 580.63 -145.46 584.85 C-139.77 592.45 -133.51 599.64 -127.27 606.79 C-122.51 612.27 -118.05 617.76 -114.23 623.95 C-111.7 628.17 -109.27 632.44 -107.42 637.02 C-106.38 639.9 -105.65 642.76 -105.01 645.75 C-104.32 650.07 -104.32 654.34 -104.36 658.7 C-104.35 659.58 -104.34 660.45 -104.33 661.36 C-104.35 664.92 -104.48 668.38 -105 671.92 C-106.16 677.97 -107.81 683.72 -110 689.49 C-113.38 697.78 -118.19 705.44 -122.94 713 C-125.76 717.41 -128.64 721.79 -131.52 726.16 C-136.23 733.39 -140.25 740.75 -143.65 748.69 C-144.4 750.9 -145.02 753.04 -145.41 755.35 C-146.17 762.54 -145.89 769.86 -145.77 777.08 C-145.72 777.8 -145.66 778.52 -145.61 779.26 C-145.28 780.25 -144.95 781.24 -144.61 782.26 C-132.25 787.17 -132.25 787.17 -119.61 791.26 C-118.62 791.26 -117.63 791.26 -116.61 791.26 C-116.85 789.96 -116.85 789.96 -117.09 788.62 C-118.25 781.05 -117.97 773.3 -117.89 765.66 C-117.81 762.73 -117.69 759.87 -117.29 756.97 C-116.93 755.26 -116.43 753.57 -115.92 751.89 C-115.16 750.01 -114.39 748.13 -113.61 746.26 C-113.26 745.36 -112.91 744.45 -112.54 743.52 C-109.97 737.02 -106.94 731.07 -103.29 725.13 C-102.82 724.36 -102.82 724.36 -102.33 723.58 C-100.65 720.88 -99.01 718.15 -97.35 715.42 C-97.03 714.89 -96.7 714.36 -96.36 713.81 C-87.82 699.8 -87.82 699.8 -80.67 685.05 C-78.99 680.64 -77.4 676.29 -76.34 671.69 C-75.52 667.38 -75.24 663.09 -75.08 658.71 C-75.02 653.87 -75.1 649.08 -75.61 644.26 C-76.11 641.58 -76.79 639.07 -77.73 636.51 C-78.61 634.37 -79.58 632.34 -80.61 630.26 C-81.04 629.33 -81.48 628.39 -81.92 627.43 C-83.92 623.45 -86.21 619.75 -88.83 616.15 C-93 610.57 -97.45 605.24 -101.98 599.95 C-108.96 591.79 -115.95 583.41 -121.52 574.21 C-123.46 570.62 -125 567.02 -126.33 563.17 C-128.37 556.96 -130.1 550.7 -131.06 544.23 C-131.17 541.64 -131.17 541.64 -131.02 539.08 C-130.19 533.39 -129.07 527.86 -127.35 522.36 C-125.34 516.66 -122.55 511.32 -119.62 506.04 C-114.63 497.27 -108.75 489.24 -102.61 481.26 C-102.61 480.6 -102.61 479.94 -102.61 479.26 C-101.95 479.26 -101.29 479.26 -100.61 479.26 C-97.61 475.45 -94.85 471.53 -92.52 467.28 C-89.56 461.53 -86.82 455.68 -84.66 449.58 C-84.07 447.33 -84.07 447.33 -83.79 445.03 C-83.34 438.09 -83 431.2 -83.61 424.26 C-84.39 419.1 -85.95 414.2 -87.61 409.26 C-87.8 408.65 -87.99 408.04 -88.19 407.41 C-91.76 396.16 -96.45 385.37 -101.21 374.58 C-105.25 365.38 -109.17 356.01 -111.75 346.27 C-112.96 340.28 -113.66 334.44 -113.89 328.32 C-114.1 318.86 -114.03 309.32 -112.61 299.95 C-111.6 294.26 -109.92 288.87 -107.94 283.45 C-106.09 278.68 -104.14 273.95 -101.6 269.49 C-99.52 266.2 -97.11 263.24 -94.61 260.26 C-93.92 259.34 -93.23 258.42 -92.53 257.48 C-90.36 254.6 -88.15 251.82 -85.61 249.26 C-81.82 245.98 -77.74 243.09 -73.61 240.26 C-72.95 240.26 -72.29 240.26 -71.61 240.26 C-72.06 240.77 -72.51 241.29 -72.97 241.82 C-77.64 247.37 -81.58 253.19 -85.36 259.39 C-85.82 260.14 -86.28 260.89 -86.75 261.66 C-89.97 267.01 -93.04 272.39 -95.39 278.18 C-97.04 282.76 -98.23 287.43 -99.16 292.21 C-100.31 300.05 -100.34 307.98 -100.14 315.89 C-99.89 322.98 -99.24 329.93 -97.8 336.89 C-94.26 351.89 -87.97 366.1 -81.91 380.22 C-79.67 385.45 -77.41 390.67 -75.11 395.87 C-71.72 403.57 -68.35 411.3 -65.61 419.26 C-65.03 421.68 -64.63 423.98 -64.43 426.46 C-64.27 432.4 -64.16 438.33 -64.61 444.26 C-64.99 446.75 -65.58 448.95 -66.3 451.39 C-67.02 453.36 -67.79 455.32 -68.61 457.26 C-68.94 458.05 -69.26 458.83 -69.6 459.64 C-74.01 469.15 -79.9 478.37 -85.81 487.02 C-86.91 488.56 -88.01 490.1 -89.11 491.64 C-95.06 500.02 -100.15 509 -104.61 518.26 C-105.64 520.58 -106.55 522.89 -107.3 525.32 C-108.22 529.2 -108.71 532.91 -108.97 536.89 C-109.17 541.7 -109.09 546.46 -108.61 551.26 C-108.26 553.64 -107.74 555.8 -107.11 558.14 C-105.71 561.99 -104.01 565.57 -101.97 569.12 C-96.63 577.95 -90.1 585.95 -83.62 593.96 C-69.33 611.62 -69.33 611.62 -64.12 620.92 C-62.79 623.66 -61.67 626.4 -60.61 629.26 C-60.27 630.16 -60.27 630.16 -59.92 631.09 C-58.1 636.06 -56.6 641.05 -55.61 646.26 C-55.08 650.15 -54.89 653.98 -54.96 657.91 C-55.18 662.06 -55.68 666.1 -56.47 670.18 C-57.75 675.71 -59.45 681.01 -61.61 686.26 C-65.55 694.97 -70.15 703.37 -74.77 711.73 C-77.06 715.9 -79.33 720.08 -81.61 724.26 C-81.95 724.88 -82.29 725.5 -82.64 726.14 C-86.41 733.11 -89.45 740.13 -91.98 747.64 C-92.23 748.37 -92.48 749.11 -92.74 749.87 C-93.65 752.68 -94.46 755.44 -94.98 758.35 C-95.78 764.29 -95.99 770.25 -95.75 776.23 C-95.49 779.96 -94.96 783.64 -94.36 787.32 C-94.19 788.39 -94.19 788.39 -94.03 789.49 C-93.67 791.48 -93.25 793.34 -92.61 795.26 C-92.02 796.21 -91.42 797.16 -90.81 798.13 C-90.08 798.83 -89.36 799.54 -88.61 800.26 C-87.82 800.68 -87.03 801.1 -86.21 801.53 C-83.61 802.32 -83.61 802.32 -80.85 802.67 C-74.42 803.14 -68.05 803.39 -61.61 803.26 C-61.87 802.54 -62.14 801.81 -62.41 801.07 C-63.48 798.13 -64.55 795.2 -65.61 792.26 C-66 791.19 -66.39 790.12 -66.8 789.01 C-67.55 786.45 -68.04 783.97 -68.4 781.33 C-69.14 774.03 -69.02 766.57 -68.61 759.26 C-68.18 756.11 -67.56 753.26 -66.64 750.22 C-66.3 749.24 -65.96 748.27 -65.61 747.26 C-65.42 746.69 -65.22 746.11 -65.02 745.52 C-60.88 733.27 -55.58 721.34 -49.37 710 C-48.12 707.79 -46.87 705.59 -45.61 703.39 C-39.52 692.69 -34.76 681.53 -30.38 670.04 C-29.51 667.34 -29.51 667.34 -28.98 664.6 C-28.14 657.03 -27.93 649.48 -28.36 641.88 C-28.58 639.51 -28.92 637.28 -29.45 634.96 C-30.33 631.84 -31.45 628.86 -32.8 625.91 C-36.59 618.17 -41.52 611.31 -46.56 604.34 C-51.57 597.5 -56.72 590.79 -62.05 584.2 C-72.21 571.59 -72.21 571.59 -75.56 565.54 C-77.7 561.51 -79.75 557.44 -81.61 553.26 C-82.18 551.32 -82.18 551.32 -82.61 549.26 C-83.16 542.98 -83.07 536.55 -82.61 530.26 C-82 526.83 -82 526.83 -81.11 523.95 C-78.85 518.25 -75.91 512.87 -72.74 507.63 C-70.27 503.66 -67.54 499.9 -64.75 496.16 C-59.2 488.7 -53.89 481 -49.62 472.73 C-47.31 468.11 -45.27 463.49 -43.48 458.64 C-42.58 456.26 -42.58 456.26 -41.61 454.26 C-40.26 452.76 -40.26 452.76 -38.86 451.64 C-38.12 451.18 -37.37 450.73 -36.61 450.26 C-34.31 450.02 -32.06 449.94 -29.75 449.93 C-28.19 450.09 -28.19 450.09 -26.61 450.26 C-24.33 451.05 -22.1 451.88 -19.86 452.76 C-17.14 453.77 -14.44 454.62 -11.61 455.26 C-6.12 455.95 -0.64 455.96 4.88 455.77 C7.62 455.58 10.23 455.29 12.92 454.75 C16.04 453.95 19.1 453.04 22.16 452.05 C24.23 451.39 26.28 450.77 28.39 450.26 C32.01 449.84 35.54 449.93 39.18 450.08 C39.91 450.14 40.64 450.2 41.39 450.26 C43.04 451.25 44.69 452.24 46.39 453.26 C47.05 453.26 47.71 453.26 48.39 453.26 C48.48 454.09 48.56 454.92 48.65 455.77 C48.92 457.47 48.92 457.47 49.39 459.26 C50.48 461.98 51.82 464.55 53.2 467.14 C53.6 467.87 53.99 468.61 54.39 469.37 C58.54 476.91 63.62 483.65 68.93 490.4 C74.91 498.03 80.47 505.9 85.39 514.26 C86.93 517.2 88.34 520.11 89.39 523.26 C89.97 525.53 90.34 527.74 90.56 530.07 C90.87 534.65 90.92 539.23 90.67 543.81 C90.39 546.26 89.92 548.5 89.26 550.87 C87.59 556.09 85.46 561.05 83.08 565.98 C78.43 574.27 72.17 581.74 66.39 589.26 C65.94 589.85 65.49 590.44 65.03 591.04 C61.31 595.9 57.6 600.75 53.79 605.53 C49.03 611.56 44.63 617.62 40.86 624.33 C38.99 628.07 37.49 631.85 36.12 635.79 C35.38 638.29 34.8 640.68 34.39 643.26 C33.94 648.58 33.99 653.94 34.39 659.26 C34.82 662.13 35.37 664.84 36.21 667.62 C39.1 676.09 43.68 683.95 47.99 691.76 C49.6 694.63 51.23 697.47 52.87 700.31 C58.79 710.6 64.02 721.22 68.39 732.26 C70.72 738.83 72.68 745.51 74.39 752.26 C74.58 753 74.78 753.75 74.98 754.51 C75.7 757.5 76.31 760.43 76.61 763.49 C76.73 765.77 76.77 768.04 76.77 770.32 C76.77 771.14 76.77 771.95 76.77 772.79 C76.7 776.1 76.54 779.33 76.02 782.61 C75.08 787.25 73.84 791.76 72.39 796.26 C72.02 797.17 71.64 798.08 71.26 799.02 C70.97 799.76 70.69 800.5 70.39 801.26 C70.39 802.25 70.39 803.24 70.39 804.26 C71.14 804.09 71.14 804.09 71.9 803.93 C80.4 802.04 88.89 800.15 97.39 798.26 C98.91 796.12 98.91 796.12 100.39 793.26 C101.16 790.86 101.64 788.43 102.08 785.95 C102.27 784.91 102.27 784.91 102.46 783.84 C103.29 778.85 103.69 773.94 103.7 768.89 C103.65 764.56 103.41 760.34 102.64 756.07 C102.25 754.46 101.83 752.86 101.39 751.26 C101.14 750.28 100.88 749.3 100.61 748.29 C98.74 741.68 96.33 735.48 93.38 729.27 C88.03 718.3 82.32 707.5 76.2 696.95 C72.31 690.21 68.43 683.44 65.39 676.26 C64.51 673.79 64.51 673.79 63.95 671.51 C63.02 665.27 63.07 658.88 63.22 652.59 C63.33 649.23 63.5 645.91 63.95 642.57 C64.48 640.13 65.17 637.84 66.08 635.51 C69.03 628.47 72.45 621.56 76.49 615.08 C83.5 604.67 91.03 594.64 98.77 584.76 C100.98 581.93 103.19 579.1 105.39 576.26 C106 575.48 106 575.48 106.62 574.68 C108.71 571.96 110.68 569.23 112.39 566.26 C114 562.66 115.35 559.06 116.39 555.26 C117.11 551.84 117.48 548.49 117.67 545.01 C117.82 540.08 117.83 535.18 117.39 530.26 C117.07 528.4 116.66 526.65 116.11 524.84 C113.58 517.83 109.92 511.27 106.25 504.79 C101.25 496.16 95.64 488.01 89.86 479.88 C79.13 464.77 79.13 464.77 75.15 456.76 C74.13 454.29 73.28 451.89 72.7 449.28 C71.77 443.13 71.95 436.83 72.06 430.63 C72.25 426.21 72.79 421.99 73.75 417.67 C74.81 413.68 76.25 409.89 77.83 406.07 C78.17 405.23 78.52 404.38 78.87 403.51 C82.5 394.73 86.64 386.22 90.78 377.67 C95.9 367.08 100.48 356.67 103.8 345.37 C104.36 343.34 104.89 341.31 105.39 339.26 C105.58 338.54 105.77 337.81 105.96 337.06 C106.83 333.3 107.37 329.67 107.6 325.8 C107.7 322.56 107.72 319.33 107.71 316.09 C107.7 314.09 107.73 312.1 107.75 310.11 C107.78 304.76 107.65 299.5 106.79 294.2 C105.73 288.44 104.49 282.69 102.5 277.17 C102.17 276.32 102.17 276.32 101.83 275.45 C101.58 274.8 101.33 274.16 101.07 273.49 C97.96 265.79 94.17 258.4 89.8 251.34 C87.16 247.44 84.06 244 80.8 240.61 C79.67 239.48 78.53 238.37 77.39 237.26 C79.51 237.96 79.51 237.96 82.39 239.26 C86.45 241.97 90.12 245.29 93.7 248.59 C98.04 252.87 101.72 257.7 105.26 262.64 C107.89 266.4 110.31 270.17 112.39 274.26 C115.2 280.36 117.6 286.6 119.81 292.93 C120.66 296.36 121.1 299.75 121.39 303.26 C121.88 312.78 122.15 322.56 121.08 332.05 C120.2 337.55 118.87 342.9 117.39 348.26 C117.2 348.99 117.01 349.72 116.81 350.47 C114.62 358.74 111.96 366.7 108.7 374.6 C105.9 381.37 103.49 388.26 101.11 395.18 C100.41 397.19 99.71 399.2 99.01 401.21 C97.74 404.88 96.54 408.56 95.39 412.26 C94.91 413.81 94.91 413.81 94.42 415.38 C93.52 418.66 92.8 421.89 92.39 425.26 C91.86 431.93 91.82 438.59 92.39 445.26 C92.71 447.61 93.2 449.7 93.83 452.01 C95.92 457.73 98.68 463.1 101.69 468.39 C104.25 472.66 107.03 476.55 110.27 480.32 C111.1 481.29 111.94 482.25 112.78 483.21 C119.09 490.48 124.78 498.39 129.75 506.63 C131.39 509.46 132.91 512.35 134.39 515.26 C134.92 516.26 135.45 517.26 135.99 518.29 C137.2 520.92 138.27 523.47 139.01 526.27 C139.63 529.52 139.81 532.75 139.93 536.05 C139.97 541.09 139.87 546.12 139.11 551.12 C138.56 553.63 137.74 555.94 136.77 558.32 C136.32 559.29 135.86 560.26 135.39 561.26 C135.12 561.86 134.85 562.46 134.58 563.08 C131.8 569.27 128.78 575.29 125 580.94 C122.56 584.45 119.99 587.86 117.39 591.26 C116.54 592.39 115.7 593.51 114.85 594.64 C111.27 599.36 107.63 604.01 103.85 608.57 C97.18 616.6 97.18 616.6 91.39 625.26 C88.58 630.86 86.15 636.68 84.26 642.65 C83.75 644.52 83.38 646.33 83.12 648.25 C82.73 653.04 82.75 657.81 83.07 662.6 C83.51 666.23 84.35 669.63 85.39 673.13 C88.34 681.99 92.12 690.38 96.56 698.59 C99.47 703.82 102.62 708.86 105.92 713.84 C112 723.11 117.7 732.93 122.13 743.11 C123.91 747.49 125.36 751.91 126.5 756.5 C127.02 758.93 127.39 761.25 127.57 763.73 C127.62 766.26 127.62 768.79 127.58 771.32 C127.58 772.17 127.58 773.02 127.58 773.89 C127.54 779.09 127.14 784.11 126.39 789.26 C132.72 787.98 138.78 786.28 144.89 784.2 C146.11 783.8 146.11 783.8 147.34 783.38 C150.39 782.37 150.39 782.37 153.39 781.26 C153.72 780.93 154.05 780.6 154.39 780.26 C154.92 767.69 154.92 767.69 154.13 755.15 C153.59 752.44 152.74 749.93 151.77 747.34 C151.32 746.32 150.86 745.31 150.39 744.26 C150.13 743.67 149.87 743.08 149.59 742.47 C143.18 728.28 134.73 715.13 126.02 702.26 C122.89 697.61 119.79 693 117.42 687.9 C115.42 682.77 113.82 677.58 112.71 672.19 C112.2 669.13 112.02 666.11 112.02 663.01 C112.16 658.87 112.47 654.8 113.08 650.7 C114.05 646.15 115.39 641.77 117.09 637.44 C120.19 630.04 124.1 623.03 128.39 616.26 C132.84 609.63 137.77 603.34 142.67 597.03 C152.23 584.91 152.23 584.91 160.53 571.92 C161.9 569.29 162.98 566.68 163.95 563.89 C164.65 561.36 165.08 558.86 165.39 556.26 C166.02 548.26 166.02 540.26 165.39 532.26 C165.1 529.91 164.65 527.88 164.02 525.57 C163.2 523.42 162.34 521.36 161.39 519.26 C161.07 518.51 160.75 517.76 160.41 516.98 C156.56 508.05 152.35 499.42 147.01 491.29 C145.02 488.34 142.99 485.41 140.95 482.49 C138.26 478.64 135.68 474.73 133.08 470.82 C132.58 470.07 132.08 469.31 131.56 468.54 C130.6 467.1 129.65 465.66 128.69 464.22 C127.53 462.47 126.36 460.74 125.19 459 C123.5 456.46 121.88 453.93 120.39 451.26 C118.83 447.56 117.77 443.86 116.84 439.96 C116.17 435.92 116.09 431.92 116.07 427.84 C116.12 424.91 116.27 422.06 116.71 419.16 C118.04 412.37 120.09 405.76 122.45 399.26 C125.49 391.69 128.99 384.31 132.47 376.92 C135.46 370.53 138.05 364.21 139.9 357.39 C141.32 351.52 142.1 345.54 142.51 339.52 C143.09 329.48 143.32 319.29 142.39 309.26 C141.56 303.04 139.91 297.04 138.03 291.06 C137.49 289.46 136.94 287.86 136.39 286.26 C136.18 285.61 135.97 284.95 135.75 284.28 C133.62 277.78 130.73 271.69 127.58 265.64 C124.06 259.08 119.97 253.12 115.39 247.26 C116.05 247.26 116.71 247.26 117.39 247.26 C120.09 249.22 122.75 251.23 125.39 253.26 C126.05 253.76 126.71 254.25 127.39 254.76 C129.54 256.49 131.48 258.26 133.39 260.26 C137.11 264.83 140.39 269.75 143.31 274.86 C146.88 281.42 149.82 288.26 152.39 295.26 C152.74 296.21 153.09 297.15 153.45 298.13 C155.19 303.03 156.66 307.9 157.64 313.01 C158.52 319.03 158.72 324.98 158.58 331.05 C158.29 338.84 157.52 346.58 156 354.23 C154.97 358.95 153.69 363.6 152.39 368.26 C152.16 369.09 151.94 369.91 151.7 370.76 C149.26 379.62 146.74 388.44 143.77 397.14 C142.97 399.51 142.18 401.88 141.39 404.26 C141.19 404.85 140.99 405.44 140.79 406.04 C139.35 410.39 138.1 414.73 137.39 419.26 C136.87 424.91 136.87 430.55 137.21 436.21 C137.36 437.92 137.62 439.61 137.9 441.3 C138.57 443.73 139.39 445.95 140.39 448.26 C140.9 449.52 140.9 449.52 141.42 450.81 C144.76 458.6 148.76 466.15 153.39 473.26 C157.4 479.01 161.63 484.59 165.84 490.19 C168.8 494.14 171.66 498.15 174.39 502.26 C174.9 503.02 175.4 503.77 175.93 504.55 C178.68 508.88 180.93 513.29 182.9 518.01 C183.16 518.67 183.43 519.33 183.7 520.01 C183.96 520.64 184.21 521.26 184.48 521.91 C185.56 524.69 186.41 527.33 187.04 530.25 C187.7 535.88 187.82 541.47 187.57 547.14 C187.29 550.47 186.68 553.65 185.83 556.89 C184.4 561.88 182.54 566.65 180.27 571.32 C176.79 578.09 172.45 584.17 167.9 590.25 C166.2 592.52 164.52 594.8 162.85 597.08 C149.8 614.88 149.8 614.88 143.98 622.39 C139.78 627.83 139.78 627.83 136 633.56 C134.48 636.49 133.37 639.32 132.32 642.46 C131.78 644.41 131.39 646.27 131.17 648.29 C130.85 654.22 130.9 660.22 131.62 666.12 C132.1 668.97 132.85 671.71 133.81 674.44 C137.21 683.06 141.72 691.27 146.39 699.26 C148.35 702.4 150.43 705.46 152.54 708.5 C156.25 713.9 159.53 719.51 162.77 725.2 C163.27 726.07 163.77 726.95 164.28 727.85 C167.66 733.83 170.98 739.82 173.59 746.17 C175.06 750.46 176.35 754.67 177.09 759.14 C177.59 762.51 178.01 765.88 178.39 769.26 C181.15 768.79 183.68 768.16 186.33 767.25 C189.41 766 192.42 764.74 195.39 763.26 C197.26 761.91 197.26 761.91 198.64 760.45 C199.22 759.73 199.8 759 200.39 758.26 C200.63 756.19 200.7 754.17 200.7 752.08 C200.46 749.19 200.46 749.19 199.52 746.19 C197.64 741.07 195.49 736.25 192.78 731.51 C191.66 729.62 190.51 727.75 189.35 725.88 C188.2 723.95 187.14 721.97 186.07 719.98 C183.36 715.08 180.24 710.53 177.02 705.95 C172.14 698.91 167.34 691.88 163.39 684.26 C162.85 683.3 162.3 682.33 161.74 681.33 C160.98 679.54 160.98 679.54 160.39 677.26 C160.01 673.09 159.96 668.97 160 664.78 C160.02 662.83 160 660.88 159.98 658.93 C159.98 655.35 160.07 651.83 160.39 648.26 C161.05 645.67 161.05 645.67 161.85 643.54 C162.35 642.44 162.87 641.35 163.39 640.26 C163.72 639.27 164.05 638.28 164.39 637.26 C165.05 637.59 165.71 637.92 166.39 638.26 C166.42 638.87 166.45 639.49 166.48 640.12 C167.05 651.96 167.05 651.96 168.93 663.65 C170.31 668.38 172.25 672.83 174.39 677.26 C174.7 677.92 175.02 678.58 175.34 679.26 C181.57 692.2 189.55 704.05 197.53 715.96 C203.3 724.6 208.1 733.79 212.29 743.3 C213 744.95 213.7 746.61 214.39 748.26 C222.75 744.44 230.74 739.86 238.37 734.73 C243.82 730.77 248.62 726.01 253.39 721.26 C251.76 719.51 250.17 717.85 248.39 716.26 C245.54 714.43 245.54 714.43 242.58 712.95 C241.6 712.44 240.63 711.92 239.62 711.4 C238.52 710.83 238.52 710.83 237.39 710.26 C237.72 707.95 238.05 705.64 238.39 703.26 C241.03 699.96 243.67 696.66 246.39 693.26 C251.11 694.05 255.64 694.96 260.17 696.51 C263.59 697.72 267 698.98 270.39 700.26 C272.26 699.96 272.26 699.96 274.39 699.26 C277.31 697.22 279.84 694.74 282.39 692.26 C285.55 689.07 288.66 685.83 291.39 682.26 C292.18 680.09 292.18 680.09 292.39 678.26 C284.68 673.43 284.68 673.43 276.5 669.49 C272.86 668.19 269.17 667.11 265.39 666.26 C264.4 666.26 263.41 666.26 262.39 666.26 C263.22 662.85 264.14 659.54 265.39 656.26 C266.7 654.26 266.7 654.26 268.08 652.64 C268.84 651.85 269.61 651.07 270.39 650.26 C274.08 650.06 277.71 650.07 281.39 650.26 C284.39 650.66 287.19 651.27 290.11 652.06 C296.55 654.42 302.46 657.85 308.39 661.26 C309.71 660.93 311.03 660.6 312.39 660.26 C315.53 657.37 318.53 654.43 321.39 651.26 C322.93 649 324.25 646.73 325.52 644.3 C326.37 642.3 326.89 640.38 327.39 638.26 C326.78 637.97 326.17 637.68 325.53 637.38 C323.7 636.5 321.86 635.63 320.02 634.75 C318.45 634.01 316.88 633.26 315.31 632.51 C310.03 630 304.75 627.49 299.58 624.75 C298.52 624.19 298.52 624.19 297.44 623.63 C296.16 622.95 294.88 622.26 293.62 621.55 C292.49 620.95 291.34 620.38 290.18 619.83 C289.59 619.64 289 619.46 288.39 619.26 C285.7 619.02 283.09 619.05 280.39 619.26 C278.85 621.25 277.59 623.06 276.39 625.26 C275.28 628.29 274.3 631.34 273.33 634.41 C272.59 636.67 271.81 638.76 270.77 640.89 C270.31 641.67 269.86 642.45 269.39 643.26 C268.73 643.92 268.07 644.58 267.39 645.26 C263.01 645.25 258.71 645.02 254.39 644.26 C249.55 643.01 244.93 641.17 240.35 639.16 C234.78 636.6 229.48 633.69 224.39 630.26 C220.22 627.28 216.25 624.07 212.29 620.81 C210.21 619.12 208.12 617.44 206.02 615.77 C204.56 614.6 203.1 613.43 201.64 612.26 C200.95 611.71 200.26 611.16 199.54 610.59 C198.9 610.07 198.26 609.55 197.59 609.01 C197.02 608.55 196.45 608.09 195.87 607.62 C195.14 606.95 195.14 606.95 194.39 606.26 C193.19 604.59 193.19 604.59 192.39 603.26 C195.93 593.03 195.93 593.03 198.33 588.48 C199.33 586.73 200.36 584.99 201.39 583.26 C203.8 579.22 205.95 575.23 207.68 570.85 C209.84 565.15 209.84 565.15 211.39 559.26 C211.62 555.37 211.58 551.47 211.58 547.57 C211.59 546.52 211.6 545.47 211.62 544.39 C211.62 540.47 211.59 536.63 211.02 532.75 C209.69 526.45 207.55 520.46 205.2 514.48 C201.83 506.37 197.36 498.94 192.66 491.54 C187.83 484.02 182.9 476.54 177.95 469.09 C172.43 460.78 167.45 452.4 163.39 443.26 C162.52 441.17 162.52 441.17 161.95 439.39 C161.32 436.16 161.25 432.9 161.16 429.62 C161.11 424.22 161.27 418.86 162.02 413.51 C163.99 403.2 167.45 393.09 170.75 383.14 C173.75 373.91 175.58 364.57 176.96 354.98 C178 347.47 178.96 339.95 178.87 332.35 C178.59 325.93 177.43 319.64 176.09 313.37 C174.61 306.83 172.88 300.49 170.39 294.26 C169.25 291.6 168.06 288.97 166.83 286.34 C165.03 282.48 163.3 278.6 161.58 274.7 C161.26 273.99 160.95 273.29 160.63 272.57 C160.34 271.91 160.05 271.25 159.75 270.57 C159.49 269.98 159.22 269.39 158.95 268.78 C158.77 268.28 158.58 267.78 158.39 267.26 C158.39 266.6 158.39 265.94 158.39 265.26 C163.19 268.76 167.95 272.31 172.39 276.26 C174.67 278.73 174.67 278.73 176.39 281.07 C179.13 285.45 181.35 290.05 183.33 294.81 C186.37 302.48 188.59 310.3 190.27 318.38 C192.01 327.21 193.36 335.93 193.59 344.94 C193.72 354.94 193.68 364.8 192.08 374.7 C191.12 380.17 190.02 385.59 188.28 390.88 C187.38 393.29 186.45 395.68 185.5 398.06 C183.78 402.4 182.12 406.7 181.08 411.26 C180.47 414.96 180.16 418.64 180.02 422.39 C180.07 425.4 180.22 428.24 180.71 431.21 C182.08 438.08 184.05 444.79 186.58 451.32 C190.55 460.22 195.77 468.39 201.2 476.46 C202.23 477.98 203.26 479.49 204.28 481.01 C211.95 492.36 219.01 503.74 224.75 516.21 C226.34 519.97 227.6 523.73 228.58 527.7 C229.62 532.84 230.02 538.04 230.39 543.26 C230.85 543.59 231.31 543.92 231.79 544.26 C235.75 547.14 239.43 550.17 243.02 553.51 C249.06 559.01 255.51 563.86 262.39 568.26 C265.11 569.88 267.74 571.27 270.66 572.5 C273.43 573.36 273.43 573.36 276.56 573.59 C279.55 573.63 282.42 573.56 285.39 573.26 C287.06 572.95 288.73 572.63 290.39 572.26 C290.14 575.61 289.85 578.94 289.39 582.26 C289.04 583.25 288.69 584.24 288.33 585.26 C288.02 586.25 287.71 587.24 287.39 588.26 C287.23 591.6 287.27 594.92 287.39 598.26 C288.22 598.32 289.04 598.39 289.89 598.45 C293.77 598.83 297.59 599.36 301.39 600.26 C307.81 602.33 313.88 605.41 319.84 608.55 C326.88 612.31 326.88 612.31 329.83 613.97 C332 615.16 334.13 616.28 336.39 617.26 C338.78 617.83 340.94 618.08 343.39 618.26 C344.85 616.01 346.31 613.76 347.77 611.51 C348.18 610.88 348.59 610.24 349.02 609.59 C350.63 607.09 352.2 604.59 353.67 602.01 C354.03 601.14 354.03 601.14 354.39 600.26 C354.56 597.09 354.56 597.09 354.39 594.26 C353.92 594.08 353.44 593.89 352.95 593.7 C343.71 589.87 335.35 584.36 326.89 579.07 C317.42 573.15 317.42 573.15 307.39 568.26 C305.36 567.58 303.36 567.01 301.28 566.52 C299 566.21 296.69 566.26 294.39 566.26 C295.71 559.66 297.03 553.06 298.39 546.26 C300.7 546.26 303.01 546.26 305.39 546.26 C308.13 546.78 308.13 546.78 310.7 547.51 C311.97 547.86 311.97 547.86 313.25 548.21 C318.74 550.05 324.07 552.03 329.19 554.74 C333.09 556.95 336.96 559.21 340.83 561.48 C346.17 564.57 351.46 567.29 357.21 569.54 C359.32 570.24 361.32 570.69 363.52 571.01 C364.47 571.09 365.41 571.18 366.39 571.26 C368.58 569.05 370.56 566.78 372.39 564.26 C374.91 559.28 376.52 553.97 378.14 548.64 C378.56 547.18 378.98 545.72 379.39 544.26 C378.69 544.11 377.98 543.97 377.26 543.82 C371.72 542.56 366.42 541.06 361.14 538.95 C353.76 535.8 346.96 531.56 340.08 527.45 C331.42 522.3 322.63 517.69 313.25 513.95 C310.32 512.87 307.43 512.01 304.39 511.26 C303.07 511.26 301.75 511.26 300.39 511.26 C300.72 504.33 301.05 497.4 301.39 490.26 C309.39 490.26 309.39 490.26 312.2 490.64 C316.06 491.55 319.76 492.6 323.43 494.09 C331.17 497.46 338.59 501.22 345.74 505.69 C353.53 510.31 361.81 514.37 370.2 517.76 C372.76 518.7 372.76 518.7 375.39 519.26 C379.09 519.54 382.69 519.52 386.39 519.26 C387.71 517.61 389.03 515.96 390.39 514.26 C390.9 510.84 391.39 507.43 391.89 504.01 C392.11 502.56 392.11 502.56 392.33 501.08 C392.46 500.14 392.6 499.21 392.74 498.25 C392.86 497.39 392.99 496.53 393.12 495.64 C393.37 493.49 393.44 491.43 393.39 489.26 C392.25 489.1 391.12 488.94 389.95 488.78 C382.68 487.71 375.5 486.56 368.52 484.26 C358.97 480.75 350.18 475.31 341.39 470.26 C330.07 463.53 330.07 463.53 318.1 458.1 C311.97 456.2 305.71 454.44 299.39 453.26 C297.07 453.11 297.07 453.11 295.39 453.26 C293.98 445.61 292.65 437.94 291.39 430.26 C297.08 430.34 302.74 430.54 308.39 431.26 C313.19 432.2 317.79 433.7 322.35 435.44 C330.1 438.56 337.59 442.29 345.01 446.12 C351.2 449.3 357.38 452.17 363.89 454.64 C364.55 454.89 365.21 455.14 365.89 455.4 C368.72 456.43 371.45 457.27 374.4 457.91 C377.87 458.32 381.27 458.45 384.77 458.45 C385.42 458.45 386.08 458.45 386.76 458.45 C389.62 458.42 392.31 458.27 395.15 457.81 C396.91 457.37 398.66 456.83 400.39 456.26 C401.26 453.55 401.92 451.06 402.39 448.26 C402.63 443.42 402.58 438.6 402.52 433.76 C402.51 432.45 402.5 431.14 402.49 429.82 C402.47 426.64 402.43 423.45 402.39 420.26 C401.49 420.49 400.59 420.72 399.67 420.96 C395.24 422.06 390.85 423.02 386.3 423.47 C381.32 423.78 376.37 423.76 371.39 423.26 C367.54 422.68 363.84 421.75 360.13 420.58 C349.51 416.94 339.62 411.92 329.75 406.61 C320.82 401.83 311.64 397.54 302 394.36 C299.16 393.48 296.34 392.72 293.39 392.26 C288.72 391.88 284.07 392 279.39 392.26 C279.12 391.54 278.86 390.82 278.58 390.07 C277.48 387.26 277.48 387.26 275.9 384.91 C274.39 382.26 274.39 382.26 273.78 380.56 C273.22 378.69 272.7 376.83 272.2 374.95 C272.03 374.3 271.85 373.66 271.67 372.99 C271.24 371.42 270.81 369.84 270.39 368.26 C273.72 367.86 277.05 367.54 280.39 367.26 C281.16 367.19 281.93 367.12 282.72 367.05 C285.33 366.93 287.79 367.02 290.39 367.26 C295.12 367.99 299.73 369.11 304.3 370.53 C310.64 372.75 316.5 376.06 322.39 379.26 C323.82 380.02 325.25 380.78 326.68 381.53 C329.55 383.05 332.42 384.57 335.28 386.08 C336.65 386.81 338.02 387.54 339.39 388.26 C340.03 388.6 340.68 388.94 341.34 389.29 C349.52 393.59 349.52 393.59 358.02 397.2 C360.46 397.9 360.46 397.9 363.39 398.26 C366.75 398.5 370.09 398.59 373.45 398.64 C374.29 398.65 375.13 398.66 376 398.68 C378.5 398.66 380.91 398.55 383.39 398.26 C386.51 397.51 389.44 396.52 392.39 395.26 C395.37 393.77 395.37 393.77 397.89 392.14 C398.73 391.62 399.56 391.1 400.42 390.57 C401.4 389.92 401.4 389.92 402.39 389.26 C402.72 388.93 403.05 388.6 403.39 388.26 C403.03 372.11 403.03 372.11 400.91 356.13 C400.42 353.41 400.11 350.71 399.84 347.96 C397.86 328.2 393.55 308.57 388.27 289.45 C388.1 288.85 387.94 288.25 387.77 287.64 C385.75 280.31 383.32 273.28 380.39 266.26 C379.73 264.47 379.09 262.68 378.45 260.89 C371.4 241.42 362.16 222.74 351.86 204.8 C340.39 185.05 327.46 166.69 312.77 149.2 C308.27 143.9 303.55 138.81 298.78 133.75 C297.4 132.27 296.05 130.77 294.7 129.26 C290.49 124.53 286.23 120.07 281.37 115.99 C279.19 114.08 277.21 112.04 275.2 109.95 C271.11 105.78 266.7 102.26 262 98.8 C258.99 96.57 256.35 94.25 253.73 91.56 C251.08 88.99 248.1 86.84 245.14 84.64 C244.44 84.11 243.74 83.59 243.02 83.05 C237.48 78.96 231.79 75.18 225.97 71.49 C219.61 67.45 213.41 63.19 207.25 58.85 C197.25 51.9 186.34 46.65 175.39 41.39 C174.76 41.08 174.13 40.78 173.48 40.46 C165.62 36.68 157.74 32.97 149.7 29.57 C148.99 29.27 148.28 28.97 147.55 28.66 C142.27 26.48 136.88 24.85 131.39 23.26 C129.63 22.72 127.87 22.19 126.11 21.65 C103.71 14.87 81.35 10.02 58.15 7.12 C55.57 6.82 52.98 6.54 50.39 6.26 C49.61 6.17 48.83 6.09 48.03 6 C32.62 4.3 17.33 3.9 1.83 3.95 C0.63 3.95 -0.57 3.95 -1.77 3.95 C-19.56 3.99 -37 4.51 -54.61 7.26 Z " fill="#FBFCFC" transform="translate(1120.6083984375,280.7392578125)"/>
<path d="M0 0 C1.26 1.04 1.26 1.04 3 3 C4.43 5.37 5.65 7.83 6.88 10.31 C7.23 11.02 7.58 11.73 7.95 12.47 C10.41 17.53 12.41 22.63 14.2 27.96 C16.23 33.94 19.03 39.43 22 45 C22.66 45.33 23.32 45.66 24 46 C26.57 46.21 29.11 46.38 31.68 46.5 C32.84 46.56 32.84 46.56 34.02 46.62 C36.49 46.75 38.96 46.88 41.44 47 C44.67 47.16 47.89 47.33 51.12 47.5 C51.9 47.54 52.67 47.58 53.47 47.62 C59.33 47.94 65.16 48.39 71 49 C70.67 50.65 70.34 52.3 70 54 C67.3 56.72 64.6 59.44 61.89 62.16 C60.98 63.08 60.06 64 59.15 64.93 C54.15 69.97 49.14 74.9 43.72 79.5 C41.01 81.86 38.5 84.42 36 87 C35.34 87 34.68 87 34 87 C34.91 89.5 35.83 92 36.75 94.5 C37 95.2 37.26 95.89 37.52 96.61 C38.81 100.11 40.2 103.49 41.91 106.81 C44.52 111.9 46.61 117.2 48.75 122.5 C49.16 123.51 49.57 124.53 50 125.57 C51 128.05 52 130.52 53 133 C55.7 131.95 58.16 130.91 60.66 129.44 C61.65 128.82 62.64 128.19 63.62 127.56 C72.28 122.15 81.1 117 90 112 C90.93 111.48 90.93 111.48 91.88 110.94 C97.54 107.79 103.25 105.22 109.36 103.05 C123.88 98.08 123.88 98.08 130 97 C131.77 96.94 133.54 96.91 135.31 96.94 C136.2 96.95 137.08 96.96 137.99 96.96 C138.65 96.98 139.32 96.99 140 97 C139.83 99.44 139.54 101.62 139 104 C137.22 109.15 135.13 114.19 133.1 119.24 C129.77 127.52 129.77 127.52 127 136 C126.3 139.62 126.08 143.15 125.97 146.82 C125.99 147.9 125.99 147.9 126 149 C134.84 146.55 143.28 143.4 151.75 139.91 C158.1 137.31 164.42 134.78 171.13 133.32 C174.4 132.96 177.59 132.9 180.88 132.94 C182.03 132.95 183.18 132.96 184.37 132.96 C185.24 132.98 186.1 132.99 187 133 C183.28 140.75 179.4 148.16 174.68 155.37 C171.86 159.78 169.43 164.37 167 169 C166.43 170.05 165.85 171.09 165.28 172.14 C162.17 177.94 159.58 183.8 157.48 190.05 C155.54 196.08 153.84 202.05 152.88 208.31 C152.53 210.87 152.24 213.43 152 216 C144.63 213.97 137.67 211.31 130.62 208.38 C117.97 203.21 105.11 198.95 92.05 194.94 C89.44 194.14 86.83 193.31 84.23 192.47 C73.89 189.2 63.42 187.18 52.73 185.45 C50.23 185.04 47.74 184.57 45.25 184.09 C33.42 181.96 21.57 181.66 9.58 181.57 C-10.19 181.51 -29.52 182.65 -49 186 C-69.34 189.53 -89.57 195.19 -109.03 202.11 C-113.37 203.69 -117.69 205.33 -122 207 C-122.73 207.28 -123.46 207.56 -124.21 207.85 C-132.27 210.97 -140.18 214.33 -148 218 C-148.33 217.67 -148.66 217.34 -149 217 C-149.14 216.15 -149.27 215.3 -149.41 214.42 C-150.9 205.78 -153.23 197.6 -156.17 189.35 C-158.91 181.92 -162.18 174.93 -166 168 C-166.31 167.44 -166.61 166.87 -166.92 166.29 C-171.12 158.58 -175.72 151.22 -180.68 143.97 C-182.66 141.06 -184.54 138.23 -186 135 C-181.48 134.65 -177.01 134.53 -172.49 134.75 C-168.99 135.1 -165.67 135.85 -162.27 136.74 C-152.81 139.45 -143.87 142.96 -134.98 147.17 C-131.07 149.02 -127.07 150.55 -123 152 C-123.08 147.63 -123.36 143.32 -124 139 C-124.92 134.36 -126.35 129.88 -128 125.45 C-131.53 116.77 -135.81 108.37 -140 100 C-139.01 99.01 -138.02 98.02 -137 97 C-133.97 96.77 -131.03 96.75 -128 97 C-124.68 97.87 -121.59 99.15 -118.44 100.5 C-117.57 100.86 -116.7 101.22 -115.8 101.6 C-97.33 109.4 -79.96 119.36 -63 130 C-62.15 130.53 -61.3 131.06 -60.42 131.61 C-58.61 132.74 -56.8 133.87 -55 135 C-54.01 134.67 -53.02 134.34 -52 134 C-48.63 129.07 -45.76 123.91 -43.24 118.49 C-41.14 113.7 -39.6 108.79 -38.19 103.75 C-37.98 103.02 -37.77 102.29 -37.56 101.53 C-36.33 96.93 -35.6 92.41 -35.14 87.66 C-35.1 87.11 -35.05 86.56 -35 86 C-45.15 76.71 -45.15 76.71 -55.69 67.88 C-58.31 65.75 -60.65 63.41 -63 61 C-64.27 59.73 -65.54 58.46 -66.81 57.19 C-67.88 56.12 -68.94 55.06 -70 54 C-70 52.68 -70 51.36 -70 50 C-54 48.43 -38.07 47.5 -22 47 C-21.35 45.48 -21.35 45.48 -20.68 43.92 C-17.52 36.6 -14.25 29.4 -10.62 22.3 C-8.09 17.25 -5.88 12.05 -3.63 6.88 C-3.3 6.13 -2.97 5.38 -2.64 4.61 C-2.34 3.94 -2.05 3.27 -1.75 2.58 C-1.38 1.8 -1.38 1.8 -1 1 C-0.67 0.67 -0.34 0.34 0 0 Z " fill="#FDFEFD" transform="translate(1123,310)"/>
<path d="M0 0 C4.85 0.53 9.52 1.44 14.2 2.8 C19.69 4.44 25.03 6.34 30.2 8.8 C35.02 11.36 39.41 14.46 43.78 17.72 C46.2 19.8 46.2 19.8 48.08 22.06 C50.42 25.42 52.66 28.72 54.5 32.38 C55.45 34.5 56.34 36.64 57.2 38.8 C57.53 39.46 57.86 40.12 58.2 40.8 C58.24 42.8 58.25 44.8 58.2 46.8 C56.52 47.36 56.52 47.36 54.2 47.8 C53.45 47.65 52.7 47.49 51.93 47.34 C49.2 46.73 49.2 46.73 46.36 46.64 C43.58 46.6 40.79 46.57 38 46.56 C36.24 46.55 34.47 46.52 32.7 46.49 C28.57 46.47 24.5 46.45 20.41 47.07 C16.62 47.77 12.9 48.68 9.2 49.8 C6.44 50.91 3.84 52.07 1.22 53.49 C0.56 53.92 -0.11 54.35 -0.8 54.8 C-1.58 55.56 -2.36 56.32 -3.17 57.11 C-5.27 60.57 -7.28 64.04 -8.8 67.8 C-9.46 70.11 -9.46 70.11 -9.8 72.8 C-10.21 79.62 -10.21 86.61 -9.45 93.4 C-9.02 96.28 -8.61 99.01 -7.8 101.8 C-6.85 103.5 -5.86 105.17 -4.8 106.8 C-3.15 106.47 -1.5 106.14 0.2 105.8 C4.66 100.35 4.66 100.35 9.2 94.8 C16.72 95.48 16.72 95.48 19.2 95.8 C20.69 96.29 20.69 96.29 22.2 96.8 C25.14 97.02 28.07 96.98 31.02 96.99 C31.81 97 32.61 97.01 33.42 97.02 C35.7 97.03 37.93 96.99 40.2 96.8 C42.29 96.27 44.19 95.56 46.2 94.8 C49.58 94.67 49.58 94.67 52.2 94.8 C53.02 95.71 53.84 96.63 54.64 97.55 C55.09 98.06 55.55 98.57 56.01 99.09 C56.6 99.94 56.6 99.94 57.2 100.8 C57.84 102.65 57.84 102.65 58.2 104.8 C58.54 108.48 58.58 112.14 58.39 115.83 C57.84 121.62 56.28 127.26 54.75 132.85 C51.84 143.21 47.83 153.03 43.23 162.74 C40.49 168.24 37.07 173.2 33.49 178.18 C30.09 182.72 26.43 186.94 22.36 190.89 C18.56 194.25 14.49 197.09 10.2 199.8 C6.02 202.34 1.8 204.69 -2.71 206.61 C-4.48 207.17 -4.48 207.17 -6.38 207.56 C-12.5 208.17 -18.66 208.15 -24.8 207.8 C-27.36 207.54 -29.74 207.15 -32.25 206.54 C-33.09 206.3 -33.93 206.05 -34.8 205.8 C-35.9 205.48 -37 205.16 -38.13 204.83 C-41.78 203.7 -45.33 202.42 -48.8 200.8 C-52.76 198.46 -56.28 195.75 -59.8 192.8 C-60.27 192.41 -60.75 192.03 -61.24 191.64 C-65 188.59 -68.53 185.38 -71.8 181.8 C-76.23 176.44 -80.2 170.75 -83.8 164.8 C-86.51 159.96 -88.75 154.95 -90.8 149.8 C-91.16 148.89 -91.16 148.89 -91.53 147.97 C-93.43 143.17 -95.18 138.4 -96.37 133.37 C-97.17 129.47 -97.75 125.66 -97.95 121.67 C-97.99 118.48 -97.97 115.3 -97.92 112.11 C-97.91 110.47 -97.91 110.47 -97.89 108.79 C-97.87 106.13 -97.84 103.46 -97.8 100.8 C-96.48 98.82 -95.16 96.84 -93.8 94.8 C-90.92 94.05 -90.92 94.05 -88.98 93.75 C-88.26 93.77 -87.54 93.78 -86.8 93.8 C-84.49 94.66 -84.49 94.66 -82.05 95.8 C-79.5 96.98 -79.5 96.98 -76.8 97.8 C-73.9 97.88 -71.21 97.64 -68.34 97.25 C-66.69 96.96 -65.04 96.63 -63.41 96.26 C-60.22 95.69 -57.09 95.58 -53.86 95.55 C-53.26 95.53 -52.67 95.51 -52.06 95.49 C-50.27 95.47 -50.27 95.47 -46.8 95.8 C-44.64 96.63 -42.81 97.63 -40.8 98.8 C-38.6 97.36 -38.6 97.36 -37.11 96.12 C-36.68 95.69 -36.24 95.25 -35.8 94.8 C-34.76 93.27 -34.76 93.27 -33.98 91.55 C-33.32 89.76 -33.32 89.76 -32.8 87.8 C-32.54 85.12 -32.64 82.48 -32.8 79.8 C-33.2 76.12 -33.74 72.46 -34.3 68.8 C-34.44 67.83 -34.58 66.87 -34.73 65.87 C-35.08 63.51 -35.44 61.16 -35.8 58.8 C-37 57.52 -38.23 56.28 -39.48 55.05 C-40.17 54.35 -40.85 53.66 -41.56 52.94 C-42.98 51.8 -42.98 51.8 -44.8 50.8 C-47.82 49.5 -50.86 48.44 -54.03 47.59 C-57.33 46.82 -60.57 46.46 -63.94 46.27 C-67.5 46.13 -71.05 46.08 -74.61 46.05 C-76.09 46.02 -77.57 45.99 -79.06 45.96 C-82.64 45.89 -86.22 45.83 -89.8 45.8 C-90.46 45.14 -91.12 44.48 -91.8 43.8 C-91.8 41.49 -91.8 39.18 -91.8 36.8 C-90.57 34.75 -89.34 32.71 -88.11 30.67 C-87.77 30.1 -87.43 29.53 -87.08 28.95 C-84.98 25.5 -82.78 22.24 -80.14 19.18 C-78.77 17.77 -77.38 16.57 -75.82 15.38 C-74.76 14.63 -73.69 13.9 -72.61 13.17 C-72.04 12.78 -71.46 12.4 -70.87 12 C-68.38 10.35 -65.9 8.85 -63.25 7.47 C-56.68 4.69 -49.59 2.83 -42.65 1.19 C-29.07 -1.69 -13.8 -1 0 0 Z " fill="#FDFDFD" transform="translate(1142.79638671875,508.2021484375)"/>
<path d="M0 0 C2.88 -0.19 2.88 -0.19 5 0 C5.99 1.32 6.98 2.64 8 4 C7.89 4.85 7.89 4.85 7.79 5.72 C6.98 12.93 6.82 20.06 6.81 27.31 C6.8 28.45 6.79 29.58 6.78 30.75 C6.76 37.65 7.26 44.26 8.43 51.07 C9.17 54.86 10.06 58.56 11.19 62.25 C11.4 62.96 11.61 63.66 11.83 64.39 C14.56 73.11 17.81 81.69 21.93 89.85 C24.14 93.99 26.55 98 29 102 C29.34 102.57 29.69 103.14 30.04 103.72 C36.5 114.43 43.48 124.78 50.43 135.17 C55.71 143.05 60.93 150.98 66 159 C66 159.99 66 160.98 66 162 C64.44 162.82 62.88 163.63 61.31 164.44 C60.44 164.89 59.57 165.34 58.68 165.81 C56 167 56 167 53.64 167.64 C48.82 168.3 44.04 168.37 39.19 168.27 C36.55 168.15 34.24 167.85 31.62 167.35 C28.34 166.39 25.17 165.27 22 164 C21.4 163.76 20.81 163.53 20.19 163.28 C11.97 159.98 4.16 156.07 -3.62 151.88 C-9.64 148.65 -15.6 145.64 -22.06 143.42 C-25.95 142.18 -29.8 141.4 -33.81 140.75 C-35.87 140.48 -37.94 140.23 -40 140 C-40.65 139.91 -41.31 139.82 -41.98 139.73 C-48.19 138.95 -54.31 138.88 -60.56 138.94 C-62.08 138.94 -62.08 138.94 -63.62 138.95 C-66.08 138.96 -68.54 138.98 -71 139 C-71.61 138.14 -72.21 137.28 -72.84 136.39 C-75.53 132.58 -78.26 128.79 -81 125 C-81.4 124.45 -81.79 123.9 -82.2 123.33 C-89.61 113.1 -98.15 104 -107 95 C-107.51 94.47 -108.03 93.94 -108.55 93.4 C-111.85 90.03 -115.26 86.88 -119 84 C-127.42 77.98 -136.1 72.29 -145 67 C-144.67 65.68 -144.34 64.36 -144 63 C-142.04 61.18 -140.18 59.54 -138 58 C-136.25 57.19 -134.56 56.64 -132.7 56.14 C-132.05 55.99 -131.41 55.84 -130.75 55.69 C-129.72 55.44 -129.72 55.44 -128.67 55.19 C-124.89 54.37 -121.17 53.88 -117.3 53.68 C-111.95 53.55 -106.64 53.72 -101.31 54.29 C-98.83 54.73 -96.44 55.35 -94 56 C-92.58 56.34 -91.16 56.67 -89.74 57 C-82.45 58.75 -75.34 60.68 -68.42 63.6 C-62.71 66.12 -57.15 68.82 -51.8 72.05 C-50.91 72.52 -50.91 72.52 -50 73 C-48.68 73.37 -47.35 73.72 -46 74 C-45.77 72.98 -45.54 71.96 -45.3 70.91 C-44.24 66.27 -43.12 61.63 -42 57 C-41.81 56.22 -41.63 55.43 -41.43 54.62 C-40.16 49.35 -38.84 44.1 -37 39 C-35.55 35.68 -33.78 32.67 -31.83 29.62 C-29.03 25.62 -26.1 21.77 -23 18 C-22.1 16.8 -22.1 16.8 -21.19 15.57 C-19 13 -19 13 -17.56 11.71 C-15.94 10.4 -14.29 9.13 -12.62 7.88 C-12.07 7.45 -11.52 7.02 -10.95 6.57 C-8.32 4.57 -5.7 2.74 -2.77 1.21 C-1.85 0.81 -0.94 0.41 0 0 Z " fill="#FDFEFD" transform="translate(1442,476)"/>
<path d="M0 0 C1.98 0 3.96 0 6 0 C9.66 2.03 13.08 4.3 16.41 6.84 C19.08 9.11 21.64 11.42 24 14 C27.23 17.94 30.11 22.12 32.92 26.37 C33.85 27.77 34.8 29.15 35.75 30.52 C37.35 32.97 38.72 35.38 40 38 C42.61 44.13 44.93 50.44 46.45 56.94 C47.19 60.61 47.7 64.27 48 68 C48.02 70 48.03 72 48 74 C48.45 73.8 48.9 73.6 49.36 73.39 C59.24 69.03 69.19 65.1 79.44 61.69 C80.41 61.36 81.37 61.04 82.37 60.7 C89.16 58.48 95.98 56.35 103 55 C106.64 54.63 110.22 54.57 113.88 54.62 C114.83 54.63 115.78 54.64 116.75 54.65 C121.56 54.76 126.28 55 131.02 55.83 C133.75 56.4 136.36 57.12 139 58 C142.46 59.48 145.75 61.11 149 63 C148.23 64.77 148.23 64.77 147 67 C144.69 69.52 142.13 71.74 139.47 73.89 C136.78 75.92 133.92 77.66 131.06 79.44 C126.72 82.14 122.7 84.9 118.88 88.31 C117.23 89.86 115.61 91.42 114 93 C113.51 93.47 113.03 93.95 112.52 94.44 C106.99 99.82 101.56 105.27 96.56 111.16 C95.52 112.39 94.46 113.59 93.38 114.77 C88.08 120.58 83.63 126.95 79.15 133.39 C77.8 135.28 76.4 137.14 75 139 C74.29 138.98 73.58 138.97 72.85 138.95 C58.63 138.51 58.63 138.51 44.46 139.49 C40.9 140.11 37.47 141 34 142 C33.1 142.26 33.1 142.26 32.19 142.52 C21.48 145.66 11.18 150 1.16 154.9 C-1.18 156.07 -3.51 157.25 -5.83 158.43 C-10.02 160.55 -14.26 162.51 -18.56 164.38 C-19.13 164.63 -19.71 164.88 -20.3 165.14 C-22.61 166.12 -24.91 166.97 -27.32 167.65 C-31.3 168.17 -35.24 168.18 -39.25 168.19 C-40.06 168.2 -40.87 168.21 -41.7 168.22 C-45.03 168.23 -48.22 168.12 -51.51 167.6 C-53.71 167.13 -55.85 166.66 -58 166 C-61.06 164.38 -61.06 164.38 -63 163 C-62.64 161.24 -62.64 161.24 -62 159 C-60.99 157.1 -60.99 157.1 -59.73 155.12 C-59.26 154.37 -58.79 153.63 -58.31 152.86 C-57.79 152.06 -57.28 151.26 -56.75 150.44 C-55.95 149.18 -55.95 149.18 -55.13 147.89 C-51.37 142.03 -47.47 136.28 -43.5 130.56 C-37.33 121.66 -31.73 112.48 -26.26 103.14 C-25.2 101.34 -24.12 99.55 -23.01 97.78 C-17.9 89.42 -13.75 80.6 -9.99 71.56 C-7.4 64.87 -5.57 57.98 -4 51 C-3.74 49.93 -3.48 48.87 -3.21 47.77 C-2.13 43.14 -1.18 38.53 -0.85 33.79 C-0.64 28.38 -0.72 22.97 -0.81 17.56 C-0.83 15.94 -0.84 14.33 -0.85 12.71 C-0.89 8.81 -0.94 4.9 -1 1 C-0.67 0.67 -0.34 0.34 0 0 Z " fill="#FDFEFE" transform="translate(803,475)"/>
<path d="M0 0 C2.47 0.5 2.47 0.5 5 1 C6.65 1.78 6.65 1.78 8.09 2.71 C8.64 3.07 9.19 3.42 9.76 3.78 C10.33 4.16 10.91 4.54 11.5 4.94 C12.11 5.34 12.72 5.74 13.34 6.15 C23.59 12.95 33.02 20.61 42 29 C40.68 30.65 39.36 32.3 38 34 C14.9 34 -8.2 34 -32 34 C-32.99 32.68 -33.98 31.36 -35 30 C-34.67 28.68 -34.34 27.36 -34 26 C-28.06 21.38 -22.12 16.76 -16 12 C-15.34 12 -14.68 12 -14 12 C-14 11.34 -14 10.68 -14 10 C-9.38 6.7 -4.76 3.4 0 0 Z " fill="#027143" transform="translate(1120,426)"/>
<path d="M0 0 C7.75 0.11 15.51 0.22 23.26 0.34 C26.86 0.39 30.46 0.45 34.06 0.5 C37.54 0.55 41.01 0.6 44.49 0.65 C45.81 0.67 47.14 0.69 48.47 0.71 C50.32 0.73 52.18 0.76 54.04 0.79 C55.62 0.82 55.62 0.82 57.24 0.84 C60 1 60 1 62.37 1.51 C62.91 1.67 63.45 1.83 64 2 C63.31 4.12 63.31 4.12 62 7 C60.48 9.14 58.77 11.07 57 13 C56.52 13.53 56.03 14.06 55.53 14.6 C54.07 16.14 52.59 17.6 51 19 C48.41 20.69 45.92 22 43.09 23.23 C41.41 23.85 39.71 24.43 38 25 C33.89 25.37 29.83 25.47 25.71 25.2 C24 25 24 25 21.43 24.27 C19.25 23.19 19.25 23.19 17.16 21.83 C13.53 18.75 10.43 15.25 7.36 11.62 C6.16 10.23 4.98 8.98 3.59 7.77 C2.41 6.83 1.21 5.91 0 5 C0 3.35 0 1.7 0 0 Z " fill="#047245" transform="translate(1091,660)"/>
<path d="M0 0 C13.52 -0.3 13.52 -0.3 18.56 0.3 C21.2 0.91 23.58 1.83 26.07 2.85 C28.15 3.79 30.07 4.79 32 6 C33.85 7.57 35.38 9.18 37 11 C37 12.65 37 14.3 37 16 C30.72 15.22 30.72 15.22 28.28 14.49 C27.69 14.31 27.11 14.12 26.5 13.94 C24.45 13.35 24.45 13.35 22 13 C17 12.75 12 12.88 7 13 C5.02 14.65 3.04 16.3 1 18 C-0.65 18 -2.3 18 -4 18 C-4.66 17.01 -5.32 16.02 -6 15 C-6 11.7 -6 8.4 -6 5 C-4.02 3.35 -2.04 1.7 0 0 Z " fill="#F6FAF8" transform="translate(1054,570)"/>
<path d="M0 0 C3.33 0.29 3.33 0.29 5.7 0.83 C6.3 1.06 6.9 1.3 7.52 1.54 C8.45 2.12 9.38 2.69 10.33 3.29 C12.77 5.48 12.77 5.48 14.33 7.29 C14.33 9.27 14.33 11.25 14.33 13.29 C13.34 14.61 12.35 15.93 11.33 17.29 C10.7 17.1 10.07 16.9 9.43 16.7 C7.63 16.16 5.83 15.62 4.03 15.09 C2.49 14.63 0.96 14.16 -0.55 13.64 C-2.62 13 -4.52 12.58 -6.67 12.29 C-12 12.06 -17.34 12.17 -22.67 12.29 C-25.14 13.77 -25.14 13.77 -27.67 15.29 C-28.33 15.29 -28.99 15.29 -29.67 15.29 C-29.67 12.32 -29.67 9.35 -29.67 6.29 C-28.04 5.23 -26.36 4.24 -24.67 3.29 C-21.02 2.06 -17.33 1.21 -13.54 0.55 C-9.04 -0.07 -4.54 -0.16 0 0 Z " fill="#F8FBF9" transform="translate(1185.66796875,570.7109375)"/>
<path d="M0 0 C6.08 -0.13 11.97 0.2 18 1 C18.66 0.67 19.32 0.34 20 0 C21.37 -0.07 22.75 -0.08 24.12 -0.06 C25.21 -0.05 25.21 -0.05 26.32 -0.04 C27.15 -0.02 27.15 -0.02 28 0 C30.47 1.49 30.47 1.49 33 3 C33.49 4.98 33.49 4.98 34 7 C29.07 9.18 24.12 11.3 19 13 C16.46 13.57 16.46 13.57 14.38 13.69 C12.34 13.54 12.34 13.54 10 13 C5.56 11.6 1.27 9.85 -3 8 C-3.33 6.35 -3.66 4.7 -4 3 C-2.68 2.01 -1.36 1.02 0 0 Z " fill="#077447" transform="translate(1106,632)"/>
<path d="M0 0 C1.89 -0.07 3.79 -0.08 5.69 -0.06 C6.68 -0.05 7.68 -0.04 8.7 -0.04 C9.84 -0.02 9.84 -0.02 11 0 C11.66 0.66 12.32 1.32 13 2 C10.36 2.87 7.75 3.56 5 4 C1.96 3.89 -1 3.51 -4 3 C-3.67 2.34 -3.34 1.68 -3 1 C-2.01 0.67 -1.02 0.34 0 0 Z " fill="#F0F6F4" transform="translate(1119,630)"/>
<path d="M0 0 C0.99 0.33 1.98 0.66 3 1 C2.67 1.99 2.34 2.98 2 4 C-2.95 5.49 -2.95 5.49 -8 7 C-7.34 5.68 -6.68 4.36 -6 3 C-4.02 2.01 -2.04 1.02 0 0 Z " fill="#E8EEEB" transform="translate(983,305)"/>
<path d="M0 0 C0 0.99 0 1.98 0 3 C-1.48 3.99 -1.48 3.99 -3 5 C-3.66 4.34 -4.32 3.68 -5 3 C-3.35 2.01 -1.7 1.02 0 0 Z " fill="#B6D6C9" transform="translate(1049,519)"/>
<path d="M0 0 C1.32 0.33 2.64 0.66 4 1 C4.66 1.66 5.32 2.32 6 3 C5.01 3.33 4.02 3.66 3 4 C2.01 2.68 1.02 1.36 0 0 Z " fill="#C4DED3" transform="translate(1234,526)"/>
<path d="M0 0 C1.32 0.33 2.64 0.66 4 1 C3.34 1.66 2.68 2.32 2 3 C1.34 2.01 0.68 1.02 0 0 Z " fill="#E0EDE8" transform="translate(1197,517)"/>
</svg>
