<?xml version="1.0" encoding="UTF-8"?>
<svg width="400" height="600" viewBox="0 0 400 600" 
     xmlns="http://www.w3.org/2000/svg"
     xmlns:inkscape="http://www.inkscape.org/namespaces/inkscape"
     xmlns:inkstitch="http://inkstitch.org/namespace">
  <defs>
    <style>
      .embroidery-path {
        fill: none;
        stroke-width: 0.4;
        stroke-linejoin: round;
        stroke-linecap: round;
      }
    </style>
  </defs>
  <g inkscape:label="Embroidery" inkscape:groupmode="layer">
    <path d="M 0 0 L 2 0 L 4 0 L 6 0 L 8 0 L 10 0 L 12 0 L 14 0 Z" 
          class="embroidery-path"
          style="stroke: rgb(255,255,255);"
          inkstitch:stroke_method="running_stitch"
          inkstitch:running_stitch_length_mm="2.5"
          inkstitch:running_stitch_tolerance_mm="0.1"
          inkstitch:color="rgb(255,255,255)" />
    <path d="M 16 0 L 18 0 L 20 0 L 22 0 L 24 0 L 26 0 L 28 0 L 30 0 Z" 
          class="embroidery-path"
          style="stroke: rgb(255,255,253);"
          inkstitch:stroke_method="running_stitch"
          inkstitch:running_stitch_length_mm="2.5"
          inkstitch:running_stitch_tolerance_mm="0.1"
          inkstitch:color="rgb(255,255,253)" />
    <path d="M 32 0 L 34 0 L 36 0 L 38 0 L 40 0 L 42 0 L 44 0 L 46 0 Z" 
          class="embroidery-path"
          style="stroke: rgb(97,88,33);"
          inkstitch:stroke_method="running_stitch"
          inkstitch:running_stitch_length_mm="2.5"
          inkstitch:running_stitch_tolerance_mm="0.1"
          inkstitch:color="rgb(97,88,33)" />
    <path d="M 48 0 L 50 0 L 52 0 L 54 0 L 56 0 L 58 0 L 60 0 L 62 0 Z" 
          class="embroidery-path"
          style="stroke: rgb(255,255,255);"
          inkstitch:stroke_method="running_stitch"
          inkstitch:running_stitch_length_mm="2.5"
          inkstitch:running_stitch_tolerance_mm="0.1"
          inkstitch:color="rgb(255,255,255)" />
    <path d="M 64 0 L 66 0 L 68 0 L 70 0 L 72 0 L 74 0 L 76 0 L 78 0 Z" 
          class="embroidery-path"
          style="stroke: rgb(255,255,253);"
          inkstitch:stroke_method="running_stitch"
          inkstitch:running_stitch_length_mm="2.5"
          inkstitch:running_stitch_tolerance_mm="0.1"
          inkstitch:color="rgb(255,255,253)" />
    <path d="M 80 0 L 82 0 L 84 0 L 86 0 L 88 0 L 90 0 L 92 0 L 94 0 Z" 
          class="embroidery-path"
          style="stroke: rgb(97,88,33);"
          inkstitch:stroke_method="running_stitch"
          inkstitch:running_stitch_length_mm="2.5"
          inkstitch:running_stitch_tolerance_mm="0.1"
          inkstitch:color="rgb(97,88,33)" />
    <path d="M 96 0 L 98 0 L 100 0 L 102 0 L 104 0 L 106 0 L 108 0 L 110 0 Z" 
          class="embroidery-path"
          style="stroke: rgb(255,255,255);"
          inkstitch:stroke_method="running_stitch"
          inkstitch:running_stitch_length_mm="2.5"
          inkstitch:running_stitch_tolerance_mm="0.1"
          inkstitch:color="rgb(255,255,255)" />
    <path d="M 112 0 L 114 0 L 116 0 L 118 0 L 120 0 L 122 0 L 124 0 L 126 0 Z" 
          class="embroidery-path"
          style="stroke: rgb(255,255,253);"
          inkstitch:stroke_method="running_stitch"
          inkstitch:running_stitch_length_mm="2.5"
          inkstitch:running_stitch_tolerance_mm="0.1"
          inkstitch:color="rgb(255,255,253)" />
    <path d="M 152 0 L 154 0 L 156 0 L 158 0 L 160 0 L 162 0 L 164 0 L 166 0 Z" 
          class="embroidery-path"
          style="stroke: rgb(97,88,33);"
          inkstitch:stroke_method="running_stitch"
          inkstitch:running_stitch_length_mm="2.5"
          inkstitch:running_stitch_tolerance_mm="0.1"
          inkstitch:color="rgb(97,88,33)" />
    <path d="M 168 0 L 170 0 L 172 0 L 174 0 L 176 0 L 178 0 L 180 0 L 182 0 Z" 
          class="embroidery-path"
          style="stroke: rgb(255,255,255);"
          inkstitch:stroke_method="running_stitch"
          inkstitch:running_stitch_length_mm="2.5"
          inkstitch:running_stitch_tolerance_mm="0.1"
          inkstitch:color="rgb(255,255,255)" />
    <path d="M 184 0 L 186 0 L 188 0 L 190 0 L 192 0 L 194 0 L 196 0 L 198 0 Z" 
          class="embroidery-path"
          style="stroke: rgb(255,255,253);"
          inkstitch:stroke_method="running_stitch"
          inkstitch:running_stitch_length_mm="2.5"
          inkstitch:running_stitch_tolerance_mm="0.1"
          inkstitch:color="rgb(255,255,253)" />
    <path d="M 212 0 L 214 0 L 216 0 L 218 0 L 220 0 L 222 0 L 224 0 L 226 0 Z" 
          class="embroidery-path"
          style="stroke: rgb(97,88,33);"
          inkstitch:stroke_method="running_stitch"
          inkstitch:running_stitch_length_mm="2.5"
          inkstitch:running_stitch_tolerance_mm="0.1"
          inkstitch:color="rgb(97,88,33)" />
    <path d="M 228 0 L 230 0 L 232 0 L 234 0 L 236 0 L 238 0 L 240 0 L 242 0 Z" 
          class="embroidery-path"
          style="stroke: rgb(255,255,255);"
          inkstitch:stroke_method="running_stitch"
          inkstitch:running_stitch_length_mm="2.5"
          inkstitch:running_stitch_tolerance_mm="0.1"
          inkstitch:color="rgb(255,255,255)" />
    <path d="M 244 0 L 246 0 L 248 0 L 250 0 L 252 0 L 254 0 L 256 0 L 258 0 Z" 
          class="embroidery-path"
          style="stroke: rgb(255,255,253);"
          inkstitch:stroke_method="running_stitch"
          inkstitch:running_stitch_length_mm="2.5"
          inkstitch:running_stitch_tolerance_mm="0.1"
          inkstitch:color="rgb(255,255,253)" />
    <path d="M 260 0 L 262 0 L 264 0 L 266 0 L 268 0 L 270 0 L 272 0 L 274 0 Z" 
          class="embroidery-path"
          style="stroke: rgb(97,88,33);"
          inkstitch:stroke_method="running_stitch"
          inkstitch:running_stitch_length_mm="2.5"
          inkstitch:running_stitch_tolerance_mm="0.1"
          inkstitch:color="rgb(97,88,33)" />
  </g>
</svg>