<?xml version="1.0" encoding="UTF-8"?>
<svg width="267" height="400" viewBox="0 0 267 400" 
     xmlns="http://www.w3.org/2000/svg"
     xmlns:inkscape="http://www.inkscape.org/namespaces/inkscape"
     xmlns:inkstitch="http://inkstitch.org/namespace">
  <defs>
    <style>
      .embroidery-path {
        stroke-width: 0.3;
        stroke-linejoin: round;
        stroke-linecap: round;
        fill-opacity: 0.8;
      }
    </style>
  </defs>
  <g inkscape:label="Embroidery" inkscape:groupmode="layer">
    <path d="M 89 1 L 104 24 Q 114 58 224 95 L 224 95 Q 248 115 223 124 L 223 124 Q 52 141 180 160 L 180 160 Q 182 192 27 241 L 27 241 Q 22 290 81 323 L 81 323 Q 171 336 164 356 L 164 356 Q 59 377 82 397 L 82 397 Z" 
          class="embroidery-path"
          style="fill: rgb(255,255,255); stroke: rgb(255,255,255);"
          inkstitch:fill="1"
          inkstitch:color="rgb(255,255,255)"
          inkstitch:angle="45"
          inkstitch:row_spacing_mm="0.4"
          inkstitch:end_row_spacing_mm="0.4"
          inkstitch:max_stitch_length_mm="3.0" />
    <path d="M 89 1 L 104 24 Q 114 58 224 95 L 224 95 Q 248 115 223 124 L 223 124 Q 52 141 180 160 L 180 160 Q 182 192 27 241 L 27 241 Q 22 290 81 323 L 81 323 Q 171 336 164 356 L 164 356 Q 59 377 82 397 L 82 397 Z" 
          class="embroidery-path"
          style="fill: rgb(254,255,255); stroke: rgb(254,255,255);"
          inkstitch:fill="1"
          inkstitch:color="rgb(254,255,255)"
          inkstitch:angle="45"
          inkstitch:row_spacing_mm="0.4"
          inkstitch:end_row_spacing_mm="0.4"
          inkstitch:max_stitch_length_mm="3.0" />
    <path d="M 104 3 L 110 70 Q 107 101 174 107 L 174 107 Q 194 113 153 121 L 153 121 Q 144 128 172 135 L 172 135 Q 114 144 121 151 L 121 151 Q 39 164 173 199 L 173 199 Q 38 268 174 330 L 174 330 Q 67 356 190 390 L 190 390 Z" 
          class="embroidery-path"
          style="fill: rgb(204,191,166); stroke: rgb(204,191,166);"
          inkstitch:fill="1"
          inkstitch:color="rgb(204,191,166)"
          inkstitch:angle="45"
          inkstitch:row_spacing_mm="0.4"
          inkstitch:end_row_spacing_mm="0.4"
          inkstitch:max_stitch_length_mm="3.0" />
    <path d="M 53 143 L 56 145 Q 55 149 47 158 L 47 158 Q 57 159 46 161 L 46 161 Q 41 163 82 163 L 82 163 Q 48 165 46 167 L 46 167 Q 159 168 48 172 L 48 172 Q 86 172 47 175 L 47 175 Q 52 180 68 185 L 68 185 Q 158 192 138 200 L 138 200 Z" 
          class="embroidery-path"
          style="fill: rgb(105,121,31); stroke: rgb(105,121,31);"
          inkstitch:fill="1"
          inkstitch:color="rgb(105,121,31)"
          inkstitch:angle="45"
          inkstitch:row_spacing_mm="0.4"
          inkstitch:end_row_spacing_mm="0.4"
          inkstitch:max_stitch_length_mm="3.0" />
    <path d="M 103 5 L 57 146 Q 88 162 134 173 L 134 173 Q 82 185 73 197 L 73 197 Q 119 206 156 218 L 156 218 Q 97 228 41 270 L 41 270 Q 162 286 61 305 L 61 305 Q 95 320 75 351 L 75 351 Q 141 378 183 395 L 183 395 Z" 
          class="embroidery-path"
          style="fill: rgb(100,81,23); stroke: rgb(100,81,23);"
          inkstitch:fill="1"
          inkstitch:color="rgb(100,81,23)"
          inkstitch:angle="45"
          inkstitch:row_spacing_mm="0.4"
          inkstitch:end_row_spacing_mm="0.4"
          inkstitch:max_stitch_length_mm="3.0" />
  </g>
</svg>