<?xml version='1.0' encoding='utf-8'?>
<svg xmlns="http://www.w3.org/2000/svg" xmlns:inkscape="http://www.inkscape.org/namespaces/inkscape" xmlns:inkstitch="http://inkstitch.org/namespace" viewBox="0 0 236.0 315.0" version="1.1" width="884.8893888263967px" height="1181.1023622047244px" id="svg95">
  <g inkscape:label="Layer 1" inkscape:groupmode="layer" id="layer1"><title id="title1">Haft</title>
  <defs id="defs95" />
  <path d="M0 0 C77.88 0 155.76 0 236 0 C236 103.95 236 207.9 236 315 C158.12 315 80.24 315 0 315 C0 211.05 0 107.1 0 0 Z " fill="#FEFEFE" transform="translate(0,0)" id="path1"><inkstitch:params>{
  "stitch_type": "fill",
  "fill_angle": 45,
  "spacing": 0.4,
  "underlay": {
    "type": "none"
  },
  "pull_compensation": 0.0
}</inkstitch:params></path>
  <path d="M0 0 C0.69 0.13 1.38 0.27 2.09 0.41 C4.46 0.88 4.46 0.88 8 0.5 C9.05 0.58 10.1 0.66 11.19 0.75 C14.57 5.21 16.42 10.8 18.56 15.94 C21.52 23.02 24.67 29.93 28.19 36.75 C29.18 36.75 30.17 36.75 31.19 36.75 C31.19 38.07 31.19 39.39 31.19 40.75 C31.76 41.02 32.34 41.29 32.94 41.56 C37.31 43.87 37.31 43.87 39.19 45.75 C39.23 46.84 39.27 47.94 39.31 49.06 C40.31 53.26 40.72 53.59 44.19 55.81 C50.33 59.14 56.92 61.27 63.53 63.45 C67.19 64.75 67.19 64.75 70.19 66.75 C70.19 67.41 70.19 68.07 70.19 68.75 C66.75 69.76 63.44 69.98 59.88 70.19 C54.97 70.53 50.85 71.26 46.19 72.75 C43.86 73.12 41.53 73.46 39.19 73.75 C39.68 74.37 40.18 74.99 40.69 75.62 C42.19 77.75 42.19 77.75 42.19 79.75 C41.2 79.75 40.21 79.75 39.19 79.75 C39.52 81.07 39.85 82.39 40.19 83.75 C38.7 83.25 38.7 83.25 37.19 82.75 C37.19 83.74 37.19 84.73 37.19 85.75 C36.61 85.89 36.03 86.02 35.43 86.16 C30.09 87.63 26.53 89.38 23.16 93.86 C21.94 95.92 21.94 95.92 21.94 99.25 C23.28 103 24.74 104.78 27.39 107.64 C38.1 120.17 45.26 137.9 49.19 153.75 C49.36 154.45 49.54 155.15 49.72 155.87 C51.35 163.04 51.47 170.04 51.56 177.38 C51.82 188.44 52.14 199.9 57.33 209.96 C58.68 212.78 58 214.82 57.19 217.75 C55.81 219.62 55.81 219.62 54.19 220.75 C53.2 220.75 52.21 220.75 51.19 220.75 C50.86 220.09 50.53 219.43 50.19 218.75 C49.53 219.74 48.87 220.73 48.19 221.75 C45.36 222.48 45.36 222.48 41.94 222.94 C40.82 223.1 39.7 223.25 38.55 223.42 C35.4 223.73 32.35 223.81 29.19 223.75 C28.17 231.6 27.87 239.41 27.62 247.31 C27.56 249.25 27.56 249.25 27.49 251.24 C27.39 254.41 27.29 257.58 27.19 260.75 C26.2 260.75 25.21 260.75 24.19 260.75 C26.52 263.78 27.85 265.49 31.68 266.23 C33.44 266.37 35.21 266.46 36.98 266.51 C39.19 266.75 39.19 266.75 41.19 268.75 C41.31 272.38 41.31 272.38 41.19 275.75 C36.75 277.97 31 277.29 26.19 276.75 C23.25 275.39 21.59 273.98 19.19 271.75 C18.86 273.4 18.53 275.05 18.19 276.75 C16.21 276.75 14.23 276.75 12.19 276.75 C11.05 273.33 11.09 270.66 11.12 267.06 C11.13 265.88 11.14 264.7 11.15 263.49 C11.16 262.58 11.18 261.68 11.19 260.75 C10.2 260.75 9.21 260.75 8.19 260.75 C7.37 256.29 6.93 251.91 6.65 247.38 C6.61 246.7 6.57 246.02 6.52 245.32 C6.39 243.17 6.26 241.02 6.12 238.88 C6.03 237.41 5.94 235.94 5.85 234.48 C5.63 230.9 5.41 227.33 5.19 223.75 C4.53 223.75 3.87 223.75 3.19 223.75 C2.69 221.27 2.69 221.27 2.19 218.75 C-1.39 224.35 -1.94 228.27 -2.09 234.9 C-2.11 235.6 -2.13 236.29 -2.15 237.01 C-2.21 239.24 -2.26 241.46 -2.31 243.69 C-2.99 272.1 -2.99 272.1 -4.81 275.75 C-6.79 275.75 -8.77 275.75 -10.81 275.75 C-10.81 273.77 -10.81 271.79 -10.81 269.75 C-11.47 269.75 -12.13 269.75 -12.81 269.75 C-13.06 270.35 -13.31 270.95 -13.56 271.56 C-15.59 275.11 -17.99 276.48 -21.81 277.75 C-23.69 277.84 -25.56 277.88 -27.44 277.88 C-28.42 277.88 -29.4 277.88 -30.41 277.88 C-32.81 277.75 -32.81 277.75 -33.81 276.75 C-33.85 274.42 -33.85 272.08 -33.81 269.75 C-33.21 269.56 -32.61 269.36 -31.98 269.16 C-31.19 268.9 -30.39 268.64 -29.56 268.38 C-28.38 267.99 -28.38 267.99 -27.17 267.6 C-22.16 265.84 -22.16 265.84 -19.06 261.62 C-18.65 260.68 -18.24 259.73 -17.81 258.75 C-19.46 258.75 -21.11 258.75 -22.81 258.75 C-22.79 257.9 -22.79 257.9 -22.76 257.03 C-22.52 246.74 -22.33 237.11 -25.16 227.15 C-25.81 224.75 -25.81 224.75 -25.81 221.75 C-35.71 221.75 -45.61 221.75 -55.81 221.75 C-55.81 206 -55.81 206 -55.31 199.88 C-55.22 198.7 -55.13 197.53 -55.03 196.32 C-54.96 195.47 -54.89 194.62 -54.81 193.75 C-55.8 194.08 -56.79 194.41 -57.81 194.75 C-57.87 194.04 -57.93 193.33 -58 192.6 C-58.08 191.68 -58.16 190.76 -58.25 189.81 C-58.33 188.9 -58.41 187.98 -58.5 187.04 C-58.57 184.79 -58.57 184.79 -59.81 183.75 C-60.42 177.15 -58.53 171.4 -56.62 165.12 C-56.14 163.52 -56.14 163.52 -55.65 161.87 C-49.59 141.93 -41.19 122.86 -26.69 107.5 C-24.1 103.71 -22.56 100.41 -22.81 95.75 C-24.84 91.35 -27.57 87.75 -32.07 85.74 C-34.46 85.09 -34.46 85.09 -37.81 84.75 C-37.81 83.76 -37.81 82.77 -37.81 81.75 C-39.3 82.25 -39.3 82.25 -40.81 82.75 C-40.81 82.09 -40.81 81.43 -40.81 80.75 C-41.47 80.75 -42.13 80.75 -42.81 80.75 C-42.15 77.78 -41.49 74.81 -40.81 71.75 C-42.3 71.25 -42.3 71.25 -43.81 70.75 C-38.06 71.63 -38.06 71.63 -35.81 72.75 C-32.91 72.82 -30.03 72.84 -27.12 72.81 C-25.83 72.81 -25.83 72.81 -24.51 72.8 C-21.76 72.79 -19 72.77 -16.25 72.75 C-12.62 72.72 -9 72.7 -5.37 72.69 C-4.53 72.68 -3.69 72.67 -2.82 72.66 C-0.82 72.65 1.19 72.7 3.19 72.75 C3.52 73.08 3.85 73.41 4.19 73.75 C8.18 74.03 12.19 73.98 16.19 74 C17.3 74.02 18.41 74.04 19.56 74.06 C25.62 74.09 30.56 73.64 36.23 71.45 C39.04 70.44 41.78 70.23 44.75 70.06 C45.78 70 46.82 69.93 47.88 69.86 C48.64 69.83 49.4 69.79 50.19 69.75 C50.19 69.09 50.19 68.43 50.19 67.75 C50.94 67.76 51.68 67.77 52.45 67.79 C53.44 67.79 54.42 67.8 55.44 67.81 C56.9 67.83 56.9 67.83 58.39 67.85 C60.86 67.76 62.82 67.39 65.19 66.75 C63.36 66.06 63.36 66.06 61.5 65.36 C59.87 64.74 58.25 64.12 56.62 63.5 C55.83 63.2 55.03 62.9 54.2 62.59 C50.39 61.13 46.84 59.63 43.35 57.51 C38.64 54.89 35.19 55.9 30.2 57.31 C29.26 57.59 29.26 57.59 28.31 57.88 C25.19 58.75 25.19 58.75 23.19 57.75 C23.19 58.74 23.19 59.73 23.19 60.75 C21.87 60.09 20.55 59.43 19.19 58.75 C18.2 59.74 18.2 59.74 17.19 60.75 C15.52 60.75 13.85 60.75 12.19 60.75 C9.94 61.67 9.94 61.67 8.19 62.75 C7.86 61.76 7.53 60.77 7.19 59.75 C6.86 60.74 6.53 61.73 6.19 62.75 C2.23 62.75 -1.73 62.75 -5.81 62.75 C-5.81 61.76 -5.81 60.77 -5.81 59.75 C-7.13 59.75 -8.45 59.75 -9.81 59.75 C-9.81 60.74 -9.81 61.73 -9.81 62.75 C-13.16 62.82 -15.62 62.82 -18.81 61.75 C-20.2 61.53 -21.6 61.35 -23 61.19 C-24.26 61.04 -25.52 60.9 -26.81 60.75 C-26.48 59.43 -26.15 58.11 -25.81 56.75 C-36.33 55.81 -43.42 58.23 -52.81 62.75 C-55.08 63.7 -57.35 64.64 -59.62 65.56 C-62.97 66.76 -62.97 66.76 -65.81 68.75 C-58.88 69.08 -51.95 69.41 -44.81 69.75 C-44.81 70.08 -44.81 70.41 -44.81 70.75 C-52.73 70.75 -60.65 70.75 -68.81 70.75 C-64.83 62.78 -56.71 61.09 -48.8 58.39 C-43.95 56.69 -39.88 54.93 -35.81 51.75 C-34.86 49.63 -34.86 49.63 -34.81 47.75 C-35.47 47.75 -36.13 47.75 -36.81 47.75 C-36.81 47.09 -36.81 46.43 -36.81 45.75 C-34.83 45.75 -32.85 45.75 -30.81 45.75 C-30.81 44.1 -30.81 42.45 -30.81 40.75 C-28.83 40.75 -26.85 40.75 -24.81 40.75 C-24.43 39.74 -24.43 39.74 -24.04 38.71 C-22.58 35.19 -20.86 31.83 -19.12 28.44 C-15.88 22.06 -12.92 15.61 -10.25 8.98 C-6.32 -0.41 -6.32 -0.41 0 0 Z " fill="#FCFCFC" transform="translate(116.8125,18.25)" id="path2"><inkstitch:params>{
  "stitch_type": "fill",
  "fill_angle": 45,
  "spacing": 0.4,
  "underlay": {
    "type": "none"
  },
  "pull_compensation": 0.0
}</inkstitch:params></path>
  <path d="M0 0 C0.69 0.13 1.38 0.27 2.09 0.41 C4.46 0.88 4.46 0.88 8 0.5 C9.05 0.58 10.1 0.66 11.19 0.75 C14.57 5.21 16.42 10.8 18.56 15.94 C21.52 23.02 24.67 29.93 28.19 36.75 C29.18 36.75 30.17 36.75 31.19 36.75 C31.19 38.07 31.19 39.39 31.19 40.75 C31.76 41.02 32.34 41.29 32.94 41.56 C37.31 43.87 37.31 43.87 39.19 45.75 C39.23 46.84 39.27 47.94 39.31 49.06 C40.31 53.26 40.72 53.59 44.19 55.81 C50.33 59.14 56.92 61.27 63.53 63.45 C67.19 64.75 67.19 64.75 70.19 66.75 C70.19 67.41 70.19 68.07 70.19 68.75 C66.75 69.76 63.44 69.98 59.88 70.19 C54.97 70.53 50.85 71.26 46.19 72.75 C43.86 73.12 41.53 73.46 39.19 73.75 C39.68 74.37 40.18 74.99 40.69 75.62 C42.19 77.75 42.19 77.75 42.19 79.75 C41.2 79.75 40.21 79.75 39.19 79.75 C39.52 81.07 39.85 82.39 40.19 83.75 C38.7 83.25 38.7 83.25 37.19 82.75 C37.19 83.74 37.19 84.73 37.19 85.75 C36.61 85.89 36.03 86.02 35.43 86.16 C30.09 87.63 26.53 89.38 23.16 93.86 C21.94 95.92 21.94 95.92 21.94 99.25 C23.28 103 24.74 104.78 27.39 107.64 C38.1 120.17 45.26 137.9 49.19 153.75 C49.36 154.45 49.54 155.15 49.72 155.87 C51.35 163.04 51.47 170.04 51.56 177.38 C51.82 188.44 52.14 199.9 57.33 209.96 C58.68 212.78 58 214.82 57.19 217.75 C55.81 219.62 55.81 219.62 54.19 220.75 C53.2 220.75 52.21 220.75 51.19 220.75 C50.86 220.09 50.53 219.43 50.19 218.75 C49.53 219.74 48.87 220.73 48.19 221.75 C45.36 222.48 45.36 222.48 41.94 222.94 C40.82 223.1 39.7 223.25 38.55 223.42 C35.4 223.73 32.35 223.81 29.19 223.75 C28.17 231.6 27.87 239.41 27.62 247.31 C27.56 249.25 27.56 249.25 27.49 251.24 C27.39 254.41 27.29 257.58 27.19 260.75 C26.2 260.75 25.21 260.75 24.19 260.75 C26.52 263.78 27.85 265.49 31.68 266.23 C33.44 266.37 35.21 266.46 36.98 266.51 C39.19 266.75 39.19 266.75 41.19 268.75 C41.31 272.38 41.31 272.38 41.19 275.75 C36.75 277.97 31 277.29 26.19 276.75 C23.25 275.39 21.59 273.98 19.19 271.75 C18.86 273.4 18.53 275.05 18.19 276.75 C16.21 276.75 14.23 276.75 12.19 276.75 C11.05 273.33 11.09 270.66 11.12 267.06 C11.13 265.88 11.14 264.7 11.15 263.49 C11.16 262.58 11.18 261.68 11.19 260.75 C10.2 260.75 9.21 260.75 8.19 260.75 C7.37 256.29 6.93 251.91 6.65 247.38 C6.61 246.7 6.57 246.02 6.52 245.32 C6.39 243.17 6.26 241.02 6.12 238.88 C6.03 237.41 5.94 235.94 5.85 234.48 C5.63 230.9 5.41 227.33 5.19 223.75 C4.53 223.75 3.87 223.75 3.19 223.75 C2.69 221.27 2.69 221.27 2.19 218.75 C-1.39 224.35 -1.94 228.27 -2.09 234.9 C-2.11 235.6 -2.13 236.29 -2.15 237.01 C-2.21 239.24 -2.26 241.46 -2.31 243.69 C-2.99 272.1 -2.99 272.1 -4.81 275.75 C-6.79 275.75 -8.77 275.75 -10.81 275.75 C-10.81 273.77 -10.81 271.79 -10.81 269.75 C-11.47 269.75 -12.13 269.75 -12.81 269.75 C-13.06 270.35 -13.31 270.95 -13.56 271.56 C-15.59 275.11 -17.99 276.48 -21.81 277.75 C-23.69 277.84 -25.56 277.88 -27.44 277.88 C-28.42 277.88 -29.4 277.88 -30.41 277.88 C-32.81 277.75 -32.81 277.75 -33.81 276.75 C-33.85 274.42 -33.85 272.08 -33.81 269.75 C-33.21 269.56 -32.61 269.36 -31.98 269.16 C-31.19 268.9 -30.39 268.64 -29.56 268.38 C-28.38 267.99 -28.38 267.99 -27.17 267.6 C-22.16 265.84 -22.16 265.84 -19.06 261.62 C-18.65 260.68 -18.24 259.73 -17.81 258.75 C-19.46 258.75 -21.11 258.75 -22.81 258.75 C-22.79 257.9 -22.79 257.9 -22.76 257.03 C-22.52 246.74 -22.33 237.11 -25.16 227.15 C-25.81 224.75 -25.81 224.75 -25.81 221.75 C-29.77 221.75 -33.73 221.75 -37.81 221.75 C-37.81 221.42 -37.81 221.09 -37.81 220.75 C-36.81 220.74 -35.81 220.72 -34.78 220.71 C-27.09 220.47 -21.72 220.11 -15.81 214.75 C-15.15 214.75 -14.49 214.75 -13.81 214.75 C-13.48 216.07 -13.15 217.39 -12.81 218.75 C-11.49 219.08 -10.17 219.41 -8.81 219.75 C-8.15 218.43 -7.49 217.11 -6.81 215.75 C-6.15 216.08 -5.49 216.41 -4.81 216.75 C-4.81 218.07 -4.81 219.39 -4.81 220.75 C-3.49 220.75 -2.17 220.75 -0.81 220.75 C-0.15 217.12 0.51 213.49 1.19 209.75 C1.85 209.75 2.51 209.75 3.19 209.75 C4.51 213.73 4.26 217.6 4.19 221.75 C4.92 221.74 5.66 221.73 6.42 221.71 C7.39 221.71 8.37 221.7 9.38 221.69 C10.34 221.68 11.3 221.66 12.29 221.65 C15.04 221.75 17.51 222.13 20.19 222.75 C20.19 221.76 20.19 220.77 20.19 219.75 C22.17 219.75 24.15 219.75 26.19 219.75 C26.19 220.41 26.19 221.07 26.19 221.75 C29.46 221.59 32.73 221.36 36 221.12 C36.93 221.08 37.86 221.03 38.81 220.99 C41.41 220.78 43.71 220.55 46.19 219.75 C48.43 216.85 48.43 216.85 49.19 213.75 C49.85 214.08 50.51 214.41 51.19 214.75 C51.52 215.74 51.85 216.73 52.19 217.75 C52.85 218.08 53.51 218.41 54.19 218.75 C55.42 213.48 54.98 210.33 53.09 205.3 C51.41 200.56 50.35 195.64 49.19 190.75 C47.7 190.78 47.7 190.78 46.19 190.81 C40.47 190.04 37.53 185.02 34.19 180.75 C33.45 180.08 32.72 179.41 31.96 178.72 C29.08 173.9 29.77 168.93 29.94 163.44 C29.96 162.32 29.97 161.19 29.99 160.04 C30.04 157.27 30.1 154.51 30.19 151.75 C30.85 151.75 31.51 151.75 32.19 151.75 C32.18 152.39 32.17 153.04 32.17 153.7 C31.61 169.51 31.61 169.51 38.4 183.18 C41.93 186.28 44.6 187.14 49.19 187.75 C48.79 159.64 43.78 133.14 26.55 110.01 C25.13 108.41 25.13 108.41 22.19 108.75 C22.19 107.43 22.19 106.11 22.19 104.75 C20.54 104.75 18.89 104.75 17.19 104.75 C18.18 103.27 18.18 103.27 19.19 101.75 C19.19 100.76 19.19 99.77 19.19 98.75 C14.73 99.25 14.73 99.25 10.19 99.75 C11.51 99.09 12.83 98.43 14.19 97.75 C23.96 91.88 27.63 86.54 31.19 75.75 C26.74 77.31 25.43 78.59 23.19 82.75 C19.73 84.48 15.96 84.37 12.19 83.75 C9.82 81.5 8.63 79.63 7.19 76.75 C4.11 75.65 1.19 75.64 -2.06 75.69 C-2.95 75.7 -3.85 75.71 -4.77 75.71 C-5.44 75.73 -6.12 75.74 -6.81 75.75 C-7.08 76.53 -7.35 77.32 -7.62 78.12 C-8.81 80.75 -8.81 80.75 -11.81 82.75 C-14.83 83.09 -16.91 83.32 -19.81 82.75 C-22.5 80.57 -24.27 78.84 -25.81 75.75 C-28.84 75.09 -28.84 75.09 -31.81 74.75 C-31.58 75.28 -31.36 75.81 -31.12 76.36 C-30.83 77.07 -30.55 77.77 -30.25 78.5 C-29.81 79.54 -29.81 79.54 -29.37 80.61 C-28.81 82.75 -28.81 82.75 -29.81 86.75 C-32.45 86.09 -35.09 85.43 -37.81 84.75 C-37.81 83.76 -37.81 82.77 -37.81 81.75 C-39.3 82.25 -39.3 82.25 -40.81 82.75 C-40.81 82.09 -40.81 81.43 -40.81 80.75 C-41.47 80.75 -42.13 80.75 -42.81 80.75 C-42.15 77.78 -41.49 74.81 -40.81 71.75 C-42.3 71.25 -42.3 71.25 -43.81 70.75 C-38.06 71.63 -38.06 71.63 -35.81 72.75 C-32.91 72.82 -30.03 72.84 -27.12 72.81 C-25.83 72.81 -25.83 72.81 -24.51 72.8 C-21.76 72.79 -19 72.77 -16.25 72.75 C-12.62 72.72 -9 72.7 -5.37 72.69 C-4.53 72.68 -3.69 72.67 -2.82 72.66 C-0.82 72.65 1.19 72.7 3.19 72.75 C3.52 73.08 3.85 73.41 4.19 73.75 C8.18 74.03 12.19 73.98 16.19 74 C17.3 74.02 18.41 74.04 19.56 74.06 C25.62 74.09 30.56 73.64 36.23 71.45 C39.04 70.44 41.78 70.23 44.75 70.06 C45.78 70 46.82 69.93 47.88 69.86 C48.64 69.83 49.4 69.79 50.19 69.75 C50.19 69.09 50.19 68.43 50.19 67.75 C50.94 67.76 51.68 67.77 52.45 67.79 C53.44 67.79 54.42 67.8 55.44 67.81 C56.9 67.83 56.9 67.83 58.39 67.85 C60.86 67.76 62.82 67.39 65.19 66.75 C63.36 66.06 63.36 66.06 61.5 65.36 C59.87 64.74 58.25 64.12 56.62 63.5 C55.83 63.2 55.03 62.9 54.2 62.59 C50.39 61.13 46.84 59.63 43.35 57.51 C38.64 54.89 35.19 55.9 30.2 57.31 C29.26 57.59 29.26 57.59 28.31 57.88 C25.19 58.75 25.19 58.75 23.19 57.75 C23.19 58.74 23.19 59.73 23.19 60.75 C21.87 60.09 20.55 59.43 19.19 58.75 C18.2 59.74 18.2 59.74 17.19 60.75 C15.52 60.75 13.85 60.75 12.19 60.75 C9.94 61.67 9.94 61.67 8.19 62.75 C7.86 61.76 7.53 60.77 7.19 59.75 C6.86 60.74 6.53 61.73 6.19 62.75 C2.23 62.75 -1.73 62.75 -5.81 62.75 C-5.81 61.76 -5.81 60.77 -5.81 59.75 C-7.13 59.75 -8.45 59.75 -9.81 59.75 C-9.81 60.74 -9.81 61.73 -9.81 62.75 C-13.16 62.82 -15.62 62.82 -18.81 61.75 C-20.2 61.53 -21.6 61.35 -23 61.19 C-24.26 61.04 -25.52 60.9 -26.81 60.75 C-26.48 59.43 -26.15 58.11 -25.81 56.75 C-36.33 55.81 -43.42 58.23 -52.81 62.75 C-55.08 63.7 -57.35 64.64 -59.62 65.56 C-62.97 66.76 -62.97 66.76 -65.81 68.75 C-58.88 69.08 -51.95 69.41 -44.81 69.75 C-44.81 70.08 -44.81 70.41 -44.81 70.75 C-52.73 70.75 -60.65 70.75 -68.81 70.75 C-64.83 62.78 -56.71 61.09 -48.8 58.39 C-43.95 56.69 -39.88 54.93 -35.81 51.75 C-34.86 49.63 -34.86 49.63 -34.81 47.75 C-35.47 47.75 -36.13 47.75 -36.81 47.75 C-36.81 47.09 -36.81 46.43 -36.81 45.75 C-34.83 45.75 -32.85 45.75 -30.81 45.75 C-30.81 44.1 -30.81 42.45 -30.81 40.75 C-28.83 40.75 -26.85 40.75 -24.81 40.75 C-24.43 39.74 -24.43 39.74 -24.04 38.71 C-22.58 35.19 -20.86 31.83 -19.12 28.44 C-15.88 22.06 -12.92 15.61 -10.25 8.98 C-6.32 -0.41 -6.32 -0.41 0 0 Z " fill="#1C1C1C" transform="translate(116.8125,18.25)" id="path3"><inkstitch:params>{
  "stitch_type": "fill",
  "fill_angle": 45,
  "spacing": 0.4,
  "underlay": {
    "type": "none"
  },
  "pull_compensation": 0.0
}</inkstitch:params></path>
  <path d="M0 0 C1.65 0 3.3 0 5 0 C5.5 1.48 5.5 1.48 6 3 C5.01 3 4.02 3 3 3 C3.5 4.98 3.5 4.98 4 7 C3.01 6.67 2.02 6.34 1 6 C1 6.99 1 7.98 1 9 C0.42 9.14 -0.16 9.27 -0.76 9.41 C-6.09 10.88 -9.65 12.63 -13.02 17.11 C-14.24 19.17 -14.24 19.17 -14.25 22.5 C-12.91 26.25 -11.45 28.03 -8.8 30.89 C1.92 43.42 9.08 61.15 13 77 C13.18 77.7 13.35 78.4 13.53 79.12 C15.16 86.29 15.28 93.29 15.38 100.62 C15.64 111.69 15.95 123.15 21.14 133.21 C22.5 136.03 21.81 138.07 21 141 C19.62 142.88 19.62 142.88 18 144 C17.01 144 16.02 144 15 144 C14.67 143.34 14.34 142.68 14 142 C13.34 142.99 12.68 143.98 12 145 C9.17 145.73 9.17 145.73 5.75 146.19 C4.63 146.35 3.51 146.5 2.36 146.67 C-0.79 146.98 -3.84 147.06 -7 147 C-8.02 154.85 -8.32 162.66 -8.56 170.56 C-8.63 172.5 -8.63 172.5 -8.69 174.49 C-8.8 177.66 -8.9 180.83 -9 184 C-9.99 184 -10.98 184 -12 184 C-9.67 187.03 -8.34 188.74 -4.51 189.48 C-2.75 189.62 -0.98 189.71 0.79 189.76 C3 190 3 190 5 192 C5.12 195.63 5.12 195.63 5 199 C0.56 201.22 -5.19 200.54 -10 200 C-12.93 198.64 -14.6 197.23 -17 195 C-17.33 196.65 -17.66 198.3 -18 200 C-19.98 200 -21.96 200 -24 200 C-25.14 196.58 -25.1 193.91 -25.06 190.31 C-25.05 189.13 -25.04 187.95 -25.04 186.74 C-25.02 185.83 -25.01 184.93 -25 184 C-25.99 184 -26.98 184 -28 184 C-28.82 179.54 -29.25 175.16 -29.54 170.63 C-29.58 169.95 -29.62 169.27 -29.67 168.57 C-29.8 166.42 -29.93 164.27 -30.06 162.12 C-30.15 160.66 -30.25 159.19 -30.34 157.73 C-30.56 154.15 -30.78 150.58 -31 147 C-31.66 147 -32.32 147 -33 147 C-33.5 144.52 -33.5 144.52 -34 142 C-37.58 147.6 -38.12 151.52 -38.28 158.15 C-38.31 159.2 -38.31 159.2 -38.34 160.26 C-38.4 162.49 -38.45 164.71 -38.5 166.94 C-39.17 195.35 -39.17 195.35 -41 199 C-42.98 199 -44.96 199 -47 199 C-47 197.02 -47 195.04 -47 193 C-47.66 193 -48.32 193 -49 193 C-49.25 193.6 -49.5 194.2 -49.75 194.81 C-51.78 198.36 -54.18 199.73 -58 201 C-59.87 201.09 -61.75 201.13 -63.62 201.12 C-64.61 201.13 -65.59 201.13 -66.6 201.13 C-69 201 -69 201 -70 200 C-70.04 197.67 -70.04 195.33 -70 193 C-69.4 192.81 -68.79 192.61 -68.17 192.41 C-67.37 192.15 -66.57 191.89 -65.75 191.62 C-64.96 191.37 -64.17 191.11 -63.36 190.85 C-58.35 189.09 -58.35 189.09 -55.25 184.88 C-54.84 183.93 -54.42 182.98 -54 182 C-55.65 182 -57.3 182 -59 182 C-58.98 181.15 -58.98 181.15 -58.95 180.28 C-58.71 169.99 -58.52 160.36 -61.34 150.4 C-62 148 -62 148 -62 145 C-65.96 145 -69.92 145 -74 145 C-74 144.67 -74 144.34 -74 144 C-73 143.99 -72 143.97 -70.96 143.96 C-63.28 143.72 -57.91 143.36 -52 138 C-51.34 138 -50.68 138 -50 138 C-49.5 139.98 -49.5 139.98 -49 142 C-47.68 142.33 -46.36 142.66 -45 143 C-44.01 141.02 -44.01 141.02 -43 139 C-42.34 139.33 -41.68 139.66 -41 140 C-41 141.32 -41 142.64 -41 144 C-39.68 144 -38.36 144 -37 144 C-36.34 140.37 -35.68 136.74 -35 133 C-34.34 133 -33.68 133 -33 133 C-31.67 136.98 -31.93 140.85 -32 145 C-31.26 144.99 -30.53 144.98 -29.77 144.96 C-28.79 144.96 -27.82 144.95 -26.81 144.94 C-25.85 144.93 -24.89 144.91 -23.89 144.9 C-21.14 145 -18.68 145.38 -16 146 C-16 145.01 -16 144.02 -16 143 C-14.02 143 -12.04 143 -10 143 C-10 143.66 -10 144.32 -10 145 C-6.73 144.84 -3.46 144.61 -0.19 144.38 C0.74 144.33 1.67 144.28 2.63 144.24 C5.22 144.03 7.52 143.8 10 143 C12.25 140.1 12.25 140.1 13 137 C13.66 137.33 14.32 137.66 15 138 C15.33 138.99 15.66 139.98 16 141 C16.66 141.33 17.32 141.66 18 142 C19.23 136.73 18.79 133.58 16.9 128.55 C15.23 123.81 14.17 118.89 13 114 C12.01 114.02 11.02 114.04 10 114.06 C4.28 113.29 1.34 108.27 -2 104 C-2.73 103.33 -3.47 102.66 -4.22 101.97 C-7.1 97.15 -6.42 92.18 -6.25 86.69 C-6.23 85.57 -6.21 84.44 -6.2 83.29 C-6.15 80.52 -6.08 77.76 -6 75 C-5.34 75 -4.68 75 -4 75 C-4.01 75.97 -4.01 75.97 -4.02 76.95 C-4.57 92.76 -4.57 92.76 2.21 106.43 C5.74 109.53 8.41 110.39 13 111 C12.61 82.89 7.59 56.39 -9.64 33.26 C-11.06 31.66 -11.06 31.66 -14 32 C-14 30.68 -14 29.36 -14 28 C-15.65 28 -17.3 28 -19 28 C-18.34 27.01 -17.68 26.02 -17 25 C-17 24.01 -17 23.02 -17 22 C-19.97 22.33 -22.94 22.66 -26 23 C-24.68 22.34 -23.36 21.68 -22 21 C-15.38 17.02 -10.22 13.25 -7 6 C-6.5 6.99 -6.5 6.99 -6 8 C-3.53 7.5 -3.53 7.5 -1 7 C-1.5 5.52 -1.5 5.52 -2 4 C-1.01 3.67 -0.02 3.34 1 3 C0.5 1.52 0.5 1.52 0 0 Z " fill="#494949" transform="translate(153,95)" id="path4"><inkstitch:params>{
  "stitch_type": "fill",
  "fill_angle": 45,
  "spacing": 0.4,
  "underlay": {
    "type": "none"
  },
  "pull_compensation": 0.0
}</inkstitch:params></path>
  <path d="M0 0 C2.75 -0.38 2.75 -0.38 6 0 C8.25 2.94 8.25 2.94 10 6 C13.19 7.6 16.53 7.51 20 7 C22.23 5.25 23.61 3.54 25.25 1.25 C28.22 -0.87 31.54 -0.37 35 0 C37.75 0.62 37.75 0.62 40 2 C40.58 3.03 41.16 4.06 41.75 5.12 C43.63 8.15 43.63 8.15 46.14 8.5 C50.73 8.72 50.73 8.72 54.65 6.65 C56.18 4.83 56.18 4.83 58 2 C60.62 1.31 60.62 1.31 63 1 C62.24 8.59 59.52 13.94 53.81 18.94 C52.55 19.97 51.28 20.99 50 22 C49.5 22.5 49.5 22.5 49 23 C49.99 23.33 50.98 23.66 52 24 C51.83 24.64 51.67 25.28 51.5 25.94 C50.96 27.81 50.96 27.81 51 29 C52.98 29.5 52.98 29.5 55 30 C54.67 31.65 54.34 33.3 54 35 C55.98 35.5 55.98 35.5 58 36 C58.36 42.38 58.36 42.38 56.88 44.94 C54.11 46.5 52.12 46.39 49 46 C48.54 45.5 48.08 45.01 47.61 44.49 C45.42 42.46 44.13 42.67 41.18 42.74 C39.79 42.76 39.79 42.76 38.37 42.79 C36.92 42.83 36.92 42.83 35.44 42.88 C33.52 42.92 31.6 42.96 29.68 42.99 C28.83 43.02 27.98 43.04 27.11 43.07 C25 43 25 43 23 42 C25.45 52.39 28.13 62.27 32.76 71.92 C34.37 75.3 35 77.16 35 81 C29.25 81.12 29.25 81.12 27 80 C27 81.65 27 83.3 27 85 C21.97 84.54 18.85 82.01 15 79 C15 79.99 15 80.98 15 82 C12 81 12 81 10.87 79 C10.54 78.15 10.21 77.31 9.88 76.44 C9.54 75.61 9.21 74.78 8.87 73.93 C6.46 65.78 6.88 57.42 6.94 49 C6.94 47.75 6.95 46.5 6.95 45.21 C6.96 42.14 6.98 39.07 7 36 C2.43 39.49 -0.59 42.86 -3.56 47.75 C-3.95 48.36 -4.33 48.97 -4.72 49.6 C-7.64 54.31 -10.42 59.1 -13 64 C-14 61 -14 61 -12.41 57.56 C-11.64 56.18 -10.86 54.8 -10.06 53.44 C-9.65 52.72 -9.24 52.01 -8.82 51.27 C-5.39 45.39 -1.45 40.15 3 35 C6.71 30.65 9.22 26.89 9 21 C7.73 18.94 6.26 17.45 4.54 15.75 C1.93 12.78 1.67 9.85 1 6 C0.79 4.84 0.59 3.69 0.38 2.5 C0.25 1.67 0.13 0.85 0 0 Z " fill="#474747" transform="translate(85,93)" id="path5"><inkstitch:params>{
  "stitch_type": "fill",
  "fill_angle": 45,
  "spacing": 0.4,
  "underlay": {
    "type": "none"
  },
  "pull_compensation": 0.0
}</inkstitch:params></path>
  <path d="M0 0 C6.66 3.5 13.41 6.26 20.5 8.81 C20.5 9.14 20.5 9.47 20.5 9.81 C14.81 10.95 9.08 11.67 3.5 9.81 C3.5 10.47 3.5 11.13 3.5 11.81 C-0.08 13.6 -4.21 13.68 -8.14 14.21 C-11.46 14.71 -11.46 14.71 -14.33 15.84 C-17.59 16.84 -20.13 17.06 -23.52 17.04 C-24.62 17.04 -25.73 17.04 -26.87 17.04 C-28 17.02 -29.14 17.01 -30.31 17 C-31.47 17 -32.63 17 -33.82 17 C-42.36 16.95 -42.36 16.95 -43.5 15.81 C-46.34 15.75 -49.15 15.75 -51.99 15.79 C-53.74 15.8 -55.5 15.81 -57.26 15.82 C-60.03 15.85 -62.81 15.87 -65.59 15.91 C-68.26 15.94 -70.94 15.96 -73.61 15.97 C-74.44 15.99 -75.27 16 -76.13 16.01 C-80.27 16.03 -82.81 15.79 -86.5 13.81 C-89.7 13.54 -89.7 13.54 -93.23 13.62 C-95.18 13.63 -95.18 13.63 -97.16 13.64 C-98.52 13.65 -99.89 13.67 -101.25 13.69 C-102.63 13.7 -104.01 13.71 -105.39 13.71 C-108.76 13.74 -112.13 13.77 -115.5 13.81 C-111.37 7.67 -106.81 5.91 -99.94 3.56 C-98.06 2.89 -96.18 2.22 -94.31 1.55 C-93.48 1.26 -92.65 0.97 -91.8 0.68 C-89.49 -0.14 -89.49 -0.14 -87.4 -1.3 C-84.47 -2.67 -81.93 -2.13 -78.75 -1.81 C-77.58 -1.7 -76.41 -1.59 -75.2 -1.48 C-74.31 -1.38 -73.42 -1.29 -72.5 -1.19 C-72.83 0.13 -73.16 1.45 -73.5 2.81 C-72.54 2.78 -72.54 2.78 -71.56 2.74 C-66.09 2.63 -61.67 3.01 -56.5 4.81 C-56.5 3.82 -56.5 2.83 -56.5 1.81 C-55.18 1.81 -53.86 1.81 -52.5 1.81 C-52.5 2.8 -52.5 3.79 -52.5 4.81 C-51.82 4.63 -51.14 4.44 -50.44 4.25 C-46.93 3.73 -43.98 4.2 -40.5 4.81 C-40.17 3.49 -39.84 2.17 -39.5 0.81 C-39 2.79 -39 2.79 -38.5 4.81 C-37.76 4.32 -37.02 3.82 -36.25 3.31 C-33.5 1.81 -33.5 1.81 -29.5 1.81 C-28.84 1.15 -28.18 0.49 -27.5 -0.19 C-26.18 0.8 -24.86 1.79 -23.5 2.81 C-23.5 1.82 -23.5 0.83 -23.5 -0.19 C-22.82 -0.31 -22.14 -0.44 -21.44 -0.56 C-18.38 -1.17 -18.38 -1.17 -15 -2.25 C-8.75 -3.93 -5.7 -3.07 0 0 Z " fill="#F6F6F6" transform="translate(163.5,76.1875)" id="path6"><inkstitch:params>{
  "stitch_type": "fill",
  "fill_angle": 45,
  "spacing": 0.4,
  "underlay": {
    "type": "none"
  },
  "pull_compensation": 0.0
}</inkstitch:params></path>
  <path d="M0 0 C3.36 0.45 6.04 1.36 9 3 C9 2.01 9 1.02 9 0 C10.65 0 12.3 0 14 0 C17.98 7.72 21.44 15.58 24.78 23.58 C26.62 27.94 28.54 31.96 31 36 C31.19 38.81 31.19 38.81 31 41 C28.69 40.34 26.38 39.68 24 39 C23.34 40.32 22.68 41.64 22 43 C21.34 43 20.68 43 20 43 C19.5 41.02 19.5 41.02 19 39 C18.34 39 17.68 39 17 39 C16.9 39.64 16.79 40.28 16.69 40.94 C16.46 41.62 16.23 42.3 16 43 C15.01 43.33 14.02 43.66 13 44 C13 43.34 13 42.68 13 42 C7.16 40.98 3.75 41.31 -2 43 C-2.99 42.34 -3.98 41.68 -5 41 C-5 42.32 -5 43.64 -5 45 C-5.66 44.67 -6.32 44.34 -7 44 C-6.67 43.34 -6.34 42.68 -6 42 C-6.58 42.01 -7.16 42.02 -7.76 42.04 C-8.54 42.04 -9.32 42.05 -10.12 42.06 C-10.89 42.07 -11.66 42.09 -12.45 42.1 C-15.36 41.99 -18.13 41.53 -21 41 C-20.67 40.43 -20.34 39.85 -20 39.26 C-15.66 31.51 -11.89 23.54 -8.12 15.5 C-1.59 1.59 -1.59 1.59 0 0 Z " fill="#FAFAFA" transform="translate(113,20)" id="path7"><inkstitch:params>{
  "stitch_type": "fill",
  "fill_angle": 45,
  "spacing": 0.4,
  "underlay": {
    "type": "none"
  },
  "pull_compensation": 0.0
}</inkstitch:params></path>
  <path d="M0 0 C2.75 -0.38 2.75 -0.38 6 0 C8.25 2.94 8.25 2.94 10 6 C13.19 7.6 16.53 7.51 20 7 C22.23 5.25 23.61 3.54 25.25 1.25 C28.22 -0.87 31.54 -0.37 35 0 C37.75 0.62 37.75 0.62 40 2 C40.58 3.03 41.16 4.06 41.75 5.12 C43.63 8.15 43.63 8.15 46.14 8.5 C50.73 8.72 50.73 8.72 54.65 6.65 C56.18 4.83 56.18 4.83 58 2 C60.62 1.31 60.62 1.31 63 1 C62.13 9.65 58.55 15.06 52 20.55 C48.31 23.22 45.61 24.49 41 24 C40.34 23.34 39.68 22.68 39 22 C35.92 21.83 35.92 21.83 33 22 C33.97 22.29 34.94 22.58 35.94 22.88 C39 24 39 24 40 26 C28.04 26.5 18.09 26.91 8.69 18.44 C4.13 13.51 0 6.86 0 0 Z " fill="#F5F5F5" transform="translate(85,93)" id="path8"><inkstitch:params>{
  "stitch_type": "fill",
  "fill_angle": 45,
  "spacing": 0.4,
  "underlay": {
    "type": "none"
  },
  "pull_compensation": 0.0
}</inkstitch:params></path>
  <path d="M0 0 C1.98 0.33 3.96 0.66 6 1 C6 2.32 6 3.64 6 5 C6.99 5 7.98 5 9 5 C9 5.66 9 6.32 9 7 C8.34 7 7.68 7 7 7 C7 7.66 7 8.32 7 9 C7.66 9 8.32 9 9 9 C9 9.99 9 10.98 9 12 C8.34 12 7.68 12 7 12 C7.27 13.98 7.27 13.98 8 16 C8.99 16.33 9.98 16.66 11 17 C8.62 18.06 8.62 18.06 6 19 C5.34 18.67 4.68 18.34 4 18 C4 18.99 4 19.98 4 21 C2.68 20.34 1.36 19.68 0 19 C-0.66 19.66 -1.32 20.32 -2 21 C-3.67 21 -5.33 21 -7 21 C-9.25 21.92 -9.25 21.92 -11 23 C-11.33 22.01 -11.66 21.02 -12 20 C-12.33 20.99 -12.66 21.98 -13 23 C-16.96 23 -20.92 23 -25 23 C-25 22.01 -25 21.02 -25 20 C-26.32 20 -27.64 20 -29 20 C-29 20.99 -29 21.98 -29 23 C-32.34 23.07 -34.8 23.07 -38 22 C-38.99 22 -39.98 22 -41 22 C-41 20.68 -41 19.36 -41 18 C-41.66 17.67 -42.32 17.34 -43 17 C-42.67 15.35 -42.34 13.7 -42 12 C-40.68 12 -39.36 12 -38 12 C-38 11.34 -38 10.68 -38 10 C-39.32 10 -40.64 10 -42 10 C-42 9.34 -42 8.68 -42 8 C-41.34 7.67 -40.68 7.34 -40 7 C-39.67 6.01 -39.34 5.02 -39 4 C-39.66 3.67 -40.32 3.34 -41 3 C-37.04 3.33 -33.08 3.66 -29 4 C-28.67 4.99 -28.34 5.98 -28 7 C-28 5.68 -28 4.36 -28 3 C-26.98 3.31 -26.98 3.31 -25.94 3.62 C-22.88 4.22 -22.88 4.22 -19.56 2.94 C-15.52 1.87 -13.77 2.35 -10 4 C-10 4.66 -10 5.32 -10 6 C-6.75 4.28 -6.75 4.28 -6 1 C-5.34 1 -4.68 1 -4 1 C-3.5 2.98 -3.5 2.98 -3 5 C-2.34 5 -1.68 5 -1 5 C-0.67 3.35 -0.34 1.7 0 0 Z " fill="#262626" transform="translate(136,58)" id="path9"><inkstitch:params>{
  "stitch_type": "fill",
  "fill_angle": 45,
  "spacing": 0.4,
  "underlay": {
    "type": "none"
  },
  "pull_compensation": 0.0
}</inkstitch:params></path>
  <path d="M0 0 C0.78 0.16 1.56 0.32 2.37 0.49 C4.91 1.02 4.91 1.02 7.13 1.23 C9.69 1.74 11.03 2.26 13 4 C13.94 6.9 14.47 9.73 14.92 12.74 C16.23 21.5 19.67 29.43 23.69 37.31 C25 40 25 40 25 42 C22.03 41.34 19.06 40.68 16 40 C16 41.65 16 43.3 16 45 C13.51 43.8 11.32 42.55 9 41 C6.37 40.83 6.37 40.83 4 41 C1.07 34.51 -0.13 29.37 -0.1 22.17 C-0.09 20.88 -0.09 19.58 -0.09 18.25 C-0.08 16.9 -0.07 15.54 -0.06 14.19 C-0.06 12.81 -0.05 11.44 -0.05 10.06 C-0.04 6.71 -0.02 3.35 0 0 Z " fill="#F9F9F9" transform="translate(94,131)" id="path10"><inkstitch:params>{
  "stitch_type": "fill",
  "fill_angle": 45,
  "spacing": 0.4,
  "underlay": {
    "type": "none"
  },
  "pull_compensation": 0.0
}</inkstitch:params></path>
  <path d="M0 0 C0 0.99 0 1.98 0 3 C2.64 2.67 5.28 2.34 8 2 C8 2.99 8 3.98 8 5 C9.32 5 10.64 5 12 5 C11.76 6.52 11.76 6.52 11.52 8.06 C11.03 11.74 10.8 15.32 10.68 19.03 C10.64 20.31 10.6 21.6 10.56 22.92 C10.52 24.26 10.48 25.6 10.44 26.94 C10.39 28.3 10.35 29.67 10.31 31.03 C10.2 34.36 10.1 37.68 10 41 C9.01 41 8.02 41 7 41 C7 40.34 7 39.68 7 39 C6.34 39 5.68 39 5 39 C5 39.66 5 40.32 5 41 C3.35 41 1.7 41 0 41 C0 39.68 0 38.36 0 37 C-0.43 37.5 -0.87 37.99 -1.31 38.5 C-3 40 -3 40 -6 40 C-5.97 38.7 -5.93 37.39 -5.89 36.05 C-5.73 27.13 -5.64 18.92 -8.34 10.31 C-9 8 -9 8 -9 4 C-2.25 0 -2.25 0 0 0 Z " fill="#F8F8F8" transform="translate(102,236)" id="path11"><inkstitch:params>{
  "stitch_type": "fill",
  "fill_angle": 45,
  "spacing": 0.4,
  "underlay": {
    "type": "none"
  },
  "pull_compensation": 0.0
}</inkstitch:params></path>
  <path d="M0 0 C-0.15 1.04 -0.31 2.08 -0.46 3.16 C-1.23 9.25 -1.36 15.37 -1.56 21.5 C-1.61 22.7 -1.65 23.91 -1.69 25.15 C-1.8 28.1 -1.9 31.05 -2 34 C-6.46 34.5 -6.46 34.5 -11 35 C-11.5 33.51 -11.5 33.51 -12 32 C-12.66 32 -13.32 32 -14 32 C-14 32.99 -14 33.98 -14 35 C-15.32 35 -16.64 35 -18 35 C-18.03 34.37 -18.05 33.73 -18.08 33.08 C-18.7 16.52 -18.7 16.52 -20 0 C-17.79 -0.2 -15.58 -0.38 -13.38 -0.56 C-12.15 -0.67 -10.92 -0.77 -9.65 -0.88 C-6.24 -0.99 -3.32 -0.69 0 0 Z " fill="#F8F8F8" transform="translate(144,242)" id="path12"><inkstitch:params>{
  "stitch_type": "fill",
  "fill_angle": 45,
  "spacing": 0.4,
  "underlay": {
    "type": "none"
  },
  "pull_compensation": 0.0
}</inkstitch:params></path>
  <path d="M0 0 C0.69 0.13 1.38 0.27 2.09 0.41 C4.46 0.88 4.46 0.88 8 0.5 C9.05 0.58 10.1 0.66 11.19 0.75 C14.57 5.21 16.42 10.8 18.56 15.94 C21.52 23.02 24.67 29.93 28.19 36.75 C29.18 36.75 30.17 36.75 31.19 36.75 C31.19 38.07 31.19 39.39 31.19 40.75 C31.85 41.08 32.51 41.41 33.19 41.75 C32.53 41.75 31.87 41.75 31.19 41.75 C31.19 43.4 31.19 45.05 31.19 46.75 C30.53 46.75 29.87 46.75 29.19 46.75 C29.68 48.73 29.68 48.73 30.19 50.75 C30.85 50.75 31.51 50.75 32.19 50.75 C33.31 54.5 33.31 54.5 32.19 56.75 C30.54 56.42 28.89 56.09 27.19 55.75 C26.69 53.77 26.69 53.77 26.19 51.75 C26.85 51.75 27.51 51.75 28.19 51.75 C28.19 50.76 28.19 49.77 28.19 48.75 C27.53 48.75 26.87 48.75 26.19 48.75 C26.19 48.09 26.19 47.43 26.19 46.75 C26.85 46.75 27.51 46.75 28.19 46.75 C28.19 46.09 28.19 45.43 28.19 44.75 C27.2 44.75 26.21 44.75 25.19 44.75 C24.86 43.76 24.53 42.77 24.19 41.75 C24.85 41.75 25.51 41.75 26.19 41.75 C25.59 38.16 24.61 35.16 23.08 31.87 C22.66 30.95 22.23 30.04 21.8 29.09 C21.35 28.14 20.9 27.18 20.44 26.19 C19.53 24.22 18.62 22.24 17.71 20.27 C17.27 19.32 16.84 18.37 16.39 17.4 C14.2 12.57 12.16 7.67 10.19 2.75 C8.54 2.75 6.89 2.75 5.19 2.75 C6.18 4.07 7.17 5.39 8.19 6.75 C5.22 5.63 2.85 4.53 0.19 2.75 C-2.38 2.68 -2.38 2.68 -4.81 3.75 C-6.42 5.91 -6.42 5.91 -7.5 8.71 C-7.95 9.74 -8.4 10.77 -8.87 11.83 C-9.32 12.92 -9.78 14.01 -10.25 15.12 C-14.21 24.32 -18.24 33.39 -23.81 41.75 C-22.49 42.41 -21.17 43.07 -19.81 43.75 C-20.14 45.07 -20.47 46.39 -20.81 47.75 C-21.47 47.75 -22.13 47.75 -22.81 47.75 C-22.81 48.41 -22.81 49.07 -22.81 49.75 C-21.49 49.75 -20.17 49.75 -18.81 49.75 C-18.81 50.41 -18.81 51.07 -18.81 51.75 C-20.13 51.75 -21.45 51.75 -22.81 51.75 C-22.9 54.95 -22.72 57.68 -21.81 60.75 C-23.46 60.75 -25.11 60.75 -26.81 60.75 C-26.48 59.43 -26.15 58.11 -25.81 56.75 C-36.33 55.81 -43.42 58.23 -52.81 62.75 C-55.08 63.7 -57.35 64.64 -59.62 65.56 C-62.97 66.76 -62.97 66.76 -65.81 68.75 C-58.88 69.08 -51.95 69.41 -44.81 69.75 C-44.81 70.08 -44.81 70.41 -44.81 70.75 C-52.73 70.75 -60.65 70.75 -68.81 70.75 C-64.83 62.78 -56.71 61.09 -48.8 58.39 C-43.95 56.69 -39.88 54.93 -35.81 51.75 C-34.86 49.63 -34.86 49.63 -34.81 47.75 C-35.47 47.75 -36.13 47.75 -36.81 47.75 C-36.81 47.09 -36.81 46.43 -36.81 45.75 C-34.83 45.75 -32.85 45.75 -30.81 45.75 C-30.81 44.1 -30.81 42.45 -30.81 40.75 C-28.83 40.75 -26.85 40.75 -24.81 40.75 C-24.43 39.74 -24.43 39.74 -24.04 38.71 C-22.58 35.19 -20.86 31.83 -19.12 28.44 C-15.88 22.06 -12.92 15.61 -10.25 8.98 C-6.32 -0.41 -6.32 -0.41 0 0 Z " fill="#363636" transform="translate(116.8125,18.25)" id="path13"><inkstitch:params>{
  "stitch_type": "fill",
  "fill_angle": 45,
  "spacing": 0.4,
  "underlay": {
    "type": "none"
  },
  "pull_compensation": 0.0
}</inkstitch:params></path>
  <path d="M0 0 C6 2 6 2 8.59 3.06 C13.09 4.3 17.24 4.22 21.88 4.12 C22.75 4.12 23.63 4.11 24.54 4.1 C26.69 4.07 28.85 4.04 31 4 C31.5 5.27 32 6.54 32.49 7.81 C32.76 8.52 33.04 9.23 33.33 9.96 C34.13 12.38 34.24 14.47 34 17 C26.34 20.83 12.25 18.15 4.44 15.87 C1.44 14.8 -1.26 13.6 -4 12 C-4 11.01 -4 10.02 -4 9 C-3.01 8.34 -2.02 7.68 -1 7 C-1.21 6.22 -1.41 5.43 -1.62 4.62 C-1.75 3.76 -1.87 2.89 -2 2 C-1.34 1.34 -0.68 0.68 0 0 Z " fill="#EEEEEE" transform="translate(96,116)" id="path14"><inkstitch:params>{
  "stitch_type": "fill",
  "fill_angle": 45,
  "spacing": 0.4,
  "underlay": {
    "type": "none"
  },
  "pull_compensation": 0.0
}</inkstitch:params></path>
  <path d="M0 0 C0.33 0 0.66 0 1 0 C1 7.92 1 15.84 1 24 C0.34 24.33 -0.32 24.66 -1 25 C1.33 28.03 2.66 29.74 6.49 30.48 C8.25 30.62 10.02 30.71 11.79 30.76 C14 31 14 31 16 33 C16.12 36.62 16.12 36.62 16 40 C11.56 42.22 5.81 41.54 1 41 C-1.93 39.64 -3.6 38.23 -6 36 C-6.33 37.65 -6.66 39.3 -7 41 C-8.98 41 -10.96 41 -13 41 C-14.14 37.58 -14.1 34.91 -14.06 31.31 C-14.05 30.13 -14.04 28.95 -14.04 27.74 C-14.02 26.83 -14.01 25.93 -14 25 C-14.99 25 -15.98 25 -17 25 C-17 19.06 -17 13.12 -17 7 C-16.67 7 -16.34 7 -16 7 C-16 12.28 -16 17.56 -16 23 C-14.68 23 -13.36 23 -12 23 C-12 22.01 -12 21.02 -12 20 C-11.34 20 -10.68 20 -10 20 C-9.67 20.66 -9.34 21.32 -9 22 C-5.04 21.5 -5.04 21.5 -1 21 C-0.67 14.07 -0.34 7.14 0 0 Z " fill="#121212" transform="translate(142,254)" id="path15"><inkstitch:params>{
  "stitch_type": "fill",
  "fill_angle": 45,
  "spacing": 0.4,
  "underlay": {
    "type": "none"
  },
  "pull_compensation": 0.0
}</inkstitch:params></path>
  <path d="M0 0 C0.66 0 1.32 0 2 0 C2 1.32 2 2.64 2 4 C3.98 3.67 5.96 3.34 8 3 C8 3.66 8 4.32 8 5 C9.32 5 10.64 5 12 5 C12 10.28 12 15.56 12 21 C10.02 21 8.04 21 6 21 C6 19.02 6 17.04 6 15 C5.34 15 4.68 15 4 15 C3.75 15.6 3.5 16.2 3.25 16.81 C1.22 20.36 -1.18 21.73 -5 23 C-6.87 23.09 -8.75 23.13 -10.62 23.12 C-11.61 23.13 -12.59 23.13 -13.6 23.13 C-16 23 -16 23 -17 22 C-17.04 19.67 -17.04 17.33 -17 15 C-16.4 14.81 -15.79 14.61 -15.17 14.41 C-14.37 14.15 -13.57 13.89 -12.75 13.62 C-11.96 13.37 -11.17 13.11 -10.36 12.85 C-5.35 11.09 -5.35 11.09 -2.25 6.88 C-1.84 5.93 -1.42 4.98 -1 4 C-2.65 4 -4.3 4 -6 4 C-5.67 3.01 -5.34 2.02 -5 1 C-5 1.66 -5 2.32 -5 3 C-3.68 3 -2.36 3 -1 3 C-0.67 2.01 -0.34 1.02 0 0 Z " fill="#0F0F0F" transform="translate(100,273)" id="path16"><inkstitch:params>{
  "stitch_type": "fill",
  "fill_angle": 45,
  "spacing": 0.4,
  "underlay": {
    "type": "none"
  },
  "pull_compensation": 0.0
}</inkstitch:params></path>
  <path d="M0 0 C1.34 4.01 -0.09 6.34 -1.62 10.06 C-4.01 16.13 -6.09 22.23 -7.88 28.5 C-8.09 29.23 -8.3 29.96 -8.53 30.71 C-9.88 35.61 -10.36 39.91 -10 45 C-9.34 45.66 -8.68 46.32 -8 47 C-8 47.33 -8 47.66 -8 48 C-7.01 47.5 -7.01 47.5 -6 47 C-6 49.31 -6 51.62 -6 54 C-5.34 51.69 -4.68 49.38 -4 47 C1.94 46.5 1.94 46.5 8 46 C8.04 44.96 8.07 43.92 8.11 42.84 C9.25 16.34 9.25 16.34 13.6 11.05 C14.06 10.71 14.52 10.36 15 10 C14.81 11.06 14.61 12.11 14.41 13.2 C12.87 21.9 11.62 30.58 10.75 39.38 C10.66 40.27 10.57 41.17 10.47 42.09 C10.39 42.94 10.31 43.78 10.23 44.65 C10.13 45.76 10.13 45.76 10.02 46.9 C10 49.11 10.37 50.89 11 53 C10.34 53 9.68 53 9 53 C8.5 50.53 8.5 50.53 8 48 C7.34 48 6.68 48 6 48 C6.33 48.99 6.66 49.98 7 51 C6.34 51 5.68 51 5 51 C5.06 52.11 5.12 53.23 5.19 54.38 C5.09 56.17 5.09 56.17 5 58 C1.77 60.16 0.69 60 -3 60 C-3.5 58.51 -3.5 58.51 -4 57 C-5.72 64.95 -6.89 72.94 -8 81 C-2.72 81 2.56 81 8 81 C8 81.33 8 81.66 8 82 C2.39 82 -3.22 82 -9 82 C-9.1 72.94 -8.76 64.03 -8 55 C-9.48 55.5 -9.48 55.5 -11 56 C-11.09 54.93 -11.09 54.93 -11.18 53.85 C-11.27 52.93 -11.35 52.01 -11.44 51.06 C-11.52 50.15 -11.6 49.23 -11.68 48.29 C-11.76 46.04 -11.76 46.04 -13 45 C-13.61 38.4 -11.72 32.65 -9.81 26.38 C-9.5 25.31 -9.18 24.25 -8.85 23.15 C-2.66 2.66 -2.66 2.66 0 0 Z " fill="#3A3A3A" transform="translate(70,157)" id="path17"><inkstitch:params>{
  "stitch_type": "fill",
  "fill_angle": 45,
  "spacing": 0.4,
  "underlay": {
    "type": "none"
  },
  "pull_compensation": 0.0
}</inkstitch:params></path>
  <path d="M0 0 C3.37 0.6 5.6 1.52 8 4 C8.04 5.09 8.08 6.19 8.12 7.31 C9.12 11.51 9.53 11.84 13 14.06 C19.14 17.39 25.73 19.52 32.34 21.7 C36 23 36 23 39 25 C39 25.66 39 26.32 39 27 C35.56 28.01 32.26 28.23 28.69 28.44 C23.78 28.78 19.66 29.51 15 31 C12.67 31.37 10.34 31.71 8 32 C8.33 33.32 8.66 34.64 9 36 C7.51 36.5 7.51 36.5 6 37 C6.33 37.66 6.66 38.32 7 39 C5.51 39.5 5.51 39.5 4 40 C4 40.66 4 41.32 4 42 C1.53 42.5 1.53 42.5 -1 43 C-2.26 39.23 -1.37 37.63 0 34 C-0.67 34.17 -1.35 34.35 -2.04 34.53 C-5.58 35.09 -8.74 34.86 -12.31 34.56 C-13.57 34.46 -14.82 34.36 -16.11 34.25 C-17.07 34.17 -18.02 34.09 -19 34 C-18.01 35.32 -17.02 36.64 -16 38 C-12.66 37.44 -9.97 36.65 -7 35 C-8.75 39.88 -8.75 39.88 -11 41 C-13.81 41.38 -13.81 41.38 -17 41 C-19.88 38.62 -19.88 38.62 -22 36 C-22 35.34 -22 34.68 -22 34 C-18.72 32.36 -15.05 32.75 -11.44 32.62 C-5.61 32.37 -0.61 31.93 4.83 29.7 C9.37 28.23 14.26 28.23 19 28 C19 27.34 19 26.68 19 26 C20.12 26.02 20.12 26.02 21.27 26.04 C22.25 26.04 23.24 26.05 24.25 26.06 C25.22 26.07 26.2 26.09 27.2 26.1 C29.67 26.01 31.63 25.64 34 25 C32.78 24.54 31.56 24.08 30.31 23.61 C28.68 22.99 27.06 22.37 25.44 21.75 C24.64 21.45 23.84 21.15 23.01 20.84 C19.22 19.38 15.67 17.89 12.19 15.78 C9.2 14.11 7.88 13.52 4.56 13.75 C3.39 13.83 2.21 13.91 1 14 C1 12.35 1 10.7 1 9 C0.34 9 -0.32 9 -1 9 C-1.33 7.68 -1.66 6.36 -2 5 C-1.34 5 -0.68 5 0 5 C0 3.35 0 1.7 0 0 Z " fill="#272727" transform="translate(148,60)" id="path18"><inkstitch:params>{
  "stitch_type": "fill",
  "fill_angle": 45,
  "spacing": 0.4,
  "underlay": {
    "type": "none"
  },
  "pull_compensation": 0.0
}</inkstitch:params></path>
  <path d="M0 0 C2.97 0.49 2.97 0.49 6 1 C6 2.32 6 3.64 6 5 C6.99 5 7.98 5 9 5 C9 5.66 9 6.32 9 7 C8.34 7 7.68 7 7 7 C7 7.66 7 8.32 7 9 C7.66 9 8.32 9 9 9 C9 9.99 9 10.98 9 12 C8.34 12 7.68 12 7 12 C7.27 13.98 7.27 13.98 8 16 C8.99 16.33 9.98 16.66 11 17 C8.62 18.06 8.62 18.06 6 19 C5.34 18.67 4.68 18.34 4 18 C4 18.99 4 19.98 4 21 C2.68 20.34 1.36 19.68 0 19 C0 18.34 0 17.68 0 17 C-0.66 16.67 -1.32 16.34 -2 16 C-2.66 17.32 -3.32 18.64 -4 20 C-4.99 19.34 -5.98 18.68 -7 18 C-7.99 18.33 -8.98 18.66 -10 19 C-9.67 18.01 -9.34 17.02 -9 16 C-9.66 15.67 -10.32 15.34 -11 15 C-10.67 13.68 -10.34 12.36 -10 11 C-9.01 11 -8.02 11 -7 11 C-7.35 9.02 -7.35 9.02 -8 7 C-8.66 6.67 -9.32 6.34 -10 6 C-9.01 5.34 -8.02 4.68 -7 4 C-6.67 3.01 -6.34 2.02 -6 1 C-5.34 1 -4.68 1 -4 1 C-3.67 2.32 -3.34 3.64 -3 5 C-2.34 5 -1.68 5 -1 5 C-0.67 3.35 -0.34 1.7 0 0 Z " fill="#2F2F2F" transform="translate(136,58)" id="path19"><inkstitch:params>{
  "stitch_type": "fill",
  "fill_angle": 45,
  "spacing": 0.4,
  "underlay": {
    "type": "none"
  },
  "pull_compensation": 0.0
}</inkstitch:params></path>
  <path d="M0 0 C1.94 -0.08 3.87 -0.14 5.81 -0.19 C6.89 -0.22 7.97 -0.26 9.08 -0.29 C12.45 0.05 12.78 0.68 15 3 C17.3 3.15 17.3 3.15 19.69 2.69 C20.9 2.51 20.9 2.51 22.14 2.32 C22.75 2.22 23.37 2.11 24 2 C25.12 5.75 25.12 5.75 24 8 C25.32 8.33 26.64 8.66 28 9 C27.67 10.65 27.34 12.3 27 14 C28.32 14.33 29.64 14.66 31 15 C31.36 21.38 31.36 21.38 29.88 23.94 C27.11 25.5 25.12 25.39 22 25 C20.12 23.62 20.12 23.62 19 22 C19 21.34 19 20.68 19 20 C18.34 19.67 17.68 19.34 17 19 C16.61 16.33 16.27 13.69 16 11 C15.8 8.7 15.8 8.7 15 7 C13.02 5.72 13.02 5.72 11 5 C11 4.34 11 3.68 11 3 C7.37 2.34 3.74 1.68 0 1 C0 0.67 0 0.34 0 0 Z " fill="#202020" transform="translate(112,114)" id="path20"><inkstitch:params>{
  "stitch_type": "fill",
  "fill_angle": 45,
  "spacing": 0.4,
  "underlay": {
    "type": "none"
  },
  "pull_compensation": 0.0
}</inkstitch:params></path>
  <path d="M0 0 C2.74 1.69 3.25 3.27 4.12 6.31 C3.14 6.64 2.14 6.97 1.12 7.31 C1.78 9.29 2.44 11.27 3.12 13.31 C2.12 14.31 2.12 14.31 -1.69 14.41 C-3.27 14.4 -4.86 14.39 -6.44 14.38 C-7.24 14.37 -8.05 14.37 -8.88 14.36 C-10.88 14.35 -12.88 14.33 -14.88 14.31 C-15.94 10.7 -15.63 9.63 -13.88 6.31 C-13.71 5.26 -13.55 4.21 -13.38 3.12 C-13.21 2.2 -13.05 1.27 -12.88 0.31 C-8.92 -1.67 -4.19 -1 0 0 Z " fill="#F2F2F2" transform="translate(122.875,93.6875)" id="path21"><inkstitch:params>{
  "stitch_type": "fill",
  "fill_angle": 45,
  "spacing": 0.4,
  "underlay": {
    "type": "none"
  },
  "pull_compensation": 0.0
}</inkstitch:params></path>
  <path d="M0 0 C1.65 0 3.3 0 5 0 C5.33 0.99 5.66 1.98 6 3 C5.01 3 4.02 3 3 3 C3.33 4.32 3.66 5.64 4 7 C3.01 6.67 2.02 6.34 1 6 C1 6.99 1 7.98 1 9 C0.42 9.14 -0.16 9.27 -0.76 9.41 C-6.09 10.88 -9.65 12.63 -13.02 17.11 C-14.24 19.17 -14.24 19.17 -14.25 22.5 C-12.91 26.25 -11.45 28.03 -8.8 30.89 C4.44 46.38 14.35 70.66 14 91 C13.67 91 13.34 91 13 91 C12.88 90.41 12.76 89.82 12.64 89.22 C10.09 76.94 7.28 65.42 2 54 C1.72 53.39 1.44 52.77 1.15 52.14 C-3.68 41.24 -3.68 41.24 -11 32 C-11.99 32 -12.98 32 -14 32 C-14 30.68 -14 29.36 -14 28 C-15.65 28 -17.3 28 -19 28 C-18.34 27.01 -17.68 26.02 -17 25 C-17 24.01 -17 23.02 -17 22 C-19.97 22.33 -22.94 22.66 -26 23 C-24.68 22.34 -23.36 21.68 -22 21 C-15.38 17.02 -10.22 13.25 -7 6 C-6.67 6.66 -6.34 7.32 -6 8 C-4.35 7.67 -2.7 7.34 -1 7 C-1.33 6.01 -1.66 5.02 -2 4 C-1.01 3.67 -0.02 3.34 1 3 C0.67 2.01 0.34 1.02 0 0 Z " fill="#3B3B3B" transform="translate(153,95)" id="path22"><inkstitch:params>{
  "stitch_type": "fill",
  "fill_angle": 45,
  "spacing": 0.4,
  "underlay": {
    "type": "none"
  },
  "pull_compensation": 0.0
}</inkstitch:params></path>
  <path d="M0 0 C0.5 1.48 0.5 1.48 1 3 C-2.96 3.66 -6.92 4.32 -11 5 C-10.67 6.32 -10.34 7.64 -10 9 C-10.99 9.33 -11.98 9.66 -13 10 C-12.67 10.66 -12.34 11.32 -12 12 C-12.99 12.33 -13.98 12.66 -15 13 C-15 13.66 -15 14.32 -15 15 C-16.65 15.33 -18.3 15.66 -20 16 C-21.26 12.23 -20.37 10.63 -19 7 C-20.01 7.26 -20.01 7.26 -21.04 7.53 C-24.58 8.09 -27.74 7.86 -31.31 7.56 C-32.57 7.46 -33.82 7.36 -35.11 7.25 C-36.07 7.17 -37.02 7.09 -38 7 C-37.01 8.32 -36.02 9.64 -35 11 C-31.66 10.44 -28.97 9.65 -26 8 C-27.75 12.88 -27.75 12.88 -30 14 C-32.81 14.38 -32.81 14.38 -36 14 C-38.88 11.62 -38.88 11.62 -41 9 C-41 8.34 -41 7.68 -41 7 C-37.72 5.36 -34.05 5.75 -30.44 5.62 C-24.58 5.37 -19.51 4.93 -14.03 2.7 C-10.78 1.58 -7.48 1.44 -4.07 1.21 C-1.94 1.12 -1.94 1.12 0 0 Z " fill="#525252" transform="translate(167,87)" id="path23"><inkstitch:params>{
  "stitch_type": "fill",
  "fill_angle": 45,
  "spacing": 0.4,
  "underlay": {
    "type": "none"
  },
  "pull_compensation": 0.0
}</inkstitch:params></path>
  <path d="M0 0 C0 0.66 0 1.32 0 2 C-0.64 2.12 -1.28 2.25 -1.94 2.38 C-2.62 2.58 -3.3 2.79 -4 3 C-4.33 3.66 -4.66 4.32 -5 5 C-3.68 5.66 -2.36 6.32 -1 7 C-1.99 7.99 -2.98 8.98 -4 10 C-2.02 9.34 -0.04 8.68 2 8 C4 9.81 4 9.81 6 12 C6 12.99 6 13.98 6 15 C4.35 15 2.7 15 1 15 C1.33 13.68 1.66 12.36 2 11 C-8.52 10.06 -15.61 12.48 -25 17 C-27.27 17.95 -29.54 18.89 -31.81 19.81 C-35.16 21.01 -35.16 21.01 -38 23 C-31.07 23.33 -24.14 23.66 -17 24 C-17 24.33 -17 24.66 -17 25 C-24.92 25 -32.84 25 -41 25 C-37.02 17.03 -28.9 15.34 -20.99 12.64 C-16.13 10.94 -12.07 9.18 -8 6 C-7.05 3.88 -7.05 3.88 -7 2 C-7.66 2 -8.32 2 -9 2 C-9 1.34 -9 0.68 -9 0 C-3.38 -1.12 -3.38 -1.12 0 0 Z " fill="#292929" transform="translate(89,64)" id="path24"><inkstitch:params>{
  "stitch_type": "fill",
  "fill_angle": 45,
  "spacing": 0.4,
  "underlay": {
    "type": "none"
  },
  "pull_compensation": 0.0
}</inkstitch:params></path>
  <path d="M0 0 C0 0.99 0 1.98 0 3 C0.66 3 1.32 3 2 3 C2.33 4.32 2.66 5.64 3 7 C2.01 7 1.02 7 0 7 C-0.33 8.32 -0.66 9.64 -1 11 C-0.01 11.33 0.98 11.66 2 12 C1.01 13.48 1.01 13.48 0 15 C1.32 14.34 2.64 13.68 4 13 C4.66 13.66 5.32 14.32 6 15 C6.66 13.68 7.32 12.36 8 11 C9.32 11.66 10.64 12.32 12 13 C10.31 15 10.31 15 8 17 C5.5 17.12 5.5 17.12 3 17 C0.75 17.92 0.75 17.92 -1 19 C-1.33 18.01 -1.66 17.02 -2 16 C-2.33 16.99 -2.66 17.98 -3 19 C-6.38 19.12 -6.38 19.12 -10 19 C-10.66 18.34 -11.32 17.68 -12 17 C-12 15.68 -12 14.36 -12 13 C-11.34 13 -10.68 13 -10 13 C-10 14.32 -10 15.64 -10 17 C-9.01 17 -8.02 17 -7 17 C-7.33 15.68 -7.66 14.36 -8 13 C-5.53 13.99 -5.53 13.99 -3 15 C-3 13.68 -3 12.36 -3 11 C-3.66 11 -4.32 11 -5 11 C-5 10.34 -5 9.68 -5 9 C-4.01 8.67 -3.02 8.34 -2 8 C-2 7.34 -2 6.68 -2 6 C-2.99 5.34 -3.98 4.68 -5 4 C-4.34 3.01 -3.68 2.02 -3 1 C-4.32 1 -5.64 1 -7 1 C-7 1.99 -7 2.98 -7 4 C-9.47 3.01 -9.47 3.01 -12 2 C-12.33 2.66 -12.66 3.32 -13 4 C-13 3.34 -13 2.68 -13 2 C-13.66 1.67 -14.32 1.34 -15 1 C-9.11 -2.19 -6.35 -2.12 0 0 Z " fill="#323232" transform="translate(126,62)" id="path25"><inkstitch:params>{
  "stitch_type": "fill",
  "fill_angle": 45,
  "spacing": 0.4,
  "underlay": {
    "type": "none"
  },
  "pull_compensation": 0.0
}</inkstitch:params></path>
  <path d="M0 0 C1.32 0 2.64 0 4 0 C3.67 0.99 3.34 1.98 3 3 C3.99 3.66 4.98 4.32 6 5 C5.67 5.99 5.34 6.98 5 8 C4.01 8 3.02 8 2 8 C2 8.66 2 9.32 2 10 C2.66 10 3.32 10 4 10 C4 11.32 4 12.64 4 14 C2.68 13.67 1.36 13.34 0 13 C0 13.99 0 14.98 0 16 C-0.99 16 -1.98 16 -3 16 C-3 14.68 -3 13.36 -3 12 C-3.66 12 -4.32 12 -5 12 C-5 12.66 -5 13.32 -5 14 C-5.99 14 -6.98 14 -8 14 C-7.79 13.26 -7.59 12.52 -7.38 11.75 C-6.96 8.68 -7.38 7.57 -9 5 C-7.68 4.67 -6.36 4.34 -5 4 C-5 3.01 -5 2.02 -5 1 C-2.53 1.99 -2.53 1.99 0 3 C0 2.01 0 1.02 0 0 Z " fill="#E8E8E8" transform="translate(119,63)" id="path26"><inkstitch:params>{
  "stitch_type": "fill",
  "fill_angle": 45,
  "spacing": 0.4,
  "underlay": {
    "type": "none"
  },
  "pull_compensation": 0.0
}</inkstitch:params></path>
  <path d="M0 0 C3 1 3 1 4 3 C4.99 3 5.98 3 7 3 C7 4.32 7 5.64 7 7 C7.66 7 8.32 7 9 7 C8.67 8.98 8.34 10.96 8 13 C5.53 12.01 5.53 12.01 3 11 C2.67 12.32 2.34 13.64 2 15 C1.34 15 0.68 15 0 15 C-0.66 14.34 -1.32 13.68 -2 13 C-4.11 13.32 -4.11 13.32 -6 14 C-5.67 11.69 -5.34 9.38 -5 7 C-4.01 6.67 -3.02 6.34 -2 6 C-0.77 2.99 -0.77 2.99 0 0 Z " fill="#CACACA" transform="translate(101,64)" id="path27"><inkstitch:params>{
  "stitch_type": "fill",
  "fill_angle": 45,
  "spacing": 0.4,
  "underlay": {
    "type": "none"
  },
  "pull_compensation": 0.0
}</inkstitch:params></path>
  <path d="M0 0 C0.33 0.33 0.66 0.66 1 1 C3.33 1.37 5.66 1.7 8 2 C7.01 2.5 7.01 2.5 6 3 C7.87 6.63 7.87 6.63 11 9 C15.2 9.44 15.2 9.44 18.81 7.62 C20.07 6 20.07 6 21 4 C20.28 4.68 19.56 5.36 18.81 6.06 C16 8 16 8 13.31 8 C11 7 11 7 9 3 C13.62 3 18.24 3 23 3 C21 9 21 9 18 11 C14.94 11.54 12.06 11.56 9 11 C6.63 8.75 5.44 6.88 4 4 C1.18 3.02 -1.35 2.92 -4.31 3 C-8.33 3.05 -12.04 2.67 -16 2 C-16 1.67 -16 1.34 -16 1 C-10.64 0.32 -5.41 -0.23 0 0 Z " fill="#434343" transform="translate(120,91)" id="path28"><inkstitch:params>{
  "stitch_type": "fill",
  "fill_angle": 45,
  "spacing": 0.4,
  "underlay": {
    "type": "none"
  },
  "pull_compensation": 0.0
}</inkstitch:params></path>
  <path d="M0 0 C0.99 0.33 1.98 0.66 3 1 C3 2.32 3 3.64 3 5 C3.66 5 4.32 5 5 5 C5 4.01 5 3.02 5 2 C6.32 2 7.64 2 9 2 C8.67 2.99 8.34 3.98 8 5 C7.34 5 6.68 5 6 5 C6 5.66 6 6.32 6 7 C7.32 7 8.64 7 10 7 C10 7.66 10 8.32 10 9 C8.68 9 7.36 9 6 9 C6 10.65 6 12.3 6 14 C5.34 14 4.68 14 4 14 C3.34 13.34 2.68 12.68 2 12 C-0.6 12.32 -0.6 12.32 -3 13 C-2.67 11.68 -2.34 10.36 -2 9 C-2.66 8.67 -3.32 8.34 -4 8 C-3.67 7.01 -3.34 6.02 -3 5 C-1.68 5 -0.36 5 1 5 C0.67 3.35 0.34 1.7 0 0 Z " fill="#D4D4D4" transform="translate(88,61)" id="path29"><inkstitch:params>{
  "stitch_type": "fill",
  "fill_angle": 45,
  "spacing": 0.4,
  "underlay": {
    "type": "none"
  },
  "pull_compensation": 0.0
}</inkstitch:params></path>
  <path d="M0 0 C0.66 0.66 1.32 1.32 2 2 C-9.55 28.33 -9.55 28.33 -16 38 C-14.68 38.99 -13.36 39.98 -12 41 C-13.32 41 -14.64 41 -16 41 C-16 41.99 -16 42.98 -16 44 C-16.66 44 -17.32 44 -18 44 C-18.12 43.36 -18.25 42.72 -18.38 42.06 C-18.58 41.38 -18.79 40.7 -19 40 C-19.66 39.67 -20.32 39.34 -21 39 C-21 39.66 -21 40.32 -21 41 C-21.66 41 -22.32 41 -23 41 C-23 39.68 -23 38.36 -23 37 C-21.02 37 -19.04 37 -17 37 C-16.75 36.33 -16.49 35.65 -16.23 34.96 C-14.77 31.44 -13.05 28.08 -11.31 24.69 C-7.21 16.6 -3.55 8.35 0 0 Z " fill="#3E3E3E" transform="translate(109,22)" id="path30"><inkstitch:params>{
  "stitch_type": "fill",
  "fill_angle": 45,
  "spacing": 0.4,
  "underlay": {
    "type": "none"
  },
  "pull_compensation": 0.0
}</inkstitch:params></path>
  <path d="M0 0 C0.66 0 1.32 0 2 0 C2 0.99 2 1.98 2 3 C3.65 2.67 5.3 2.34 7 2 C7.14 2.76 7.29 3.53 7.44 4.31 C7.96 7.08 7.96 7.08 9 10 C7.68 10 6.36 10 5 10 C4.34 11.32 3.68 12.64 3 14 C2.01 13.34 1.02 12.68 0 12 C-0.99 12.33 -1.98 12.66 -3 13 C-2.67 12.01 -2.34 11.02 -2 10 C-2.66 9.67 -3.32 9.34 -4 9 C-3.67 7.68 -3.34 6.36 -3 5 C-2.01 5 -1.02 5 0 5 C-0.28 4.04 -0.28 4.04 -0.56 3.06 C-0.71 2.38 -0.85 1.7 -1 1 C-0.67 0.67 -0.34 0.34 0 0 Z " fill="#D8D8D8" transform="translate(129,64)" id="path31"><inkstitch:params>{
  "stitch_type": "fill",
  "fill_angle": 45,
  "spacing": 0.4,
  "underlay": {
    "type": "none"
  },
  "pull_compensation": 0.0
}</inkstitch:params></path>
  <path d="M0 0 C1.65 0 3.3 0 5 0 C5.33 0.99 5.66 1.98 6 3 C5.01 3 4.02 3 3 3 C3.33 4.32 3.66 5.64 4 7 C3.01 6.67 2.02 6.34 1 6 C1 6.99 1 7.98 1 9 C0.42 9.14 -0.16 9.27 -0.76 9.41 C-6.16 10.9 -9.53 12.68 -12.98 17.15 C-14.46 19.83 -14.44 22.02 -14 25 C-14.66 25 -15.32 25 -16 25 C-16.33 24.01 -16.66 23.02 -17 22 C-19.97 22.33 -22.94 22.66 -26 23 C-24.68 22.34 -23.36 21.68 -22 21 C-15.38 17.02 -10.22 13.25 -7 6 C-6.67 6.66 -6.34 7.32 -6 8 C-4.35 7.67 -2.7 7.34 -1 7 C-1.33 6.01 -1.66 5.02 -2 4 C-1.01 3.67 -0.02 3.34 1 3 C0.67 2.01 0.34 1.02 0 0 Z " fill="#393939" transform="translate(153,95)" id="path32"><inkstitch:params>{
  "stitch_type": "fill",
  "fill_angle": 45,
  "spacing": 0.4,
  "underlay": {
    "type": "none"
  },
  "pull_compensation": 0.0
}</inkstitch:params></path>
  <path d="M0 0 C0.33 0.66 0.66 1.32 1 2 C2.2 1.9 3.41 1.81 4.65 1.71 C6.22 1.6 7.8 1.49 9.38 1.38 C10.57 1.28 10.57 1.28 11.78 1.18 C13.85 1.04 15.93 1.01 18 1 C18.66 1.66 19.32 2.32 20 3 C12.08 3.5 12.08 3.5 4 4 C2.98 11.85 2.68 19.66 2.44 27.56 C2.39 28.86 2.35 30.15 2.31 31.49 C2.2 34.66 2.1 37.83 2 41 C1.34 40.67 0.68 40.34 0 40 C-0.06 35.5 -0.09 31 -0.12 26.5 C-0.15 24.6 -0.15 24.6 -0.18 22.66 C-0.21 16.07 -0.02 10.29 2 4 C1.01 3.67 0.02 3.34 -1 3 C-0.67 2.01 -0.34 1.02 0 0 Z " fill="#5B5B5B" transform="translate(142,238)" id="path33"><inkstitch:params>{
  "stitch_type": "fill",
  "fill_angle": 45,
  "spacing": 0.4,
  "underlay": {
    "type": "none"
  },
  "pull_compensation": 0.0
}</inkstitch:params></path>
  <path d="M0 0 C1.32 0 2.64 0 4 0 C4 0.99 4 1.98 4 3 C4.96 3.15 4.96 3.15 5.94 3.31 C6.62 3.54 7.3 3.77 8 4 C8.33 4.99 8.66 5.98 9 7 C9.66 6.34 10.32 5.68 11 5 C11.73 8.46 12 11.46 12 15 C9.03 14.5 9.03 14.5 6 14 C6 13.01 6 12.02 6 11 C5.01 11.33 4.02 11.66 3 12 C3 11.34 3 10.68 3 10 C2.34 10 1.68 10 1 10 C1.66 7.03 2.32 4.06 3 1 C2.01 0.67 1.02 0.34 0 0 Z " fill="#303030" transform="translate(73,89)" id="path34"><inkstitch:params>{
  "stitch_type": "fill",
  "fill_angle": 45,
  "spacing": 0.4,
  "underlay": {
    "type": "none"
  },
  "pull_compensation": 0.0
}</inkstitch:params></path>
  <path d="M0 0 C0.99 0.5 0.99 0.5 2 1 C2.01 1.82 2.03 2.63 2.04 3.47 C2.11 6.56 2.18 9.64 2.26 12.73 C2.31 14.7 2.35 16.67 2.38 18.64 C2.61 26.8 3.63 34.17 6 42 C6.66 42 7.32 42 8 42 C8 42.99 8 43.98 8 45 C5 44 5 44 3.87 42 C3.54 41.15 3.21 40.31 2.88 39.44 C2.54 38.61 2.21 37.78 1.87 36.93 C-0.5 28.94 -0.12 20.76 -0.06 12.5 C-0.06 11.3 -0.05 10.09 -0.05 8.85 C-0.04 5.9 -0.02 2.95 0 0 Z " fill="#555555" transform="translate(92,130)" id="path35"><inkstitch:params>{
  "stitch_type": "fill",
  "fill_angle": 45,
  "spacing": 0.4,
  "underlay": {
    "type": "none"
  },
  "pull_compensation": 0.0
}</inkstitch:params></path>
  <path d="M0 0 C1.98 0 3.96 0 6 0 C6.33 3.3 6.66 6.6 7 10 C3.77 12.16 2.69 12 -1 12 C-2.37 7.48 -1.47 4.41 0 0 Z " fill="#3A3A3A" transform="translate(68,205)" id="path36"><inkstitch:params>{
  "stitch_type": "fill",
  "fill_angle": 45,
  "spacing": 0.4,
  "underlay": {
    "type": "none"
  },
  "pull_compensation": 0.0
}</inkstitch:params></path>
  <path d="M0 0 C2 4.01 2.25 5.53 2.23 9.84 C2.23 10.99 2.23 12.13 2.22 13.31 C2.21 14.51 2.2 15.71 2.19 16.94 C2.19 18.1 2.19 19.26 2.19 20.46 C2.15 28.34 1.71 36.15 1 44 C0.67 44 0.34 44 0 44 C0 39.38 0 34.76 0 30 C-1.32 30 -2.64 30 -4 30 C-4.33 29.01 -4.66 28.02 -5 27 C-4.34 27 -3.68 27 -3 27 C-3 27.66 -3 28.32 -3 29 C-2.01 29 -1.02 29 0 29 C0 19.43 0 9.86 0 0 Z " fill="#5A5A5A" transform="translate(112,248)" id="path37"><inkstitch:params>{
  "stitch_type": "fill",
  "fill_angle": 45,
  "spacing": 0.4,
  "underlay": {
    "type": "none"
  },
  "pull_compensation": 0.0
}</inkstitch:params></path>
  <path d="M0 0 C0.66 0 1.32 0 2 0 C2 1.32 2 2.64 2 4 C2.66 4.33 3.32 4.66 4 5 C3.34 5 2.68 5 2 5 C2 6.65 2 8.3 2 10 C1.34 10 0.68 10 0 10 C0.33 11.32 0.66 12.64 1 14 C1.66 14 2.32 14 3 14 C4.12 17.75 4.12 17.75 3 20 C1.35 19.67 -0.3 19.34 -2 19 C-2.33 17.68 -2.66 16.36 -3 15 C-2.34 15 -1.68 15 -1 15 C-1 14.01 -1 13.02 -1 12 C-1.66 12 -2.32 12 -3 12 C-3 11.34 -3 10.68 -3 10 C-2.34 10 -1.68 10 -1 10 C-1 9.34 -1 8.68 -1 8 C-1.99 8 -2.98 8 -4 8 C-4.33 7.01 -4.66 6.02 -5 5 C-3.68 5.33 -2.36 5.66 -1 6 C-0.67 4.02 -0.34 2.04 0 0 Z " fill="#252525" transform="translate(146,55)" id="path38"><inkstitch:params>{
  "stitch_type": "fill",
  "fill_angle": 45,
  "spacing": 0.4,
  "underlay": {
    "type": "none"
  },
  "pull_compensation": 0.0
}</inkstitch:params></path>
  <path d="M0 0 C3.96 0.33 7.92 0.66 12 1 C12.33 2.32 12.66 3.64 13 5 C12.01 5 11.02 5 10 5 C9.67 5.66 9.34 6.32 9 7 C8.67 6.01 8.34 5.02 8 4 C7.34 4 6.68 4 6 4 C5.34 5.98 4.68 7.96 4 10 C3.01 10 2.02 10 1 10 C1 11.98 1 13.96 1 16 C0.01 15.34 -0.98 14.68 -2 14 C-1.67 12.35 -1.34 10.7 -1 9 C0.32 9 1.64 9 3 9 C3 8.34 3 7.68 3 7 C1.68 7 0.36 7 -1 7 C-1 6.34 -1 5.68 -1 5 C-0.34 4.67 0.32 4.34 1 4 C1.33 3.01 1.66 2.02 2 1 C1.34 0.67 0.68 0.34 0 0 Z " fill="#2E2E2E" transform="translate(95,61)" id="path39"><inkstitch:params>{
  "stitch_type": "fill",
  "fill_angle": 45,
  "spacing": 0.4,
  "underlay": {
    "type": "none"
  },
  "pull_compensation": 0.0
}</inkstitch:params></path>
  <path d="M0 0 C1.32 0 2.64 0 4 0 C4 0.66 4 1.32 4 2 C4.99 2 5.98 2 7 2 C7 2.66 7 3.32 7 4 C6.34 4 5.68 4 5 4 C5 4.66 5 5.32 5 6 C5.66 6 6.32 6 7 6 C7 6.99 7 7.98 7 9 C6.34 9 5.68 9 5 9 C5 10.65 5 12.3 5 14 C2 13 2 13 0 10 C-1.24 3.71 -1.24 3.71 0 0 Z " fill="#E3E3E3" transform="translate(138,61)" id="path40"><inkstitch:params>{
  "stitch_type": "fill",
  "fill_angle": 45,
  "spacing": 0.4,
  "underlay": {
    "type": "none"
  },
  "pull_compensation": 0.0
}</inkstitch:params></path>
  <path d="M0 0 C3.49 3.49 4.7 8.31 6 13 C5.94 16.52 5.68 18.07 3.62 20.88 C2 22 2 22 -1 22 C-1.33 21.34 -1.66 20.68 -2 20 C-2.66 20.99 -3.32 21.98 -4 23 C-6.62 23.19 -6.62 23.19 -9 23 C-8.38 22.61 -7.76 22.22 -7.12 21.81 C-4.68 19.72 -3.98 18.03 -3 15 C-2.34 15.33 -1.68 15.66 -1 16 C-0.67 16.99 -0.34 17.98 0 19 C0.66 19.33 1.32 19.66 2 20 C3.27 14.58 2.74 11.28 0.69 6.11 C0 4 0 4 0 0 Z " fill="#454545" transform="translate(169,217)" id="path41"><inkstitch:params>{
  "stitch_type": "fill",
  "fill_angle": 45,
  "spacing": 0.4,
  "underlay": {
    "type": "none"
  },
  "pull_compensation": 0.0
}</inkstitch:params></path>
  <path d="M0 0 C-0.16 0.64 -0.33 1.28 -0.5 1.94 C-1.04 3.81 -1.04 3.81 -1 5 C0.32 5.33 1.64 5.66 3 6 C2.25 7.94 2.25 7.94 1 10 C-1.12 10.75 -1.12 10.75 -3 11 C-7 4.38 -7 4.38 -7 1 C-3.38 -1.12 -3.38 -1.12 0 0 Z " fill="#E3E3E3" transform="translate(137,117)" id="path42"><inkstitch:params>{
  "stitch_type": "fill",
  "fill_angle": 45,
  "spacing": 0.4,
  "underlay": {
    "type": "none"
  },
  "pull_compensation": 0.0
}</inkstitch:params></path>
  <path d="M0 0 C2.94 0.81 2.94 0.81 6 2 C7 5 7 5 6.06 7.19 C5.54 8.08 5.54 8.08 5 9 C5.99 9.66 6.98 10.32 8 11 C1.59 10.52 1.59 10.52 -1 8.25 C-2.27 5.4 -1.95 3.93 -1 1 C-0.67 0.67 -0.34 0.34 0 0 Z " fill="#D2D2D2" transform="translate(96,116)" id="path43"><inkstitch:params>{
  "stitch_type": "fill",
  "fill_angle": 45,
  "spacing": 0.4,
  "underlay": {
    "type": "none"
  },
  "pull_compensation": 0.0
}</inkstitch:params></path>
  <path d="M0 0 C2.06 0.6 4.13 1.2 6.19 1.81 C7.91 2.32 7.91 2.32 9.67 2.83 C12.79 3.93 15.32 5.07 18 7 C18 7.66 18 8.32 18 9 C14.15 10.18 10.24 10.33 6.25 10.56 C5.55 10.61 4.86 10.65 4.14 10.69 C2.42 10.8 0.71 10.9 -1 11 C-1.33 10.01 -1.66 9.02 -2 8 C-0.88 8.02 -0.88 8.02 0.27 8.04 C1.25 8.04 2.24 8.05 3.25 8.06 C4.22 8.07 5.2 8.09 6.2 8.1 C9.23 8.09 9.23 8.09 13 7 C8.38 5.35 3.76 3.7 -1 2 C-0.67 1.34 -0.34 0.68 0 0 Z " fill="#343434" transform="translate(169,78)" id="path44"><inkstitch:params>{
  "stitch_type": "fill",
  "fill_angle": 45,
  "spacing": 0.4,
  "underlay": {
    "type": "none"
  },
  "pull_compensation": 0.0
}</inkstitch:params></path>
  <path d="M0 0 C3.56 4.41 6 8.25 6 14 C0.25 14.12 0.25 14.12 -2 13 C-2 14.65 -2 16.3 -2 18 C-7.03 17.54 -10.15 15.01 -14 12 C-13.01 11.67 -12.02 11.34 -11 11 C-9.18 12 -9.18 12 -7.31 13.44 C-6.69 13.91 -6.07 14.38 -5.43 14.87 C-4.96 15.24 -4.48 15.62 -4 16 C-4 14.35 -4 12.7 -4 11 C0.45 11.99 0.45 11.99 5 13 C4.64 12.31 4.28 11.63 3.91 10.92 C3.44 10.02 2.98 9.12 2.5 8.19 C2.04 7.29 1.57 6.4 1.09 5.48 C0 3 0 3 0 0 Z " fill="#3D3D3D" transform="translate(114,160)" id="path45"><inkstitch:params>{
  "stitch_type": "fill",
  "fill_angle": 45,
  "spacing": 0.4,
  "underlay": {
    "type": "none"
  },
  "pull_compensation": 0.0
}</inkstitch:params></path>
  <path d="M0 0 C0.66 1.32 1.32 2.64 2 4 C2.66 3.67 3.32 3.34 4 3 C4 3.99 4 4.98 4 6 C6.31 6 8.62 6 11 6 C10.43 8.87 10.14 9.86 8 12 C4.98 11.84 3.45 11.41 1.19 9.38 C-0.42 6.17 -0.2 3.53 0 0 Z " fill="#D5D5D5" transform="translate(131,126)" id="path46"><inkstitch:params>{
  "stitch_type": "fill",
  "fill_angle": 45,
  "spacing": 0.4,
  "underlay": {
    "type": "none"
  },
  "pull_compensation": 0.0
}</inkstitch:params></path>
  <path d="M0 0 C0.66 0 1.32 0 2 0 C2 1.32 2 2.64 2 4 C3.32 4 4.64 4 6 4 C6.33 6.31 6.66 8.62 7 11 C5.35 11.33 3.7 11.66 2 12 C1.67 11.01 1.34 10.02 1 9 C0.34 9 -0.32 9 -1 9 C-1.33 7.68 -1.66 6.36 -2 5 C-1.34 5 -0.68 5 0 5 C0 3.35 0 1.7 0 0 Z " fill="#E1E1E1" transform="translate(148,60)" id="path47"><inkstitch:params>{
  "stitch_type": "fill",
  "fill_angle": 45,
  "spacing": 0.4,
  "underlay": {
    "type": "none"
  },
  "pull_compensation": 0.0
}</inkstitch:params></path>
  <path d="M0 0 C2.47 0.99 2.47 0.99 5 2 C4.67 2.99 4.34 3.98 4 5 C3.01 5 2.02 5 1 5 C1 5.66 1 6.32 1 7 C1.66 7 2.32 7 3 7 C3 8.32 3 9.64 3 11 C0.53 10.01 0.53 10.01 -2 9 C-2 8.34 -2 7.68 -2 7 C-2.99 6.67 -3.98 6.34 -5 6 C-4.67 5.01 -4.34 4.02 -4 3 C-3.01 2.67 -2.02 2.34 -1 2 C-0.67 1.34 -0.34 0.68 0 0 Z " fill="#B7B7B7" transform="translate(120,66)" id="path48"><inkstitch:params>{
  "stitch_type": "fill",
  "fill_angle": 45,
  "spacing": 0.4,
  "underlay": {
    "type": "none"
  },
  "pull_compensation": 0.0
}</inkstitch:params></path>
  <path d="M0 0 C0 3 0 3 -2.5 5.69 C-3.33 6.45 -4.15 7.21 -5 8 C-3.04 8.03 -1.08 8.05 0.88 8.06 C1.97 8.07 3.06 8.09 4.18 8.1 C6.95 8.2 6.95 8.2 9 7 C7.68 5.35 6.36 3.7 5 2 C7.88 3.29 9.87 4.66 12 7 C11.67 7.99 11.34 8.98 11 10 C5.39 10 -0.22 10 -6 10 C-6.33 8.68 -6.66 7.36 -7 6 C-4.69 4.02 -2.38 2.04 0 0 Z " fill="#343434" transform="translate(114,98)" id="path49"><inkstitch:params>{
  "stitch_type": "fill",
  "fill_angle": 45,
  "spacing": 0.4,
  "underlay": {
    "type": "none"
  },
  "pull_compensation": 0.0
}</inkstitch:params></path>
  <path d="M0 0 C0.99 0 1.98 0 3 0 C3.66 0.99 4.32 1.98 5 3 C8.08 3.25 8.08 3.25 11 3 C11.33 2.34 11.66 1.68 12 1 C12.99 1 13.98 1 15 1 C13.25 5.88 13.25 5.88 11 7 C8.19 7.38 8.19 7.38 5 7 C2.12 4.62 2.12 4.62 0 2 C0 1.34 0 0.68 0 0 Z " fill="#DADADA" transform="translate(93,93)" id="path50"><inkstitch:params>{
  "stitch_type": "fill",
  "fill_angle": 45,
  "spacing": 0.4,
  "underlay": {
    "type": "none"
  },
  "pull_compensation": 0.0
}</inkstitch:params></path>
  <path d="M0 0 C0.33 0.99 0.66 1.98 1 3 C1.66 3.33 2.32 3.66 3 4 C2.67 5.65 2.34 7.3 2 9 C1.34 9 0.68 9 0 9 C-0.66 8.34 -1.32 7.68 -2 7 C-4.11 7.32 -4.11 7.32 -6 8 C-5.67 5.69 -5.34 3.38 -5 1 C-2 0 -2 0 0 0 Z " fill="#ECECEC" transform="translate(101,70)" id="path51"><inkstitch:params>{
  "stitch_type": "fill",
  "fill_angle": 45,
  "spacing": 0.4,
  "underlay": {
    "type": "none"
  },
  "pull_compensation": 0.0
}</inkstitch:params></path>
  <path d="M0 0 C0.33 1.32 0.66 2.64 1 4 C3.47 4.5 3.47 4.5 6 5 C6 5.33 6 5.66 6 6 C3.69 6 1.38 6 -1 6 C-1 5.01 -1 4.02 -1 3 C-2.64 3.99 -2.64 3.99 -4.31 5 C-6.94 6.58 -7.83 7 -11 7 C-11.33 7.66 -11.66 8.32 -12 9 C-12 8.34 -12 7.68 -12 7 C-15.96 7 -19.92 7 -24 7 C-24 6.67 -24 6.34 -24 6 C-23 5.99 -22 5.97 -20.96 5.96 C-13.38 5.73 -5.77 0 0 0 Z " fill="#222222" transform="translate(103,233)" id="path52"><inkstitch:params>{
  "stitch_type": "fill",
  "fill_angle": 45,
  "spacing": 0.4,
  "underlay": {
    "type": "none"
  },
  "pull_compensation": 0.0
}</inkstitch:params></path>
  <path d="M0 0 C4.62 0 9.24 0 14 0 C13.34 1.65 12.68 3.3 12 5 C11.67 4.34 11.34 3.68 11 3 C11.33 2.34 11.66 1.68 12 1 C11.28 1.68 10.56 2.36 9.81 3.06 C7 5 7 5 4.31 5 C2 4 2 4 0 0 Z " fill="#151515" transform="translate(129,94)" id="path53"><inkstitch:params>{
  "stitch_type": "fill",
  "fill_angle": 45,
  "spacing": 0.4,
  "underlay": {
    "type": "none"
  },
  "pull_compensation": 0.0
}</inkstitch:params></path>
  <path d="M0 0 C3.88 1.75 3.88 1.75 5 4 C4.01 4.5 4.01 4.5 3 5 C3.33 5.66 3.66 6.32 4 7 C3.01 7.33 2.02 7.66 1 8 C1 8.66 1 9.32 1 10 C-0.65 10.33 -2.3 10.66 -4 11 C-3.52 9.35 -3.04 7.71 -2.56 6.06 C-2.3 5.15 -2.03 4.23 -1.75 3.29 C-1 1 -1 1 0 0 Z " fill="#DBDBDB" transform="translate(151,92)" id="path54"><inkstitch:params>{
  "stitch_type": "fill",
  "fill_angle": 45,
  "spacing": 0.4,
  "underlay": {
    "type": "none"
  },
  "pull_compensation": 0.0
}</inkstitch:params></path>
  <path d="M0 0 C0.66 0.66 1.32 1.32 2 2 C1.56 2.59 1.13 3.19 0.68 3.8 C-3.74 9.96 -7.51 16.27 -11 23 C-12 20 -12 20 -11.33 18.25 C-10.97 17.63 -10.61 17 -10.23 16.35 C-9.84 15.65 -9.44 14.96 -9.04 14.24 C-8.4 13.16 -8.4 13.16 -7.75 12.06 C-7.34 11.35 -6.93 10.63 -6.51 9.89 C-4.52 6.44 -2.51 3.12 0 0 Z " fill="#414141" transform="translate(83,134)" id="path55"><inkstitch:params>{
  "stitch_type": "fill",
  "fill_angle": 45,
  "spacing": 0.4,
  "underlay": {
    "type": "none"
  },
  "pull_compensation": 0.0
}</inkstitch:params></path>
  <path d="M0 0 C2.87 0.57 3.86 0.86 6 3 C9.38 2.64 12.04 1.64 15 0 C13.25 4.88 13.25 4.88 11 6 C8.19 6.38 8.19 6.38 5 6 C2.12 3.56 2.12 3.56 0 1 C0 0.67 0 0.34 0 0 Z " fill="#E1E1E1" transform="translate(126,95)" id="path56"><inkstitch:params>{
  "stitch_type": "fill",
  "fill_angle": 45,
  "spacing": 0.4,
  "underlay": {
    "type": "none"
  },
  "pull_compensation": 0.0
}</inkstitch:params></path>
  <path d="M0 0 C0.99 0.33 1.98 0.66 3 1 C3.33 1.99 3.66 2.98 4 4 C4.66 3.34 5.32 2.68 6 2 C6.8 5.29 7.1 6.71 6 10 C5.01 10 4.02 10 3 10 C3 9.01 3 8.02 3 7 C2.34 7 1.68 7 1 7 C1 6.34 1 5.68 1 5 C0.01 4.67 -0.98 4.34 -2 4 C-1.34 2.68 -0.68 1.36 0 0 Z " fill="#BBBBBB" transform="translate(78,92)" id="path57"><inkstitch:params>{
  "stitch_type": "fill",
  "fill_angle": 45,
  "spacing": 0.4,
  "underlay": {
    "type": "none"
  },
  "pull_compensation": 0.0
}</inkstitch:params></path>
  <path d="M0 0 C1.41 2.64 2.37 5.07 3 8 C2.34 8 1.68 8 1 8 C0.67 6.35 0.34 4.7 0 3 C-0.66 3 -1.32 3 -2 3 C-1.67 3.99 -1.34 4.98 -1 6 C-1.66 6 -2.32 6 -3 6 C-3 7.65 -3 9.3 -3 11 C-3.33 11 -3.66 11 -4 11 C-4 8.36 -4 5.72 -4 3 C-4.99 2.67 -5.98 2.34 -7 2 C-4.69 1.34 -2.38 0.68 0 0 Z " fill="#242424" transform="translate(78,202)" id="path58"><inkstitch:params>{
  "stitch_type": "fill",
  "fill_angle": 45,
  "spacing": 0.4,
  "underlay": {
    "type": "none"
  },
  "pull_compensation": 0.0
}</inkstitch:params></path>
  <path d="M0 0 C2.12 0.94 2.12 0.94 4 2 C3.41 8.15 3.41 8.15 3 10 C2.01 10.5 2.01 10.5 1 11 C1 8.69 1 6.38 1 4 C0.34 5.32 -0.32 6.64 -1 8 C-1.69 5.51 -2 3.62 -2 1 C-1.34 0.67 -0.68 0.34 0 0 Z " fill="#9C9C9C" transform="translate(62,201)" id="path59"><inkstitch:params>{
  "stitch_type": "fill",
  "fill_angle": 45,
  "spacing": 0.4,
  "underlay": {
    "type": "none"
  },
  "pull_compensation": 0.0
}</inkstitch:params></path>
  <path d="M0 0 C1.65 0 3.3 0 5 0 C5.33 0.99 5.66 1.98 6 3 C5.01 3 4.02 3 3 3 C3.33 4.32 3.66 5.64 4 7 C3.01 6.67 2.02 6.34 1 6 C1 6.99 1 7.98 1 9 C-0.65 9 -2.3 9 -4 9 C-3.67 8.34 -3.34 7.68 -3 7 C-2.34 7 -1.68 7 -1 7 C-1.33 6.01 -1.66 5.02 -2 4 C-1.01 3.67 -0.02 3.34 1 3 C0.67 2.01 0.34 1.02 0 0 Z " fill="#1C1C1C" transform="translate(153,95)" id="path60"><inkstitch:params>{
  "stitch_type": "fill",
  "fill_angle": 45,
  "spacing": 0.4,
  "underlay": {
    "type": "none"
  },
  "pull_compensation": 0.0
}</inkstitch:params></path>
  <path d="M0 0 C1.98 0 3.96 0 6 0 C6 2.31 6 4.62 6 7 C5.34 7 4.68 7 4 7 C3.67 5.35 3.34 3.7 3 2 C2.34 4.31 1.68 6.62 1 9 C0.67 9 0.34 9 0 9 C0 6.03 0 3.06 0 0 Z " fill="#D1D1D1" transform="translate(68,205)" id="path61"><inkstitch:params>{
  "stitch_type": "fill",
  "fill_angle": 45,
  "spacing": 0.4,
  "underlay": {
    "type": "none"
  },
  "pull_compensation": 0.0
}</inkstitch:params></path>
  <path d="M0 0 C0 0.66 0 1.32 0 2 C-1.32 2 -2.64 2 -4 2 C-4 2.99 -4 3.98 -4 5 C-6.47 4.01 -6.47 4.01 -9 3 C-9.33 3.66 -9.66 4.32 -10 5 C-10 4.34 -10 3.68 -10 3 C-10.66 2.67 -11.32 2.34 -12 2 C-4.71 -1.57 -4.71 -1.57 0 0 Z " fill="#3B3B3B" transform="translate(123,61)" id="path62"><inkstitch:params>{
  "stitch_type": "fill",
  "fill_angle": 45,
  "spacing": 0.4,
  "underlay": {
    "type": "none"
  },
  "pull_compensation": 0.0
}</inkstitch:params></path>
  <path d="M0 0 C1.65 0 3.3 0 5 0 C5.36 6.38 5.36 6.38 3.88 8.94 C1.08 10.52 -0.85 10.46 -4 10 C-5.88 8 -5.88 8 -7 6 C-6.26 6.35 -5.51 6.7 -4.75 7.06 C-1.87 8.05 -0.79 8.03 2 7 C2.77 5.16 2.77 5.16 3 3 C1.65 1.23 1.65 1.23 0 0 Z " fill="#3D3D3D" transform="translate(138,129)" id="path63"><inkstitch:params>{
  "stitch_type": "fill",
  "fill_angle": 45,
  "spacing": 0.4,
  "underlay": {
    "type": "none"
  },
  "pull_compensation": 0.0
}</inkstitch:params></path>
  <path d="M0 0 C0 0.66 0 1.32 0 2 C-0.64 2.12 -1.28 2.25 -1.94 2.38 C-2.62 2.58 -3.3 2.79 -4 3 C-4.33 3.66 -4.66 4.32 -5 5 C-4.34 5.33 -3.68 5.66 -3 6 C-3.99 6.33 -4.98 6.66 -6 7 C-6.33 5.35 -6.66 3.7 -7 2 C-7.66 2 -8.32 2 -9 2 C-9 1.34 -9 0.68 -9 0 C-3.38 -1.12 -3.38 -1.12 0 0 Z " fill="#272727" transform="translate(89,64)" id="path64"><inkstitch:params>{
  "stitch_type": "fill",
  "fill_angle": 45,
  "spacing": 0.4,
  "underlay": {
    "type": "none"
  },
  "pull_compensation": 0.0
}</inkstitch:params></path>
  <path d="M0 0 C0.99 0 1.98 0 3 0 C3 0.99 3 1.98 3 3 C3.66 3 4.32 3 5 3 C5.33 4.32 5.66 5.64 6 7 C4.68 7.33 3.36 7.66 2 8 C1.67 7.34 1.34 6.68 1 6 C0.01 5.34 -0.98 4.68 -2 4 C-1.34 2.68 -0.68 1.36 0 0 Z " fill="#131313" transform="translate(123,62)" id="path65"><inkstitch:params>{
  "stitch_type": "fill",
  "fill_angle": 45,
  "spacing": 0.4,
  "underlay": {
    "type": "none"
  },
  "pull_compensation": 0.0
}</inkstitch:params></path>
  <path d="M0 0 C0.99 0.33 1.98 0.66 3 1 C3 1.66 3 2.32 3 3 C3.66 3 4.32 3 5 3 C5.66 4.32 6.32 5.64 7 7 C3.7 6.67 0.4 6.34 -3 6 C-2.01 5.67 -1.02 5.34 0 5 C0 3.35 0 1.7 0 0 Z " fill="#161616" transform="translate(108,61)" id="path66"><inkstitch:params>{
  "stitch_type": "fill",
  "fill_angle": 45,
  "spacing": 0.4,
  "underlay": {
    "type": "none"
  },
  "pull_compensation": 0.0
}</inkstitch:params></path>
  <path d="M0 0 C0.7 0.47 1.4 0.95 2.12 1.44 C5.16 3.09 7.59 3.6 11 4 C11.33 2.68 11.66 1.36 12 0 C12 1.98 12 3.96 12 6 C4.65 6.49 4.65 6.49 1.5 4.12 C0 2 0 2 0 0 Z " fill="#262626" transform="translate(155,202)" id="path67"><inkstitch:params>{
  "stitch_type": "fill",
  "fill_angle": 45,
  "spacing": 0.4,
  "underlay": {
    "type": "none"
  },
  "pull_compensation": 0.0
}</inkstitch:params></path>
  <path d="M0 0 C1.12 3.75 1.12 3.75 0 6 C-1.65 5.67 -3.3 5.34 -5 5 C-5.33 3.68 -5.66 2.36 -6 1 C-3 0 -3 0 0 0 Z " fill="#0E0E0E" transform="translate(149,69)" id="path68"><inkstitch:params>{
  "stitch_type": "fill",
  "fill_angle": 45,
  "spacing": 0.4,
  "underlay": {
    "type": "none"
  },
  "pull_compensation": 0.0
}</inkstitch:params></path>
  <path d="M0 0 C0 1.65 0 3.3 0 5 C-0.66 5 -1.32 5 -2 5 C-2.66 4.34 -3.32 3.68 -4 3 C-6.6 3.32 -6.6 3.32 -9 4 C-8.67 3.01 -8.34 2.02 -8 1 C-5.07 0.02 -3.04 -0.08 0 0 Z " fill="#EAEAEA" transform="translate(94,70)" id="path69"><inkstitch:params>{
  "stitch_type": "fill",
  "fill_angle": 45,
  "spacing": 0.4,
  "underlay": {
    "type": "none"
  },
  "pull_compensation": 0.0
}</inkstitch:params></path>
  <path d="M0 0 C0.66 0.33 1.32 0.66 2 1 C2.33 1.99 2.66 2.98 3 4 C3.66 4.33 4.32 4.66 5 5 C5 5.66 5 6.32 5 7 C4.01 7 3.02 7 2 7 C1.67 6.34 1.34 5.68 1 5 C0.01 6.49 0.01 6.49 -1 8 C-3.62 8.19 -3.62 8.19 -6 8 C-5.07 7.41 -5.07 7.41 -4.12 6.81 C-1.68 4.72 -0.98 3.03 0 0 Z " fill="#343434" transform="translate(166,232)" id="path70"><inkstitch:params>{
  "stitch_type": "fill",
  "fill_angle": 45,
  "spacing": 0.4,
  "underlay": {
    "type": "none"
  },
  "pull_compensation": 0.0
}</inkstitch:params></path>
  <path d="M0 0 C0.6 0.21 1.2 0.41 1.81 0.62 C1.06 2.56 1.06 2.56 -0.19 4.62 C-2.31 5.38 -2.31 5.38 -4.19 5.62 C-4.52 4.31 -4.85 2.98 -5.19 1.62 C-2.19 -0.38 -2.19 -0.38 0 0 Z " fill="#E9E9E9" transform="translate(138.1875,122.375)" id="path71"><inkstitch:params>{
  "stitch_type": "fill",
  "fill_angle": 45,
  "spacing": 0.4,
  "underlay": {
    "type": "none"
  },
  "pull_compensation": 0.0
}</inkstitch:params></path>
  <path d="M0 0 C2.88 0.25 2.88 0.25 6 1 C7.38 3.06 7.38 3.06 8 5 C6.68 5 5.36 5 4 5 C4 4.34 4 3.68 4 3 C2.35 3 0.7 3 -1 3 C-0.67 2.01 -0.34 1.02 0 0 Z " fill="#B5B5B5" transform="translate(130,69)" id="path72"><inkstitch:params>{
  "stitch_type": "fill",
  "fill_angle": 45,
  "spacing": 0.4,
  "underlay": {
    "type": "none"
  },
  "pull_compensation": 0.0
}</inkstitch:params></path>
  <path d="M0 0 C0.66 0 1.32 0 2 0 C2 0.99 2 1.98 2 3 C3.65 2.67 5.3 2.34 7 2 C6.67 3.32 6.34 4.64 6 6 C4.02 6 2.04 6 0 6 C-0.38 4.34 -0.71 2.68 -1 1 C-0.67 0.67 -0.34 0.34 0 0 Z " fill="#EEEEEE" transform="translate(129,64)" id="path73"><inkstitch:params>{
  "stitch_type": "fill",
  "fill_angle": 45,
  "spacing": 0.4,
  "underlay": {
    "type": "none"
  },
  "pull_compensation": 0.0
}</inkstitch:params></path>
  <path d="M0 0 C4.29 0.33 8.58 0.66 13 1 C13 1.33 13 1.66 13 2 C10.03 2 7.06 2 4 2 C4 2.99 4 3.98 4 5 C3.01 5 2.02 5 1 5 C0.67 3.35 0.34 1.7 0 0 Z " fill="#434343" transform="translate(143,284)" id="path74"><inkstitch:params>{
  "stitch_type": "fill",
  "fill_angle": 45,
  "spacing": 0.4,
  "underlay": {
    "type": "none"
  },
  "pull_compensation": 0.0
}</inkstitch:params></path>
  <path d="M0 0 C0.33 0.66 0.66 1.32 1 2 C1.66 2.33 2.32 2.66 3 3 C3 3.99 3 4.98 3 6 C1.02 6 -0.96 6 -3 6 C-3 5.01 -3 4.02 -3 3 C-3.66 2.67 -4.32 2.34 -5 2 C-3.35 1.34 -1.7 0.68 0 0 Z " fill="#1B1B1B" transform="translate(138,126)" id="path75"><inkstitch:params>{
  "stitch_type": "fill",
  "fill_angle": 45,
  "spacing": 0.4,
  "underlay": {
    "type": "none"
  },
  "pull_compensation": 0.0
}</inkstitch:params></path>
  <path d="M0 0 C1.65 0 3.3 0 5 0 C5 0.99 5 1.98 5 3 C1.69 4 -1.3 4.1 -4.75 4.06 C-5.73 4.05 -6.72 4.04 -7.73 4.04 C-8.48 4.02 -9.23 4.01 -10 4 C-10 3.67 -10 3.34 -10 3 C-6.7 3 -3.4 3 0 3 C0 2.01 0 1.02 0 0 Z " fill="#1C1C1C" transform="translate(137,238)" id="path76"><inkstitch:params>{
  "stitch_type": "fill",
  "fill_angle": 45,
  "spacing": 0.4,
  "underlay": {
    "type": "none"
  },
  "pull_compensation": 0.0
}</inkstitch:params></path>
  <path d="M0 0 C0.66 0 1.32 0 2 0 C2 1.32 2 2.64 2 4 C2.66 4 3.32 4 4 4 C4.33 3.34 4.66 2.68 5 2 C5.33 3.32 5.66 4.64 6 6 C4.34 6.38 2.68 6.71 1 7 C0 6 0 6 -0.06 2.94 C-0.04 1.97 -0.02 1 0 0 Z " fill="#A4A4A4" transform="translate(149,65)" id="path77"><inkstitch:params>{
  "stitch_type": "fill",
  "fill_angle": 45,
  "spacing": 0.4,
  "underlay": {
    "type": "none"
  },
  "pull_compensation": 0.0
}</inkstitch:params></path>
  <path d="M0 0 C3.96 0 7.92 0 12 0 C12.33 1.32 12.66 2.64 13 4 C8.71 3.01 4.42 2.02 0 1 C0 0.67 0 0.34 0 0 Z " fill="#333333" transform="translate(112,114)" id="path78"><inkstitch:params>{
  "stitch_type": "fill",
  "fill_angle": 45,
  "spacing": 0.4,
  "underlay": {
    "type": "none"
  },
  "pull_compensation": 0.0
}</inkstitch:params></path>
  <path d="M0 0 C0.99 0 1.98 0 3 0 C3.66 0.99 4.32 1.98 5 3 C7.05 4.19 7.05 4.19 9 5 C7.02 5.33 5.04 5.66 3 6 C0 2.25 0 2.25 0 0 Z " fill="#C9C9C9" transform="translate(93,93)" id="path79"><inkstitch:params>{
  "stitch_type": "fill",
  "fill_angle": 45,
  "spacing": 0.4,
  "underlay": {
    "type": "none"
  },
  "pull_compensation": 0.0
}</inkstitch:params></path>
  <path d="M0 0 C0.33 0.66 0.66 1.32 1 2 C1.99 2 2.98 2 4 2 C4 2.66 4 3.32 4 4 C3.34 4 2.68 4 2 4 C1.34 5.65 0.68 7.3 0 9 C-0.66 9 -1.32 9 -2 9 C-1.86 8.44 -1.71 7.89 -1.56 7.31 C-0.97 4.89 -0.48 2.45 0 0 Z " fill="#A2A2A2" transform="translate(141,61)" id="path80"><inkstitch:params>{
  "stitch_type": "fill",
  "fill_angle": 45,
  "spacing": 0.4,
  "underlay": {
    "type": "none"
  },
  "pull_compensation": 0.0
}</inkstitch:params></path>
  <path d="M0 0 C0.66 0.33 1.32 0.66 2 1 C2 1.66 2 2.32 2 3 C2.99 2.67 3.98 2.34 5 2 C5.33 2.66 5.66 3.32 6 4 C2.99 4.93 2.13 5.04 -1 4 C-1.99 4 -2.98 4 -4 4 C-4 3.34 -4 2.68 -4 2 C-2.12 0.94 -2.12 0.94 0 0 Z " fill="#333333" transform="translate(99,76)" id="path81"><inkstitch:params>{
  "stitch_type": "fill",
  "fill_angle": 45,
  "spacing": 0.4,
  "underlay": {
    "type": "none"
  },
  "pull_compensation": 0.0
}</inkstitch:params></path>
  <path d="M0 0 C2.88 1.29 4.87 2.66 7 5 C6.67 5.99 6.34 6.98 6 8 C4.68 7.67 3.36 7.34 2 7 C2.66 6.34 3.32 5.68 4 5 C2.68 3.35 1.36 1.7 0 0 Z " fill="#4D4D4D" transform="translate(119,100)" id="path82"><inkstitch:params>{
  "stitch_type": "fill",
  "fill_angle": 45,
  "spacing": 0.4,
  "underlay": {
    "type": "none"
  },
  "pull_compensation": 0.0
}</inkstitch:params></path>
  <path d="M0 0 C3 1.75 3 1.75 6 4 C6 5.32 6 6.64 6 8 C5.34 8 4.68 8 4 8 C4 6.68 4 5.36 4 4 C2.68 4 1.36 4 0 4 C0 2.68 0 1.36 0 0 Z " fill="#4B4B4B" transform="translate(150,60)" id="path83"><inkstitch:params>{
  "stitch_type": "fill",
  "fill_angle": 45,
  "spacing": 0.4,
  "underlay": {
    "type": "none"
  },
  "pull_compensation": 0.0
}</inkstitch:params></path>
  <path d="M0 0 C1.21 0.03 1.21 0.03 2.44 0.06 C2.44 1.05 2.44 2.04 2.44 3.06 C1.78 3.72 1.12 4.38 0.44 5.06 C-0.88 3.74 -2.2 2.42 -3.56 1.06 C-2.56 0.06 -2.56 0.06 0 0 Z " fill="#D7D7D7" transform="translate(124.5625,19.9375)" id="path84"><inkstitch:params>{
  "stitch_type": "fill",
  "fill_angle": 45,
  "spacing": 0.4,
  "underlay": {
    "type": "none"
  },
  "pull_compensation": 0.0
}</inkstitch:params></path>
  <path d="M0 0 C0.99 0.33 1.98 0.66 3 1 C3 2.65 3 4.3 3 6 C1.35 5.67 -0.3 5.34 -2 5 C-1.34 3.35 -0.68 1.7 0 0 Z " fill="#E6E6E6" transform="translate(78,92)" id="path85"><inkstitch:params>{
  "stitch_type": "fill",
  "fill_angle": 45,
  "spacing": 0.4,
  "underlay": {
    "type": "none"
  },
  "pull_compensation": 0.0
}</inkstitch:params></path>
  <path d="M0 0 C1.32 0 2.64 0 4 0 C4.33 1.98 4.66 3.96 5 6 C3.02 6.99 3.02 6.99 1 8 C1.66 5.69 2.32 3.38 3 1 C2.01 0.67 1.02 0.34 0 0 Z " fill="#393939" transform="translate(73,89)" id="path86"><inkstitch:params>{
  "stitch_type": "fill",
  "fill_angle": 45,
  "spacing": 0.4,
  "underlay": {
    "type": "none"
  },
  "pull_compensation": 0.0
}</inkstitch:params></path>
  <path d="M0 0 C0.33 0.66 0.66 1.32 1 2 C1.99 2.33 2.98 2.66 4 3 C1.62 4.06 1.62 4.06 -1 5 C-1.66 4.67 -2.32 4.34 -3 4 C-3 4.99 -3 5.98 -3 7 C-3.66 6.67 -4.32 6.34 -5 6 C-4.67 5.01 -4.34 4.02 -4 3 C-3.01 2.67 -2.02 2.34 -1 2 C-0.67 1.34 -0.34 0.68 0 0 Z " fill="#626262" transform="translate(143,72)" id="path87"><inkstitch:params>{
  "stitch_type": "fill",
  "fill_angle": 45,
  "spacing": 0.4,
  "underlay": {
    "type": "none"
  },
  "pull_compensation": 0.0
}</inkstitch:params></path>
  <path d="M0 0 C0.66 0.33 1.32 0.66 2 1 C1.67 1.66 1.34 2.32 1 3 C1.99 3.33 2.98 3.66 4 4 C2.02 4.99 2.02 4.99 0 6 C-1.5 4.62 -1.5 4.62 -3 3 C-3 2.34 -3 1.68 -3 1 C-2.01 0.67 -1.02 0.34 0 0 Z " fill="#252525" transform="translate(124,70)" id="path88"><inkstitch:params>{
  "stitch_type": "fill",
  "fill_angle": 45,
  "spacing": 0.4,
  "underlay": {
    "type": "none"
  },
  "pull_compensation": 0.0
}</inkstitch:params></path>
  <path d="M0 0 C1.67 0.06 1.67 0.06 3.38 0.12 C1.24 2.58 -0.33 3.81 -3.62 4.12 C-4.28 3.47 -4.94 2.81 -5.62 2.12 C-3.62 0.12 -3.62 0.12 0 0 Z " fill="#0D0D0D" transform="translate(84.625,69.875)" id="path89"><inkstitch:params>{
  "stitch_type": "fill",
  "fill_angle": 45,
  "spacing": 0.4,
  "underlay": {
    "type": "none"
  },
  "pull_compensation": 0.0
}</inkstitch:params></path>
  <path d="M0 0 C0.99 0 1.98 0 3 0 C3.33 1.32 3.66 2.64 4 4 C2.02 4.99 2.02 4.99 0 6 C-1 3 -1 3 0 0 Z " fill="#F7F7F7" transform="translate(138,61)" id="path90"><inkstitch:params>{
  "stitch_type": "fill",
  "fill_angle": 45,
  "spacing": 0.4,
  "underlay": {
    "type": "none"
  },
  "pull_compensation": 0.0
}</inkstitch:params></path>
  <path d="M0 0 C0.33 0.66 0.66 1.32 1 2 C3.02 3.13 3.02 3.13 5 4 C3.58 4.46 3.58 4.46 2.12 4.94 C-0.86 5.87 -0.86 5.87 -3 7 C-1.12 1.12 -1.12 1.12 0 0 Z " fill="#333333" transform="translate(146,101)" id="path91"><inkstitch:params>{
  "stitch_type": "fill",
  "fill_angle": 45,
  "spacing": 0.4,
  "underlay": {
    "type": "none"
  },
  "pull_compensation": 0.0
}</inkstitch:params></path>
  <path d="M0 0 C1.65 0 3.3 0 5 0 C4.67 1.98 4.34 3.96 4 6 C2.62 4.71 1.29 3.37 0 2 C0 1.34 0 0.68 0 0 Z " fill="#E8E8E8" transform="translate(129,72)" id="path92"><inkstitch:params>{
  "stitch_type": "fill",
  "fill_angle": 45,
  "spacing": 0.4,
  "underlay": {
    "type": "none"
  },
  "pull_compensation": 0.0
}</inkstitch:params></path>
  <path d="M0 0 C0.66 0 1.32 0 2 0 C2.33 1.32 2.66 2.64 3 4 C1.19 5.06 1.19 5.06 -1 6 C-1.99 5.67 -2.98 5.34 -4 5 C-3.01 4.34 -2.02 3.68 -1 3 C-0.67 2.01 -0.34 1.02 0 0 Z " fill="#282828" transform="translate(130,59)" id="path93"><inkstitch:params>{
  "stitch_type": "fill",
  "fill_angle": 45,
  "spacing": 0.4,
  "underlay": {
    "type": "none"
  },
  "pull_compensation": 0.0
}</inkstitch:params></path>
  <path d="M0 0 C0.66 0.66 1.32 1.32 2 2 C1.62 5.62 1.62 5.62 1 9 C0.34 9 -0.32 9 -1 9 C-0.67 6.03 -0.34 3.06 0 0 Z " fill="#5D5D5D" transform="translate(143,245)" id="path94"><inkstitch:params>{
  "stitch_type": "fill",
  "fill_angle": 45,
  "spacing": 0.4,
  "underlay": {
    "type": "none"
  },
  "pull_compensation": 0.0
}</inkstitch:params></path>
  <path d="M0 0 C0.33 0.66 0.66 1.32 1 2 C2.32 2 3.64 2 5 2 C4.67 3.65 4.34 5.3 4 7 C3.34 7 2.68 7 2 7 C2 5.68 2 4.36 2 3 C1.34 3 0.68 3 0 3 C0 2.01 0 1.02 0 0 Z " fill="#F6F6F6" transform="translate(149,62)" id="path95"><inkstitch:params>{
  "stitch_type": "fill",
  "fill_angle": 45,
  "spacing": 0.4,
  "underlay": {
    "type": "none"
  },
  "pull_compensation": 0.0
}</inkstitch:params></path>
</g></svg>