<?xml version='1.0' encoding='utf-8'?>
<svg xmlns="http://www.w3.org/2000/svg" xmlns:inkscape="http://www.inkscape.org/namespaces/inkscape" xmlns:inkstitch="http://inkstitch.org/namespace" viewBox="0 0 300.0 308.0" version="1.1" width="1150.4243787708353px" height="1181.1023622047244px" id="svg4">
  <g inkscape:label="Layer 1" inkscape:groupmode="layer" id="layer1"><title id="title1">Haft</title>
  <defs id="defs4" />
  <path d="M0 0 C99 0 198 0 300 0 C300 101.64 300 203.28 300 308 C201 308 102 308 0 308 C0 206.36 0 104.72 0 0 Z " fill="#FEFEFE" transform="translate(0,0)" id="path1"><inkstitch:params>{
  "stitch_type": "fill",
  "fill_angle": 45,
  "spacing": 0.4,
  "underlay": {
    "type": "none"
  },
  "pull_compensation": 0.0
}</inkstitch:params></path>
  <path d="M0 0 C11.28 9.43 11.28 9.43 12.19 14.62 C11.56 15.1 10.93 15.57 10.28 16.06 C0.9 23.31 -6.24 30.57 -10.81 41.62 C-11.13 42.34 -11.45 43.05 -11.78 43.78 C-16.45 56.07 -15 71.26 -10.36 83.29 C-3.92 97.17 5.48 106.77 19.19 113.62 C16.43 131.64 3.56 149.89 -7.81 163.62 C-8.5 164.48 -9.19 165.34 -9.91 166.22 C-16.05 173.53 -23.5 179.74 -33.21 181.1 C-42.48 181.45 -49.47 179.98 -58.12 176.62 C-76.18 169.84 -89.33 171.56 -107.26 178.42 C-116 181.72 -123.87 183.54 -132.75 179.81 C-157.71 165.69 -172.65 134.76 -181.14 108.62 C-181.66 107.07 -182.27 105.55 -182.9 104.05 C-184.15 100.73 -184.75 97.35 -185.38 93.88 C-185.5 93.21 -185.63 92.54 -185.76 91.86 C-190.73 64.76 -189.55 37.93 -173.8 14.64 C-164.99 3.18 -152.26 -6.71 -137.92 -9.98 C-122.45 -11.96 -110.15 -9.16 -95.76 -3.52 C-86.94 -0.1 -80.52 0.63 -71.69 -3.16 C-48.25 -13.06 -21.78 -16.43 0 0 Z " fill="#231F20" transform="translate(233.8125,96.375)" id="path2"><inkstitch:params>{
  "stitch_type": "fill",
  "fill_angle": 45,
  "spacing": 0.4,
  "underlay": {
    "type": "none"
  },
  "pull_compensation": 0.0
}</inkstitch:params></path>
  <path d="M0 0 C0.41 16.13 -2.58 29.14 -13.5 41.5 C-14.98 43.02 -16.47 44.53 -18 46 C-18.6 46.58 -19.2 47.17 -19.81 47.77 C-27.25 54.57 -34.68 58.16 -44.75 58.06 C-45.92 58.05 -47.09 58.04 -48.3 58.04 C-49.19 58.02 -50.08 58.01 -51 58 C-51.85 41.82 -47.25 30.08 -36.75 17.81 C-27.06 7.47 -14.41 -0.28 0 0 Z " fill="#252122" transform="translate(200,24)" id="path3"><inkstitch:params>{
  "stitch_type": "fill",
  "fill_angle": 45,
  "spacing": 0.4,
  "underlay": {
    "type": "none"
  },
  "pull_compensation": 0.0
}</inkstitch:params></path>
  <path d="M0 0 C0 3.89 -1.2 4.76 -3.75 7.62 C-4.45 8.42 -5.14 9.22 -5.86 10.04 C-8.01 12.01 -9.16 12.63 -12 13 C-8.44 7.91 -4.95 3.77 0 0 Z " fill="#2E2B2C" transform="translate(72,99)" id="path4"><inkstitch:params>{
  "stitch_type": "fill",
  "fill_angle": 45,
  "spacing": 0.4,
  "underlay": {
    "type": "none"
  },
  "pull_compensation": 0.0
}</inkstitch:params></path>
</g></svg>