<?xml version="1.0" encoding="UTF-8"?>
<svg width="1024" height="1536" viewBox="0 0 1024 1536" 
     xmlns="http://www.w3.org/2000/svg"
     xmlns:inkscape="http://www.inkscape.org/namespaces/inkscape"
     xmlns:inkstitch="http://inkstitch.org/namespace">
  <title>Ultra High-Quality Vector Art - AI Enhanced</title>
  <defs>
    <style>
      .ultra-vector-path {
        stroke-width: 0.05;
        stroke-linejoin: round;
        stroke-linecap: round;
        fill-opacity: 1.0;
        stroke-opacity: 0.8;
        shape-rendering: geometricPrecision;
        vector-effect: non-scaling-stroke;
      }
    </style>
  </defs>
  <g inkscape:label="Ultra Vector Shapes" inkscape:groupmode="layer">
    <path id="ultra-vector-path-0" 
          d="M 4.00 4.00 Q 207.00 1836.40 1019.00 1531.00 L 1019.00 4.00 Z" 
          class="ultra-vector-path"
          style="fill: rgb(1,0,0); stroke: rgb(1,0,0); fill-rule: evenodd;"
          inkstitch:fill="1"
          inkstitch:color="#010000"
          inkstitch:angle="45"
          inkstitch:row_spacing_mm="0.3"
          inkstitch:end_row_spacing_mm="0.3"
          inkstitch:max_stitch_length_mm="2.8"
          inkstitch:staggers="4"
          inkstitch:skip_last="0"
          inkstitch:underpath="1"
          inkstitch:pull_compensation_mm="0.1"
          inkstitch:expand_mm="0.1"
          inkstitch:clockwise="true"
          data-quality="ultra-high"
          data-density="high" />
    <path id="ultra-vector-path-1" 
          d="M 559.00 1272.00 Q 549.00 1342.80 559.00 1331.00 L 560.00 1342.00 L 564.00 1342.00 L 570.00 1337.00 Q 581.40 1338.00 582.00 1342.00 L 591.00 1339.00 Q 656.00 1327.40 646.00 1271.00 L 605.00 1275.00 Z" 
          class="ultra-vector-path"
          style="fill: rgb(1,66,15); stroke: rgb(1,66,15); fill-rule: evenodd;"
          inkstitch:fill="1"
          inkstitch:color="#01420f"
          inkstitch:angle="70"
          inkstitch:row_spacing_mm="0.3"
          inkstitch:end_row_spacing_mm="0.3"
          inkstitch:max_stitch_length_mm="2.8"
          inkstitch:staggers="4"
          inkstitch:skip_last="0"
          inkstitch:underpath="1"
          inkstitch:pull_compensation_mm="0.1"
          inkstitch:expand_mm="0.1"
          inkstitch:clockwise="true"
          data-quality="ultra-high"
          data-density="high" />
    <path id="ultra-vector-path-2" 
          d="M 422.00 1236.00 Q 406.20 1235.00 408.00 1226.00 L 384.00 1240.00 L 371.00 1240.00 Q 319.00 1237.00 306.00 1270.00 L 306.00 1275.00 Q 311.60 1279.20 309.00 1291.00 L 342.00 1315.00 L 349.00 1314.00 L 364.00 1301.00 Q 373.80 1303.60 373.00 1314.00 Q 384.20 1316.40 384.00 1326.00 L 388.00 1326.00 L 399.00 1303.00 L 426.00 1261.00 Q 426.20 1251.40 422.00 1248.00 Z" 
          class="ultra-vector-path"
          style="fill: rgb(1,66,15); stroke: rgb(1,66,15); fill-rule: evenodd;"
          inkstitch:fill="1"
          inkstitch:color="#01420f"
          inkstitch:angle="95"
          inkstitch:row_spacing_mm="0.3"
          inkstitch:end_row_spacing_mm="0.3"
          inkstitch:max_stitch_length_mm="2.8"
          inkstitch:staggers="4"
          inkstitch:skip_last="0"
          inkstitch:underpath="1"
          inkstitch:pull_compensation_mm="0.1"
          inkstitch:expand_mm="0.1"
          inkstitch:clockwise="true"
          data-quality="ultra-high"
          data-density="high" />
    <path id="ultra-vector-path-3" 
          d="M 249.00 460.00 L 241.00 460.00 L 238.00 462.00 L 233.00 463.00 L 225.00 464.00 L 222.00 465.00 L 222.00 468.00 L 228.00 469.00 L 231.00 471.00 L 236.00 472.00 L 239.00 469.00 L 242.00 468.00 L 245.00 465.00 L 249.00 462.00 Z" 
          class="ultra-vector-path"
          style="fill: rgb(20,114,32); stroke: rgb(20,114,32); fill-rule: evenodd;"
          inkstitch:fill="1"
          inkstitch:color="#147220"
          inkstitch:angle="120"
          inkstitch:row_spacing_mm="0.3"
          inkstitch:end_row_spacing_mm="0.3"
          inkstitch:max_stitch_length_mm="2.8"
          inkstitch:staggers="4"
          inkstitch:skip_last="0"
          inkstitch:underpath="1"
          inkstitch:pull_compensation_mm="0.1"
          inkstitch:expand_mm="0.1"
          inkstitch:clockwise="true"
          data-quality="ultra-high"
          data-density="high" />
    <path id="ultra-vector-path-4" 
          d="M 781.00 459.00 L 782.00 464.00 L 784.00 467.00 L 784.00 478.00 L 786.00 488.00 L 798.00 488.00 L 802.00 484.00 L 802.00 480.00 L 799.00 477.00 L 798.00 473.00 L 795.00 472.00 L 785.00 462.00 L 783.00 459.00 Z" 
          class="ultra-vector-path"
          style="fill: rgb(20,114,32); stroke: rgb(20,114,32); fill-rule: evenodd;"
          inkstitch:fill="1"
          inkstitch:color="#147220"
          inkstitch:angle="145"
          inkstitch:row_spacing_mm="0.3"
          inkstitch:end_row_spacing_mm="0.3"
          inkstitch:max_stitch_length_mm="2.8"
          inkstitch:staggers="4"
          inkstitch:skip_last="0"
          inkstitch:underpath="1"
          inkstitch:pull_compensation_mm="0.1"
          inkstitch:expand_mm="0.1"
          inkstitch:clockwise="true"
          data-quality="ultra-high"
          data-density="high" />
    <path id="ultra-vector-path-5" 
          d="M 819.00 422.00 L 838.00 459.00 Q 842.40 474.40 850.00 471.00 Q 863.40 462.00 862.00 451.00 Q 873.20 446.40 873.00 438.00 L 877.00 438.00 L 897.00 454.00 Q 905.80 455.00 911.00 449.00 L 919.00 448.00 Q 930.40 431.80 866.00 422.00 Q 817.80 411.80 825.00 421.00 Z" 
          class="ultra-vector-path"
          style="fill: rgb(20,114,32); stroke: rgb(20,114,32); fill-rule: evenodd;"
          inkstitch:fill="1"
          inkstitch:color="#147220"
          inkstitch:angle="170"
          inkstitch:row_spacing_mm="0.3"
          inkstitch:end_row_spacing_mm="0.3"
          inkstitch:max_stitch_length_mm="2.8"
          inkstitch:staggers="4"
          inkstitch:skip_last="0"
          inkstitch:underpath="1"
          inkstitch:pull_compensation_mm="0.1"
          inkstitch:expand_mm="0.1"
          inkstitch:clockwise="true"
          data-quality="ultra-high"
          data-density="high" />
    <path id="ultra-vector-path-6" 
          d="M 672.00 424.00 L 664.00 433.00 L 678.00 474.00 L 683.00 479.00 L 691.00 478.00 L 701.00 468.00 L 699.00 432.00 L 686.00 424.00 Z" 
          class="ultra-vector-path"
          style="fill: rgb(130,27,12); stroke: rgb(130,27,12); fill-rule: evenodd;"
          inkstitch:fill="1"
          inkstitch:color="#821b0c"
          inkstitch:angle="195"
          inkstitch:row_spacing_mm="0.3"
          inkstitch:end_row_spacing_mm="0.3"
          inkstitch:max_stitch_length_mm="2.8"
          inkstitch:staggers="4"
          inkstitch:skip_last="0"
          inkstitch:underpath="1"
          inkstitch:pull_compensation_mm="0.2"
          inkstitch:expand_mm="0.1"
          inkstitch:clockwise="true"
          data-quality="ultra-high"
          data-density="high" />
    <path id="ultra-vector-path-7" 
          d="M 496.00 402.00 L 493.00 418.00 L 476.00 432.00 L 478.00 451.00 L 499.00 478.00 L 520.00 476.00 L 537.00 453.00 L 536.00 432.00 L 516.00 416.00 L 511.00 402.00 Z" 
          class="ultra-vector-path"
          style="fill: rgb(130,27,12); stroke: rgb(130,27,12); fill-rule: evenodd;"
          inkstitch:fill="1"
          inkstitch:color="#821b0c"
          inkstitch:angle="220"
          inkstitch:row_spacing_mm="0.3"
          inkstitch:end_row_spacing_mm="0.3"
          inkstitch:max_stitch_length_mm="2.8"
          inkstitch:staggers="4"
          inkstitch:skip_last="0"
          inkstitch:underpath="1"
          inkstitch:pull_compensation_mm="0.2"
          inkstitch:expand_mm="0.1"
          inkstitch:clockwise="true"
          data-quality="ultra-high"
          data-density="high" />
    <path id="ultra-vector-path-8" 
          d="M 632.00 724.00 L 618.00 729.00 L 608.00 745.00 L 620.00 809.00 L 622.00 850.00 L 639.00 847.00 L 663.00 882.00 L 699.00 1082.00 L 703.00 1226.00 L 684.00 1253.00 L 697.00 1147.00 L 676.00 856.00 Z" 
          class="ultra-vector-path"
          style="fill: rgb(73,55,45); stroke: rgb(73,55,45); fill-rule: evenodd;"
          inkstitch:fill="1"
          inkstitch:color="#49372d"
          inkstitch:angle="65"
          inkstitch:row_spacing_mm="0.3"
          inkstitch:end_row_spacing_mm="0.3"
          inkstitch:max_stitch_length_mm="2.8"
          inkstitch:staggers="4"
          inkstitch:skip_last="0"
          inkstitch:underpath="1"
          inkstitch:pull_compensation_mm="0.1"
          inkstitch:expand_mm="0.1"
          inkstitch:clockwise="true"
          data-quality="ultra-high"
          data-density="high" />
    <path id="ultra-vector-path-9" 
          d="M 816.00 427.00 L 784.00 415.00 L 731.00 423.00 L 710.00 454.00 L 709.00 480.00 L 729.00 474.00 L 746.00 454.00 L 761.00 471.00 L 759.00 510.00 L 754.00 538.00 L 785.00 509.00 L 820.00 473.00 Z" 
          class="ultra-vector-path"
          style="fill: rgb(73,55,45); stroke: rgb(73,55,45); fill-rule: evenodd;"
          inkstitch:fill="1"
          inkstitch:color="#49372d"
          inkstitch:angle="90"
          inkstitch:row_spacing_mm="0.3"
          inkstitch:end_row_spacing_mm="0.3"
          inkstitch:max_stitch_length_mm="2.8"
          inkstitch:staggers="4"
          inkstitch:skip_last="0"
          inkstitch:underpath="1"
          inkstitch:pull_compensation_mm="0.1"
          inkstitch:expand_mm="0.1"
          inkstitch:clockwise="true"
          data-quality="ultra-high"
          data-density="high" />
    <path id="ultra-vector-path-10" 
          d="M 4.00 4.00 Q 207.00 1836.40 1019.00 1531.00 L 1019.00 4.00 Z" 
          class="ultra-vector-path"
          style="fill: rgb(16,61,98); stroke: rgb(16,61,98); fill-rule: evenodd;"
          inkstitch:fill="1"
          inkstitch:color="#103d62"
          inkstitch:angle="115"
          inkstitch:row_spacing_mm="0.3"
          inkstitch:end_row_spacing_mm="0.3"
          inkstitch:max_stitch_length_mm="2.8"
          inkstitch:staggers="4"
          inkstitch:skip_last="0"
          inkstitch:underpath="1"
          inkstitch:pull_compensation_mm="0.1"
          inkstitch:expand_mm="0.1"
          inkstitch:clockwise="true"
          data-quality="ultra-high"
          data-density="high" />
    <path id="ultra-vector-path-11" 
          d="M 277.00 1196.00 L 275.00 1207.00 L 270.00 1223.00 L 272.00 1233.00 L 283.00 1234.00 L 302.00 1231.00 L 317.00 1226.00 L 321.00 1218.00 L 317.00 1213.00 L 308.00 1209.00 L 292.00 1204.00 L 284.00 1197.00 Z" 
          class="ultra-vector-path"
          style="fill: rgb(97,90,4); stroke: rgb(97,90,4); fill-rule: evenodd;"
          inkstitch:fill="1"
          inkstitch:color="#615a04"
          inkstitch:angle="210"
          inkstitch:row_spacing_mm="0.4"
          inkstitch:end_row_spacing_mm="0.4"
          inkstitch:max_stitch_length_mm="3.0"
          inkstitch:staggers="4"
          inkstitch:skip_last="0"
          inkstitch:underpath="1"
          inkstitch:pull_compensation_mm="0.1"
          inkstitch:expand_mm="0.1"
          inkstitch:clockwise="true"
          data-quality="ultra-high"
          data-density="medium-high" />
    <path id="ultra-vector-path-12" 
          d="M 165.00 1024.00 L 128.00 1060.00 L 108.00 1111.00 L 137.00 1159.00 L 175.00 1185.00 L 196.00 1197.00 L 216.00 1196.00 L 234.00 1181.00 L 233.00 1171.00 L 222.00 1156.00 L 199.00 1127.00 L 197.00 1077.00 L 186.00 1029.00 Z" 
          class="ultra-vector-path"
          style="fill: rgb(97,90,4); stroke: rgb(97,90,4); fill-rule: evenodd;"
          inkstitch:fill="1"
          inkstitch:color="#615a04"
          inkstitch:angle="60"
          inkstitch:row_spacing_mm="0.4"
          inkstitch:end_row_spacing_mm="0.4"
          inkstitch:max_stitch_length_mm="3.0"
          inkstitch:staggers="4"
          inkstitch:skip_last="0"
          inkstitch:underpath="1"
          inkstitch:pull_compensation_mm="0.1"
          inkstitch:expand_mm="0.1"
          inkstitch:clockwise="true"
          data-quality="ultra-high"
          data-density="medium-high" />
    <path id="ultra-vector-path-13" 
          d="M 311.00 1031.00 Q 313.80 1074.00 335.00 1086.00 Q 356.40 1100.40 367.00 1093.00 Q 402.20 1068.60 408.00 1076.00 Q 414.20 1090.80 434.00 1085.00 Q 492.40 1055.80 486.00 1029.00 L 443.00 1013.00 L 397.00 1018.00 L 351.00 1014.00 Z" 
          class="ultra-vector-path"
          style="fill: rgb(97,90,4); stroke: rgb(97,90,4); fill-rule: evenodd;"
          inkstitch:fill="1"
          inkstitch:color="#615a04"
          inkstitch:angle="90"
          inkstitch:row_spacing_mm="0.4"
          inkstitch:end_row_spacing_mm="0.4"
          inkstitch:max_stitch_length_mm="3.0"
          inkstitch:staggers="4"
          inkstitch:skip_last="0"
          inkstitch:underpath="1"
          inkstitch:pull_compensation_mm="0.1"
          inkstitch:expand_mm="0.1"
          inkstitch:clockwise="true"
          data-quality="ultra-high"
          data-density="medium-high" />
    <path id="ultra-vector-path-14" 
          d="M 675.00 1012.00 L 626.00 1004.00 L 604.00 1025.00 L 606.00 1064.00 L 617.00 1087.00 L 623.00 1103.00 L 631.00 1102.00 L 647.00 1088.00 L 678.00 1072.00 L 694.00 1052.00 Z" 
          class="ultra-vector-path"
          style="fill: rgb(97,90,4); stroke: rgb(97,90,4); fill-rule: evenodd;"
          inkstitch:fill="1"
          inkstitch:color="#615a04"
          inkstitch:angle="120"
          inkstitch:row_spacing_mm="0.4"
          inkstitch:end_row_spacing_mm="0.4"
          inkstitch:max_stitch_length_mm="3.0"
          inkstitch:staggers="4"
          inkstitch:skip_last="0"
          inkstitch:underpath="1"
          inkstitch:pull_compensation_mm="0.1"
          inkstitch:expand_mm="0.1"
          inkstitch:clockwise="true"
          data-quality="ultra-high"
          data-density="medium-high" />
    <path id="ultra-vector-path-15" 
          d="M 419.00 569.00 L 419.00 595.00 L 440.00 619.00 L 456.00 656.00 L 451.00 688.00 L 440.00 695.00 L 446.00 706.00 L 466.00 679.00 L 475.00 649.00 L 488.00 676.00 L 488.00 743.00 L 511.00 751.00 L 562.00 710.00 L 611.00 721.00 L 613.00 676.00 L 632.00 644.00 L 620.00 629.00 L 554.00 620.00 L 495.00 605.00 L 479.00 612.00 L 458.00 607.00 L 442.00 584.00 L 437.00 570.00 Z" 
          class="ultra-vector-path"
          style="fill: rgb(97,90,4); stroke: rgb(97,90,4); fill-rule: evenodd;"
          inkstitch:fill="1"
          inkstitch:color="#615a04"
          inkstitch:angle="150"
          inkstitch:row_spacing_mm="0.4"
          inkstitch:end_row_spacing_mm="0.4"
          inkstitch:max_stitch_length_mm="3.0"
          inkstitch:staggers="4"
          inkstitch:skip_last="0"
          inkstitch:underpath="1"
          inkstitch:pull_compensation_mm="0.1"
          inkstitch:expand_mm="0.1"
          inkstitch:clockwise="true"
          data-quality="ultra-high"
          data-density="medium-high" />
    <path id="ultra-vector-path-16" 
          d="M 100.00 1093.00 L 138.00 1162.00 Q 232.40 1208.20 255.00 1183.00 Q 322.00 1241.20 380.00 1234.00 Q 428.40 1218.80 437.00 1258.00 L 466.00 1269.00 Q 767.00 1230.80 711.00 1093.00 L 648.00 777.00 Q 620.40 750.40 640.00 769.00 Q 640.20 871.40 616.00 866.00 Q 486.60 846.80 509.00 835.00 Q 485.20 827.20 520.00 751.00 Q 501.40 690.40 447.00 803.00 L 321.00 866.00 Z" 
          class="ultra-vector-path"
          style="fill: rgb(119,113,0); stroke: rgb(119,113,0); fill-rule: evenodd;"
          inkstitch:fill="1"
          inkstitch:color="#777100"
          inkstitch:angle="180"
          inkstitch:row_spacing_mm="0.4"
          inkstitch:end_row_spacing_mm="0.4"
          inkstitch:max_stitch_length_mm="3.0"
          inkstitch:staggers="4"
          inkstitch:skip_last="0"
          inkstitch:underpath="1"
          inkstitch:pull_compensation_mm="0.2"
          inkstitch:expand_mm="0.1"
          inkstitch:clockwise="true"
          data-quality="ultra-high"
          data-density="medium-high" />
    <path id="ultra-vector-path-17" 
          d="M 388.00 424.00 L 363.00 428.00 L 359.00 451.00 L 321.00 505.00 L 308.00 536.00 L 316.00 606.00 L 342.00 668.00 L 353.00 671.00 L 375.00 794.00 L 427.00 755.00 L 441.00 724.00 L 453.00 717.00 L 470.00 673.00 L 469.00 651.00 L 425.00 575.00 L 414.00 571.00 L 412.00 493.00 L 432.00 467.00 Z" 
          class="ultra-vector-path"
          style="fill: rgb(119,113,0); stroke: rgb(119,113,0); fill-rule: evenodd;"
          inkstitch:fill="1"
          inkstitch:color="#777100"
          inkstitch:angle="210"
          inkstitch:row_spacing_mm="0.4"
          inkstitch:end_row_spacing_mm="0.4"
          inkstitch:max_stitch_length_mm="3.0"
          inkstitch:staggers="4"
          inkstitch:skip_last="0"
          inkstitch:underpath="1"
          inkstitch:pull_compensation_mm="0.2"
          inkstitch:expand_mm="0.1"
          inkstitch:clockwise="true"
          data-quality="ultra-high"
          data-density="medium-high" />
    <path id="ultra-vector-path-18" 
          d="M 569.00 1345.00 L 561.00 1401.00 L 537.00 1465.00 Q 555.20 1534.40 573.00 1527.00 L 585.00 1522.00 Q 597.40 1501.60 602.00 1505.00 L 633.00 1531.00 Q 725.40 1521.60 725.00 1494.00 Q 715.20 1456.00 701.00 1454.00 L 646.00 1460.00 Q 622.40 1482.80 618.00 1479.00 Q 615.80 1459.60 627.00 1447.00 Q 588.00 1441.80 597.00 1431.00 Q 619.80 1419.80 616.00 1410.00 Q 583.20 1399.80 592.00 1389.00 Q 620.00 1384.60 617.00 1372.00 Q 583.40 1363.00 589.00 1357.00 L 605.00 1346.00 Z" 
          class="ultra-vector-path"
          style="fill: rgb(139,77,34); stroke: rgb(139,77,34); fill-rule: evenodd;"
          inkstitch:fill="1"
          inkstitch:color="#8b4d22"
          inkstitch:angle="60"
          inkstitch:row_spacing_mm="0.4"
          inkstitch:end_row_spacing_mm="0.4"
          inkstitch:max_stitch_length_mm="3.0"
          inkstitch:staggers="4"
          inkstitch:skip_last="0"
          inkstitch:underpath="1"
          inkstitch:pull_compensation_mm="0.2"
          inkstitch:expand_mm="0.1"
          inkstitch:clockwise="true"
          data-quality="ultra-high"
          data-density="medium-high" />
    <path id="ultra-vector-path-19" 
          d="M 320.00 1312.00 L 247.00 1393.00 L 236.00 1442.00 Q 256.00 1464.40 281.00 1464.00 L 288.00 1491.00 L 307.00 1509.00 Q 389.60 1528.40 395.00 1496.00 L 383.00 1463.00 Q 331.00 1433.60 318.00 1446.00 Q 303.20 1438.20 309.00 1427.00 Q 342.40 1414.20 336.00 1408.00 Q 300.80 1402.20 310.00 1389.00 Q 347.20 1380.00 341.00 1374.00 Q 313.60 1359.60 319.00 1352.00 L 337.00 1347.00 Q 357.20 1352.80 353.00 1346.00 Q 331.40 1332.80 335.00 1320.00 Z" 
          class="ultra-vector-path"
          style="fill: rgb(139,77,34); stroke: rgb(139,77,34); fill-rule: evenodd;"
          inkstitch:fill="1"
          inkstitch:color="#8b4d22"
          inkstitch:angle="90"
          inkstitch:row_spacing_mm="0.4"
          inkstitch:end_row_spacing_mm="0.4"
          inkstitch:max_stitch_length_mm="3.0"
          inkstitch:staggers="4"
          inkstitch:skip_last="0"
          inkstitch:underpath="1"
          inkstitch:pull_compensation_mm="0.2"
          inkstitch:expand_mm="0.1"
          inkstitch:clockwise="true"
          data-quality="ultra-high"
          data-density="medium-high" />
    <path id="ultra-vector-path-20" 
          d="M 488.00 632.00 L 462.00 624.00 L 483.00 662.00 L 481.00 680.00 L 433.00 758.00 L 383.00 800.00 L 367.00 802.00 L 356.00 728.00 L 342.00 717.00 L 248.00 728.00 L 160.00 798.00 L 128.00 840.00 L 114.00 887.00 L 116.00 948.00 L 150.00 1003.00 L 167.00 1012.00 L 319.00 854.00 L 404.00 823.00 L 447.00 793.00 L 501.00 699.00 L 504.00 662.00 Z" 
          class="ultra-vector-path"
          style="fill: rgb(139,77,34); stroke: rgb(139,77,34); fill-rule: evenodd;"
          inkstitch:fill="1"
          inkstitch:color="#8b4d22"
          inkstitch:angle="120"
          inkstitch:row_spacing_mm="0.4"
          inkstitch:end_row_spacing_mm="0.4"
          inkstitch:max_stitch_length_mm="3.0"
          inkstitch:staggers="4"
          inkstitch:skip_last="0"
          inkstitch:underpath="1"
          inkstitch:pull_compensation_mm="0.2"
          inkstitch:expand_mm="0.1"
          inkstitch:clockwise="true"
          data-quality="ultra-high"
          data-density="medium-high" />
    <path id="ultra-vector-path-21" 
          d="M 569.00 1345.00 L 561.00 1401.00 L 537.00 1465.00 Q 555.20 1534.40 573.00 1527.00 L 592.00 1514.00 Q 596.00 1503.20 602.00 1505.00 L 633.00 1531.00 Q 725.40 1521.60 725.00 1494.00 Q 715.20 1456.00 701.00 1454.00 L 646.00 1460.00 Q 622.40 1482.80 618.00 1479.00 Q 615.80 1459.60 627.00 1447.00 Q 588.00 1441.80 597.00 1431.00 Q 619.80 1419.80 616.00 1410.00 Q 583.20 1399.80 592.00 1389.00 Q 620.00 1384.60 617.00 1372.00 Q 583.40 1364.00 589.00 1357.00 L 605.00 1346.00 Z" 
          class="ultra-vector-path"
          style="fill: rgb(161,81,27); stroke: rgb(161,81,27); fill-rule: evenodd;"
          inkstitch:fill="1"
          inkstitch:color="#a1511b"
          inkstitch:angle="150"
          inkstitch:row_spacing_mm="0.4"
          inkstitch:end_row_spacing_mm="0.4"
          inkstitch:max_stitch_length_mm="3.0"
          inkstitch:staggers="4"
          inkstitch:skip_last="0"
          inkstitch:underpath="1"
          inkstitch:pull_compensation_mm="0.2"
          inkstitch:expand_mm="0.1"
          inkstitch:clockwise="true"
          data-quality="ultra-high"
          data-density="medium-high" />
    <path id="ultra-vector-path-22" 
          d="M 320.00 1311.00 L 258.00 1379.00 Q 253.00 1394.80 248.00 1393.00 L 235.00 1441.00 Q 254.20 1463.60 281.00 1464.00 L 288.00 1491.00 L 304.00 1507.00 Q 391.20 1528.80 395.00 1496.00 L 393.00 1478.00 L 383.00 1463.00 Q 331.00 1433.60 318.00 1446.00 Q 303.20 1438.20 309.00 1427.00 Q 341.40 1415.20 336.00 1408.00 Q 303.80 1408.20 305.00 1404.00 Q 319.20 1383.80 341.00 1383.00 Q 336.60 1370.20 319.00 1364.00 L 319.00 1353.00 Q 331.80 1346.60 353.00 1351.00 Q 329.40 1330.60 335.00 1319.00 Z" 
          class="ultra-vector-path"
          style="fill: rgb(161,81,27); stroke: rgb(161,81,27); fill-rule: evenodd;"
          inkstitch:fill="1"
          inkstitch:color="#a1511b"
          inkstitch:angle="180"
          inkstitch:row_spacing_mm="0.4"
          inkstitch:end_row_spacing_mm="0.4"
          inkstitch:max_stitch_length_mm="3.0"
          inkstitch:staggers="4"
          inkstitch:skip_last="0"
          inkstitch:underpath="1"
          inkstitch:pull_compensation_mm="0.2"
          inkstitch:expand_mm="0.1"
          inkstitch:clockwise="true"
          data-quality="ultra-high"
          data-density="medium-high" />
    <path id="ultra-vector-path-23" 
          d="M 483.00 628.00 L 462.00 624.00 L 483.00 671.00 L 436.00 768.00 L 387.00 799.00 L 366.00 804.00 L 353.00 721.00 L 322.00 717.00 L 239.00 733.00 L 152.00 807.00 L 119.00 858.00 L 118.00 954.00 L 150.00 1003.00 L 167.00 1012.00 L 319.00 852.00 L 415.00 816.00 L 454.00 784.00 L 503.00 691.00 L 502.00 655.00 Z" 
          class="ultra-vector-path"
          style="fill: rgb(161,81,27); stroke: rgb(161,81,27); fill-rule: evenodd;"
          inkstitch:fill="1"
          inkstitch:color="#a1511b"
          inkstitch:angle="210"
          inkstitch:row_spacing_mm="0.4"
          inkstitch:end_row_spacing_mm="0.4"
          inkstitch:max_stitch_length_mm="3.0"
          inkstitch:staggers="4"
          inkstitch:skip_last="0"
          inkstitch:underpath="1"
          inkstitch:pull_compensation_mm="0.2"
          inkstitch:expand_mm="0.1"
          inkstitch:clockwise="true"
          data-quality="ultra-high"
          data-density="medium-high" />
    <path id="ultra-vector-path-24" 
          d="M 292.00 415.00 L 361.00 409.00 L 453.00 382.00 L 606.00 396.00 L 800.00 389.00 L 747.00 294.00 L 638.00 149.00 L 547.00 67.00 L 499.00 120.00 L 490.00 216.00 L 448.00 252.00 L 369.00 334.00 Z" 
          class="ultra-vector-path"
          style="fill: rgb(66,136,73); stroke: rgb(66,136,73); fill-rule: evenodd;"
          inkstitch:fill="1"
          inkstitch:color="#428849"
          inkstitch:angle="60"
          inkstitch:row_spacing_mm="0.4"
          inkstitch:end_row_spacing_mm="0.4"
          inkstitch:max_stitch_length_mm="3.0"
          inkstitch:staggers="4"
          inkstitch:skip_last="0"
          inkstitch:underpath="1"
          inkstitch:pull_compensation_mm="0.1"
          inkstitch:expand_mm="0.1"
          inkstitch:clockwise="true"
          data-quality="ultra-high"
          data-density="medium-high" />
    <path id="ultra-vector-path-25" 
          d="M 489.00 220.00 L 487.00 224.00 L 486.00 228.00 L 487.00 234.00 L 491.00 239.00 L 494.00 243.00 L 498.00 243.00 L 499.00 238.00 L 498.00 233.00 L 498.00 228.00 L 496.00 224.00 L 494.00 220.00 Z" 
          class="ultra-vector-path"
          style="fill: rgb(209,95,0); stroke: rgb(209,95,0); fill-rule: evenodd;"
          inkstitch:fill="1"
          inkstitch:color="#d15f00"
          inkstitch:angle="90"
          inkstitch:row_spacing_mm="0.4"
          inkstitch:end_row_spacing_mm="0.4"
          inkstitch:max_stitch_length_mm="3.0"
          inkstitch:staggers="4"
          inkstitch:skip_last="0"
          inkstitch:underpath="0"
          inkstitch:pull_compensation_mm="0.2"
          inkstitch:expand_mm="0.1"
          inkstitch:clockwise="true"
          data-quality="ultra-high"
          data-density="medium-high" />
    <path id="ultra-vector-path-26" 
          d="M 369.00 17.00 L 389.00 51.00 L 425.00 85.00 L 442.00 108.00 L 456.00 130.00 L 457.00 143.00 L 452.00 151.00 L 464.00 167.00 L 473.00 181.00 L 484.00 181.00 L 474.00 135.00 L 440.00 73.00 L 389.00 22.00 Z" 
          class="ultra-vector-path"
          style="fill: rgb(209,95,0); stroke: rgb(209,95,0); fill-rule: evenodd;"
          inkstitch:fill="1"
          inkstitch:color="#d15f00"
          inkstitch:angle="120"
          inkstitch:row_spacing_mm="0.4"
          inkstitch:end_row_spacing_mm="0.4"
          inkstitch:max_stitch_length_mm="3.0"
          inkstitch:staggers="4"
          inkstitch:skip_last="0"
          inkstitch:underpath="0"
          inkstitch:pull_compensation_mm="0.2"
          inkstitch:expand_mm="0.1"
          inkstitch:clockwise="true"
          data-quality="ultra-high"
          data-density="medium-high" />
    <path id="ultra-vector-path-27" 
          d="M 4.00 4.00 Q 207.00 1836.40 1019.00 1531.00 L 1019.00 4.00 Z" 
          class="ultra-vector-path"
          style="fill: rgb(162,154,28); stroke: rgb(162,154,28); fill-rule: evenodd;"
          inkstitch:fill="1"
          inkstitch:color="#a29a1c"
          inkstitch:angle="150"
          inkstitch:row_spacing_mm="0.4"
          inkstitch:end_row_spacing_mm="0.4"
          inkstitch:max_stitch_length_mm="3.0"
          inkstitch:staggers="4"
          inkstitch:skip_last="0"
          inkstitch:underpath="0"
          inkstitch:pull_compensation_mm="0.2"
          inkstitch:expand_mm="0.1"
          inkstitch:clockwise="true"
          data-quality="ultra-high"
          data-density="medium-high" />
    <path id="ultra-vector-path-28" 
          d="M 446.00 383.00 L 392.00 410.00 L 398.00 433.00 L 418.00 462.00 L 417.00 500.00 L 424.00 553.00 L 450.00 598.00 L 468.00 604.00 L 445.00 565.00 L 429.00 510.00 L 440.00 462.00 L 462.00 442.00 L 478.00 440.00 L 498.00 428.00 L 523.00 433.00 L 533.00 445.00 L 534.00 420.00 L 518.00 397.00 Z" 
          class="ultra-vector-path"
          style="fill: rgb(128,112,128); stroke: rgb(128,112,128); fill-rule: evenodd;"
          inkstitch:fill="1"
          inkstitch:color="#807080"
          inkstitch:angle="170"
          inkstitch:row_spacing_mm="0.5"
          inkstitch:end_row_spacing_mm="0.5"
          inkstitch:max_stitch_length_mm="3.2"
          inkstitch:staggers="4"
          inkstitch:skip_last="0"
          inkstitch:underpath="0"
          inkstitch:pull_compensation_mm="0.1"
          inkstitch:expand_mm="0.1"
          inkstitch:clockwise="true"
          data-quality="ultra-high"
          data-density="medium" />
    <path id="ultra-vector-path-29" 
          d="M 4.00 4.00 Q 207.00 1836.40 1019.00 1531.00 L 1019.00 4.00 Z" 
          class="ultra-vector-path"
          style="fill: rgb(116,128,128); stroke: rgb(116,128,128); fill-rule: evenodd;"
          inkstitch:fill="1"
          inkstitch:color="#748080"
          inkstitch:angle="205"
          inkstitch:row_spacing_mm="0.5"
          inkstitch:end_row_spacing_mm="0.5"
          inkstitch:max_stitch_length_mm="3.2"
          inkstitch:staggers="4"
          inkstitch:skip_last="0"
          inkstitch:underpath="0"
          inkstitch:pull_compensation_mm="0.1"
          inkstitch:expand_mm="0.1"
          inkstitch:clockwise="true"
          data-quality="ultra-high"
          data-density="medium" />
    <path id="ultra-vector-path-30" 
          d="M 4.00 4.00 Q 207.00 1836.40 1019.00 1531.00 L 1019.00 4.00 Z" 
          class="ultra-vector-path"
          style="fill: rgb(177,121,79); stroke: rgb(177,121,79); fill-rule: evenodd;"
          inkstitch:fill="1"
          inkstitch:color="#b1794f"
          inkstitch:angle="240"
          inkstitch:row_spacing_mm="0.5"
          inkstitch:end_row_spacing_mm="0.5"
          inkstitch:max_stitch_length_mm="3.2"
          inkstitch:staggers="4"
          inkstitch:skip_last="0"
          inkstitch:underpath="0"
          inkstitch:pull_compensation_mm="0.1"
          inkstitch:expand_mm="0.1"
          inkstitch:clockwise="true"
          data-quality="ultra-high"
          data-density="medium" />
    <path id="ultra-vector-path-31" 
          d="M 4.00 4.00 Q 207.00 1836.40 1019.00 1531.00 L 1019.00 4.00 Z" 
          class="ultra-vector-path"
          style="fill: rgb(106,188,116); stroke: rgb(106,188,116); fill-rule: evenodd;"
          inkstitch:fill="1"
          inkstitch:color="#6abc74"
          inkstitch:angle="95"
          inkstitch:row_spacing_mm="0.5"
          inkstitch:end_row_spacing_mm="0.5"
          inkstitch:max_stitch_length_mm="3.2"
          inkstitch:staggers="4"
          inkstitch:skip_last="0"
          inkstitch:underpath="0"
          inkstitch:pull_compensation_mm="0.1"
          inkstitch:expand_mm="0.1"
          inkstitch:clockwise="true"
          data-quality="ultra-high"
          data-density="medium" />
    <path id="ultra-vector-path-32" 
          d="M 4.00 4.00 Q 207.00 1836.40 1019.00 1531.00 L 1019.00 4.00 Z" 
          class="ultra-vector-path"
          style="fill: rgb(250,150,26); stroke: rgb(250,150,26); fill-rule: evenodd;"
          inkstitch:fill="1"
          inkstitch:color="#fa961a"
          inkstitch:angle="130"
          inkstitch:row_spacing_mm="0.5"
          inkstitch:end_row_spacing_mm="0.5"
          inkstitch:max_stitch_length_mm="3.2"
          inkstitch:staggers="4"
          inkstitch:skip_last="0"
          inkstitch:underpath="0"
          inkstitch:pull_compensation_mm="0.2"
          inkstitch:expand_mm="0.1"
          inkstitch:clockwise="true"
          data-quality="ultra-high"
          data-density="medium" />
    <path id="ultra-vector-path-33" 
          d="M 583.00 649.00 L 583.00 653.00 L 593.00 656.00 L 624.00 693.00 Q 627.40 705.20 631.00 704.00 L 631.00 709.00 L 634.00 709.00 L 638.00 718.00 L 642.00 719.00 L 642.00 724.00 Q 652.40 727.60 659.00 742.00 Q 679.60 756.00 687.00 742.00 L 690.00 723.00 L 694.00 718.00 L 697.00 663.00 L 687.00 651.00 L 664.00 645.00 L 585.00 648.00 Z" 
          class="ultra-vector-path"
          style="fill: rgb(222,171,96); stroke: rgb(222,171,96); fill-rule: evenodd;"
          inkstitch:fill="1"
          inkstitch:color="#deab60"
          inkstitch:angle="225"
          inkstitch:row_spacing_mm="0.6"
          inkstitch:end_row_spacing_mm="0.6"
          inkstitch:max_stitch_length_mm="3.5"
          inkstitch:staggers="4"
          inkstitch:skip_last="0"
          inkstitch:underpath="0"
          inkstitch:pull_compensation_mm="0.2"
          inkstitch:expand_mm="0.1"
          inkstitch:clockwise="true"
          data-quality="ultra-high"
          data-density="medium-low" />
    <path id="ultra-vector-path-34" 
          d="M 188.00 563.00 L 163.00 608.00 L 158.00 629.00 L 158.00 644.00 L 163.00 651.00 L 171.00 652.00 L 171.00 684.00 L 181.00 706.00 L 190.00 710.00 L 218.00 714.00 L 351.00 710.00 L 348.00 688.00 L 345.00 687.00 L 342.00 677.00 L 332.00 672.00 L 332.00 659.00 L 313.00 621.00 L 301.00 569.00 L 239.00 550.00 L 206.00 551.00 L 197.00 554.00 Z" 
          class="ultra-vector-path"
          style="fill: rgb(222,171,96); stroke: rgb(222,171,96); fill-rule: evenodd;"
          inkstitch:fill="1"
          inkstitch:color="#deab60"
          inkstitch:angle="250"
          inkstitch:row_spacing_mm="0.6"
          inkstitch:end_row_spacing_mm="0.6"
          inkstitch:max_stitch_length_mm="3.5"
          inkstitch:staggers="4"
          inkstitch:skip_last="0"
          inkstitch:underpath="0"
          inkstitch:pull_compensation_mm="0.2"
          inkstitch:expand_mm="0.1"
          inkstitch:clockwise="true"
          data-quality="ultra-high"
          data-density="medium-low" />
    <path id="ultra-vector-path-35" 
          d="M 498.00 627.00 L 516.00 666.00 Q 538.20 693.80 542.00 690.00 Q 541.40 728.60 514.00 763.00 Q 512.60 808.80 507.00 802.00 Q 495.40 840.60 519.00 830.00 Q 538.20 852.40 620.00 862.00 Q 625.20 840.40 636.00 844.00 L 627.00 782.00 L 631.00 754.00 L 607.00 684.00 Q 577.60 657.20 565.00 665.00 Q 549.20 652.20 541.00 656.00 L 515.00 630.00 Z" 
          class="ultra-vector-path"
          style="fill: rgb(255,228,9); stroke: rgb(255,228,9); fill-rule: evenodd;"
          inkstitch:fill="1"
          inkstitch:color="#ffe409"
          inkstitch:angle="275"
          inkstitch:row_spacing_mm="0.6"
          inkstitch:end_row_spacing_mm="0.6"
          inkstitch:max_stitch_length_mm="3.5"
          inkstitch:staggers="4"
          inkstitch:skip_last="0"
          inkstitch:underpath="0"
          inkstitch:pull_compensation_mm="0.2"
          inkstitch:expand_mm="0.1"
          inkstitch:clockwise="true"
          data-quality="ultra-high"
          data-density="medium-low" />
    <path id="ultra-vector-path-36" 
          d="M 416.00 407.00 L 424.00 451.00 L 428.00 504.00 L 464.00 561.00 L 566.00 613.00 L 681.00 585.00 L 741.00 512.00 L 743.00 460.00 L 730.00 472.00 L 705.00 486.00 L 676.00 469.00 L 653.00 430.00 L 608.00 432.00 L 571.00 466.00 L 525.00 476.00 L 487.00 440.00 L 476.00 395.00 L 441.00 380.00 Z" 
          class="ultra-vector-path"
          style="fill: rgb(254,198,172); stroke: rgb(254,198,172); fill-rule: evenodd;"
          inkstitch:fill="1"
          inkstitch:color="#fec6ac"
          inkstitch:angle="135"
          inkstitch:row_spacing_mm="0.7"
          inkstitch:end_row_spacing_mm="0.7"
          inkstitch:max_stitch_length_mm="3.8"
          inkstitch:staggers="4"
          inkstitch:skip_last="0"
          inkstitch:underpath="0"
          inkstitch:pull_compensation_mm="0.1"
          inkstitch:expand_mm="0.1"
          inkstitch:clockwise="true"
          data-quality="ultra-high"
          data-density="low" />
    <path id="ultra-vector-path-37" 
          d="M 4.00 4.00 Q 207.00 1836.40 1019.00 1531.00 L 1019.00 4.00 Z" 
          class="ultra-vector-path"
          style="fill: rgb(255,241,164); stroke: rgb(255,241,164); fill-rule: evenodd;"
          inkstitch:fill="1"
          inkstitch:color="#fff1a4"
          inkstitch:angle="155"
          inkstitch:row_spacing_mm="0.7"
          inkstitch:end_row_spacing_mm="0.7"
          inkstitch:max_stitch_length_mm="3.8"
          inkstitch:staggers="4"
          inkstitch:skip_last="0"
          inkstitch:underpath="0"
          inkstitch:pull_compensation_mm="0.1"
          inkstitch:expand_mm="0.1"
          inkstitch:clockwise="true"
          data-quality="ultra-high"
          data-density="low" />
    <path id="ultra-vector-path-38" 
          d="M 527.00 1284.00 L 478.00 1273.00 L 430.00 1283.00 L 391.00 1325.00 L 364.00 1364.00 L 360.00 1417.00 L 387.00 1475.00 L 423.00 1515.00 L 504.00 1510.00 L 536.00 1452.00 L 549.00 1376.00 L 544.00 1328.00 Z" 
          class="ultra-vector-path"
          style="fill: rgb(254,254,254); stroke: rgb(254,254,254); fill-rule: evenodd;"
          inkstitch:fill="1"
          inkstitch:color="#fefefe"
          inkstitch:angle="175"
          inkstitch:row_spacing_mm="0.7"
          inkstitch:end_row_spacing_mm="0.7"
          inkstitch:max_stitch_length_mm="3.8"
          inkstitch:staggers="4"
          inkstitch:skip_last="0"
          inkstitch:underpath="0"
          inkstitch:pull_compensation_mm="0.1"
          inkstitch:expand_mm="0.1"
          inkstitch:clockwise="true"
          data-quality="ultra-high"
          data-density="low" />
    <path id="ultra-vector-path-39" 
          d="M 703.00 111.00 L 745.00 269.00 L 835.00 437.00 L 704.00 570.00 L 606.00 629.00 L 654.00 693.00 L 673.00 858.00 L 690.00 1150.00 L 662.00 1294.00 L 654.00 1397.00 L 705.00 1463.00 L 785.00 1478.00 L 937.00 1173.00 L 906.00 365.00 Z" 
          class="ultra-vector-path"
          style="fill: rgb(254,254,254); stroke: rgb(254,254,254); fill-rule: evenodd;"
          inkstitch:fill="1"
          inkstitch:color="#fefefe"
          inkstitch:angle="195"
          inkstitch:row_spacing_mm="0.7"
          inkstitch:end_row_spacing_mm="0.7"
          inkstitch:max_stitch_length_mm="3.8"
          inkstitch:staggers="4"
          inkstitch:skip_last="0"
          inkstitch:underpath="0"
          inkstitch:pull_compensation_mm="0.1"
          inkstitch:expand_mm="0.1"
          inkstitch:clockwise="true"
          data-quality="ultra-high"
          data-density="low" />
    <path id="ultra-vector-path-40" 
          d="M 92.00 361.00 L 84.00 1173.00 L 231.00 1470.00 L 259.00 1410.00 L 246.00 1253.00 L 153.00 1115.00 L 138.00 1001.00 L 149.00 862.00 L 194.00 728.00 L 207.00 610.00 L 255.00 516.00 L 263.00 437.00 L 362.00 310.00 L 402.00 150.00 L 290.00 73.00 Z" 
          class="ultra-vector-path"
          style="fill: rgb(254,254,254); stroke: rgb(254,254,254); fill-rule: evenodd;"
          inkstitch:fill="1"
          inkstitch:color="#fefefe"
          inkstitch:angle="215"
          inkstitch:row_spacing_mm="0.7"
          inkstitch:end_row_spacing_mm="0.7"
          inkstitch:max_stitch_length_mm="3.8"
          inkstitch:staggers="4"
          inkstitch:skip_last="0"
          inkstitch:underpath="0"
          inkstitch:pull_compensation_mm="0.1"
          inkstitch:expand_mm="0.1"
          inkstitch:clockwise="true"
          data-quality="ultra-high"
          data-density="low" />
  </g>
  <metadata>
    <rdf:RDF xmlns:rdf="http://www.w3.org/1999/02/22-rdf-syntax-ns#">
      <rdf:Description rdf:about="">
        <dc:title xmlns:dc="http://purl.org/dc/elements/1.1/">Ultra High-Quality Vector Art</dc:title>
        <dc:description xmlns:dc="http://purl.org/dc/elements/1.1/">Generated with AI-enhanced vectorization</dc:description>
        <dc:creator xmlns:dc="http://purl.org/dc/elements/1.1/">Ultra Vector Generator</dc:creator>
      </rdf:Description>
    </rdf:RDF>
  </metadata>
</svg>