<?xml version="1.0" encoding="UTF-8"?>
<svg width="1000" height="1500" viewBox="0 0 1000 1500" 
     xmlns="http://www.w3.org/2000/svg"
     xmlns:inkscape="http://www.inkscape.org/namespaces/inkscape"
     xmlns:inkstitch="http://inkstitch.org/namespace">
  <title>Ultra High-Quality Vector Art - AI Enhanced</title>
  <defs>
    <style>
      .ultra-vector-path {
        stroke-width: 0.05;
        stroke-linejoin: round;
        stroke-linecap: round;
        fill-opacity: 1.0;
        stroke-opacity: 0.8;
        shape-rendering: geometricPrecision;
        vector-effect: non-scaling-stroke;
      }
    </style>
  </defs>
  <g inkscape:label="Ultra Vector Shapes" inkscape:groupmode="layer">
    <path id="ultra-vector-path-0" 
          d="M 546.000 1242.000 L 546.000 1244.000 L 545.000 1245.000 L 545.000 1249.000 L 544.000 1250.000 L 544.000 1252.000 L 543.000 1253.000 L 543.000 1258.000 L 542.000 1259.000 L 542.000 1263.000 L 541.000 1264.000 L 541.000 1271.000 L 540.000 1272.000 L 540.000 1278.000 L 539.000 1279.000 L 539.000 1284.000 L 538.000 1285.000 L 538.000 1289.000 L 537.000 1290.000 L 537.000 1294.000 L 536.000 1295.000 L 536.000 1300.000 L 538.000 1300.000 L 540.000 1298.000 L 541.000 1298.000 L 544.000 1295.000 L 547.000 1295.000 L 548.000 1296.000 L 548.000 1301.000 L 547.000 1302.000 L 547.000 1311.000 L 550.000 1311.000 L 552.000 1309.000 L 553.000 1309.000 L 555.000 1307.000 L 556.000 1307.000 L 559.000 1305.000 L 565.000 1305.000 L 567.000 1307.000 L 567.000 1308.000 L 568.000 1309.000 L 568.000 1311.000 L 572.000 1311.000 L 574.000 1309.000 L 575.000 1309.000 L 576.000 1308.000 L 595.000 1308.000 L 596.000 1309.000 L 605.000 1309.000 L 606.000 1310.000 Q 633.600 1301.150 630.000 1251.000 L 631.000 1250.000 L 631.000 1241.000 L 624.000 1241.000 L 623.000 1242.000 L 613.000 1242.000 L 612.000 1243.000 L 605.000 1243.000 L 604.000 1244.000 L 593.000 1244.000 L 592.000 1245.000 L 580.000 1245.000 L 579.000 1244.000 L 565.000 1244.000 L 564.000 1243.000 L 559.000 1243.000 L 558.000 1242.000 L 553.000 1242.000 L 552.000 1241.000 L 547.000 1241.000 Z" 
          class="ultra-vector-path"
          style="fill: rgb(14,70,14); stroke: rgb(14,70,14); fill-rule: evenodd;"
          inkstitch:fill="1"
          inkstitch:color="#0e460e"
          inkstitch:angle="45"
          inkstitch:row_spacing_mm="0.3"
          inkstitch:end_row_spacing_mm="0.3"
          inkstitch:max_stitch_length_mm="2.8"
          inkstitch:staggers="4"
          inkstitch:skip_last="0"
          inkstitch:underpath="1"
          inkstitch:pull_compensation_mm="0.1"
          inkstitch:expand_mm="0.1"
          inkstitch:clockwise="true"
          data-quality="ultra-high"
          data-density="high" />
    <path id="ultra-vector-path-1" 
          d="M 414.000 1205.000 L 411.000 1205.000 L 409.000 1207.000 L 408.000 1207.000 L 394.000 1217.000 L 392.000 1217.000 L 391.000 1216.000 L 391.000 1214.000 L 398.000 1201.000 L 399.000 1196.000 L 396.000 1196.000 L 386.000 1204.000 L 385.000 1204.000 L 380.000 1208.000 L 374.000 1211.000 L 363.000 1211.000 L 362.000 1210.000 L 359.000 1210.000 L 358.000 1209.000 L 353.000 1209.000 L 349.000 1207.000 L 345.000 1207.000 L 341.000 1205.000 L 337.000 1205.000 L 336.000 1204.000 L 333.000 1204.000 L 332.000 1203.000 L 329.000 1203.000 L 328.000 1202.000 L 324.000 1202.000 L 322.000 1207.000 L 318.000 1212.000 L 314.000 1220.000 L 312.000 1222.000 L 312.000 1223.000 L 310.000 1225.000 L 308.000 1229.000 L 301.000 1237.000 L 301.000 1238.000 L 297.000 1243.000 L 297.000 1245.000 L 299.000 1245.000 L 307.000 1240.000 L 310.000 1240.000 L 311.000 1241.000 L 311.000 1245.000 L 304.000 1253.000 L 301.000 1259.000 L 301.000 1261.000 L 303.000 1262.000 L 305.000 1262.000 L 307.000 1264.000 L 308.000 1264.000 L 318.000 1273.000 L 319.000 1273.000 L 321.000 1275.000 L 325.000 1277.000 L 328.000 1280.000 L 329.000 1280.000 L 331.000 1282.000 L 335.000 1284.000 L 338.000 1284.000 L 340.000 1283.000 L 353.000 1272.000 L 361.000 1268.000 L 363.000 1266.000 L 365.000 1266.000 L 366.000 1267.000 L 366.000 1270.000 L 365.000 1271.000 L 365.000 1276.000 L 364.000 1277.000 L 364.000 1283.000 L 367.000 1283.000 L 369.000 1281.000 L 372.000 1281.000 L 374.000 1283.000 L 374.000 1288.000 L 375.000 1289.000 L 375.000 1299.000 L 377.000 1299.000 L 390.000 1272.000 L 392.000 1270.000 L 393.000 1267.000 L 399.000 1259.000 L 400.000 1256.000 L 402.000 1254.000 L 403.000 1251.000 L 405.000 1249.000 L 406.000 1246.000 L 410.000 1241.000 L 411.000 1238.000 L 413.000 1236.000 L 413.000 1235.000 L 415.000 1233.000 L 417.000 1229.000 L 417.000 1225.000 L 412.000 1218.000 L 412.000 1212.000 L 413.000 1211.000 L 413.000 1208.000 L 414.000 1207.000 Z" 
          class="ultra-vector-path"
          style="fill: rgb(14,70,14); stroke: rgb(14,70,14); fill-rule: evenodd;"
          inkstitch:fill="1"
          inkstitch:color="#0e460e"
          inkstitch:angle="70"
          inkstitch:row_spacing_mm="0.3"
          inkstitch:end_row_spacing_mm="0.3"
          inkstitch:max_stitch_length_mm="2.8"
          inkstitch:staggers="4"
          inkstitch:skip_last="0"
          inkstitch:underpath="1"
          inkstitch:pull_compensation_mm="0.1"
          inkstitch:expand_mm="0.1"
          inkstitch:clockwise="true"
          data-quality="ultra-high"
          data-density="high" />
    <path id="ultra-vector-path-2" 
          d="M 766.00 454.00 L 766.00 460.00 L 767.00 461.00 L 767.00 464.00 L 768.00 465.00 L 768.00 469.00 L 767.00 470.00 L 766.00 470.00 L 766.00 474.00 L 767.00 474.00 L 768.00 475.00 L 777.00 475.00 L 779.00 473.00 L 782.00 473.00 L 782.00 468.00 L 780.00 466.00 L 779.00 466.00 L 778.00 465.00 L 778.00 463.00 L 777.00 463.00 L 768.00 454.00 Z" 
          class="ultra-vector-path"
          style="fill: rgb(14,70,14); stroke: rgb(14,70,14); fill-rule: evenodd;"
          inkstitch:fill="1"
          inkstitch:color="#0e460e"
          inkstitch:angle="95"
          inkstitch:row_spacing_mm="0.3"
          inkstitch:end_row_spacing_mm="0.3"
          inkstitch:max_stitch_length_mm="2.8"
          inkstitch:staggers="4"
          inkstitch:skip_last="0"
          inkstitch:underpath="1"
          inkstitch:pull_compensation_mm="0.1"
          inkstitch:expand_mm="0.1"
          inkstitch:clockwise="true"
          data-quality="ultra-high"
          data-density="high" />
    <path id="ultra-vector-path-3" 
          d="M 805.000 413.000 L 805.000 418.000 L 807.000 420.000 L 807.000 421.000 L 809.000 423.000 L 809.000 425.000 L 811.000 427.000 L 811.000 429.000 L 813.000 431.000 L 813.000 433.000 L 814.000 434.000 L 814.000 436.000 L 815.000 437.000 L 815.000 438.000 L 817.000 440.000 L 817.000 443.000 L 818.000 443.000 L 819.000 444.000 L 819.000 447.000 L 820.000 448.000 L 820.000 451.000 L 821.000 452.000 L 821.000 456.000 L 823.000 458.000 L 825.000 458.000 L 826.000 457.000 L 830.000 457.000 L 831.000 456.000 L 833.000 456.000 L 834.000 455.000 L 836.000 455.000 L 839.000 453.000 L 839.000 451.000 L 840.000 450.000 L 842.000 450.000 L 842.000 434.000 L 843.000 433.000 L 845.000 433.000 L 846.000 434.000 L 848.000 434.000 L 848.000 431.000 L 851.000 428.000 L 855.000 428.000 L 856.000 427.000 L 859.000 427.000 L 860.000 428.000 L 861.000 428.000 L 863.000 430.000 L 863.000 431.000 L 865.000 431.000 L 866.000 432.000 L 867.000 432.000 L 868.000 433.000 L 868.000 434.000 L 869.000 434.000 L 872.000 437.000 L 873.000 437.000 L 877.000 441.000 L 877.000 442.000 L 883.000 442.000 L 887.000 438.000 L 888.000 438.000 L 888.000 437.000 L 889.000 436.000 L 890.000 436.000 L 893.000 434.000 L 898.000 434.000 L 900.000 432.000 L 901.000 432.000 L 902.000 431.000 L 905.000 431.000 L 906.000 430.000 L 907.000 430.000 L 908.000 429.000 L 909.000 429.000 L 910.000 428.000 L 911.000 428.000 L 912.000 427.000 L 913.000 427.000 L 913.000 425.000 L 910.000 425.000 L 909.000 424.000 L 904.000 424.000 L 903.000 423.000 L 898.000 423.000 L 897.000 422.000 L 893.000 422.000 L 892.000 421.000 L 892.000 419.000 L 887.000 419.000 L 886.000 420.000 L 881.000 420.000 L 880.000 419.000 L 878.000 419.000 L 877.000 418.000 L 870.000 418.000 L 869.000 417.000 L 865.000 417.000 L 864.000 416.000 L 858.000 416.000 L 857.000 415.000 L 852.000 415.000 L 851.000 414.000 L 847.000 414.000 L 846.000 413.000 L 842.000 413.000 L 841.000 412.000 L 838.000 412.000 L 837.000 411.000 L 832.000 411.000 L 831.000 410.000 L 829.000 410.000 L 828.000 409.000 L 822.000 409.000 L 819.000 407.000 L 816.000 407.000 L 815.000 406.000 L 812.000 406.000 L 811.000 405.000 L 809.000 405.000 L 809.000 409.000 L 808.000 410.000 L 807.000 410.000 L 807.000 412.000 L 806.000 413.000 Z" 
          class="ultra-vector-path"
          style="fill: rgb(14,70,14); stroke: rgb(14,70,14); fill-rule: evenodd;"
          inkstitch:fill="1"
          inkstitch:color="#0e460e"
          inkstitch:angle="120"
          inkstitch:row_spacing_mm="0.3"
          inkstitch:end_row_spacing_mm="0.3"
          inkstitch:max_stitch_length_mm="2.8"
          inkstitch:staggers="4"
          inkstitch:skip_last="0"
          inkstitch:underpath="1"
          inkstitch:pull_compensation_mm="0.1"
          inkstitch:expand_mm="0.1"
          inkstitch:clockwise="true"
          data-quality="ultra-high"
          data-density="high" />
    <path id="ultra-vector-path-4" 
          d="M 429.00 1218.00 L 429.00 1223.00 L 428.00 1224.00 L 428.00 1228.00 L 430.00 1230.00 L 431.00 1230.00 L 432.00 1231.00 L 432.00 1232.00 L 433.00 1233.00 L 435.00 1233.00 L 436.00 1234.00 L 444.00 1234.00 L 445.00 1235.00 L 445.00 1236.00 L 446.00 1236.00 L 447.00 1237.00 L 448.00 1237.00 L 449.00 1238.00 L 451.00 1238.00 L 452.00 1239.00 L 454.00 1239.00 L 455.00 1240.00 L 460.00 1240.00 L 460.00 1238.00 L 461.00 1237.00 L 464.00 1237.00 L 464.00 1231.00 L 461.00 1231.00 L 459.00 1229.00 L 457.00 1229.00 L 456.00 1228.00 L 455.00 1228.00 L 454.00 1227.00 L 448.00 1227.00 L 447.00 1226.00 L 447.00 1225.00 L 446.00 1224.00 L 441.00 1224.00 L 440.00 1223.00 L 439.00 1223.00 L 438.00 1222.00 L 438.00 1221.00 L 437.00 1220.00 L 434.00 1220.00 L 433.00 1219.00 L 433.00 1218.00 Z" 
          class="ultra-vector-path"
          style="fill: rgb(65,64,5); stroke: rgb(65,64,5); fill-rule: evenodd;"
          inkstitch:fill="1"
          inkstitch:color="#414005"
          inkstitch:angle="145"
          inkstitch:row_spacing_mm="0.3"
          inkstitch:end_row_spacing_mm="0.3"
          inkstitch:max_stitch_length_mm="2.8"
          inkstitch:staggers="4"
          inkstitch:skip_last="0"
          inkstitch:underpath="1"
          inkstitch:pull_compensation_mm="0.1"
          inkstitch:expand_mm="0.1"
          inkstitch:clockwise="true"
          data-quality="ultra-high"
          data-density="high" />
    <path id="ultra-vector-path-5" 
          d="M 260.000 1203.000 L 260.000 1205.000 L 261.000 1206.000 L 261.000 1207.000 L 262.000 1207.000 L 263.000 1208.000 L 264.000 1208.000 L 265.000 1209.000 L 272.000 1209.000 L 273.000 1208.000 L 276.000 1208.000 L 277.000 1207.000 L 279.000 1207.000 L 280.000 1206.000 L 282.000 1206.000 L 283.000 1205.000 L 286.000 1205.000 L 287.000 1204.000 L 290.000 1204.000 L 291.000 1203.000 L 295.000 1203.000 L 296.000 1202.000 L 313.000 1202.000 L 314.000 1203.000 L 314.000 1204.000 L 316.000 1204.000 L 316.000 1203.000 L 317.000 1202.000 L 317.000 1200.000 L 316.000 1199.000 L 315.000 1199.000 L 314.000 1198.000 L 313.000 1198.000 L 312.000 1197.000 L 311.000 1197.000 L 310.000 1196.000 L 309.000 1196.000 L 308.000 1195.000 L 307.000 1195.000 L 306.000 1194.000 L 305.000 1194.000 L 304.000 1193.000 L 303.000 1193.000 L 302.000 1192.000 L 299.000 1192.000 L 298.000 1191.000 L 298.000 1190.000 L 297.000 1190.000 L 296.000 1189.000 L 295.000 1189.000 L 294.000 1188.000 L 291.000 1188.000 L 290.000 1187.000 L 287.000 1187.000 L 286.000 1186.000 L 286.000 1185.000 L 283.000 1185.000 L 282.000 1184.000 L 282.000 1183.000 L 280.000 1183.000 L 279.000 1182.000 L 279.000 1181.000 L 278.000 1180.000 L 277.000 1180.000 L 276.000 1179.000 L 270.000 1179.000 L 270.000 1180.000 L 269.000 1181.000 L 269.000 1182.000 L 268.000 1183.000 L 268.000 1184.000 L 267.000 1185.000 L 267.000 1186.000 L 266.000 1187.000 L 266.000 1190.000 L 264.000 1192.000 L 264.000 1195.000 L 262.000 1197.000 L 262.000 1199.000 L 261.000 1200.000 L 261.000 1202.000 Z" 
          class="ultra-vector-path"
          style="fill: rgb(65,64,5); stroke: rgb(65,64,5); fill-rule: evenodd;"
          inkstitch:fill="1"
          inkstitch:color="#414005"
          inkstitch:angle="170"
          inkstitch:row_spacing_mm="0.3"
          inkstitch:end_row_spacing_mm="0.3"
          inkstitch:max_stitch_length_mm="2.8"
          inkstitch:staggers="4"
          inkstitch:skip_last="0"
          inkstitch:underpath="1"
          inkstitch:pull_compensation_mm="0.1"
          inkstitch:expand_mm="0.1"
          inkstitch:clockwise="true"
          data-quality="ultra-high"
          data-density="high" />
    <path id="ultra-vector-path-6" 
          d="M 104.000 1095.000 L 104.000 1100.000 L 106.000 1100.000 L 111.000 1105.000 L 111.000 1108.000 L 113.000 1108.000 L 118.000 1113.000 L 118.000 1116.000 L 120.000 1116.000 L 124.000 1120.000 L 124.000 1121.000 L 126.000 1123.000 L 126.000 1124.000 L 135.000 1133.000 L 135.000 1135.000 L 136.000 1136.000 L 137.000 1136.000 L 139.000 1138.000 L 140.000 1138.000 L 145.000 1141.000 L 148.000 1141.000 L 149.000 1142.000 L 149.000 1143.000 L 150.000 1143.000 L 151.000 1144.000 L 156.000 1144.000 L 157.000 1145.000 L 157.000 1147.000 L 162.000 1147.000 L 165.000 1149.000 L 165.000 1151.000 L 170.000 1151.000 L 171.000 1152.000 L 171.000 1153.000 L 174.000 1155.000 L 177.000 1155.000 L 179.000 1152.000 L 182.000 1152.000 L 182.000 1149.000 L 183.000 1148.000 L 185.000 1148.000 L 186.000 1147.000 L 188.000 1147.000 L 189.000 1148.000 L 189.000 1153.000 L 188.000 1154.000 L 188.000 1163.000 L 190.000 1163.000 L 192.000 1165.000 L 192.000 1168.000 L 195.000 1168.000 L 196.000 1169.000 L 196.000 1171.000 L 197.000 1171.000 L 199.000 1173.000 L 200.000 1173.000 L 205.000 1177.000 L 209.000 1177.000 L 212.000 1175.000 L 214.000 1175.000 L 216.000 1173.000 L 216.000 1172.000 L 217.000 1171.000 L 219.000 1171.000 L 219.000 1170.000 L 220.000 1169.000 L 222.000 1169.000 L 222.000 1168.000 L 223.000 1167.000 L 224.000 1167.000 L 227.000 1164.000 L 228.000 1164.000 L 229.000 1163.000 L 231.000 1163.000 L 231.000 1162.000 L 232.000 1161.000 L 233.000 1161.000 L 235.000 1159.000 L 236.000 1159.000 L 236.000 1156.000 L 235.000 1156.000 L 230.000 1152.000 L 229.000 1152.000 L 224.000 1149.000 L 221.000 1149.000 L 220.000 1148.000 L 219.000 1148.000 L 218.000 1147.000 L 218.000 1146.000 L 216.000 1146.000 L 215.000 1145.000 L 215.000 1144.000 L 213.000 1144.000 L 212.000 1143.000 L 211.000 1143.000 L 209.000 1141.000 L 206.000 1140.000 L 204.000 1138.000 L 203.000 1138.000 L 201.000 1136.000 L 200.000 1136.000 L 199.000 1135.000 L 199.000 1134.000 L 197.000 1134.000 L 195.000 1132.000 L 194.000 1132.000 L 193.000 1131.000 L 193.000 1129.000 L 189.000 1129.000 L 187.000 1126.000 L 184.000 1126.000 L 182.000 1123.000 L 179.000 1122.000 L 177.000 1120.000 L 175.000 1120.000 L 173.000 1118.000 L 172.000 1118.000 L 169.000 1116.000 L 166.000 1116.000 L 165.000 1115.000 L 165.000 1114.000 L 163.000 1114.000 L 160.000 1112.000 L 158.000 1112.000 L 157.000 1111.000 L 156.000 1111.000 L 155.000 1110.000 L 153.000 1110.000 L 152.000 1109.000 L 149.000 1109.000 L 148.000 1108.000 L 145.000 1108.000 L 144.000 1107.000 L 141.000 1107.000 L 140.000 1106.000 L 125.000 1106.000 L 124.000 1105.000 L 123.000 1105.000 L 121.000 1103.000 L 121.000 1100.000 L 122.000 1099.000 L 122.000 1097.000 L 121.000 1096.000 L 118.000 1096.000 L 117.000 1095.000 L 113.000 1095.000 L 112.000 1094.000 L 108.000 1094.000 L 107.000 1095.000 Z" 
          class="ultra-vector-path"
          style="fill: rgb(65,64,5); stroke: rgb(65,64,5); fill-rule: evenodd;"
          inkstitch:fill="1"
          inkstitch:color="#414005"
          inkstitch:angle="195"
          inkstitch:row_spacing_mm="0.3"
          inkstitch:end_row_spacing_mm="0.3"
          inkstitch:max_stitch_length_mm="2.8"
          inkstitch:staggers="4"
          inkstitch:skip_last="0"
          inkstitch:underpath="1"
          inkstitch:pull_compensation_mm="0.1"
          inkstitch:expand_mm="0.1"
          inkstitch:clockwise="true"
          data-quality="ultra-high"
          data-density="high" />
    <path id="ultra-vector-path-7" 
          d="M 126.000 1048.000 Q 144.250 1062.800 141.000 1080.000 L 147.000 1087.000 Q 161.050 1098.650 174.000 1098.000 L 188.000 1108.000 L 197.000 1117.000 L 234.000 1139.000 L 255.000 1150.000 L 272.000 1155.000 Q 292.550 1168.300 289.000 1177.000 Q 308.450 1176.750 312.000 1182.000 L 357.000 1195.000 L 362.000 1189.000 Q 377.550 1178.550 379.000 1166.000 L 401.000 1160.000 Q 422.200 1166.700 429.000 1178.000 Q 419.600 1184.350 433.000 1187.000 L 441.000 1209.000 L 447.000 1213.000 L 465.000 1222.000 L 532.000 1223.000 L 536.000 1226.000 L 555.000 1233.000 L 580.000 1231.000 Q 629.800 1212.050 632.000 1218.000 L 678.000 1226.000 Q 699.500 1218.200 688.000 1114.000 L 686.000 1089.000 L 687.000 1069.000 L 687.000 1052.000 L 686.000 1045.000 L 680.000 1012.000 L 679.000 998.000 L 671.000 948.000 L 667.000 919.000 L 661.000 887.000 L 657.000 863.000 L 654.000 847.000 L 645.000 832.000 L 641.000 820.000 Q 633.650 802.100 632.000 814.000 Q 636.450 831.600 615.000 838.000 Q 604.250 859.800 590.000 850.000 Q 554.250 844.000 545.000 850.000 L 524.000 843.000 L 502.000 841.000 Q 465.200 825.800 470.000 813.000 L 476.000 795.000 Q 477.050 761.150 463.000 776.000 L 460.000 790.000 Q 450.050 826.150 447.000 811.000 Q 423.100 804.750 421.000 816.000 L 413.000 819.000 L 397.000 827.000 L 391.000 835.000 L 382.000 850.000 Q 361.900 859.450 348.000 853.000 L 342.000 854.000 L 329.000 859.000 L 313.000 866.000 L 307.000 872.000 L 291.000 894.000 L 271.000 908.000 L 261.000 920.000 L 245.000 930.000 L 239.000 939.000 L 235.000 944.000 L 234.000 953.000 L 229.000 966.000 L 218.000 979.000 Q 189.600 992.650 182.000 990.000 L 173.000 998.000 Q 164.350 1011.550 162.000 1035.000 Q 148.450 1026.450 145.000 1018.000 L 141.000 1026.000 L 139.000 1045.000 Z" 
          class="ultra-vector-path"
          style="fill: rgb(118,113,0); stroke: rgb(118,113,0); fill-rule: evenodd;"
          inkstitch:fill="1"
          inkstitch:color="#767100"
          inkstitch:angle="90"
          inkstitch:row_spacing_mm="0.4"
          inkstitch:end_row_spacing_mm="0.4"
          inkstitch:max_stitch_length_mm="3.0"
          inkstitch:staggers="4"
          inkstitch:skip_last="0"
          inkstitch:underpath="1"
          inkstitch:pull_compensation_mm="0.2"
          inkstitch:expand_mm="0.1"
          inkstitch:clockwise="true"
          data-quality="ultra-high"
          data-density="medium-high" />
    <path id="ultra-vector-path-8" 
          d="M 364.000 417.000 L 363.000 421.000 L 359.000 422.000 L 359.000 442.000 L 361.000 449.000 L 357.000 451.000 L 352.000 450.000 L 351.000 456.000 L 348.000 460.000 Q 333.900 465.100 334.000 474.000 L 328.000 475.000 L 329.000 485.000 L 327.000 491.000 L 322.000 492.000 L 321.000 498.000 L 315.000 499.000 L 315.000 501.000 L 312.000 502.000 L 312.000 507.000 L 309.000 508.000 L 307.000 515.000 L 310.000 516.000 L 310.000 519.000 L 308.000 520.000 L 308.000 523.000 L 305.000 524.000 L 306.000 543.000 L 304.000 549.000 L 309.000 550.000 L 309.000 562.000 L 307.000 563.000 L 307.000 569.000 L 311.000 570.000 L 310.000 583.000 L 311.000 588.000 L 313.000 589.000 L 315.000 601.000 L 320.000 602.000 L 320.000 609.000 L 323.000 610.000 L 323.000 612.000 L 320.000 613.000 L 320.000 617.000 L 323.000 617.000 L 323.000 613.000 Q 328.750 603.150 328.000 594.000 Q 343.950 599.600 341.000 618.000 Q 345.450 628.550 344.000 635.000 L 347.000 638.000 L 349.000 647.000 L 352.000 648.000 Q 351.900 658.950 358.000 661.000 L 359.000 666.000 L 358.000 675.000 L 355.000 676.000 L 355.000 678.000 L 358.000 678.000 L 362.000 684.000 L 365.000 682.000 L 374.000 684.000 L 378.000 679.000 L 382.000 680.000 L 383.000 687.000 L 381.000 690.000 L 376.000 689.000 L 364.000 692.000 L 361.000 690.000 L 358.000 691.000 L 360.000 707.000 L 357.000 708.000 L 357.000 710.000 L 365.000 712.000 L 366.000 719.000 L 370.000 724.000 L 379.000 726.000 L 376.000 722.000 L 377.000 715.000 L 382.000 714.000 L 385.000 704.000 L 391.000 699.000 L 398.000 699.000 L 400.000 696.000 L 399.000 693.000 L 389.000 692.000 L 388.000 688.000 L 399.000 686.000 L 407.000 687.000 L 408.000 690.000 L 411.000 690.000 L 411.000 688.000 L 414.000 687.000 L 414.000 684.000 L 418.000 683.000 L 418.000 691.000 L 414.000 693.000 L 414.000 695.000 L 421.000 695.000 L 422.000 682.000 L 419.000 681.000 L 420.000 663.000 L 424.000 661.000 L 424.000 657.000 L 432.000 655.000 L 433.000 651.000 L 440.000 651.000 L 441.000 655.000 L 447.000 652.000 L 448.000 655.000 L 457.000 656.000 L 457.000 653.000 L 453.000 652.000 L 457.000 646.000 L 450.000 641.000 L 450.000 633.000 L 438.000 631.000 L 439.000 628.000 L 445.000 626.000 L 445.000 623.000 L 437.000 621.000 L 434.000 618.000 L 436.000 610.000 L 434.000 609.000 L 434.000 605.000 L 431.000 604.000 L 430.000 598.000 L 425.000 596.000 L 422.000 592.000 L 419.000 577.000 L 415.000 577.000 L 414.000 581.000 L 411.000 582.000 L 414.000 589.000 L 412.000 594.000 L 404.000 596.000 L 398.000 593.000 L 398.000 585.000 L 395.000 584.000 L 395.000 580.000 L 392.000 576.000 L 393.000 573.000 L 396.000 573.000 L 396.000 566.000 L 398.000 564.000 L 398.000 547.000 L 393.000 546.000 L 391.000 543.000 L 398.000 531.000 L 394.000 530.000 L 395.000 506.000 L 392.000 506.000 L 391.000 503.000 L 395.000 502.000 L 395.000 491.000 L 400.000 488.000 L 400.000 485.000 L 397.000 483.000 L 400.000 465.000 L 405.000 463.000 L 406.000 467.000 L 410.000 468.000 L 413.000 465.000 L 413.000 460.000 L 417.000 459.000 L 418.000 452.000 L 415.000 451.000 L 413.000 446.000 L 408.000 448.000 Q 403.450 438.350 391.000 437.000 L 390.000 439.000 L 385.000 438.000 L 384.000 435.000 L 388.000 434.000 L 388.000 431.000 L 382.000 434.000 L 379.000 430.000 L 380.000 423.000 L 376.000 420.000 L 376.000 416.000 Z" 
          class="ultra-vector-path"
          style="fill: rgb(118,113,0); stroke: rgb(118,113,0); fill-rule: evenodd;"
          inkstitch:fill="1"
          inkstitch:color="#767100"
          inkstitch:angle="120"
          inkstitch:row_spacing_mm="0.4"
          inkstitch:end_row_spacing_mm="0.4"
          inkstitch:max_stitch_length_mm="3.0"
          inkstitch:staggers="4"
          inkstitch:skip_last="0"
          inkstitch:underpath="1"
          inkstitch:pull_compensation_mm="0.2"
          inkstitch:expand_mm="0.1"
          inkstitch:clockwise="true"
          data-quality="ultra-high"
          data-density="medium-high" />
    <path id="ultra-vector-path-9" 
          d="M 525.000 1443.000 L 525.000 1453.000 L 526.000 1454.000 L 526.000 1458.000 L 528.000 1462.000 L 528.000 1465.000 L 529.000 1466.000 L 529.000 1468.000 L 530.000 1469.000 L 530.000 1471.000 L 531.000 1472.000 L 531.000 1474.000 L 532.000 1475.000 L 532.000 1477.000 L 533.000 1478.000 L 533.000 1480.000 L 534.000 1481.000 L 535.000 1486.000 L 538.000 1489.000 L 540.000 1489.000 L 541.000 1490.000 L 546.000 1490.000 L 547.000 1491.000 L 558.000 1491.000 L 559.000 1489.000 L 559.000 1484.000 L 558.000 1483.000 L 558.000 1480.000 L 557.000 1479.000 L 557.000 1476.000 L 556.000 1475.000 L 556.000 1471.000 L 555.000 1470.000 L 555.000 1466.000 L 554.000 1465.000 L 554.000 1456.000 L 556.000 1454.000 L 561.000 1454.000 L 583.000 1465.000 L 586.000 1468.000 L 587.000 1468.000 L 596.000 1477.000 L 596.000 1478.000 L 600.000 1482.000 L 600.000 1483.000 L 606.000 1489.000 L 607.000 1489.000 L 612.000 1493.000 L 614.000 1493.000 L 615.000 1494.000 L 618.000 1494.000 L 619.000 1495.000 L 626.000 1495.000 L 627.000 1496.000 L 630.000 1496.000 L 631.000 1497.000 L 643.000 1497.000 L 644.000 1498.000 L 675.000 1498.000 L 676.000 1497.000 L 681.000 1497.000 L 682.000 1496.000 L 684.000 1496.000 L 688.000 1494.000 L 689.000 1492.000 L 689.000 1490.000 L 687.000 1490.000 L 686.000 1491.000 L 675.000 1491.000 L 674.000 1490.000 L 646.000 1490.000 L 645.000 1489.000 L 639.000 1489.000 L 638.000 1488.000 L 632.000 1488.000 L 631.000 1487.000 L 624.000 1486.000 L 623.000 1485.000 L 621.000 1485.000 L 620.000 1484.000 L 618.000 1484.000 L 617.000 1483.000 L 615.000 1483.000 L 611.000 1481.000 L 609.000 1479.000 L 605.000 1477.000 L 602.000 1474.000 L 601.000 1474.000 L 592.000 1465.000 L 591.000 1465.000 L 583.000 1458.000 L 582.000 1458.000 L 577.000 1454.000 L 567.000 1449.000 L 565.000 1449.000 L 561.000 1447.000 L 552.000 1446.000 L 551.000 1445.000 L 541.000 1445.000 L 540.000 1444.000 L 533.000 1444.000 L 532.000 1443.000 Z" 
          class="ultra-vector-path"
          style="fill: rgb(149,75,23); stroke: rgb(149,75,23); fill-rule: evenodd;"
          inkstitch:fill="1"
          inkstitch:color="#954b17"
          inkstitch:angle="150"
          inkstitch:row_spacing_mm="0.4"
          inkstitch:end_row_spacing_mm="0.4"
          inkstitch:max_stitch_length_mm="3.0"
          inkstitch:staggers="4"
          inkstitch:skip_last="0"
          inkstitch:underpath="1"
          inkstitch:pull_compensation_mm="0.2"
          inkstitch:expand_mm="0.1"
          inkstitch:clockwise="true"
          data-quality="ultra-high"
          data-density="medium-high" />
    <path id="ultra-vector-path-10" 
          d="M 242.000 1360.000 L 238.000 1367.000 L 238.000 1370.000 L 236.000 1374.000 L 236.000 1377.000 L 234.000 1380.000 L 233.000 1388.000 L 231.000 1392.000 L 231.000 1396.000 L 229.000 1399.000 L 229.000 1408.000 L 236.000 1421.000 L 239.000 1424.000 L 242.000 1424.000 L 242.000 1422.000 L 245.000 1420.000 L 245.000 1418.000 L 247.000 1416.000 L 255.000 1400.000 L 259.000 1396.000 L 261.000 1396.000 L 266.000 1403.000 L 266.000 1405.000 L 269.000 1410.000 L 269.000 1412.000 L 270.000 1413.000 L 270.000 1415.000 L 272.000 1419.000 L 272.000 1422.000 L 273.000 1423.000 L 273.000 1427.000 L 274.000 1428.000 L 274.000 1433.000 L 275.000 1434.000 L 276.000 1441.000 L 277.000 1442.000 L 278.000 1448.000 L 281.000 1454.000 L 281.000 1456.000 L 283.000 1458.000 L 285.000 1462.000 L 290.000 1467.000 L 291.000 1467.000 L 297.000 1472.000 L 302.000 1474.000 L 304.000 1476.000 L 314.000 1481.000 L 316.000 1481.000 L 319.000 1483.000 L 321.000 1483.000 L 326.000 1486.000 L 331.000 1487.000 L 334.000 1489.000 L 336.000 1489.000 L 340.000 1491.000 L 343.000 1491.000 L 347.000 1493.000 L 354.000 1494.000 L 355.000 1495.000 L 359.000 1495.000 L 360.000 1496.000 L 365.000 1495.000 L 367.000 1493.000 L 367.000 1489.000 L 363.000 1489.000 L 362.000 1488.000 L 357.000 1488.000 L 356.000 1487.000 L 353.000 1487.000 L 352.000 1486.000 L 348.000 1486.000 L 347.000 1485.000 L 344.000 1485.000 L 343.000 1484.000 L 341.000 1484.000 L 337.000 1482.000 L 334.000 1482.000 L 333.000 1481.000 L 325.000 1479.000 L 322.000 1477.000 L 319.000 1477.000 L 317.000 1475.000 L 315.000 1475.000 L 307.000 1471.000 L 305.000 1469.000 L 303.000 1469.000 L 301.000 1467.000 L 297.000 1465.000 L 288.000 1456.000 L 288.000 1455.000 L 286.000 1453.000 L 286.000 1451.000 L 284.000 1449.000 L 284.000 1446.000 L 282.000 1444.000 L 282.000 1438.000 L 281.000 1437.000 L 281.000 1433.000 L 280.000 1432.000 L 280.000 1424.000 L 279.000 1423.000 L 278.000 1412.000 L 277.000 1411.000 L 276.000 1406.000 L 274.000 1403.000 L 274.000 1401.000 L 272.000 1399.000 L 272.000 1397.000 L 268.000 1389.000 L 266.000 1387.000 L 265.000 1384.000 L 262.000 1381.000 L 262.000 1380.000 L 257.000 1374.000 L 257.000 1373.000 L 246.000 1361.000 Z" 
          class="ultra-vector-path"
          style="fill: rgb(149,75,23); stroke: rgb(149,75,23); fill-rule: evenodd;"
          inkstitch:fill="1"
          inkstitch:color="#954b17"
          inkstitch:angle="180"
          inkstitch:row_spacing_mm="0.4"
          inkstitch:end_row_spacing_mm="0.4"
          inkstitch:max_stitch_length_mm="3.0"
          inkstitch:staggers="4"
          inkstitch:skip_last="0"
          inkstitch:underpath="1"
          inkstitch:pull_compensation_mm="0.2"
          inkstitch:expand_mm="0.1"
          inkstitch:clockwise="true"
          data-quality="ultra-high"
          data-density="medium-high" />
    <path id="ultra-vector-path-11" 
          d="M 557.000 1313.000 L 554.000 1322.000 L 553.000 1344.000 L 549.000 1367.000 L 543.000 1386.000 L 525.000 1428.000 L 525.000 1435.000 L 537.000 1438.000 L 547.000 1438.000 L 560.000 1440.000 L 577.000 1446.000 L 589.000 1454.000 L 606.000 1470.000 L 623.000 1479.000 L 642.000 1483.000 L 657.000 1483.000 L 658.000 1484.000 L 686.000 1484.000 L 698.000 1479.000 L 702.000 1474.000 L 702.000 1471.000 L 706.000 1465.000 L 708.000 1458.000 L 708.000 1442.000 L 704.000 1431.000 L 698.000 1425.000 L 694.000 1423.000 L 678.000 1419.000 L 661.000 1420.000 L 642.000 1426.000 L 630.000 1426.000 L 627.000 1430.000 L 627.000 1432.000 L 618.000 1441.000 L 610.000 1446.000 L 605.000 1446.000 L 600.000 1441.000 Q 599.600 1430.600 604.000 1425.000 L 613.000 1417.000 L 612.000 1413.000 L 607.000 1412.000 L 603.000 1414.000 L 586.000 1416.000 L 582.000 1414.000 L 579.000 1410.000 L 579.000 1402.000 L 581.000 1398.000 L 583.000 1398.000 L 589.000 1394.000 Q 602.800 1388.300 601.000 1376.000 Q 577.950 1375.250 574.000 1371.000 L 572.000 1364.000 L 573.000 1360.000 L 579.000 1355.000 L 585.000 1354.000 L 600.000 1355.000 L 601.000 1354.000 L 601.000 1347.000 L 602.000 1346.000 L 601.000 1339.000 L 579.000 1338.000 L 574.000 1333.000 L 574.000 1328.000 L 577.000 1323.000 L 583.000 1319.000 L 604.000 1318.000 L 604.000 1316.000 L 579.000 1315.000 L 575.000 1316.000 L 568.000 1322.000 L 566.000 1322.000 L 563.000 1318.000 L 563.000 1315.000 L 561.000 1313.000 Z" 
          class="ultra-vector-path"
          style="fill: rgb(149,75,23); stroke: rgb(149,75,23); fill-rule: evenodd;"
          inkstitch:fill="1"
          inkstitch:color="#954b17"
          inkstitch:angle="210"
          inkstitch:row_spacing_mm="0.4"
          inkstitch:end_row_spacing_mm="0.4"
          inkstitch:max_stitch_length_mm="3.0"
          inkstitch:staggers="4"
          inkstitch:skip_last="0"
          inkstitch:underpath="1"
          inkstitch:pull_compensation_mm="0.2"
          inkstitch:expand_mm="0.1"
          inkstitch:clockwise="true"
          data-quality="ultra-high"
          data-density="medium-high" />
    <path id="ultra-vector-path-12" 
          d="M 313.000 1279.000 L 305.000 1287.000 L 305.000 1289.000 L 299.000 1295.000 L 297.000 1300.000 L 294.000 1302.000 L 274.000 1327.000 L 265.000 1333.000 L 256.000 1342.000 L 256.000 1344.000 L 250.000 1349.000 L 248.000 1354.000 L 261.000 1367.000 L 261.000 1369.000 L 265.000 1373.000 L 277.000 1391.000 L 283.000 1406.000 L 283.000 1410.000 L 285.000 1416.000 L 285.000 1423.000 L 287.000 1430.000 L 287.000 1436.000 L 289.000 1440.000 L 289.000 1443.000 L 293.000 1451.000 L 296.000 1453.000 L 296.000 1455.000 L 298.000 1455.000 L 302.000 1460.000 L 308.000 1464.000 L 325.000 1472.000 L 349.000 1479.000 L 365.000 1481.000 L 366.000 1482.000 L 374.000 1482.000 L 384.000 1466.000 L 386.000 1459.000 L 386.000 1451.000 L 382.000 1440.000 L 364.000 1418.000 L 362.000 1418.000 L 359.000 1414.000 L 352.000 1410.000 L 341.000 1408.000 L 335.000 1403.000 L 330.000 1404.000 L 323.000 1408.000 L 308.000 1413.000 L 301.000 1412.000 L 297.000 1406.000 L 297.000 1402.000 L 299.000 1398.000 L 304.000 1393.000 L 313.000 1389.000 Q 331.400 1382.900 329.000 1375.000 Q 300.350 1375.100 298.000 1369.000 L 298.000 1364.000 L 304.000 1357.000 L 311.000 1354.000 L 316.000 1354.000 L 317.000 1353.000 L 331.000 1354.000 L 333.000 1351.000 Q 332.800 1340.350 325.000 1340.000 L 314.000 1334.000 L 311.000 1330.000 Q 313.350 1319.750 320.000 1315.000 L 326.000 1315.000 L 340.000 1321.000 L 346.000 1321.000 L 348.000 1318.000 L 347.000 1315.000 L 335.000 1312.000 L 325.000 1305.000 L 325.000 1298.000 L 331.000 1292.000 L 331.000 1289.000 L 328.000 1288.000 L 316.000 1279.000 Z" 
          class="ultra-vector-path"
          style="fill: rgb(149,75,23); stroke: rgb(149,75,23); fill-rule: evenodd;"
          inkstitch:fill="1"
          inkstitch:color="#954b17"
          inkstitch:angle="60"
          inkstitch:row_spacing_mm="0.4"
          inkstitch:end_row_spacing_mm="0.4"
          inkstitch:max_stitch_length_mm="3.0"
          inkstitch:staggers="4"
          inkstitch:skip_last="0"
          inkstitch:underpath="1"
          inkstitch:pull_compensation_mm="0.2"
          inkstitch:expand_mm="0.1"
          inkstitch:clockwise="true"
          data-quality="ultra-high"
          data-density="medium-high" />
    <path id="ultra-vector-path-13" 
          d="M 345.000 706.000 L 343.000 706.000 L 337.000 713.000 L 331.000 724.000 L 324.000 732.000 L 323.000 736.000 L 320.000 738.000 L 316.000 747.000 L 313.000 749.000 L 308.000 759.000 L 302.000 763.000 L 299.000 762.000 L 299.000 758.000 L 308.000 741.000 L 316.000 732.000 L 318.000 727.000 L 321.000 725.000 L 321.000 723.000 L 332.000 707.000 L 335.000 705.000 L 336.000 701.000 L 287.000 701.000 L 259.000 705.000 L 245.000 710.000 L 222.000 723.000 L 221.000 725.000 L 213.000 729.000 L 211.000 732.000 L 206.000 734.000 L 204.000 737.000 L 202.000 737.000 L 199.000 741.000 L 197.000 741.000 L 190.000 749.000 L 188.000 749.000 L 179.000 759.000 L 177.000 759.000 L 167.000 769.000 L 167.000 771.000 L 148.000 790.000 L 145.000 796.000 L 135.000 807.000 L 117.000 838.000 L 113.000 852.000 L 111.000 870.000 L 111.000 914.000 L 113.000 925.000 L 118.000 935.000 L 119.000 941.000 L 123.000 945.000 L 128.000 956.000 L 140.000 970.000 L 140.000 972.000 L 144.000 974.000 L 153.000 983.000 L 155.000 983.000 L 159.000 987.000 L 163.000 987.000 L 167.000 981.000 L 169.000 981.000 L 211.000 938.000 L 213.000 938.000 L 235.000 916.000 L 235.000 914.000 L 243.000 907.000 L 243.000 905.000 L 260.000 889.000 L 260.000 887.000 L 264.000 883.000 L 266.000 883.000 L 266.000 881.000 L 295.000 852.000 L 297.000 852.000 L 305.000 843.000 L 307.000 843.000 L 311.000 839.000 L 311.000 836.000 L 309.000 834.000 L 311.000 825.000 L 313.000 824.000 L 315.000 819.000 L 321.000 814.000 L 321.000 812.000 L 344.000 789.000 L 358.000 780.000 L 349.000 719.000 Z" 
          class="ultra-vector-path"
          style="fill: rgb(149,75,23); stroke: rgb(149,75,23); fill-rule: evenodd;"
          inkstitch:fill="1"
          inkstitch:color="#954b17"
          inkstitch:angle="90"
          inkstitch:row_spacing_mm="0.4"
          inkstitch:end_row_spacing_mm="0.4"
          inkstitch:max_stitch_length_mm="3.0"
          inkstitch:staggers="4"
          inkstitch:skip_last="0"
          inkstitch:underpath="1"
          inkstitch:pull_compensation_mm="0.2"
          inkstitch:expand_mm="0.1"
          inkstitch:clockwise="true"
          data-quality="ultra-high"
          data-density="medium-high" />
    <path id="ultra-vector-path-14" 
          d="M 474.000 615.000 L 466.000 611.000 L 451.000 610.000 L 451.000 612.000 L 461.000 626.000 L 463.000 632.000 Q 473.350 649.450 472.000 655.000 L 468.000 669.000 L 467.000 670.000 L 462.000 670.000 L 461.000 675.000 L 455.000 687.000 L 455.000 689.000 L 457.000 689.000 L 458.000 687.000 L 461.000 688.000 L 461.000 692.000 L 459.000 698.000 L 457.000 700.000 L 455.000 706.000 L 451.000 711.000 L 448.000 710.000 L 448.000 704.000 L 446.000 704.000 L 440.000 716.000 L 429.000 731.000 L 428.000 735.000 L 425.000 737.000 L 425.000 739.000 L 427.000 739.000 L 429.000 741.000 L 429.000 745.000 L 427.000 746.000 L 427.000 748.000 L 423.000 751.000 L 423.000 753.000 L 416.000 759.000 L 416.000 761.000 L 404.000 773.000 L 402.000 773.000 L 386.000 785.000 L 382.000 787.000 L 377.000 787.000 L 376.000 786.000 L 376.000 784.000 L 379.000 781.000 L 384.000 778.000 L 385.000 776.000 L 387.000 776.000 L 387.000 774.000 L 385.000 774.000 L 384.000 776.000 L 382.000 776.000 L 366.000 785.000 L 359.000 787.000 L 357.000 790.000 L 355.000 790.000 L 350.000 795.000 L 348.000 795.000 L 338.000 805.000 L 338.000 807.000 L 326.000 818.000 L 326.000 820.000 L 321.000 824.000 L 321.000 826.000 L 317.000 830.000 L 317.000 833.000 L 322.000 833.000 L 324.000 830.000 L 326.000 830.000 L 327.000 828.000 L 340.000 822.000 L 344.000 822.000 L 349.000 819.000 L 352.000 819.000 L 365.000 813.000 L 368.000 813.000 L 398.000 802.000 L 415.000 792.000 L 417.000 789.000 L 419.000 789.000 L 421.000 786.000 L 423.000 786.000 L 426.000 782.000 L 428.000 782.000 L 440.000 769.000 L 440.000 767.000 L 443.000 765.000 L 443.000 763.000 L 447.000 760.000 L 447.000 758.000 L 450.000 756.000 L 450.000 754.000 L 456.000 748.000 L 468.000 729.000 L 483.000 700.000 L 491.000 675.000 L 491.000 668.000 L 493.000 660.000 L 491.000 644.000 L 484.000 626.000 Z" 
          class="ultra-vector-path"
          style="fill: rgb(149,75,23); stroke: rgb(149,75,23); fill-rule: evenodd;"
          inkstitch:fill="1"
          inkstitch:color="#954b17"
          inkstitch:angle="120"
          inkstitch:row_spacing_mm="0.4"
          inkstitch:end_row_spacing_mm="0.4"
          inkstitch:max_stitch_length_mm="3.0"
          inkstitch:staggers="4"
          inkstitch:skip_last="0"
          inkstitch:underpath="1"
          inkstitch:pull_compensation_mm="0.2"
          inkstitch:expand_mm="0.1"
          inkstitch:clockwise="true"
          data-quality="ultra-high"
          data-density="medium-high" />
    <path id="ultra-vector-path-15" 
          d="M 195.000 449.000 L 222.000 446.000 L 305.000 425.000 L 360.000 407.000 Q 380.850 401.300 399.000 369.000 Q 436.250 344.600 454.000 353.000 L 458.000 358.000 Q 473.150 359.650 479.000 369.000 L 497.000 371.000 L 503.000 376.000 Q 503.000 389.550 523.000 393.000 Q 622.750 399.850 608.000 392.000 L 616.000 390.000 L 772.000 405.000 Q 798.000 402.500 792.000 395.000 L 802.000 393.000 L 927.000 422.000 L 934.000 419.000 L 897.000 393.000 L 763.000 336.000 L 711.000 307.000 L 681.000 258.000 L 640.000 158.000 L 621.000 123.000 L 585.000 75.000 L 576.000 56.000 L 567.000 48.000 L 528.000 35.000 L 526.000 28.000 Q 539.700 26.600 524.000 12.000 Q 507.650 12.600 495.000 36.000 Q 463.900 123.150 481.000 157.000 L 500.000 250.000 L 507.000 253.000 L 509.000 259.000 L 482.000 272.000 L 481.000 268.000 Q 487.350 253.200 470.000 236.000 L 445.000 218.000 L 446.000 214.000 Q 458.400 211.800 442.000 206.000 L 414.000 284.000 L 399.000 318.000 L 392.000 326.000 Z" 
          class="ultra-vector-path"
          style="fill: rgb(62,137,70); stroke: rgb(62,137,70); fill-rule: evenodd;"
          inkstitch:fill="1"
          inkstitch:color="#3e8946"
          inkstitch:angle="150"
          inkstitch:row_spacing_mm="0.4"
          inkstitch:end_row_spacing_mm="0.4"
          inkstitch:max_stitch_length_mm="3.0"
          inkstitch:staggers="4"
          inkstitch:skip_last="0"
          inkstitch:underpath="1"
          inkstitch:pull_compensation_mm="0.1"
          inkstitch:expand_mm="0.1"
          inkstitch:clockwise="true"
          data-quality="ultra-high"
          data-density="medium-high" />
    <path id="ultra-vector-path-16" 
          d="M 283.00 438.00 L 283.00 442.00 L 284.00 443.00 L 285.00 443.00 L 286.00 444.00 L 288.00 444.00 L 289.00 445.00 L 290.00 445.00 L 291.00 446.00 L 293.00 446.00 L 294.00 447.00 L 296.00 447.00 L 297.00 448.00 L 300.00 448.00 L 301.00 449.00 L 302.00 449.00 L 303.00 450.00 L 305.00 450.00 L 306.00 451.00 L 308.00 451.00 L 309.00 452.00 L 312.00 452.00 L 313.00 453.00 L 316.00 453.00 L 317.00 454.00 L 330.00 454.00 L 335.00 449.00 L 335.00 448.00 L 337.00 446.00 L 337.00 445.00 L 338.00 444.00 L 338.00 442.00 L 312.00 442.00 L 311.00 441.00 L 308.00 441.00 L 307.00 440.00 L 305.00 440.00 L 304.00 439.00 L 301.00 439.00 L 300.00 438.00 L 298.00 438.00 L 297.00 437.00 L 295.00 437.00 L 294.00 436.00 L 285.00 436.00 Z" 
          class="ultra-vector-path"
          style="fill: rgb(215,93,0); stroke: rgb(215,93,0); fill-rule: evenodd;"
          inkstitch:fill="1"
          inkstitch:color="#d75d00"
          inkstitch:angle="180"
          inkstitch:row_spacing_mm="0.4"
          inkstitch:end_row_spacing_mm="0.4"
          inkstitch:max_stitch_length_mm="3.0"
          inkstitch:staggers="4"
          inkstitch:skip_last="0"
          inkstitch:underpath="0"
          inkstitch:pull_compensation_mm="0.2"
          inkstitch:expand_mm="0.1"
          inkstitch:clockwise="true"
          data-quality="ultra-high"
          data-density="medium-high" />
    <path id="ultra-vector-path-17" 
          d="M 747.000 409.000 L 747.000 412.000 L 748.000 413.000 L 748.000 414.000 L 750.000 416.000 L 750.000 417.000 L 753.000 420.000 L 753.000 421.000 L 754.000 422.000 L 754.000 423.000 L 756.000 425.000 L 756.000 426.000 L 758.000 428.000 L 758.000 429.000 L 761.000 432.000 L 761.000 433.000 L 768.000 440.000 L 768.000 441.000 L 770.000 443.000 L 772.000 443.000 L 772.000 441.000 L 771.000 440.000 L 771.000 439.000 L 770.000 438.000 L 770.000 436.000 L 769.000 435.000 L 769.000 434.000 L 768.000 433.000 L 768.000 432.000 L 767.000 431.000 L 767.000 430.000 L 766.000 429.000 L 766.000 428.000 L 765.000 427.000 L 765.000 425.000 L 764.000 424.000 L 764.000 423.000 L 763.000 422.000 L 763.000 421.000 L 761.000 419.000 L 761.000 417.000 L 762.000 416.000 L 764.000 416.000 L 767.000 419.000 L 767.000 420.000 L 770.000 423.000 L 770.000 424.000 L 772.000 426.000 L 772.000 427.000 L 774.000 429.000 L 774.000 430.000 L 775.000 431.000 L 775.000 432.000 L 777.000 434.000 L 777.000 435.000 L 781.000 439.000 L 781.000 440.000 L 785.000 444.000 L 785.000 445.000 L 789.000 449.000 L 789.000 450.000 L 792.000 453.000 L 794.000 453.000 L 794.000 450.000 L 792.000 448.000 L 792.000 445.000 L 791.000 444.000 L 791.000 443.000 L 790.000 442.000 L 790.000 441.000 L 789.000 440.000 L 789.000 439.000 L 788.000 438.000 L 788.000 436.000 L 787.000 435.000 L 787.000 434.000 L 786.000 433.000 L 786.000 432.000 L 785.000 431.000 L 785.000 430.000 L 784.000 429.000 L 784.000 427.000 L 782.000 425.000 L 782.000 423.000 L 780.000 421.000 L 780.000 420.000 L 779.000 419.000 L 779.000 418.000 L 777.000 416.000 L 777.000 415.000 L 774.000 412.000 L 773.000 412.000 L 772.000 411.000 L 764.000 411.000 L 763.000 410.000 L 754.000 410.000 L 753.000 409.000 Z" 
          class="ultra-vector-path"
          style="fill: rgb(215,93,0); stroke: rgb(215,93,0); fill-rule: evenodd;"
          inkstitch:fill="1"
          inkstitch:color="#d75d00"
          inkstitch:angle="210"
          inkstitch:row_spacing_mm="0.4"
          inkstitch:end_row_spacing_mm="0.4"
          inkstitch:max_stitch_length_mm="3.0"
          inkstitch:staggers="4"
          inkstitch:skip_last="0"
          inkstitch:underpath="0"
          inkstitch:pull_compensation_mm="0.2"
          inkstitch:expand_mm="0.1"
          inkstitch:clockwise="true"
          data-quality="ultra-high"
          data-density="medium-high" />
    <path id="ultra-vector-path-18" 
          d="M 472.00 212.00 L 472.00 214.00 L 473.00 214.00 L 476.00 217.00 L 476.00 222.00 L 475.00 223.00 L 473.00 223.00 L 472.00 224.00 L 469.00 224.00 L 469.00 226.00 L 470.00 227.00 L 471.00 227.00 L 482.00 238.00 L 482.00 239.00 L 487.00 244.00 L 487.00 245.00 L 489.00 247.00 L 491.00 247.00 L 491.00 241.00 L 490.00 240.00 L 490.00 237.00 L 489.00 236.00 L 489.00 231.00 L 488.00 230.00 L 488.00 225.00 L 487.00 224.00 L 487.00 220.00 L 486.00 219.00 L 486.00 217.00 L 485.00 216.00 L 485.00 215.00 L 482.00 215.00 L 481.00 214.00 L 480.00 214.00 L 479.00 213.00 L 476.00 213.00 L 475.00 212.00 Z" 
          class="ultra-vector-path"
          style="fill: rgb(215,93,0); stroke: rgb(215,93,0); fill-rule: evenodd;"
          inkstitch:fill="1"
          inkstitch:color="#d75d00"
          inkstitch:angle="60"
          inkstitch:row_spacing_mm="0.4"
          inkstitch:end_row_spacing_mm="0.4"
          inkstitch:max_stitch_length_mm="3.0"
          inkstitch:staggers="4"
          inkstitch:skip_last="0"
          inkstitch:underpath="0"
          inkstitch:pull_compensation_mm="0.2"
          inkstitch:expand_mm="0.1"
          inkstitch:clockwise="true"
          data-quality="ultra-high"
          data-density="medium-high" />
    <path id="ultra-vector-path-19" 
          d="M 345.000 1.000 L 361.000 33.000 L 363.000 35.000 L 363.000 37.000 L 367.000 43.000 L 367.000 45.000 L 373.000 54.000 L 381.000 62.000 L 389.000 67.000 L 423.000 83.000 L 435.000 91.000 L 443.000 98.000 L 442.000 101.000 L 437.000 101.000 L 429.000 98.000 L 427.000 98.000 L 427.000 100.000 L 444.000 109.000 L 447.000 112.000 L 447.000 115.000 L 444.000 117.000 L 438.000 117.000 L 438.000 119.000 L 452.000 131.000 L 453.000 134.000 L 462.000 146.000 L 462.000 148.000 L 461.000 149.000 L 458.000 149.000 L 445.000 142.000 L 442.000 142.000 L 437.000 140.000 L 427.000 139.000 L 427.000 141.000 L 437.000 148.000 L 453.000 157.000 L 456.000 160.000 L 467.000 167.000 L 472.000 172.000 L 473.000 175.000 L 472.000 178.000 L 467.000 178.000 L 462.000 176.000 L 459.000 176.000 L 459.000 178.000 L 465.000 182.000 L 476.000 193.000 L 481.000 201.000 L 483.000 201.000 L 482.000 194.000 L 479.000 185.000 L 479.000 181.000 L 475.000 169.000 L 472.000 151.000 L 468.000 139.000 L 468.000 134.000 L 466.000 131.000 L 466.000 128.000 L 464.000 125.000 L 454.000 95.000 L 441.000 72.000 L 415.000 43.000 L 389.000 21.000 L 385.000 19.000 L 361.000 1.000 Z" 
          class="ultra-vector-path"
          style="fill: rgb(215,93,0); stroke: rgb(215,93,0); fill-rule: evenodd;"
          inkstitch:fill="1"
          inkstitch:color="#d75d00"
          inkstitch:angle="90"
          inkstitch:row_spacing_mm="0.4"
          inkstitch:end_row_spacing_mm="0.4"
          inkstitch:max_stitch_length_mm="3.0"
          inkstitch:staggers="4"
          inkstitch:skip_last="0"
          inkstitch:underpath="0"
          inkstitch:pull_compensation_mm="0.2"
          inkstitch:expand_mm="0.1"
          inkstitch:clockwise="true"
          data-quality="ultra-high"
          data-density="medium-high" />
    <path id="ultra-vector-path-20" 
          d="M 497.000 783.000 L 494.000 783.000 L 494.000 784.000 L 493.000 785.000 L 493.000 786.000 L 492.000 787.000 L 492.000 788.000 L 491.000 789.000 L 491.000 790.000 L 490.000 791.000 L 490.000 792.000 L 489.000 793.000 L 489.000 794.000 L 487.000 796.000 L 487.000 797.000 L 486.000 798.000 L 486.000 799.000 L 485.000 800.000 L 485.000 801.000 L 484.000 802.000 L 484.000 803.000 L 483.000 804.000 L 483.000 805.000 L 482.000 806.000 L 482.000 807.000 L 481.000 808.000 L 481.000 810.000 L 480.000 811.000 L 480.000 813.000 L 479.000 814.000 L 479.000 816.000 L 485.000 816.000 L 486.000 815.000 L 488.000 815.000 L 489.000 814.000 L 491.000 814.000 L 492.000 813.000 L 494.000 813.000 L 495.000 812.000 L 497.000 812.000 L 498.000 811.000 L 501.000 811.000 L 502.000 810.000 L 505.000 810.000 L 507.000 808.000 L 508.000 808.000 L 508.000 806.000 L 509.000 805.000 L 509.000 800.000 L 507.000 798.000 L 507.000 797.000 L 505.000 795.000 L 505.000 794.000 L 502.000 791.000 L 502.000 790.000 L 500.000 788.000 L 500.000 787.000 L 498.000 785.000 L 498.000 784.000 Z" 
          class="ultra-vector-path"
          style="fill: rgb(252,224,1); stroke: rgb(252,224,1); fill-rule: evenodd;"
          inkstitch:fill="1"
          inkstitch:color="#fce001"
          inkstitch:angle="250"
          inkstitch:row_spacing_mm="0.5"
          inkstitch:end_row_spacing_mm="0.5"
          inkstitch:max_stitch_length_mm="3.2"
          inkstitch:staggers="4"
          inkstitch:skip_last="0"
          inkstitch:underpath="0"
          inkstitch:pull_compensation_mm="0.2"
          inkstitch:expand_mm="0.1"
          inkstitch:clockwise="true"
          data-quality="ultra-high"
          data-density="medium" />
    <path id="ultra-vector-path-21" 
          d="M 519.000 751.000 L 514.000 751.000 L 513.000 752.000 L 511.000 752.000 L 510.000 753.000 L 509.000 753.000 L 508.000 754.000 L 507.000 754.000 L 506.000 755.000 L 505.000 755.000 L 500.000 760.000 L 500.000 761.000 L 499.000 762.000 L 499.000 763.000 L 498.000 764.000 L 498.000 767.000 L 499.000 768.000 L 499.000 770.000 L 500.000 771.000 L 500.000 773.000 L 501.000 774.000 L 501.000 775.000 L 502.000 776.000 L 502.000 777.000 L 503.000 778.000 L 503.000 779.000 L 504.000 780.000 L 504.000 781.000 L 505.000 782.000 L 505.000 783.000 L 506.000 784.000 L 506.000 785.000 L 507.000 786.000 L 507.000 787.000 L 508.000 788.000 L 508.000 789.000 L 510.000 791.000 L 512.000 791.000 L 512.000 789.000 L 513.000 788.000 L 513.000 784.000 L 514.000 783.000 L 514.000 780.000 L 515.000 779.000 L 515.000 774.000 L 516.000 773.000 L 516.000 770.000 L 517.000 769.000 L 517.000 764.000 L 518.000 763.000 L 518.000 759.000 L 519.000 758.000 Z" 
          class="ultra-vector-path"
          style="fill: rgb(252,224,1); stroke: rgb(252,224,1); fill-rule: evenodd;"
          inkstitch:fill="1"
          inkstitch:color="#fce001"
          inkstitch:angle="105"
          inkstitch:row_spacing_mm="0.5"
          inkstitch:end_row_spacing_mm="0.5"
          inkstitch:max_stitch_length_mm="3.2"
          inkstitch:staggers="4"
          inkstitch:skip_last="0"
          inkstitch:underpath="0"
          inkstitch:pull_compensation_mm="0.2"
          inkstitch:expand_mm="0.1"
          inkstitch:clockwise="true"
          data-quality="ultra-high"
          data-density="medium" />
    <path id="ultra-vector-path-22" 
          d="M 528.000 750.000 L 527.000 751.000 L 527.000 754.000 L 526.000 755.000 L 526.000 757.000 L 525.000 758.000 L 525.000 762.000 L 524.000 763.000 L 524.000 767.000 L 523.000 768.000 L 523.000 771.000 L 522.000 772.000 L 522.000 776.000 L 521.000 777.000 L 521.000 780.000 L 520.000 781.000 L 520.000 785.000 L 519.000 786.000 L 519.000 791.000 L 518.000 792.000 L 518.000 796.000 L 517.000 797.000 L 517.000 801.000 L 516.000 802.000 L 516.000 806.000 L 515.000 807.000 L 515.000 808.000 L 514.000 809.000 L 513.000 812.000 L 507.000 818.000 L 507.000 819.000 L 505.000 821.000 L 505.000 822.000 L 504.000 823.000 L 504.000 826.000 L 519.000 826.000 L 520.000 827.000 L 523.000 827.000 L 524.000 828.000 L 526.000 828.000 L 529.000 830.000 L 531.000 830.000 L 532.000 831.000 L 534.000 831.000 L 535.000 832.000 L 537.000 832.000 L 538.000 833.000 L 545.000 833.000 L 546.000 832.000 L 549.000 832.000 L 550.000 831.000 L 566.000 831.000 L 567.000 832.000 L 573.000 832.000 L 574.000 833.000 L 578.000 833.000 L 579.000 834.000 L 582.000 834.000 L 583.000 835.000 L 586.000 835.000 L 587.000 836.000 L 589.000 836.000 L 592.000 838.000 L 594.000 838.000 L 595.000 839.000 L 597.000 839.000 L 600.000 841.000 L 602.000 841.000 L 603.000 842.000 L 605.000 842.000 L 606.000 841.000 L 606.000 833.000 L 607.000 832.000 L 607.000 825.000 L 606.000 824.000 L 605.000 824.000 L 603.000 822.000 L 602.000 822.000 L 599.000 820.000 L 595.000 820.000 L 594.000 819.000 L 581.000 819.000 L 580.000 820.000 L 561.000 820.000 L 559.000 818.000 L 558.000 818.000 L 557.000 817.000 L 556.000 817.000 L 554.000 815.000 L 553.000 815.000 L 549.000 811.000 L 549.000 810.000 L 547.000 808.000 L 547.000 807.000 L 546.000 806.000 L 546.000 804.000 L 544.000 801.000 L 544.000 796.000 L 543.000 795.000 L 543.000 775.000 L 544.000 774.000 L 544.000 765.000 L 545.000 764.000 L 545.000 758.000 L 544.000 757.000 L 544.000 755.000 L 542.000 753.000 L 541.000 753.000 L 538.000 751.000 L 535.000 751.000 L 534.000 750.000 Z" 
          class="ultra-vector-path"
          style="fill: rgb(252,224,1); stroke: rgb(252,224,1); fill-rule: evenodd;"
          inkstitch:fill="1"
          inkstitch:color="#fce001"
          inkstitch:angle="140"
          inkstitch:row_spacing_mm="0.5"
          inkstitch:end_row_spacing_mm="0.5"
          inkstitch:max_stitch_length_mm="3.2"
          inkstitch:staggers="4"
          inkstitch:skip_last="0"
          inkstitch:underpath="0"
          inkstitch:pull_compensation_mm="0.2"
          inkstitch:expand_mm="0.1"
          inkstitch:clockwise="true"
          data-quality="ultra-high"
          data-density="medium" />
    <path id="ultra-vector-path-23" 
          d="M 563.000 642.000 L 562.000 643.000 L 562.000 644.000 L 560.000 646.000 L 560.000 649.000 L 561.000 650.000 L 561.000 651.000 L 562.000 652.000 L 562.000 653.000 L 563.000 654.000 L 563.000 655.000 L 565.000 657.000 L 565.000 658.000 L 566.000 659.000 L 566.000 660.000 L 567.000 661.000 L 567.000 662.000 L 568.000 663.000 L 568.000 664.000 L 569.000 665.000 L 569.000 666.000 L 571.000 668.000 L 571.000 669.000 L 572.000 670.000 L 572.000 671.000 L 574.000 673.000 L 574.000 674.000 L 576.000 676.000 L 576.000 677.000 L 578.000 679.000 L 578.000 680.000 L 580.000 682.000 L 580.000 683.000 L 581.000 684.000 L 581.000 685.000 L 583.000 687.000 L 583.000 688.000 L 585.000 690.000 L 585.000 691.000 L 587.000 693.000 L 587.000 694.000 L 589.000 696.000 L 589.000 697.000 L 590.000 698.000 L 590.000 699.000 L 592.000 701.000 L 592.000 702.000 L 594.000 704.000 L 594.000 705.000 L 595.000 706.000 L 595.000 707.000 L 596.000 708.000 L 596.000 709.000 L 597.000 710.000 L 597.000 711.000 L 598.000 712.000 L 598.000 713.000 L 600.000 715.000 L 600.000 717.000 L 601.000 718.000 L 601.000 719.000 L 602.000 720.000 L 602.000 721.000 L 603.000 722.000 L 603.000 723.000 L 604.000 724.000 L 604.000 725.000 L 605.000 726.000 L 605.000 727.000 L 606.000 728.000 L 606.000 729.000 L 607.000 730.000 L 607.000 731.000 L 608.000 732.000 L 608.000 733.000 L 609.000 734.000 L 609.000 736.000 L 610.000 737.000 L 610.000 738.000 L 611.000 739.000 L 611.000 740.000 L 612.000 741.000 L 612.000 742.000 L 613.000 743.000 L 613.000 745.000 L 614.000 746.000 L 614.000 747.000 L 615.000 748.000 L 615.000 750.000 L 616.000 751.000 L 616.000 752.000 L 618.000 752.000 L 618.000 750.000 L 617.000 749.000 L 617.000 741.000 L 616.000 740.000 L 616.000 734.000 L 615.000 733.000 L 615.000 729.000 L 614.000 728.000 L 614.000 724.000 L 613.000 723.000 L 613.000 721.000 L 612.000 720.000 L 612.000 717.000 L 611.000 716.000 L 611.000 714.000 L 610.000 713.000 L 610.000 711.000 L 609.000 710.000 L 609.000 708.000 L 608.000 707.000 L 608.000 705.000 L 607.000 704.000 L 607.000 701.000 L 606.000 700.000 L 606.000 699.000 L 605.000 698.000 L 605.000 696.000 L 604.000 695.000 L 604.000 693.000 L 603.000 692.000 L 603.000 691.000 L 602.000 690.000 L 602.000 689.000 L 601.000 688.000 L 601.000 686.000 L 600.000 685.000 L 600.000 683.000 L 599.000 682.000 L 599.000 681.000 L 598.000 680.000 L 598.000 679.000 L 597.000 678.000 L 597.000 676.000 L 596.000 675.000 L 596.000 674.000 L 595.000 673.000 L 595.000 671.000 L 593.000 669.000 L 593.000 668.000 L 592.000 667.000 L 592.000 666.000 L 591.000 665.000 L 591.000 664.000 L 589.000 662.000 L 589.000 661.000 L 586.000 658.000 L 586.000 657.000 L 583.000 654.000 L 583.000 653.000 L 579.000 649.000 L 578.000 649.000 L 575.000 646.000 L 574.000 646.000 L 572.000 644.000 L 571.000 644.000 L 570.000 643.000 L 568.000 643.000 L 567.000 642.000 Z" 
          class="ultra-vector-path"
          style="fill: rgb(252,224,1); stroke: rgb(252,224,1); fill-rule: evenodd;"
          inkstitch:fill="1"
          inkstitch:color="#fce001"
          inkstitch:angle="175"
          inkstitch:row_spacing_mm="0.5"
          inkstitch:end_row_spacing_mm="0.5"
          inkstitch:max_stitch_length_mm="3.2"
          inkstitch:staggers="4"
          inkstitch:skip_last="0"
          inkstitch:underpath="0"
          inkstitch:pull_compensation_mm="0.2"
          inkstitch:expand_mm="0.1"
          inkstitch:clockwise="true"
          data-quality="ultra-high"
          data-density="medium" />
    <path id="ultra-vector-path-24" 
          d="M 537.000 638.000 L 535.000 646.000 L 535.000 652.000 L 533.000 658.000 L 533.000 663.000 L 531.000 669.000 L 531.000 674.000 L 529.000 679.000 L 529.000 687.000 L 531.000 687.000 L 538.000 680.000 L 540.000 680.000 L 541.000 683.000 L 533.000 698.000 L 514.000 724.000 L 512.000 729.000 L 504.000 741.000 Q 502.200 749.600 512.000 745.000 L 529.000 743.000 L 542.000 746.000 L 552.000 751.000 L 555.000 754.000 L 557.000 754.000 L 558.000 752.000 L 558.000 740.000 L 559.000 739.000 L 559.000 723.000 L 560.000 722.000 L 558.000 696.000 L 562.000 695.000 L 565.000 699.000 L 565.000 706.000 L 566.000 707.000 L 564.000 761.000 L 563.000 762.000 L 562.000 772.000 L 558.000 780.000 L 553.000 786.000 L 550.000 793.000 L 551.000 802.000 L 553.000 806.000 L 559.000 812.000 L 564.000 814.000 L 577.000 814.000 L 578.000 813.000 L 599.000 814.000 L 605.000 816.000 L 619.000 824.000 L 621.000 824.000 L 622.000 823.000 L 622.000 814.000 L 614.000 776.000 L 614.000 771.000 L 608.000 750.000 L 596.000 722.000 L 594.000 722.000 L 598.000 740.000 L 598.000 754.000 L 595.000 755.000 L 593.000 753.000 L 588.000 727.000 L 582.000 709.000 L 577.000 699.000 L 576.000 694.000 L 569.000 681.000 L 569.000 679.000 L 567.000 677.000 L 565.000 671.000 L 563.000 669.000 L 563.000 667.000 L 553.000 649.000 L 543.000 639.000 Z" 
          class="ultra-vector-path"
          style="fill: rgb(252,224,1); stroke: rgb(252,224,1); fill-rule: evenodd;"
          inkstitch:fill="1"
          inkstitch:color="#fce001"
          inkstitch:angle="210"
          inkstitch:row_spacing_mm="0.5"
          inkstitch:end_row_spacing_mm="0.5"
          inkstitch:max_stitch_length_mm="3.2"
          inkstitch:staggers="4"
          inkstitch:skip_last="0"
          inkstitch:underpath="0"
          inkstitch:pull_compensation_mm="0.2"
          inkstitch:expand_mm="0.1"
          inkstitch:clockwise="true"
          data-quality="ultra-high"
          data-density="medium" />
    <path id="ultra-vector-path-25" 
          d="M 484.000 612.000 L 484.000 616.000 L 487.000 619.000 L 487.000 620.000 L 490.000 623.000 L 490.000 624.000 L 492.000 626.000 L 492.000 627.000 L 493.000 628.000 L 493.000 629.000 L 494.000 630.000 L 494.000 631.000 L 495.000 632.000 L 495.000 633.000 L 496.000 634.000 L 496.000 635.000 L 497.000 636.000 L 497.000 637.000 L 498.000 638.000 L 498.000 639.000 L 499.000 640.000 L 499.000 641.000 L 500.000 642.000 L 500.000 643.000 L 501.000 644.000 L 501.000 645.000 L 502.000 646.000 L 502.000 647.000 L 503.000 648.000 L 503.000 649.000 L 505.000 651.000 L 505.000 652.000 L 506.000 653.000 L 506.000 654.000 L 508.000 656.000 L 508.000 657.000 L 510.000 659.000 L 510.000 660.000 L 513.000 663.000 L 513.000 664.000 L 518.000 669.000 L 518.000 670.000 L 521.000 673.000 L 523.000 673.000 L 524.000 672.000 L 524.000 669.000 L 525.000 668.000 L 525.000 664.000 L 526.000 663.000 L 526.000 659.000 L 527.000 658.000 L 527.000 654.000 L 528.000 653.000 L 528.000 649.000 L 529.000 648.000 L 529.000 644.000 L 530.000 643.000 L 530.000 641.000 L 507.000 618.000 L 506.000 618.000 L 503.000 615.000 L 502.000 615.000 L 501.000 614.000 L 500.000 614.000 L 498.000 612.000 L 497.000 612.000 L 496.000 611.000 L 495.000 611.000 L 494.000 610.000 L 488.000 610.000 L 487.000 611.000 L 486.000 611.000 L 485.000 612.000 Z" 
          class="ultra-vector-path"
          style="fill: rgb(252,224,1); stroke: rgb(252,224,1); fill-rule: evenodd;"
          inkstitch:fill="1"
          inkstitch:color="#fce001"
          inkstitch:angle="245"
          inkstitch:row_spacing_mm="0.5"
          inkstitch:end_row_spacing_mm="0.5"
          inkstitch:max_stitch_length_mm="3.2"
          inkstitch:staggers="4"
          inkstitch:skip_last="0"
          inkstitch:underpath="0"
          inkstitch:pull_compensation_mm="0.2"
          inkstitch:expand_mm="0.1"
          inkstitch:clockwise="true"
          data-quality="ultra-high"
          data-density="medium" />
    <path id="ultra-vector-path-26" 
          d="M 568.000 634.000 L 568.000 636.000 L 577.000 639.000 L 579.000 641.000 L 580.000 641.000 L 586.000 647.000 L 587.000 647.000 L 588.000 648.000 L 588.000 650.000 L 590.000 652.000 L 591.000 652.000 L 592.000 653.000 L 592.000 655.000 L 594.000 657.000 L 594.000 658.000 L 595.000 658.000 L 596.000 659.000 L 596.000 661.000 L 598.000 663.000 L 599.000 666.000 L 602.000 669.000 L 603.000 669.000 L 617.000 683.000 L 617.000 684.000 L 620.000 687.000 L 621.000 687.000 L 622.000 688.000 L 622.000 690.000 L 623.000 691.000 L 624.000 691.000 L 625.000 692.000 L 626.000 695.000 L 629.000 697.000 L 629.000 699.000 L 630.000 699.000 L 631.000 700.000 L 631.000 702.000 L 633.000 704.000 L 633.000 705.000 L 637.000 710.000 L 639.000 715.000 L 641.000 717.000 L 641.000 719.000 L 643.000 721.000 L 643.000 722.000 L 645.000 724.000 L 645.000 725.000 L 654.000 734.000 L 655.000 734.000 L 658.000 737.000 L 662.000 737.000 L 665.000 734.000 L 665.000 732.000 L 666.000 731.000 L 667.000 731.000 L 667.000 730.000 L 669.000 728.000 L 669.000 727.000 L 671.000 724.000 L 671.000 722.000 L 673.000 719.000 L 673.000 716.000 L 674.000 715.000 L 674.000 711.000 L 673.000 710.000 L 673.000 705.000 L 676.000 702.000 L 676.000 701.000 L 677.000 700.000 L 677.000 697.000 L 678.000 696.000 L 678.000 693.000 L 679.000 692.000 L 679.000 687.000 L 680.000 686.000 L 680.000 681.000 L 681.000 680.000 L 681.000 670.000 L 682.000 669.000 L 682.000 658.000 L 681.000 657.000 L 681.000 649.000 L 680.000 648.000 L 680.000 647.000 L 679.000 646.000 L 679.000 644.000 L 677.000 642.000 L 677.000 641.000 L 676.000 640.000 L 675.000 640.000 L 673.000 638.000 L 673.000 637.000 L 672.000 637.000 L 670.000 635.000 L 667.000 635.000 L 664.000 633.000 L 662.000 633.000 L 661.000 632.000 L 658.000 632.000 L 657.000 631.000 L 648.000 631.000 L 645.000 629.000 L 637.000 629.000 L 636.000 630.000 L 633.000 630.000 L 632.000 631.000 L 627.000 631.000 L 626.000 630.000 L 618.000 630.000 L 617.000 631.000 L 596.000 631.000 L 595.000 632.000 L 592.000 632.000 L 591.000 633.000 L 587.000 633.000 L 586.000 632.000 L 580.000 632.000 L 579.000 633.000 L 570.000 633.000 L 569.000 634.000 Z" 
          class="ultra-vector-path"
          style="fill: rgb(220,170,90); stroke: rgb(220,170,90); fill-rule: evenodd;"
          inkstitch:fill="1"
          inkstitch:color="#dcaa5a"
          inkstitch:angle="100"
          inkstitch:row_spacing_mm="0.5"
          inkstitch:end_row_spacing_mm="0.5"
          inkstitch:max_stitch_length_mm="3.2"
          inkstitch:staggers="4"
          inkstitch:skip_last="0"
          inkstitch:underpath="0"
          inkstitch:pull_compensation_mm="0.2"
          inkstitch:expand_mm="0.1"
          inkstitch:clockwise="true"
          data-quality="ultra-high"
          data-density="medium" />
    <path id="ultra-vector-path-27" 
          d="M 187.000 546.000 L 172.000 568.000 L 160.000 593.000 L 154.000 616.000 L 154.000 627.000 L 156.000 631.000 L 161.000 634.000 L 173.000 588.000 L 183.000 569.000 L 196.000 555.000 L 202.000 554.000 L 211.000 567.000 L 215.000 586.000 L 215.000 599.000 L 217.000 599.000 L 218.000 576.000 L 214.000 561.000 L 205.000 548.000 L 207.000 544.000 L 212.000 545.000 L 217.000 550.000 L 225.000 573.000 L 225.000 599.000 L 219.000 630.000 L 206.000 655.000 L 192.000 672.000 L 185.000 675.000 L 178.000 674.000 L 172.000 665.000 L 170.000 657.000 L 171.000 633.000 L 180.000 609.000 L 186.000 603.000 Q 201.950 595.850 199.000 582.000 L 194.000 572.000 L 197.000 569.000 L 202.000 572.000 L 207.000 586.000 L 207.000 606.000 L 209.000 606.000 L 210.000 603.000 L 209.000 578.000 L 203.000 564.000 L 200.000 562.000 L 195.000 563.000 L 186.000 575.000 L 174.000 603.000 L 168.000 633.000 L 167.000 668.000 Q 179.300 691.750 189.000 693.000 L 212.000 696.000 L 243.000 696.000 L 246.000 694.000 L 340.000 694.000 L 343.000 692.000 L 341.000 676.000 Q 322.700 653.100 299.000 650.000 L 291.000 644.000 L 292.000 641.000 L 323.000 648.000 L 323.000 644.000 L 307.000 610.000 L 300.000 587.000 L 296.000 559.000 L 291.000 553.000 L 234.000 537.000 L 202.000 537.000 L 194.000 540.000 Z" 
          class="ultra-vector-path"
          style="fill: rgb(220,170,90); stroke: rgb(220,170,90); fill-rule: evenodd;"
          inkstitch:fill="1"
          inkstitch:color="#dcaa5a"
          inkstitch:angle="135"
          inkstitch:row_spacing_mm="0.5"
          inkstitch:end_row_spacing_mm="0.5"
          inkstitch:max_stitch_length_mm="3.2"
          inkstitch:staggers="4"
          inkstitch:skip_last="0"
          inkstitch:underpath="0"
          inkstitch:pull_compensation_mm="0.2"
          inkstitch:expand_mm="0.1"
          inkstitch:clockwise="true"
          data-quality="ultra-high"
          data-density="medium" />
    <path id="ultra-vector-path-28" 
          d="M 748.000 457.000 L 740.000 438.000 L 733.000 428.000 L 721.000 416.000 L 715.000 415.000 Q 727.650 439.700 726.000 453.000 L 723.000 463.000 L 707.000 479.000 L 695.000 484.000 L 683.000 485.000 L 683.000 487.000 L 702.000 496.000 L 707.000 501.000 L 707.000 505.000 L 700.000 512.000 L 664.000 530.000 L 655.000 532.000 L 654.000 528.000 L 659.000 524.000 L 698.000 504.000 L 697.000 500.000 L 661.000 481.000 L 649.000 468.000 L 632.000 440.000 L 633.000 435.000 L 636.000 435.000 L 641.000 441.000 L 644.000 440.000 L 641.000 431.000 Q 644.400 403.950 657.000 404.000 L 659.000 401.000 Q 615.300 398.050 621.000 408.000 L 604.000 405.000 Q 577.400 415.500 580.000 435.000 L 570.000 461.000 L 556.000 474.000 L 540.000 481.000 L 525.000 484.000 L 503.000 482.000 L 488.000 476.000 L 478.000 469.000 L 469.000 459.000 L 461.000 444.000 L 457.000 428.000 L 459.000 417.000 L 456.000 417.000 Q 422.100 449.750 430.000 462.000 Q 416.350 480.100 419.000 496.000 L 414.000 497.000 L 408.000 494.000 L 408.000 507.000 L 413.000 512.000 L 418.000 528.000 L 433.000 549.000 L 460.000 576.000 L 484.000 593.000 L 513.000 606.000 L 546.000 615.000 L 561.000 617.000 L 599.000 615.000 L 636.000 607.000 L 672.000 592.000 L 699.000 573.000 L 717.000 555.000 L 734.000 530.000 L 748.000 494.000 L 750.000 479.000 Z" 
          class="ultra-vector-path"
          style="fill: rgb(247,196,170); stroke: rgb(247,196,170); fill-rule: evenodd;"
          inkstitch:fill="1"
          inkstitch:color="#f7c4aa"
          inkstitch:angle="155"
          inkstitch:row_spacing_mm="0.7"
          inkstitch:end_row_spacing_mm="0.7"
          inkstitch:max_stitch_length_mm="3.8"
          inkstitch:staggers="4"
          inkstitch:skip_last="0"
          inkstitch:underpath="0"
          inkstitch:pull_compensation_mm="0.1"
          inkstitch:expand_mm="0.1"
          inkstitch:clockwise="true"
          data-quality="ultra-high"
          data-density="low" />
    <path id="ultra-vector-path-29" 
          d="M 749.000 462.000 L 745.000 448.000 L 733.000 428.000 L 721.000 416.000 L 715.000 415.000 L 726.000 434.000 L 727.000 445.000 Q 720.000 468.100 707.000 479.000 L 695.000 484.000 L 684.000 485.000 L 684.000 487.000 L 702.000 496.000 L 707.000 501.000 L 707.000 505.000 L 700.000 512.000 L 662.000 531.000 L 654.000 532.000 L 654.000 527.000 L 698.000 504.000 L 698.000 501.000 L 661.000 481.000 L 648.000 467.000 L 632.000 440.000 L 632.000 435.000 L 635.000 434.000 Q 643.900 437.250 641.000 409.000 L 656.000 404.000 L 658.000 401.000 Q 615.450 398.050 621.000 408.000 L 605.000 405.000 Q 577.100 416.250 579.000 440.000 L 570.000 461.000 L 551.000 477.000 L 526.000 484.000 L 506.000 483.000 L 492.000 478.000 L 479.000 470.000 L 463.000 449.000 L 457.000 429.000 L 459.000 417.000 L 456.000 417.000 Q 422.100 450.750 430.000 462.000 Q 416.350 480.250 419.000 497.000 L 416.000 498.000 Q 406.800 495.050 408.000 505.000 L 413.000 512.000 L 414.000 519.000 L 421.000 533.000 L 434.000 550.000 L 459.000 575.000 L 479.000 590.000 L 516.000 607.000 L 537.000 613.000 L 564.000 617.000 L 592.000 616.000 L 624.000 610.000 L 653.000 601.000 L 672.000 592.000 L 699.000 573.000 L 720.000 551.000 L 736.000 526.000 L 748.000 494.000 L 750.000 477.000 Z" 
          class="ultra-vector-path"
          style="fill: rgb(250,207,188); stroke: rgb(250,207,188); fill-rule: evenodd;"
          inkstitch:fill="1"
          inkstitch:color="#facfbc"
          inkstitch:angle="175"
          inkstitch:row_spacing_mm="0.7"
          inkstitch:end_row_spacing_mm="0.7"
          inkstitch:max_stitch_length_mm="3.8"
          inkstitch:staggers="4"
          inkstitch:skip_last="0"
          inkstitch:underpath="0"
          inkstitch:pull_compensation_mm="0.1"
          inkstitch:expand_mm="0.1"
          inkstitch:clockwise="true"
          data-quality="ultra-high"
          data-density="low" />
    <path id="ultra-vector-path-30" 
          d="M 535.000 1237.000 L 531.000 1235.000 L 517.000 1235.000 L 487.000 1242.000 L 469.000 1243.000 L 462.000 1247.000 L 453.000 1247.000 L 441.000 1242.000 L 437.000 1242.000 L 435.000 1240.000 Q 416.050 1241.050 402.000 1267.000 L 378.000 1312.000 L 374.000 1316.000 L 371.000 1316.000 L 369.000 1313.000 L 369.000 1308.000 L 366.000 1307.000 L 362.000 1314.000 L 354.000 1323.000 L 352.000 1327.000 L 352.000 1332.000 L 348.000 1339.000 L 343.000 1343.000 L 340.000 1351.000 L 339.000 1368.000 L 336.000 1374.000 L 336.000 1381.000 L 341.000 1390.000 L 341.000 1397.000 L 367.000 1410.000 L 382.000 1426.000 L 391.000 1441.000 L 393.000 1448.000 L 393.000 1461.000 L 390.000 1471.000 Q 396.350 1502.050 539.000 1498.000 L 534.000 1496.000 L 526.000 1486.000 L 516.000 1449.000 L 517.000 1427.000 L 539.000 1371.000 L 546.000 1339.000 L 546.000 1321.000 L 539.000 1322.000 L 537.000 1320.000 L 537.000 1313.000 L 535.000 1313.000 L 528.000 1320.000 L 522.000 1317.000 L 522.000 1313.000 L 527.000 1303.000 L 532.000 1280.000 L 535.000 1255.000 L 538.000 1245.000 L 538.000 1240.000 Z" 
          class="ultra-vector-path"
          style="fill: rgb(254,253,253); stroke: rgb(254,253,253); fill-rule: evenodd;"
          inkstitch:fill="1"
          inkstitch:color="#fefdfd"
          inkstitch:angle="195"
          inkstitch:row_spacing_mm="0.7"
          inkstitch:end_row_spacing_mm="0.7"
          inkstitch:max_stitch_length_mm="3.8"
          inkstitch:staggers="4"
          inkstitch:skip_last="0"
          inkstitch:underpath="0"
          inkstitch:pull_compensation_mm="0.1"
          inkstitch:expand_mm="0.1"
          inkstitch:clockwise="true"
          data-quality="ultra-high"
          data-density="low" />
    <path id="ultra-vector-path-31" 
          d="M 529.00 1.00 L 556.00 35.00 L 588.00 57.00 L 631.00 123.00 L 714.00 298.00 L 768.00 330.00 L 904.00 388.00 L 948.00 422.00 L 945.00 430.00 L 913.00 437.00 L 884.00 454.00 L 859.00 442.00 Q 857.90 460.50 859.00 459.00 L 848.00 457.00 L 824.00 470.00 Q 819.50 481.60 821.00 481.00 L 809.00 476.00 L 805.00 483.00 Q 792.30 479.40 796.00 479.00 L 768.00 487.00 L 730.00 551.00 L 701.00 582.00 L 662.00 606.00 L 607.00 621.00 Q 681.20 631.20 673.00 628.00 L 689.00 653.00 L 680.00 723.00 Q 665.10 749.00 665.00 744.00 L 681.00 773.00 L 668.00 867.00 L 701.00 1066.00 L 710.00 1186.00 L 706.00 1243.00 Q 633.20 1249.40 640.00 1242.00 L 638.00 1317.00 L 614.00 1319.00 L 609.00 1387.00 L 619.00 1410.00 L 634.00 1418.00 Q 690.50 1412.70 683.00 1412.00 L 709.00 1425.00 L 716.00 1456.00 Q 725.20 1502.20 697.00 1498.00 L 998.00 1498.00 L 998.00 1.00 Z" 
          class="ultra-vector-path"
          style="fill: rgb(254,253,253); stroke: rgb(254,253,253); fill-rule: evenodd;"
          inkstitch:fill="1"
          inkstitch:color="#fefdfd"
          inkstitch:angle="215"
          inkstitch:row_spacing_mm="0.7"
          inkstitch:end_row_spacing_mm="0.7"
          inkstitch:max_stitch_length_mm="3.8"
          inkstitch:staggers="4"
          inkstitch:skip_last="0"
          inkstitch:underpath="0"
          inkstitch:pull_compensation_mm="0.1"
          inkstitch:expand_mm="0.1"
          inkstitch:clockwise="true"
          data-quality="ultra-high"
          data-density="low" />
    <path id="ultra-vector-path-32" 
          d="M 376.000 1.000 L 376.000 2.000 L 377.000 2.000 L 379.000 4.000 L 380.000 4.000 L 382.000 6.000 L 383.000 6.000 L 385.000 8.000 L 386.000 8.000 L 388.000 10.000 L 389.000 10.000 L 392.000 13.000 L 393.000 13.000 L 397.000 17.000 L 398.000 17.000 L 401.000 20.000 L 402.000 20.000 L 406.000 24.000 L 407.000 24.000 L 413.000 30.000 L 414.000 30.000 L 424.000 40.000 L 424.000 41.000 L 434.000 51.000 L 434.000 52.000 L 444.000 62.000 L 444.000 63.000 L 448.000 67.000 L 448.000 68.000 L 450.000 70.000 L 450.000 71.000 L 454.000 76.000 L 454.000 77.000 L 455.000 78.000 L 457.000 83.000 L 459.000 85.000 L 461.000 90.000 L 463.000 90.000 L 464.000 87.000 L 466.000 85.000 L 466.000 84.000 L 467.000 83.000 L 467.000 81.000 L 468.000 80.000 L 468.000 78.000 L 469.000 77.000 L 469.000 75.000 L 472.000 70.000 L 472.000 68.000 L 473.000 67.000 L 473.000 65.000 L 476.000 60.000 L 476.000 58.000 L 478.000 56.000 L 478.000 54.000 L 481.000 49.000 L 481.000 47.000 L 483.000 44.000 L 483.000 42.000 L 487.000 35.000 L 487.000 33.000 L 488.000 32.000 L 490.000 27.000 L 492.000 25.000 L 493.000 22.000 L 495.000 20.000 L 495.000 19.000 L 496.000 18.000 L 498.000 13.000 L 500.000 11.000 L 500.000 10.000 L 502.000 8.000 L 502.000 7.000 L 507.000 2.000 L 508.000 2.000 L 508.000 1.000 Z" 
          class="ultra-vector-path"
          style="fill: rgb(254,253,253); stroke: rgb(254,253,253); fill-rule: evenodd;"
          inkstitch:fill="1"
          inkstitch:color="#fefdfd"
          inkstitch:angle="235"
          inkstitch:row_spacing_mm="0.7"
          inkstitch:end_row_spacing_mm="0.7"
          inkstitch:max_stitch_length_mm="3.8"
          inkstitch:staggers="4"
          inkstitch:skip_last="0"
          inkstitch:underpath="0"
          inkstitch:pull_compensation_mm="0.1"
          inkstitch:expand_mm="0.1"
          inkstitch:clockwise="true"
          data-quality="ultra-high"
          data-density="low" />
    <path id="ultra-vector-path-33" 
          d="M 1.000 1.000 Q 51.100 1722.550 335.000 1498.000 Q 274.650 1464.000 266.000 1438.000 Q 232.100 1432.200 220.000 1406.000 L 236.000 1353.000 Q 312.100 1262.950 290.000 1266.000 Q 289.750 1257.400 275.000 1262.000 L 274.000 1257.000 Q 306.150 1203.550 255.000 1214.000 Q 261.800 1166.650 247.000 1165.000 Q 192.800 1184.550 179.000 1162.000 L 129.000 1140.000 Q 84.450 1058.250 152.000 995.000 L 124.000 965.000 L 106.000 930.000 Q 115.300 812.200 148.000 778.000 L 188.000 737.000 Q 227.150 701.250 169.000 692.000 L 160.000 672.000 Q 157.900 638.400 146.000 628.000 L 151.000 594.000 L 176.000 547.000 Q 205.700 527.300 234.000 529.000 Q 302.150 540.600 295.000 513.000 Q 306.150 487.500 296.000 483.000 Q 261.800 478.850 268.000 462.000 L 240.000 474.000 L 240.000 467.000 Q 220.400 468.800 196.000 459.000 L 167.000 462.000 L 165.000 456.000 Q 430.200 279.950 433.000 209.000 Q 415.600 185.300 437.000 191.000 Q 440.300 173.900 419.000 157.000 Q 426.950 147.650 392.000 128.000 Q 440.150 126.450 413.000 111.000 Q 412.550 98.400 390.000 87.000 Q 395.400 75.650 366.000 58.000 L 335.000 1.000 Z" 
          class="ultra-vector-path"
          style="fill: rgb(254,253,253); stroke: rgb(254,253,253); fill-rule: evenodd;"
          inkstitch:fill="1"
          inkstitch:color="#fefdfd"
          inkstitch:angle="255"
          inkstitch:row_spacing_mm="0.7"
          inkstitch:end_row_spacing_mm="0.7"
          inkstitch:max_stitch_length_mm="3.8"
          inkstitch:staggers="4"
          inkstitch:skip_last="0"
          inkstitch:underpath="0"
          inkstitch:pull_compensation_mm="0.1"
          inkstitch:expand_mm="0.1"
          inkstitch:clockwise="true"
          data-quality="ultra-high"
          data-density="low" />
  </g>
  <metadata>
    <rdf:RDF xmlns:rdf="http://www.w3.org/1999/02/22-rdf-syntax-ns#">
      <rdf:Description rdf:about="">
        <dc:title xmlns:dc="http://purl.org/dc/elements/1.1/">Ultra High-Quality Vector Art</dc:title>
        <dc:description xmlns:dc="http://purl.org/dc/elements/1.1/">Generated with AI-enhanced vectorization</dc:description>
        <dc:creator xmlns:dc="http://purl.org/dc/elements/1.1/">Ultra Vector Generator</dc:creator>
      </rdf:Description>
    </rdf:RDF>
  </metadata>
</svg>