<?xml version="1.0" encoding="UTF-8"?>
<svg width="400" height="600" viewBox="0 0 400 600" 
     xmlns="http://www.w3.org/2000/svg"
     xmlns:inkscape="http://www.inkscape.org/namespaces/inkscape"
     xmlns:inkstitch="http://inkstitch.org/namespace">
  <title>Embroidery Pattern - Generated by InkStitch Compatible Vectorizer</title>
  <defs>
    <style>
      .embroidery-fill {
        stroke-width: 0.2;
        stroke-linejoin: round;
        stroke-linecap: round;
        fill-opacity: 0.9;
        stroke-opacity: 0.7;
      }
      .embroidery-quality {
        shape-rendering: geometricPrecision;
        text-rendering: geometricPrecision;
      }
    </style>
  </defs>
  <g inkscape:label="Embroidery Patterns" inkscape:groupmode="layer" class="embroidery-quality">
    <path id="embroidery-path-0" 
          d="M 222 527 L 214 594 L 231 591 C 229.5 587.1 232.0 583.7 226 578 L 246 597 L 279 591 C 278.4 584.4 265.6 571.1 277 569 L 239 576 L 244 565 C 240.1 563.5 233.7 557.3 231 560 L 240 551 L 229 543 L 240 537 Z" 
          class="embroidery-fill"
          style="fill: rgb(133,66,7); stroke: rgb(133,66,7);"
          inkstitch:fill="1"
          inkstitch:color="#854207"
          inkstitch:angle="45"
          inkstitch:row_spacing_mm="0.3"
          inkstitch:end_row_spacing_mm="0.3"
          inkstitch:max_stitch_length_mm="2.5"
          inkstitch:staggers="4"
          inkstitch:skip_last="1"
          inkstitch:underpath="1" />
    <path id="embroidery-path-1" 
          d="M 139 514 L 139 517 L 141 517 L 141 514 Z" 
          class="embroidery-fill"
          style="fill: rgb(133,66,7); stroke: rgb(133,66,7);"
          inkstitch:fill="1"
          inkstitch:color="#854207"
          inkstitch:angle="45"
          inkstitch:row_spacing_mm="0.3"
          inkstitch:end_row_spacing_mm="0.3"
          inkstitch:max_stitch_length_mm="2.5"
          inkstitch:staggers="4"
          inkstitch:skip_last="1"
          inkstitch:underpath="1" />
    <path id="embroidery-path-2" 
          d="M 124 513 L 95 547 L 92 564 C 107.3 573.9 145.4 590.1 143 597 L 151 574 L 134 562 C 129.5 562.6 122.6 560.7 119 564 L 131 553 L 119 549 L 132 541 Z" 
          class="embroidery-fill"
          style="fill: rgb(133,66,7); stroke: rgb(133,66,7);"
          inkstitch:fill="1"
          inkstitch:color="#854207"
          inkstitch:angle="45"
          inkstitch:row_spacing_mm="0.3"
          inkstitch:end_row_spacing_mm="0.3"
          inkstitch:max_stitch_length_mm="2.5"
          inkstitch:staggers="4"
          inkstitch:skip_last="1"
          inkstitch:underpath="1" />
    <path id="embroidery-path-3" 
          d="M 262 322 L 262 324 L 263 325 C 263.0 325.9 263.6 328.0 263 328 L 265 328 L 265 326 L 264 325 L 264 322 Z" 
          class="embroidery-fill"
          style="fill: rgb(133,66,7); stroke: rgb(133,66,7);"
          inkstitch:fill="1"
          inkstitch:color="#854207"
          inkstitch:angle="45"
          inkstitch:row_spacing_mm="0.3"
          inkstitch:end_row_spacing_mm="0.3"
          inkstitch:max_stitch_length_mm="2.5"
          inkstitch:staggers="4"
          inkstitch:skip_last="1"
          inkstitch:underpath="1" />
    <path id="embroidery-path-4" 
          d="M 188 245 L 156 313 L 124 280 C 104.2 291.1 54.1 332.6 58 317 L 45 369 L 60 392 C 79.5 372.5 140.0 321.3 125 327 L 175 308 L 196 269 Z" 
          class="embroidery-fill"
          style="fill: rgb(133,66,7); stroke: rgb(133,66,7);"
          inkstitch:fill="1"
          inkstitch:color="#854207"
          inkstitch:angle="45"
          inkstitch:row_spacing_mm="0.3"
          inkstitch:end_row_spacing_mm="0.3"
          inkstitch:max_stitch_length_mm="2.5"
          inkstitch:staggers="4"
          inkstitch:skip_last="1"
          inkstitch:underpath="1" />
    <path id="embroidery-path-5" 
          d="M 181 76 L 181 78 L 183 78 L 183 76 Z" 
          class="embroidery-fill"
          style="fill: rgb(36,126,44); stroke: rgb(36,126,44);"
          inkstitch:fill="1"
          inkstitch:color="#247e2c"
          inkstitch:angle="45"
          inkstitch:row_spacing_mm="0.3"
          inkstitch:end_row_spacing_mm="0.3"
          inkstitch:max_stitch_length_mm="2.5"
          inkstitch:staggers="4"
          inkstitch:skip_last="1"
          inkstitch:underpath="1" />
    <path id="embroidery-path-6" 
          d="M 88 176 L 170 138 L 365 163 C 341.0 151.6 261.0 89.0 285 125 L 205 5 L 203 105 L 176 88 Z" 
          class="embroidery-fill"
          style="fill: rgb(36,126,44); stroke: rgb(36,126,44);"
          inkstitch:fill="1"
          inkstitch:color="#247e2c"
          inkstitch:angle="45"
          inkstitch:row_spacing_mm="0.3"
          inkstitch:end_row_spacing_mm="0.3"
          inkstitch:max_stitch_length_mm="2.5"
          inkstitch:staggers="4"
          inkstitch:skip_last="1"
          inkstitch:underpath="1" />
    <path id="embroidery-path-7" 
          d="M 137 169 L 128 171 L 127 177 C 123.4 176.4 115.0 175.6 115 175 L 115 177 L 121 179 C 121.3 181.1 122.9 186.0 122 186 L 125 186 L 126 181 L 133 179 L 133 174 Z" 
          class="embroidery-fill"
          style="fill: rgb(213,86,0); stroke: rgb(213,86,0);"
          inkstitch:fill="1"
          inkstitch:color="#d55600"
          inkstitch:angle="75"
          inkstitch:row_spacing_mm="0.4"
          inkstitch:end_row_spacing_mm="0.4"
          inkstitch:max_stitch_length_mm="2.8"
          inkstitch:staggers="4"
          inkstitch:skip_last="1"
          inkstitch:underpath="1" />
    <path id="embroidery-path-8" 
          d="M 300 164 L 301 167 L 307 167 C 308.2 168.8 311.6 173.0 311 173 L 313 173 L 314 170 C 315.2 170.0 318.0 169.4 318 170 L 318 168 L 312 168 L 309 165 Z" 
          class="embroidery-fill"
          style="fill: rgb(213,86,0); stroke: rgb(213,86,0);"
          inkstitch:fill="1"
          inkstitch:color="#d55600"
          inkstitch:angle="105"
          inkstitch:row_spacing_mm="0.4"
          inkstitch:end_row_spacing_mm="0.4"
          inkstitch:max_stitch_length_mm="2.8"
          inkstitch:staggers="4"
          inkstitch:skip_last="1"
          inkstitch:underpath="1" />
    <path id="embroidery-path-9" 
          d="M 190 89 L 190 92 L 191 93 L 193 93 L 193 89 Z" 
          class="embroidery-fill"
          style="fill: rgb(213,86,0); stroke: rgb(213,86,0);"
          inkstitch:fill="1"
          inkstitch:color="#d55600"
          inkstitch:angle="135"
          inkstitch:row_spacing_mm="0.4"
          inkstitch:end_row_spacing_mm="0.4"
          inkstitch:max_stitch_length_mm="2.8"
          inkstitch:staggers="4"
          inkstitch:skip_last="1"
          inkstitch:underpath="1" />
    <path id="embroidery-path-10" 
          d="M 182 61 L 182 63 L 184 63 C 184.3 63.3 185.6 64.0 185 64 L 187 64 L 187 60 L 184 60 L 183 61 Z" 
          class="embroidery-fill"
          style="fill: rgb(213,86,0); stroke: rgb(213,86,0);"
          inkstitch:fill="1"
          inkstitch:color="#d55600"
          inkstitch:angle="165"
          inkstitch:row_spacing_mm="0.4"
          inkstitch:end_row_spacing_mm="0.4"
          inkstitch:max_stitch_length_mm="2.8"
          inkstitch:staggers="4"
          inkstitch:skip_last="1"
          inkstitch:underpath="1" />
    <path id="embroidery-path-11" 
          d="M 179 41 L 179 49 L 182 52 C 182.6 52.0 183.7 50.2 184 52 L 183 46 L 181 43 L 181 41 Z" 
          class="embroidery-fill"
          style="fill: rgb(213,86,0); stroke: rgb(213,86,0);"
          inkstitch:fill="1"
          inkstitch:color="#d55600"
          inkstitch:angle="195"
          inkstitch:row_spacing_mm="0.4"
          inkstitch:end_row_spacing_mm="0.4"
          inkstitch:max_stitch_length_mm="2.8"
          inkstitch:staggers="4"
          inkstitch:skip_last="1"
          inkstitch:underpath="1" />
    <path id="embroidery-path-12" 
          d="M 140 2 L 151 23 L 177 36 L 171 23 L 162 14 Z" 
          class="embroidery-fill"
          style="fill: rgb(213,86,0); stroke: rgb(213,86,0);"
          inkstitch:fill="1"
          inkstitch:color="#d55600"
          inkstitch:angle="45"
          inkstitch:row_spacing_mm="0.4"
          inkstitch:end_row_spacing_mm="0.4"
          inkstitch:max_stitch_length_mm="2.8"
          inkstitch:staggers="4"
          inkstitch:skip_last="1"
          inkstitch:underpath="1" />
    <path id="embroidery-path-13" 
          d="M 231 253 L 257 288 L 265 293 C 267.1 285.8 271.4 265.1 272 269 L 270 256 L 260 252 Z" 
          class="embroidery-fill"
          style="fill: rgb(230,177,59); stroke: rgb(230,177,59);"
          inkstitch:fill="1"
          inkstitch:color="#e6b13b"
          inkstitch:angle="75"
          inkstitch:row_spacing_mm="0.4"
          inkstitch:end_row_spacing_mm="0.4"
          inkstitch:max_stitch_length_mm="2.8"
          inkstitch:staggers="4"
          inkstitch:skip_last="1"
          inkstitch:underpath="1" />
    <path id="embroidery-path-14" 
          d="M 76 217 L 62 251 L 79 238 C 79.9 232.3 85.6 225.6 82 219 L 94 241 L 69 273 L 135 277 L 117 223 Z" 
          class="embroidery-fill"
          style="fill: rgb(230,177,59); stroke: rgb(230,177,59);"
          inkstitch:fill="1"
          inkstitch:color="#e6b13b"
          inkstitch:angle="105"
          inkstitch:row_spacing_mm="0.4"
          inkstitch:end_row_spacing_mm="0.4"
          inkstitch:max_stitch_length_mm="2.8"
          inkstitch:staggers="4"
          inkstitch:skip_last="1"
          inkstitch:underpath="1" />
    <path id="embroidery-path-15" 
          d="M 261 314 L 261 316 L 263 316 C 263.3 316.3 264.9 317.0 264 317 L 267 317 L 267 315 L 266 315 L 265 314 Z" 
          class="embroidery-fill"
          style="fill: rgb(228,204,187); stroke: rgb(228,204,187);"
          inkstitch:fill="1"
          inkstitch:color="#e4ccbb"
          inkstitch:angle="135"
          inkstitch:row_spacing_mm="0.5"
          inkstitch:end_row_spacing_mm="0.5"
          inkstitch:max_stitch_length_mm="3.0"
          inkstitch:staggers="4"
          inkstitch:skip_last="1"
          inkstitch:underpath="1" />
    <path id="embroidery-path-16" 
          d="M 254 297 L 254 299 L 256 300 C 256.0 301.5 258.4 304.7 256 305 L 264 304 L 264 302 C 263.1 302.0 260.7 301.7 261 302 L 260 301 L 260 296 Z" 
          class="embroidery-fill"
          style="fill: rgb(228,204,187); stroke: rgb(228,204,187);"
          inkstitch:fill="1"
          inkstitch:color="#e4ccbb"
          inkstitch:angle="135"
          inkstitch:row_spacing_mm="0.5"
          inkstitch:end_row_spacing_mm="0.5"
          inkstitch:max_stitch_length_mm="3.0"
          inkstitch:staggers="4"
          inkstitch:skip_last="1"
          inkstitch:underpath="1" />
    <path id="embroidery-path-17" 
          d="M 154 161 L 172 172 L 170 215 C 185.0 226.7 236.8 247.1 220 254 L 276 231 L 299 195 C 296.9 187.8 283.6 177.6 292 171 L 264 193 L 259 160 C 244.6 170.2 203.2 190.1 211 194 L 185 181 L 186 146 Z" 
          class="embroidery-fill"
          style="fill: rgb(228,204,187); stroke: rgb(228,204,187);"
          inkstitch:fill="1"
          inkstitch:color="#e4ccbb"
          inkstitch:angle="135"
          inkstitch:row_spacing_mm="0.5"
          inkstitch:end_row_spacing_mm="0.5"
          inkstitch:max_stitch_length_mm="3.0"
          inkstitch:staggers="4"
          inkstitch:skip_last="1"
          inkstitch:underpath="1" />
  </g>
  <metadata>
    <rdf:RDF xmlns:rdf="http://www.w3.org/1999/02/22-rdf-syntax-ns#"
             xmlns:dc="http://purl.org/dc/elements/1.1/">
      <rdf:Description>
        <dc:title>Embroidery Pattern</dc:title>
        <dc:description>High-quality vectorized embroidery pattern compatible with InkStitch</dc:description>
        <dc:creator>Advanced Vectorization Engine</dc:creator>
      </rdf:Description>
    </rdf:RDF>
  </metadata>
</svg>