<?xml version="1.0" encoding="UTF-8"?>
<svg width="600" height="400" viewBox="0 0 600 400" 
     xmlns="http://www.w3.org/2000/svg"
     xmlns:inkscape="http://www.inkscape.org/namespaces/inkscape"
     xmlns:inkstitch="http://inkstitch.org/namespace">
  <title>Embroidery Pattern - Generated by InkStitch Compatible Vectorizer</title>
  <defs>
    <style>
      .embroidery-fill {
        stroke-width: 0.2;
        stroke-linejoin: round;
        stroke-linecap: round;
        fill-opacity: 0.9;
        stroke-opacity: 0.7;
      }
      .embroidery-quality {
        shape-rendering: geometricPrecision;
        text-rendering: geometricPrecision;
      }
    </style>
  </defs>
  <g inkscape:label="Embroidery Patterns" inkscape:groupmode="layer" class="embroidery-quality">
    <path id="embroidery-path-0" 
          d="M 97 131 L 97 133 L 99 133 L 99 131 Z" 
          class="embroidery-fill"
          style="fill: rgb(0,144,134); stroke: rgb(0,144,134);"
          inkstitch:fill="1"
          inkstitch:color="#009086"
          inkstitch:angle="45"
          inkstitch:row_spacing_mm="0.4"
          inkstitch:end_row_spacing_mm="0.4"
          inkstitch:max_stitch_length_mm="2.8"
          inkstitch:staggers="4"
          inkstitch:skip_last="1"
          inkstitch:underpath="1" />
    <path id="embroidery-path-1" 
          d="M 60 120 L 56 123 L 46 123 C 47.2 128.4 50.6 141.0 50 141 L 52 141 L 52 130 L 60 130 L 66 138 Z" 
          class="embroidery-fill"
          style="fill: rgb(0,144,134); stroke: rgb(0,144,134);"
          inkstitch:fill="1"
          inkstitch:color="#009086"
          inkstitch:angle="75"
          inkstitch:row_spacing_mm="0.4"
          inkstitch:end_row_spacing_mm="0.4"
          inkstitch:max_stitch_length_mm="2.8"
          inkstitch:staggers="4"
          inkstitch:skip_last="1"
          inkstitch:underpath="1" />
    <path id="embroidery-path-2" 
          d="M 69 116 L 73 134 L 75 134 C 75.3 132.2 79.9 129.5 76 128 L 89 133 L 89 130 C 86.9 128.5 82.3 122.9 82 125 L 83 118 L 81 116 Z" 
          class="embroidery-fill"
          style="fill: rgb(0,144,134); stroke: rgb(0,144,134);"
          inkstitch:fill="1"
          inkstitch:color="#009086"
          inkstitch:angle="105"
          inkstitch:row_spacing_mm="0.4"
          inkstitch:end_row_spacing_mm="0.4"
          inkstitch:max_stitch_length_mm="2.8"
          inkstitch:staggers="4"
          inkstitch:skip_last="1"
          inkstitch:underpath="1" />
    <path id="embroidery-path-3" 
          d="M 129 103 L 110 107 L 110 110 C 113.0 110.0 121.2 115.4 120 110 L 124 128 L 127 126 L 123 108 L 129 106 Z" 
          class="embroidery-fill"
          style="fill: rgb(0,144,134); stroke: rgb(0,144,134);"
          inkstitch:fill="1"
          inkstitch:color="#009086"
          inkstitch:angle="135"
          inkstitch:row_spacing_mm="0.4"
          inkstitch:end_row_spacing_mm="0.4"
          inkstitch:max_stitch_length_mm="2.8"
          inkstitch:staggers="4"
          inkstitch:skip_last="1"
          inkstitch:underpath="1" />
    <path id="embroidery-path-4" 
          d="M 145 99 L 140 105 L 139 114 C 139.6 115.8 143.4 121.2 141 120 L 149 124 L 157 119 L 159 109 L 153 100 Z" 
          class="embroidery-fill"
          style="fill: rgb(0,144,134); stroke: rgb(0,144,134);"
          inkstitch:fill="1"
          inkstitch:color="#009086"
          inkstitch:angle="165"
          inkstitch:row_spacing_mm="0.4"
          inkstitch:end_row_spacing_mm="0.4"
          inkstitch:max_stitch_length_mm="2.8"
          inkstitch:staggers="4"
          inkstitch:skip_last="1"
          inkstitch:underpath="1" />
    <path id="embroidery-path-5" 
          d="M 559 194 L 543 145 L 324 98 C 247.8 113.0 59.8 167.8 70 148 L 36 214 L 310 339 L 381 264 Z" 
          class="embroidery-fill"
          style="fill: rgb(0,144,134); stroke: rgb(0,144,134);"
          inkstitch:fill="1"
          inkstitch:color="#009086"
          inkstitch:angle="195"
          inkstitch:row_spacing_mm="0.4"
          inkstitch:end_row_spacing_mm="0.4"
          inkstitch:max_stitch_length_mm="2.8"
          inkstitch:staggers="4"
          inkstitch:skip_last="1"
          inkstitch:underpath="1" />
    <path id="embroidery-path-6" 
          d="M 198 91 L 192 97 L 191 106 C 192.2 108.4 197.1 114.6 195 114 L 202 116 L 208 110 C 205.3 110.3 198.1 110.1 199 111 L 196 108 L 195 99 L 202 93 L 202 91 Z" 
          class="embroidery-fill"
          style="fill: rgb(0,144,134); stroke: rgb(0,144,134);"
          inkstitch:fill="1"
          inkstitch:color="#009086"
          inkstitch:angle="45"
          inkstitch:row_spacing_mm="0.4"
          inkstitch:end_row_spacing_mm="0.4"
          inkstitch:max_stitch_length_mm="2.8"
          inkstitch:staggers="4"
          inkstitch:skip_last="1"
          inkstitch:underpath="1" />
    <path id="embroidery-path-7" 
          d="M 216 89 L 219 106 L 221 111 C 221.6 111.0 223.3 109.5 223 111 L 224 106 L 220 91 Z" 
          class="embroidery-fill"
          style="fill: rgb(0,144,134); stroke: rgb(0,144,134);"
          inkstitch:fill="1"
          inkstitch:color="#009086"
          inkstitch:angle="75"
          inkstitch:row_spacing_mm="0.4"
          inkstitch:end_row_spacing_mm="0.4"
          inkstitch:max_stitch_length_mm="2.8"
          inkstitch:staggers="4"
          inkstitch:skip_last="1"
          inkstitch:underpath="1" />
    <path id="embroidery-path-8" 
          d="M 249 84 L 241 91 L 232 86 C 233.8 92.9 238.9 108.7 238 109 L 241 108 L 242 100 L 258 106 L 246 95 Z" 
          class="embroidery-fill"
          style="fill: rgb(0,144,134); stroke: rgb(0,144,134);"
          inkstitch:fill="1"
          inkstitch:color="#009086"
          inkstitch:angle="105"
          inkstitch:row_spacing_mm="0.4"
          inkstitch:end_row_spacing_mm="0.4"
          inkstitch:max_stitch_length_mm="2.8"
          inkstitch:staggers="4"
          inkstitch:skip_last="1"
          inkstitch:underpath="1" />
    <path id="embroidery-path-9" 
          d="M 168 83 L 171 94 L 166 105 C 170.2 106.5 179.7 111.8 180 110 L 179 116 L 170 116 C 172.7 117.2 180.5 116.7 179 120 L 184 109 L 170 104 L 176 95 L 171 93 Z" 
          class="embroidery-fill"
          style="fill: rgb(0,144,134); stroke: rgb(0,144,134);"
          inkstitch:fill="1"
          inkstitch:color="#009086"
          inkstitch:angle="135"
          inkstitch:row_spacing_mm="0.4"
          inkstitch:end_row_spacing_mm="0.4"
          inkstitch:max_stitch_length_mm="2.8"
          inkstitch:staggers="4"
          inkstitch:skip_last="1"
          inkstitch:underpath="1" />
    <path id="embroidery-path-10" 
          d="M 2 2 L 2 397 L 597 397 L 597 2 Z" 
          class="embroidery-fill"
          style="fill: rgb(230,249,248); stroke: rgb(230,249,248);"
          inkstitch:fill="1"
          inkstitch:color="#e6f9f8"
          inkstitch:angle="135"
          inkstitch:row_spacing_mm="0.5"
          inkstitch:end_row_spacing_mm="0.5"
          inkstitch:max_stitch_length_mm="3.0"
          inkstitch:staggers="4"
          inkstitch:skip_last="1"
          inkstitch:underpath="1" />
  </g>
  <metadata>
    <rdf:RDF xmlns:rdf="http://www.w3.org/1999/02/22-rdf-syntax-ns#"
             xmlns:dc="http://purl.org/dc/elements/1.1/">
      <rdf:Description>
        <dc:title>Embroidery Pattern</dc:title>
        <dc:description>High-quality vectorized embroidery pattern compatible with InkStitch</dc:description>
        <dc:creator>Advanced Vectorization Engine</dc:creator>
      </rdf:Description>
    </rdf:RDF>
  </metadata>
</svg>