<?xml version="1.0" encoding="UTF-8"?>
<svg width="1200" height="1800" 
     viewBox="0 0 1200 1800"
     xmlns="http://www.w3.org/2000/svg"
     xmlns:inkscape="http://www.inkscape.org/namespaces/inkscape"
     xmlns:inkstitch="http://inkstitch.org/namespace">
  
  <defs>
    <!-- Definicje wzorów haftu -->
    <pattern id="satin-pattern" patternUnits="userSpaceOnUse" width="2" height="2">
      <rect width="2" height="2" fill="none"/>
      <line x1="0" y1="0" x2="2" y2="2" stroke="#000" stroke-width="0.1"/>
    </pattern>
  </defs>
  
  <g inkscape:label="Embroidery Design" inkscape:groupmode="layer">

    <path id="region_0_0"
          d="M 641.00 1482.00 L 621.00 1480.00 L 580.00 1490.00 L 562.00 1490.00 L 553.00 1495.00 L 505.00 1481.00 L 452.00 1574.00 L 444.00 1575.00 L 443.00 1565.00 L 436.00 1569.00 L 423.00 1587.00 L 420.00 1600.00 L 409.00 1613.00 L 406.00 1640.00 L 402.00 1647.00 L 402.00 1659.00 L 411.00 1681.00 L 425.00 1685.00 L 441.00 1695.00 L 461.00 1718.00 L 470.00 1739.00 L 468.00 1760.00 L 446.00 1798.00 L 657.00 1798.00 L 642.00 1794.00 L 635.00 1787.00 L 621.00 1738.00 L 622.00 1713.00 L 646.00 1654.00 L 657.00 1600.00 L 657.00 1585.00 L 646.00 1583.00 L 647.00 1571.00 L 633.00 1582.00 L 628.00 1576.00 L 633.00 1568.00 L 647.00 1487.00 Z"
          fill="rgb(254,254,254)"
          stroke="rgb(254,254,254)"
          stroke-width="0.5"
          inkstitch:object_type="fill"
          inkstitch:density_mm="0.35"
          inkstitch:angle="30"
          inkstitch:stitch_length_mm="2.8"
          inkstitch:color_sort_index="0"
          inkstitch:thread_color="#fefefe"/>

    <path id="region_0_1"
          d="M 632.00 1.00 L 663.00 41.00 L 706.00 72.00 L 757.00 151.00 L 831.00 320.00 L 859.00 363.00 L 1080.00 465.00 L 1137.00 509.00 L 1059.00 544.00 L 1030.00 528.00 L 1030.00 548.00 L 1018.00 544.00 L 988.00 563.00 L 985.00 575.00 L 970.00 567.00 L 966.00 578.00 L 955.00 573.00 L 919.00 584.00 L 878.00 655.00 L 828.00 706.00 L 769.00 735.00 L 682.00 749.00 L 786.00 749.00 L 811.00 757.00 L 825.00 784.00 L 816.00 862.00 L 796.00 893.00 L 815.00 924.00 L 800.00 1040.00 L 843.00 1305.00 L 850.00 1481.00 L 836.00 1492.00 L 766.00 1490.00 L 764.00 1579.00 L 735.00 1582.00 L 730.00 1668.00 L 742.00 1694.00 L 762.00 1704.00 L 819.00 1696.00 L 851.00 1713.00 L 858.00 1746.00 L 834.00 1798.00 L 1198.00 1798.00 L 1198.00 1.00 Z"
          fill="rgb(254,254,254)"
          stroke="rgb(254,254,254)"
          stroke-width="0.5"
          inkstitch:object_type="fill"
          inkstitch:density_mm="0.35"
          inkstitch:angle="30"
          inkstitch:stitch_length_mm="2.8"
          inkstitch:color_sort_index="0"
          inkstitch:thread_color="#fefefe"/>

    <path id="region_0_2"
          d="M 449.00 1.00 L 519.00 62.00 L 553.00 110.00 L 600.00 15.00 L 612.00 2.00 Z"
          fill="rgb(254,254,254)"
          stroke="rgb(254,254,254)"
          stroke-width="0.5"
          inkstitch:object_type="fill"
          inkstitch:density_mm="0.35"
          inkstitch:angle="30"
          inkstitch:stitch_length_mm="2.8"
          inkstitch:color_sort_index="0"
          inkstitch:thread_color="#fefefe"/>

    <path id="region_0_3"
          d="M 1.00 1.00 L 1.00 1798.00 L 407.00 1798.00 L 348.00 1770.00 L 324.00 1728.00 L 288.00 1723.00 L 266.00 1688.00 L 286.00 1623.00 L 368.00 1529.00 L 350.00 1518.00 L 354.00 1508.00 L 331.00 1509.00 L 374.00 1451.00 L 307.00 1456.00 L 315.00 1406.00 L 289.00 1397.00 L 243.00 1419.00 L 216.00 1393.00 L 153.00 1364.00 L 99.00 1297.00 L 186.00 1193.00 L 151.00 1158.00 L 129.00 1116.00 L 125.00 1035.00 L 136.00 996.00 L 191.00 922.00 L 279.00 850.00 L 204.00 829.00 L 193.00 772.00 L 177.00 753.00 L 186.00 706.00 L 211.00 660.00 L 237.00 638.00 L 277.00 636.00 L 354.00 653.00 L 355.00 618.00 L 370.00 589.00 L 356.00 578.00 L 319.00 576.00 L 324.00 552.00 L 290.00 567.00 L 297.00 553.00 L 273.00 562.00 L 200.00 548.00 L 470.00 381.00 L 522.00 248.00 L 500.00 227.00 L 526.00 232.00 L 536.00 213.00 L 505.00 189.00 L 526.00 187.00 L 473.00 154.00 L 531.00 158.00 L 497.00 132.00 L 507.00 126.00 L 470.00 104.00 L 491.00 101.00 L 443.00 71.00 L 404.00 1.00 Z"
          fill="rgb(254,254,254)"
          stroke="rgb(254,254,254)"
          stroke-width="0.5"
          inkstitch:object_type="fill"
          inkstitch:density_mm="0.35"
          inkstitch:angle="30"
          inkstitch:stitch_length_mm="2.8"
          inkstitch:color_sort_index="0"
          inkstitch:thread_color="#fefefe"/>

    <path id="region_1_0"
          d="M 557.00 1390.00 L 555.00 1390.00 L 549.00 1395.00 L 545.00 1399.00 Q 536.20 1400.70 538.00 1401.00 L 533.00 1397.00 L 527.00 1399.00 L 525.00 1399.00 Q 526.35 1401.60 525.00 1401.00 L 534.00 1403.00 L 534.00 1405.00 L 535.00 1409.00 Q 525.65 1410.20 527.00 1409.00 L 526.00 1417.00 L 528.00 1417.00 L 531.00 1414.00 Q 534.50 1418.75 533.00 1418.00 L 541.00 1419.00 L 543.00 1423.00 L 542.00 1428.00 Q 550.80 1426.10 549.00 1427.00 L 554.00 1422.00 L 553.00 1417.00 L 548.00 1415.00 Q 547.15 1407.50 547.00 1409.00 L 549.00 1405.00 L 548.00 1401.00 L 550.00 1401.00 Q 554.90 1395.65 554.00 1397.00 L 556.00 1392.00 Z"
          fill="rgb(124,117,0)"
          stroke="rgb(124,117,0)"
          stroke-width="0.5"
          inkstitch:object_type="satin"
          inkstitch:density_mm="0.3"
          inkstitch:angle="0"
          inkstitch:stitch_length_mm="3.0"
          inkstitch:color_sort_index="1"
          inkstitch:thread_color="#7c7500"/>

    <path id="region_1_1"
          d="M 335.00 1321.00 L 335.00 1323.00 L 338.00 1331.00 L 336.00 1337.00 Q 338.30 1343.20 338.00 1342.00 L 338.00 1345.00 L 340.00 1345.00 L 342.00 1338.00 Q 347.05 1335.45 346.00 1335.00 L 349.00 1341.00 L 358.00 1341.00 L 362.00 1341.00 Q 362.60 1342.15 362.00 1342.00 L 366.00 1342.00 L 370.00 1340.00 L 377.00 1344.00 Q 377.30 1345.15 377.00 1345.00 L 379.00 1345.00 L 384.00 1342.00 L 384.00 1340.00 Q 380.70 1336.10 381.00 1337.00 L 382.00 1334.00 L 379.00 1334.00 L 377.00 1338.00 Q 375.25 1338.45 376.00 1338.00 L 372.00 1341.00 L 371.00 1333.00 L 377.00 1329.00 Q 373.10 1321.95 374.00 1323.00 L 371.00 1322.00 L 365.00 1331.00 L 360.00 1331.00 Q 355.95 1330.15 357.00 1330.00 L 353.00 1332.00 L 350.00 1329.00 L 349.00 1324.00 Q 344.40 1322.55 345.00 1323.00 L 345.00 1321.00 L 343.00 1321.00 L 338.00 1324.00 Z"
          fill="rgb(124,117,0)"
          stroke="rgb(124,117,0)"
          stroke-width="0.5"
          inkstitch:object_type="satin"
          inkstitch:density_mm="0.3"
          inkstitch:angle="0"
          inkstitch:stitch_length_mm="3.0"
          inkstitch:color_sort_index="1"
          inkstitch:thread_color="#7c7500"/>

    <path id="region_1_2"
          d="M 297.00 1288.00 L 295.00 1288.00 L 295.00 1290.00 L 299.00 1298.00 Q 291.50 1302.90 293.00 1302.00 L 289.00 1304.00 L 289.00 1300.00 L 290.00 1300.00 Q 289.25 1297.25 290.00 1298.00 L 285.00 1295.00 L 284.00 1299.00 L 283.00 1299.00 Q 282.25 1303.90 283.00 1303.00 L 278.00 1305.00 L 276.00 1310.00 L 274.00 1310.00 Q 271.15 1318.20 271.00 1317.00 L 275.00 1318.00 L 274.00 1324.00 L 278.00 1332.00 Q 282.30 1333.40 282.00 1334.00 L 280.00 1328.00 L 283.00 1321.00 L 284.00 1321.00 Q 283.40 1318.70 284.00 1319.00 L 280.00 1319.00 L 278.00 1314.00 L 280.00 1309.00 Q 286.25 1309.15 284.00 1309.00 L 295.00 1310.00 L 299.00 1306.00 L 303.00 1307.00 Q 303.30 1301.05 303.00 1303.00 L 305.00 1294.00 L 301.00 1294.00 L 298.00 1290.00 Z"
          fill="rgb(124,117,0)"
          stroke="rgb(124,117,0)"
          stroke-width="0.5"
          inkstitch:object_type="satin"
          inkstitch:density_mm="0.3"
          inkstitch:angle="0"
          inkstitch:stitch_length_mm="3.0"
          inkstitch:color_sort_index="1"
          inkstitch:thread_color="#7c7500"/>

    <path id="region_1_3"
          d="M 153.00 1258.00 L 152.00 1264.00 L 160.00 1268.00 L 162.00 1271.00 Q 166.60 1277.35 166.00 1276.00 L 166.00 1280.00 L 164.00 1281.00 L 164.00 1284.00 Q 169.05 1290.90 168.00 1290.00 L 171.00 1290.00 L 174.00 1287.00 L 179.00 1293.00 Q 183.75 1296.85 183.00 1297.00 L 184.00 1292.00 L 180.00 1286.00 L 184.00 1280.00 Q 183.45 1274.80 183.00 1276.00 L 187.00 1272.00 L 191.00 1272.00 L 191.00 1277.00 Q 200.80 1276.55 199.00 1277.00 L 203.00 1274.00 L 209.00 1277.00 L 210.00 1282.00 Q 208.00 1287.90 208.00 1287.00 L 210.00 1288.00 L 206.00 1294.00 L 207.00 1294.00 Q 208.45 1296.30 208.00 1296.00 L 210.00 1296.00 L 214.00 1291.00 L 219.00 1291.00 Q 220.90 1287.70 220.00 1288.00 L 225.00 1289.00 L 225.00 1286.00 L 218.00 1286.00 Q 212.25 1282.05 213.00 1284.00 L 213.00 1273.00 L 215.00 1268.00 L 212.00 1263.00 Q 212.70 1257.65 213.00 1259.00 L 210.00 1254.00 L 208.00 1242.00 L 207.00 1240.00 Q 202.40 1242.50 203.00 1241.00 L 203.00 1250.00 L 199.00 1254.00 L 199.00 1256.00 Q 200.70 1257.60 201.00 1257.00 L 197.00 1260.00 L 194.00 1253.00 L 194.00 1248.00 Q 196.60 1244.55 196.00 1245.00 L 198.00 1245.00 L 198.00 1242.00 L 193.00 1242.00 Q 189.80 1245.45 191.00 1245.00 L 185.00 1245.00 L 185.00 1251.00 L 180.00 1252.00 Q 173.10 1248.65 174.00 1250.00 L 174.00 1243.00 L 177.00 1239.00 L 176.00 1239.00 Q 174.25 1236.70 175.00 1237.00 L 171.00 1237.00 L 171.00 1238.00 L 169.00 1239.00 Q 168.70 1243.75 169.00 1243.00 L 167.00 1244.00 L 167.00 1246.00 L 171.00 1255.00 Q 176.90 1255.75 176.00 1255.00 L 177.00 1260.00 L 174.00 1262.00 L 174.00 1264.00 Q 178.75 1264.75 178.00 1264.00 L 179.00 1269.00 L 177.00 1270.00 L 169.00 1273.00 Q 164.25 1265.80 165.00 1267.00 L 164.00 1265.00 L 160.00 1265.00 L 158.00 1260.00 Q 156.55 1254.25 157.00 1255.00 L 155.00 1255.00 Z"
          fill="rgb(124,117,0)"
          stroke="rgb(124,117,0)"
          stroke-width="0.5"
          inkstitch:object_type="satin"
          inkstitch:density_mm="0.3"
          inkstitch:angle="0"
          inkstitch:stitch_length_mm="3.0"
          inkstitch:color_sort_index="1"
          inkstitch:thread_color="#7c7500"/>

    <path id="region_1_4"
          d="M 296.00 1214.00 L 297.00 1220.00 L 300.00 1223.00 L 297.00 1232.00 Q 296.85 1236.60 297.00 1236.00 L 296.00 1236.00 L 296.00 1240.00 L 302.00 1242.00 Q 315.10 1238.10 313.00 1239.00 L 316.00 1236.00 L 321.00 1235.00 L 326.00 1238.00 Q 324.25 1242.60 325.00 1242.00 L 321.00 1242.00 L 320.00 1246.00 L 324.00 1246.00 Q 324.30 1255.20 324.00 1254.00 L 326.00 1254.00 L 326.00 1250.00 L 330.00 1246.00 Q 333.30 1252.20 333.00 1251.00 L 332.00 1254.00 L 337.00 1255.00 L 337.00 1251.00 Q 343.90 1248.25 343.00 1249.00 L 343.00 1246.00 L 339.00 1235.00 L 329.00 1233.00 Q 328.30 1222.05 328.00 1224.00 L 331.00 1220.00 L 328.00 1218.00 L 328.00 1217.00 Q 322.25 1217.60 323.00 1217.00 L 323.00 1221.00 L 319.00 1224.00 L 319.00 1231.00 Q 310.35 1235.60 312.00 1235.00 L 308.00 1235.00 L 308.00 1227.00 L 304.00 1226.00 Q 304.45 1215.65 304.00 1217.00 L 307.00 1217.00 L 308.00 1213.00 L 304.00 1212.00 Q 303.70 1210.85 304.00 1211.00 L 302.00 1211.00 Z"
          fill="rgb(124,117,0)"
          stroke="rgb(124,117,0)"
          stroke-width="0.5"
          inkstitch:object_type="satin"
          inkstitch:density_mm="0.3"
          inkstitch:angle="0"
          inkstitch:stitch_length_mm="3.0"
          inkstitch:color_sort_index="1"
          inkstitch:thread_color="#7c7500"/>

    <path id="region_1_5"
          d="M 218.00 1196.00 L 215.00 1196.00 L 209.00 1200.00 L 206.00 1207.00 Q 204.85 1207.60 205.00 1207.00 L 205.00 1211.00 L 203.00 1219.00 L 199.00 1219.00 Q 199.75 1221.60 199.00 1221.00 L 204.00 1223.00 L 203.00 1229.00 L 208.00 1229.00 Q 210.45 1235.35 210.00 1234.00 L 211.00 1238.00 L 215.00 1238.00 L 226.00 1234.00 Q 226.00 1227.95 226.00 1229.00 L 226.00 1227.00 L 218.00 1225.00 L 218.00 1217.00 Q 222.50 1208.50 221.00 1210.00 L 228.00 1207.00 L 233.00 1209.00 L 234.00 1203.00 Q 222.60 1202.40 225.00 1203.00 L 218.00 1199.00 Z"
          fill="rgb(124,117,0)"
          stroke="rgb(124,117,0)"
          stroke-width="0.5"
          inkstitch:object_type="satin"
          inkstitch:density_mm="0.3"
          inkstitch:angle="0"
          inkstitch:stitch_length_mm="3.0"
          inkstitch:color_sort_index="1"
          inkstitch:thread_color="#7c7500"/>

    <path id="region_1_6"
          d="M 278.00 1166.00 L 269.00 1166.00 L 266.00 1162.00 L 260.00 1167.00 Q 254.80 1167.85 256.00 1168.00 L 252.00 1166.00 L 252.00 1171.00 L 260.00 1175.00 Q 257.80 1180.90 259.00 1180.00 L 252.00 1181.00 L 249.00 1178.00 L 249.00 1183.00 Q 248.45 1186.60 248.00 1186.00 L 252.00 1187.00 L 252.00 1192.00 L 257.00 1192.00 Q 262.00 1194.90 262.00 1194.00 L 257.00 1198.00 L 257.00 1200.00 L 264.00 1200.00 Q 270.90 1195.65 270.00 1197.00 L 270.00 1191.00 L 267.00 1188.00 L 275.00 1186.00 Q 278.75 1188.70 278.00 1189.00 L 280.00 1184.00 L 276.00 1184.00 L 271.00 1182.00 Q 265.10 1182.55 266.00 1183.00 L 265.00 1179.00 L 266.00 1175.00 L 264.00 1170.00 Q 268.60 1170.30 268.00 1170.00 L 268.00 1172.00 L 275.00 1170.00 Z"
          fill="rgb(124,117,0)"
          stroke="rgb(124,117,0)"
          stroke-width="0.5"
          inkstitch:object_type="satin"
          inkstitch:density_mm="0.3"
          inkstitch:angle="0"
          inkstitch:stitch_length_mm="3.0"
          inkstitch:color_sort_index="1"
          inkstitch:thread_color="#7c7500"/>

    <path id="region_1_7"
          d="M 333.00 1168.00 L 329.00 1168.00 L 327.00 1162.00 L 323.00 1163.00 Q 312.65 1159.25 314.00 1160.00 L 314.00 1158.00 L 312.00 1158.00 L 311.00 1162.00 Q 306.40 1165.75 307.00 1165.00 L 307.00 1167.00 L 313.00 1167.00 L 321.00 1167.00 Q 320.95 1171.75 322.00 1171.00 L 314.00 1172.00 L 309.00 1182.00 L 300.00 1184.00 Q 289.65 1180.40 291.00 1181.00 L 291.00 1180.00 L 288.00 1180.00 L 289.00 1184.00 Q 297.05 1188.90 296.00 1188.00 L 296.00 1190.00 L 291.00 1192.00 L 288.00 1190.00 Q 288.60 1198.05 288.00 1197.00 L 292.00 1197.00 L 300.00 1200.00 L 300.00 1196.00 Q 304.60 1196.90 304.00 1196.00 L 304.00 1202.00 L 306.00 1202.00 L 309.00 1196.00 Q 307.00 1190.50 307.00 1192.00 L 309.00 1186.00 L 314.00 1187.00 L 314.00 1180.00 Q 318.60 1180.60 318.00 1180.00 L 318.00 1184.00 L 320.00 1190.00 L 318.00 1194.00 Q 322.50 1193.40 321.00 1194.00 L 328.00 1190.00 L 334.00 1190.00 L 335.00 1186.00 Q 325.10 1184.40 326.00 1185.00 L 329.00 1182.00 L 332.00 1183.00 L 332.00 1179.00 Q 326.25 1174.95 327.00 1176.00 L 327.00 1172.00 L 332.00 1170.00 Z"
          fill="rgb(124,117,0)"
          stroke="rgb(124,117,0)"
          stroke-width="0.5"
          inkstitch:object_type="satin"
          inkstitch:density_mm="0.3"
          inkstitch:angle="0"
          inkstitch:stitch_length_mm="3.0"
          inkstitch:color_sort_index="1"
          inkstitch:thread_color="#7c7500"/>

    <path id="region_1_8"
          d="M 638.00 1013.00 L 636.00 1013.00 L 637.00 1019.00 L 634.00 1021.00 Q 633.40 1025.75 634.00 1025.00 L 630.00 1026.00 L 628.00 1015.00 L 625.00 1014.00 Q 623.40 1018.60 624.00 1018.00 L 621.00 1018.00 L 618.00 1020.00 L 614.00 1017.00 Q 614.00 1027.65 614.00 1026.00 L 614.00 1028.00 L 617.00 1030.00 L 617.00 1031.00 Q 622.05 1029.55 621.00 1030.00 L 624.00 1028.00 L 630.00 1033.00 L 629.00 1037.00 Q 626.85 1038.05 627.00 1037.00 L 628.00 1044.00 L 632.00 1051.00 L 626.00 1054.00 Q 612.20 1052.55 614.00 1053.00 L 614.00 1051.00 L 610.00 1052.00 L 606.00 1055.00 Q 602.30 1050.50 602.00 1052.00 L 608.00 1045.00 L 607.00 1038.00 L 610.00 1029.00 Q 609.70 1026.70 610.00 1027.00 L 608.00 1027.00 L 604.00 1033.00 L 603.00 1033.00 Q 602.40 1037.60 603.00 1037.00 L 599.00 1037.00 L 599.00 1036.00 L 594.00 1034.00 Q 599.35 1026.65 598.00 1028.00 L 603.00 1025.00 L 606.00 1022.00 L 606.00 1019.00 Q 603.10 1019.45 604.00 1019.00 L 600.00 1022.00 L 596.00 1026.00 L 593.00 1027.00 Q 592.85 1032.20 593.00 1031.00 L 592.00 1035.00 L 594.00 1039.00 L 592.00 1043.00 Q 598.05 1043.75 597.00 1043.00 L 599.00 1048.00 L 597.00 1051.00 L 600.00 1057.00 Q 604.60 1057.30 604.00 1057.00 L 604.00 1059.00 L 605.00 1059.00 L 607.00 1062.00 Q 607.90 1067.60 607.00 1067.00 L 613.00 1066.00 L 615.00 1063.00 L 618.00 1063.00 Q 619.50 1056.10 618.00 1057.00 L 628.00 1057.00 L 636.00 1059.00 L 638.00 1057.00 Q 644.05 1056.80 643.00 1058.00 L 645.00 1049.00 L 649.00 1048.00 L 649.00 1046.00 Q 645.55 1043.40 646.00 1044.00 L 646.00 1042.00 L 641.00 1039.00 L 642.00 1032.00 Q 637.40 1030.70 638.00 1031.00 L 638.00 1030.00 L 636.00 1027.00 L 638.00 1022.00 Q 640.45 1021.10 640.00 1022.00 L 641.00 1016.00 Z"
          fill="rgb(124,117,0)"
          stroke="rgb(124,117,0)"
          stroke-width="0.5"
          inkstitch:object_type="satin"
          inkstitch:density_mm="0.3"
          inkstitch:angle="0"
          inkstitch:stitch_length_mm="3.0"
          inkstitch:color_sort_index="1"
          inkstitch:thread_color="#7c7500"/>

    <path id="region_1_9"
          d="M 508.00 976.00 L 510.00 984.00 L 516.00 984.00 L 519.00 989.00 Q 518.15 994.75 518.00 994.00 L 520.00 994.00 L 527.00 991.00 L 528.00 1000.00 Q 522.15 1005.20 522.00 1004.00 L 529.00 1008.00 L 535.00 1012.00 L 536.00 1008.00 Q 542.50 1008.60 541.00 1008.00 L 546.00 1012.00 L 547.00 1016.00 L 546.00 1019.00 Q 548.90 1018.10 548.00 1019.00 L 552.00 1013.00 L 554.00 1007.00 L 551.00 1002.00 Q 546.95 1008.75 548.00 1008.00 L 544.00 1007.00 L 544.00 1003.00 L 542.00 991.00 Q 548.20 990.00 547.00 990.00 L 550.00 991.00 L 553.00 987.00 L 549.00 986.00 Q 553.00 978.65 553.00 980.00 L 549.00 977.00 L 543.00 974.00 L 543.00 973.00 Q 539.55 973.90 540.00 973.00 L 540.00 979.00 L 537.00 979.00 L 535.00 986.00 Q 528.55 979.35 529.00 981.00 L 532.00 975.00 L 536.00 975.00 L 534.00 969.00 Q 525.95 971.50 527.00 970.00 L 527.00 979.00 L 518.00 980.00 L 513.00 978.00 Q 512.40 974.70 513.00 975.00 L 509.00 976.00 Z"
          fill="rgb(124,117,0)"
          stroke="rgb(124,117,0)"
          stroke-width="0.5"
          inkstitch:object_type="satin"
          inkstitch:density_mm="0.3"
          inkstitch:angle="0"
          inkstitch:stitch_length_mm="3.0"
          inkstitch:color_sort_index="1"
          inkstitch:thread_color="#7c7500"/>

    <path id="region_2_0"
          d="M 239.00 538.00 L 357.00 511.00 L 431.00 486.00 L 452.00 485.00 Q 477.30 440.15 471.00 449.00 L 494.00 426.00 L 513.00 415.00 L 564.00 428.00 Q 580.55 443.70 575.00 441.00 L 601.00 446.00 L 606.00 453.00 L 604.00 464.00 Q 646.90 472.10 628.00 470.00 L 730.00 478.00 L 728.00 470.00 L 736.00 466.00 Q 966.40 487.40 934.00 485.00 L 952.00 482.00 L 950.00 472.00 L 962.00 470.00 Q 1031.95 487.45 1015.00 484.00 L 1075.00 493.00 L 1115.00 504.00 L 1115.00 500.00 Q 1038.45 455.05 1068.00 469.00 L 918.00 407.00 L 849.00 368.00 L 821.00 323.00 Q 769.60 205.45 778.00 226.00 L 765.00 186.00 L 747.00 153.00 L 701.00 91.00 Q 684.80 60.75 689.00 66.00 L 673.00 56.00 L 631.00 42.00 L 630.00 33.00 Q 643.55 30.30 644.00 33.00 L 627.00 15.00 L 616.00 12.00 L 595.00 45.00 Q 558.20 134.50 563.00 121.00 L 563.00 135.00 L 570.00 149.00 L 597.00 263.00 Q 603.25 303.20 601.00 296.00 L 612.00 311.00 L 579.00 328.00 L 576.00 321.00 Q 582.45 304.00 585.00 310.00 L 559.00 281.00 L 532.00 262.00 L 539.00 251.00 Q 525.60 263.30 531.00 251.00 L 503.00 333.00 L 480.00 381.00 L 482.00 384.00 Q 514.80 347.10 510.00 351.00 L 514.00 358.00 L 496.00 386.00 L 487.00 392.00 Q 468.75 390.05 477.00 386.00 L 432.00 419.00 L 344.00 469.00 Z"
          fill="rgb(64,142,72)"
          stroke="rgb(64,142,72)"
          stroke-width="0.5"
          inkstitch:object_type="fill"
          inkstitch:density_mm="0.35"
          inkstitch:angle="30"
          inkstitch:stitch_length_mm="2.8"
          inkstitch:color_sort_index="2"
          inkstitch:thread_color="#408e48"/>

    <path id="region_3_0"
          d="M 713.00 1765.00 L 716.00 1772.00 L 721.00 1779.00 L 725.00 1781.00 Q 729.35 1787.05 728.00 1786.00 L 734.00 1788.00 L 737.00 1791.00 L 746.00 1793.00 Q 752.95 1793.30 751.00 1793.00 L 759.00 1795.00 L 763.00 1795.00 L 770.00 1794.00 Q 780.95 1796.15 779.00 1796.00 L 783.00 1795.00 L 791.00 1797.00 L 802.00 1797.00 Q 809.50 1794.85 808.00 1795.00 L 812.00 1796.00 L 817.00 1794.00 L 789.00 1790.00 Q 779.35 1790.85 781.00 1791.00 L 778.00 1789.00 L 774.00 1790.00 L 763.00 1788.00 Q 756.65 1785.70 758.00 1786.00 L 754.00 1786.00 L 749.00 1784.00 L 745.00 1784.00 Q 736.20 1781.25 738.00 1782.00 L 733.00 1779.00 L 729.00 1776.00 L 721.00 1771.00 Q 717.10 1767.10 718.00 1768.00 L 715.00 1765.00 Z"
          fill="rgb(146,75,25)"
          stroke="rgb(146,75,25)"
          stroke-width="0.5"
          inkstitch:object_type="satin"
          inkstitch:density_mm="0.3"
          inkstitch:angle="0"
          inkstitch:stitch_length_mm="3.0"
          inkstitch:color_sort_index="3"
          inkstitch:thread_color="#924b19"/>

    <path id="region_3_1"
          d="M 631.00 1734.00 L 631.00 1740.00 L 634.00 1751.00 L 637.00 1759.00 Q 639.30 1766.50 639.00 1765.00 L 639.00 1769.00 L 641.00 1775.00 L 644.00 1780.00 Q 646.50 1786.05 645.00 1785.00 L 654.00 1787.00 L 670.00 1786.00 L 668.00 1779.00 Q 666.40 1768.30 667.00 1771.00 L 664.00 1761.00 L 664.00 1757.00 L 662.00 1749.00 Q 669.25 1743.55 667.00 1744.00 L 677.00 1746.00 L 687.00 1750.00 L 690.00 1750.00 Q 693.20 1753.75 692.00 1753.00 L 698.00 1755.00 L 701.00 1758.00 L 707.00 1762.00 Q 707.45 1763.15 707.00 1763.00 L 710.00 1763.00 L 710.00 1761.00 L 704.00 1757.00 Q 698.95 1751.95 700.00 1753.00 L 697.00 1750.00 L 688.00 1745.00 L 680.00 1742.00 Q 669.20 1738.25 671.00 1739.00 L 668.00 1737.00 L 663.00 1737.00 L 652.00 1735.00 Q 641.45 1734.00 644.00 1734.00 L 635.00 1735.00 Z"
          fill="rgb(146,75,25)"
          stroke="rgb(146,75,25)"
          stroke-width="0.5"
          inkstitch:object_type="satin"
          inkstitch:density_mm="0.3"
          inkstitch:angle="0"
          inkstitch:stitch_length_mm="3.0"
          inkstitch:color_sort_index="3"
          inkstitch:thread_color="#924b19"/>

    <path id="region_3_2"
          d="M 291.00 1635.00 L 289.00 1641.00 L 285.00 1646.00 L 285.00 1650.00 Q 282.55 1661.50 283.00 1660.00 L 282.00 1660.00 L 282.00 1666.00 L 278.00 1675.00 Q 277.85 1682.55 278.00 1680.00 L 277.00 1692.00 L 281.00 1698.00 L 283.00 1701.00 Q 291.50 1706.30 290.00 1706.00 L 293.00 1703.00 L 296.00 1694.00 L 300.00 1689.00 Q 304.05 1681.35 303.00 1683.00 L 307.00 1678.00 L 307.00 1676.00 L 310.00 1674.00 Q 315.05 1674.45 314.00 1674.00 L 317.00 1677.00 L 317.00 1678.00 L 320.00 1682.00 Q 322.60 1688.50 322.00 1687.00 L 324.00 1692.00 L 326.00 1697.00 L 328.00 1704.00 Q 329.60 1712.80 329.00 1711.00 L 332.00 1716.00 L 332.00 1724.00 L 334.00 1731.00 Q 335.45 1735.60 335.00 1735.00 L 337.00 1735.00 L 335.00 1727.00 L 336.00 1721.00 Q 333.70 1712.60 334.00 1715.00 L 334.00 1705.00 L 332.00 1698.00 L 330.00 1690.00 Q 327.40 1682.35 328.00 1684.00 L 326.00 1679.00 L 323.00 1674.00 L 323.00 1672.00 Q 319.10 1666.95 320.00 1668.00 L 317.00 1665.00 L 315.00 1659.00 L 312.00 1656.00 Q 311.55 1654.55 312.00 1655.00 L 309.00 1653.00 L 309.00 1651.00 L 305.00 1647.00 Q 299.50 1639.50 301.00 1641.00 L 295.00 1637.00 Z"
          fill="rgb(146,75,25)"
          stroke="rgb(146,75,25)"
          stroke-width="0.5"
          inkstitch:object_type="satin"
          inkstitch:density_mm="0.3"
          inkstitch:angle="0"
          inkstitch:stitch_length_mm="3.0"
          inkstitch:color_sort_index="3"
          inkstitch:thread_color="#924b19"/>

    <path id="region_3_3"
          d="M 669.00 1577.00 L 659.00 1649.00 L 631.00 1719.00 L 642.00 1724.00 L 680.00 1728.00 L 712.00 1746.00 L 734.00 1767.00 L 746.00 1773.00 L 776.00 1779.00 L 823.00 1780.00 L 836.00 1775.00 L 846.00 1757.00 L 847.00 1727.00 L 835.00 1710.00 L 805.00 1704.00 L 776.00 1710.00 L 769.00 1715.00 L 761.00 1715.00 L 738.00 1735.00 L 728.00 1738.00 L 719.00 1731.00 L 716.00 1722.00 L 733.00 1701.00 L 720.00 1698.00 L 701.00 1700.00 L 694.00 1692.00 L 693.00 1683.00 L 698.00 1676.00 L 719.00 1668.00 L 719.00 1654.00 L 699.00 1654.00 L 690.00 1649.00 L 685.00 1640.00 L 691.00 1626.00 L 698.00 1623.00 L 713.00 1624.00 L 721.00 1610.00 L 705.00 1610.00 L 692.00 1606.00 L 687.00 1596.00 L 691.00 1586.00 L 698.00 1583.00 L 690.00 1581.00 L 683.00 1587.00 L 672.00 1577.00 Z"
          fill="rgb(146,75,25)"
          stroke="rgb(146,75,25)"
          stroke-width="0.5"
          inkstitch:object_type="satin"
          inkstitch:density_mm="0.3"
          inkstitch:angle="0"
          inkstitch:stitch_length_mm="3.0"
          inkstitch:color_sort_index="3"
          inkstitch:thread_color="#924b19"/>

    <path id="region_3_4"
          d="M 375.00 1538.00 L 333.00 1591.00 L 302.00 1621.00 L 337.00 1671.00 L 346.00 1708.00 L 353.00 1741.00 L 366.00 1753.00 L 387.00 1764.00 L 449.00 1776.00 L 458.00 1762.00 L 461.00 1741.00 L 435.00 1702.00 L 427.00 1696.00 L 404.00 1689.00 L 362.00 1696.00 L 354.00 1687.00 L 356.00 1678.00 L 372.00 1666.00 L 390.00 1663.00 L 392.00 1650.00 L 372.00 1654.00 L 359.00 1649.00 L 355.00 1641.00 L 365.00 1626.00 L 395.00 1622.00 L 398.00 1613.00 L 378.00 1604.00 L 372.00 1598.00 L 371.00 1590.00 L 382.00 1577.00 L 415.00 1583.00 L 391.00 1569.00 L 389.00 1557.00 L 395.00 1550.00 L 388.00 1544.00 Z"
          fill="rgb(146,75,25)"
          stroke="rgb(146,75,25)"
          stroke-width="0.5"
          inkstitch:object_type="satin"
          inkstitch:density_mm="0.3"
          inkstitch:angle="0"
          inkstitch:stitch_length_mm="3.0"
          inkstitch:color_sort_index="3"
          inkstitch:thread_color="#924b19"/>

    <path id="region_3_5"
          d="M 414.00 849.00 L 364.00 917.00 L 356.00 909.00 L 401.00 845.00 L 329.00 845.00 L 294.00 853.00 L 272.00 865.00 L 203.00 922.00 L 156.00 979.00 L 136.00 1030.00 L 137.00 1108.00 L 158.00 1152.00 L 186.00 1180.00 L 194.00 1183.00 L 244.00 1135.00 L 249.00 1127.00 L 256.00 1124.00 L 371.00 1008.00 L 369.00 1000.00 L 395.00 962.00 L 419.00 940.00 L 428.00 936.00 L 416.00 856.00 Z"
          fill="rgb(146,75,25)"
          stroke="rgb(146,75,25)"
          stroke-width="0.5"
          inkstitch:object_type="satin"
          inkstitch:density_mm="0.3"
          inkstitch:angle="0"
          inkstitch:stitch_length_mm="3.0"
          inkstitch:color_sort_index="3"
          inkstitch:thread_color="#924b19"/>

    <path id="region_3_6"
          d="M 565.00 737.00 L 546.00 735.00 L 569.00 777.00 L 563.00 803.00 L 556.00 807.00 L 553.00 816.00 L 553.00 837.00 L 543.00 854.00 L 534.00 852.00 L 514.00 883.00 L 515.00 897.00 L 493.00 922.00 L 455.00 947.00 L 451.00 938.00 L 439.00 944.00 L 441.00 952.00 L 437.00 959.00 L 424.00 966.00 L 418.00 960.00 L 410.00 963.00 L 382.00 995.00 L 487.00 956.00 L 510.00 940.00 L 563.00 869.00 L 580.00 836.00 L 581.00 824.00 L 589.00 801.00 L 585.00 764.00 L 580.00 752.00 Z"
          fill="rgb(146,75,25)"
          stroke="rgb(146,75,25)"
          stroke-width="0.5"
          inkstitch:object_type="satin"
          inkstitch:density_mm="0.3"
          inkstitch:angle="0"
          inkstitch:stitch_length_mm="3.0"
          inkstitch:color_sort_index="3"
          inkstitch:thread_color="#924b19"/>

    <path id="region_4_0"
          d="M 896.00 544.00 L 876.00 509.00 L 869.00 502.00 L 874.00 541.00 L 862.00 567.00 L 838.00 582.00 L 828.00 584.00 L 850.00 599.00 L 848.00 611.00 L 812.00 631.00 L 803.00 632.00 L 796.00 639.00 L 788.00 640.00 L 785.00 630.00 L 813.00 615.00 L 822.00 614.00 L 834.00 605.00 L 818.00 591.00 L 810.00 591.00 L 775.00 560.00 L 758.00 532.00 L 757.00 521.00 L 769.00 523.00 L 769.00 489.00 L 782.00 484.00 L 755.00 480.00 L 749.00 488.00 L 737.00 491.00 L 724.00 486.00 L 700.00 495.00 L 696.00 511.00 L 698.00 524.00 L 684.00 557.00 L 658.00 576.00 L 641.00 582.00 L 609.00 582.00 L 588.00 575.00 L 561.00 552.00 L 558.00 541.00 L 549.00 530.00 L 549.00 508.00 L 513.00 534.00 L 517.00 557.00 L 503.00 571.00 L 503.00 592.00 L 490.00 596.00 L 504.00 636.00 L 555.00 691.00 L 629.00 732.00 L 637.00 731.00 L 652.00 736.00 L 673.00 737.00 L 682.00 741.00 L 695.00 741.00 L 752.00 730.00 L 764.00 725.00 L 773.00 726.00 L 779.00 720.00 L 790.00 718.00 L 834.00 690.00 L 880.00 638.00 L 883.00 624.00 L 890.00 616.00 L 897.00 596.00 L 899.00 559.00 Z"
          fill="rgb(254,194,167)"
          stroke="rgb(254,194,167)"
          stroke-width="0.5"
          inkstitch:object_type="fill"
          inkstitch:density_mm="0.35"
          inkstitch:angle="30"
          inkstitch:stitch_length_mm="2.8"
          inkstitch:color_sort_index="4"
          inkstitch:thread_color="#fec2a7"/>

    <path id="region_5_0"
          d="M 694.000 763.000 L 694.000 765.000 L 697.000 768.000 Q 700.000 769.800 699.000 769.000 L 702.000 772.000 L 710.000 781.000 Q 712.400 784.000 712.000 783.000 L 712.000 786.000 L 714.000 787.000 L 714.000 789.000 L 716.000 790.000 L 718.000 792.000 Q 718.400 794.800 718.000 794.000 L 720.000 796.000 L 724.000 800.000 Q 725.800 803.800 725.000 803.000 L 728.000 804.000 L 730.000 806.000 L 734.000 809.000 L 738.000 813.000 L 740.000 818.000 L 742.000 820.000 L 746.000 823.000 L 748.000 825.000 Q 749.200 827.800 749.000 827.000 L 749.000 829.000 L 753.000 832.000 L 753.000 834.000 L 755.000 835.000 L 755.000 837.000 L 757.000 838.000 L 758.000 840.000 L 761.000 842.000 L 761.000 844.000 L 763.000 847.000 L 763.000 849.000 Q 767.600 853.400 766.000 851.000 L 771.000 861.000 L 771.000 863.000 L 774.000 865.000 L 774.000 867.000 L 779.000 872.000 Q 782.800 874.800 782.000 874.000 L 783.000 876.000 L 786.000 878.000 L 786.000 880.000 L 788.000 880.000 L 795.000 881.000 Q 797.600 879.000 797.000 880.000 L 798.000 876.000 L 805.000 864.000 L 805.000 860.000 L 806.000 852.000 L 805.000 847.000 Q 806.600 844.400 806.000 845.000 L 808.000 844.000 L 809.000 842.000 L 809.000 839.000 L 812.000 838.000 L 812.000 827.000 L 813.000 820.000 L 814.000 806.000 L 817.000 804.000 L 817.000 786.000 L 815.000 785.000 L 815.000 780.000 L 814.000 777.000 L 813.000 773.000 L 811.000 772.000 L 811.000 770.000 L 810.000 768.000 L 808.000 768.000 L 805.000 765.000 L 803.000 765.000 L 800.000 762.000 Q 791.000 761.800 793.000 762.000 L 790.000 761.000 L 789.000 759.000 L 784.000 759.000 L 774.000 758.000 L 771.000 759.000 L 770.000 757.000 L 768.000 756.000 L 766.000 756.000 Q 749.600 757.600 753.000 757.000 L 749.000 759.000 L 747.000 761.000 L 739.000 761.000 L 737.000 758.000 L 735.000 758.000 L 734.000 760.000 L 721.000 760.000 L 718.000 759.000 L 717.000 761.000 L 698.000 761.000 Z"
          fill="rgb(225,169,88)"
          stroke="rgb(225,169,88)"
          stroke-width="0.5"
          inkstitch:object_type="satin"
          inkstitch:density_mm="0.3"
          inkstitch:angle="0"
          inkstitch:stitch_length_mm="3.0"
          inkstitch:color_sort_index="5"
          inkstitch:thread_color="#e1a958"/>

    <path id="region_5_1"
          d="M 249.00 751.00 L 243.00 751.00 L 238.00 758.00 L 235.00 764.00 Q 223.60 768.00 226.00 768.00 L 219.00 764.00 L 215.00 761.00 L 215.00 765.00 Q 213.30 771.20 213.00 770.00 L 217.00 773.00 L 223.00 771.00 L 226.00 776.00 Q 233.20 771.95 232.00 773.00 L 234.00 769.00 L 235.00 769.00 L 246.00 764.00 L 248.00 757.00 Z"
          fill="rgb(225,169,88)"
          stroke="rgb(225,169,88)"
          stroke-width="0.5"
          inkstitch:object_type="satin"
          inkstitch:density_mm="0.3"
          inkstitch:angle="0"
          inkstitch:stitch_length_mm="3.0"
          inkstitch:color_sort_index="5"
          inkstitch:thread_color="#e1a958"/>

    <path id="region_5_2"
          d="M 234.00 681.00 L 232.00 681.00 L 229.00 686.00 L 226.00 691.00 Q 222.40 696.75 223.00 696.00 L 222.00 696.00 L 222.00 700.00 L 218.00 703.00 Q 216.55 710.65 217.00 709.00 L 215.00 714.00 L 213.00 719.00 L 210.00 725.00 Q 209.70 730.95 210.00 729.00 L 208.00 738.00 L 208.00 740.00 L 210.00 740.00 Q 212.90 732.20 212.00 734.00 L 216.00 728.00 L 222.00 722.00 L 230.00 718.00 Q 234.60 719.30 234.00 719.00 L 234.00 720.00 L 236.00 720.00 L 237.00 716.00 Q 239.30 715.40 239.00 716.00 L 239.00 712.00 L 237.00 702.00 L 236.00 698.00 Q 232.55 690.75 233.00 693.00 L 233.00 683.00 Z"
          fill="rgb(225,169,88)"
          stroke="rgb(225,169,88)"
          stroke-width="0.5"
          inkstitch:object_type="satin"
          inkstitch:density_mm="0.3"
          inkstitch:angle="0"
          inkstitch:stitch_length_mm="3.0"
          inkstitch:color_sort_index="5"
          inkstitch:thread_color="#e1a958"/>

    <path id="region_5_3"
          d="M 271.00 647.00 L 279.00 664.00 L 276.00 671.00 L 269.00 668.00 L 270.00 679.00 L 280.00 679.00 L 278.00 752.00 L 273.00 758.00 L 263.00 758.00 L 259.00 769.00 L 267.00 771.00 L 262.00 792.00 L 238.00 820.00 L 230.00 818.00 L 236.00 807.00 L 217.00 811.00 L 208.00 805.00 L 213.00 825.00 L 281.00 834.00 L 410.00 829.00 L 409.00 814.00 L 390.00 789.00 L 356.00 781.00 L 348.00 775.00 L 356.00 768.00 L 383.00 775.00 L 382.00 763.00 L 362.00 721.00 L 354.00 673.00 L 345.00 665.00 L 287.00 651.00 Z"
          fill="rgb(225,169,88)"
          stroke="rgb(225,169,88)"
          stroke-width="0.5"
          inkstitch:object_type="satin"
          inkstitch:density_mm="0.3"
          inkstitch:angle="0"
          inkstitch:stitch_length_mm="3.0"
          inkstitch:color_sort_index="5"
          inkstitch:thread_color="#e1a958"/>

    <path id="region_5_4"
          d="M 262.00 647.00 L 248.00 647.00 L 238.00 647.00 L 237.00 651.00 Q 231.50 651.75 233.00 651.00 L 227.00 656.00 L 224.00 660.00 L 216.00 669.00 Q 214.40 675.20 215.00 674.00 L 212.00 677.00 L 208.00 685.00 L 205.00 688.00 Q 202.25 697.80 203.00 696.00 L 200.00 700.00 L 199.00 700.00 L 197.00 706.00 Q 194.55 715.20 195.00 714.00 L 194.00 714.00 L 192.00 720.00 L 190.00 727.00 Q 187.70 737.75 188.00 734.00 L 188.00 752.00 L 193.00 757.00 L 193.00 748.00 Q 196.60 743.20 196.00 745.00 L 197.00 736.00 L 197.00 732.00 L 199.00 724.00 Q 202.90 716.75 202.00 719.00 L 205.00 709.00 L 207.00 700.00 L 209.00 700.00 Q 210.60 691.65 210.00 693.00 L 213.00 691.00 L 218.00 682.00 L 224.00 675.00 Q 226.90 673.95 226.00 675.00 L 230.00 668.00 L 234.00 666.00 L 236.00 663.00 Q 245.10 664.20 243.00 663.00 L 250.00 671.00 L 254.00 675.00 L 251.00 668.00 Q 247.95 661.50 249.00 663.00 L 244.00 658.00 L 246.00 653.00 L 254.00 653.00 Q 263.20 656.70 262.00 657.00 L 262.00 651.00 Z"
          fill="rgb(225,169,88)"
          stroke="rgb(225,169,88)"
          stroke-width="0.5"
          inkstitch:object_type="satin"
          inkstitch:density_mm="0.3"
          inkstitch:angle="0"
          inkstitch:stitch_length_mm="3.0"
          inkstitch:color_sort_index="5"
          inkstitch:thread_color="#e1a958"/>

    <path id="region_6_0"
          d="M 596.00 938.00 L 580.00 965.00 L 577.00 976.00 L 606.00 972.00 L 611.00 965.00 L 599.00 944.00 Z"
          fill="rgb(253,224,0)"
          stroke="rgb(253,224,0)"
          stroke-width="0.5"
          inkstitch:object_type="satin"
          inkstitch:density_mm="0.3"
          inkstitch:angle="0"
          inkstitch:stitch_length_mm="3.0"
          inkstitch:color_sort_index="6"
          inkstitch:thread_color="#fde000"/>

    <path id="region_6_1"
          d="M 619.00 901.00 L 601.00 911.00 L 598.00 921.00 L 611.00 949.00 L 622.00 908.00 Z"
          fill="rgb(253,224,0)"
          stroke="rgb(253,224,0)"
          stroke-width="0.5"
          inkstitch:object_type="satin"
          inkstitch:density_mm="0.3"
          inkstitch:angle="0"
          inkstitch:stitch_length_mm="3.0"
          inkstitch:color_sort_index="6"
          inkstitch:thread_color="#fde000"/>

    <path id="region_6_2"
          d="M 633.00 901.00 L 631.00 907.00 L 631.00 911.00 L 628.00 920.00 Q 626.55 930.10 627.00 928.00 L 625.00 934.00 L 624.00 940.00 L 622.00 948.00 Q 621.70 953.65 622.00 952.00 L 620.00 959.00 L 620.00 964.00 L 618.00 969.00 Q 611.20 980.40 613.00 978.00 L 606.00 985.00 L 607.00 991.00 L 619.00 991.00 Q 624.35 990.30 623.00 990.00 L 628.00 993.00 L 634.00 995.00 L 641.00 998.00 Q 647.95 1000.30 646.00 1000.00 L 654.00 1000.00 L 663.00 997.00 L 678.00 997.00 Q 689.55 999.60 687.00 999.00 L 695.00 1001.00 L 699.00 1001.00 L 706.00 1003.00 Q 718.40 1007.90 716.00 1007.00 L 722.00 1009.00 L 727.00 1010.00 L 727.00 1006.00 Q 727.55 987.45 728.00 990.00 L 724.00 989.00 L 714.00 983.00 L 698.00 983.00 Q 686.25 985.30 690.00 985.00 L 673.00 985.00 L 671.00 982.00 L 665.00 979.00 Q 656.50 969.90 658.00 972.00 L 655.00 965.00 L 653.00 957.00 L 651.00 943.00 Q 650.30 936.75 650.00 939.00 L 653.00 928.00 L 653.00 918.00 L 654.00 909.00 Q 648.65 902.80 650.00 904.00 L 645.00 901.00 L 637.00 900.00 Z"
          fill="rgb(253,224,0)"
          stroke="rgb(253,224,0)"
          stroke-width="0.5"
          inkstitch:object_type="satin"
          inkstitch:density_mm="0.3"
          inkstitch:angle="0"
          inkstitch:stitch_length_mm="3.0"
          inkstitch:color_sort_index="6"
          inkstitch:thread_color="#fde000"/>

    <path id="region_6_3"
          d="M 676.00 771.00 L 673.00 774.00 L 673.00 779.00 L 676.00 785.00 Q 679.75 792.50 679.00 791.00 L 681.00 795.00 L 684.00 801.00 L 688.00 806.00 Q 694.20 816.10 693.00 814.00 L 696.00 820.00 L 701.00 826.00 L 705.00 833.00 Q 711.20 843.80 710.00 842.00 L 713.00 845.00 L 715.00 850.00 L 717.00 854.00 Q 720.05 859.50 719.00 858.00 L 724.00 864.00 L 724.00 868.00 L 726.00 872.00 Q 728.75 877.65 728.00 876.00 L 731.00 883.00 L 733.00 887.00 L 735.00 890.00 Q 737.60 898.80 737.00 897.00 L 739.00 902.00 L 741.00 902.00 L 741.00 894.00 Q 738.55 880.00 739.00 883.00 L 738.00 874.00 L 736.00 869.00 L 735.00 862.00 Q 732.40 853.20 733.00 855.00 L 731.00 850.00 L 729.00 845.00 L 726.00 837.00 Q 723.40 830.20 724.00 832.00 L 722.00 825.00 L 720.00 820.00 L 717.00 815.00 Q 714.40 806.35 715.00 808.00 L 713.00 804.00 L 707.00 795.00 L 702.00 787.00 Q 697.80 782.80 699.00 784.00 L 694.00 779.00 L 691.00 776.00 L 687.00 774.00 L 683.00 771.00 Z"
          fill="rgb(253,224,0)"
          stroke="rgb(253,224,0)"
          stroke-width="0.5"
          inkstitch:object_type="satin"
          inkstitch:density_mm="0.3"
          inkstitch:angle="0"
          inkstitch:stitch_length_mm="3.0"
          inkstitch:color_sort_index="6"
          inkstitch:thread_color="#fde000"/>

    <path id="region_6_4"
          d="M 645.00 765.00 L 635.00 824.00 L 649.00 814.00 L 645.00 829.00 L 601.00 899.00 L 620.00 893.00 L 637.00 892.00 L 658.00 898.00 L 666.00 905.00 L 671.00 870.00 L 670.00 835.00 L 678.00 838.00 L 677.00 911.00 L 673.00 930.00 L 661.00 948.00 L 661.00 962.00 L 670.00 974.00 L 677.00 977.00 L 713.00 976.00 L 739.00 987.00 L 746.00 974.00 L 736.00 921.00 L 722.00 881.00 L 717.00 905.00 L 681.00 811.00 L 658.00 772.00 L 652.00 767.00 Z"
          fill="rgb(253,224,0)"
          stroke="rgb(253,224,0)"
          stroke-width="0.5"
          inkstitch:object_type="satin"
          inkstitch:density_mm="0.3"
          inkstitch:angle="0"
          inkstitch:stitch_length_mm="3.0"
          inkstitch:color_sort_index="6"
          inkstitch:thread_color="#fde000"/>

    <path id="region_6_5"
          d="M 580.00 735.00 L 584.00 743.00 L 587.00 746.00 L 591.00 752.00 Q 593.75 758.80 593.00 757.00 L 596.00 764.00 L 599.00 769.00 L 602.00 775.00 Q 605.90 781.50 605.00 780.00 L 608.00 785.00 L 613.00 792.00 L 619.00 800.00 Q 626.35 809.20 625.00 808.00 L 628.00 808.00 L 630.00 802.00 L 630.00 798.00 Q 632.60 786.45 632.00 789.00 L 634.00 781.00 L 635.00 773.00 L 636.00 769.00 Q 628.50 761.65 630.00 763.00 L 626.00 760.00 L 610.00 743.00 L 605.00 740.00 Q 597.35 734.95 599.00 736.00 L 594.00 733.00 L 588.00 732.00 L 581.00 735.00 Z"
          fill="rgb(253,224,0)"
          stroke="rgb(253,224,0)"
          stroke-width="0.5"
          inkstitch:object_type="satin"
          inkstitch:density_mm="0.3"
          inkstitch:angle="0"
          inkstitch:stitch_length_mm="3.0"
          inkstitch:color_sort_index="6"
          inkstitch:thread_color="#fde000"/>

    <path id="region_7_0"
          d="M 756.00 1491.00 L 681.00 1495.00 L 656.00 1492.00 L 645.00 1555.00 L 653.00 1553.00 L 659.00 1560.00 L 657.00 1572.00 L 676.00 1564.00 L 683.00 1572.00 L 702.00 1568.00 L 753.00 1571.00 L 755.00 1502.00 Z"
          fill="rgb(0,76,18)"
          stroke="rgb(0,76,18)"
          stroke-width="0.5"
          inkstitch:object_type="fill"
          inkstitch:density_mm="0.4"
          inkstitch:angle="45"
          inkstitch:stitch_length_mm="2.5"
          inkstitch:color_sort_index="7"
          inkstitch:thread_color="#004c12"/>

    <path id="region_7_1"
          d="M 495.00 1448.00 L 491.00 1449.00 L 488.00 1452.00 L 479.00 1457.00 Q 468.05 1464.90 470.00 1464.00 L 466.00 1463.00 L 477.00 1437.00 L 470.00 1441.00 Q 465.20 1445.20 467.00 1444.00 L 458.00 1449.00 L 455.00 1452.00 L 451.00 1453.00 Q 444.35 1455.30 446.00 1455.00 L 440.00 1455.00 L 434.00 1453.00 L 430.00 1453.00 Q 420.30 1450.40 423.00 1451.00 L 412.00 1449.00 L 408.00 1447.00 L 404.00 1447.00 Q 391.75 1443.55 394.00 1444.00 L 389.00 1444.00 L 383.00 1455.00 L 379.00 1463.00 Q 374.10 1469.35 375.00 1468.00 L 373.00 1472.00 L 372.00 1472.00 L 367.00 1480.00 Q 360.10 1489.50 361.00 1488.00 L 361.00 1490.00 L 373.00 1487.00 L 375.00 1494.00 Q 366.95 1503.35 368.00 1502.00 L 368.00 1503.00 L 363.00 1510.00 L 363.00 1512.00 Q 370.35 1515.90 369.00 1515.00 L 372.00 1518.00 L 379.00 1523.00 L 386.00 1529.00 Q 395.40 1534.50 393.00 1533.00 L 402.00 1539.00 L 406.00 1539.00 L 414.00 1533.00 Q 425.75 1523.75 422.00 1526.00 L 439.00 1518.00 L 441.00 1522.00 L 439.00 1527.00 Q 439.20 1539.35 438.00 1538.00 L 447.00 1536.00 L 450.00 1544.00 L 453.00 1555.00 Q 473.20 1514.50 469.00 1522.00 L 481.00 1505.00 L 487.00 1493.00 L 492.00 1487.00 Q 495.20 1480.05 494.00 1482.00 L 500.00 1474.00 L 499.00 1469.00 L 493.00 1461.00 L 494.00 1453.00 Z"
          fill="rgb(0,76,18)"
          stroke="rgb(0,76,18)"
          stroke-width="0.5"
          inkstitch:object_type="fill"
          inkstitch:density_mm="0.4"
          inkstitch:angle="45"
          inkstitch:stitch_length_mm="2.5"
          inkstitch:color_sort_index="7"
          inkstitch:thread_color="#004c12"/>

    <path id="region_7_2"
          d="M 291.00 540.00 L 285.00 542.00 L 279.00 542.00 L 273.00 544.00 Q 264.95 547.75 266.00 547.00 L 266.00 549.00 L 271.00 551.00 L 279.00 551.00 Q 286.50 545.95 285.00 547.00 L 289.00 544.00 Z"
          fill="rgb(0,76,18)"
          stroke="rgb(0,76,18)"
          stroke-width="0.5"
          inkstitch:object_type="fill"
          inkstitch:density_mm="0.4"
          inkstitch:angle="45"
          inkstitch:stitch_length_mm="2.5"
          inkstitch:color_sort_index="7"
          inkstitch:thread_color="#004c12"/>

    <path id="region_7_3"
          d="M 916.00 539.00 L 921.00 570.00 L 929.00 572.00 L 938.00 569.00 L 938.00 560.00 L 922.00 544.00 Z"
          fill="rgb(0,76,18)"
          stroke="rgb(0,76,18)"
          stroke-width="0.5"
          inkstitch:object_type="fill"
          inkstitch:density_mm="0.4"
          inkstitch:angle="45"
          inkstitch:stitch_length_mm="2.5"
          inkstitch:color_sort_index="7"
          inkstitch:thread_color="#004c12"/>

    <path id="region_7_4"
          d="M 964.00 496.00 L 967.00 503.00 L 971.00 511.00 L 973.00 516.00 Q 979.20 530.40 978.00 528.00 L 981.00 532.00 L 984.00 540.00 L 985.00 547.00 Q 993.95 550.15 992.00 550.00 L 998.00 548.00 L 1008.00 543.00 L 1008.00 539.00 Q 1009.15 526.75 1009.00 529.00 L 1009.00 524.00 L 1015.00 520.00 L 1019.00 523.00 Q 1020.65 515.35 1019.00 517.00 L 1030.00 512.00 L 1032.00 515.00 L 1041.00 519.00 Q 1050.80 528.65 1049.00 527.00 L 1053.00 530.00 L 1053.00 531.00 L 1061.00 529.00 Q 1070.55 522.80 1068.00 524.00 L 1078.00 521.00 L 1083.00 519.00 L 1086.00 517.00 Q 1094.95 513.25 1093.00 514.00 L 1099.00 512.00 L 1099.00 510.00 L 1095.00 510.00 Q 1088.35 507.70 1090.00 508.00 L 1084.00 508.00 L 1076.00 506.00 L 1069.00 506.00 Q 1064.05 502.55 1066.00 503.00 L 1056.00 503.00 L 1049.00 501.00 L 1045.00 501.00 Q 1035.05 498.70 1037.00 499.00 L 1032.00 499.00 L 1023.00 497.00 L 1015.00 495.00 Q 1009.65 494.70 1011.00 495.00 L 1006.00 493.00 L 1001.00 493.00 L 996.00 491.00 Q 985.75 488.55 988.00 489.00 L 981.00 488.00 L 973.00 486.00 L 973.00 485.00 Q 970.70 485.75 971.00 485.00 L 971.00 490.00 L 967.00 495.00 Z"
          fill="rgb(0,76,18)"
          stroke="rgb(0,76,18)"
          stroke-width="0.5"
          inkstitch:object_type="fill"
          inkstitch:density_mm="0.4"
          inkstitch:angle="45"
          inkstitch:stitch_length_mm="2.5"
          inkstitch:color_sort_index="7"
          inkstitch:thread_color="#004c12"/>

    <path id="region_8_0"
          d="M 596.00 938.00 L 577.00 973.00 L 583.00 979.00 L 598.00 971.00 L 606.00 972.00 L 611.00 965.00 L 598.00 942.00 Z"
          fill="rgb(254,254,3)"
          stroke="rgb(254,254,3)"
          stroke-width="0.5"
          inkstitch:object_type="satin"
          inkstitch:density_mm="0.3"
          inkstitch:angle="0"
          inkstitch:stitch_length_mm="3.0"
          inkstitch:color_sort_index="8"
          inkstitch:thread_color="#fefe03"/>

    <path id="region_8_1"
          d="M 619.00 901.00 L 601.00 911.00 L 598.00 921.00 L 608.00 943.00 L 614.00 949.00 L 622.00 908.00 Z"
          fill="rgb(254,254,3)"
          stroke="rgb(254,254,3)"
          stroke-width="0.5"
          inkstitch:object_type="satin"
          inkstitch:density_mm="0.3"
          inkstitch:angle="0"
          inkstitch:stitch_length_mm="3.0"
          inkstitch:color_sort_index="8"
          inkstitch:thread_color="#fefe03"/>

    <path id="region_8_2"
          d="M 633.00 901.00 L 631.00 907.00 L 631.00 911.00 L 628.00 920.00 Q 627.70 925.35 628.00 924.00 L 626.00 929.00 L 626.00 933.00 L 624.00 938.00 Q 622.55 949.25 623.00 947.00 L 621.00 953.00 L 621.00 958.00 L 619.00 965.00 Q 616.10 973.80 617.00 972.00 L 613.00 977.00 L 606.00 988.00 L 619.00 991.00 Q 624.65 990.30 623.00 990.00 L 630.00 993.00 L 635.00 996.00 L 640.00 997.00 Q 647.65 1000.45 646.00 1000.00 L 651.00 1000.00 L 657.00 998.00 L 662.00 998.00 Q 681.75 997.15 678.00 997.00 L 687.00 999.00 L 695.00 1001.00 L 699.00 1001.00 Q 708.55 1003.90 706.00 1003.00 L 716.00 1007.00 L 722.00 1009.00 L 727.00 1010.00 Q 727.15 1003.00 727.00 1006.00 L 728.00 990.00 L 724.00 989.00 L 714.00 983.00 Q 692.65 983.30 697.00 983.00 L 685.00 985.00 L 676.00 985.00 L 666.00 979.00 Q 656.35 969.90 658.00 972.00 L 655.00 965.00 L 653.00 959.00 L 651.00 948.00 Q 650.30 936.00 650.00 939.00 L 653.00 928.00 L 653.00 918.00 L 654.00 909.00 Q 648.65 902.80 650.00 904.00 L 645.00 901.00 L 641.00 901.00 Z"
          fill="rgb(254,254,3)"
          stroke="rgb(254,254,3)"
          stroke-width="0.5"
          inkstitch:object_type="satin"
          inkstitch:density_mm="0.3"
          inkstitch:angle="0"
          inkstitch:stitch_length_mm="3.0"
          inkstitch:color_sort_index="8"
          inkstitch:thread_color="#fefe03"/>

    <path id="region_8_3"
          d="M 676.00 771.00 L 673.00 774.00 L 673.00 779.00 L 676.00 785.00 Q 679.90 792.80 679.00 791.00 L 682.00 797.00 L 685.00 799.00 L 686.00 804.00 Q 690.05 809.65 689.00 808.00 L 693.00 815.00 L 698.00 822.00 L 703.00 831.00 Q 710.50 841.40 709.00 839.00 L 713.00 847.00 L 716.00 851.00 L 718.00 856.00 Q 721.90 863.20 721.00 862.00 L 724.00 864.00 L 724.00 868.00 L 726.00 872.00 Q 728.60 877.05 728.00 876.00 L 730.00 879.00 L 732.00 884.00 L 735.00 892.00 Q 737.60 896.35 737.00 895.00 L 739.00 901.00 L 739.00 902.00 L 741.00 902.00 Q 740.70 891.15 741.00 894.00 L 739.00 883.00 L 738.00 874.00 L 736.00 869.00 Q 734.55 859.90 735.00 862.00 L 733.00 855.00 L 731.00 850.00 L 729.00 845.00 Q 725.25 835.05 726.00 837.00 L 724.00 832.00 L 722.00 825.00 L 720.00 820.00 Q 716.25 813.20 717.00 815.00 L 715.00 808.00 L 713.00 804.00 L 707.00 795.00 Q 700.80 785.35 702.00 787.00 L 699.00 784.00 L 694.00 779.00 L 691.00 776.00 Q 685.80 773.25 687.00 774.00 L 683.00 771.00 Z"
          fill="rgb(254,254,3)"
          stroke="rgb(254,254,3)"
          stroke-width="0.5"
          inkstitch:object_type="satin"
          inkstitch:density_mm="0.3"
          inkstitch:angle="0"
          inkstitch:stitch_length_mm="3.0"
          inkstitch:color_sort_index="8"
          inkstitch:thread_color="#fefe03"/>

    <path id="region_8_4"
          d="M 645.00 765.00 L 635.00 824.00 L 649.00 814.00 L 642.00 834.00 L 604.00 891.00 L 609.00 897.00 L 627.00 892.00 L 659.00 897.00 L 665.00 903.00 L 671.00 870.00 L 670.00 835.00 L 678.00 838.00 L 677.00 911.00 L 673.00 930.00 L 661.00 948.00 L 661.00 962.00 L 670.00 974.00 L 677.00 977.00 L 713.00 976.00 L 739.00 987.00 L 746.00 974.00 L 733.00 913.00 L 722.00 881.00 L 717.00 905.00 L 672.00 793.00 L 658.00 772.00 L 651.00 769.00 Z"
          fill="rgb(254,254,3)"
          stroke="rgb(254,254,3)"
          stroke-width="0.5"
          inkstitch:object_type="satin"
          inkstitch:density_mm="0.3"
          inkstitch:angle="0"
          inkstitch:stitch_length_mm="3.0"
          inkstitch:color_sort_index="8"
          inkstitch:thread_color="#fefe03"/>

    <path id="region_8_5"
          d="M 580.00 735.00 L 584.00 743.00 L 587.00 746.00 L 591.00 752.00 Q 593.75 758.80 593.00 757.00 L 596.00 764.00 L 599.00 769.00 L 602.00 774.00 Q 604.75 780.50 604.00 779.00 L 607.00 784.00 L 610.00 789.00 L 613.00 792.00 Q 618.90 797.35 618.00 796.00 L 619.00 801.00 L 625.00 807.00 L 625.00 808.00 Q 628.75 807.10 628.00 808.00 L 630.00 802.00 L 630.00 798.00 L 632.00 789.00 Q 634.45 778.60 634.00 781.00 L 635.00 773.00 L 636.00 769.00 L 630.00 763.00 Q 623.00 757.00 626.00 760.00 L 610.00 743.00 L 605.00 740.00 L 599.00 736.00 Q 592.35 732.40 594.00 733.00 L 588.00 732.00 L 581.00 735.00 Z"
          fill="rgb(254,254,3)"
          stroke="rgb(254,254,3)"
          stroke-width="0.5"
          inkstitch:object_type="satin"
          inkstitch:density_mm="0.3"
          inkstitch:angle="0"
          inkstitch:stitch_length_mm="3.0"
          inkstitch:color_sort_index="8"
          inkstitch:thread_color="#fefe03"/>

    <path id="region_9_0"
          d="M 838.00 1430.00 L 834.00 1428.00 L 833.00 1422.00 L 829.00 1421.00 Q 828.25 1418.70 829.00 1419.00 L 824.00 1419.00 L 814.00 1423.00 L 814.00 1427.00 Q 818.75 1426.70 818.00 1427.00 L 819.00 1425.00 L 825.00 1427.00 L 825.00 1432.00 Q 827.15 1434.35 827.00 1433.00 L 826.00 1441.00 L 819.00 1443.00 L 820.00 1449.00 Q 813.35 1451.70 815.00 1452.00 L 809.00 1447.00 L 809.00 1453.00 L 812.00 1456.00 Q 805.50 1456.85 807.00 1457.00 L 802.00 1455.00 L 802.00 1453.00 L 800.00 1452.00 Q 799.70 1449.55 800.00 1450.00 L 798.00 1449.00 L 798.00 1446.00 L 800.00 1445.00 Q 799.55 1441.10 800.00 1442.00 L 797.00 1439.00 L 793.00 1440.00 L 793.00 1447.00 Q 781.50 1445.55 783.00 1446.00 L 783.00 1444.00 L 785.00 1443.00 L 784.00 1432.00 Q 788.85 1426.40 789.00 1427.00 L 783.00 1428.00 L 779.00 1425.00 L 779.00 1428.00 Q 782.55 1429.90 783.00 1429.00 L 776.00 1434.00 L 773.00 1434.00 L 773.00 1442.00 Q 767.65 1447.20 769.00 1446.00 L 764.00 1450.00 L 764.00 1452.00 L 762.00 1453.00 Q 761.70 1468.10 762.00 1466.00 L 760.00 1467.00 L 760.00 1469.00 L 770.00 1468.00 Q 769.40 1464.40 770.00 1465.00 L 766.00 1464.00 L 767.00 1460.00 L 771.00 1461.00 Q 771.90 1463.60 771.00 1463.00 L 777.00 1465.00 L 777.00 1467.00 L 775.00 1468.00 Q 787.80 1473.45 786.00 1473.00 L 787.00 1471.00 L 793.00 1471.00 L 797.00 1471.00 Q 797.15 1473.30 797.00 1473.00 L 798.00 1473.00 L 799.00 1475.00 L 805.00 1478.00 Q 805.90 1471.20 805.00 1473.00 L 811.00 1466.00 L 810.00 1461.00 L 814.00 1459.00 Q 817.45 1468.80 817.00 1467.00 L 817.00 1471.00 L 815.00 1472.00 L 818.00 1475.00 Q 819.75 1472.70 819.00 1473.00 L 823.00 1473.00 L 830.00 1478.00 L 832.00 1477.00 Q 832.75 1471.50 832.00 1473.00 L 837.00 1467.00 L 838.00 1460.00 L 834.00 1455.00 Q 822.65 1448.65 824.00 1450.00 L 825.00 1446.00 L 827.00 1446.00 L 834.00 1442.00 L 835.00 1432.00 Z"
          fill="rgb(100,91,1)"
          stroke="rgb(100,91,1)"
          stroke-width="0.5"
          inkstitch:object_type="fill"
          inkstitch:density_mm="0.4"
          inkstitch:angle="45"
          inkstitch:stitch_length_mm="2.5"
          inkstitch:color_sort_index="9"
          inkstitch:thread_color="#645b01"/>

    <path id="region_9_1"
          d="M 315.00 1445.00 L 318.00 1448.00 L 336.00 1445.00 L 341.00 1444.00 Q 357.00 1440.25 354.00 1441.00 L 361.00 1439.00 L 367.00 1439.00 L 370.00 1440.00 Q 368.25 1435.40 369.00 1436.00 L 365.00 1436.00 L 361.00 1432.00 L 356.00 1430.00 Q 348.50 1427.10 350.00 1428.00 L 346.00 1424.00 L 341.00 1422.00 L 335.00 1420.00 Q 334.25 1418.55 335.00 1419.00 L 330.00 1417.00 L 326.00 1416.00 L 323.00 1423.00 Q 319.10 1429.80 320.00 1428.00 L 317.00 1435.00 L 317.00 1441.00 Z"
          fill="rgb(100,91,1)"
          stroke="rgb(100,91,1)"
          stroke-width="0.5"
          inkstitch:object_type="fill"
          inkstitch:density_mm="0.4"
          inkstitch:angle="45"
          inkstitch:stitch_length_mm="2.5"
          inkstitch:color_sort_index="9"
          inkstitch:thread_color="#645b01"/>

    <path id="region_9_2"
          d="M 463.00 1424.00 L 458.00 1423.00 L 455.00 1425.00 L 447.00 1422.00 Q 448.45 1417.40 448.00 1418.00 L 450.00 1418.00 L 447.00 1412.00 L 442.00 1408.00 Q 436.55 1403.80 437.00 1405.00 L 439.00 1400.00 L 435.00 1398.00 L 428.00 1401.00 Q 422.50 1399.30 424.00 1399.00 L 418.00 1403.00 L 414.00 1403.00 L 414.00 1401.00 Q 411.70 1401.30 412.00 1401.00 L 412.00 1403.00 L 409.00 1405.00 L 401.00 1405.00 Q 403.15 1413.80 403.00 1412.00 L 402.00 1417.00 L 404.00 1422.00 L 401.00 1424.00 Q 390.50 1428.60 392.00 1428.00 L 391.00 1428.00 L 391.00 1433.00 L 396.00 1433.00 Q 397.90 1428.40 397.00 1429.00 L 402.00 1429.00 L 406.00 1430.00 L 409.00 1428.00 Q 408.70 1432.60 409.00 1432.00 L 407.00 1432.00 L 407.00 1434.00 L 411.00 1434.00 Q 420.10 1433.00 418.00 1433.00 L 425.00 1434.00 L 429.00 1434.00 L 433.00 1440.00 Q 441.05 1443.70 440.00 1444.00 L 440.00 1438.00 L 435.00 1435.00 L 435.00 1434.00 Q 430.70 1430.80 431.00 1432.00 L 433.00 1426.00 L 436.00 1426.00 L 441.00 1424.00 Q 444.20 1434.35 443.00 1433.00 L 449.00 1433.00 L 453.00 1434.00 L 454.00 1430.00 Q 459.75 1431.70 459.00 1432.00 L 459.00 1428.00 L 463.00 1427.00 Z"
          fill="rgb(100,91,1)"
          stroke="rgb(100,91,1)"
          stroke-width="0.5"
          inkstitch:object_type="fill"
          inkstitch:density_mm="0.4"
          inkstitch:angle="45"
          inkstitch:stitch_length_mm="2.5"
          inkstitch:color_sort_index="9"
          inkstitch:thread_color="#645b01"/>

    <path id="region_9_3"
          d="M 400.00 1361.00 L 397.00 1361.00 L 393.00 1362.00 L 393.00 1360.00 Q 388.95 1360.90 390.00 1360.00 L 386.00 1366.00 L 385.00 1366.00 L 381.00 1373.00 Q 389.20 1378.35 388.00 1377.00 L 389.00 1382.00 L 385.00 1389.00 L 382.00 1395.00 Q 371.05 1398.25 373.00 1399.00 L 369.00 1390.00 L 368.00 1394.00 L 365.00 1394.00 Q 355.35 1399.30 357.00 1399.00 L 354.00 1396.00 L 348.00 1399.00 L 347.00 1403.00 Q 349.15 1408.05 349.00 1407.00 L 348.00 1410.00 L 351.00 1410.00 L 355.00 1405.00 Q 354.65 1400.25 353.00 1401.00 L 366.00 1400.00 L 369.00 1406.00 L 365.00 1409.00 Q 371.90 1410.70 371.00 1411.00 L 371.00 1407.00 L 373.00 1402.00 L 380.00 1402.00 Q 380.90 1398.25 380.00 1399.00 L 386.00 1397.00 L 389.00 1401.00 L 394.00 1398.00 Q 400.90 1400.45 400.00 1400.00 L 400.00 1401.00 L 404.00 1401.00 L 406.00 1395.00 Q 401.25 1392.95 402.00 1394.00 L 401.00 1388.00 L 397.00 1388.00 L 392.00 1384.00 Q 393.70 1374.80 394.00 1376.00 L 390.00 1376.00 L 390.00 1372.00 L 394.00 1372.00 L 399.00 1368.00 Z"
          fill="rgb(100,91,1)"
          stroke="rgb(100,91,1)"
          stroke-width="0.5"
          inkstitch:object_type="fill"
          inkstitch:density_mm="0.4"
          inkstitch:angle="45"
          inkstitch:stitch_length_mm="2.5"
          inkstitch:color_sort_index="9"
          inkstitch:thread_color="#645b01"/>

    <path id="region_9_4"
          d="M 126.00 1317.00 L 136.00 1330.00 L 141.00 1333.00 L 144.00 1339.00 Q 149.50 1343.65 148.00 1342.00 L 154.00 1350.00 L 158.00 1355.00 L 161.00 1359.00 Q 165.60 1361.45 165.00 1361.00 L 165.00 1362.00 L 180.00 1370.00 L 186.00 1372.00 Q 191.20 1375.45 190.00 1375.00 L 194.00 1375.00 L 196.00 1378.00 L 202.00 1380.00 Q 209.65 1383.60 208.00 1383.00 L 213.00 1384.00 L 219.00 1379.00 L 226.00 1374.00 Q 229.30 1379.80 229.00 1378.00 L 228.00 1386.00 L 229.00 1396.00 L 234.00 1400.00 Q 238.35 1404.90 237.00 1404.00 L 243.00 1406.00 L 245.00 1409.00 L 252.00 1410.00 Q 255.50 1406.10 254.00 1407.00 L 262.00 1404.00 L 263.00 1404.00 L 265.00 1401.00 Q 268.05 1400.55 267.00 1401.00 L 272.00 1398.00 L 278.00 1393.00 L 280.00 1393.00 Q 279.40 1387.80 280.00 1389.00 L 276.00 1385.00 L 271.00 1383.00 L 266.00 1380.00 Q 265.55 1378.55 266.00 1379.00 L 263.00 1377.00 L 260.00 1377.00 L 258.00 1374.00 Q 250.65 1370.10 252.00 1371.00 L 249.00 1368.00 L 243.00 1366.00 L 240.00 1363.00 Q 233.95 1360.25 235.00 1361.00 L 233.00 1358.00 L 230.00 1358.00 L 228.00 1355.00 Q 220.05 1350.95 222.00 1352.00 L 215.00 1348.00 L 210.00 1347.00 L 207.00 1344.00 Q 198.05 1341.10 200.00 1342.00 L 194.00 1338.00 L 186.00 1335.00 L 170.00 1331.00 Q 169.25 1329.85 170.00 1330.00 L 165.00 1330.00 L 149.00 1328.00 L 144.00 1325.00 Q 143.10 1315.80 144.00 1317.00 L 138.00 1317.00 Z"
          fill="rgb(100,91,1)"
          stroke="rgb(100,91,1)"
          stroke-width="0.5"
          inkstitch:object_type="fill"
          inkstitch:density_mm="0.4"
          inkstitch:angle="45"
          inkstitch:stitch_length_mm="2.5"
          inkstitch:color_sort_index="9"
          inkstitch:thread_color="#645b01"/>

    <path id="region_9_5"
          d="M 531.00 1307.00 L 531.00 1309.00 L 534.00 1314.00 L 533.00 1319.00 Q 538.75 1322.20 538.00 1321.00 L 538.00 1327.00 L 537.00 1327.00 L 537.00 1329.00 Q 541.45 1330.75 541.00 1330.00 L 540.00 1334.00 L 539.00 1334.00 L 534.00 1336.00 Q 527.80 1335.30 529.00 1335.00 L 526.00 1338.00 L 535.00 1339.00 L 538.00 1343.00 Q 539.70 1350.35 540.00 1349.00 L 536.00 1352.00 L 535.00 1356.00 L 543.00 1356.00 Q 554.50 1352.00 553.00 1352.00 L 553.00 1356.00 L 551.00 1356.00 L 551.00 1358.00 Q 555.60 1359.45 555.00 1359.00 L 555.00 1361.00 L 559.00 1361.00 L 561.00 1356.00 Q 563.15 1355.25 563.00 1356.00 L 562.00 1351.00 L 557.00 1348.00 L 557.00 1347.00 Q 554.25 1347.30 555.00 1347.00 L 552.00 1349.00 L 549.00 1345.00 L 553.00 1338.00 Q 557.75 1333.95 557.00 1335.00 L 558.00 1331.00 L 555.00 1330.00 L 552.00 1333.00 Q 547.25 1323.25 548.00 1324.00 L 547.00 1328.00 L 543.00 1320.00 L 539.00 1319.00 Q 538.55 1312.65 539.00 1314.00 L 536.00 1310.00 L 534.00 1307.00 Z"
          fill="rgb(100,91,1)"
          stroke="rgb(100,91,1)"
          stroke-width="0.5"
          inkstitch:object_type="fill"
          inkstitch:density_mm="0.4"
          inkstitch:angle="45"
          inkstitch:stitch_length_mm="2.5"
          inkstitch:color_sort_index="9"
          inkstitch:thread_color="#645b01"/>

    <path id="region_9_6"
          d="M 795.00 1170.00 L 790.00 1167.00 L 784.00 1169.00 L 780.00 1169.00 Q 775.80 1165.85 777.00 1166.00 L 772.00 1168.00 L 769.00 1166.00 L 769.00 1162.00 Q 762.35 1161.40 764.00 1162.00 L 758.00 1158.00 L 758.00 1157.00 L 756.00 1157.00 Q 756.30 1162.20 756.00 1161.00 L 758.00 1165.00 L 755.00 1172.00 L 754.00 1172.00 Q 753.55 1177.05 754.00 1176.00 L 751.00 1179.00 L 751.00 1181.00 L 753.00 1181.00 Q 761.80 1179.15 760.00 1179.00 L 765.00 1182.00 L 765.00 1189.00 L 757.00 1193.00 Q 750.80 1190.75 752.00 1190.00 L 749.00 1198.00 L 744.00 1201.00 L 738.00 1200.00 Q 738.15 1206.65 738.00 1205.00 L 739.00 1211.00 L 735.00 1212.00 L 731.00 1211.00 Q 728.10 1220.20 729.00 1219.00 L 725.00 1219.00 L 726.00 1224.00 L 737.00 1223.00 Q 742.20 1221.15 741.00 1221.00 L 745.00 1224.00 L 745.00 1220.00 L 753.00 1218.00 Q 761.65 1218.15 760.00 1218.00 L 764.00 1219.00 L 768.00 1216.00 L 770.00 1208.00 Q 776.10 1199.95 774.00 1201.00 L 784.00 1201.00 L 789.00 1202.00 L 791.00 1196.00 Q 782.35 1191.40 784.00 1192.00 L 780.00 1192.00 L 780.00 1198.00 L 772.00 1197.00 Q 768.30 1191.95 768.00 1193.00 L 774.00 1190.00 L 776.00 1184.00 L 782.00 1187.00 Q 785.00 1181.65 785.00 1183.00 L 782.00 1178.00 L 777.00 1176.00 L 783.00 1172.00 L 792.00 1171.00 Z"
          fill="rgb(100,91,1)"
          stroke="rgb(100,91,1)"
          stroke-width="0.5"
          inkstitch:object_type="fill"
          inkstitch:density_mm="0.4"
          inkstitch:angle="45"
          inkstitch:stitch_length_mm="2.5"
          inkstitch:color_sort_index="9"
          inkstitch:thread_color="#645b01"/>

    <path id="region_9_7"
          d="M 529.00 1149.00 L 525.00 1149.00 L 524.00 1145.00 L 525.00 1142.00 Q 519.35 1141.70 521.00 1142.00 L 514.00 1140.00 L 514.00 1139.00 L 511.00 1139.00 Q 510.40 1143.75 511.00 1143.00 L 507.00 1144.00 L 504.00 1142.00 L 499.00 1144.00 Q 494.10 1139.40 495.00 1140.00 L 493.00 1140.00 L 492.00 1148.00 L 486.00 1148.00 Q 482.55 1147.15 483.00 1147.00 L 483.00 1149.00 L 486.00 1152.00 L 481.00 1154.00 Q 480.85 1159.05 481.00 1158.00 L 480.00 1161.00 L 483.00 1167.00 L 479.00 1167.00 Q 478.10 1164.40 479.00 1165.00 L 473.00 1163.00 L 473.00 1156.00 L 474.00 1153.00 Q 467.10 1148.10 468.00 1149.00 L 468.00 1147.00 L 466.00 1147.00 L 463.00 1155.00 Q 463.55 1160.20 464.00 1159.00 L 460.00 1163.00 L 462.00 1163.00 L 464.00 1160.00 Q 468.60 1161.60 468.00 1161.00 L 468.00 1164.00 L 470.00 1168.00 L 469.00 1171.00 Q 477.80 1172.15 476.00 1172.00 L 481.00 1172.00 L 481.00 1173.00 L 484.00 1173.00 Q 485.30 1168.40 485.00 1169.00 L 486.00 1169.00 L 486.00 1165.00 L 493.00 1163.00 Q 498.15 1168.50 498.00 1167.00 L 494.00 1173.00 L 488.00 1171.00 L 490.00 1178.00 Q 488.30 1181.45 488.00 1181.00 L 492.00 1181.00 L 496.00 1175.00 L 498.00 1175.00 Q 499.60 1170.40 499.00 1171.00 L 502.00 1171.00 L 506.00 1170.00 L 503.00 1177.00 Q 499.00 1183.50 499.00 1182.00 L 503.00 1187.00 L 503.00 1189.00 L 505.00 1189.00 Q 505.30 1180.50 505.00 1182.00 L 507.00 1179.00 L 511.00 1179.00 L 511.00 1173.00 Q 513.75 1166.10 513.00 1167.00 L 516.00 1167.00 L 514.00 1161.00 L 511.00 1161.00 Q 503.95 1163.40 505.00 1164.00 L 504.00 1157.00 L 509.00 1153.00 L 512.00 1145.00 Q 516.90 1145.60 516.00 1145.00 L 518.00 1149.00 L 516.00 1152.00 L 523.00 1151.00 L 528.00 1153.00 Z"
          fill="rgb(100,91,1)"
          stroke="rgb(100,91,1)"
          stroke-width="0.5"
          inkstitch:object_type="fill"
          inkstitch:density_mm="0.4"
          inkstitch:angle="45"
          inkstitch:stitch_length_mm="2.5"
          inkstitch:color_sort_index="9"
          inkstitch:thread_color="#645b01"/>

    <path id="region_9_8"
          d="M 795.00 1098.00 L 788.00 1098.00 L 781.00 1094.00 L 781.00 1091.00 Q 773.50 1090.10 775.00 1091.00 L 771.00 1085.00 L 761.00 1083.00 L 761.00 1082.00 Q 757.55 1082.60 758.00 1082.00 L 758.00 1086.00 L 762.00 1087.00 L 762.00 1089.00 Q 771.20 1094.50 770.00 1093.00 L 770.00 1099.00 L 766.00 1103.00 L 766.00 1107.00 Q 761.10 1106.95 762.00 1108.00 L 760.00 1100.00 L 757.00 1100.00 L 753.00 1104.00 Q 742.05 1104.00 744.00 1104.00 L 740.00 1104.00 L 740.00 1108.00 L 744.00 1108.00 Q 744.10 1114.35 745.00 1113.00 L 738.00 1117.00 L 743.00 1119.00 L 743.00 1121.00 Q 751.20 1126.05 750.00 1125.00 L 751.00 1128.00 L 753.00 1128.00 L 759.00 1125.00 Q 760.75 1124.25 760.00 1125.00 L 764.00 1120.00 L 761.00 1117.00 L 764.00 1113.00 Q 771.20 1107.35 770.00 1109.00 L 772.00 1102.00 L 776.00 1103.00 L 776.00 1104.00 Q 788.55 1102.70 786.00 1103.00 L 793.00 1102.00 L 794.00 1102.00 Z"
          fill="rgb(100,91,1)"
          stroke="rgb(100,91,1)"
          stroke-width="0.5"
          inkstitch:object_type="fill"
          inkstitch:density_mm="0.4"
          inkstitch:angle="45"
          inkstitch:stitch_length_mm="2.5"
          inkstitch:color_sort_index="9"
          inkstitch:thread_color="#645b01"/>

    <path id="region_9_9"
          d="M 521.00 1107.00 L 517.00 1106.00 L 517.00 1102.00 L 513.00 1096.00 Q 512.40 1087.95 513.00 1089.00 L 509.00 1089.00 L 504.00 1085.00 L 503.00 1089.00 Q 496.50 1085.70 498.00 1086.00 L 493.00 1087.00 L 491.00 1082.00 L 491.00 1081.00 Q 485.25 1086.80 486.00 1085.00 L 486.00 1093.00 L 485.00 1110.00 L 477.00 1109.00 Q 475.65 1107.85 477.00 1108.00 L 468.00 1108.00 L 465.00 1114.00 L 466.00 1118.00 Q 459.95 1116.60 461.00 1116.00 L 459.00 1122.00 L 466.00 1122.00 L 474.00 1119.00 Q 475.00 1126.35 475.00 1125.00 L 474.00 1128.00 L 485.00 1129.00 L 487.00 1129.00 Q 489.20 1125.00 488.00 1125.00 L 495.00 1129.00 L 495.00 1131.00 L 497.00 1131.00 Q 497.60 1125.10 497.00 1126.00 L 501.00 1125.00 L 504.00 1129.00 L 504.00 1121.00 Q 516.95 1114.35 515.00 1116.00 L 517.00 1110.00 L 521.00 1109.00 Z"
          fill="rgb(100,91,1)"
          stroke="rgb(100,91,1)"
          stroke-width="0.5"
          inkstitch:object_type="fill"
          inkstitch:density_mm="0.4"
          inkstitch:angle="45"
          inkstitch:stitch_length_mm="2.5"
          inkstitch:color_sort_index="9"
          inkstitch:thread_color="#645b01"/>

    <path id="region_9_10"
          d="M 445.00 1051.00 L 443.00 1051.00 L 435.00 1054.00 L 431.00 1052.00 Q 431.90 1056.75 431.00 1056.00 L 437.00 1057.00 L 441.00 1066.00 L 437.00 1067.00 Q 431.25 1061.85 432.00 1062.00 L 432.00 1066.00 L 428.00 1067.00 L 420.00 1069.00 Q 415.40 1069.30 416.00 1069.00 L 416.00 1071.00 L 421.00 1073.00 L 427.00 1070.00 Q 429.15 1077.35 429.00 1076.00 L 428.00 1079.00 L 432.00 1080.00 L 422.00 1084.00 Q 420.70 1088.60 421.00 1088.00 L 420.00 1088.00 L 418.00 1092.00 L 422.00 1097.00 Q 427.05 1098.55 426.00 1099.00 L 429.00 1094.00 L 426.00 1091.00 L 430.00 1090.00 Q 435.30 1094.50 435.00 1093.00 L 432.00 1100.00 L 431.00 1100.00 L 431.00 1104.00 Q 437.20 1108.90 436.00 1108.00 L 439.00 1110.00 L 442.00 1110.00 L 439.00 1104.00 Q 434.25 1103.40 435.00 1104.00 L 434.00 1100.00 L 442.00 1097.00 L 446.00 1097.00 Q 445.25 1094.70 446.00 1095.00 L 441.00 1095.00 L 436.00 1092.00 L 436.00 1087.00 Q 434.90 1083.10 434.00 1084.00 L 442.00 1081.00 L 445.00 1079.00 L 448.00 1080.00 Q 448.15 1072.50 448.00 1074.00 L 449.00 1070.00 L 445.00 1065.00 L 445.00 1061.00 Q 446.00 1059.95 446.00 1061.00 L 445.00 1054.00 Z"
          fill="rgb(100,91,1)"
          stroke="rgb(100,91,1)"
          stroke-width="0.5"
          inkstitch:object_type="fill"
          inkstitch:density_mm="0.4"
          inkstitch:angle="45"
          inkstitch:stitch_length_mm="2.5"
          inkstitch:color_sort_index="9"
          inkstitch:thread_color="#645b01"/>

    <path id="region_9_11"
          d="M 464.00 746.00 L 467.00 753.00 L 471.00 756.00 L 474.00 761.00 Q 479.65 765.60 478.00 765.00 L 485.00 765.00 L 486.00 754.00 L 490.00 750.00 Q 496.95 749.30 495.00 749.00 L 503.00 752.00 L 507.00 754.00 L 512.00 752.00 Q 514.30 747.95 514.00 749.00 L 514.00 745.00 L 512.00 740.00 L 516.00 740.00 Q 516.75 743.75 516.00 743.00 L 521.00 745.00 L 523.00 740.00 L 519.00 740.00 Q 514.05 734.40 516.00 735.00 L 506.00 736.00 L 504.00 736.00 L 500.00 738.00 Q 497.70 729.50 498.00 731.00 L 498.00 728.00 L 491.00 728.00 L 490.00 736.00 Q 494.30 737.90 494.00 737.00 L 492.00 742.00 L 489.00 742.00 L 488.00 746.00 Q 486.85 746.60 487.00 746.00 L 487.00 750.00 L 483.00 753.00 L 479.00 753.00 Q 476.00 740.75 476.00 743.00 L 479.00 738.00 L 480.00 738.00 L 480.00 733.00 Q 484.60 730.10 484.00 731.00 L 484.00 727.00 L 485.00 724.00 L 481.00 722.00 Q 478.95 726.60 480.00 726.00 L 474.00 726.00 L 474.00 728.00 L 476.00 733.00 Q 471.40 740.65 472.00 739.00 L 472.00 744.00 L 467.00 746.00 L 466.00 743.00 Z"
          fill="rgb(100,91,1)"
          stroke="rgb(100,91,1)"
          stroke-width="0.5"
          inkstitch:object_type="fill"
          inkstitch:density_mm="0.4"
          inkstitch:angle="45"
          inkstitch:stitch_length_mm="2.5"
          inkstitch:color_sort_index="9"
          inkstitch:thread_color="#645b01"/>

    <path id="region_9_12"
          d="M 379.00 630.00 L 378.00 634.00 L 374.00 634.00 L 374.00 638.00 Q 371.70 639.90 372.00 639.00 L 372.00 644.00 L 367.00 647.00 L 371.00 647.00 Q 371.70 656.50 372.00 655.00 L 369.00 657.00 L 369.00 659.00 L 379.00 661.00 Q 369.80 673.10 371.00 671.00 L 371.00 675.00 L 369.00 675.00 L 370.00 682.00 Q 373.15 691.35 373.00 690.00 L 371.00 691.00 L 372.00 698.00 L 375.00 698.00 Q 376.60 696.15 376.00 696.00 L 379.00 699.00 L 377.00 700.00 L 377.00 702.00 Q 381.20 701.55 380.00 702.00 L 385.00 699.00 L 387.00 704.00 L 387.00 707.00 Q 382.80 710.80 384.00 709.00 L 379.00 719.00 L 381.00 719.00 L 385.00 724.00 Q 388.60 723.40 388.00 724.00 L 389.00 720.00 L 391.00 720.00 L 392.00 715.00 Q 385.10 714.70 386.00 715.00 L 386.00 713.00 L 393.00 710.00 L 397.00 715.00 Q 405.20 714.70 404.00 715.00 L 405.00 713.00 L 407.00 713.00 L 408.00 715.00 Q 412.60 716.75 412.00 716.00 L 412.00 720.00 L 410.00 721.00 L 410.00 724.00 Q 407.70 725.45 408.00 725.00 L 408.00 727.00 L 412.00 728.00 L 412.00 732.00 Q 417.05 739.05 416.00 738.00 L 419.00 739.00 L 420.00 737.00 L 425.00 741.00 Q 425.30 738.55 425.00 739.00 L 427.00 738.00 L 427.00 736.00 L 425.00 735.00 Q 426.45 730.40 426.00 731.00 L 428.00 731.00 L 429.00 733.00 L 436.00 734.00 Q 428.95 728.65 430.00 730.00 L 429.00 725.00 L 431.00 724.00 L 431.00 721.00 Q 427.40 720.70 428.00 721.00 L 427.00 719.00 L 423.00 718.00 L 423.00 716.00 Q 420.70 713.95 421.00 715.00 L 421.00 709.00 L 418.00 707.00 L 409.00 704.00 Q 406.50 706.45 408.00 706.00 L 399.00 707.00 L 392.00 702.00 L 390.00 693.00 Q 393.30 690.95 393.00 692.00 L 392.00 686.00 L 389.00 678.00 L 389.00 677.00 Q 383.25 676.40 384.00 677.00 L 384.00 673.00 L 390.00 673.00 L 393.00 669.00 Q 389.45 666.65 389.00 668.00 L 396.00 660.00 L 397.00 656.00 L 399.00 656.00 Q 398.55 653.70 399.00 654.00 L 396.00 654.00 L 395.00 656.00 L 390.00 658.00 Q 387.95 662.00 389.00 662.00 L 383.00 658.00 L 379.00 651.00 L 383.00 646.00 Q 378.40 644.25 379.00 645.00 L 379.00 641.00 L 381.00 641.00 L 381.00 636.00 Q 383.30 634.25 383.00 635.00 L 383.00 631.00 Z"
          fill="rgb(100,91,1)"
          stroke="rgb(100,91,1)"
          stroke-width="0.5"
          inkstitch:object_type="fill"
          inkstitch:density_mm="0.4"
          inkstitch:angle="45"
          inkstitch:stitch_length_mm="2.5"
          inkstitch:color_sort_index="9"
          inkstitch:thread_color="#645b01"/>

    <path id="region_9_13"
          d="M 443.00 538.00 L 442.00 542.00 L 441.00 542.00 L 442.00 547.00 Q 447.60 552.20 447.00 551.00 L 446.00 555.00 L 440.00 556.00 L 440.00 559.00 Q 444.75 561.20 444.00 560.00 L 445.00 567.00 L 450.00 569.00 L 463.00 567.00 Q 466.45 579.10 466.00 577.00 L 466.00 581.00 L 463.00 587.00 L 465.00 587.00 Q 470.05 584.75 469.00 584.00 L 472.00 592.00 L 474.00 588.00 L 473.00 583.00 Q 476.75 576.35 476.00 578.00 L 478.00 572.00 L 480.00 572.00 L 479.00 568.00 Q 475.95 568.45 477.00 568.00 L 472.00 571.00 L 472.00 567.00 L 473.00 567.00 Q 471.25 562.25 472.00 563.00 L 468.00 562.00 L 468.00 560.00 L 463.00 554.00 Q 463.45 549.40 463.00 550.00 L 466.00 550.00 L 466.00 545.00 L 462.00 545.00 Q 456.25 540.00 457.00 540.00 L 457.00 545.00 L 455.00 548.00 L 460.00 554.00 Q 460.25 558.60 461.00 558.00 L 455.00 558.00 L 451.00 560.00 L 450.00 553.00 Q 450.55 544.65 451.00 546.00 L 447.00 544.00 L 447.00 538.00 Z"
          fill="rgb(100,91,1)"
          stroke="rgb(100,91,1)"
          stroke-width="0.5"
          inkstitch:object_type="fill"
          inkstitch:density_mm="0.4"
          inkstitch:angle="45"
          inkstitch:stitch_length_mm="2.5"
          inkstitch:color_sort_index="9"
          inkstitch:thread_color="#645b01"/>

    <path id="region_10_0"
          d="M 341.00 528.00 L 369.00 541.00 L 391.00 544.00 L 400.00 538.00 L 354.00 524.00 L 346.00 524.00 Z"
          fill="rgb(233,97,5)"
          stroke="rgb(233,97,5)"
          stroke-width="0.5"
          inkstitch:object_type="satin"
          inkstitch:density_mm="0.3"
          inkstitch:angle="0"
          inkstitch:stitch_length_mm="3.0"
          inkstitch:color_sort_index="10"
          inkstitch:thread_color="#e96105"/>

    <path id="region_10_1"
          d="M 415.00 1.00 L 443.00 56.00 L 458.00 74.00 L 521.00 107.00 L 532.00 116.00 L 524.00 122.00 L 536.00 132.00 L 533.00 142.00 L 555.00 174.00 L 550.00 180.00 L 528.00 170.00 L 519.00 170.00 L 566.00 204.00 L 568.00 192.00 L 546.00 119.00 L 530.00 89.00 L 491.00 45.00 L 435.00 3.00 Z"
          fill="rgb(233,97,5)"
          stroke="rgb(233,97,5)"
          stroke-width="0.5"
          inkstitch:object_type="satin"
          inkstitch:density_mm="0.3"
          inkstitch:angle="0"
          inkstitch:stitch_length_mm="3.0"
          inkstitch:color_sort_index="10"
          inkstitch:thread_color="#e96105"/>

    <path id="region_11_0"
          d="M 789.00 498.00 L 781.00 503.00 L 782.00 531.00 L 788.00 547.00 L 799.00 560.00 L 807.00 562.00 L 824.00 539.00 L 824.00 514.00 L 815.00 502.00 L 807.00 498.00 L 794.00 497.00 Z"
          fill="rgb(136,27,8)"
          stroke="rgb(136,27,8)"
          stroke-width="0.5"
          inkstitch:object_type="fill"
          inkstitch:density_mm="0.4"
          inkstitch:angle="45"
          inkstitch:stitch_length_mm="2.5"
          inkstitch:color_sort_index="11"
          inkstitch:thread_color="#881b08"/>

    <path id="region_11_1"
          d="M 565.00 498.00 L 560.00 506.00 L 559.00 516.00 L 561.00 523.00 Q 561.45 528.35 561.00 527.00 L 564.00 532.00 L 567.00 538.00 L 569.00 543.00 Q 583.70 557.25 581.00 555.00 L 587.00 558.00 L 597.00 559.00 L 604.00 557.00 Q 611.55 554.05 609.00 556.00 L 621.00 544.00 L 624.00 539.00 L 626.00 534.00 Q 628.45 521.75 628.00 524.00 L 629.00 519.00 L 627.00 513.00 L 627.00 508.00 Q 622.65 501.35 624.00 503.00 L 618.00 497.00 L 618.00 496.00 L 612.00 493.00 Q 602.10 489.40 606.00 490.00 L 586.00 489.00 L 581.00 491.00 L 576.00 493.00 Q 569.50 495.75 571.00 495.00 L 566.00 498.00 Z"
          fill="rgb(136,27,8)"
          stroke="rgb(136,27,8)"
          stroke-width="0.5"
          inkstitch:object_type="fill"
          inkstitch:density_mm="0.4"
          inkstitch:angle="45"
          inkstitch:stitch_length_mm="2.5"
          inkstitch:color_sort_index="11"
          inkstitch:thread_color="#881b08"/>

    <path id="region_12_0"
          d="M 756.00 1492.00 L 750.00 1489.00 L 746.00 1491.00 L 743.00 1490.00 Q 729.00 1493.45 732.00 1493.00 L 723.00 1493.00 L 708.00 1495.00 L 698.00 1495.00 Q 683.45 1494.15 686.00 1494.00 L 681.00 1496.00 L 678.00 1492.00 L 666.00 1492.00 Q 658.50 1489.85 660.00 1490.00 L 656.00 1491.00 L 653.00 1502.00 L 653.00 1508.00 Q 650.70 1514.50 651.00 1513.00 L 651.00 1518.00 L 649.00 1522.00 L 650.00 1526.00 Q 647.70 1535.95 648.00 1534.00 L 648.00 1539.00 L 646.00 1545.00 L 646.00 1550.00 Q 644.60 1559.90 644.00 1559.00 L 650.00 1556.00 L 653.00 1554.00 L 657.00 1554.00 Q 657.85 1565.10 658.00 1563.00 L 656.00 1568.00 L 657.00 1568.00 L 659.00 1571.00 Q 669.55 1566.95 667.00 1568.00 L 676.00 1564.00 L 681.00 1568.00 L 683.00 1573.00 Q 695.70 1569.25 693.00 1570.00 L 701.00 1568.00 L 709.00 1568.00 L 715.00 1570.00 Q 723.65 1570.00 722.00 1570.00 L 726.00 1570.00 L 735.00 1572.00 L 742.00 1570.00 Q 750.80 1572.30 749.00 1572.00 L 754.00 1572.00 L 756.00 1508.00 L 756.00 1503.00 L 756.00 1499.00 Z"
          fill="rgb(19,117,34)"
          stroke="rgb(19,117,34)"
          stroke-width="0.5"
          inkstitch:object_type="fill"
          inkstitch:density_mm="0.4"
          inkstitch:angle="45"
          inkstitch:stitch_length_mm="2.5"
          inkstitch:color_sort_index="12"
          inkstitch:thread_color="#137522"/>

    <path id="region_12_1"
          d="M 496.00 1447.00 L 487.00 1451.00 L 478.00 1458.00 L 474.00 1459.00 Q 468.80 1463.45 470.00 1463.00 L 466.00 1462.00 L 467.00 1458.00 L 471.00 1453.00 Q 471.30 1450.55 471.00 1451.00 L 473.00 1450.00 L 473.00 1447.00 L 475.00 1446.00 Q 474.70 1442.55 475.00 1443.00 L 473.00 1443.00 L 472.00 1441.00 L 468.00 1441.00 Q 459.65 1447.90 461.00 1447.00 L 459.00 1447.00 L 459.00 1448.00 L 454.00 1451.00 Q 447.80 1454.45 449.00 1454.00 L 446.00 1454.00 L 443.00 1457.00 L 435.00 1453.00 Q 423.15 1451.40 426.00 1452.00 L 416.00 1449.00 L 405.00 1447.00 L 401.00 1445.00 Q 395.80 1444.70 397.00 1445.00 L 393.00 1443.00 L 388.00 1444.00 L 386.00 1451.00 Q 382.10 1454.50 383.00 1453.00 L 380.00 1461.00 L 375.00 1467.00 L 375.00 1471.00 Q 366.65 1478.35 368.00 1477.00 L 366.00 1480.00 L 365.00 1480.00 L 365.00 1483.00 Q 358.80 1488.50 360.00 1487.00 L 357.00 1493.00 L 364.00 1490.00 L 365.00 1488.00 Q 370.05 1487.85 369.00 1488.00 L 372.00 1487.00 L 374.00 1494.00 L 365.00 1504.00 Q 363.75 1514.10 363.00 1512.00 L 370.00 1518.00 L 373.00 1518.00 L 374.00 1520.00 Q 375.45 1520.45 375.00 1520.00 L 377.00 1523.00 L 379.00 1523.00 L 384.00 1529.00 Q 386.45 1529.30 386.00 1529.00 L 387.00 1531.00 L 399.00 1537.00 L 402.00 1540.00 Q 411.10 1536.50 409.00 1538.00 L 416.00 1530.00 L 425.00 1525.00 L 427.00 1525.00 Q 429.05 1522.40 428.00 1523.00 L 434.00 1521.00 L 439.00 1518.00 L 442.00 1523.00 Q 440.55 1527.60 441.00 1527.00 L 439.00 1527.00 L 438.00 1539.00 L 446.00 1536.00 Q 450.75 1543.25 450.00 1541.00 L 451.00 1551.00 L 455.00 1551.00 L 459.00 1543.00 Q 460.20 1536.45 459.00 1539.00 L 467.00 1526.00 L 474.00 1517.00 L 481.00 1507.00 Q 486.20 1492.90 485.00 1495.00 L 489.00 1493.00 L 493.00 1485.00 L 499.00 1478.00 Q 499.55 1469.35 500.00 1471.00 L 496.00 1467.00 L 494.00 1462.00 L 494.00 1453.00 Z"
          fill="rgb(19,117,34)"
          stroke="rgb(19,117,34)"
          stroke-width="0.5"
          inkstitch:object_type="fill"
          inkstitch:density_mm="0.4"
          inkstitch:angle="45"
          inkstitch:stitch_length_mm="2.5"
          inkstitch:color_sort_index="12"
          inkstitch:thread_color="#137522"/>

    <path id="region_12_2"
          d="M 964.00 496.00 L 966.00 503.00 L 971.00 511.00 L 975.00 521.00 Q 978.90 530.25 978.00 528.00 L 981.00 536.00 L 984.00 544.00 L 986.00 550.00 Q 995.85 550.40 993.00 551.00 L 1005.00 546.00 L 1007.00 546.00 L 1009.00 539.00 Q 1009.45 531.30 1009.00 534.00 L 1012.00 521.00 L 1017.00 521.00 L 1020.00 523.00 Q 1021.05 515.35 1020.00 517.00 L 1027.00 512.00 L 1043.00 523.00 L 1049.00 527.00 Q 1054.20 531.90 1053.00 531.00 L 1057.00 533.00 L 1063.00 529.00 L 1065.00 526.00 Q 1079.25 522.10 1077.00 523.00 L 1080.00 520.00 L 1085.00 518.00 L 1094.00 514.00 Q 1099.75 511.40 1099.00 512.00 L 1099.00 510.00 L 1090.00 508.00 L 1086.00 508.00 Q 1074.45 504.55 1077.00 505.00 L 1069.00 505.00 L 1056.00 502.00 L 1051.00 502.00 Q 1040.75 498.55 1043.00 499.00 L 1036.00 499.00 L 1027.00 496.00 L 1019.00 496.00 Q 1009.80 493.55 1011.00 494.00 L 1011.00 493.00 L 1006.00 493.00 L 995.00 491.00 Q 985.90 487.55 988.00 488.00 L 981.00 488.00 L 975.00 485.00 L 969.00 484.00 Q 968.55 492.65 969.00 491.00 L 966.00 495.00 Z"
          fill="rgb(19,117,34)"
          stroke="rgb(19,117,34)"
          stroke-width="0.5"
          inkstitch:object_type="fill"
          inkstitch:density_mm="0.4"
          inkstitch:angle="45"
          inkstitch:stitch_length_mm="2.5"
          inkstitch:color_sort_index="12"
          inkstitch:thread_color="#137522"/>

    <path id="region_13_0"
          d="M 634.00 1736.00 L 643.00 1777.00 L 649.00 1783.00 L 667.00 1786.00 L 663.00 1756.00 L 659.00 1749.00 L 667.00 1744.00 L 660.00 1738.00 L 643.00 1736.00 Z"
          fill="rgb(188,86,3)"
          stroke="rgb(188,86,3)"
          stroke-width="0.5"
          inkstitch:object_type="satin"
          inkstitch:density_mm="0.3"
          inkstitch:angle="0"
          inkstitch:stitch_length_mm="3.0"
          inkstitch:color_sort_index="13"
          inkstitch:thread_color="#bc5603"/>

    <path id="region_13_1"
          d="M 290.00 1637.00 L 290.00 1642.00 L 286.00 1645.00 L 285.00 1645.00 Q 284.85 1651.35 285.00 1650.00 L 284.00 1654.00 L 285.00 1659.00 L 283.00 1667.00 Q 279.70 1673.35 280.00 1672.00 L 281.00 1676.00 L 279.00 1690.00 L 278.00 1690.00 Q 278.60 1693.05 278.00 1692.00 L 282.00 1697.00 L 284.00 1703.00 L 290.00 1705.00 Q 295.90 1695.80 295.00 1697.00 L 296.00 1697.00 L 296.00 1693.00 L 299.00 1689.00 Q 300.30 1688.40 300.00 1689.00 L 301.00 1685.00 L 303.00 1685.00 L 303.00 1681.00 Q 305.60 1674.80 305.00 1676.00 L 307.00 1673.00 L 315.00 1672.00 L 318.00 1675.00 Q 320.90 1684.10 320.00 1682.00 L 324.00 1689.00 L 326.00 1699.00 L 329.00 1701.00 Q 332.00 1692.05 332.00 1694.00 L 329.00 1688.00 L 326.00 1681.00 L 323.00 1675.00 Q 318.70 1673.10 319.00 1674.00 L 321.00 1669.00 L 317.00 1665.00 L 314.00 1662.00 Q 309.40 1656.80 310.00 1658.00 L 310.00 1654.00 L 305.00 1651.00 L 303.00 1646.00 Q 298.40 1641.25 299.00 1642.00 L 299.00 1641.00 L 292.00 1637.00 Z"
          fill="rgb(188,86,3)"
          stroke="rgb(188,86,3)"
          stroke-width="0.5"
          inkstitch:object_type="satin"
          inkstitch:density_mm="0.3"
          inkstitch:angle="0"
          inkstitch:stitch_length_mm="3.0"
          inkstitch:color_sort_index="13"
          inkstitch:thread_color="#bc5603"/>

    <path id="region_13_2"
          d="M 671.00 1580.00 L 668.00 1589.00 L 665.00 1631.00 L 660.00 1637.00 L 655.00 1669.00 L 648.00 1676.00 L 646.00 1686.00 L 640.00 1692.00 L 636.00 1716.00 L 642.00 1724.00 L 682.00 1727.00 L 713.00 1746.00 L 727.00 1761.00 L 772.00 1778.00 L 796.00 1776.00 L 821.00 1781.00 L 832.00 1775.00 L 846.00 1752.00 L 842.00 1718.00 L 825.00 1708.00 L 813.00 1708.00 L 805.00 1704.00 L 788.00 1710.00 L 780.00 1709.00 L 773.00 1715.00 L 756.00 1715.00 L 746.00 1731.00 L 726.00 1738.00 L 719.00 1733.00 L 716.00 1716.00 L 724.00 1710.00 L 726.00 1703.00 L 705.00 1703.00 L 693.00 1695.00 L 693.00 1679.00 L 700.00 1673.00 L 711.00 1671.00 L 716.00 1654.00 L 696.00 1654.00 L 684.00 1643.00 L 684.00 1632.00 L 697.00 1622.00 L 715.00 1624.00 L 720.00 1608.00 L 703.00 1610.00 L 691.00 1606.00 L 687.00 1591.00 L 676.00 1587.00 Z"
          fill="rgb(188,86,3)"
          stroke="rgb(188,86,3)"
          stroke-width="0.5"
          inkstitch:object_type="satin"
          inkstitch:density_mm="0.3"
          inkstitch:angle="0"
          inkstitch:stitch_length_mm="3.0"
          inkstitch:color_sort_index="13"
          inkstitch:thread_color="#bc5603"/>

    <path id="region_13_3"
          d="M 376.00 1538.00 L 338.00 1588.00 L 303.00 1619.00 L 304.00 1628.00 L 318.00 1643.00 L 344.00 1689.00 L 350.00 1719.00 L 348.00 1728.00 L 358.00 1745.00 L 407.00 1769.00 L 448.00 1776.00 L 451.00 1768.00 L 457.00 1763.00 L 458.00 1732.00 L 435.00 1704.00 L 401.00 1686.00 L 384.00 1695.00 L 362.00 1698.00 L 354.00 1682.00 L 359.00 1672.00 L 391.00 1662.00 L 393.00 1654.00 L 365.00 1654.00 L 358.00 1650.00 L 356.00 1633.00 L 362.00 1627.00 L 389.00 1624.00 L 395.00 1617.00 L 389.00 1608.00 L 381.00 1608.00 L 371.00 1588.00 L 378.00 1578.00 L 386.00 1575.00 L 394.00 1577.00 L 386.00 1564.00 L 390.00 1553.00 L 387.00 1542.00 L 380.00 1538.00 Z"
          fill="rgb(188,86,3)"
          stroke="rgb(188,86,3)"
          stroke-width="0.5"
          inkstitch:object_type="satin"
          inkstitch:density_mm="0.3"
          inkstitch:angle="0"
          inkstitch:stitch_length_mm="3.0"
          inkstitch:color_sort_index="13"
          inkstitch:thread_color="#bc5603"/>

    <path id="region_13_4"
          d="M 570.00 741.00 L 555.00 734.00 L 547.00 737.00 L 561.00 757.00 L 569.00 793.00 L 550.00 823.00 L 558.00 824.00 L 543.00 854.00 L 535.00 853.00 L 523.00 874.00 L 515.00 882.00 L 515.00 899.00 L 493.00 924.00 L 486.00 928.00 L 483.00 935.00 L 475.00 936.00 L 458.00 946.00 L 443.00 941.00 L 433.00 946.00 L 441.00 952.00 L 439.00 959.00 L 420.00 967.00 L 410.00 965.00 L 388.00 990.00 L 419.00 983.00 L 432.00 973.00 L 486.00 956.00 L 524.00 925.00 L 540.00 905.00 L 545.00 890.00 L 558.00 878.00 L 563.00 861.00 L 579.00 837.00 L 581.00 807.00 L 588.00 791.00 L 583.00 783.00 L 578.00 751.00 L 570.00 745.00 Z"
          fill="rgb(188,86,3)"
          stroke="rgb(188,86,3)"
          stroke-width="0.5"
          inkstitch:object_type="satin"
          inkstitch:density_mm="0.3"
          inkstitch:angle="0"
          inkstitch:stitch_length_mm="3.0"
          inkstitch:color_sort_index="13"
          inkstitch:thread_color="#bc5603"/>

    <path id="region_13_5"
          d="M 341.00 526.00 L 368.00 540.00 L 396.00 543.00 L 402.00 537.00 L 343.00 525.00 Z"
          fill="rgb(188,86,3)"
          stroke="rgb(188,86,3)"
          stroke-width="0.5"
          inkstitch:object_type="satin"
          inkstitch:density_mm="0.3"
          inkstitch:angle="0"
          inkstitch:stitch_length_mm="3.0"
          inkstitch:color_sort_index="13"
          inkstitch:thread_color="#bc5603"/>

    <path id="region_13_6"
          d="M 416.00 1.00 L 422.00 11.00 L 425.00 21.00 L 427.00 22.00 Q 431.75 32.35 431.00 31.00 L 432.00 31.00 L 437.00 41.00 L 442.00 54.00 Q 445.45 55.45 445.00 55.00 L 445.00 57.00 L 447.00 58.00 L 451.00 66.00 Q 466.45 78.25 463.00 76.00 L 474.00 81.00 L 475.00 83.00 L 488.00 88.00 Q 495.40 92.20 493.00 91.00 L 504.00 96.00 L 513.00 102.00 L 523.00 107.00 Q 533.90 127.00 533.00 124.00 L 529.00 127.00 L 530.00 127.00 L 532.00 130.00 Q 535.90 130.75 535.00 130.00 L 538.00 135.00 L 533.00 143.00 L 531.00 143.00 Q 532.20 146.20 531.00 145.00 L 539.00 151.00 L 544.00 156.00 L 545.00 160.00 Q 549.05 164.65 548.00 163.00 L 552.00 171.00 L 556.00 174.00 L 556.00 179.00 Q 547.05 180.55 549.00 181.00 L 543.00 176.00 L 539.00 176.00 L 538.00 174.00 Q 517.30 169.85 520.00 170.00 L 520.00 173.00 L 532.00 179.00 L 537.00 183.00 Q 547.65 189.20 546.00 188.00 L 548.00 191.00 L 556.00 195.00 L 567.00 204.00 Q 568.45 207.45 568.00 207.00 L 570.00 207.00 L 568.00 198.00 L 563.00 185.00 Q 563.70 176.20 564.00 178.00 L 561.00 173.00 L 561.00 164.00 L 557.00 155.00 Q 550.80 134.85 552.00 138.00 L 549.00 134.00 L 549.00 130.00 L 546.00 126.00 Q 543.95 115.45 545.00 118.00 L 539.00 109.00 L 538.00 103.00 L 535.00 101.00 Q 534.10 97.80 535.00 99.00 L 529.00 93.00 L 528.00 87.00 L 524.00 82.00 Q 512.35 71.05 514.00 73.00 L 513.00 69.00 L 501.00 59.00 L 492.00 48.00 Q 487.05 43.50 489.00 45.00 L 479.00 38.00 L 476.00 34.00 L 455.00 20.00 Q 453.55 17.70 454.00 18.00 L 452.00 18.00 L 444.00 11.00 L 431.00 1.00 Z"
          fill="rgb(188,86,3)"
          stroke="rgb(188,86,3)"
          stroke-width="0.5"
          inkstitch:object_type="satin"
          inkstitch:density_mm="0.3"
          inkstitch:angle="0"
          inkstitch:stitch_length_mm="3.0"
          inkstitch:color_sort_index="13"
          inkstitch:thread_color="#bc5603"/>

    <path id="region_14_0"
          d="M 785.00 1437.00 L 785.00 1439.00 L 788.00 1439.00 L 788.00 1437.00 Z"
          fill="rgb(142,130,41)"
          stroke="rgb(142,130,41)"
          stroke-width="0.5"
          inkstitch:object_type="satin"
          inkstitch:density_mm="0.3"
          inkstitch:angle="0"
          inkstitch:stitch_length_mm="3.0"
          inkstitch:color_sort_index="14"
          inkstitch:thread_color="#8e8229"/>

    <path id="region_14_1"
          d="M 409.00 1347.00 L 409.00 1349.00 L 412.00 1349.00 L 412.00 1347.00 Z"
          fill="rgb(142,130,41)"
          stroke="rgb(142,130,41)"
          stroke-width="0.5"
          inkstitch:object_type="satin"
          inkstitch:density_mm="0.3"
          inkstitch:angle="0"
          inkstitch:stitch_length_mm="3.0"
          inkstitch:color_sort_index="14"
          inkstitch:thread_color="#8e8229"/>

    <path id="region_14_2"
          d="M 455.00 1344.00 L 455.00 1347.00 L 457.00 1347.00 L 457.00 1344.00 Z"
          fill="rgb(142,130,41)"
          stroke="rgb(142,130,41)"
          stroke-width="0.5"
          inkstitch:object_type="satin"
          inkstitch:density_mm="0.3"
          inkstitch:angle="0"
          inkstitch:stitch_length_mm="3.0"
          inkstitch:color_sort_index="14"
          inkstitch:thread_color="#8e8229"/>

    <path id="region_14_3"
          d="M 377.00 1342.00 L 377.00 1345.00 L 378.00 1346.00 L 380.00 1346.00 L 380.00 1344.00 L 379.00 1343.00 L 379.00 1342.00 Z"
          fill="rgb(142,130,41)"
          stroke="rgb(142,130,41)"
          stroke-width="0.5"
          inkstitch:object_type="satin"
          inkstitch:density_mm="0.3"
          inkstitch:angle="0"
          inkstitch:stitch_length_mm="3.0"
          inkstitch:color_sort_index="14"
          inkstitch:thread_color="#8e8229"/>

    <path id="region_14_4"
          d="M 163.00 1289.00 L 169.00 1295.00 Z"
          fill="rgb(142,130,41)"
          stroke="rgb(142,130,41)"
          stroke-width="0.5"
          inkstitch:object_type="satin"
          inkstitch:density_mm="0.3"
          inkstitch:angle="0"
          inkstitch:stitch_length_mm="3.0"
          inkstitch:color_sort_index="14"
          inkstitch:thread_color="#8e8229"/>

    <path id="region_14_5"
          d="M 152.00 1251.00 L 152.00 1253.00 L 155.00 1253.00 L 155.00 1251.00 Z"
          fill="rgb(142,130,41)"
          stroke="rgb(142,130,41)"
          stroke-width="0.5"
          inkstitch:object_type="satin"
          inkstitch:density_mm="0.3"
          inkstitch:angle="0"
          inkstitch:stitch_length_mm="3.0"
          inkstitch:color_sort_index="14"
          inkstitch:thread_color="#8e8229"/>

    <path id="region_14_6"
          d="M 186.00 1242.00 L 186.00 1244.00 L 189.00 1244.00 L 189.00 1242.00 Z"
          fill="rgb(142,130,41)"
          stroke="rgb(142,130,41)"
          stroke-width="0.5"
          inkstitch:object_type="satin"
          inkstitch:density_mm="0.3"
          inkstitch:angle="0"
          inkstitch:stitch_length_mm="3.0"
          inkstitch:color_sort_index="14"
          inkstitch:thread_color="#8e8229"/>

    <path id="region_14_7"
          d="M 261.00 1228.00 L 261.00 1232.00 L 263.00 1232.00 L 263.00 1228.00 Z"
          fill="rgb(142,130,41)"
          stroke="rgb(142,130,41)"
          stroke-width="0.5"
          inkstitch:object_type="satin"
          inkstitch:density_mm="0.3"
          inkstitch:angle="0"
          inkstitch:stitch_length_mm="3.0"
          inkstitch:color_sort_index="14"
          inkstitch:thread_color="#8e8229"/>

    <path id="region_14_8"
          d="M 261.00 1205.00 L 261.00 1208.00 L 263.00 1208.00 L 263.00 1205.00 Z"
          fill="rgb(142,130,41)"
          stroke="rgb(142,130,41)"
          stroke-width="0.5"
          inkstitch:object_type="satin"
          inkstitch:density_mm="0.3"
          inkstitch:angle="0"
          inkstitch:stitch_length_mm="3.0"
          inkstitch:color_sort_index="14"
          inkstitch:thread_color="#8e8229"/>

    <path id="region_14_9"
          d="M 215.00 1190.00 L 214.00 1191.00 L 214.00 1193.00 L 217.00 1193.00 L 217.00 1190.00 Z"
          fill="rgb(142,130,41)"
          stroke="rgb(142,130,41)"
          stroke-width="0.5"
          inkstitch:object_type="satin"
          inkstitch:density_mm="0.3"
          inkstitch:angle="0"
          inkstitch:stitch_length_mm="3.0"
          inkstitch:color_sort_index="14"
          inkstitch:thread_color="#8e8229"/>

    <path id="region_14_10"
          d="M 239.00 1173.00 L 243.00 1180.00 Z"
          fill="rgb(142,130,41)"
          stroke="rgb(142,130,41)"
          stroke-width="0.5"
          inkstitch:object_type="satin"
          inkstitch:density_mm="0.3"
          inkstitch:angle="0"
          inkstitch:stitch_length_mm="3.0"
          inkstitch:color_sort_index="14"
          inkstitch:thread_color="#8e8229"/>

    <path id="region_14_11"
          d="M 277.00 1140.00 L 277.00 1144.00 L 279.00 1144.00 L 279.00 1140.00 Z"
          fill="rgb(142,130,41)"
          stroke="rgb(142,130,41)"
          stroke-width="0.5"
          inkstitch:object_type="satin"
          inkstitch:density_mm="0.3"
          inkstitch:angle="0"
          inkstitch:stitch_length_mm="3.0"
          inkstitch:color_sort_index="14"
          inkstitch:thread_color="#8e8229"/>

    <path id="region_14_12"
          d="M 286.00 1118.00 L 286.00 1122.00 L 288.00 1122.00 L 288.00 1118.00 Z"
          fill="rgb(142,130,41)"
          stroke="rgb(142,130,41)"
          stroke-width="0.5"
          inkstitch:object_type="satin"
          inkstitch:density_mm="0.3"
          inkstitch:angle="0"
          inkstitch:stitch_length_mm="3.0"
          inkstitch:color_sort_index="14"
          inkstitch:thread_color="#8e8229"/>

    <path id="region_14_13"
          d="M 518.00 960.00 L 518.00 962.00 L 524.00 962.00 L 524.00 959.00 L 519.00 959.00 Z"
          fill="rgb(142,130,41)"
          stroke="rgb(142,130,41)"
          stroke-width="0.5"
          inkstitch:object_type="satin"
          inkstitch:density_mm="0.3"
          inkstitch:angle="0"
          inkstitch:stitch_length_mm="3.0"
          inkstitch:color_sort_index="14"
          inkstitch:thread_color="#8e8229"/>

    <path id="region_14_14"
          d="M 458.00 904.00 L 458.00 906.00 L 461.00 906.00 L 461.00 904.00 Z"
          fill="rgb(142,130,41)"
          stroke="rgb(142,130,41)"
          stroke-width="0.5"
          inkstitch:object_type="satin"
          inkstitch:density_mm="0.3"
          inkstitch:angle="0"
          inkstitch:stitch_length_mm="3.0"
          inkstitch:color_sort_index="14"
          inkstitch:thread_color="#8e8229"/>

    <path id="region_14_15"
          d="M 480.00 883.00 L 480.00 885.00 L 481.00 886.00 L 484.00 886.00 L 485.00 885.00 L 485.00 883.00 Z"
          fill="rgb(142,130,41)"
          stroke="rgb(142,130,41)"
          stroke-width="0.5"
          inkstitch:object_type="satin"
          inkstitch:density_mm="0.3"
          inkstitch:angle="0"
          inkstitch:stitch_length_mm="3.0"
          inkstitch:color_sort_index="14"
          inkstitch:thread_color="#8e8229"/>

    <path id="region_14_16"
          d="M 473.00 882.00 L 471.00 882.00 L 470.00 883.00 L 469.00 883.00 L 469.00 885.00 L 470.00 886.00 L 472.00 886.00 L 472.00 885.00 L 473.00 884.00 Z"
          fill="rgb(142,130,41)"
          stroke="rgb(142,130,41)"
          stroke-width="0.5"
          inkstitch:object_type="satin"
          inkstitch:density_mm="0.3"
          inkstitch:angle="0"
          inkstitch:stitch_length_mm="3.0"
          inkstitch:color_sort_index="14"
          inkstitch:thread_color="#8e8229"/>

    <path id="region_14_17"
          d="M 496.00 860.00 L 496.00 862.00 L 499.00 862.00 L 499.00 860.00 Z"
          fill="rgb(142,130,41)"
          stroke="rgb(142,130,41)"
          stroke-width="0.5"
          inkstitch:object_type="satin"
          inkstitch:density_mm="0.3"
          inkstitch:angle="0"
          inkstitch:stitch_length_mm="3.0"
          inkstitch:color_sort_index="14"
          inkstitch:thread_color="#8e8229"/>

    <path id="region_14_18"
          d="M 502.00 836.00 L 502.00 839.00 L 503.00 839.00 L 504.00 840.00 L 504.00 842.00 L 506.00 842.00 L 506.00 840.00 L 505.00 839.00 L 505.00 836.00 Z"
          fill="rgb(142,130,41)"
          stroke="rgb(142,130,41)"
          stroke-width="0.5"
          inkstitch:object_type="satin"
          inkstitch:density_mm="0.3"
          inkstitch:angle="0"
          inkstitch:stitch_length_mm="3.0"
          inkstitch:color_sort_index="14"
          inkstitch:thread_color="#8e8229"/>

    <path id="region_14_19"
          d="M 526.00 802.00 L 526.00 806.00 L 529.00 806.00 L 529.00 805.00 L 530.00 804.00 L 530.00 802.00 Z"
          fill="rgb(142,130,41)"
          stroke="rgb(142,130,41)"
          stroke-width="0.5"
          inkstitch:object_type="satin"
          inkstitch:density_mm="0.3"
          inkstitch:angle="0"
          inkstitch:stitch_length_mm="3.0"
          inkstitch:color_sort_index="14"
          inkstitch:thread_color="#8e8229"/>

  </g>
</svg>