<?xml version="1.0" encoding="UTF-8"?>
<svg width="800" height="1200" viewBox="0 0 800 1200" 
     xmlns="http://www.w3.org/2000/svg"
     xmlns:inkscape="http://www.inkscape.org/namespaces/inkscape"
     xmlns:inkstitch="http://inkstitch.org/namespace">
  <title>High-Quality Vector Pattern</title>
  <defs>
    <style>
      .vector-path {
        stroke-width: 0.1;
        stroke-linejoin: round;
        stroke-linecap: round;
        fill-opacity: 1.0;
        stroke-opacity: 1.0;
        shape-rendering: geometricPrecision;
      }
    </style>
  </defs>
  <g inkscape:label="Vector Shapes" inkscape:groupmode="layer">
    <path id="vector-path-0" 
          d="M 225.0 590.0 Q 219.0 592.6 215.0 596.0 Q 209.9 601.1 204.0 607.0 Q 200.6 610.6 200.0 613.0 Q 195.4 617.9 194.0 622.0 L 195.0 626.0 L 198.0 625.0 Q 203.7 620.4 205.0 619.0 Q 207.8 614.0 213.0 609.0 Q 216.5 606.6 218.0 605.0 Q 221.5 601.5 223.0 600.0 L 224.0 597.0 L 226.0 593.0 Z" 
          class="vector-path"
          style="fill: rgb(174,99,43); stroke: none; fill-rule: evenodd;"
          inkstitch:fill="1"
          inkstitch:color="#ae632b"
          inkstitch:angle="45"
          inkstitch:row_spacing_mm="0.5"
          inkstitch:end_row_spacing_mm="0.5"
          inkstitch:max_stitch_length_mm="3.2"
          inkstitch:staggers="3"
          inkstitch:skip_last="0"
          inkstitch:underpath="0" />
    <path id="vector-path-1" 
          d="M 490.0 553.0 L 493.0 563.0 L 505.0 587.0 L 510.0 586.0 L 508.0 577.0 L 504.0 569.0 L 492.0 553.0 Z" 
          class="vector-path"
          style="fill: rgb(174,99,43); stroke: none; fill-rule: evenodd;"
          inkstitch:fill="1"
          inkstitch:color="#ae632b"
          inkstitch:angle="75"
          inkstitch:row_spacing_mm="0.5"
          inkstitch:end_row_spacing_mm="0.5"
          inkstitch:max_stitch_length_mm="3.2"
          inkstitch:staggers="3"
          inkstitch:skip_last="0"
          inkstitch:underpath="0" />
    <path id="vector-path-2" 
          d="M 592.0 365.0 L 580.0 347.0 L 573.0 366.0 Q 558.2 391.9 555.0 405.0 L 533.0 421.0 L 531.0 417.0 L 545.0 402.0 L 530.0 382.0 Q 509.1 354.3 511.0 345.0 Q 513.7 327.8 508.0 323.0 Q 469.4 338.0 452.0 363.0 L 421.0 381.0 L 386.0 371.0 L 362.0 348.0 L 346.0 354.0 Q 339.9 379.2 335.0 406.0 Q 358.4 447.5 389.0 471.0 Q 444.0 488.7 479.0 488.0 Q 534.2 467.9 571.0 437.0 L 593.0 397.0 Z" 
          class="vector-path"
          style="fill: rgb(254,201,149); stroke: none; fill-rule: evenodd;"
          inkstitch:fill="1"
          inkstitch:color="#fec995"
          inkstitch:angle="135"
          inkstitch:row_spacing_mm="0.6"
          inkstitch:end_row_spacing_mm="0.6"
          inkstitch:max_stitch_length_mm="3.5"
          inkstitch:staggers="3"
          inkstitch:skip_last="0"
          inkstitch:underpath="0" />
    <path id="vector-path-3" 
          d="M 311.0 61.0 Q 329.6 155.2 287.0 253.0 L 194.0 347.0 L 223.0 395.0 L 223.0 425.0 L 169.0 436.0 Q 131.4 489.2 143.0 538.0 Q 154.2 596.6 115.0 674.0 Q 104.9 803.6 114.0 870.0 Q 208.2 1000.6 216.0 1106.0 L 270.0 1154.0 L 295.0 1071.0 L 342.0 1000.0 L 405.0 1026.0 Q 443.5 1167.3 470.0 1189.0 L 454.0 1176.0 L 432.0 1178.0 Q 461.9 1168.9 531.0 1177.0 L 547.0 1146.0 L 506.0 1093.0 Q 519.4 996.4 550.0 897.0 Q 531.2 569.6 532.0 473.0 L 658.0 350.0 L 576.0 211.0 Q 417.7 46.3 363.0 44.0 L 326.0 47.0 L 344.0 97.0 Z" 
          class="vector-path"
          style="fill: rgb(21,14,5); stroke: none; fill-rule: evenodd;"
          inkstitch:fill="1"
          inkstitch:color="#150e05"
          inkstitch:angle="45"
          inkstitch:row_spacing_mm="0.4"
          inkstitch:end_row_spacing_mm="0.4"
          inkstitch:max_stitch_length_mm="3.0"
          inkstitch:staggers="3"
          inkstitch:skip_last="0"
          inkstitch:underpath="0" />
    <path id="vector-path-4" 
          d="M 473.0 509.0 Q 472.0 521.6 483.0 535.0 Q 500.1 554.9 514.0 574.0 L 527.0 585.0 L 535.0 576.0 Q 541.8 543.9 543.0 525.0 L 537.0 512.0 L 513.0 507.0 Z" 
          class="vector-path"
          style="fill: rgb(228,166,72); stroke: none; fill-rule: evenodd;"
          inkstitch:fill="1"
          inkstitch:color="#e4a648"
          inkstitch:angle="165"
          inkstitch:row_spacing_mm="0.5"
          inkstitch:end_row_spacing_mm="0.5"
          inkstitch:max_stitch_length_mm="3.2"
          inkstitch:staggers="3"
          inkstitch:skip_last="0"
          inkstitch:underpath="0" />
    <path id="vector-path-5" 
          d="M 144.0 447.0 Q 128.6 478.0 130.0 487.0 Q 146.6 455.8 156.0 445.0 Q 165.0 441.2 166.0 437.0 Q 176.9 445.8 185.0 465.0 Q 181.7 498.6 172.0 511.0 Q 153.2 533.7 144.0 538.0 L 138.0 537.0 L 150.0 549.0 Q 205.3 554.8 253.0 547.0 L 259.0 529.0 L 239.0 518.0 Q 239.8 511.1 247.0 499.0 Q 222.4 447.4 191.0 433.0 L 163.0 433.0 Z" 
          class="vector-path"
          style="fill: rgb(228,166,72); stroke: none; fill-rule: evenodd;"
          inkstitch:fill="1"
          inkstitch:color="#e4a648"
          inkstitch:angle="195"
          inkstitch:row_spacing_mm="0.5"
          inkstitch:end_row_spacing_mm="0.5"
          inkstitch:max_stitch_length_mm="3.2"
          inkstitch:staggers="3"
          inkstitch:skip_last="0"
          inkstitch:underpath="0" />
    <path id="vector-path-6" 
          d="M 220.0 331.0 Q 294.0 317.2 350.0 293.0 Q 474.0 310.6 590.0 319.0 Q 669.8 318.3 688.0 312.0 Q 570.6 214.7 504.0 119.0 Q 451.7 43.1 431.0 30.0 L 425.0 20.0 L 407.0 26.0 Q 385.8 108.9 395.0 185.0 L 390.0 213.0 L 380.0 198.0 L 352.0 192.0 L 292.0 261.0 Z" 
          class="vector-path"
          style="fill: rgb(48,137,57); stroke: none; fill-rule: evenodd;"
          inkstitch:fill="1"
          inkstitch:color="#308939"
          inkstitch:angle="45"
          inkstitch:row_spacing_mm="0.4"
          inkstitch:end_row_spacing_mm="0.4"
          inkstitch:max_stitch_length_mm="3.0"
          inkstitch:staggers="3"
          inkstitch:skip_last="0"
          inkstitch:underpath="0" />
    <path id="vector-path-7" 
          d="M 344.0 977.0 Q 349.8 985.2 362.0 989.0 Q 368.8 989.9 370.0 988.0 Q 368.0 984.3 360.0 981.0 L 351.0 979.0 L 347.0 976.0 Z" 
          class="vector-path"
          style="fill: rgb(73,53,21); stroke: none; fill-rule: evenodd;"
          inkstitch:fill="1"
          inkstitch:color="#493515"
          inkstitch:angle="45"
          inkstitch:row_spacing_mm="0.4"
          inkstitch:end_row_spacing_mm="0.4"
          inkstitch:max_stitch_length_mm="3.0"
          inkstitch:staggers="3"
          inkstitch:skip_last="0"
          inkstitch:underpath="0" />
    <path id="vector-path-8" 
          d="M 212.0 963.0 Q 222.5 963.9 227.0 962.0 Q 233.9 959.7 236.0 959.0 Q 238.5 959.1 241.0 960.0 Q 244.4 958.6 245.0 956.0 Q 240.4 954.8 239.0 954.0 Q 233.6 950.2 225.0 946.0 L 218.0 945.0 L 215.0 947.0 Q 212.6 951.8 211.0 955.0 L 210.0 958.0 Z" 
          class="vector-path"
          style="fill: rgb(73,53,21); stroke: none; fill-rule: evenodd;"
          inkstitch:fill="1"
          inkstitch:color="#493515"
          inkstitch:angle="45"
          inkstitch:row_spacing_mm="0.4"
          inkstitch:end_row_spacing_mm="0.4"
          inkstitch:max_stitch_length_mm="3.0"
          inkstitch:staggers="3"
          inkstitch:skip_last="0"
          inkstitch:underpath="0" />
    <path id="vector-path-9" 
          d="M 91.0 884.0 Q 115.3 909.4 134.0 918.0 Q 146.7 919.3 151.0 921.0 Q 155.0 931.7 161.0 938.0 Q 173.2 936.1 183.0 929.0 Q 171.8 914.8 141.0 897.0 Q 114.2 886.8 103.0 885.0 L 93.0 879.0 Z" 
          class="vector-path"
          style="fill: rgb(73,53,21); stroke: none; fill-rule: evenodd;"
          inkstitch:fill="1"
          inkstitch:color="#493515"
          inkstitch:angle="45"
          inkstitch:row_spacing_mm="0.4"
          inkstitch:end_row_spacing_mm="0.4"
          inkstitch:max_stitch_length_mm="3.0"
          inkstitch:staggers="3"
          inkstitch:skip_last="0"
          inkstitch:underpath="0" />
    <path id="vector-path-10" 
          d="M 227.0 350.0 L 227.0 354.0 L 255.0 363.0 Q 264.4 362.4 269.0 357.0 L 269.0 354.0 L 250.0 354.0 L 235.0 349.0 Z" 
          class="vector-path"
          style="fill: rgb(226,91,0); stroke: none; fill-rule: evenodd;"
          inkstitch:fill="1"
          inkstitch:color="#e25b00"
          inkstitch:angle="165"
          inkstitch:row_spacing_mm="0.5"
          inkstitch:end_row_spacing_mm="0.5"
          inkstitch:max_stitch_length_mm="3.2"
          inkstitch:staggers="3"
          inkstitch:skip_last="0"
          inkstitch:underpath="0" />
    <path id="vector-path-11" 
          d="M 603.0 330.0 Q 605.9 341.9 612.0 349.0 L 614.0 349.0 L 611.0 340.0 L 611.0 335.0 L 615.0 338.0 Q 623.1 348.4 626.0 352.0 L 629.0 357.0 L 631.0 355.0 L 627.0 344.0 L 616.0 331.0 Z" 
          class="vector-path"
          style="fill: rgb(226,91,0); stroke: none; fill-rule: evenodd;"
          inkstitch:fill="1"
          inkstitch:color="#e25b00"
          inkstitch:angle="195"
          inkstitch:row_spacing_mm="0.5"
          inkstitch:end_row_spacing_mm="0.5"
          inkstitch:max_stitch_length_mm="3.2"
          inkstitch:staggers="3"
          inkstitch:skip_last="0"
          inkstitch:underpath="0" />
    <path id="vector-path-12" 
          d="M 283.0 8.0 Q 296.8 37.3 311.0 51.0 Q 338.0 66.4 351.0 75.0 L 352.0 80.0 L 348.0 82.0 Q 355.0 90.7 358.0 99.0 Q 366.8 113.8 366.0 117.0 L 354.0 114.0 L 352.0 118.0 Q 371.3 134.3 375.0 141.0 L 374.0 145.0 L 379.0 143.0 Q 368.2 97.8 351.0 61.0 L 323.0 28.0 L 293.0 6.0 Z" 
          class="vector-path"
          style="fill: rgb(226,91,0); stroke: none; fill-rule: evenodd;"
          inkstitch:fill="1"
          inkstitch:color="#e25b00"
          inkstitch:angle="45"
          inkstitch:row_spacing_mm="0.5"
          inkstitch:end_row_spacing_mm="0.5"
          inkstitch:max_stitch_length_mm="3.2"
          inkstitch:staggers="3"
          inkstitch:skip_last="0"
          inkstitch:underpath="0" />
    <path id="vector-path-13" 
          d="M 444.0 1002.0 Q 431.2 1032.7 436.0 1039.0 Q 441.2 1044.6 448.0 1045.0 Q 469.6 1046.2 494.0 1037.0 L 499.0 1004.0 L 476.0 994.0 Z" 
          class="vector-path"
          style="fill: rgb(2,92,12); stroke: none; fill-rule: evenodd;"
          inkstitch:fill="1"
          inkstitch:color="#025c0c"
          inkstitch:angle="45"
          inkstitch:row_spacing_mm="0.4"
          inkstitch:end_row_spacing_mm="0.4"
          inkstitch:max_stitch_length_mm="3.0"
          inkstitch:staggers="3"
          inkstitch:skip_last="0"
          inkstitch:underpath="0" />
    <path id="vector-path-14" 
          d="M 326.0 968.0 L 317.0 971.0 L 313.0 969.0 L 313.0 962.0 L 295.0 965.0 Q 257.8 971.0 243.0 985.0 L 241.0 993.0 L 245.0 996.0 Q 249.8 1011.6 263.0 1022.0 Q 276.3 1022.3 286.0 1015.0 L 291.0 1016.0 L 293.0 1023.0 Q 297.7 1028.1 300.0 1034.0 Q 304.3 1031.1 313.0 1015.0 L 327.0 988.0 L 330.0 974.0 Z" 
          class="vector-path"
          style="fill: rgb(2,92,12); stroke: none; fill-rule: evenodd;"
          inkstitch:fill="1"
          inkstitch:color="#025c0c"
          inkstitch:angle="45"
          inkstitch:row_spacing_mm="0.4"
          inkstitch:end_row_spacing_mm="0.4"
          inkstitch:max_stitch_length_mm="3.0"
          inkstitch:staggers="3"
          inkstitch:skip_last="0"
          inkstitch:underpath="0" />
    <path id="vector-path-15" 
          d="M 644.0 337.0 Q 658.5 361.4 669.0 361.0 Q 674.9 350.6 678.0 347.0 Q 688.8 346.2 706.0 349.0 L 726.0 343.0 L 720.0 337.0 Q 676.2 328.8 652.0 325.0 L 644.0 327.0 Z" 
          class="vector-path"
          style="fill: rgb(2,92,12); stroke: none; fill-rule: evenodd;"
          inkstitch:fill="1"
          inkstitch:color="#025c0c"
          inkstitch:angle="45"
          inkstitch:row_spacing_mm="0.4"
          inkstitch:end_row_spacing_mm="0.4"
          inkstitch:max_stitch_length_mm="3.0"
          inkstitch:staggers="3"
          inkstitch:skip_last="0"
          inkstitch:underpath="0" />
    <path id="vector-path-16" 
          d="M 502.0 814.0 L 498.0 815.0 L 484.0 868.0 L 488.0 868.0 L 495.0 854.0 L 503.0 823.0 Z" 
          class="vector-path"
          style="fill: rgb(153,143,1); stroke: none; fill-rule: evenodd;"
          inkstitch:fill="1"
          inkstitch:color="#998f01"
          inkstitch:angle="165"
          inkstitch:row_spacing_mm="0.5"
          inkstitch:end_row_spacing_mm="0.5"
          inkstitch:max_stitch_length_mm="3.2"
          inkstitch:staggers="3"
          inkstitch:skip_last="0"
          inkstitch:underpath="0" />
    <path id="vector-path-17" 
          d="M 323.0 809.0 Q 319.3 810.4 316.0 813.0 Q 302.4 827.8 280.0 851.0 L 272.0 862.0 L 284.0 855.0 L 312.0 827.0 L 324.0 813.0 Z" 
          class="vector-path"
          style="fill: rgb(153,143,1); stroke: none; fill-rule: evenodd;"
          inkstitch:fill="1"
          inkstitch:color="#998f01"
          inkstitch:angle="195"
          inkstitch:row_spacing_mm="0.5"
          inkstitch:end_row_spacing_mm="0.5"
          inkstitch:max_stitch_length_mm="3.2"
          inkstitch:staggers="3"
          inkstitch:skip_last="0"
          inkstitch:underpath="0" />
    <path id="vector-path-18" 
          d="M 355.0 793.0 L 352.0 793.0 L 329.0 834.0 Q 311.3 857.7 312.0 861.0 Q 317.0 859.0 332.0 841.0 L 356.0 798.0 Z" 
          class="vector-path"
          style="fill: rgb(153,143,1); stroke: none; fill-rule: evenodd;"
          inkstitch:fill="1"
          inkstitch:color="#998f01"
          inkstitch:angle="45"
          inkstitch:row_spacing_mm="0.5"
          inkstitch:end_row_spacing_mm="0.5"
          inkstitch:max_stitch_length_mm="3.2"
          inkstitch:staggers="3"
          inkstitch:skip_last="0"
          inkstitch:underpath="0" />
    <path id="vector-path-19" 
          d="M 528.0 49.0 Q 596.4 241.0 692.0 329.0 Q 615.9 406.9 551.0 458.0 L 506.0 496.0 L 532.0 551.0 Q 544.5 757.2 547.0 933.0 Q 512.0 1034.1 507.0 1094.0 Q 558.0 1155.2 607.0 1186.0 L 750.0 958.0 L 723.0 240.0 Z" 
          class="vector-path"
          style="fill: rgb(243,237,221); stroke: none; fill-rule: evenodd;"
          inkstitch:fill="1"
          inkstitch:color="#f3eddd"
          inkstitch:angle="135"
          inkstitch:row_spacing_mm="0.6"
          inkstitch:end_row_spacing_mm="0.6"
          inkstitch:max_stitch_length_mm="3.5"
          inkstitch:staggers="3"
          inkstitch:skip_last="0"
          inkstitch:underpath="0" />
    <path id="vector-path-20" 
          d="M 54.0 240.0 Q 68.1 1052.3 195.0 1183.0 Q 212.0 1089.6 225.0 999.0 Q 211.4 957.6 199.0 945.0 Q 141.7 920.2 96.0 867.0 Q 102.7 786.1 93.0 738.0 Q 113.3 645.5 156.0 583.0 Q 139.6 527.5 132.0 478.0 Q 176.0 429.6 222.0 424.0 Q 217.9 387.4 191.0 348.0 Q 299.8 234.8 339.0 156.0 Q 329.9 101.7 328.0 83.0 L 232.0 22.0 Z" 
          class="vector-path"
          style="fill: rgb(243,237,221); stroke: none; fill-rule: evenodd;"
          inkstitch:fill="1"
          inkstitch:color="#f3eddd"
          inkstitch:angle="135"
          inkstitch:row_spacing_mm="0.6"
          inkstitch:end_row_spacing_mm="0.6"
          inkstitch:max_stitch_length_mm="3.5"
          inkstitch:staggers="3"
          inkstitch:skip_last="0"
          inkstitch:underpath="0" />
    <path id="vector-path-21" 
          d="M 498.0 1137.0 Q 494.4 1137.2 492.0 1139.0 Q 486.3 1143.8 485.0 1147.0 L 485.0 1150.0 L 487.0 1150.0 L 491.0 1148.0 L 497.0 1140.0 Z" 
          class="vector-path"
          style="fill: rgb(1,58,101); stroke: none; fill-rule: evenodd;"
          inkstitch:fill="1"
          inkstitch:color="#013a65"
          inkstitch:angle="45"
          inkstitch:row_spacing_mm="0.4"
          inkstitch:end_row_spacing_mm="0.4"
          inkstitch:max_stitch_length_mm="3.0"
          inkstitch:staggers="3"
          inkstitch:skip_last="0"
          inkstitch:underpath="0" />
    <path id="vector-path-22" 
          d="M 487.0 1119.0 L 485.0 1118.0 L 479.0 1118.0 Q 471.0 1121.6 469.0 1124.0 L 470.0 1127.0 L 485.0 1124.0 L 487.0 1122.0 Z" 
          class="vector-path"
          style="fill: rgb(1,58,101); stroke: none; fill-rule: evenodd;"
          inkstitch:fill="1"
          inkstitch:color="#013a65"
          inkstitch:angle="45"
          inkstitch:row_spacing_mm="0.4"
          inkstitch:end_row_spacing_mm="0.4"
          inkstitch:max_stitch_length_mm="3.0"
          inkstitch:staggers="3"
          inkstitch:skip_last="0"
          inkstitch:underpath="0" />
    <path id="vector-path-23" 
          d="M 264.0 1114.0 L 256.0 1115.0 L 243.0 1121.0 L 243.0 1125.0 L 249.0 1124.0 L 265.0 1117.0 Z" 
          class="vector-path"
          style="fill: rgb(1,58,101); stroke: none; fill-rule: evenodd;"
          inkstitch:fill="1"
          inkstitch:color="#013a65"
          inkstitch:angle="45"
          inkstitch:row_spacing_mm="0.4"
          inkstitch:end_row_spacing_mm="0.4"
          inkstitch:max_stitch_length_mm="3.0"
          inkstitch:staggers="3"
          inkstitch:skip_last="0"
          inkstitch:underpath="0" />
    <path id="vector-path-24" 
          d="M 463.0 1091.0 L 463.0 1093.0 L 470.0 1095.0 Q 482.3 1094.8 483.0 1093.0 Q 481.7 1089.6 480.0 1089.0 L 467.0 1089.0 Z" 
          class="vector-path"
          style="fill: rgb(1,58,101); stroke: none; fill-rule: evenodd;"
          inkstitch:fill="1"
          inkstitch:color="#013a65"
          inkstitch:angle="45"
          inkstitch:row_spacing_mm="0.4"
          inkstitch:end_row_spacing_mm="0.4"
          inkstitch:max_stitch_length_mm="3.0"
          inkstitch:staggers="3"
          inkstitch:skip_last="0"
          inkstitch:underpath="0" />
    <path id="vector-path-25" 
          d="M 244.0 1094.0 L 263.0 1094.0 L 265.0 1092.0 L 264.0 1089.0 L 262.0 1088.0 L 250.0 1088.0 L 244.0 1091.0 Z" 
          class="vector-path"
          style="fill: rgb(1,58,101); stroke: none; fill-rule: evenodd;"
          inkstitch:fill="1"
          inkstitch:color="#013a65"
          inkstitch:angle="45"
          inkstitch:row_spacing_mm="0.4"
          inkstitch:end_row_spacing_mm="0.4"
          inkstitch:max_stitch_length_mm="3.0"
          inkstitch:staggers="3"
          inkstitch:skip_last="0"
          inkstitch:underpath="0" />
    <path id="vector-path-26" 
          d="M 465.0 1064.0 Q 466.5 1065.1 470.0 1065.0 Q 481.5 1064.8 485.0 1063.0 L 482.0 1060.0 L 473.0 1060.0 Q 467.4 1060.1 467.0 1061.0 L 465.0 1063.0 Z" 
          class="vector-path"
          style="fill: rgb(1,58,101); stroke: none; fill-rule: evenodd;"
          inkstitch:fill="1"
          inkstitch:color="#013a65"
          inkstitch:angle="45"
          inkstitch:row_spacing_mm="0.4"
          inkstitch:end_row_spacing_mm="0.4"
          inkstitch:max_stitch_length_mm="3.0"
          inkstitch:staggers="3"
          inkstitch:skip_last="0"
          inkstitch:underpath="0" />
    <path id="vector-path-27" 
          d="M 254.0 1061.0 Q 256.7 1064.5 261.0 1066.0 Q 267.0 1067.1 271.0 1067.0 L 273.0 1065.0 L 272.0 1063.0 Q 265.9 1059.5 261.0 1058.0 L 256.0 1059.0 Z" 
          class="vector-path"
          style="fill: rgb(1,58,101); stroke: none; fill-rule: evenodd;"
          inkstitch:fill="1"
          inkstitch:color="#013a65"
          inkstitch:angle="45"
          inkstitch:row_spacing_mm="0.4"
          inkstitch:end_row_spacing_mm="0.4"
          inkstitch:max_stitch_length_mm="3.0"
          inkstitch:staggers="3"
          inkstitch:skip_last="0"
          inkstitch:underpath="0" />
    <path id="vector-path-28" 
          d="M 265.0 1039.0 L 266.0 1042.0 L 278.0 1047.0 L 285.0 1046.0 L 284.0 1042.0 L 272.0 1038.0 Z" 
          class="vector-path"
          style="fill: rgb(1,58,101); stroke: none; fill-rule: evenodd;"
          inkstitch:fill="1"
          inkstitch:color="#013a65"
          inkstitch:angle="45"
          inkstitch:row_spacing_mm="0.4"
          inkstitch:end_row_spacing_mm="0.4"
          inkstitch:max_stitch_length_mm="3.0"
          inkstitch:staggers="3"
          inkstitch:skip_last="0"
          inkstitch:underpath="0" />
    <path id="vector-path-29" 
          d="M 422.0 610.0 Q 411.5 643.7 407.0 657.0 Q 417.5 661.7 432.0 664.0 Q 461.6 666.4 478.0 668.0 L 483.0 661.0 L 475.0 657.0 Q 450.4 654.0 439.0 647.0 L 434.0 632.0 L 431.0 609.0 Z" 
          class="vector-path"
          style="fill: rgb(248,228,4); stroke: none; fill-rule: evenodd;"
          inkstitch:fill="1"
          inkstitch:color="#f8e404"
          inkstitch:angle="195"
          inkstitch:row_spacing_mm="0.5"
          inkstitch:end_row_spacing_mm="0.5"
          inkstitch:max_stitch_length_mm="3.2"
          inkstitch:staggers="3"
          inkstitch:skip_last="0"
          inkstitch:underpath="0" />
    <path id="vector-path-30" 
          d="M 450.0 514.0 Q 451.7 526.2 477.0 566.0 L 491.0 596.0 L 493.0 596.0 Q 486.1 562.8 474.0 534.0 L 460.0 517.0 Z" 
          class="vector-path"
          style="fill: rgb(248,228,4); stroke: none; fill-rule: evenodd;"
          inkstitch:fill="1"
          inkstitch:color="#f8e404"
          inkstitch:angle="45"
          inkstitch:row_spacing_mm="0.5"
          inkstitch:end_row_spacing_mm="0.5"
          inkstitch:max_stitch_length_mm="3.2"
          inkstitch:staggers="3"
          inkstitch:skip_last="0"
          inkstitch:underpath="0" />
    <path id="vector-path-31" 
          d="M 431.0 519.0 Q 425.7 541.7 428.0 546.0 Q 423.4 561.0 412.0 586.0 Q 427.0 596.4 442.0 590.0 L 449.0 565.0 L 452.0 568.0 Q 449.3 609.7 445.0 635.0 Q 457.0 649.7 475.0 652.0 L 491.0 649.0 L 490.0 620.0 Q 480.8 590.9 478.0 589.0 L 477.0 599.0 L 472.0 592.0 L 459.0 556.0 L 442.0 523.0 Z" 
          class="vector-path"
          style="fill: rgb(248,228,4); stroke: none; fill-rule: evenodd;"
          inkstitch:fill="1"
          inkstitch:color="#f8e404"
          inkstitch:angle="75"
          inkstitch:row_spacing_mm="0.5"
          inkstitch:end_row_spacing_mm="0.5"
          inkstitch:max_stitch_length_mm="3.2"
          inkstitch:staggers="3"
          inkstitch:skip_last="0"
          inkstitch:underpath="0" />
    <path id="vector-path-32" 
          d="M 387.0 490.0 L 409.0 529.0 L 416.0 537.0 L 419.0 537.0 L 423.0 512.0 L 406.0 495.0 L 394.0 488.0 Z" 
          class="vector-path"
          style="fill: rgb(248,228,4); stroke: none; fill-rule: evenodd;"
          inkstitch:fill="1"
          inkstitch:color="#f8e404"
          inkstitch:angle="105"
          inkstitch:row_spacing_mm="0.5"
          inkstitch:end_row_spacing_mm="0.5"
          inkstitch:max_stitch_length_mm="3.2"
          inkstitch:staggers="3"
          inkstitch:skip_last="0"
          inkstitch:underpath="0" />
    <path id="vector-path-33" 
          d="M 446.0 1059.0 Q 436.7 1097.8 433.0 1137.0 Q 466.2 1163.1 495.0 1178.0 Q 529.7 1185.3 552.0 1181.0 Q 564.0 1166.0 562.0 1151.0 Q 550.3 1137.5 535.0 1136.0 Q 505.7 1143.6 492.0 1152.0 L 482.0 1152.0 L 482.0 1142.0 L 483.0 1133.0 L 470.0 1129.0 L 467.0 1121.0 L 477.0 1112.0 L 478.0 1104.0 L 467.0 1100.0 L 459.0 1094.0 L 463.0 1087.0 Q 477.4 1079.5 477.0 1072.0 Q 462.4 1064.7 461.0 1059.0 L 464.0 1055.0 L 455.0 1055.0 Z" 
          class="vector-path"
          style="fill: rgb(146,62,10); stroke: none; fill-rule: evenodd;"
          inkstitch:fill="1"
          inkstitch:color="#923e0a"
          inkstitch:angle="45"
          inkstitch:row_spacing_mm="0.4"
          inkstitch:end_row_spacing_mm="0.4"
          inkstitch:max_stitch_length_mm="3.0"
          inkstitch:staggers="3"
          inkstitch:skip_last="0"
          inkstitch:underpath="0" />
    <path id="vector-path-34" 
          d="M 247.0 1031.0 Q 219.7 1058.4 204.0 1075.0 Q 206.8 1093.5 222.0 1120.0 Q 243.3 1162.7 265.0 1177.0 Q 298.0 1179.3 305.0 1170.0 Q 301.2 1149.4 287.0 1134.0 L 268.0 1126.0 L 251.0 1127.0 L 241.0 1124.0 L 244.0 1115.0 Q 259.5 1105.7 259.0 1102.0 Q 246.2 1099.1 241.0 1093.0 Q 251.1 1082.6 262.0 1079.0 Q 259.9 1071.6 251.0 1065.0 L 251.0 1058.0 L 261.0 1054.0 L 273.0 1054.0 L 273.0 1051.0 L 264.0 1042.0 L 260.0 1031.0 Z" 
          class="vector-path"
          style="fill: rgb(146,62,10); stroke: none; fill-rule: evenodd;"
          inkstitch:fill="1"
          inkstitch:color="#923e0a"
          inkstitch:angle="45"
          inkstitch:row_spacing_mm="0.4"
          inkstitch:end_row_spacing_mm="0.4"
          inkstitch:max_stitch_length_mm="3.0"
          inkstitch:staggers="3"
          inkstitch:skip_last="0"
          inkstitch:underpath="0" />
    <path id="vector-path-35" 
          d="M 271.0 586.0 L 248.0 599.0 L 245.0 595.0 L 253.0 569.0 L 228.0 562.0 Q 184.7 575.6 155.0 598.0 Q 109.0 647.0 95.0 678.0 Q 92.8 734.3 103.0 761.0 L 120.0 782.0 L 153.0 764.0 Q 232.5 683.8 248.0 662.0 L 260.0 647.0 L 277.0 618.0 Z" 
          class="vector-path"
          style="fill: rgb(146,62,10); stroke: none; fill-rule: evenodd;"
          inkstitch:fill="1"
          inkstitch:color="#923e0a"
          inkstitch:angle="45"
          inkstitch:row_spacing_mm="0.4"
          inkstitch:end_row_spacing_mm="0.4"
          inkstitch:max_stitch_length_mm="3.0"
          inkstitch:staggers="3"
          inkstitch:skip_last="0"
          inkstitch:underpath="0" />
    <path id="vector-path-36" 
          d="M 377.0 494.0 L 368.0 494.0 L 374.0 512.0 Q 374.4 531.1 368.0 543.0 Q 365.4 555.0 362.0 563.0 Q 352.3 571.0 345.0 583.0 Q 332.9 604.9 314.0 622.0 L 302.0 628.0 L 295.0 627.0 Q 274.8 642.7 273.0 654.0 Q 319.9 637.9 342.0 623.0 Q 367.1 590.8 383.0 561.0 L 391.0 531.0 L 388.0 508.0 Z" 
          class="vector-path"
          style="fill: rgb(146,62,10); stroke: none; fill-rule: evenodd;"
          inkstitch:fill="1"
          inkstitch:color="#923e0a"
          inkstitch:angle="45"
          inkstitch:row_spacing_mm="0.4"
          inkstitch:end_row_spacing_mm="0.4"
          inkstitch:max_stitch_length_mm="3.0"
          inkstitch:staggers="3"
          inkstitch:skip_last="0"
          inkstitch:underpath="0" />
    <path id="vector-path-37" 
          d="M 150.0 841.0 Q 253.9 951.6 299.0 957.0 Q 329.5 950.9 344.0 966.0 Q 424.9 980.3 523.0 959.0 Q 544.1 798.5 514.0 664.0 L 501.0 651.0 L 492.0 666.0 L 466.0 673.0 L 404.0 646.0 Q 399.3 571.5 397.0 551.0 Q 354.7 613.0 314.0 661.0 L 293.0 664.0 L 226.0 708.0 Z" 
          class="vector-path"
          style="fill: rgb(113,104,0); stroke: none; fill-rule: evenodd;"
          inkstitch:fill="1"
          inkstitch:color="#716800"
          inkstitch:angle="45"
          inkstitch:row_spacing_mm="0.4"
          inkstitch:end_row_spacing_mm="0.4"
          inkstitch:max_stitch_length_mm="3.0"
          inkstitch:staggers="3"
          inkstitch:skip_last="0"
          inkstitch:underpath="0" />
    <path id="vector-path-38" 
          d="M 305.0 338.0 L 286.0 337.0 L 274.0 361.0 Q 249.0 431.2 254.0 483.0 L 263.0 505.0 L 265.0 488.0 Q 276.0 516.7 295.0 585.0 L 326.0 592.0 L 341.0 567.0 Q 342.5 533.7 346.0 534.0 L 354.0 544.0 L 357.0 511.0 Q 334.0 461.3 327.0 464.0 Q 320.6 447.5 323.0 399.0 L 326.0 361.0 Z" 
          class="vector-path"
          style="fill: rgb(113,104,0); stroke: none; fill-rule: evenodd;"
          inkstitch:fill="1"
          inkstitch:color="#716800"
          inkstitch:angle="45"
          inkstitch:row_spacing_mm="0.4"
          inkstitch:end_row_spacing_mm="0.4"
          inkstitch:max_stitch_length_mm="3.0"
          inkstitch:staggers="3"
          inkstitch:skip_last="0"
          inkstitch:underpath="0" />
  </g>
</svg>