<?xml version="1.0" encoding="UTF-8"?>
<svg width="600" height="600" viewBox="0 0 600 600" 
     xmlns="http://www.w3.org/2000/svg"
     xmlns:inkscape="http://www.inkscape.org/namespaces/inkscape"
     xmlns:inkstitch="http://inkstitch.org/namespace">
  <title>Embroidery Pattern - Generated by InkStitch Compatible Vectorizer</title>
  <defs>
    <style>
      .embroidery-fill {
        stroke-width: 0.2;
        stroke-linejoin: round;
        stroke-linecap: round;
        fill-opacity: 0.9;
        stroke-opacity: 0.7;
      }
      .embroidery-quality {
        shape-rendering: geometricPrecision;
        text-rendering: geometricPrecision;
      }
    </style>
  </defs>
  <g inkscape:label="Embroidery Patterns" inkscape:groupmode="layer" class="embroidery-quality">
    <path id="embroidery-path-0" 
          d="M 499 281 L 499 322 L 509 322 L 509 281 Z" 
          class="embroidery-fill"
          style="fill: rgb(0,173,156); stroke: rgb(0,173,156);"
          inkstitch:fill="1"
          inkstitch:color="#00ad9c"
          inkstitch:angle="45"
          inkstitch:row_spacing_mm="0.4"
          inkstitch:end_row_spacing_mm="0.4"
          inkstitch:max_stitch_length_mm="2.8"
          inkstitch:staggers="4"
          inkstitch:skip_last="1"
          inkstitch:underpath="1" />
    <path id="embroidery-path-1" 
          d="M 542 280 L 518 281 L 518 322 C 521.0 322.0 528.0 314.5 528 322 L 528 297 L 534 290 L 542 289 Z" 
          class="embroidery-fill"
          style="fill: rgb(0,173,156); stroke: rgb(0,173,156);"
          inkstitch:fill="1"
          inkstitch:color="#00ad9c"
          inkstitch:angle="75"
          inkstitch:row_spacing_mm="0.4"
          inkstitch:end_row_spacing_mm="0.4"
          inkstitch:max_stitch_length_mm="2.8"
          inkstitch:staggers="4"
          inkstitch:skip_last="1"
          inkstitch:underpath="1" />
    <path id="embroidery-path-2" 
          d="M 415 282 L 412 299 L 436 313 C 427.9 312.1 412.6 313.9 409 310 L 421 323 L 442 320 C 442.9 315.2 437.5 299.5 445 304 L 420 289 L 444 292 L 443 286 Z" 
          class="embroidery-fill"
          style="fill: rgb(0,173,156); stroke: rgb(0,173,156);"
          inkstitch:fill="1"
          inkstitch:color="#00ad9c"
          inkstitch:angle="105"
          inkstitch:row_spacing_mm="0.4"
          inkstitch:end_row_spacing_mm="0.4"
          inkstitch:max_stitch_length_mm="2.8"
          inkstitch:staggers="4"
          inkstitch:skip_last="1"
          inkstitch:underpath="1" />
    <path id="embroidery-path-3" 
          d="M 324 283 L 320 293 L 340 287 C 341.2 289.4 337.4 297.1 344 295 L 322 302 L 319 318 C 321.1 319.5 334.7 322.7 326 323 L 355 322 L 353 286 L 344 280 Z" 
          class="embroidery-fill"
          style="fill: rgb(0,173,156); stroke: rgb(0,173,156);"
          inkstitch:fill="1"
          inkstitch:color="#00ad9c"
          inkstitch:angle="135"
          inkstitch:row_spacing_mm="0.4"
          inkstitch:end_row_spacing_mm="0.4"
          inkstitch:max_stitch_length_mm="2.8"
          inkstitch:staggers="4"
          inkstitch:skip_last="1"
          inkstitch:underpath="1" />
    <path id="embroidery-path-4" 
          d="M 288 280 L 275 291 L 274 309 C 276.4 312.6 287.1 321.6 282 321 L 299 323 L 311 311 C 305.0 312.5 288.9 312.7 291 316 L 284 305 L 313 304 L 312 294 L 304 282 Z" 
          class="embroidery-fill"
          style="fill: rgb(0,173,156); stroke: rgb(0,173,156);"
          inkstitch:fill="1"
          inkstitch:color="#00ad9c"
          inkstitch:angle="165"
          inkstitch:row_spacing_mm="0.4"
          inkstitch:end_row_spacing_mm="0.4"
          inkstitch:max_stitch_length_mm="2.8"
          inkstitch:staggers="4"
          inkstitch:skip_last="1"
          inkstitch:underpath="1" />
    <path id="embroidery-path-5" 
          d="M 269 280 L 246 281 L 246 322 C 248.7 322.0 255.3 313.9 255 322 L 256 295 L 269 290 Z" 
          class="embroidery-fill"
          style="fill: rgb(0,173,156); stroke: rgb(0,173,156);"
          inkstitch:fill="1"
          inkstitch:color="#00ad9c"
          inkstitch:angle="195"
          inkstitch:row_spacing_mm="0.4"
          inkstitch:end_row_spacing_mm="0.4"
          inkstitch:max_stitch_length_mm="2.8"
          inkstitch:staggers="4"
          inkstitch:skip_last="1"
          inkstitch:underpath="1" />
    <path id="embroidery-path-6" 
          d="M 230 282 L 198 281 L 199 338 C 201.7 338.0 208.3 332.9 208 338 L 209 321 L 226 323 L 234 318 L 238 295 Z" 
          class="embroidery-fill"
          style="fill: rgb(0,173,156); stroke: rgb(0,173,156);"
          inkstitch:fill="1"
          inkstitch:color="#00ad9c"
          inkstitch:angle="45"
          inkstitch:row_spacing_mm="0.4"
          inkstitch:end_row_spacing_mm="0.4"
          inkstitch:max_stitch_length_mm="2.8"
          inkstitch:staggers="4"
          inkstitch:skip_last="1"
          inkstitch:underpath="1" />
    <path id="embroidery-path-7" 
          d="M 160 282 L 156 297 L 181 313 C 172.9 312.1 154.3 311.8 154 310 L 155 316 L 167 323 C 173.0 322.1 187.9 315.2 187 320 L 190 304 L 165 289 L 190 292 L 188 285 Z" 
          class="embroidery-fill"
          style="fill: rgb(0,173,156); stroke: rgb(0,173,156);"
          inkstitch:fill="1"
          inkstitch:color="#00ad9c"
          inkstitch:angle="75"
          inkstitch:row_spacing_mm="0.4"
          inkstitch:end_row_spacing_mm="0.4"
          inkstitch:max_stitch_length_mm="2.8"
          inkstitch:staggers="4"
          inkstitch:skip_last="1"
          inkstitch:underpath="1" />
    <path id="embroidery-path-8" 
          d="M 548 265 L 549 315 L 556 322 C 559.9 322.3 569.0 320.6 569 323 L 569 315 L 562 315 C 560.5 312.9 557.0 302.6 557 308 L 557 290 L 566 288 C 566.0 285.6 563.3 279.7 566 280 L 557 279 L 557 265 Z" 
          class="embroidery-fill"
          style="fill: rgb(0,173,156); stroke: rgb(0,173,156);"
          inkstitch:fill="1"
          inkstitch:color="#00ad9c"
          inkstitch:angle="105"
          inkstitch:row_spacing_mm="0.4"
          inkstitch:end_row_spacing_mm="0.4"
          inkstitch:max_stitch_length_mm="2.8"
          inkstitch:staggers="4"
          inkstitch:skip_last="1"
          inkstitch:underpath="1" />
    <path id="embroidery-path-9" 
          d="M 499 266 L 499 274 L 509 274 L 509 265 L 500 265 Z" 
          class="embroidery-fill"
          style="fill: rgb(0,173,156); stroke: rgb(0,173,156);"
          inkstitch:fill="1"
          inkstitch:color="#00ad9c"
          inkstitch:angle="135"
          inkstitch:row_spacing_mm="0.4"
          inkstitch:end_row_spacing_mm="0.4"
          inkstitch:max_stitch_length_mm="2.8"
          inkstitch:staggers="4"
          inkstitch:skip_last="1"
          inkstitch:underpath="1" />
    <path id="embroidery-path-10" 
          d="M 454 265 L 453 322 L 463 322 C 463.0 313.9 465.4 292.6 463 295 L 471 287 L 481 293 C 481.0 301.7 483.7 322.0 481 322 L 490 322 L 488 284 L 464 282 L 463 265 Z" 
          class="embroidery-fill"
          style="fill: rgb(0,173,156); stroke: rgb(0,173,156);"
          inkstitch:fill="1"
          inkstitch:color="#00ad9c"
          inkstitch:angle="165"
          inkstitch:row_spacing_mm="0.4"
          inkstitch:end_row_spacing_mm="0.4"
          inkstitch:max_stitch_length_mm="2.8"
          inkstitch:staggers="4"
          inkstitch:skip_last="1"
          inkstitch:underpath="1" />
    <path id="embroidery-path-11" 
          d="M 402 265 L 392 265 L 391 282 C 385.9 281.4 371.3 282.1 374 280 L 365 287 L 362 307 L 370 321 L 402 322 Z" 
          class="embroidery-fill"
          style="fill: rgb(0,173,156); stroke: rgb(0,173,156);"
          inkstitch:fill="1"
          inkstitch:color="#00ad9c"
          inkstitch:angle="195"
          inkstitch:row_spacing_mm="0.4"
          inkstitch:end_row_spacing_mm="0.4"
          inkstitch:max_stitch_length_mm="2.8"
          inkstitch:staggers="4"
          inkstitch:skip_last="1"
          inkstitch:underpath="1" />
    <path id="embroidery-path-12" 
          d="M 62 259 L 32 292 L 83 340 C 97.7 324.7 122.7 280.0 132 289 L 101 259 L 84 273 Z" 
          class="embroidery-fill"
          style="fill: rgb(0,173,156); stroke: rgb(0,173,156);"
          inkstitch:fill="1"
          inkstitch:color="#00ad9c"
          inkstitch:angle="45"
          inkstitch:row_spacing_mm="0.4"
          inkstitch:end_row_spacing_mm="0.4"
          inkstitch:max_stitch_length_mm="2.8"
          inkstitch:staggers="4"
          inkstitch:skip_last="1"
          inkstitch:underpath="1" />
    <path id="embroidery-path-13" 
          d="M 2 2 L 2 597 L 597 597 L 597 2 Z" 
          class="embroidery-fill"
          style="fill: rgb(236,251,249); stroke: rgb(236,251,249);"
          inkstitch:fill="1"
          inkstitch:color="#ecfbf9"
          inkstitch:angle="135"
          inkstitch:row_spacing_mm="0.5"
          inkstitch:end_row_spacing_mm="0.5"
          inkstitch:max_stitch_length_mm="3.0"
          inkstitch:staggers="4"
          inkstitch:skip_last="1"
          inkstitch:underpath="1" />
  </g>
  <metadata>
    <rdf:RDF xmlns:rdf="http://www.w3.org/1999/02/22-rdf-syntax-ns#"
             xmlns:dc="http://purl.org/dc/elements/1.1/">
      <rdf:Description>
        <dc:title>Embroidery Pattern</dc:title>
        <dc:description>High-quality vectorized embroidery pattern compatible with InkStitch</dc:description>
        <dc:creator>Advanced Vectorization Engine</dc:creator>
      </rdf:Description>
    </rdf:RDF>
  </metadata>
</svg>