<?xml version="1.0" encoding="UTF-8"?>
<svg width="800" height="1200" 
     viewBox="0 0 800 1200"
     xmlns="http://www.w3.org/2000/svg"
     xmlns:inkscape="http://www.inkscape.org/namespaces/inkscape"
     xmlns:inkstitch="http://inkstitch.org/namespace">
  
  <defs>
    <!-- Definicje wzorów haftu -->
    <pattern id="satin-pattern" patternUnits="userSpaceOnUse" width="2" height="2">
      <rect width="2" height="2" fill="none"/>
      <line x1="0" y1="0" x2="2" y2="2" stroke="#000" stroke-width="0.1"/>
    </pattern>
  </defs>
  
  <g inkscape:label="Embroidery Design" inkscape:groupmode="layer">

    <path id="region_0_0"
          d="M 426.00 989.00 L 414.00 988.00 L 362.00 998.00 L 344.00 992.00 L 321.00 1015.00 L 302.00 1051.00 L 295.00 1047.00 L 283.00 1059.00 L 281.00 1068.00 L 274.00 1076.00 L 269.00 1105.00 L 273.00 1112.00 L 292.00 1126.00 L 307.00 1142.00 L 313.00 1153.00 L 313.00 1175.00 L 300.00 1198.00 L 428.00 1198.00 L 421.00 1191.00 L 413.00 1163.00 L 413.00 1141.00 L 436.00 1073.00 L 436.00 1058.00 L 429.00 1052.00 L 420.00 1056.00 L 430.00 992.00 Z"
          fill="rgb(254,254,254)"
          stroke="rgb(254,254,254)"
          stroke-width="0.5"
          inkstitch:object_type="fill"
          inkstitch:density_mm="0.35"
          inkstitch:angle="30"
          inkstitch:stitch_length_mm="2.8"
          inkstitch:color_sort_index="0"
          inkstitch:thread_color="#fefefe"/>

    <path id="region_0_1"
          d="M 425.00 1.00 L 444.00 27.00 L 471.00 46.00 L 505.00 98.00 L 553.00 208.00 L 573.00 240.00 L 622.00 267.00 L 718.00 307.00 L 759.00 338.00 L 729.00 350.00 L 707.00 364.00 L 688.00 355.00 L 686.00 368.00 L 660.00 376.00 L 657.00 385.00 L 647.00 382.00 L 614.00 390.00 L 582.00 444.00 L 562.00 465.00 L 530.00 485.00 L 491.00 496.00 L 539.00 502.00 L 551.00 520.00 L 545.00 576.00 L 533.00 595.00 L 545.00 618.00 L 535.00 694.00 L 563.00 868.00 L 568.00 988.00 L 558.00 996.00 L 512.00 994.00 L 511.00 1053.00 L 492.00 1055.00 L 488.00 1111.00 L 495.00 1127.00 L 508.00 1134.00 L 546.00 1129.00 L 567.00 1139.00 L 573.00 1165.00 L 559.00 1198.00 L 798.00 1198.00 L 798.00 1.00 Z"
          fill="rgb(254,254,254)"
          stroke="rgb(254,254,254)"
          stroke-width="0.5"
          inkstitch:object_type="fill"
          inkstitch:density_mm="0.35"
          inkstitch:angle="30"
          inkstitch:stitch_length_mm="2.8"
          inkstitch:color_sort_index="0"
          inkstitch:thread_color="#fefefe"/>

    <path id="region_0_2"
          d="M 303.00 1.00 L 309.00 6.00 L 316.00 11.00 L 319.00 14.00 Q 326.80 19.50 325.00 18.00 L 331.00 24.00 L 339.00 31.00 L 349.00 43.00 Q 358.65 52.95 357.00 51.00 L 360.00 56.00 L 363.00 61.00 L 366.00 66.00 Q 372.20 69.40 371.00 70.00 L 374.00 62.00 L 376.00 57.00 L 379.00 51.00 Q 381.90 43.05 381.00 45.00 L 385.00 38.00 L 387.00 31.00 L 390.00 26.00 Q 392.90 19.35 392.00 21.00 L 396.00 15.00 L 398.00 10.00 L 402.00 4.00 L 405.00 2.00 Z"
          fill="rgb(254,254,254)"
          stroke="rgb(254,254,254)"
          stroke-width="0.5"
          inkstitch:object_type="fill"
          inkstitch:density_mm="0.35"
          inkstitch:angle="30"
          inkstitch:stitch_length_mm="2.8"
          inkstitch:color_sort_index="0"
          inkstitch:thread_color="#fefefe"/>

    <path id="region_0_3"
          d="M 1.00 1.00 L 1.00 1198.00 L 265.00 1198.00 L 228.00 1179.00 L 212.00 1150.00 L 191.00 1150.00 L 176.00 1126.00 L 189.00 1081.00 L 243.00 1020.00 L 232.00 1008.00 L 220.00 1010.00 L 247.00 968.00 L 204.00 972.00 L 202.00 960.00 L 210.00 939.00 L 194.00 932.00 L 162.00 948.00 L 143.00 930.00 L 105.00 914.00 L 64.00 864.00 L 121.00 796.00 L 100.00 774.00 L 84.00 743.00 L 82.00 699.00 L 89.00 663.00 L 117.00 623.00 L 154.00 586.00 L 183.00 567.00 L 140.00 558.00 L 131.00 548.00 L 127.00 515.00 L 117.00 506.00 L 122.00 471.00 L 139.00 439.00 L 159.00 423.00 L 196.00 424.00 L 234.00 434.00 L 235.00 411.00 L 244.00 394.00 L 237.00 387.00 L 211.00 385.00 L 214.00 371.00 L 192.00 380.00 L 133.00 370.00 L 312.00 253.00 L 346.00 167.00 L 332.00 150.00 L 349.00 152.00 L 354.00 143.00 L 335.00 126.00 L 341.00 120.00 L 313.00 102.00 L 347.00 102.00 L 330.00 89.00 L 333.00 82.00 L 312.00 70.00 L 316.00 63.00 L 292.00 46.00 L 268.00 1.00 Z"
          fill="rgb(254,254,254)"
          stroke="rgb(254,254,254)"
          stroke-width="0.5"
          inkstitch:object_type="fill"
          inkstitch:density_mm="0.35"
          inkstitch:angle="30"
          inkstitch:stitch_length_mm="2.8"
          inkstitch:color_sort_index="0"
          inkstitch:thread_color="#fefefe"/>

    <path id="region_1_0"
          d="M 87.00 850.00 L 101.00 867.00 L 118.00 869.00 L 117.00 878.00 L 135.00 879.00 L 139.00 886.00 L 156.00 894.00 L 165.00 892.00 L 196.00 910.00 L 204.00 924.00 L 235.00 942.00 L 251.00 944.00 L 257.00 936.00 L 268.00 943.00 L 268.00 955.00 L 279.00 958.00 L 287.00 955.00 L 297.00 960.00 L 298.00 950.00 L 311.00 940.00 L 321.00 942.00 L 325.00 933.00 L 333.00 931.00 L 340.00 950.00 L 349.00 955.00 L 344.00 963.00 L 354.00 962.00 L 357.00 970.00 L 375.00 977.00 L 386.00 975.00 L 398.00 979.00 L 410.00 975.00 L 440.00 976.00 L 449.00 986.00 L 458.00 982.00 L 472.00 987.00 L 482.00 981.00 L 538.00 981.00 L 549.00 985.00 L 558.00 972.00 L 557.00 942.00 L 549.00 935.00 L 556.00 917.00 L 551.00 892.00 L 539.00 890.00 L 553.00 881.00 L 548.00 858.00 L 548.00 837.00 L 543.00 830.00 L 542.00 801.00 L 531.00 787.00 L 536.00 764.00 L 530.00 738.00 L 521.00 739.00 L 514.00 746.00 L 520.00 755.00 L 518.00 766.00 L 510.00 771.00 L 519.00 779.00 L 514.00 794.00 L 525.00 793.00 L 517.00 810.00 L 522.00 820.00 L 507.00 820.00 L 515.00 824.00 L 502.00 841.00 L 513.00 842.00 L 501.00 850.00 L 497.00 863.00 L 504.00 867.00 L 491.00 869.00 L 485.00 881.00 L 476.00 879.00 L 474.00 870.00 L 462.00 866.00 L 473.00 863.00 L 480.00 869.00 L 486.00 842.00 L 483.00 830.00 L 494.00 820.00 L 486.00 804.00 L 494.00 799.00 L 492.00 775.00 L 503.00 773.00 L 492.00 735.00 L 502.00 732.00 L 501.00 723.00 L 510.00 724.00 L 524.00 713.00 L 522.00 677.00 L 508.00 675.00 L 503.00 681.00 L 470.00 691.00 L 466.00 682.00 L 458.00 682.00 L 452.00 675.00 L 425.00 677.00 L 415.00 670.00 L 369.00 665.00 L 377.00 638.00 L 387.00 622.00 L 389.00 594.00 L 399.00 580.00 L 405.00 555.00 L 396.00 560.00 L 387.00 586.00 L 376.00 597.00 L 376.00 607.00 L 368.00 609.00 L 363.00 623.00 L 355.00 626.00 L 344.00 643.00 L 328.00 646.00 L 325.00 655.00 L 315.00 660.00 L 310.00 669.00 L 314.00 676.00 L 305.00 688.00 L 294.00 691.00 L 287.00 687.00 L 289.00 675.00 L 299.00 664.00 L 289.00 661.00 L 286.00 669.00 L 268.00 670.00 L 256.00 677.00 L 252.00 688.00 L 231.00 700.00 L 227.00 713.00 L 219.00 713.00 L 218.00 721.00 L 202.00 729.00 L 201.00 738.00 L 186.00 754.00 L 169.00 763.00 L 163.00 773.00 L 156.00 778.00 L 148.00 791.00 L 131.00 800.00 L 96.00 839.00 L 100.00 846.00 L 92.00 845.00 Z"
          fill="rgb(120,115,0)"
          stroke="rgb(120,115,0)"
          stroke-width="0.5"
          inkstitch:object_type="fill"
          inkstitch:density_mm="0.4"
          inkstitch:angle="45"
          inkstitch:stitch_length_mm="2.5"
          inkstitch:color_sort_index="1"
          inkstitch:thread_color="#787300"/>

    <path id="region_1_1"
          d="M 289.00 337.00 L 287.00 349.00 L 281.00 356.00 L 281.00 364.00 L 262.00 392.00 L 254.00 396.00 L 249.00 413.00 L 251.00 429.00 L 257.00 433.00 L 247.00 433.00 L 250.00 467.00 L 257.00 470.00 L 279.00 469.00 L 276.00 462.00 L 282.00 444.00 L 288.00 439.00 L 295.00 441.00 L 296.00 451.00 L 290.00 455.00 L 297.00 462.00 L 296.00 474.00 L 287.00 475.00 L 282.00 481.00 L 286.00 490.00 L 277.00 514.00 L 281.00 523.00 L 289.00 556.00 L 287.00 569.00 L 294.00 597.00 L 307.00 605.00 L 312.00 599.00 L 320.00 598.00 L 326.00 582.00 L 334.00 579.00 L 337.00 572.00 L 331.00 576.00 L 332.00 567.00 L 339.00 564.00 L 338.00 542.00 L 333.00 534.00 L 341.00 517.00 L 350.00 517.00 L 348.00 526.00 L 353.00 538.00 L 352.00 546.00 L 360.00 532.00 L 357.00 525.00 L 362.00 519.00 L 360.00 508.00 L 341.00 487.00 L 336.00 473.00 L 327.00 475.00 L 314.00 472.00 L 317.00 464.00 L 318.00 419.00 L 315.00 411.00 L 315.00 394.00 L 321.00 378.00 L 321.00 368.00 L 325.00 360.00 L 317.00 351.00 L 310.00 353.00 L 308.00 341.00 Z"
          fill="rgb(120,115,0)"
          stroke="rgb(120,115,0)"
          stroke-width="0.5"
          inkstitch:object_type="fill"
          inkstitch:density_mm="0.4"
          inkstitch:angle="45"
          inkstitch:stitch_length_mm="2.5"
          inkstitch:color_sort_index="1"
          inkstitch:thread_color="#787300"/>

    <path id="region_2_0"
          d="M 157.00 359.00 L 176.00 357.00 L 290.00 325.00 L 301.00 325.00 L 314.00 301.00 L 330.00 285.00 L 343.00 277.00 L 375.00 286.00 L 383.00 295.00 L 399.00 297.00 L 400.00 309.00 L 416.00 314.00 L 488.00 320.00 L 488.00 312.00 L 619.00 324.00 L 636.00 323.00 L 634.00 315.00 L 739.00 337.00 L 746.00 334.00 L 717.00 314.00 L 617.00 272.00 L 568.00 245.00 L 548.00 214.00 L 501.00 105.00 L 470.00 63.00 L 460.00 44.00 L 446.00 35.00 L 422.00 28.00 L 430.00 25.00 L 420.00 10.00 L 410.00 7.00 L 395.00 31.00 L 373.00 82.00 L 400.00 200.00 L 407.00 207.00 L 386.00 218.00 L 390.00 209.00 L 374.00 187.00 L 356.00 174.00 L 367.00 172.00 L 354.00 165.00 L 320.00 253.00 L 312.00 262.00 L 220.00 317.00 Z"
          fill="rgb(61,139,69)"
          stroke="rgb(61,139,69)"
          stroke-width="0.5"
          inkstitch:object_type="fill"
          inkstitch:density_mm="0.35"
          inkstitch:angle="30"
          inkstitch:stitch_length_mm="2.8"
          inkstitch:color_sort_index="2"
          inkstitch:thread_color="#3d8b45"/>

    <path id="region_3_0"
          d="M 420.00 1154.00 L 420.00 1163.00 L 422.00 1168.00 L 423.00 1174.00 Q 425.60 1181.80 425.00 1180.00 L 427.00 1186.00 L 432.00 1191.00 L 447.00 1192.00 Q 446.70 1185.50 447.00 1187.00 L 445.00 1182.00 L 444.00 1173.00 L 443.00 1165.00 Q 450.80 1163.15 449.00 1163.00 L 455.00 1166.00 L 462.00 1169.00 L 468.00 1173.00 Q 481.10 1186.40 479.00 1184.00 L 482.00 1189.00 L 487.00 1192.00 L 494.00 1195.00 Q 504.40 1197.30 502.00 1197.00 L 510.00 1197.00 L 543.00 1198.00 L 549.00 1196.00 Q 552.45 1193.40 552.00 1194.00 L 552.00 1192.00 L 547.00 1192.00 L 543.00 1193.00 Q 510.90 1190.70 516.00 1191.00 L 509.00 1191.00 L 503.00 1189.00 L 496.00 1188.00 Q 488.20 1183.95 490.00 1185.00 L 484.00 1181.00 L 478.00 1177.00 L 470.00 1169.00 Q 463.50 1165.10 465.00 1166.00 L 460.00 1163.00 L 451.00 1159.00 L 446.00 1157.00 Q 439.75 1156.70 442.00 1157.00 L 431.00 1155.00 L 424.00 1155.00 Z"
          fill="rgb(146,76,28)"
          stroke="rgb(146,76,28)"
          stroke-width="0.5"
          inkstitch:object_type="satin"
          inkstitch:density_mm="0.3"
          inkstitch:angle="0"
          inkstitch:stitch_length_mm="3.0"
          inkstitch:color_sort_index="3"
          inkstitch:thread_color="#924c1c"/>

    <path id="region_3_1"
          d="M 193.00 1088.00 L 184.00 1127.00 L 187.00 1134.00 L 194.00 1139.00 L 203.00 1121.00 L 210.00 1118.00 L 224.00 1163.00 L 241.00 1179.00 L 292.00 1196.00 L 284.00 1190.00 L 242.00 1175.00 L 227.00 1159.00 L 221.00 1125.00 L 197.00 1089.00 Z"
          fill="rgb(146,76,28)"
          stroke="rgb(146,76,28)"
          stroke-width="0.5"
          inkstitch:object_type="satin"
          inkstitch:density_mm="0.3"
          inkstitch:angle="0"
          inkstitch:stitch_length_mm="3.0"
          inkstitch:color_sort_index="3"
          inkstitch:thread_color="#924c1c"/>

    <path id="region_3_2"
          d="M 446.00 1050.00 L 434.00 1110.00 L 421.00 1139.00 L 420.00 1148.00 L 458.00 1155.00 L 498.00 1183.00 L 550.00 1187.00 L 559.00 1183.00 L 564.00 1174.00 L 566.00 1152.00 L 563.00 1145.00 L 548.00 1136.00 L 524.00 1137.00 L 507.00 1140.00 L 490.00 1156.00 L 480.00 1153.00 L 482.00 1141.00 L 490.00 1134.00 L 467.00 1132.00 L 463.00 1121.00 L 471.00 1115.00 L 481.00 1113.00 L 481.00 1101.00 L 466.00 1101.00 L 458.00 1095.00 L 461.00 1085.00 L 476.00 1083.00 L 482.00 1071.00 L 465.00 1071.00 L 459.00 1066.00 L 464.00 1056.00 L 479.00 1054.00 L 463.00 1052.00 L 455.00 1057.00 L 448.00 1050.00 Z"
          fill="rgb(146,76,28)"
          stroke="rgb(146,76,28)"
          stroke-width="0.5"
          inkstitch:object_type="satin"
          inkstitch:density_mm="0.3"
          inkstitch:angle="0"
          inkstitch:stitch_length_mm="3.0"
          inkstitch:color_sort_index="3"
          inkstitch:thread_color="#924c1c"/>

    <path id="region_3_3"
          d="M 250.00 1023.00 L 200.00 1079.00 L 227.00 1127.00 L 233.00 1157.00 L 246.00 1171.00 L 283.00 1183.00 L 300.00 1185.00 L 308.00 1169.00 L 308.00 1158.00 L 299.00 1143.00 L 287.00 1131.00 L 264.00 1123.00 L 248.00 1129.00 L 238.00 1126.00 L 242.00 1115.00 L 263.00 1108.00 L 263.00 1100.00 L 249.00 1100.00 L 238.00 1095.00 L 242.00 1086.00 L 249.00 1083.00 L 265.00 1083.00 L 267.00 1074.00 L 249.00 1065.00 L 255.00 1052.00 L 272.00 1057.00 L 260.00 1038.00 L 264.00 1031.00 L 257.00 1027.00 Z"
          fill="rgb(146,76,28)"
          stroke="rgb(146,76,28)"
          stroke-width="0.5"
          inkstitch:object_type="satin"
          inkstitch:density_mm="0.3"
          inkstitch:angle="0"
          inkstitch:stitch_length_mm="3.0"
          inkstitch:color_sort_index="3"
          inkstitch:thread_color="#924c1c"/>

    <path id="region_3_4"
          d="M 276.00 565.00 L 247.00 605.00 L 239.00 609.00 L 268.00 563.00 L 227.00 561.00 L 197.00 567.00 L 158.00 592.00 L 118.00 632.00 L 94.00 669.00 L 90.00 691.00 L 89.00 733.00 L 107.00 772.00 L 126.00 789.00 L 194.00 726.00 L 244.00 674.00 L 252.00 656.00 L 287.00 623.00 L 279.00 574.00 Z"
          fill="rgb(146,76,28)"
          stroke="rgb(146,76,28)"
          stroke-width="0.5"
          inkstitch:object_type="satin"
          inkstitch:density_mm="0.3"
          inkstitch:angle="0"
          inkstitch:stitch_length_mm="3.0"
          inkstitch:color_sort_index="3"
          inkstitch:thread_color="#924c1c"/>

    <path id="region_3_5"
          d="M 489.00 551.00 L 503.00 582.00 L 510.00 586.00 L 494.00 555.00 Z"
          fill="rgb(146,76,28)"
          stroke="rgb(146,76,28)"
          stroke-width="0.5"
          inkstitch:object_type="satin"
          inkstitch:density_mm="0.3"
          inkstitch:angle="0"
          inkstitch:stitch_length_mm="3.0"
          inkstitch:color_sort_index="3"
          inkstitch:thread_color="#924c1c"/>

    <path id="region_3_6"
          d="M 378.00 491.00 L 361.00 488.00 L 377.00 515.00 L 377.00 527.00 L 365.00 547.00 L 364.00 563.00 L 343.00 586.00 L 342.00 597.00 L 305.00 630.00 L 300.00 624.00 L 278.00 636.00 L 253.00 664.00 L 333.00 633.00 L 349.00 619.00 L 389.00 553.00 L 394.00 521.00 L 386.00 499.00 Z"
          fill="rgb(146,76,28)"
          stroke="rgb(146,76,28)"
          stroke-width="0.5"
          inkstitch:object_type="satin"
          inkstitch:density_mm="0.3"
          inkstitch:angle="0"
          inkstitch:stitch_length_mm="3.0"
          inkstitch:color_sort_index="3"
          inkstitch:thread_color="#924c1c"/>

    <path id="region_4_0"
          d="M 597.00 361.00 L 586.00 342.00 L 577.00 333.00 L 581.00 362.00 L 578.00 371.00 L 566.00 383.00 L 548.00 388.00 L 562.00 397.00 L 565.00 405.00 L 529.00 425.00 L 542.00 411.00 L 553.00 407.00 L 557.00 400.00 L 529.00 385.00 L 518.00 373.00 L 505.00 351.00 L 515.00 352.00 L 512.00 342.00 L 513.00 327.00 L 525.00 323.00 L 497.00 318.00 L 496.00 327.00 L 482.00 324.00 L 466.00 328.00 L 463.00 353.00 L 456.00 369.00 L 435.00 384.00 L 408.00 387.00 L 382.00 375.00 L 371.00 361.00 L 366.00 347.00 L 366.00 334.00 L 341.00 355.00 L 344.00 370.00 L 336.00 377.00 L 335.00 397.00 L 327.00 396.00 L 327.00 406.00 L 336.00 425.00 L 365.00 458.00 L 385.00 473.00 L 411.00 485.00 L 443.00 493.00 L 472.00 493.00 L 522.00 481.00 L 552.00 464.00 L 575.00 442.00 L 586.00 426.00 L 598.00 396.00 L 599.00 369.00 Z"
          fill="rgb(254,196,168)"
          stroke="rgb(254,196,168)"
          stroke-width="0.5"
          inkstitch:object_type="fill"
          inkstitch:density_mm="0.35"
          inkstitch:angle="30"
          inkstitch:stitch_length_mm="2.8"
          inkstitch:color_sort_index="4"
          inkstitch:thread_color="#fec4a8"/>

    <path id="region_5_0"
          d="M 455.00 507.00 L 523.00 587.00 L 532.00 587.00 L 544.00 541.00 L 545.00 521.00 L 541.00 513.00 L 527.00 505.00 L 457.00 506.00 Z"
          fill="rgb(222,171,89)"
          stroke="rgb(222,171,89)"
          stroke-width="0.5"
          inkstitch:object_type="satin"
          inkstitch:density_mm="0.3"
          inkstitch:angle="0"
          inkstitch:stitch_length_mm="3.0"
          inkstitch:color_sort_index="5"
          inkstitch:thread_color="#deab59"/>

    <path id="region_5_1"
          d="M 146.00 441.00 L 131.00 467.00 L 123.00 501.00 L 130.00 505.00 L 140.00 466.00 L 158.00 443.00 L 167.00 449.00 L 172.00 476.00 L 174.00 460.00 L 164.00 438.00 L 173.00 439.00 L 179.00 457.00 L 186.00 454.00 L 188.00 472.00 L 183.00 502.00 L 176.00 497.00 L 163.00 527.00 L 155.00 536.00 L 145.00 540.00 L 138.00 534.00 L 136.00 510.00 L 141.00 492.00 L 149.00 482.00 L 157.00 481.00 L 157.00 455.00 L 163.00 460.00 L 166.00 481.00 L 167.00 462.00 L 163.00 452.00 L 148.00 461.00 L 139.00 482.00 L 134.00 509.00 L 134.00 537.00 L 142.00 551.00 L 171.00 557.00 L 272.00 555.00 L 273.00 542.00 L 264.00 526.00 L 239.00 520.00 L 234.00 513.00 L 258.00 518.00 L 239.00 466.00 L 237.00 449.00 L 232.00 442.00 L 181.00 429.00 L 157.00 431.00 Z"
          fill="rgb(222,171,89)"
          stroke="rgb(222,171,89)"
          stroke-width="0.5"
          inkstitch:object_type="satin"
          inkstitch:density_mm="0.3"
          inkstitch:angle="0"
          inkstitch:stitch_length_mm="3.0"
          inkstitch:color_sort_index="5"
          inkstitch:thread_color="#deab59"/>

    <path id="region_6_0"
          d="M 398.00 627.00 L 387.00 642.00 L 384.00 653.00 L 401.00 648.00 L 407.00 640.00 L 400.00 631.00 Z"
          fill="rgb(250,225,0)"
          stroke="rgb(250,225,0)"
          stroke-width="0.5"
          inkstitch:object_type="satin"
          inkstitch:density_mm="0.3"
          inkstitch:angle="0"
          inkstitch:stitch_length_mm="3.0"
          inkstitch:color_sort_index="6"
          inkstitch:thread_color="#fae100"/>

    <path id="region_6_1"
          d="M 415.00 601.00 L 407.00 602.00 L 400.00 608.00 L 407.00 631.00 L 413.00 613.00 Z"
          fill="rgb(250,225,0)"
          stroke="rgb(250,225,0)"
          stroke-width="0.5"
          inkstitch:object_type="satin"
          inkstitch:density_mm="0.3"
          inkstitch:angle="0"
          inkstitch:stitch_length_mm="3.0"
          inkstitch:color_sort_index="6"
          inkstitch:thread_color="#fae100"/>

    <path id="region_6_2"
          d="M 422.00 600.00 L 413.00 644.00 L 405.00 655.00 L 425.00 664.00 L 466.00 667.00 L 481.00 672.00 L 485.00 660.00 L 466.00 655.00 L 449.00 656.00 L 437.00 646.00 L 433.00 602.00 Z"
          fill="rgb(250,225,0)"
          stroke="rgb(250,225,0)"
          stroke-width="0.5"
          inkstitch:object_type="satin"
          inkstitch:density_mm="0.3"
          inkstitch:angle="0"
          inkstitch:stitch_length_mm="3.0"
          inkstitch:color_sort_index="6"
          inkstitch:thread_color="#fae100"/>

    <path id="region_6_3"
          d="M 450.00 514.00 L 449.00 520.00 L 451.00 525.00 L 454.00 530.00 Q 459.05 537.80 458.00 536.00 L 461.00 542.00 L 465.00 548.00 L 468.00 553.00 Q 473.05 560.65 472.00 559.00 L 475.00 564.00 L 478.00 569.00 L 481.00 574.00 Q 483.75 580.80 483.00 579.00 L 486.00 586.00 L 489.00 591.00 L 491.00 596.00 Q 492.45 600.60 492.00 600.00 L 494.00 600.00 L 493.00 588.00 L 491.00 582.00 Q 489.55 573.05 490.00 575.00 L 488.00 569.00 L 486.00 562.00 L 483.00 556.00 Q 480.40 549.50 481.00 551.00 L 479.00 546.00 L 477.00 541.00 L 474.00 535.00 Q 469.80 527.05 471.00 529.00 L 466.00 522.00 L 459.00 517.00 L 455.00 514.00 Z"
          fill="rgb(250,225,0)"
          stroke="rgb(250,225,0)"
          stroke-width="0.5"
          inkstitch:object_type="satin"
          inkstitch:density_mm="0.3"
          inkstitch:angle="0"
          inkstitch:stitch_length_mm="3.0"
          inkstitch:color_sort_index="6"
          inkstitch:thread_color="#fae100"/>

    <path id="region_6_4"
          d="M 430.00 510.00 L 424.00 543.00 L 431.00 545.00 L 430.00 553.00 L 403.00 593.00 L 429.00 596.00 L 444.00 603.00 L 449.00 556.00 L 449.00 619.00 L 442.00 629.00 L 440.00 639.00 L 444.00 647.00 L 487.00 654.00 L 495.00 659.00 L 489.00 608.00 L 478.00 581.00 L 478.00 602.00 L 442.00 519.00 L 434.00 511.00 Z"
          fill="rgb(250,225,0)"
          stroke="rgb(250,225,0)"
          stroke-width="0.5"
          inkstitch:object_type="satin"
          inkstitch:density_mm="0.3"
          inkstitch:angle="0"
          inkstitch:stitch_length_mm="3.0"
          inkstitch:color_sort_index="6"
          inkstitch:thread_color="#fae100"/>

    <path id="region_6_5"
          d="M 388.00 489.00 L 416.00 537.00 L 421.00 530.00 L 424.00 512.00 L 398.00 490.00 L 390.00 488.00 Z"
          fill="rgb(250,225,0)"
          stroke="rgb(250,225,0)"
          stroke-width="0.5"
          inkstitch:object_type="satin"
          inkstitch:density_mm="0.3"
          inkstitch:angle="0"
          inkstitch:stitch_length_mm="3.0"
          inkstitch:color_sort_index="6"
          inkstitch:thread_color="#fae100"/>

    <path id="region_7_0"
          d="M 505.00 992.00 L 450.00 995.00 L 437.00 993.00 L 429.00 1037.00 L 437.00 1036.00 L 438.00 1044.00 L 504.00 1048.00 L 504.00 998.00 Z"
          fill="rgb(0,69,12)"
          stroke="rgb(0,69,12)"
          stroke-width="0.5"
          inkstitch:object_type="fill"
          inkstitch:density_mm="0.4"
          inkstitch:angle="45"
          inkstitch:stitch_length_mm="2.5"
          inkstitch:color_sort_index="7"
          inkstitch:thread_color="#00450c"/>

    <path id="region_7_1"
          d="M 331.00 964.00 L 325.00 967.00 L 318.00 971.00 L 314.00 973.00 Q 317.75 961.90 317.00 964.00 L 319.00 959.00 L 319.00 957.00 L 312.00 961.00 Q 300.90 968.20 303.00 967.00 L 298.00 969.00 L 292.00 969.00 L 286.00 967.00 Q 280.65 966.70 282.00 967.00 L 277.00 965.00 L 270.00 964.00 L 265.00 962.00 Q 257.35 963.20 259.00 962.00 L 254.00 970.00 L 251.00 976.00 L 247.00 982.00 Q 242.65 986.95 244.00 985.00 L 238.00 995.00 L 245.00 993.00 L 249.00 993.00 Q 242.80 1002.95 244.00 1001.00 L 241.00 1006.00 L 241.00 1009.00 L 250.00 1015.00 Q 256.80 1019.20 255.00 1018.00 L 262.00 1023.00 L 271.00 1027.00 L 274.00 1024.00 Q 281.35 1018.95 280.00 1020.00 L 283.00 1017.00 L 288.00 1014.00 L 292.00 1015.00 Q 291.85 1022.65 292.00 1021.00 L 291.00 1026.00 L 298.00 1025.00 L 300.00 1031.00 Q 300.30 1039.05 300.00 1038.00 L 302.00 1038.00 L 304.00 1033.00 L 307.00 1028.00 Q 309.90 1021.35 309.00 1023.00 L 313.00 1017.00 L 317.00 1009.00 L 321.00 1004.00 Q 328.50 990.60 327.00 993.00 L 331.00 988.00 L 334.00 980.00 L 331.00 977.00 L 331.00 966.00 Z"
          fill="rgb(0,69,12)"
          stroke="rgb(0,69,12)"
          stroke-width="0.5"
          inkstitch:object_type="fill"
          inkstitch:density_mm="0.4"
          inkstitch:angle="45"
          inkstitch:stitch_length_mm="2.5"
          inkstitch:color_sort_index="7"
          inkstitch:thread_color="#00450c"/>

    <path id="region_7_2"
          d="M 613.00 364.00 L 613.00 368.00 L 614.00 373.00 L 613.00 380.00 Q 622.80 379.10 621.00 380.00 L 625.00 374.00 L 621.00 370.00 L 621.00 369.00 L 615.00 364.00 Z"
          fill="rgb(0,69,12)"
          stroke="rgb(0,69,12)"
          stroke-width="0.5"
          inkstitch:object_type="fill"
          inkstitch:density_mm="0.4"
          inkstitch:angle="45"
          inkstitch:stitch_length_mm="2.5"
          inkstitch:color_sort_index="7"
          inkstitch:thread_color="#00450c"/>

    <path id="region_7_3"
          d="M 644.00 330.00 L 644.00 334.00 L 647.00 338.00 L 647.00 340.00 Q 650.75 346.50 650.00 345.00 L 652.00 350.00 L 654.00 354.00 L 656.00 359.00 Q 658.90 367.05 658.00 366.00 L 662.00 366.00 L 669.00 364.00 L 672.00 358.00 Q 673.45 356.35 673.00 358.00 L 675.00 347.00 L 678.00 347.00 L 680.00 343.00 Q 690.10 343.60 688.00 343.00 L 694.00 347.00 L 699.00 350.00 L 702.00 353.00 Q 708.35 353.40 707.00 354.00 L 711.00 349.00 L 719.00 347.00 L 724.00 344.00 Q 729.75 341.40 729.00 342.00 L 729.00 340.00 L 722.00 338.00 L 722.00 337.00 Q 711.65 336.70 713.00 337.00 L 713.00 335.00 L 709.00 335.00 L 704.00 336.00 Q 693.15 333.40 696.00 334.00 L 685.00 332.00 L 679.00 332.00 L 671.00 330.00 Q 662.90 327.55 665.00 328.00 L 657.00 327.00 L 645.00 325.00 L 645.00 329.00 Z"
          fill="rgb(0,69,12)"
          stroke="rgb(0,69,12)"
          stroke-width="0.5"
          inkstitch:object_type="fill"
          inkstitch:density_mm="0.4"
          inkstitch:angle="45"
          inkstitch:stitch_length_mm="2.5"
          inkstitch:color_sort_index="7"
          inkstitch:thread_color="#00450c"/>

    <path id="region_8_0"
          d="M 226.00 351.00 L 252.00 362.00 L 264.00 363.00 L 270.00 356.00 L 234.00 349.00 Z"
          fill="rgb(214,95,0)"
          stroke="rgb(214,95,0)"
          stroke-width="0.5"
          inkstitch:object_type="satin"
          inkstitch:density_mm="0.3"
          inkstitch:angle="0"
          inkstitch:stitch_length_mm="3.0"
          inkstitch:color_sort_index="8"
          inkstitch:thread_color="#d65f00"/>

    <path id="region_8_1"
          d="M 597.00 327.00 L 611.00 348.00 L 612.00 340.00 L 619.00 343.00 L 632.00 360.00 L 625.00 338.00 L 618.00 329.00 L 602.00 328.00 Z"
          fill="rgb(214,95,0)"
          stroke="rgb(214,95,0)"
          stroke-width="0.5"
          inkstitch:object_type="satin"
          inkstitch:density_mm="0.3"
          inkstitch:angle="0"
          inkstitch:stitch_length_mm="3.0"
          inkstitch:color_sort_index="8"
          inkstitch:thread_color="#d65f00"/>

    <path id="region_8_2"
          d="M 276.00 1.00 L 289.00 27.00 L 303.00 48.00 L 338.00 66.00 Q 355.80 80.25 354.00 78.00 L 350.00 81.00 L 346.00 79.00 L 343.00 79.00 Q 343.75 81.60 343.00 81.00 L 348.00 83.00 L 357.00 89.00 L 356.00 93.00 Q 352.75 95.80 352.00 94.00 L 361.00 105.00 L 369.00 116.00 L 366.00 119.00 Q 354.75 113.10 357.00 114.00 L 351.00 113.00 L 344.00 111.00 L 342.00 111.00 Q 345.60 115.55 342.00 113.00 L 366.00 128.00 L 369.00 131.00 L 373.00 133.00 Q 378.75 139.35 378.00 138.00 L 378.00 142.00 L 368.00 141.00 L 368.00 143.00 Q 375.80 148.50 374.00 147.00 L 380.00 153.00 L 383.00 158.00 L 385.00 158.00 Q 384.55 150.75 385.00 153.00 L 382.00 143.00 L 380.00 133.00 L 378.00 127.00 Q 376.55 117.05 377.00 119.00 L 375.00 114.00 L 374.00 107.00 L 372.00 101.00 Q 368.95 91.85 370.00 95.00 L 365.00 80.00 L 357.00 64.00 L 344.00 48.00 Q 319.95 23.10 324.00 27.00 L 317.00 22.00 L 310.00 16.00 L 306.00 14.00 Q 301.80 10.10 303.00 11.00 L 298.00 8.00 L 289.00 1.00 Z"
          fill="rgb(214,95,0)"
          stroke="rgb(214,95,0)"
          stroke-width="0.5"
          inkstitch:object_type="satin"
          inkstitch:density_mm="0.3"
          inkstitch:angle="0"
          inkstitch:stitch_length_mm="3.0"
          inkstitch:color_sort_index="8"
          inkstitch:thread_color="#d65f00"/>

    <path id="region_9_0"
          d="M 83.00 877.00 L 85.00 881.00 L 88.00 883.00 L 92.00 889.00 Q 97.20 893.50 96.00 892.00 L 100.00 899.00 L 103.00 902.00 L 108.00 906.00 Q 112.35 910.90 111.00 910.00 L 117.00 912.00 L 121.00 914.00 L 125.00 916.00 Q 129.05 918.45 128.00 918.00 L 132.00 919.00 L 132.00 920.00 L 143.00 923.00 Q 149.35 917.40 148.00 918.00 L 152.00 919.00 L 152.00 931.00 L 154.00 934.00 Q 161.50 939.05 160.00 938.00 L 164.00 941.00 L 169.00 940.00 L 173.00 938.00 Q 179.05 934.10 178.00 935.00 L 180.00 932.00 L 188.00 928.00 L 187.00 924.00 Q 181.80 921.40 183.00 922.00 L 179.00 920.00 L 174.00 916.00 L 168.00 913.00 Q 161.80 908.40 163.00 909.00 L 160.00 909.00 L 158.00 906.00 L 154.00 904.00 Q 147.65 900.25 149.00 901.00 L 145.00 899.00 L 141.00 897.00 L 138.00 895.00 Q 133.40 893.70 134.00 894.00 L 134.00 893.00 L 126.00 890.00 L 123.00 888.00 Q 114.20 886.55 116.00 887.00 L 111.00 885.00 L 99.00 885.00 L 96.00 882.00 Q 94.20 876.10 96.00 877.00 L 84.00 876.00 Z"
          fill="rgb(95,80,5)"
          stroke="rgb(95,80,5)"
          stroke-width="0.5"
          inkstitch:object_type="fill"
          inkstitch:density_mm="0.4"
          inkstitch:angle="45"
          inkstitch:stitch_length_mm="2.5"
          inkstitch:color_sort_index="9"
          inkstitch:thread_color="#5f5005"/>

    <path id="region_9_1"
          d="M 97.00 836.00 L 98.00 847.00 L 106.00 845.00 L 115.00 853.00 L 112.00 867.00 L 121.00 880.00 L 130.00 875.00 L 137.00 884.00 L 160.00 885.00 L 151.00 891.00 L 232.00 942.00 L 250.00 950.00 L 260.00 950.00 L 271.00 957.00 L 280.00 955.00 L 300.00 960.00 L 305.00 954.00 L 301.00 945.00 L 306.00 937.00 L 313.00 945.00 L 336.00 933.00 L 336.00 950.00 L 343.00 946.00 L 340.00 966.00 L 356.00 967.00 L 362.00 975.00 L 367.00 966.00 L 370.00 975.00 L 378.00 973.00 L 391.00 980.00 L 413.00 977.00 L 444.00 983.00 L 455.00 988.00 L 507.00 985.00 L 527.00 981.00 L 548.00 987.00 L 559.00 985.00 L 555.00 877.00 L 551.00 866.00 L 553.00 858.00 L 545.00 812.00 L 538.00 808.00 L 538.00 773.00 L 513.00 777.00 L 520.00 795.00 L 512.00 802.00 L 499.00 791.00 L 507.00 788.00 L 498.00 775.00 L 506.00 765.00 L 506.00 746.00 L 525.00 739.00 L 518.00 751.00 L 535.00 751.00 L 533.00 733.00 L 522.00 726.00 L 530.00 719.00 L 529.00 710.00 L 520.00 703.00 L 525.00 685.00 L 523.00 677.00 L 515.00 676.00 L 521.00 668.00 L 514.00 658.00 L 516.00 648.00 L 508.00 637.00 L 505.00 651.00 L 506.00 670.00 L 498.00 671.00 L 492.00 687.00 L 481.00 682.00 L 473.00 682.00 L 466.00 675.00 L 440.00 675.00 L 427.00 680.00 L 400.00 674.00 L 387.00 663.00 L 375.00 664.00 L 374.00 672.00 L 369.00 662.00 L 375.00 652.00 L 374.00 643.00 L 382.00 636.00 L 379.00 625.00 L 387.00 605.00 L 370.00 604.00 L 372.00 617.00 L 359.00 619.00 L 351.00 629.00 L 362.00 626.00 L 367.00 635.00 L 359.00 640.00 L 362.00 659.00 L 355.00 656.00 L 357.00 646.00 L 340.00 650.00 L 333.00 647.00 L 331.00 655.00 L 325.00 650.00 L 321.00 658.00 L 313.00 662.00 L 297.00 689.00 L 287.00 687.00 L 292.00 671.00 L 284.00 674.00 L 286.00 666.00 L 277.00 673.00 L 271.00 668.00 L 269.00 678.00 L 249.00 685.00 L 239.00 702.00 L 229.00 703.00 L 229.00 715.00 L 213.00 723.00 L 203.00 741.00 L 180.00 752.00 L 182.00 771.00 L 173.00 775.00 L 163.00 774.00 L 163.00 788.00 L 151.00 786.00 L 147.00 801.00 L 138.00 796.00 L 132.00 812.00 L 119.00 811.00 L 105.00 835.00 Z"
          fill="rgb(95,80,5)"
          stroke="rgb(95,80,5)"
          stroke-width="0.5"
          inkstitch:object_type="fill"
          inkstitch:density_mm="0.4"
          inkstitch:angle="45"
          inkstitch:stitch_length_mm="2.5"
          inkstitch:color_sort_index="9"
          inkstitch:thread_color="#5f5005"/>

    <path id="region_9_2"
          d="M 293.00 333.00 L 291.00 338.00 L 286.00 339.00 L 288.00 344.00 L 287.00 352.00 L 289.00 353.00 L 289.00 357.00 L 282.00 358.00 L 282.00 361.00 L 277.00 363.00 L 277.00 367.00 L 269.00 373.00 L 263.00 380.00 L 262.00 386.00 L 258.00 387.00 L 256.00 394.00 L 252.00 396.00 L 251.00 404.00 L 246.00 408.00 L 246.00 413.00 L 244.00 414.00 L 243.00 432.00 L 245.00 453.00 L 249.00 456.00 L 249.00 459.00 L 247.00 460.00 L 248.00 470.00 L 251.00 480.00 L 256.00 482.00 L 255.00 491.00 L 257.00 494.00 L 260.00 494.00 L 261.00 490.00 L 263.00 489.00 L 263.00 480.00 L 261.00 479.00 L 261.00 476.00 L 273.00 473.00 L 273.00 469.00 L 276.00 465.00 L 274.00 455.00 L 290.00 454.00 L 292.00 450.00 L 296.00 451.00 L 296.00 457.00 L 293.00 458.00 L 293.00 463.00 L 297.00 463.00 L 298.00 466.00 L 291.00 467.00 L 287.00 479.00 L 281.00 475.00 L 280.00 470.00 L 278.00 470.00 L 276.00 474.00 L 278.00 480.00 L 273.00 481.00 L 273.00 488.00 L 276.00 489.00 L 276.00 494.00 L 274.00 495.00 L 276.00 515.00 L 281.00 519.00 L 282.00 533.00 L 286.00 533.00 L 288.00 563.00 L 285.00 564.00 L 285.00 566.00 L 292.00 568.00 L 291.00 580.00 L 296.00 580.00 L 299.00 582.00 L 299.00 588.00 L 297.00 591.00 L 303.00 591.00 L 304.00 593.00 L 307.00 593.00 L 307.00 591.00 L 304.00 591.00 L 303.00 585.00 L 307.00 585.00 L 302.00 573.00 L 307.00 571.00 L 308.00 564.00 L 313.00 564.00 L 319.00 557.00 L 316.00 556.00 L 316.00 550.00 L 326.00 549.00 L 329.00 555.00 L 336.00 556.00 L 338.00 552.00 L 341.00 552.00 L 341.00 549.00 L 338.00 549.00 L 338.00 551.00 L 335.00 552.00 L 332.00 546.00 L 332.00 542.00 L 336.00 541.00 L 335.00 532.00 L 337.00 529.00 L 339.00 529.00 L 339.00 525.00 L 343.00 524.00 L 344.00 519.00 L 349.00 519.00 L 352.00 521.00 L 352.00 524.00 L 358.00 528.00 L 359.00 535.00 L 362.00 535.00 L 362.00 531.00 L 364.00 530.00 L 365.00 518.00 L 362.00 517.00 L 364.00 511.00 L 351.00 496.00 L 350.00 489.00 L 345.00 482.00 L 341.00 481.00 L 341.00 474.00 L 334.00 461.00 L 329.00 463.00 L 330.00 475.00 L 321.00 476.00 L 321.00 478.00 L 317.00 479.00 L 316.00 482.00 L 311.00 481.00 L 312.00 477.00 L 318.00 475.00 L 317.00 467.00 L 314.00 465.00 L 314.00 463.00 L 317.00 461.00 L 316.00 449.00 L 320.00 447.00 L 320.00 435.00 L 316.00 435.00 L 315.00 440.00 L 311.00 439.00 L 312.00 430.00 L 317.00 429.00 L 317.00 419.00 L 319.00 418.00 L 319.00 411.00 L 316.00 410.00 L 315.00 395.00 L 319.00 390.00 L 320.00 374.00 L 327.00 374.00 L 335.00 367.00 L 331.00 357.00 L 325.00 359.00 L 321.00 351.00 L 317.00 351.00 L 316.00 349.00 L 308.00 350.00 L 305.00 345.00 L 302.00 344.00 L 303.00 334.00 L 301.00 334.00 L 300.00 337.00 L 297.00 337.00 L 295.00 333.00 Z"
          fill="rgb(95,80,5)"
          stroke="rgb(95,80,5)"
          stroke-width="0.5"
          inkstitch:object_type="fill"
          inkstitch:density_mm="0.4"
          inkstitch:angle="45"
          inkstitch:stitch_length_mm="2.5"
          inkstitch:color_sort_index="9"
          inkstitch:thread_color="#5f5005"/>

    <path id="region_10_0"
          d="M 525.00 331.00 L 519.00 336.00 L 524.00 363.00 L 532.00 374.00 L 546.00 368.00 L 551.00 345.00 L 542.00 333.00 Z"
          fill="rgb(131,23,6)"
          stroke="rgb(131,23,6)"
          stroke-width="0.5"
          inkstitch:object_type="fill"
          inkstitch:density_mm="0.4"
          inkstitch:angle="45"
          inkstitch:stitch_length_mm="2.5"
          inkstitch:color_sort_index="10"
          inkstitch:thread_color="#831706"/>

    <path id="region_10_1"
          d="M 381.00 328.00 L 374.00 333.00 L 372.00 346.00 L 378.00 361.00 L 386.00 371.00 L 402.00 373.00 L 413.00 365.00 L 420.00 350.00 L 419.00 340.00 L 412.00 330.00 L 392.00 325.00 L 384.00 327.00 Z"
          fill="rgb(131,23,6)"
          stroke="rgb(131,23,6)"
          stroke-width="0.5"
          inkstitch:object_type="fill"
          inkstitch:density_mm="0.4"
          inkstitch:angle="45"
          inkstitch:stitch_length_mm="2.5"
          inkstitch:color_sort_index="10"
          inkstitch:thread_color="#831706"/>

    <path id="region_11_0"
          d="M 437.00 993.00 L 429.00 1039.00 L 438.00 1036.00 L 438.00 1048.00 L 445.00 1045.00 L 504.00 1048.00 L 504.00 993.00 L 449.00 995.00 Z"
          fill="rgb(15,112,28)"
          stroke="rgb(15,112,28)"
          stroke-width="0.5"
          inkstitch:object_type="fill"
          inkstitch:density_mm="0.4"
          inkstitch:angle="45"
          inkstitch:stitch_length_mm="2.5"
          inkstitch:color_sort_index="11"
          inkstitch:thread_color="#0f701c"/>

    <path id="region_11_1"
          d="M 330.00 965.00 L 322.00 969.00 L 317.00 972.00 L 313.00 972.00 Q 315.90 964.75 315.00 967.00 L 319.00 957.00 L 314.00 959.00 L 307.00 964.00 Q 286.70 969.45 290.00 969.00 L 285.00 967.00 L 281.00 967.00 L 275.00 965.00 Q 264.60 962.55 267.00 963.00 L 259.00 962.00 L 253.00 972.00 L 250.00 978.00 Q 243.80 986.50 245.00 985.00 L 242.00 988.00 L 239.00 994.00 L 248.00 992.00 Q 248.55 997.20 249.00 996.00 L 245.00 1000.00 L 242.00 1009.00 L 250.00 1014.00 Q 254.50 1018.20 253.00 1017.00 L 260.00 1022.00 L 266.00 1026.00 L 271.00 1026.00 Q 277.50 1021.80 276.00 1023.00 L 281.00 1018.00 L 289.00 1013.00 L 293.00 1014.00 Q 290.70 1025.80 291.00 1024.00 L 291.00 1026.00 L 299.00 1026.00 L 300.00 1038.00 Q 302.90 1036.80 302.00 1038.00 L 306.00 1030.00 L 308.00 1024.00 L 311.00 1019.00 Q 316.35 1010.75 315.00 1013.00 L 320.00 1004.00 L 323.00 999.00 L 328.00 992.00 Q 332.30 983.60 332.00 986.00 L 330.00 976.00 L 330.00 970.00 Z"
          fill="rgb(15,112,28)"
          stroke="rgb(15,112,28)"
          stroke-width="0.5"
          inkstitch:object_type="fill"
          inkstitch:density_mm="0.4"
          inkstitch:angle="45"
          inkstitch:stitch_length_mm="2.5"
          inkstitch:color_sort_index="11"
          inkstitch:thread_color="#0f701c"/>

    <path id="region_11_2"
          d="M 641.00 330.00 L 644.00 336.00 L 646.00 341.00 L 649.00 346.00 Q 651.60 352.50 651.00 351.00 L 653.00 356.00 L 655.00 361.00 L 655.00 365.00 Q 663.80 368.15 662.00 368.00 L 667.00 366.00 L 672.00 364.00 L 674.00 351.00 Q 681.05 348.80 680.00 350.00 L 681.00 343.00 L 685.00 342.00 L 690.00 345.00 Q 694.35 349.05 693.00 348.00 L 699.00 352.00 L 703.00 356.00 L 710.00 352.00 Q 716.35 348.55 715.00 349.00 L 719.00 349.00 L 725.00 346.00 L 730.00 343.00 Q 732.40 338.10 733.00 339.00 L 726.00 337.00 L 721.00 337.00 L 714.00 335.00 Q 708.35 334.70 710.00 335.00 L 703.00 333.00 L 698.00 333.00 L 692.00 331.00 Q 685.20 330.70 687.00 331.00 L 680.00 329.00 L 676.00 329.00 L 670.00 327.00 Q 660.05 325.55 662.00 326.00 L 657.00 324.00 L 650.00 323.00 L 645.00 322.00 Q 644.55 328.20 645.00 327.00 L 642.00 330.00 Z"
          fill="rgb(15,112,28)"
          stroke="rgb(15,112,28)"
          stroke-width="0.5"
          inkstitch:object_type="fill"
          inkstitch:density_mm="0.4"
          inkstitch:angle="45"
          inkstitch:stitch_length_mm="2.5"
          inkstitch:color_sort_index="11"
          inkstitch:thread_color="#0f701c"/>

  </g>
</svg>