<?xml version="1.0" encoding="UTF-8"?>
<svg width="640" height="960" viewBox="0 0 640 960" 
     xmlns="http://www.w3.org/2000/svg"
     xmlns:inkscape="http://www.inkscape.org/namespaces/inkscape"
     xmlns:inkstitch="http://inkstitch.org/namespace">
  <title>High-Quality Vector Pattern</title>
  <defs>
    <style>
      .vector-path {
        stroke-width: 0.1;
        stroke-linejoin: round;
        stroke-linecap: round;
        fill-opacity: 1.0;
        stroke-opacity: 1.0;
        shape-rendering: geometricPrecision;
      }
    </style>
  </defs>
  <g inkscape:label="Vector Shapes" inkscape:groupmode="layer">
    <path id="vector-path-0" 
          d="M 132.0 666.0 Q 236.0 763.0 259.0 762.0 Q 313.0 773.0 393.0 709.0 Q 411.0 575.0 371.0 526.0 Q 329.0 506.0 296.0 480.0 Q 261.0 509.0 233.0 532.0 L 233.0 532.0 L 178.0 571.0 Z" 
          class="vector-path"
          style="fill: rgb(124,117,1); stroke: none; fill-rule: evenodd;"
          inkstitch:fill="1"
          inkstitch:color="#7c7501"
          inkstitch:angle="45"
          inkstitch:row_spacing_mm="0.4"
          inkstitch:end_row_spacing_mm="0.4"
          inkstitch:max_stitch_length_mm="3.0"
          inkstitch:staggers="3"
          inkstitch:skip_last="0"
          inkstitch:underpath="0" />
    <path id="vector-path-1" 
          d="M 245.0 272.0 Q 204.0 332.0 203.0 385.0 Q 212.0 401.0 220.0 419.0 Q 239.0 458.0 264.0 459.0 Q 275.0 438.0 282.0 435.0 Q 290.0 425.0 286.0 399.0 Q 269.0 376.0 258.0 355.0 Q 260.0 320.0 260.0 289.0 L 260.0 289.0 Z" 
          class="vector-path"
          style="fill: rgb(124,117,1); stroke: none; fill-rule: evenodd;"
          inkstitch:fill="1"
          inkstitch:color="#7c7501"
          inkstitch:angle="45"
          inkstitch:row_spacing_mm="0.4"
          inkstitch:end_row_spacing_mm="0.4"
          inkstitch:max_stitch_length_mm="3.0"
          inkstitch:staggers="3"
          inkstitch:skip_last="0"
          inkstitch:underpath="0" />
    <path id="vector-path-2" 
          d="M 370.0 407.0 Q 383.0 424.0 397.0 441.0 Q 411.0 459.0 420.0 469.0 Q 425.0 467.0 429.0 458.0 Q 431.0 449.0 434.0 436.0 Q 435.0 421.0 429.0 410.0 Q 411.0 405.0 385.0 404.0 L 385.0 404.0 Z" 
          class="vector-path"
          style="fill: rgb(225,173,93); stroke: none; fill-rule: evenodd;"
          inkstitch:fill="1"
          inkstitch:color="#e1ad5d"
          inkstitch:angle="105"
          inkstitch:row_spacing_mm="0.5"
          inkstitch:end_row_spacing_mm="0.5"
          inkstitch:max_stitch_length_mm="3.2"
          inkstitch:staggers="3"
          inkstitch:skip_last="0"
          inkstitch:underpath="0" />
    <path id="vector-path-3" 
          d="M 121.0 355.0 Q 104.0 385.0 116.0 369.0 Q 128.0 358.0 133.0 357.0 Q 137.0 356.0 144.0 369.0 Q 142.0 398.0 126.0 421.0 Q 112.0 429.0 115.0 436.0 Q 149.0 442.0 195.0 437.0 Q 206.0 424.0 197.0 414.0 Q 196.0 398.0 181.0 366.0 L 181.0 366.0 L 149.0 348.0 Z" 
          class="vector-path"
          style="fill: rgb(225,173,93); stroke: none; fill-rule: evenodd;"
          inkstitch:fill="1"
          inkstitch:color="#e1ad5d"
          inkstitch:angle="135"
          inkstitch:row_spacing_mm="0.5"
          inkstitch:end_row_spacing_mm="0.5"
          inkstitch:max_stitch_length_mm="3.2"
          inkstitch:staggers="3"
          inkstitch:skip_last="0"
          inkstitch:underpath="0" />
    <path id="vector-path-4" 
          d="M 356.0 803.0 Q 345.0 829.0 347.0 830.0 Q 350.0 832.0 352.0 835.0 Q 358.0 836.0 373.0 837.0 Q 394.0 835.0 404.0 829.0 Q 403.0 818.0 396.0 802.0 L 396.0 802.0 L 378.0 795.0 Z" 
          class="vector-path"
          style="fill: rgb(17,85,41); stroke: none; fill-rule: evenodd;"
          inkstitch:fill="1"
          inkstitch:color="#115529"
          inkstitch:angle="45"
          inkstitch:row_spacing_mm="0.4"
          inkstitch:end_row_spacing_mm="0.4"
          inkstitch:max_stitch_length_mm="3.0"
          inkstitch:staggers="3"
          inkstitch:skip_last="0"
          inkstitch:underpath="0" />
    <path id="vector-path-5" 
          d="M 263.0 778.0 Q 255.0 773.0 249.0 771.0 Q 235.0 771.0 211.0 777.0 Q 196.0 788.0 195.0 794.0 Q 197.0 798.0 199.0 808.0 Q 213.0 815.0 228.0 815.0 Q 234.0 818.0 238.0 823.0 Q 242.0 824.0 251.0 811.0 L 251.0 811.0 L 261.0 792.0 Z" 
          class="vector-path"
          style="fill: rgb(17,85,41); stroke: none; fill-rule: evenodd;"
          inkstitch:fill="1"
          inkstitch:color="#115529"
          inkstitch:angle="45"
          inkstitch:row_spacing_mm="0.4"
          inkstitch:end_row_spacing_mm="0.4"
          inkstitch:max_stitch_length_mm="3.0"
          inkstitch:staggers="3"
          inkstitch:skip_last="0"
          inkstitch:underpath="0" />
    <path id="vector-path-6" 
          d="M 518.0 271.0 Q 535.0 288.0 548.0 281.0 Q 565.0 279.0 565.0 272.0 L 565.0 272.0 L 535.0 263.0 Z" 
          class="vector-path"
          style="fill: rgb(17,85,41); stroke: none; fill-rule: evenodd;"
          inkstitch:fill="1"
          inkstitch:color="#115529"
          inkstitch:angle="45"
          inkstitch:row_spacing_mm="0.4"
          inkstitch:end_row_spacing_mm="0.4"
          inkstitch:max_stitch_length_mm="3.0"
          inkstitch:staggers="3"
          inkstitch:skip_last="0"
          inkstitch:underpath="0" />
    <path id="vector-path-7" 
          d="M 269.0 46.0 Q 279.0 131.0 222.0 199.0 Q 166.0 275.0 151.0 323.0 Q 137.0 379.0 118.0 454.0 Q 98.0 539.0 81.0 625.0 Q 101.0 699.0 149.0 784.0 Q 181.0 880.0 211.0 913.0 Q 256.0 858.0 310.0 842.0 Q 364.0 911.0 419.0 945.0 Q 434.0 918.0 409.0 871.0 Q 413.0 817.0 437.0 699.0 Q 427.0 507.0 449.0 371.0 Q 511.0 283.0 465.0 166.0 Q 357.0 64.0 290.0 29.0 L 290.0 29.0 Z" 
          class="vector-path"
          style="fill: rgb(23,21,9); stroke: none; fill-rule: evenodd;"
          inkstitch:fill="1"
          inkstitch:color="#171509"
          inkstitch:angle="45"
          inkstitch:row_spacing_mm="0.4"
          inkstitch:end_row_spacing_mm="0.4"
          inkstitch:max_stitch_length_mm="3.0"
          inkstitch:staggers="3"
          inkstitch:skip_last="0"
          inkstitch:underpath="0" />
    <path id="vector-path-8" 
          d="M 377.0 414.0 Q 411.0 459.0 422.0 467.0 Q 428.0 462.0 430.0 452.0 Q 433.0 441.0 435.0 428.0 Q 432.0 414.0 426.0 406.0 Q 409.0 404.0 385.0 404.0 L 385.0 404.0 Z" 
          class="vector-path"
          style="fill: rgb(242,196,168); stroke: none; fill-rule: evenodd;"
          inkstitch:fill="1"
          inkstitch:color="#f2c4a8"
          inkstitch:angle="135"
          inkstitch:row_spacing_mm="0.6"
          inkstitch:end_row_spacing_mm="0.6"
          inkstitch:max_stitch_length_mm="3.5"
          inkstitch:staggers="3"
          inkstitch:skip_last="0"
          inkstitch:underpath="0" />
    <path id="vector-path-9" 
          d="M 121.0 359.0 Q 104.0 393.0 112.0 378.0 Q 116.0 375.0 111.0 398.0 Q 108.0 423.0 117.0 438.0 Q 150.0 443.0 195.0 438.0 Q 207.0 424.0 197.0 414.0 Q 196.0 398.0 182.0 366.0 L 182.0 366.0 L 151.0 348.0 Z" 
          class="vector-path"
          style="fill: rgb(242,196,168); stroke: none; fill-rule: evenodd;"
          inkstitch:fill="1"
          inkstitch:color="#f2c4a8"
          inkstitch:angle="135"
          inkstitch:row_spacing_mm="0.6"
          inkstitch:end_row_spacing_mm="0.6"
          inkstitch:max_stitch_length_mm="3.5"
          inkstitch:staggers="3"
          inkstitch:skip_last="0"
          inkstitch:underpath="0" />
    <path id="vector-path-10" 
          d="M 474.0 291.0 Q 456.0 292.0 447.0 311.0 Q 440.0 325.0 435.0 331.0 Q 434.0 322.0 424.0 304.0 Q 412.0 281.0 403.0 263.0 Q 381.0 270.0 358.0 292.0 Q 335.0 305.0 310.0 295.0 Q 290.0 280.0 274.0 288.0 Q 275.0 326.0 313.0 367.0 Q 370.0 387.0 418.0 380.0 Q 452.0 354.0 472.0 320.0 L 472.0 320.0 Z" 
          class="vector-path"
          style="fill: rgb(242,196,168); stroke: none; fill-rule: evenodd;"
          inkstitch:fill="1"
          inkstitch:color="#f2c4a8"
          inkstitch:angle="135"
          inkstitch:row_spacing_mm="0.6"
          inkstitch:end_row_spacing_mm="0.6"
          inkstitch:max_stitch_length_mm="3.5"
          inkstitch:staggers="3"
          inkstitch:skip_last="0"
          inkstitch:underpath="0" />
    <path id="vector-path-11" 
          d="M 186.0 259.0 Q 280.0 238.0 384.0 247.0 Q 494.0 244.0 475.0 185.0 Q 395.0 92.0 338.0 40.0 Q 313.0 75.0 315.0 142.0 Q 306.0 161.0 281.0 162.0 L 281.0 162.0 L 228.0 208.0 Z" 
          class="vector-path"
          style="fill: rgb(70,139,76); stroke: none; fill-rule: evenodd;"
          inkstitch:fill="1"
          inkstitch:color="#468b4c"
          inkstitch:angle="195"
          inkstitch:row_spacing_mm="0.5"
          inkstitch:end_row_spacing_mm="0.5"
          inkstitch:max_stitch_length_mm="3.2"
          inkstitch:staggers="3"
          inkstitch:skip_last="0"
          inkstitch:underpath="0" />
    <path id="vector-path-12" 
          d="M 183.0 280.0 Q 199.0 288.0 209.0 289.0 Q 213.0 286.0 210.0 284.0 Q 200.0 282.0 189.0 280.0 L 189.0 280.0 Z" 
          class="vector-path"
          style="fill: rgb(215,100,0); stroke: none; fill-rule: evenodd;"
          inkstitch:fill="1"
          inkstitch:color="#d76400"
          inkstitch:angle="45"
          inkstitch:row_spacing_mm="0.5"
          inkstitch:end_row_spacing_mm="0.5"
          inkstitch:max_stitch_length_mm="3.2"
          inkstitch:staggers="3"
          inkstitch:skip_last="0"
          inkstitch:underpath="0" />
    <path id="vector-path-13" 
          d="M 485.0 266.0 Q 489.0 275.0 489.0 271.0 Q 493.0 273.0 500.0 280.0 Q 502.0 279.0 498.0 270.0 L 498.0 270.0 L 491.0 264.0 Z" 
          class="vector-path"
          style="fill: rgb(215,100,0); stroke: none; fill-rule: evenodd;"
          inkstitch:fill="1"
          inkstitch:color="#d76400"
          inkstitch:angle="75"
          inkstitch:row_spacing_mm="0.5"
          inkstitch:end_row_spacing_mm="0.5"
          inkstitch:max_stitch_length_mm="3.2"
          inkstitch:staggers="3"
          inkstitch:skip_last="0"
          inkstitch:underpath="0" />
    <path id="vector-path-14" 
          d="M 230.0 12.0 Q 272.0 56.0 280.0 65.0 Q 282.0 70.0 286.0 79.0 Q 287.0 88.0 287.0 96.0 Q 294.0 107.0 300.0 117.0 Q 302.0 113.0 297.0 86.0 Q 274.0 46.0 242.0 13.0 L 242.0 13.0 Z" 
          class="vector-path"
          style="fill: rgb(215,100,0); stroke: none; fill-rule: evenodd;"
          inkstitch:fill="1"
          inkstitch:color="#d76400"
          inkstitch:angle="105"
          inkstitch:row_spacing_mm="0.5"
          inkstitch:end_row_spacing_mm="0.5"
          inkstitch:max_stitch_length_mm="3.2"
          inkstitch:staggers="3"
          inkstitch:skip_last="0"
          inkstitch:underpath="0" />
    <path id="vector-path-15" 
          d="M 153.0 879.0 Q 150.0 906.0 155.0 906.0 Q 160.0 900.0 167.0 899.0 Q 173.0 908.0 176.0 920.0 Q 180.0 929.0 181.0 929.0 Q 179.0 919.0 180.0 911.0 Q 182.0 905.0 178.0 892.0 Q 169.0 879.0 160.0 874.0 L 160.0 874.0 Z" 
          class="vector-path"
          style="fill: rgb(105,45,16); stroke: none; fill-rule: evenodd;"
          inkstitch:fill="1"
          inkstitch:color="#692d10"
          inkstitch:angle="45"
          inkstitch:row_spacing_mm="0.4"
          inkstitch:end_row_spacing_mm="0.4"
          inkstitch:max_stitch_length_mm="3.0"
          inkstitch:staggers="3"
          inkstitch:skip_last="0"
          inkstitch:underpath="0" />
    <path id="vector-path-16" 
          d="M 170.0 767.0 Q 176.0 771.0 180.0 770.0 Q 186.0 768.0 193.0 767.0 Q 197.0 768.0 193.0 764.0 L 193.0 764.0 L 178.0 761.0 Z" 
          class="vector-path"
          style="fill: rgb(105,45,16); stroke: none; fill-rule: evenodd;"
          inkstitch:fill="1"
          inkstitch:color="#692d10"
          inkstitch:angle="45"
          inkstitch:row_spacing_mm="0.4"
          inkstitch:end_row_spacing_mm="0.4"
          inkstitch:max_stitch_length_mm="3.0"
          inkstitch:staggers="3"
          inkstitch:skip_last="0"
          inkstitch:underpath="0" />
    <path id="vector-path-17" 
          d="M 92.0 711.0 Q 95.0 726.0 107.0 733.0 Q 117.0 737.0 123.0 743.0 Q 132.0 748.0 141.0 743.0 Q 132.0 730.0 107.0 716.0 L 107.0 716.0 Z" 
          class="vector-path"
          style="fill: rgb(105,45,16); stroke: none; fill-rule: evenodd;"
          inkstitch:fill="1"
          inkstitch:color="#692d10"
          inkstitch:angle="45"
          inkstitch:row_spacing_mm="0.4"
          inkstitch:end_row_spacing_mm="0.4"
          inkstitch:max_stitch_length_mm="3.0"
          inkstitch:staggers="3"
          inkstitch:skip_last="0"
          inkstitch:underpath="0" />
    <path id="vector-path-18" 
          d="M 420.0 267.0 Q 418.0 286.0 423.0 295.0 Q 431.0 296.0 437.0 290.0 Q 439.0 284.0 440.0 280.0 Q 438.0 274.0 433.0 267.0 L 433.0 267.0 L 426.0 264.0 Z" 
          class="vector-path"
          style="fill: rgb(105,45,16); stroke: none; fill-rule: evenodd;"
          inkstitch:fill="1"
          inkstitch:color="#692d10"
          inkstitch:angle="45"
          inkstitch:row_spacing_mm="0.4"
          inkstitch:end_row_spacing_mm="0.4"
          inkstitch:max_stitch_length_mm="3.0"
          inkstitch:staggers="3"
          inkstitch:skip_last="0"
          inkstitch:underpath="0" />
    <path id="vector-path-19" 
          d="M 309.0 262.0 Q 301.0 281.0 309.0 293.0 Q 320.0 295.0 329.0 291.0 Q 334.0 283.0 335.0 276.0 Q 331.0 268.0 321.0 262.0 L 321.0 262.0 Z" 
          class="vector-path"
          style="fill: rgb(105,45,16); stroke: none; fill-rule: evenodd;"
          inkstitch:fill="1"
          inkstitch:color="#692d10"
          inkstitch:angle="45"
          inkstitch:row_spacing_mm="0.4"
          inkstitch:end_row_spacing_mm="0.4"
          inkstitch:max_stitch_length_mm="3.0"
          inkstitch:staggers="3"
          inkstitch:skip_last="0"
          inkstitch:underpath="0" />
    <path id="vector-path-20" 
          d="M 356.0 852.0 Q 347.0 909.0 367.0 928.0 Q 402.0 941.0 434.0 944.0 Q 448.0 931.0 442.0 915.0 Q 426.0 909.0 407.0 914.0 Q 392.0 920.0 387.0 917.0 Q 383.0 907.0 376.0 900.0 Q 375.0 894.0 381.0 888.0 Q 380.0 883.0 372.0 878.0 Q 371.0 872.0 379.0 865.0 Q 379.0 858.0 373.0 851.0 Q 369.0 846.0 363.0 844.0 L 363.0 844.0 Z" 
          class="vector-path"
          style="fill: rgb(149,81,33); stroke: none; fill-rule: evenodd;"
          inkstitch:fill="1"
          inkstitch:color="#955121"
          inkstitch:angle="105"
          inkstitch:row_spacing_mm="0.5"
          inkstitch:end_row_spacing_mm="0.5"
          inkstitch:max_stitch_length_mm="3.2"
          inkstitch:staggers="3"
          inkstitch:skip_last="0"
          inkstitch:underpath="0" />
    <path id="vector-path-21" 
          d="M 191.0 832.0 Q 176.0 896.0 191.0 923.0 Q 212.0 940.0 233.0 941.0 Q 240.0 926.0 230.0 909.0 Q 214.0 901.0 200.0 901.0 Q 194.0 898.0 199.0 891.0 Q 207.0 885.0 205.0 881.0 Q 197.0 879.0 192.0 875.0 Q 198.0 868.0 205.0 860.0 Q 204.0 849.0 207.0 843.0 Q 214.0 841.0 212.0 834.0 L 212.0 834.0 L 206.0 825.0 Z" 
          class="vector-path"
          style="fill: rgb(149,81,33); stroke: none; fill-rule: evenodd;"
          inkstitch:fill="1"
          inkstitch:color="#955121"
          inkstitch:angle="135"
          inkstitch:row_spacing_mm="0.5"
          inkstitch:end_row_spacing_mm="0.5"
          inkstitch:max_stitch_length_mm="3.2"
          inkstitch:staggers="3"
          inkstitch:skip_last="0"
          inkstitch:underpath="0" />
    <path id="vector-path-22" 
          d="M 216.0 473.0 Q 194.0 459.0 164.0 456.0 Q 125.0 478.0 93.0 512.0 Q 75.0 548.0 73.0 581.0 Q 82.0 608.0 119.0 601.0 Q 174.0 557.0 207.0 521.0 L 207.0 521.0 L 220.0 494.0 Z" 
          class="vector-path"
          style="fill: rgb(149,81,33); stroke: none; fill-rule: evenodd;"
          inkstitch:fill="1"
          inkstitch:color="#955121"
          inkstitch:angle="165"
          inkstitch:row_spacing_mm="0.5"
          inkstitch:end_row_spacing_mm="0.5"
          inkstitch:max_stitch_length_mm="3.2"
          inkstitch:staggers="3"
          inkstitch:skip_last="0"
          inkstitch:underpath="0" />
    <path id="vector-path-23" 
          d="M 301.0 395.0 Q 291.0 426.0 280.0 459.0 Q 265.0 482.0 249.0 496.0 Q 235.0 503.0 221.0 512.0 Q 222.0 519.0 253.0 507.0 Q 288.0 477.0 306.0 448.0 Q 313.0 425.0 310.0 407.0 L 310.0 407.0 Z" 
          class="vector-path"
          style="fill: rgb(149,81,33); stroke: none; fill-rule: evenodd;"
          inkstitch:fill="1"
          inkstitch:color="#955121"
          inkstitch:angle="195"
          inkstitch:row_spacing_mm="0.5"
          inkstitch:end_row_spacing_mm="0.5"
          inkstitch:max_stitch_length_mm="3.2"
          inkstitch:staggers="3"
          inkstitch:skip_last="0"
          inkstitch:underpath="0" />
    <path id="vector-path-24" 
          d="M 338.0 489.0 Q 327.0 524.0 332.0 529.0 Q 344.0 530.0 363.0 532.0 Q 380.0 533.0 386.0 529.0 Q 378.0 525.0 362.0 523.0 Q 351.0 518.0 348.0 506.0 L 348.0 506.0 L 345.0 489.0 Z" 
          class="vector-path"
          style="fill: rgb(249,231,3); stroke: none; fill-rule: evenodd;"
          inkstitch:fill="1"
          inkstitch:color="#f9e703"
          inkstitch:angle="45"
          inkstitch:row_spacing_mm="0.5"
          inkstitch:end_row_spacing_mm="0.5"
          inkstitch:max_stitch_length_mm="3.2"
          inkstitch:staggers="3"
          inkstitch:skip_last="0"
          inkstitch:underpath="0" />
    <path id="vector-path-25" 
          d="M 361.0 411.0 Q 391.0 473.0 394.0 473.0 Q 379.0 427.0 367.0 413.0 L 367.0 413.0 Z" 
          class="vector-path"
          style="fill: rgb(249,231,3); stroke: none; fill-rule: evenodd;"
          inkstitch:fill="1"
          inkstitch:color="#f9e703"
          inkstitch:angle="75"
          inkstitch:row_spacing_mm="0.5"
          inkstitch:end_row_spacing_mm="0.5"
          inkstitch:max_stitch_length_mm="3.2"
          inkstitch:staggers="3"
          inkstitch:skip_last="0"
          inkstitch:underpath="0" />
    <path id="vector-path-26" 
          d="M 345.0 417.0 Q 338.0 447.0 336.0 467.0 Q 348.0 470.0 359.0 462.0 Q 359.0 480.0 356.0 506.0 Q 367.0 519.0 384.0 509.0 Q 386.0 486.0 382.0 478.0 Q 376.0 469.0 365.0 441.0 L 365.0 441.0 L 353.0 418.0 Z" 
          class="vector-path"
          style="fill: rgb(249,231,3); stroke: none; fill-rule: evenodd;"
          inkstitch:fill="1"
          inkstitch:color="#f9e703"
          inkstitch:angle="105"
          inkstitch:row_spacing_mm="0.5"
          inkstitch:end_row_spacing_mm="0.5"
          inkstitch:max_stitch_length_mm="3.2"
          inkstitch:staggers="3"
          inkstitch:skip_last="0"
          inkstitch:underpath="0" />
    <path id="vector-path-27" 
          d="M 315.0 398.0 Q 331.0 426.0 335.0 423.0 Q 333.0 410.0 324.0 397.0 L 324.0 397.0 L 316.0 392.0 Z" 
          class="vector-path"
          style="fill: rgb(249,231,3); stroke: none; fill-rule: evenodd;"
          inkstitch:fill="1"
          inkstitch:color="#f9e703"
          inkstitch:angle="135"
          inkstitch:row_spacing_mm="0.5"
          inkstitch:end_row_spacing_mm="0.5"
          inkstitch:max_stitch_length_mm="3.2"
          inkstitch:staggers="3"
          inkstitch:skip_last="0"
          inkstitch:underpath="0" />
    <path id="vector-path-28" 
          d="M 444.0 50.0 Q 540.0 260.0 494.0 322.0 Q 426.0 380.0 429.0 506.0 Q 437.0 700.0 414.0 817.0 Q 410.0 870.0 435.0 917.0 Q 496.0 946.0 590.0 718.0 L 590.0 718.0 L 563.0 240.0 Z" 
          class="vector-path"
          style="fill: rgb(246,240,228); stroke: none; fill-rule: evenodd;"
          inkstitch:fill="1"
          inkstitch:color="#f6f0e4"
          inkstitch:angle="135"
          inkstitch:row_spacing_mm="0.6"
          inkstitch:end_row_spacing_mm="0.6"
          inkstitch:max_stitch_length_mm="3.5"
          inkstitch:staggers="3"
          inkstitch:skip_last="0"
          inkstitch:underpath="0" />
    <path id="vector-path-29" 
          d="M 55.0 241.0 Q 140.0 942.0 172.0 882.0 Q 146.0 784.0 99.0 698.0 Q 79.0 624.0 97.0 539.0 Q 118.0 469.0 114.0 426.0 Q 125.0 376.0 149.0 324.0 Q 164.0 275.0 222.0 203.0 Q 267.0 128.0 266.0 90.0 Q 256.0 61.0 178.0 21.0 L 178.0 21.0 Z" 
          class="vector-path"
          style="fill: rgb(246,240,228); stroke: none; fill-rule: evenodd;"
          inkstitch:fill="1"
          inkstitch:color="#f6f0e4"
          inkstitch:angle="135"
          inkstitch:row_spacing_mm="0.6"
          inkstitch:end_row_spacing_mm="0.6"
          inkstitch:max_stitch_length_mm="3.5"
          inkstitch:staggers="3"
          inkstitch:skip_last="0"
          inkstitch:underpath="0" />
  </g>
</svg>