<?xml version="1.0" encoding="UTF-8"?>
<svg width="640" height="960" viewBox="0 0 640 960" 
     xmlns="http://www.w3.org/2000/svg"
     xmlns:inkscape="http://www.inkscape.org/namespaces/inkscape"
     xmlns:inkstitch="http://inkstitch.org/namespace">
  <title>High-Quality Vector Pattern</title>
  <defs>
    <style>
      .vector-path {
        stroke-width: 0.1;
        stroke-linejoin: round;
        stroke-linecap: round;
        fill-opacity: 1.0;
        stroke-opacity: 1.0;
        shape-rendering: geometricPrecision;
      }
    </style>
  </defs>
  <g inkscape:label="Vector Shapes" inkscape:groupmode="layer">
    <path id="vector-path-0" 
          d="M 330.0 804.0 Q 269.0 803.0 247.0 824.0 Q 234.0 838.0 225.0 853.0 Q 218.0 877.0 221.0 894.0 Q 234.0 905.0 244.0 925.0 Q 269.0 946.0 312.0 944.0 Q 336.0 911.0 344.0 870.0 Q 345.0 847.0 341.0 828.0 L 341.0 828.0 Z" 
          class="vector-path"
          style="fill: rgb(255,255,255); stroke: none; fill-rule: evenodd;"
          inkstitch:fill="1"
          inkstitch:color="#ffffff"
          inkstitch:angle="135"
          inkstitch:row_spacing_mm="0.6"
          inkstitch:end_row_spacing_mm="0.6"
          inkstitch:max_stitch_length_mm="3.5"
          inkstitch:staggers="3"
          inkstitch:skip_last="0"
          inkstitch:underpath="0" />
    <path id="vector-path-1" 
          d="M 275.0 363.0 Q 282.0 379.0 291.0 384.0 Q 298.0 383.0 295.0 375.0 L 295.0 375.0 L 283.0 365.0 Z" 
          class="vector-path"
          style="fill: rgb(255,255,255); stroke: none; fill-rule: evenodd;"
          inkstitch:fill="1"
          inkstitch:color="#ffffff"
          inkstitch:angle="135"
          inkstitch:row_spacing_mm="0.6"
          inkstitch:end_row_spacing_mm="0.6"
          inkstitch:max_stitch_length_mm="3.5"
          inkstitch:staggers="3"
          inkstitch:skip_last="0"
          inkstitch:underpath="0" />
    <path id="vector-path-2" 
          d="M 455.0 279.0 Q 444.0 287.0 441.0 296.0 Q 442.0 302.0 447.0 302.0 Q 455.0 296.0 459.0 288.0 L 459.0 288.0 L 459.0 282.0 Z" 
          class="vector-path"
          style="fill: rgb(255,255,255); stroke: none; fill-rule: evenodd;"
          inkstitch:fill="1"
          inkstitch:color="#ffffff"
          inkstitch:angle="135"
          inkstitch:row_spacing_mm="0.6"
          inkstitch:end_row_spacing_mm="0.6"
          inkstitch:max_stitch_length_mm="3.5"
          inkstitch:staggers="3"
          inkstitch:skip_last="0"
          inkstitch:underpath="0" />
    <path id="vector-path-3" 
          d="M 357.0 264.0 Q 339.0 270.0 337.0 284.0 Q 333.0 296.0 335.0 302.0 Q 347.0 300.0 358.0 291.0 L 358.0 291.0 L 364.0 277.0 Z" 
          class="vector-path"
          style="fill: rgb(255,255,255); stroke: none; fill-rule: evenodd;"
          inkstitch:fill="1"
          inkstitch:color="#ffffff"
          inkstitch:angle="135"
          inkstitch:row_spacing_mm="0.6"
          inkstitch:end_row_spacing_mm="0.6"
          inkstitch:max_stitch_length_mm="3.5"
          inkstitch:staggers="3"
          inkstitch:skip_last="0"
          inkstitch:underpath="0" />
    <path id="vector-path-4" 
          d="M 444.0 51.0 Q 516.0 277.0 464.0 366.0 Q 435.0 503.0 439.0 697.0 Q 416.0 817.0 411.0 871.0 Q 437.0 917.0 498.0 943.0 Q 588.0 716.0 561.0 242.0 L 561.0 242.0 Z" 
          class="vector-path"
          style="fill: rgb(255,255,255); stroke: none; fill-rule: evenodd;"
          inkstitch:fill="1"
          inkstitch:color="#ffffff"
          inkstitch:angle="135"
          inkstitch:row_spacing_mm="0.6"
          inkstitch:end_row_spacing_mm="0.6"
          inkstitch:max_stitch_length_mm="3.5"
          inkstitch:staggers="3"
          inkstitch:skip_last="0"
          inkstitch:underpath="0" />
    <path id="vector-path-5" 
          d="M 251.0 6.0 L 292.0 53.0 L 299.0 52.0 L 319.0 9.0 L 318.0 5.0 Z" 
          class="vector-path"
          style="fill: rgb(255,255,255); stroke: none; fill-rule: evenodd;"
          inkstitch:fill="1"
          inkstitch:color="#ffffff"
          inkstitch:angle="135"
          inkstitch:row_spacing_mm="0.6"
          inkstitch:end_row_spacing_mm="0.6"
          inkstitch:max_stitch_length_mm="3.5"
          inkstitch:staggers="3"
          inkstitch:skip_last="0"
          inkstitch:underpath="0" />
    <path id="vector-path-6" 
          d="M 58.0 242.0 Q 135.0 941.0 169.0 884.0 Q 147.0 787.0 100.0 701.0 Q 78.0 629.0 93.0 546.0 Q 113.0 473.0 114.0 422.0 Q 127.0 368.0 153.0 320.0 Q 171.0 272.0 225.0 200.0 Q 257.0 107.0 180.0 31.0 L 180.0 31.0 Z" 
          class="vector-path"
          style="fill: rgb(255,255,255); stroke: none; fill-rule: evenodd;"
          inkstitch:fill="1"
          inkstitch:color="#ffffff"
          inkstitch:angle="135"
          inkstitch:row_spacing_mm="0.6"
          inkstitch:end_row_spacing_mm="0.6"
          inkstitch:max_stitch_length_mm="3.5"
          inkstitch:staggers="3"
          inkstitch:skip_last="0"
          inkstitch:underpath="0" />
  </g>
</svg>