<?xml version="1.0" encoding="UTF-8"?>
<svg width="1200" height="1800" 
     viewBox="0 0 1200 1800"
     xmlns="http://www.w3.org/2000/svg"
     xmlns:inkscape="http://www.inkscape.org/namespaces/inkscape"
     xmlns:inkstitch="http://inkstitch.org/namespace">
  
  <defs>
    <!-- Definicje wzorów haftu -->
    <pattern id="satin-pattern" patternUnits="userSpaceOnUse" width="2" height="2">
      <rect width="2" height="2" fill="none"/>
      <line x1="0" y1="0" x2="2" y2="2" stroke="#000" stroke-width="0.1"/>
    </pattern>
  </defs>
  
  <g inkscape:label="Embroidery Design" inkscape:groupmode="layer">

    <path id="region_0_0"
          d="M 731.00 1796.00 L 707.00 1774.00 L 681.00 1793.00 L 668.00 1796.00 L 731.00 1799.00 Z"
          fill="rgb(254,254,254)"
          stroke="rgb(254,254,254)"
          stroke-width="0.5"
          inkstitch:object_type="fill"
          inkstitch:density_mm="0.35"
          inkstitch:angle="30"
          inkstitch:stitch_length_mm="2.8"
          inkstitch:color_sort_index="0"
          inkstitch:thread_color="#fefefe"/>

    <path id="region_0_1"
          d="M 642.00 1481.00 L 620.00 1479.00 L 579.00 1489.00 L 561.00 1489.00 L 552.00 1494.00 L 504.00 1480.00 L 451.00 1573.00 L 444.00 1564.00 L 435.00 1568.00 L 422.00 1586.00 L 419.00 1599.00 L 408.00 1612.00 L 405.00 1639.00 L 401.00 1646.00 L 401.00 1660.00 L 410.00 1682.00 L 424.00 1686.00 L 440.00 1696.00 L 460.00 1719.00 L 469.00 1740.00 L 467.00 1759.00 L 445.00 1796.00 L 662.00 1799.00 L 646.00 1794.00 L 636.00 1786.00 L 622.00 1737.00 L 623.00 1714.00 L 647.00 1655.00 L 658.00 1602.00 L 658.00 1583.00 L 647.00 1582.00 L 648.00 1570.00 L 632.00 1581.00 L 648.00 1486.00 Z"
          fill="rgb(254,254,254)"
          stroke="rgb(254,254,254)"
          stroke-width="0.5"
          inkstitch:object_type="fill"
          inkstitch:density_mm="0.35"
          inkstitch:angle="30"
          inkstitch:stitch_length_mm="2.8"
          inkstitch:color_sort_index="0"
          inkstitch:thread_color="#fefefe"/>

    <path id="region_0_2"
          d="M 495.00 649.00 L 495.00 655.00 L 498.00 660.00 L 501.00 666.00 Q 503.60 672.50 503.00 671.00 L 505.00 676.00 L 508.00 682.00 L 510.00 687.00 Q 514.90 694.65 514.00 693.00 L 516.00 698.00 L 519.00 703.00 L 522.00 709.00 Q 526.05 715.65 525.00 714.00 L 529.00 720.00 L 534.00 722.00 L 544.00 723.00 Q 553.80 725.30 552.00 725.00 L 556.00 725.00 L 561.00 727.00 L 567.00 729.00 Q 578.25 730.70 576.00 731.00 L 582.00 727.00 L 584.00 721.00 L 578.00 717.00 Q 570.05 711.65 572.00 713.00 L 565.00 708.00 L 559.00 705.00 L 553.00 700.00 Q 540.00 687.15 546.00 693.00 L 513.00 661.00 L 507.00 653.00 L 503.00 649.00 Z"
          fill="rgb(254,254,254)"
          stroke="rgb(254,254,254)"
          stroke-width="0.5"
          inkstitch:object_type="fill"
          inkstitch:density_mm="0.35"
          inkstitch:angle="30"
          inkstitch:stitch_length_mm="2.8"
          inkstitch:color_sort_index="0"
          inkstitch:thread_color="#fefefe"/>

    <path id="region_0_3"
          d="M 833.00 498.00 L 829.00 498.00 L 829.00 504.00 L 831.00 510.00 Q 833.60 520.85 833.00 518.00 L 835.00 529.00 L 833.00 535.00 L 832.00 542.00 Q 829.25 548.65 830.00 547.00 L 827.00 553.00 L 822.00 560.00 L 816.00 566.00 Q 813.60 573.20 813.00 572.00 L 820.00 574.00 L 829.00 575.00 L 835.00 573.00 Q 842.65 570.25 841.00 571.00 L 846.00 568.00 L 852.00 565.00 L 858.00 559.00 Q 860.90 552.20 860.00 554.00 L 864.00 547.00 L 864.00 542.00 L 865.00 529.00 Q 862.40 520.20 863.00 522.00 L 861.00 517.00 L 859.00 512.00 L 859.00 511.00 Q 854.40 511.90 855.00 511.00 L 855.00 517.00 L 856.00 526.00 L 853.00 530.00 Q 849.10 521.90 850.00 524.00 L 847.00 516.00 L 846.00 510.00 L 843.00 505.00 Q 838.80 501.10 840.00 502.00 L 835.00 499.00 Z"
          fill="rgb(254,254,254)"
          stroke="rgb(254,254,254)"
          stroke-width="0.5"
          inkstitch:object_type="fill"
          inkstitch:density_mm="0.35"
          inkstitch:angle="30"
          inkstitch:stitch_length_mm="2.8"
          inkstitch:color_sort_index="0"
          inkstitch:thread_color="#fefefe"/>

    <path id="region_0_4"
          d="M 618.00 480.00 L 617.00 485.00 L 622.00 488.00 L 629.00 495.00 Q 632.75 501.65 632.00 500.00 L 634.00 506.00 L 636.00 512.00 L 637.00 529.00 Q 631.80 540.55 633.00 538.00 L 629.00 546.00 L 624.00 553.00 L 616.00 559.00 Q 611.50 562.90 613.00 562.00 L 606.00 565.00 L 605.00 571.00 L 612.00 573.00 Q 640.65 572.70 636.00 573.00 L 643.00 571.00 L 647.00 571.00 L 653.00 568.00 Q 659.80 565.25 658.00 566.00 L 665.00 563.00 L 668.00 560.00 L 676.00 553.00 Q 681.05 543.90 680.00 546.00 L 683.00 539.00 L 687.00 532.00 L 688.00 525.00 Q 690.30 514.15 690.00 517.00 L 690.00 506.00 L 688.00 499.00 L 688.00 495.00 Q 681.50 485.35 683.00 487.00 L 678.00 484.00 L 667.00 483.00 L 652.00 481.00 L 639.00 481.00 Z"
          fill="rgb(254,254,254)"
          stroke="rgb(254,254,254)"
          stroke-width="0.5"
          inkstitch:object_type="fill"
          inkstitch:density_mm="0.35"
          inkstitch:angle="30"
          inkstitch:stitch_length_mm="2.8"
          inkstitch:color_sort_index="0"
          inkstitch:thread_color="#fefefe"/>

    <path id="region_0_5"
          d="M 540.00 429.00 L 533.00 433.00 L 523.00 460.00 L 533.00 462.00 L 539.00 456.00 L 543.00 431.00 Z"
          fill="rgb(254,254,254)"
          stroke="rgb(254,254,254)"
          stroke-width="0.5"
          inkstitch:object_type="fill"
          inkstitch:density_mm="0.35"
          inkstitch:angle="30"
          inkstitch:stitch_length_mm="2.8"
          inkstitch:color_sort_index="0"
          inkstitch:thread_color="#fefefe"/>

    <path id="region_0_6"
          d="M 631.00 0.00 L 662.00 42.00 L 705.00 73.00 L 756.00 152.00 L 830.00 321.00 L 858.00 364.00 L 1079.00 466.00 L 1136.00 510.00 L 1058.00 543.00 L 1029.00 527.00 L 1029.00 547.00 L 1017.00 543.00 L 988.00 561.00 L 984.00 574.00 L 969.00 566.00 L 965.00 577.00 L 954.00 572.00 L 918.00 583.00 L 877.00 654.00 L 827.00 705.00 L 768.00 734.00 L 681.00 748.00 L 797.00 753.00 L 816.00 764.00 L 824.00 785.00 L 815.00 861.00 L 795.00 892.00 L 814.00 925.00 L 799.00 1041.00 L 842.00 1306.00 L 849.00 1480.00 L 835.00 1491.00 L 765.00 1489.00 L 763.00 1578.00 L 734.00 1581.00 L 729.00 1669.00 L 741.00 1695.00 L 761.00 1705.00 L 818.00 1697.00 L 850.00 1714.00 L 856.00 1750.00 L 833.00 1799.00 L 1199.00 1799.00 L 1199.00 0.00 Z"
          fill="rgb(254,254,254)"
          stroke="rgb(254,254,254)"
          stroke-width="0.5"
          inkstitch:object_type="fill"
          inkstitch:density_mm="0.35"
          inkstitch:angle="30"
          inkstitch:stitch_length_mm="2.8"
          inkstitch:color_sort_index="0"
          inkstitch:thread_color="#fefefe"/>

    <path id="region_0_7"
          d="M 448.00 0.00 L 518.00 63.00 L 552.00 111.00 L 560.00 107.00 L 603.00 13.00 L 613.00 3.00 Z"
          fill="rgb(254,254,254)"
          stroke="rgb(254,254,254)"
          stroke-width="0.5"
          inkstitch:object_type="fill"
          inkstitch:density_mm="0.35"
          inkstitch:angle="30"
          inkstitch:stitch_length_mm="2.8"
          inkstitch:color_sort_index="0"
          inkstitch:thread_color="#fefefe"/>

    <path id="region_0_8"
          d="M 0.00 0.00 L 0.00 1799.00 L 409.00 1799.00 L 344.00 1765.00 L 321.00 1723.00 L 289.00 1722.00 L 267.00 1687.00 L 287.00 1624.00 L 369.00 1530.00 L 351.00 1517.00 L 355.00 1507.00 L 332.00 1510.00 L 375.00 1450.00 L 309.00 1455.00 L 316.00 1405.00 L 288.00 1396.00 L 246.00 1419.00 L 217.00 1392.00 L 159.00 1367.00 L 100.00 1298.00 L 187.00 1194.00 L 152.00 1157.00 L 130.00 1115.00 L 126.00 1062.00 L 137.00 997.00 L 192.00 923.00 L 280.00 851.00 L 276.00 843.00 L 205.00 828.00 L 194.00 771.00 L 178.00 752.00 L 187.00 707.00 L 212.00 661.00 L 238.00 639.00 L 275.00 637.00 L 355.00 654.00 L 356.00 619.00 L 371.00 590.00 L 357.00 577.00 L 320.00 575.00 L 325.00 551.00 L 291.00 566.00 L 298.00 552.00 L 274.00 561.00 L 239.00 549.00 L 201.00 549.00 L 471.00 382.00 L 523.00 241.00 L 502.00 227.00 L 527.00 233.00 L 537.00 214.00 L 506.00 188.00 L 527.00 186.00 L 474.00 155.00 L 532.00 157.00 L 498.00 131.00 L 507.00 124.00 L 471.00 103.00 L 492.00 100.00 L 444.00 70.00 L 405.00 0.00 Z"
          fill="rgb(254,254,254)"
          stroke="rgb(254,254,254)"
          stroke-width="0.5"
          inkstitch:object_type="fill"
          inkstitch:density_mm="0.35"
          inkstitch:angle="30"
          inkstitch:stitch_length_mm="2.8"
          inkstitch:color_sort_index="0"
          inkstitch:thread_color="#fefefe"/>

    <path id="region_1_0"
          d="M 775.00 1791.00 L 775.00 1796.00 L 797.00 1796.00 L 797.00 1791.00 L 796.00 1791.00 L 795.00 1790.00 L 778.00 1790.00 L 777.00 1791.00 Z"
          fill="rgb(131,107,6)"
          stroke="rgb(131,107,6)"
          stroke-width="0.5"
          inkstitch:object_type="satin"
          inkstitch:density_mm="0.3"
          inkstitch:angle="0"
          inkstitch:stitch_length_mm="3.0"
          inkstitch:color_sort_index="1"
          inkstitch:thread_color="#836b06"/>

    <path id="region_1_1"
          d="M 415.00 1785.00 L 432.00 1794.00 L 437.00 1788.00 L 425.00 1787.00 Z"
          fill="rgb(131,107,6)"
          stroke="rgb(131,107,6)"
          stroke-width="0.5"
          inkstitch:object_type="satin"
          inkstitch:density_mm="0.3"
          inkstitch:angle="0"
          inkstitch:stitch_length_mm="3.0"
          inkstitch:color_sort_index="1"
          inkstitch:thread_color="#836b06"/>

    <path id="region_1_2"
          d="M 714.00 1767.00 L 719.00 1777.00 L 739.00 1791.00 L 759.00 1793.00 L 766.00 1789.00 L 731.00 1779.00 L 718.00 1767.00 Z"
          fill="rgb(131,107,6)"
          stroke="rgb(131,107,6)"
          stroke-width="0.5"
          inkstitch:object_type="satin"
          inkstitch:density_mm="0.3"
          inkstitch:angle="0"
          inkstitch:stitch_length_mm="3.0"
          inkstitch:color_sort_index="1"
          inkstitch:thread_color="#836b06"/>

    <path id="region_1_3"
          d="M 676.00 1758.00 L 680.00 1781.00 L 688.00 1781.00 L 693.00 1775.00 L 693.00 1767.00 L 687.00 1762.00 Z"
          fill="rgb(131,107,6)"
          stroke="rgb(131,107,6)"
          stroke-width="0.5"
          inkstitch:object_type="satin"
          inkstitch:density_mm="0.3"
          inkstitch:angle="0"
          inkstitch:stitch_length_mm="3.0"
          inkstitch:color_sort_index="1"
          inkstitch:thread_color="#836b06"/>

    <path id="region_1_4"
          d="M 693.00 1749.00 L 699.00 1756.00 Z"
          fill="rgb(131,107,6)"
          stroke="rgb(131,107,6)"
          stroke-width="0.5"
          inkstitch:object_type="satin"
          inkstitch:density_mm="0.3"
          inkstitch:angle="0"
          inkstitch:stitch_length_mm="3.0"
          inkstitch:color_sort_index="1"
          inkstitch:thread_color="#836b06"/>

    <path id="region_1_5"
          d="M 675.00 1740.00 L 681.00 1746.00 L 689.00 1748.00 L 683.00 1742.00 Z"
          fill="rgb(131,107,6)"
          stroke="rgb(131,107,6)"
          stroke-width="0.5"
          inkstitch:object_type="satin"
          inkstitch:density_mm="0.3"
          inkstitch:angle="0"
          inkstitch:stitch_length_mm="3.0"
          inkstitch:color_sort_index="1"
          inkstitch:thread_color="#836b06"/>

    <path id="region_1_6"
          d="M 633.00 1735.00 L 633.00 1741.00 L 635.00 1747.00 L 634.00 1752.00 Q 637.75 1761.10 637.00 1759.00 L 639.00 1766.00 L 639.00 1773.00 L 643.00 1778.00 Q 646.20 1786.35 645.00 1785.00 L 651.00 1787.00 L 665.00 1787.00 L 669.00 1775.00 Q 664.10 1768.60 665.00 1771.00 L 663.00 1759.00 L 663.00 1749.00 L 666.00 1744.00 Q 667.30 1743.70 667.00 1744.00 L 668.00 1742.00 L 673.00 1743.00 L 673.00 1739.00 Q 662.15 1736.70 665.00 1737.00 L 654.00 1737.00 L 645.00 1734.00 L 641.00 1734.00 Z"
          fill="rgb(131,107,6)"
          stroke="rgb(131,107,6)"
          stroke-width="0.5"
          inkstitch:object_type="satin"
          inkstitch:density_mm="0.3"
          inkstitch:angle="0"
          inkstitch:stitch_length_mm="3.0"
          inkstitch:color_sort_index="1"
          inkstitch:thread_color="#836b06"/>

    <path id="region_1_7"
          d="M 330.00 1711.00 L 330.00 1716.00 L 331.00 1717.00 L 331.00 1722.00 L 335.00 1722.00 L 335.00 1712.00 L 334.00 1711.00 Z"
          fill="rgb(131,107,6)"
          stroke="rgb(131,107,6)"
          stroke-width="0.5"
          inkstitch:object_type="satin"
          inkstitch:density_mm="0.3"
          inkstitch:angle="0"
          inkstitch:stitch_length_mm="3.0"
          inkstitch:color_sort_index="1"
          inkstitch:thread_color="#836b06"/>

    <path id="region_1_8"
          d="M 308.00 1696.00 L 302.00 1713.00 L 311.00 1712.00 L 317.00 1704.00 L 315.00 1696.00 Z"
          fill="rgb(131,107,6)"
          stroke="rgb(131,107,6)"
          stroke-width="0.5"
          inkstitch:object_type="satin"
          inkstitch:density_mm="0.3"
          inkstitch:angle="0"
          inkstitch:stitch_length_mm="3.0"
          inkstitch:color_sort_index="1"
          inkstitch:thread_color="#836b06"/>

    <path id="region_1_9"
          d="M 288.00 1638.00 L 288.00 1642.00 L 285.00 1645.00 L 285.00 1653.00 Q 284.55 1658.35 285.00 1657.00 L 282.00 1662.00 L 281.00 1662.00 L 281.00 1666.00 Q 278.25 1682.10 279.00 1680.00 L 276.00 1680.00 L 276.00 1684.00 L 280.00 1686.00 Q 278.30 1696.25 278.00 1694.00 L 282.00 1701.00 L 286.00 1704.00 L 291.00 1706.00 Q 293.60 1699.10 293.00 1700.00 L 295.00 1700.00 L 295.00 1694.00 L 299.00 1691.00 Q 302.60 1686.95 302.00 1688.00 L 303.00 1684.00 L 304.00 1684.00 L 305.00 1677.00 Q 312.20 1674.25 311.00 1675.00 L 313.00 1672.00 L 318.00 1674.00 L 318.00 1679.00 Q 320.60 1685.35 320.00 1684.00 L 322.00 1688.00 L 325.00 1697.00 L 330.00 1699.00 Q 330.00 1687.90 330.00 1690.00 L 330.00 1685.00 L 326.00 1679.00 L 323.00 1677.00 Q 321.25 1672.20 322.00 1674.00 L 318.00 1665.00 L 316.00 1659.00 L 312.00 1655.00 Q 306.95 1647.65 308.00 1649.00 L 305.00 1646.00 L 303.00 1642.00 L 298.00 1638.00 Z"
          fill="rgb(131,107,6)"
          stroke="rgb(131,107,6)"
          stroke-width="0.5"
          inkstitch:object_type="satin"
          inkstitch:density_mm="0.3"
          inkstitch:angle="0"
          inkstitch:stitch_length_mm="3.0"
          inkstitch:color_sort_index="1"
          inkstitch:thread_color="#836b06"/>

    <path id="region_1_10"
          d="M 670.00 1579.00 L 668.00 1607.00 L 663.00 1622.00 L 664.00 1631.00 L 650.00 1677.00 L 640.00 1693.00 L 634.00 1721.00 L 679.00 1728.00 L 697.00 1738.00 L 705.00 1739.00 L 736.00 1766.00 L 775.00 1778.00 L 802.00 1777.00 L 815.00 1781.00 L 835.00 1776.00 L 846.00 1751.00 L 848.00 1730.00 L 841.00 1715.00 L 816.00 1705.00 L 777.00 1709.00 L 770.00 1714.00 L 754.00 1714.00 L 730.00 1739.00 L 719.00 1733.00 L 717.00 1721.00 L 732.00 1696.00 L 702.00 1702.00 L 695.00 1692.00 L 694.00 1680.00 L 712.00 1672.00 L 717.00 1653.00 L 697.00 1653.00 L 688.00 1647.00 L 684.00 1638.00 L 698.00 1623.00 L 710.00 1624.00 L 719.00 1621.00 L 721.00 1608.00 L 696.00 1609.00 L 687.00 1597.00 L 691.00 1584.00 L 682.00 1586.00 L 675.00 1579.00 Z"
          fill="rgb(131,107,6)"
          stroke="rgb(131,107,6)"
          stroke-width="0.5"
          inkstitch:object_type="satin"
          inkstitch:density_mm="0.3"
          inkstitch:angle="0"
          inkstitch:stitch_length_mm="3.0"
          inkstitch:color_sort_index="1"
          inkstitch:thread_color="#836b06"/>

    <path id="region_1_11"
          d="M 375.00 1537.00 L 331.00 1592.00 L 305.00 1617.00 L 302.00 1627.00 L 337.00 1672.00 L 350.00 1735.00 L 358.00 1747.00 L 375.00 1754.00 L 388.00 1765.00 L 422.00 1774.00 L 443.00 1775.00 L 453.00 1769.00 L 461.00 1755.00 L 459.00 1734.00 L 445.00 1712.00 L 429.00 1697.00 L 392.00 1688.00 L 363.00 1697.00 L 356.00 1692.00 L 355.00 1683.00 L 360.00 1675.00 L 369.00 1669.00 L 389.00 1664.00 L 392.00 1657.00 L 381.00 1652.00 L 365.00 1653.00 L 359.00 1648.00 L 357.00 1632.00 L 366.00 1627.00 L 393.00 1622.00 L 396.00 1611.00 L 381.00 1606.00 L 372.00 1587.00 L 387.00 1575.00 L 396.00 1576.00 L 389.00 1565.00 L 389.00 1556.00 L 394.00 1549.00 L 384.00 1540.00 Z"
          fill="rgb(131,107,6)"
          stroke="rgb(131,107,6)"
          stroke-width="0.5"
          inkstitch:object_type="satin"
          inkstitch:density_mm="0.3"
          inkstitch:angle="0"
          inkstitch:stitch_length_mm="3.0"
          inkstitch:color_sort_index="1"
          inkstitch:thread_color="#836b06"/>

    <path id="region_1_12"
          d="M 514.00 1469.00 L 517.00 1476.00 L 545.00 1485.00 L 556.00 1482.00 L 535.00 1469.00 L 516.00 1464.00 Z"
          fill="rgb(131,107,6)"
          stroke="rgb(131,107,6)"
          stroke-width="0.5"
          inkstitch:object_type="satin"
          inkstitch:density_mm="0.3"
          inkstitch:angle="0"
          inkstitch:stitch_length_mm="3.0"
          inkstitch:color_sort_index="1"
          inkstitch:thread_color="#836b06"/>

    <path id="region_1_13"
          d="M 315.00 1447.00 L 327.00 1448.00 L 334.00 1448.00 L 344.00 1443.00 Q 351.95 1440.55 350.00 1441.00 L 357.00 1440.00 L 362.00 1442.00 L 362.00 1443.00 Q 370.05 1441.95 369.00 1443.00 L 369.00 1436.00 L 364.00 1434.00 L 359.00 1430.00 Q 350.05 1427.10 352.00 1428.00 L 346.00 1424.00 L 341.00 1420.00 L 333.00 1418.00 Q 325.65 1416.45 327.00 1416.00 L 324.00 1421.00 L 320.00 1425.00 L 317.00 1434.00 L 317.00 1439.00 Z"
          fill="rgb(131,107,6)"
          stroke="rgb(131,107,6)"
          stroke-width="0.5"
          inkstitch:object_type="satin"
          inkstitch:density_mm="0.3"
          inkstitch:angle="0"
          inkstitch:stitch_length_mm="3.0"
          inkstitch:color_sort_index="1"
          inkstitch:thread_color="#836b06"/>

    <path id="region_1_14"
          d="M 126.00 1316.00 L 126.00 1320.00 L 134.00 1327.00 L 134.00 1329.00 Q 142.95 1340.25 141.00 1338.00 L 147.00 1344.00 L 152.00 1348.00 L 154.00 1354.00 Q 160.65 1360.20 159.00 1359.00 L 165.00 1362.00 L 165.00 1363.00 L 170.00 1365.00 Q 180.35 1369.90 179.00 1369.00 L 179.00 1371.00 L 186.00 1373.00 L 187.00 1373.00 Q 190.50 1376.75 189.00 1376.00 L 197.00 1378.00 L 200.00 1380.00 L 204.00 1382.00 Q 204.60 1383.30 204.00 1383.00 L 208.00 1384.00 L 208.00 1385.00 L 214.00 1385.00 Q 218.20 1379.50 217.00 1381.00 L 222.00 1375.00 L 228.00 1379.00 L 228.00 1396.00 Q 234.95 1402.50 233.00 1401.00 L 241.00 1406.00 L 246.00 1410.00 L 254.00 1410.00 Q 263.50 1403.10 262.00 1404.00 L 264.00 1404.00 L 268.00 1400.00 L 273.00 1399.00 Q 276.20 1394.10 275.00 1395.00 L 281.00 1393.00 L 281.00 1388.00 L 276.00 1385.00 Q 275.25 1382.70 276.00 1383.00 L 271.00 1383.00 L 268.00 1380.00 L 260.00 1375.00 Q 254.25 1372.55 255.00 1373.00 L 255.00 1372.00 L 251.00 1368.00 L 246.00 1367.00 Q 239.10 1362.10 240.00 1363.00 L 240.00 1361.00 L 232.00 1358.00 L 226.00 1354.00 Q 224.80 1351.40 226.00 1352.00 L 218.00 1350.00 L 211.00 1347.00 L 206.00 1344.00 Q 205.55 1341.40 206.00 1342.00 L 203.00 1340.00 L 197.00 1340.00 L 192.00 1336.00 Q 188.25 1335.55 189.00 1336.00 L 187.00 1333.00 L 173.00 1331.00 L 173.00 1329.00 Q 148.80 1327.25 153.00 1328.00 L 145.00 1324.00 L 145.00 1319.00 L 140.00 1316.00 Z"
          fill="rgb(131,107,6)"
          stroke="rgb(131,107,6)"
          stroke-width="0.5"
          inkstitch:object_type="satin"
          inkstitch:density_mm="0.3"
          inkstitch:angle="0"
          inkstitch:stitch_length_mm="3.0"
          inkstitch:color_sort_index="1"
          inkstitch:thread_color="#836b06"/>

    <path id="region_1_15"
          d="M 749.00 856.00 L 752.00 866.00 L 758.00 871.00 L 761.00 863.00 L 754.00 859.00 Z"
          fill="rgb(131,107,6)"
          stroke="rgb(131,107,6)"
          stroke-width="0.5"
          inkstitch:object_type="satin"
          inkstitch:density_mm="0.3"
          inkstitch:angle="0"
          inkstitch:stitch_length_mm="3.0"
          inkstitch:color_sort_index="1"
          inkstitch:thread_color="#836b06"/>

    <path id="region_1_16"
          d="M 413.00 852.00 L 399.00 865.00 L 396.00 874.00 L 387.00 882.00 L 364.00 916.00 L 354.00 909.00 L 389.00 858.00 L 396.00 854.00 L 396.00 842.00 L 304.00 849.00 L 284.00 857.00 L 278.00 865.00 L 265.00 868.00 L 255.00 881.00 L 235.00 891.00 L 234.00 900.00 L 224.00 901.00 L 189.00 937.00 L 169.00 962.00 L 167.00 971.00 L 140.00 1011.00 L 135.00 1094.00 L 140.00 1121.00 L 159.00 1153.00 L 168.00 1158.00 L 183.00 1179.00 L 198.00 1180.00 L 213.00 1162.00 L 220.00 1159.00 L 224.00 1150.00 L 245.00 1135.00 L 253.00 1123.00 L 297.00 1082.00 L 309.00 1064.00 L 337.00 1042.00 L 341.00 1033.00 L 356.00 1015.00 L 370.00 1009.00 L 367.00 1001.00 L 369.00 993.00 L 384.00 976.00 L 386.00 968.00 L 412.00 948.00 L 416.00 941.00 L 425.00 935.00 L 429.00 928.00 L 416.00 868.00 Z"
          fill="rgb(131,107,6)"
          stroke="rgb(131,107,6)"
          stroke-width="0.5"
          inkstitch:object_type="satin"
          inkstitch:density_mm="0.3"
          inkstitch:angle="0"
          inkstitch:stitch_length_mm="3.0"
          inkstitch:color_sort_index="1"
          inkstitch:thread_color="#836b06"/>

    <path id="region_1_17"
          d="M 116.00 1284.00 L 116.00 1288.00 L 129.00 1284.00 L 134.00 1289.00 Q 126.30 1309.40 123.00 1307.00 L 156.00 1305.00 L 162.00 1310.00 L 162.00 1318.00 Q 234.85 1347.25 208.00 1333.00 L 341.00 1413.00 L 414.00 1441.00 L 452.00 1443.00 Q 508.65 1398.75 501.00 1404.00 L 503.00 1408.00 L 489.00 1437.00 L 508.00 1429.00 Q 508.35 1457.30 507.00 1454.00 L 517.00 1451.00 L 551.00 1468.00 L 591.00 1474.00 Q 645.05 1471.05 635.00 1470.00 L 658.00 1481.00 L 695.00 1486.00 L 774.00 1477.00 Q 838.20 1485.75 828.00 1485.00 L 842.00 1482.00 L 843.00 1427.00 L 832.00 1281.00 Q 775.75 951.90 787.00 1008.00 L 757.00 907.00 L 751.00 908.00 L 757.00 1000.00 Q 746.70 1003.40 750.00 1004.00 L 735.00 996.00 L 733.00 1022.00 L 692.00 1007.00 Q 633.20 1006.80 644.00 1008.00 L 620.00 999.00 L 597.00 1000.00 L 593.00 985.00 Q 559.35 991.70 564.00 992.00 L 562.00 983.00 L 588.00 931.00 L 591.00 897.00 Q 617.45 838.70 614.00 851.00 L 614.00 815.00 L 604.00 796.00 L 598.00 801.00 Q 596.80 822.70 598.00 817.00 L 590.00 839.00 L 556.00 902.00 L 521.00 945.00 Q 466.20 985.00 477.00 973.00 L 449.00 1025.00 L 442.00 1028.00 L 440.00 1020.00 Q 459.20 974.20 461.00 979.00 L 428.00 988.00 L 379.00 1013.00 L 192.00 1199.00 Z"
          fill="rgb(131,107,6)"
          stroke="rgb(131,107,6)"
          stroke-width="0.5"
          inkstitch:object_type="satin"
          inkstitch:density_mm="0.3"
          inkstitch:angle="0"
          inkstitch:stitch_length_mm="3.0"
          inkstitch:color_sort_index="1"
          inkstitch:thread_color="#836b06"/>

    <path id="region_1_18"
          d="M 566.00 738.00 L 550.00 736.00 L 551.00 747.00 L 557.00 752.00 L 563.00 770.00 L 568.00 776.00 L 564.00 797.00 L 553.00 813.00 L 550.00 823.00 L 555.00 836.00 L 549.00 842.00 L 546.00 851.00 L 539.00 856.00 L 531.00 853.00 L 513.00 884.00 L 515.00 896.00 L 468.00 940.00 L 459.00 945.00 L 442.00 941.00 L 440.00 954.00 L 426.00 966.00 L 414.00 965.00 L 392.00 984.00 L 388.00 991.00 L 407.00 989.00 L 413.00 984.00 L 453.00 970.00 L 460.00 965.00 L 472.00 963.00 L 509.00 942.00 L 533.00 916.00 L 582.00 825.00 L 587.00 809.00 L 585.00 787.00 L 587.00 769.00 L 579.00 751.00 L 571.00 745.00 Z"
          fill="rgb(131,107,6)"
          stroke="rgb(131,107,6)"
          stroke-width="0.5"
          inkstitch:object_type="satin"
          inkstitch:density_mm="0.3"
          inkstitch:angle="0"
          inkstitch:stitch_length_mm="3.0"
          inkstitch:color_sort_index="1"
          inkstitch:thread_color="#836b06"/>

    <path id="region_1_19"
          d="M 436.00 497.00 L 425.00 502.00 L 422.00 516.00 L 365.00 615.00 L 361.00 643.00 L 366.00 669.00 L 367.00 696.00 L 380.00 740.00 L 394.00 768.00 L 402.00 773.00 L 396.00 721.00 L 406.00 720.00 L 415.00 798.00 L 419.00 807.00 L 428.00 870.00 L 432.00 880.00 L 438.00 928.00 L 446.00 929.00 L 482.00 903.00 L 498.00 887.00 L 516.00 861.00 L 512.00 793.00 L 521.00 795.00 L 524.00 833.00 L 529.00 840.00 L 548.00 801.00 L 551.00 780.00 L 548.00 768.00 L 522.00 726.00 L 501.00 682.00 L 493.00 679.00 L 487.00 710.00 L 478.00 706.00 L 482.00 627.00 L 481.00 580.00 L 488.00 567.00 L 501.00 555.00 L 506.00 545.00 L 489.00 526.00 L 467.00 517.00 L 469.00 506.00 L 452.00 497.00 Z"
          fill="rgb(131,107,6)"
          stroke="rgb(131,107,6)"
          stroke-width="0.5"
          inkstitch:object_type="satin"
          inkstitch:density_mm="0.3"
          inkstitch:angle="0"
          inkstitch:stitch_length_mm="3.0"
          inkstitch:color_sort_index="1"
          inkstitch:thread_color="#836b06"/>

    <path id="region_2_0"
          d="M 405.00 0.00 L 439.00 67.00 L 490.00 101.00 L 471.00 106.00 L 531.00 159.00 L 473.00 158.00 L 523.00 185.00 L 505.00 190.00 L 536.00 212.00 L 525.00 232.00 L 501.00 225.00 L 522.00 248.00 L 470.00 380.00 L 201.00 547.00 L 272.00 562.00 L 295.00 554.00 L 290.00 566.00 L 323.00 552.00 L 320.00 577.00 L 371.00 587.00 L 353.00 653.00 L 240.00 637.00 L 212.00 658.00 L 185.00 708.00 L 177.00 753.00 L 194.00 775.00 L 199.00 822.00 L 279.00 849.00 L 197.00 915.00 L 131.00 1008.00 L 129.00 1117.00 L 186.00 1192.00 L 99.00 1302.00 L 157.00 1368.00 L 244.00 1420.00 L 294.00 1396.00 L 316.00 1407.00 L 309.00 1457.00 L 374.00 1452.00 L 331.00 1508.00 L 352.00 1507.00 L 368.00 1528.00 L 286.00 1622.00 L 266.00 1682.00 L 285.00 1721.00 L 319.00 1724.00 L 349.00 1771.00 L 412.00 1799.00 L 445.00 1799.00 L 461.00 1776.00 L 468.00 1731.00 L 443.00 1696.00 L 407.00 1676.00 L 402.00 1648.00 L 423.00 1588.00 L 442.00 1564.00 L 452.00 1575.00 L 505.00 1482.00 L 554.00 1495.00 L 636.00 1480.00 L 647.00 1494.00 L 628.00 1580.00 L 646.00 1571.00 L 657.00 1601.00 L 621.00 1717.00 L 635.00 1788.00 L 675.00 1797.00 L 705.00 1774.00 L 732.00 1799.00 L 760.00 1796.00 L 732.00 1790.00 L 674.00 1745.00 L 672.00 1787.00 L 645.00 1786.00 L 634.00 1731.00 L 685.00 1741.00 L 739.00 1780.00 L 829.00 1788.00 L 817.00 1799.00 L 833.00 1799.00 L 857.00 1752.00 L 850.00 1711.00 L 819.00 1696.00 L 763.00 1704.00 L 742.00 1693.00 L 729.00 1663.00 L 735.00 1583.00 L 764.00 1579.00 L 766.00 1491.00 L 844.00 1491.00 L 843.00 1305.00 L 800.00 1040.00 L 815.00 926.00 L 796.00 894.00 L 816.00 862.00 L 824.00 778.00 L 813.00 758.00 L 786.00 749.00 L 682.00 750.00 L 773.00 734.00 L 826.00 708.00 L 872.00 664.00 L 923.00 582.00 L 971.00 567.00 L 986.00 575.00 L 1019.00 544.00 L 1030.00 549.00 L 1031.00 528.00 L 1060.00 544.00 L 1137.00 508.00 L 1080.00 465.00 L 859.00 362.00 L 757.00 150.00 L 705.00 70.00 L 634.00 3.00 L 602.00 11.00 L 554.00 111.00 L 497.00 38.00 L 435.00 0.00 L 535.00 96.00 L 578.00 240.00 L 550.00 212.00 L 566.00 205.00 L 511.00 167.00 L 554.00 179.00 L 525.00 141.00 L 536.00 133.00 L 512.00 119.00 L 530.00 115.00 L 459.00 75.00 Z"
          fill="rgb(0,8,2)"
          stroke="rgb(0,8,2)"
          stroke-width="0.5"
          inkstitch:object_type="fill"
          inkstitch:density_mm="0.4"
          inkstitch:angle="45"
          inkstitch:stitch_length_mm="2.5"
          inkstitch:color_sort_index="2"
          inkstitch:thread_color="#000802"/>

    <path id="region_3_0"
          d="M 538.00 223.00 L 537.00 235.00 L 562.00 240.00 L 551.00 226.00 Z"
          fill="rgb(62,142,72)"
          stroke="rgb(62,142,72)"
          stroke-width="0.5"
          inkstitch:object_type="fill"
          inkstitch:density_mm="0.35"
          inkstitch:angle="30"
          inkstitch:stitch_length_mm="2.8"
          inkstitch:color_sort_index="3"
          inkstitch:thread_color="#3e8e48"/>

    <path id="region_3_1"
          d="M 241.00 537.00 L 274.00 533.00 L 382.00 505.00 L 432.00 487.00 Q 457.05 479.10 450.00 486.00 L 479.00 441.00 L 514.00 415.00 L 544.00 423.00 Q 551.55 428.60 549.00 428.00 L 561.00 427.00 L 580.00 443.00 L 599.00 445.00 Q 605.60 456.00 605.00 453.00 L 603.00 465.00 L 628.00 471.00 L 730.00 478.00 Q 729.60 469.20 729.00 471.00 L 734.00 466.00 L 763.00 467.00 L 832.00 478.00 Q 951.00 486.75 933.00 486.00 L 952.00 483.00 L 950.00 474.00 L 963.00 471.00 Q 1128.95 508.80 1106.00 504.00 L 1116.00 503.00 L 1116.00 499.00 L 1056.00 462.00 Q 896.25 395.90 927.00 410.00 L 851.00 368.00 L 820.00 319.00 L 775.00 216.00 Q 761.35 175.50 766.00 186.00 L 744.00 146.00 L 705.00 96.00 L 691.00 67.00 Q 671.15 54.25 680.00 58.00 L 632.00 42.00 L 629.00 35.00 L 641.00 35.00 Q 639.45 24.55 642.00 28.00 L 624.00 12.00 L 614.00 12.00 L 598.00 36.00 Q 562.60 162.75 562.00 123.00 L 602.00 301.00 L 611.00 310.00 L 580.00 328.00 Q 577.60 317.90 577.00 320.00 L 584.00 314.00 L 582.00 305.00 L 557.00 278.00 Q 530.30 255.80 533.00 260.00 L 539.00 250.00 L 531.00 250.00 L 500.00 340.00 Q 475.35 390.10 480.00 382.00 L 469.00 394.00 L 332.00 475.00 L 279.00 513.00 L 241.00 533.00 Z"
          fill="rgb(62,142,72)"
          stroke="rgb(62,142,72)"
          stroke-width="0.5"
          inkstitch:object_type="fill"
          inkstitch:density_mm="0.35"
          inkstitch:angle="30"
          inkstitch:stitch_length_mm="2.8"
          inkstitch:color_sort_index="3"
          inkstitch:thread_color="#3e8e48"/>

    <path id="region_4_0"
          d="M 386.00 1775.00 L 400.00 1786.00 L 437.00 1795.00 L 438.00 1787.00 L 412.00 1783.00 L 392.00 1777.00 Z"
          fill="rgb(154,76,27)"
          stroke="rgb(154,76,27)"
          stroke-width="0.5"
          inkstitch:object_type="satin"
          inkstitch:density_mm="0.3"
          inkstitch:angle="0"
          inkstitch:stitch_length_mm="3.0"
          inkstitch:color_sort_index="4"
          inkstitch:thread_color="#9a4c1b"/>

    <path id="region_4_1"
          d="M 713.00 1766.00 L 713.00 1771.00 L 718.00 1777.00 L 723.00 1781.00 Q 723.60 1782.90 723.00 1782.00 L 727.00 1787.00 L 734.00 1790.00 L 743.00 1792.00 Q 753.10 1795.45 751.00 1795.00 L 757.00 1795.00 L 758.00 1794.00 L 763.00 1796.00 Q 773.25 1795.15 771.00 1795.00 L 778.00 1797.00 L 788.00 1796.00 L 800.00 1798.00 Q 807.95 1795.70 806.00 1796.00 L 813.00 1796.00 L 817.00 1791.00 L 789.00 1789.00 Q 778.45 1789.70 781.00 1790.00 L 772.00 1787.00 L 766.00 1787.00 L 754.00 1784.00 Q 743.90 1782.55 746.00 1783.00 L 740.00 1781.00 L 732.00 1776.00 L 726.00 1773.00 L 717.00 1766.00 Z"
          fill="rgb(154,76,27)"
          stroke="rgb(154,76,27)"
          stroke-width="0.5"
          inkstitch:object_type="satin"
          inkstitch:density_mm="0.3"
          inkstitch:angle="0"
          inkstitch:stitch_length_mm="3.0"
          inkstitch:color_sort_index="4"
          inkstitch:thread_color="#9a4c1b"/>

    <path id="region_4_2"
          d="M 676.00 1757.00 L 675.00 1766.00 L 679.00 1783.00 L 689.00 1781.00 L 694.00 1774.00 L 693.00 1766.00 L 685.00 1760.00 Z"
          fill="rgb(154,76,27)"
          stroke="rgb(154,76,27)"
          stroke-width="0.5"
          inkstitch:object_type="satin"
          inkstitch:density_mm="0.3"
          inkstitch:angle="0"
          inkstitch:stitch_length_mm="3.0"
          inkstitch:color_sort_index="4"
          inkstitch:thread_color="#9a4c1b"/>

    <path id="region_4_3"
          d="M 630.00 1734.00 L 630.00 1741.00 L 633.00 1745.00 L 632.00 1751.00 Q 634.30 1757.05 634.00 1756.00 L 634.00 1758.00 L 635.00 1758.00 L 638.00 1765.00 Q 638.30 1771.65 638.00 1770.00 L 640.00 1776.00 L 643.00 1781.00 L 647.00 1787.00 Q 660.30 1787.00 657.00 1787.00 L 669.00 1787.00 L 669.00 1775.00 L 667.00 1770.00 Q 664.40 1756.60 665.00 1759.00 L 663.00 1754.00 L 663.00 1750.00 L 668.00 1745.00 Q 678.40 1747.60 676.00 1747.00 L 684.00 1749.00 L 691.00 1754.00 L 697.00 1756.00 Q 698.45 1756.45 698.00 1756.00 L 700.00 1759.00 L 704.00 1759.00 L 709.00 1761.00 Q 708.40 1756.40 709.00 1757.00 L 705.00 1757.00 L 703.00 1752.00 L 697.00 1749.00 Q 693.25 1747.40 694.00 1748.00 L 692.00 1745.00 L 686.00 1743.00 L 679.00 1740.00 Q 678.10 1738.85 679.00 1739.00 L 673.00 1739.00 L 664.00 1736.00 L 657.00 1735.00 L 648.00 1735.00 Z"
          fill="rgb(154,76,27)"
          stroke="rgb(154,76,27)"
          stroke-width="0.5"
          inkstitch:object_type="satin"
          inkstitch:density_mm="0.3"
          inkstitch:angle="0"
          inkstitch:stitch_length_mm="3.0"
          inkstitch:color_sort_index="4"
          inkstitch:thread_color="#9a4c1b"/>

    <path id="region_4_4"
          d="M 332.00 1727.00 L 332.00 1731.00 L 336.00 1736.00 L 338.00 1747.00 Q 338.60 1748.90 338.00 1748.00 L 342.00 1753.00 L 345.00 1756.00 L 349.00 1756.00 Q 352.90 1762.20 352.00 1761.00 L 355.00 1764.00 L 355.00 1765.00 L 361.00 1769.00 Q 368.65 1771.90 367.00 1771.00 L 372.00 1775.00 L 376.00 1775.00 L 384.00 1776.00 Q 383.25 1771.10 384.00 1772.00 L 379.00 1770.00 L 370.00 1766.00 L 370.00 1765.00 Q 363.50 1762.40 365.00 1763.00 L 360.00 1761.00 L 350.00 1756.00 L 348.00 1750.00 Q 342.95 1741.05 344.00 1743.00 L 341.00 1737.00 L 337.00 1731.00 L 337.00 1727.00 Z"
          fill="rgb(154,76,27)"
          stroke="rgb(154,76,27)"
          stroke-width="0.5"
          inkstitch:object_type="satin"
          inkstitch:density_mm="0.3"
          inkstitch:angle="0"
          inkstitch:stitch_length_mm="3.0"
          inkstitch:color_sort_index="4"
          inkstitch:thread_color="#9a4c1b"/>

    <path id="region_4_5"
          d="M 314.00 1692.00 L 306.00 1696.00 L 301.00 1714.00 L 318.00 1713.00 L 316.00 1696.00 Z"
          fill="rgb(154,76,27)"
          stroke="rgb(154,76,27)"
          stroke-width="0.5"
          inkstitch:object_type="satin"
          inkstitch:density_mm="0.3"
          inkstitch:angle="0"
          inkstitch:stitch_length_mm="3.0"
          inkstitch:color_sort_index="4"
          inkstitch:thread_color="#9a4c1b"/>

    <path id="region_4_6"
          d="M 290.00 1634.00 L 288.00 1640.00 L 284.00 1645.00 L 284.00 1649.00 Q 280.55 1663.55 281.00 1661.00 L 281.00 1666.00 L 278.00 1675.00 L 277.00 1675.00 Q 276.85 1682.70 277.00 1680.00 L 276.00 1693.00 L 280.00 1698.00 L 283.00 1702.00 Q 283.15 1704.30 283.00 1704.00 L 284.00 1704.00 L 286.00 1707.00 L 291.00 1707.00 Q 291.45 1705.55 291.00 1706.00 L 294.00 1704.00 L 295.00 1699.00 L 298.00 1694.00 Q 299.45 1693.40 299.00 1694.00 L 301.00 1690.00 L 305.00 1684.00 L 305.00 1681.00 Q 308.60 1678.10 308.00 1679.00 L 309.00 1675.00 L 313.00 1675.00 L 317.00 1681.00 Q 322.05 1691.80 321.00 1690.00 L 324.00 1693.00 L 324.00 1697.00 L 326.00 1704.00 Q 329.75 1711.95 329.00 1710.00 L 331.00 1717.00 L 331.00 1725.00 L 336.00 1725.00 Q 335.85 1720.25 336.00 1721.00 L 335.00 1720.00 L 336.00 1715.00 L 334.00 1703.00 Q 333.55 1696.35 334.00 1698.00 L 331.00 1692.00 L 329.00 1686.00 L 329.00 1682.00 Q 325.10 1674.50 326.00 1676.00 L 323.00 1672.00 L 321.00 1668.00 L 316.00 1658.00 Q 311.95 1653.95 313.00 1655.00 L 309.00 1651.00 L 306.00 1647.00 L 303.00 1644.00 Q 300.95 1638.80 302.00 1640.00 L 296.00 1636.00 Z"
          fill="rgb(154,76,27)"
          stroke="rgb(154,76,27)"
          stroke-width="0.5"
          inkstitch:object_type="satin"
          inkstitch:density_mm="0.3"
          inkstitch:angle="0"
          inkstitch:stitch_length_mm="3.0"
          inkstitch:color_sort_index="4"
          inkstitch:thread_color="#9a4c1b"/>

    <path id="region_4_7"
          d="M 668.00 1576.00 L 665.00 1615.00 L 658.00 1648.00 L 638.00 1694.00 L 631.00 1720.00 L 641.00 1725.00 L 680.00 1729.00 L 723.00 1758.00 L 745.00 1774.00 L 775.00 1780.00 L 824.00 1781.00 L 843.00 1763.00 L 848.00 1724.00 L 837.00 1712.00 L 810.00 1703.00 L 772.00 1711.00 L 758.00 1711.00 L 737.00 1734.00 L 728.00 1737.00 L 717.00 1723.00 L 727.00 1707.00 L 734.00 1702.00 L 732.00 1695.00 L 708.00 1701.00 L 698.00 1697.00 L 693.00 1690.00 L 695.00 1682.00 L 702.00 1674.00 L 716.00 1671.00 L 720.00 1653.00 L 699.00 1653.00 L 687.00 1644.00 L 685.00 1637.00 L 690.00 1628.00 L 720.00 1624.00 L 722.00 1609.00 L 704.00 1609.00 L 690.00 1603.00 L 692.00 1587.00 L 699.00 1584.00 L 689.00 1580.00 L 680.00 1587.00 L 673.00 1576.00 Z"
          fill="rgb(154,76,27)"
          stroke="rgb(154,76,27)"
          stroke-width="0.5"
          inkstitch:object_type="satin"
          inkstitch:density_mm="0.3"
          inkstitch:angle="0"
          inkstitch:stitch_length_mm="3.0"
          inkstitch:color_sort_index="4"
          inkstitch:thread_color="#9a4c1b"/>

    <path id="region_4_8"
          d="M 425.00 1539.00 L 417.00 1544.00 L 425.00 1551.00 Z"
          fill="rgb(154,76,27)"
          stroke="rgb(154,76,27)"
          stroke-width="0.5"
          inkstitch:object_type="satin"
          inkstitch:density_mm="0.3"
          inkstitch:angle="0"
          inkstitch:stitch_length_mm="3.0"
          inkstitch:color_sort_index="4"
          inkstitch:thread_color="#9a4c1b"/>

    <path id="region_4_9"
          d="M 375.00 1537.00 L 367.00 1543.00 L 330.00 1592.00 L 301.00 1620.00 L 315.00 1645.00 L 336.00 1672.00 L 345.00 1709.00 L 352.00 1742.00 L 375.00 1760.00 L 420.00 1773.00 L 449.00 1777.00 L 459.00 1763.00 L 461.00 1737.00 L 455.00 1724.00 L 428.00 1695.00 L 402.00 1685.00 L 370.00 1695.00 L 355.00 1688.00 L 357.00 1678.00 L 372.00 1667.00 L 391.00 1664.00 L 393.00 1649.00 L 368.00 1653.00 L 357.00 1645.00 L 367.00 1626.00 L 396.00 1623.00 L 398.00 1611.00 L 380.00 1604.00 L 373.00 1597.00 L 379.00 1580.00 L 387.00 1576.00 L 409.00 1584.00 L 415.00 1579.00 L 396.00 1570.00 L 390.00 1564.00 L 395.00 1546.00 L 388.00 1541.00 Z"
          fill="rgb(154,76,27)"
          stroke="rgb(154,76,27)"
          stroke-width="0.5"
          inkstitch:object_type="satin"
          inkstitch:density_mm="0.3"
          inkstitch:angle="0"
          inkstitch:stitch_length_mm="3.0"
          inkstitch:color_sort_index="4"
          inkstitch:thread_color="#9a4c1b"/>

    <path id="region_4_10"
          d="M 786.00 961.00 L 790.00 985.00 L 795.00 976.00 L 793.00 963.00 Z"
          fill="rgb(154,76,27)"
          stroke="rgb(154,76,27)"
          stroke-width="0.5"
          inkstitch:object_type="satin"
          inkstitch:density_mm="0.3"
          inkstitch:angle="0"
          inkstitch:stitch_length_mm="3.0"
          inkstitch:color_sort_index="4"
          inkstitch:thread_color="#9a4c1b"/>

    <path id="region_4_11"
          d="M 415.00 849.00 L 400.00 862.00 L 364.00 916.00 L 357.00 910.00 L 401.00 847.00 L 375.00 841.00 L 328.00 844.00 L 293.00 852.00 L 262.00 870.00 L 223.00 901.00 L 189.00 935.00 L 155.00 978.00 L 146.00 994.00 L 136.00 1023.00 L 136.00 1109.00 L 155.00 1150.00 L 191.00 1184.00 L 257.00 1125.00 L 369.00 1009.00 L 378.00 983.00 L 416.00 944.00 L 429.00 937.00 L 422.00 886.00 L 418.00 875.00 L 419.00 867.00 Z"
          fill="rgb(154,76,27)"
          stroke="rgb(154,76,27)"
          stroke-width="0.5"
          inkstitch:object_type="satin"
          inkstitch:density_mm="0.3"
          inkstitch:angle="0"
          inkstitch:stitch_length_mm="3.0"
          inkstitch:color_sort_index="4"
          inkstitch:thread_color="#9a4c1b"/>

    <path id="region_4_12"
          d="M 737.00 832.00 L 757.00 880.00 L 764.00 870.00 L 741.00 834.00 Z"
          fill="rgb(154,76,27)"
          stroke="rgb(154,76,27)"
          stroke-width="0.5"
          inkstitch:object_type="satin"
          inkstitch:density_mm="0.3"
          inkstitch:angle="0"
          inkstitch:stitch_length_mm="3.0"
          inkstitch:color_sort_index="4"
          inkstitch:thread_color="#9a4c1b"/>

    <path id="region_4_13"
          d="M 570.00 739.00 L 561.00 734.00 L 545.00 734.00 L 568.00 777.00 L 562.00 802.00 L 555.00 806.00 L 549.00 823.00 L 552.00 832.00 L 546.00 849.00 L 533.00 851.00 L 514.00 878.00 L 514.00 896.00 L 481.00 931.00 L 458.00 944.00 L 452.00 938.00 L 422.00 951.00 L 385.00 990.00 L 381.00 999.00 L 430.00 978.00 L 462.00 969.00 L 488.00 957.00 L 511.00 941.00 L 560.00 878.00 L 588.00 815.00 L 587.00 766.00 L 578.00 747.00 L 571.00 742.00 Z"
          fill="rgb(154,76,27)"
          stroke="rgb(154,76,27)"
          stroke-width="0.5"
          inkstitch:object_type="satin"
          inkstitch:density_mm="0.3"
          inkstitch:angle="0"
          inkstitch:stitch_length_mm="3.0"
          inkstitch:color_sort_index="4"
          inkstitch:thread_color="#9a4c1b"/>

    <path id="region_4_14"
          d="M 373.00 553.00 L 373.00 556.00 L 372.00 557.00 L 372.00 561.00 L 380.00 561.00 L 381.00 560.00 L 381.00 556.00 L 380.00 556.00 L 379.00 555.00 L 379.00 553.00 Z"
          fill="rgb(154,76,27)"
          stroke="rgb(154,76,27)"
          stroke-width="0.5"
          inkstitch:object_type="satin"
          inkstitch:density_mm="0.3"
          inkstitch:angle="0"
          inkstitch:stitch_length_mm="3.0"
          inkstitch:color_sort_index="4"
          inkstitch:thread_color="#9a4c1b"/>

    <path id="region_4_15"
          d="M 342.00 543.00 L 342.00 547.00 L 343.00 548.00 L 345.00 548.00 L 346.00 549.00 L 346.00 550.00 L 350.00 550.00 L 350.00 544.00 L 349.00 544.00 L 348.00 543.00 Z"
          fill="rgb(154,76,27)"
          stroke="rgb(154,76,27)"
          stroke-width="0.5"
          inkstitch:object_type="satin"
          inkstitch:density_mm="0.3"
          inkstitch:angle="0"
          inkstitch:stitch_length_mm="3.0"
          inkstitch:color_sort_index="4"
          inkstitch:thread_color="#9a4c1b"/>

    <path id="region_4_16"
          d="M 946.00 503.00 L 956.00 517.00 L 959.00 510.00 L 955.00 502.00 L 947.00 503.00 Z"
          fill="rgb(154,76,27)"
          stroke="rgb(154,76,27)"
          stroke-width="0.5"
          inkstitch:object_type="satin"
          inkstitch:density_mm="0.3"
          inkstitch:angle="0"
          inkstitch:stitch_length_mm="3.0"
          inkstitch:color_sort_index="4"
          inkstitch:thread_color="#9a4c1b"/>

    <path id="region_5_0"
          d="M 783.00 943.00 L 788.00 950.00 L 805.00 955.00 L 806.00 947.00 L 790.00 943.00 Z"
          fill="rgb(253,198,166)"
          stroke="rgb(253,198,166)"
          stroke-width="0.5"
          inkstitch:object_type="fill"
          inkstitch:density_mm="0.35"
          inkstitch:angle="30"
          inkstitch:stitch_length_mm="2.8"
          inkstitch:color_sort_index="5"
          inkstitch:thread_color="#fdc6a6"/>

    <path id="region_5_1"
          d="M 806.00 927.00 L 799.00 923.00 L 779.00 925.00 L 786.00 931.00 L 803.00 934.00 Z"
          fill="rgb(253,198,166)"
          stroke="rgb(253,198,166)"
          stroke-width="0.5"
          inkstitch:object_type="fill"
          inkstitch:density_mm="0.35"
          inkstitch:angle="30"
          inkstitch:stitch_length_mm="2.8"
          inkstitch:color_sort_index="5"
          inkstitch:thread_color="#fdc6a6"/>

    <path id="region_5_2"
          d="M 794.00 907.00 L 768.00 911.00 L 777.00 916.00 L 792.00 913.00 Z"
          fill="rgb(253,198,166)"
          stroke="rgb(253,198,166)"
          stroke-width="0.5"
          inkstitch:object_type="fill"
          inkstitch:density_mm="0.35"
          inkstitch:angle="30"
          inkstitch:stitch_length_mm="2.8"
          inkstitch:color_sort_index="5"
          inkstitch:thread_color="#fdc6a6"/>

    <path id="region_5_3"
          d="M 784.00 892.00 L 779.00 889.00 L 773.00 888.00 L 767.00 890.00 Q 762.25 892.05 763.00 891.00 L 762.00 897.00 L 768.00 899.00 L 773.00 899.00 L 784.00 896.00 Z"
          fill="rgb(253,198,166)"
          stroke="rgb(253,198,166)"
          stroke-width="0.5"
          inkstitch:object_type="fill"
          inkstitch:density_mm="0.35"
          inkstitch:angle="30"
          inkstitch:stitch_length_mm="2.8"
          inkstitch:color_sort_index="5"
          inkstitch:thread_color="#fdc6a6"/>

    <path id="region_5_4"
          d="M 624.00 740.00 L 629.00 750.00 L 648.00 754.00 L 660.00 765.00 L 669.00 764.00 L 671.00 751.00 L 633.00 743.00 Z"
          fill="rgb(253,198,166)"
          stroke="rgb(253,198,166)"
          stroke-width="0.5"
          inkstitch:object_type="fill"
          inkstitch:density_mm="0.35"
          inkstitch:angle="30"
          inkstitch:stitch_length_mm="2.8"
          inkstitch:color_sort_index="5"
          inkstitch:thread_color="#fdc6a6"/>

    <path id="region_5_5"
          d="M 899.00 558.00 L 896.00 544.00 L 881.00 515.00 L 873.00 506.00 L 865.00 503.00 L 875.00 525.00 L 875.00 536.00 L 869.00 555.00 L 853.00 573.00 L 827.00 583.00 L 845.00 596.00 L 851.00 604.00 L 841.00 615.00 L 788.00 640.00 L 786.00 631.00 L 832.00 608.00 L 835.00 601.00 L 794.00 579.00 L 780.00 565.00 L 765.00 536.00 L 758.00 529.00 L 759.00 521.00 L 768.00 521.00 L 768.00 493.00 L 781.00 485.00 L 748.00 479.00 L 748.00 488.00 L 724.00 486.00 L 699.00 494.00 L 697.00 526.00 L 685.00 554.00 L 669.00 569.00 L 640.00 581.00 L 605.00 580.00 L 577.00 567.00 L 559.00 547.00 L 550.00 529.00 L 548.00 505.00 L 513.00 532.00 L 517.00 554.00 L 502.00 570.00 L 505.00 596.00 L 492.00 597.00 L 492.00 609.00 L 503.00 635.00 L 519.00 657.00 L 553.00 691.00 L 572.00 705.00 L 604.00 722.00 L 665.00 739.00 L 723.00 737.00 L 753.00 731.00 L 816.00 704.00 L 841.00 685.00 L 869.00 655.00 L 882.00 634.00 L 889.00 611.00 L 894.00 604.00 L 897.00 581.00 Z"
          fill="rgb(253,198,166)"
          stroke="rgb(253,198,166)"
          stroke-width="0.5"
          inkstitch:object_type="fill"
          inkstitch:density_mm="0.35"
          inkstitch:angle="30"
          inkstitch:stitch_length_mm="2.8"
          inkstitch:color_sort_index="5"
          inkstitch:thread_color="#fdc6a6"/>

    <path id="region_5_6"
          d="M 568.00 467.00 L 562.00 467.00 L 557.00 471.00 L 552.00 475.00 Q 543.30 477.85 546.00 478.00 L 534.00 474.00 L 526.00 471.00 L 522.00 477.00 Q 519.40 483.90 520.00 483.00 L 518.00 483.00 L 517.00 490.00 L 514.00 496.00 Q 507.60 504.10 510.00 502.00 L 498.00 510.00 L 495.00 515.00 L 494.00 515.00 Q 495.05 519.90 494.00 519.00 L 501.00 521.00 L 509.00 521.00 L 515.00 518.00 Q 519.05 514.40 518.00 515.00 L 522.00 514.00 L 526.00 507.00 L 529.00 504.00 Q 535.65 499.65 534.00 501.00 L 540.00 495.00 L 547.00 492.00 L 549.00 488.00 Q 551.90 487.40 551.00 488.00 L 555.00 484.00 L 568.00 472.00 Z"
          fill="rgb(253,198,166)"
          stroke="rgb(253,198,166)"
          stroke-width="0.5"
          inkstitch:object_type="fill"
          inkstitch:density_mm="0.35"
          inkstitch:angle="30"
          inkstitch:stitch_length_mm="2.8"
          inkstitch:color_sort_index="5"
          inkstitch:thread_color="#fdc6a6"/>

    <path id="region_5_7"
          d="M 572.00 454.00 L 579.00 461.00 L 585.00 455.00 L 573.00 453.00 Z"
          fill="rgb(253,198,166)"
          stroke="rgb(253,198,166)"
          stroke-width="0.5"
          inkstitch:object_type="fill"
          inkstitch:density_mm="0.35"
          inkstitch:angle="30"
          inkstitch:stitch_length_mm="2.8"
          inkstitch:color_sort_index="5"
          inkstitch:thread_color="#fdc6a6"/>

    <path id="region_5_8"
          d="M 495.00 445.00 L 491.00 445.00 L 486.00 450.00 L 480.00 458.00 Q 475.95 462.35 477.00 461.00 L 473.00 467.00 L 469.00 473.00 L 467.00 477.00 Q 465.55 477.75 466.00 477.00 L 464.00 482.00 L 462.00 490.00 L 468.00 490.00 Q 474.80 492.45 473.00 492.00 L 480.00 493.00 L 482.00 499.00 L 481.00 504.00 Q 492.10 508.30 490.00 508.00 L 495.00 506.00 L 499.00 506.00 L 502.00 499.00 Q 505.60 493.25 505.00 494.00 L 506.00 494.00 L 507.00 485.00 L 510.00 477.00 Q 509.25 465.35 510.00 467.00 L 505.00 466.00 L 499.00 462.00 L 496.00 456.00 L 494.00 451.00 Z"
          fill="rgb(253,198,166)"
          stroke="rgb(253,198,166)"
          stroke-width="0.5"
          inkstitch:object_type="fill"
          inkstitch:density_mm="0.35"
          inkstitch:angle="30"
          inkstitch:stitch_length_mm="2.8"
          inkstitch:color_sort_index="5"
          inkstitch:thread_color="#fdc6a6"/>

    <path id="region_5_9"
          d="M 560.00 438.00 L 555.00 438.00 L 552.00 442.00 L 549.00 448.00 Q 548.10 454.85 549.00 452.00 L 543.00 467.00 L 548.00 467.00 L 553.00 464.00 Q 554.60 463.25 554.00 464.00 L 557.00 459.00 L 560.00 454.00 L 563.00 446.00 L 563.00 441.00 Z"
          fill="rgb(253,198,166)"
          stroke="rgb(253,198,166)"
          stroke-width="0.5"
          inkstitch:object_type="fill"
          inkstitch:density_mm="0.35"
          inkstitch:angle="30"
          inkstitch:stitch_length_mm="2.8"
          inkstitch:color_sort_index="5"
          inkstitch:thread_color="#fdc6a6"/>

    <path id="region_5_10"
          d="M 540.00 434.00 L 533.00 440.00 L 527.00 459.00 L 537.00 455.00 L 539.00 446.00 Z"
          fill="rgb(253,198,166)"
          stroke="rgb(253,198,166)"
          stroke-width="0.5"
          inkstitch:object_type="fill"
          inkstitch:density_mm="0.35"
          inkstitch:angle="30"
          inkstitch:stitch_length_mm="2.8"
          inkstitch:color_sort_index="5"
          inkstitch:thread_color="#fdc6a6"/>

    <path id="region_5_11"
          d="M 509.00 427.00 L 510.00 447.00 L 515.00 454.00 L 523.00 439.00 L 523.00 429.00 Z"
          fill="rgb(253,198,166)"
          stroke="rgb(253,198,166)"
          stroke-width="0.5"
          inkstitch:object_type="fill"
          inkstitch:density_mm="0.35"
          inkstitch:angle="30"
          inkstitch:stitch_length_mm="2.8"
          inkstitch:color_sort_index="5"
          inkstitch:thread_color="#fdc6a6"/>

    <path id="region_6_0"
          d="M 234.00 787.00 L 226.00 791.00 L 215.00 788.00 L 216.00 796.00 L 226.00 801.00 L 231.00 794.00 Z"
          fill="rgb(227,165,85)"
          stroke="rgb(227,165,85)"
          stroke-width="0.5"
          inkstitch:object_type="satin"
          inkstitch:density_mm="0.3"
          inkstitch:angle="0"
          inkstitch:stitch_length_mm="3.0"
          inkstitch:color_sort_index="6"
          inkstitch:thread_color="#e3a555"/>

    <path id="region_6_1"
          d="M 212.00 766.00 L 218.00 774.00 L 229.00 776.00 L 231.00 768.00 L 213.00 766.00 Z"
          fill="rgb(227,165,85)"
          stroke="rgb(227,165,85)"
          stroke-width="0.5"
          inkstitch:object_type="satin"
          inkstitch:density_mm="0.3"
          inkstitch:angle="0"
          inkstitch:stitch_length_mm="3.0"
          inkstitch:color_sort_index="6"
          inkstitch:thread_color="#e3a555"/>

    <path id="region_6_2"
          d="M 693.00 762.00 L 693.00 766.00 L 697.00 769.00 L 701.00 773.00 Q 701.75 774.60 701.00 774.00 L 706.00 777.00 L 709.00 782.00 L 713.00 788.00 Q 717.60 793.90 717.00 793.00 L 717.00 794.00 L 726.00 804.00 L 726.00 805.00 Q 733.80 809.65 732.00 808.00 L 738.00 816.00 L 741.00 819.00 L 744.00 822.00 Q 753.80 836.40 752.00 834.00 L 756.00 838.00 L 760.00 844.00 L 764.00 849.00 Q 768.20 858.25 767.00 856.00 L 772.00 864.00 L 772.00 866.00 L 777.00 872.00 Q 781.20 875.90 780.00 875.00 L 785.00 878.00 L 789.00 882.00 L 795.00 882.00 Q 799.65 875.45 798.00 878.00 L 806.00 865.00 L 806.00 858.00 L 807.00 853.00 Q 806.30 845.50 806.00 847.00 L 809.00 843.00 L 809.00 838.00 L 813.00 835.00 Q 812.85 829.80 813.00 831.00 L 812.00 827.00 L 815.00 819.00 L 815.00 813.00 Q 814.00 811.10 814.00 812.00 L 815.00 807.00 L 814.00 806.00 L 818.00 803.00 Q 817.25 784.65 818.00 789.00 L 813.00 774.00 L 805.00 764.00 L 803.00 764.00 Q 800.10 760.55 801.00 761.00 L 797.00 761.00 L 791.00 760.00 L 783.00 758.00 Q 770.55 758.15 774.00 758.00 L 760.00 759.00 L 756.00 759.00 L 748.00 758.00 Q 733.25 760.15 737.00 760.00 L 723.00 759.00 L 695.00 762.00 Z"
          fill="rgb(227,165,85)"
          stroke="rgb(227,165,85)"
          stroke-width="0.5"
          inkstitch:object_type="satin"
          inkstitch:density_mm="0.3"
          inkstitch:angle="0"
          inkstitch:stitch_length_mm="3.0"
          inkstitch:color_sort_index="6"
          inkstitch:thread_color="#e3a555"/>

    <path id="region_6_3"
          d="M 248.00 750.00 L 235.00 760.00 L 244.00 767.00 L 247.00 759.00 Z"
          fill="rgb(227,165,85)"
          stroke="rgb(227,165,85)"
          stroke-width="0.5"
          inkstitch:object_type="satin"
          inkstitch:density_mm="0.3"
          inkstitch:angle="0"
          inkstitch:stitch_length_mm="3.0"
          inkstitch:color_sort_index="6"
          inkstitch:thread_color="#e3a555"/>

    <path id="region_6_4"
          d="M 233.00 684.00 L 229.00 684.00 L 227.00 689.00 L 224.00 691.00 Q 221.40 698.50 222.00 697.00 L 220.00 701.00 L 219.00 701.00 L 219.00 706.00 Q 214.10 715.10 215.00 713.00 L 213.00 720.00 L 212.00 720.00 L 210.00 727.00 Q 207.70 736.80 208.00 735.00 L 208.00 739.00 L 212.00 739.00 L 212.00 735.00 Q 217.50 730.20 216.00 732.00 L 222.00 723.00 L 227.00 721.00 L 230.00 718.00 Q 237.20 716.90 236.00 719.00 L 238.00 704.00 L 235.00 697.00 L 235.00 693.00 Z"
          fill="rgb(227,165,85)"
          stroke="rgb(227,165,85)"
          stroke-width="0.5"
          inkstitch:object_type="satin"
          inkstitch:density_mm="0.3"
          inkstitch:angle="0"
          inkstitch:stitch_length_mm="3.0"
          inkstitch:color_sort_index="6"
          inkstitch:thread_color="#e3a555"/>

    <path id="region_6_5"
          d="M 275.00 646.00 L 279.00 668.00 L 267.00 669.00 L 269.00 677.00 L 277.00 678.00 L 283.00 691.00 L 282.00 729.00 L 272.00 758.00 L 262.00 758.00 L 259.00 766.00 L 265.00 771.00 L 257.00 795.00 L 246.00 812.00 L 233.00 821.00 L 235.00 811.00 L 217.00 809.00 L 209.00 805.00 L 205.00 812.00 L 209.00 821.00 L 216.00 827.00 L 240.00 830.00 L 247.00 834.00 L 345.00 830.00 L 409.00 831.00 L 410.00 819.00 L 398.00 792.00 L 356.00 781.00 L 349.00 775.00 L 355.00 768.00 L 383.00 775.00 L 384.00 767.00 L 364.00 724.00 L 352.00 668.00 L 296.00 649.00 L 288.00 650.00 Z"
          fill="rgb(227,165,85)"
          stroke="rgb(227,165,85)"
          stroke-width="0.5"
          inkstitch:object_type="satin"
          inkstitch:density_mm="0.3"
          inkstitch:angle="0"
          inkstitch:stitch_length_mm="3.0"
          inkstitch:color_sort_index="6"
          inkstitch:thread_color="#e3a555"/>

    <path id="region_6_6"
          d="M 263.00 647.00 L 243.00 647.00 L 239.00 647.00 L 237.00 650.00 Q 230.65 650.60 232.00 650.00 L 228.00 654.00 L 224.00 658.00 L 223.00 658.00 Q 218.80 665.50 220.00 664.00 L 215.00 668.00 L 213.00 675.00 L 208.00 680.00 Q 206.40 687.35 207.00 686.00 L 204.00 689.00 L 203.00 689.00 L 203.00 695.00 Q 199.55 699.05 200.00 698.00 L 200.00 702.00 L 196.00 707.00 L 194.00 713.00 Q 190.25 723.35 191.00 722.00 L 189.00 722.00 L 189.00 732.00 L 187.00 741.00 Q 187.90 749.25 187.00 747.00 L 193.00 756.00 L 196.00 745.00 L 196.00 739.00 Q 199.60 728.90 199.00 731.00 L 200.00 725.00 L 202.00 717.00 L 206.00 709.00 Q 208.45 699.80 208.00 701.00 L 209.00 701.00 L 210.00 697.00 L 211.00 697.00 Q 214.90 688.50 214.00 690.00 L 217.00 687.00 L 221.00 682.00 L 225.00 675.00 Q 226.60 674.25 226.00 675.00 L 229.00 670.00 L 236.00 665.00 L 243.00 664.00 Q 248.75 664.55 248.00 665.00 L 248.00 661.00 L 247.00 661.00 L 245.00 654.00 Q 252.50 650.00 251.00 650.00 L 255.00 654.00 L 255.00 655.00 L 261.00 655.00 L 263.00 651.00 Z"
          fill="rgb(227,165,85)"
          stroke="rgb(227,165,85)"
          stroke-width="0.5"
          inkstitch:object_type="satin"
          inkstitch:density_mm="0.3"
          inkstitch:angle="0"
          inkstitch:stitch_length_mm="3.0"
          inkstitch:color_sort_index="6"
          inkstitch:thread_color="#e3a555"/>

    <path id="region_7_0"
          d="M 597.00 937.00 L 576.00 970.00 L 574.00 980.00 L 609.00 972.00 L 609.00 956.00 L 600.00 943.00 Z"
          fill="rgb(252,229,3)"
          stroke="rgb(252,229,3)"
          stroke-width="0.5"
          inkstitch:object_type="satin"
          inkstitch:density_mm="0.3"
          inkstitch:angle="0"
          inkstitch:stitch_length_mm="3.0"
          inkstitch:color_sort_index="7"
          inkstitch:thread_color="#fce503"/>

    <path id="region_7_1"
          d="M 661.00 914.00 L 661.00 915.00 L 660.00 916.00 L 660.00 925.00 L 659.00 926.00 L 659.00 931.00 L 664.00 931.00 L 664.00 929.00 L 665.00 928.00 L 665.00 914.00 Z"
          fill="rgb(252,229,3)"
          stroke="rgb(252,229,3)"
          stroke-width="0.5"
          inkstitch:object_type="satin"
          inkstitch:density_mm="0.3"
          inkstitch:angle="0"
          inkstitch:stitch_length_mm="3.0"
          inkstitch:color_sort_index="7"
          inkstitch:thread_color="#fce503"/>

    <path id="region_7_2"
          d="M 624.00 902.00 L 608.00 904.00 L 601.00 911.00 L 597.00 922.00 L 609.00 946.00 L 616.00 949.00 L 623.00 907.00 Z"
          fill="rgb(252,229,3)"
          stroke="rgb(252,229,3)"
          stroke-width="0.5"
          inkstitch:object_type="satin"
          inkstitch:density_mm="0.3"
          inkstitch:angle="0"
          inkstitch:stitch_length_mm="3.0"
          inkstitch:color_sort_index="7"
          inkstitch:thread_color="#fce503"/>

    <path id="region_7_3"
          d="M 633.00 899.00 L 631.00 906.00 L 629.00 911.00 L 629.00 915.00 Q 629.70 917.60 630.00 917.00 L 627.00 919.00 L 627.00 923.00 L 625.00 928.00 Q 624.70 933.50 625.00 932.00 L 623.00 938.00 L 623.00 942.00 L 624.00 943.00 Q 621.55 951.05 622.00 950.00 L 621.00 950.00 L 619.00 958.00 L 619.00 963.00 Q 615.40 971.65 616.00 970.00 L 615.00 974.00 L 612.00 976.00 L 605.00 985.00 Q 604.30 991.05 604.00 990.00 L 607.00 992.00 L 620.00 992.00 L 628.00 994.00 Q 632.35 996.60 631.00 996.00 L 637.00 998.00 L 642.00 998.00 L 645.00 1001.00 Q 656.95 1000.70 655.00 1001.00 L 658.00 999.00 L 678.00 998.00 L 683.00 999.00 Q 687.60 999.15 687.00 999.00 L 687.00 1000.00 L 696.00 1000.00 L 703.00 1003.00 Q 707.05 1005.30 706.00 1005.00 L 710.00 1005.00 L 713.00 1008.00 L 719.00 1010.00 Q 727.50 1009.40 726.00 1010.00 L 729.00 1006.00 L 729.00 989.00 L 722.00 984.00 Q 712.75 983.70 715.00 984.00 L 707.00 982.00 L 700.00 985.00 L 697.00 983.00 Q 689.05 983.30 691.00 983.00 L 684.00 985.00 L 672.00 981.00 L 666.00 978.00 Q 657.50 968.90 659.00 971.00 L 656.00 964.00 L 653.00 951.00 L 651.00 933.00 Q 654.45 924.45 654.00 927.00 L 654.00 916.00 L 653.00 915.00 L 654.00 905.00 Q 646.05 900.10 648.00 901.00 L 641.00 899.00 Z"
          fill="rgb(252,229,3)"
          stroke="rgb(252,229,3)"
          stroke-width="0.5"
          inkstitch:object_type="satin"
          inkstitch:density_mm="0.3"
          inkstitch:angle="0"
          inkstitch:stitch_length_mm="3.0"
          inkstitch:color_sort_index="7"
          inkstitch:thread_color="#fce503"/>

    <path id="region_7_4"
          d="M 674.00 771.00 L 672.00 782.00 L 676.00 789.00 L 679.00 793.00 Q 682.20 800.10 681.00 798.00 L 687.00 807.00 L 688.00 810.00 L 692.00 811.00 Q 692.90 817.95 692.00 816.00 L 698.00 824.00 L 700.00 828.00 L 705.00 834.00 Q 709.05 842.10 708.00 840.00 L 712.00 848.00 L 715.00 852.00 L 717.00 857.00 Q 720.75 863.50 720.00 862.00 L 722.00 867.00 L 725.00 871.00 L 727.00 876.00 Q 729.90 882.65 729.00 881.00 L 733.00 887.00 L 734.00 892.00 L 737.00 901.00 Q 742.75 902.10 742.00 903.00 L 742.00 895.00 L 740.00 894.00 L 741.00 886.00 Q 738.55 875.45 739.00 878.00 L 738.00 869.00 L 736.00 864.00 L 735.00 859.00 Q 731.25 846.75 732.00 849.00 L 730.00 844.00 L 729.00 839.00 L 726.00 837.00 Q 725.55 830.05 726.00 832.00 L 723.00 824.00 L 719.00 815.00 L 716.00 807.00 Q 713.10 801.50 714.00 803.00 L 710.00 797.00 L 708.00 793.00 L 705.00 791.00 Q 704.55 788.40 705.00 789.00 L 702.00 787.00 L 699.00 781.00 L 695.00 778.00 Q 690.65 774.25 692.00 775.00 L 686.00 773.00 L 684.00 770.00 L 678.00 770.00 Z"
          fill="rgb(252,229,3)"
          stroke="rgb(252,229,3)"
          stroke-width="0.5"
          inkstitch:object_type="satin"
          inkstitch:density_mm="0.3"
          inkstitch:angle="0"
          inkstitch:stitch_length_mm="3.0"
          inkstitch:color_sort_index="7"
          inkstitch:thread_color="#fce503"/>

    <path id="region_7_5"
          d="M 644.00 764.00 L 634.00 825.00 L 647.00 817.00 L 644.00 827.00 L 600.00 896.00 L 607.00 899.00 L 621.00 894.00 L 647.00 895.00 L 664.00 903.00 L 670.00 895.00 L 673.00 856.00 L 671.00 836.00 L 678.00 842.00 L 679.00 880.00 L 672.00 930.00 L 660.00 947.00 L 660.00 963.00 L 669.00 975.00 L 676.00 978.00 L 718.00 978.00 L 747.00 990.00 L 729.00 894.00 L 716.00 865.00 L 714.00 879.00 L 717.00 903.00 L 681.00 808.00 L 658.00 770.00 L 651.00 766.00 Z"
          fill="rgb(252,229,3)"
          stroke="rgb(252,229,3)"
          stroke-width="0.5"
          inkstitch:object_type="satin"
          inkstitch:density_mm="0.3"
          inkstitch:angle="0"
          inkstitch:stitch_length_mm="3.0"
          inkstitch:color_sort_index="7"
          inkstitch:thread_color="#fce503"/>

    <path id="region_7_6"
          d="M 579.00 734.00 L 579.00 739.00 L 583.00 743.00 L 586.00 748.00 Q 589.75 752.20 589.00 751.00 L 591.00 756.00 L 593.00 760.00 L 597.00 766.00 Q 599.45 772.20 599.00 771.00 L 600.00 774.00 L 603.00 778.00 L 606.00 784.00 Q 609.90 791.35 609.00 790.00 L 612.00 793.00 L 617.00 796.00 L 617.00 800.00 Q 623.95 805.05 622.00 804.00 L 630.00 807.00 L 631.00 799.00 L 633.00 790.00 Q 635.30 782.35 635.00 784.00 L 635.00 779.00 L 637.00 773.00 L 637.00 768.00 Q 629.50 760.65 631.00 762.00 L 627.00 759.00 L 611.00 742.00 L 606.00 740.00 Q 601.95 736.10 603.00 737.00 L 599.00 734.00 L 592.00 732.00 L 592.00 731.00 Q 586.20 731.45 588.00 731.00 L 580.00 734.00 Z"
          fill="rgb(252,229,3)"
          stroke="rgb(252,229,3)"
          stroke-width="0.5"
          inkstitch:object_type="satin"
          inkstitch:density_mm="0.3"
          inkstitch:angle="0"
          inkstitch:stitch_length_mm="3.0"
          inkstitch:color_sort_index="7"
          inkstitch:thread_color="#fce503"/>

    <path id="region_8_0"
          d="M 218.00 793.00 L 226.00 799.00 L 230.00 792.00 L 221.00 792.00 Z"
          fill="rgb(247,197,104)"
          stroke="rgb(247,197,104)"
          stroke-width="0.5"
          inkstitch:object_type="satin"
          inkstitch:density_mm="0.3"
          inkstitch:angle="0"
          inkstitch:stitch_length_mm="3.0"
          inkstitch:color_sort_index="8"
          inkstitch:thread_color="#f7c568"/>

    <path id="region_8_1"
          d="M 694.00 762.00 L 694.00 766.00 L 703.00 773.00 L 706.00 777.00 Q 706.45 778.45 706.00 778.00 L 709.00 780.00 L 711.00 784.00 L 714.00 789.00 Q 721.35 797.80 720.00 796.00 L 723.00 801.00 L 731.00 807.00 L 740.00 818.00 Q 746.50 824.80 745.00 823.00 L 750.00 830.00 L 753.00 833.00 L 753.00 834.00 Q 757.90 835.05 757.00 834.00 L 759.00 841.00 L 762.00 845.00 L 765.00 848.00 Q 771.20 861.55 770.00 859.00 L 773.00 865.00 L 777.00 871.00 L 787.00 881.00 Q 796.65 881.55 795.00 882.00 L 798.00 878.00 L 801.00 871.00 L 804.00 864.00 Q 806.30 856.05 806.00 858.00 L 806.00 851.00 L 805.00 847.00 L 808.00 844.00 Q 808.45 836.80 808.00 838.00 L 811.00 836.00 L 811.00 830.00 L 813.00 818.00 Q 815.30 803.45 815.00 806.00 L 815.00 801.00 L 816.00 785.00 L 814.00 782.00 Q 813.55 776.80 814.00 778.00 L 811.00 774.00 L 811.00 770.00 L 807.00 769.00 Q 801.35 763.10 803.00 764.00 L 796.00 763.00 L 793.00 761.00 L 788.00 761.00 Q 778.20 758.55 783.00 759.00 L 756.00 758.00 L 747.00 760.00 L 721.00 760.00 L 697.00 762.00 Z"
          fill="rgb(247,197,104)"
          stroke="rgb(247,197,104)"
          stroke-width="0.5"
          inkstitch:object_type="satin"
          inkstitch:density_mm="0.3"
          inkstitch:angle="0"
          inkstitch:stitch_length_mm="3.0"
          inkstitch:color_sort_index="8"
          inkstitch:thread_color="#f7c568"/>

    <path id="region_8_2"
          d="M 247.00 754.00 L 238.00 758.00 L 237.00 766.00 L 245.00 765.00 Z"
          fill="rgb(247,197,104)"
          stroke="rgb(247,197,104)"
          stroke-width="0.5"
          inkstitch:object_type="satin"
          inkstitch:density_mm="0.3"
          inkstitch:angle="0"
          inkstitch:stitch_length_mm="3.0"
          inkstitch:color_sort_index="8"
          inkstitch:thread_color="#f7c568"/>

    <path id="region_8_3"
          d="M 232.00 689.00 L 224.00 691.00 L 211.00 730.00 L 235.00 718.00 L 235.00 693.00 Z"
          fill="rgb(247,197,104)"
          stroke="rgb(247,197,104)"
          stroke-width="0.5"
          inkstitch:object_type="satin"
          inkstitch:density_mm="0.3"
          inkstitch:angle="0"
          inkstitch:stitch_length_mm="3.0"
          inkstitch:color_sort_index="8"
          inkstitch:thread_color="#f7c568"/>

    <path id="region_8_4"
          d="M 274.00 647.00 L 279.00 669.00 L 269.00 671.00 L 281.00 681.00 L 284.00 690.00 L 284.00 716.00 L 280.00 746.00 L 271.00 760.00 L 262.00 760.00 L 260.00 771.00 L 269.00 772.00 L 236.00 822.00 L 231.00 815.00 L 234.00 808.00 L 221.00 812.00 L 206.00 808.00 L 210.00 822.00 L 226.00 828.00 L 278.00 834.00 L 409.00 831.00 L 408.00 814.00 L 401.00 800.00 L 393.00 792.00 L 356.00 782.00 L 348.00 775.00 L 351.00 767.00 L 384.00 774.00 L 356.00 699.00 L 354.00 674.00 L 345.00 664.00 L 300.00 651.00 L 291.00 651.00 Z"
          fill="rgb(247,197,104)"
          stroke="rgb(247,197,104)"
          stroke-width="0.5"
          inkstitch:object_type="satin"
          inkstitch:density_mm="0.3"
          inkstitch:angle="0"
          inkstitch:stitch_length_mm="3.0"
          inkstitch:color_sort_index="8"
          inkstitch:thread_color="#f7c568"/>

    <path id="region_8_5"
          d="M 252.00 647.00 L 252.00 651.00 L 253.00 652.00 L 254.00 652.00 L 256.00 654.00 L 260.00 654.00 L 260.00 650.00 L 259.00 649.00 L 259.00 647.00 Z"
          fill="rgb(247,197,104)"
          stroke="rgb(247,197,104)"
          stroke-width="0.5"
          inkstitch:object_type="satin"
          inkstitch:density_mm="0.3"
          inkstitch:angle="0"
          inkstitch:stitch_length_mm="3.0"
          inkstitch:color_sort_index="8"
          inkstitch:thread_color="#f7c568"/>

    <path id="region_8_6"
          d="M 248.00 647.00 L 242.00 647.00 L 238.00 649.00 L 233.00 651.00 Q 222.90 660.10 225.00 658.00 L 219.00 665.00 L 216.00 671.00 L 213.00 674.00 Q 210.25 680.20 211.00 679.00 L 208.00 682.00 L 206.00 688.00 L 205.00 688.00 Q 202.40 699.50 203.00 698.00 L 201.00 698.00 L 199.00 703.00 L 198.00 703.00 Q 195.40 710.80 196.00 709.00 L 194.00 715.00 L 192.00 721.00 L 190.00 726.00 Q 187.70 738.20 188.00 734.00 L 188.00 754.00 L 193.00 755.00 L 193.00 748.00 Q 196.60 735.35 196.00 737.00 L 197.00 737.00 L 197.00 732.00 L 199.00 727.00 Q 200.60 720.05 200.00 722.00 L 203.00 714.00 L 206.00 707.00 L 206.00 703.00 Q 210.05 694.20 209.00 696.00 L 213.00 691.00 L 217.00 685.00 L 219.00 681.00 Q 227.25 671.60 225.00 674.00 L 234.00 665.00 L 239.00 663.00 L 246.00 663.00 Q 245.55 657.95 246.00 659.00 L 243.00 656.00 L 248.00 651.00 Z"
          fill="rgb(247,197,104)"
          stroke="rgb(247,197,104)"
          stroke-width="0.5"
          inkstitch:object_type="satin"
          inkstitch:density_mm="0.3"
          inkstitch:angle="0"
          inkstitch:stitch_length_mm="3.0"
          inkstitch:color_sort_index="8"
          inkstitch:thread_color="#f7c568"/>

    <path id="region_9_0"
          d="M 757.00 1491.00 L 749.00 1490.00 L 743.00 1490.00 L 732.00 1492.00 Q 724.15 1492.30 727.00 1492.00 L 713.00 1494.00 L 691.00 1494.00 L 684.00 1493.00 Q 676.20 1491.85 678.00 1492.00 L 672.00 1492.00 L 665.00 1490.00 L 657.00 1490.00 Q 653.25 1499.95 654.00 1498.00 L 652.00 1503.00 L 652.00 1507.00 L 650.00 1513.00 Q 649.70 1521.55 650.00 1519.00 L 648.00 1530.00 L 647.00 1539.00 L 645.00 1546.00 Q 644.85 1551.80 645.00 1550.00 L 644.00 1558.00 L 648.00 1558.00 L 654.00 1554.00 Q 658.45 1557.50 658.00 1556.00 L 657.00 1564.00 L 656.00 1573.00 L 660.00 1573.00 Q 665.95 1568.80 664.00 1570.00 L 673.00 1565.00 L 678.00 1567.00 L 683.00 1573.00 Q 688.50 1572.55 687.00 1573.00 L 693.00 1570.00 L 701.00 1569.00 L 719.00 1571.00 Q 723.75 1570.85 723.00 1571.00 L 724.00 1570.00 L 729.00 1572.00 L 740.00 1572.00 Q 743.10 1571.00 741.00 1571.00 L 754.00 1572.00 L 757.00 1501.00 Z"
          fill="rgb(6,83,25)"
          stroke="rgb(6,83,25)"
          stroke-width="0.5"
          inkstitch:object_type="fill"
          inkstitch:density_mm="0.4"
          inkstitch:angle="45"
          inkstitch:stitch_length_mm="2.5"
          inkstitch:color_sort_index="9"
          inkstitch:thread_color="#065319"/>

    <path id="region_9_1"
          d="M 495.00 1448.00 L 490.00 1448.00 L 487.00 1451.00 L 468.00 1463.00 Q 473.35 1447.10 472.00 1451.00 L 477.00 1437.00 L 473.00 1437.00 L 470.00 1440.00 Q 466.05 1441.20 468.00 1440.00 L 457.00 1448.00 L 454.00 1451.00 L 447.00 1453.00 Q 439.20 1453.85 441.00 1454.00 L 435.00 1452.00 L 431.00 1452.00 L 424.00 1450.00 Q 415.20 1448.55 417.00 1449.00 L 412.00 1447.00 L 406.00 1447.00 L 395.00 1443.00 Q 387.50 1444.20 389.00 1443.00 L 385.00 1451.00 L 376.00 1464.00 L 374.00 1469.00 Q 364.90 1479.70 367.00 1477.00 L 360.00 1487.00 L 360.00 1491.00 L 364.00 1491.00 Q 370.50 1487.85 369.00 1488.00 L 374.00 1490.00 L 373.00 1494.00 L 364.00 1505.00 Q 361.70 1510.20 362.00 1509.00 L 362.00 1513.00 L 371.00 1518.00 L 376.00 1524.00 Q 394.85 1535.95 392.00 1534.00 L 395.00 1537.00 L 401.00 1540.00 L 407.00 1540.00 Q 416.65 1532.50 415.00 1534.00 L 418.00 1530.00 L 429.00 1524.00 L 434.00 1520.00 Q 438.90 1519.45 438.00 1519.00 L 440.00 1523.00 L 438.00 1527.00 L 437.00 1539.00 Q 442.35 1538.70 441.00 1539.00 L 446.00 1537.00 L 449.00 1544.00 L 454.00 1556.00 Q 473.90 1515.95 470.00 1523.00 L 480.00 1509.00 L 488.00 1494.00 L 493.00 1488.00 Q 495.75 1481.80 495.00 1483.00 L 498.00 1480.00 L 500.00 1476.00 L 500.00 1469.00 Q 496.10 1464.65 497.00 1466.00 L 494.00 1460.00 Z"
          fill="rgb(6,83,25)"
          stroke="rgb(6,83,25)"
          stroke-width="0.5"
          inkstitch:object_type="fill"
          inkstitch:density_mm="0.4"
          inkstitch:angle="45"
          inkstitch:stitch_length_mm="2.5"
          inkstitch:color_sort_index="9"
          inkstitch:thread_color="#065319"/>

    <path id="region_9_2"
          d="M 333.00 555.00 L 332.00 566.00 L 341.00 565.00 L 337.00 555.00 Z"
          fill="rgb(6,83,25)"
          stroke="rgb(6,83,25)"
          stroke-width="0.5"
          inkstitch:object_type="fill"
          inkstitch:density_mm="0.4"
          inkstitch:angle="45"
          inkstitch:stitch_length_mm="2.5"
          inkstitch:color_sort_index="9"
          inkstitch:thread_color="#065319"/>

    <path id="region_9_3"
          d="M 291.00 540.00 L 264.00 544.00 L 269.00 551.00 L 279.00 552.00 L 286.00 548.00 Z"
          fill="rgb(6,83,25)"
          stroke="rgb(6,83,25)"
          stroke-width="0.5"
          inkstitch:object_type="fill"
          inkstitch:density_mm="0.4"
          inkstitch:angle="45"
          inkstitch:stitch_length_mm="2.5"
          inkstitch:color_sort_index="9"
          inkstitch:thread_color="#065319"/>

    <path id="region_9_4"
          d="M 915.00 539.00 L 921.00 566.00 L 932.00 572.00 L 938.00 564.00 L 923.00 543.00 Z"
          fill="rgb(6,83,25)"
          stroke="rgb(6,83,25)"
          stroke-width="0.5"
          inkstitch:object_type="fill"
          inkstitch:density_mm="0.4"
          inkstitch:angle="45"
          inkstitch:stitch_length_mm="2.5"
          inkstitch:color_sort_index="9"
          inkstitch:thread_color="#065319"/>

    <path id="region_9_5"
          d="M 963.00 495.00 L 963.00 500.00 L 966.00 505.00 L 969.00 509.00 Q 971.75 516.80 971.00 515.00 L 974.00 521.00 L 977.00 526.00 L 978.00 531.00 Q 981.75 537.95 981.00 536.00 L 983.00 544.00 L 986.00 550.00 L 986.00 551.00 Q 995.95 550.70 994.00 551.00 L 999.00 549.00 L 1005.00 547.00 L 1009.00 544.00 Q 1009.90 523.70 1009.00 527.00 L 1015.00 522.00 L 1020.00 524.00 L 1020.00 518.00 Q 1030.55 513.30 1028.00 513.00 L 1037.00 520.00 L 1047.00 526.00 L 1059.00 533.00 Q 1062.60 529.55 1062.00 530.00 L 1063.00 530.00 L 1071.00 525.00 L 1079.00 522.00 Q 1085.20 519.40 1084.00 520.00 L 1087.00 518.00 L 1094.00 515.00 L 1098.00 513.00 Q 1096.95 508.10 1098.00 509.00 L 1091.00 507.00 L 1085.00 507.00 L 1077.00 505.00 Q 1063.00 501.55 1066.00 502.00 L 1057.00 502.00 L 1050.00 500.00 L 1046.00 500.00 Q 1037.05 497.70 1039.00 498.00 L 1033.00 498.00 L 1027.00 496.00 L 1022.00 496.00 Q 1014.50 493.70 1016.00 494.00 L 1012.00 494.00 L 1007.00 492.00 L 1003.00 492.00 Q 994.90 489.40 997.00 490.00 L 989.00 488.00 L 982.00 487.00 L 974.00 485.00 Q 969.40 485.60 970.00 485.00 L 970.00 489.00 L 966.00 494.00 Z"
          fill="rgb(6,83,25)"
          stroke="rgb(6,83,25)"
          stroke-width="0.5"
          inkstitch:object_type="fill"
          inkstitch:density_mm="0.4"
          inkstitch:angle="45"
          inkstitch:stitch_length_mm="2.5"
          inkstitch:color_sort_index="9"
          inkstitch:thread_color="#065319"/>

    <path id="region_10_0"
          d="M 790.00 924.00 L 792.00 933.00 L 803.00 931.00 L 799.00 924.00 Z"
          fill="rgb(246,211,128)"
          stroke="rgb(246,211,128)"
          stroke-width="0.5"
          inkstitch:object_type="satin"
          inkstitch:density_mm="0.3"
          inkstitch:angle="0"
          inkstitch:stitch_length_mm="3.0"
          inkstitch:color_sort_index="10"
          inkstitch:thread_color="#f6d380"/>

    <path id="region_10_1"
          d="M 768.00 889.00 L 772.00 896.00 L 780.00 896.00 L 776.00 889.00 Z"
          fill="rgb(246,211,128)"
          stroke="rgb(246,211,128)"
          stroke-width="0.5"
          inkstitch:object_type="satin"
          inkstitch:density_mm="0.3"
          inkstitch:angle="0"
          inkstitch:stitch_length_mm="3.0"
          inkstitch:color_sort_index="10"
          inkstitch:thread_color="#f6d380"/>

    <path id="region_10_2"
          d="M 655.00 749.00 L 659.00 757.00 L 667.00 759.00 L 668.00 751.00 Z"
          fill="rgb(246,211,128)"
          stroke="rgb(246,211,128)"
          stroke-width="0.5"
          inkstitch:object_type="satin"
          inkstitch:density_mm="0.3"
          inkstitch:angle="0"
          inkstitch:stitch_length_mm="3.0"
          inkstitch:color_sort_index="10"
          inkstitch:thread_color="#f6d380"/>

    <path id="region_10_3"
          d="M 632.00 745.00 L 638.00 752.00 L 648.00 753.00 L 642.00 747.00 Z"
          fill="rgb(246,211,128)"
          stroke="rgb(246,211,128)"
          stroke-width="0.5"
          inkstitch:object_type="satin"
          inkstitch:density_mm="0.3"
          inkstitch:angle="0"
          inkstitch:stitch_length_mm="3.0"
          inkstitch:color_sort_index="10"
          inkstitch:thread_color="#f6d380"/>

    <path id="region_10_4"
          d="M 893.00 538.00 L 877.00 518.00 L 877.00 538.00 L 871.00 557.00 L 854.00 575.00 L 834.00 587.00 L 854.00 604.00 L 839.00 619.00 L 802.00 636.00 L 791.00 646.00 L 781.00 639.00 L 785.00 628.00 L 794.00 626.00 L 818.00 610.00 L 828.00 609.00 L 833.00 600.00 L 808.00 592.00 L 789.00 579.00 L 787.00 571.00 L 773.00 554.00 L 765.00 536.00 L 757.00 529.00 L 758.00 519.00 L 765.00 516.00 L 768.00 489.00 L 748.00 481.00 L 748.00 489.00 L 740.00 494.00 L 701.00 496.00 L 699.00 528.00 L 688.00 554.00 L 675.00 566.00 L 666.00 570.00 L 658.00 579.00 L 650.00 577.00 L 621.00 586.00 L 605.00 582.00 L 599.00 577.00 L 591.00 576.00 L 566.00 561.00 L 547.00 529.00 L 545.00 514.00 L 536.00 515.00 L 516.00 532.00 L 516.00 550.00 L 507.00 565.00 L 505.00 596.00 L 493.00 600.00 L 499.00 610.00 L 508.00 641.00 L 524.00 660.00 L 533.00 666.00 L 539.00 675.00 L 547.00 679.00 L 563.00 698.00 L 582.00 710.00 L 620.00 723.00 L 642.00 734.00 L 657.00 732.00 L 717.00 737.00 L 750.00 727.00 L 766.00 726.00 L 776.00 720.00 L 789.00 718.00 L 844.00 680.00 L 861.00 663.00 L 860.00 655.00 L 876.00 642.00 L 889.00 614.00 L 888.00 606.00 L 894.00 601.00 L 897.00 554.00 L 892.00 546.00 Z"
          fill="rgb(246,211,128)"
          stroke="rgb(246,211,128)"
          stroke-width="0.5"
          inkstitch:object_type="satin"
          inkstitch:density_mm="0.3"
          inkstitch:angle="0"
          inkstitch:stitch_length_mm="3.0"
          inkstitch:color_sort_index="10"
          inkstitch:thread_color="#f6d380"/>

    <path id="region_10_5"
          d="M 559.00 473.00 L 555.00 473.00 L 553.00 478.00 L 550.00 478.00 Q 535.60 479.70 538.00 480.00 L 534.00 476.00 L 525.00 475.00 L 523.00 478.00 Q 521.85 479.20 522.00 478.00 L 522.00 486.00 L 519.00 492.00 L 518.00 492.00 Q 515.40 496.60 516.00 496.00 L 514.00 496.00 L 514.00 500.00 L 508.00 504.00 Q 506.65 512.05 508.00 511.00 L 499.00 511.00 L 497.00 518.00 L 509.00 518.00 Q 515.05 513.40 514.00 514.00 L 516.00 514.00 L 517.00 512.00 L 522.00 513.00 Q 528.50 501.90 527.00 504.00 L 532.00 499.00 L 536.00 496.00 L 537.00 496.00 Q 543.35 489.95 542.00 491.00 L 546.00 489.00 L 550.00 486.00 L 556.00 482.00 L 558.00 480.00 Z"
          fill="rgb(246,211,128)"
          stroke="rgb(246,211,128)"
          stroke-width="0.5"
          inkstitch:object_type="satin"
          inkstitch:density_mm="0.3"
          inkstitch:angle="0"
          inkstitch:stitch_length_mm="3.0"
          inkstitch:color_sort_index="10"
          inkstitch:thread_color="#f6d380"/>

    <path id="region_10_6"
          d="M 490.00 455.00 L 485.00 457.00 L 480.00 461.00 L 477.00 466.00 Q 469.65 472.35 471.00 471.00 L 468.00 475.00 L 468.00 486.00 L 476.00 488.00 Q 476.75 489.45 476.00 489.00 L 481.00 491.00 L 485.00 500.00 L 481.00 505.00 Q 498.25 505.40 496.00 506.00 L 496.00 501.00 L 500.00 496.00 L 504.00 491.00 Q 507.60 479.00 507.00 482.00 L 508.00 471.00 L 504.00 466.00 L 499.00 466.00 L 494.00 458.00 Z"
          fill="rgb(246,211,128)"
          stroke="rgb(246,211,128)"
          stroke-width="0.5"
          inkstitch:object_type="satin"
          inkstitch:density_mm="0.3"
          inkstitch:angle="0"
          inkstitch:stitch_length_mm="3.0"
          inkstitch:color_sort_index="10"
          inkstitch:thread_color="#f6d380"/>

    <path id="region_10_7"
          d="M 562.00 441.00 L 554.00 442.00 L 550.00 449.00 L 559.00 456.00 Z"
          fill="rgb(246,211,128)"
          stroke="rgb(246,211,128)"
          stroke-width="0.5"
          inkstitch:object_type="satin"
          inkstitch:density_mm="0.3"
          inkstitch:angle="0"
          inkstitch:stitch_length_mm="3.0"
          inkstitch:color_sort_index="10"
          inkstitch:thread_color="#f6d380"/>

    <path id="region_10_8"
          d="M 515.00 436.00 L 515.00 442.00 L 516.00 443.00 L 521.00 443.00 L 522.00 442.00 L 522.00 438.00 L 521.00 437.00 L 521.00 436.00 Z"
          fill="rgb(246,211,128)"
          stroke="rgb(246,211,128)"
          stroke-width="0.5"
          inkstitch:object_type="satin"
          inkstitch:density_mm="0.3"
          inkstitch:angle="0"
          inkstitch:stitch_length_mm="3.0"
          inkstitch:color_sort_index="10"
          inkstitch:thread_color="#f6d380"/>

  </g>
</svg>