<?xml version="1.0" encoding="UTF-8"?>
<svg width="267" height="400" viewBox="0 0 267 400" 
     xmlns="http://www.w3.org/2000/svg"
     xmlns:inkscape="http://www.inkscape.org/namespaces/inkscape"
     xmlns:inkstitch="http://inkstitch.org/namespace">
  <title>Ultra High-Quality Vector Art - AI Enhanced</title>
  <defs>
    <style>
      .ultra-vector-path {
        stroke-width: 0.05;
        stroke-linejoin: round;
        stroke-linecap: round;
        fill-opacity: 1.0;
        stroke-opacity: 0.8;
        shape-rendering: geometricPrecision;
        vector-effect: non-scaling-stroke;
      }
    </style>
  </defs>
  <g inkscape:label="Ultra Vector Shapes" inkscape:groupmode="layer">
    <path id="ultra-vector-path-0" 
          d="M 149.000 350.000 L 148.000 351.000 L 148.000 359.000 L 147.000 360.000 L 147.000 363.000 L 146.000 364.000 L 146.000 367.000 L 145.000 368.000 L 145.000 370.000 L 144.000 371.000 L 144.000 372.000 L 143.000 373.000 L 143.000 375.000 L 142.000 376.000 L 142.000 377.000 L 141.000 378.000 L 141.000 379.000 L 140.000 380.000 L 140.000 387.000 L 141.000 388.000 L 141.000 391.000 L 142.000 392.000 L 142.000 394.000 L 144.000 396.000 L 145.000 396.000 L 146.000 397.000 L 149.000 397.000 L 150.000 396.000 L 152.000 396.000 L 154.000 394.000 L 154.000 392.000 L 155.000 391.000 L 157.000 391.000 L 159.000 393.000 L 159.000 394.000 L 160.000 395.000 L 161.000 395.000 L 162.000 396.000 L 162.000 397.000 L 163.000 397.000 L 164.000 398.000 L 165.000 398.000 L 166.000 397.000 L 170.000 397.000 L 171.000 398.000 L 178.000 398.000 L 178.000 396.000 L 179.000 395.000 L 182.000 395.000 L 183.000 396.000 L 183.000 397.000 L 184.000 397.000 L 184.000 395.000 L 185.000 394.000 L 186.000 394.000 L 186.000 393.000 L 187.000 392.000 L 187.000 391.000 L 188.000 390.000 L 188.000 383.000 L 187.000 383.000 L 186.000 382.000 L 186.000 381.000 L 185.000 381.000 L 184.000 380.000 L 184.000 379.000 L 174.000 379.000 L 173.000 380.000 L 168.000 380.000 L 168.000 382.000 L 167.000 383.000 L 166.000 383.000 L 164.000 385.000 L 161.000 385.000 L 160.000 384.000 L 160.000 380.000 L 162.000 378.000 L 162.000 377.000 L 155.000 377.000 L 154.000 376.000 L 154.000 373.000 L 155.000 372.000 L 156.000 372.000 L 157.000 371.000 L 158.000 371.000 L 159.000 370.000 L 160.000 370.000 L 160.000 368.000 L 159.000 367.000 L 155.000 367.000 L 154.000 366.000 L 153.000 366.000 L 152.000 365.000 L 152.000 363.000 L 154.000 361.000 L 155.000 361.000 L 156.000 360.000 L 158.000 360.000 L 159.000 361.000 L 160.000 360.000 L 160.000 357.000 L 154.000 357.000 L 153.000 356.000 L 153.000 353.000 L 155.000 351.000 L 161.000 351.000 L 150.000 351.000 Z" 
          class="ultra-vector-path"
          style="fill: rgb(111,106,0); stroke: rgb(111,106,0); fill-rule: evenodd;"
          inkstitch:fill="1"
          inkstitch:color="#6f6a00"
          inkstitch:angle="60"
          inkstitch:row_spacing_mm="0.4"
          inkstitch:end_row_spacing_mm="0.4"
          inkstitch:max_stitch_length_mm="3.0"
          inkstitch:staggers="4"
          inkstitch:skip_last="0"
          inkstitch:underpath="1"
          inkstitch:pull_compensation_mm="0.2"
          inkstitch:expand_mm="0.1"
          inkstitch:clockwise="true"
          data-quality="ultra-high"
          data-density="medium-high" />
    <path id="ultra-vector-path-1" 
          d="M 83.000 341.000 L 81.000 343.000 L 81.000 345.000 L 80.000 346.000 L 79.000 346.000 L 78.000 347.000 L 78.000 349.000 L 77.000 350.000 L 76.000 350.000 L 71.000 355.000 L 71.000 356.000 L 69.000 358.000 L 68.000 358.000 L 66.000 360.000 L 66.000 362.000 L 65.000 363.000 L 64.000 363.000 L 64.000 364.000 L 63.000 365.000 L 63.000 368.000 L 62.000 369.000 L 62.000 372.000 L 61.000 373.000 L 61.000 375.000 L 62.000 376.000 L 62.000 377.000 L 63.000 377.000 L 64.000 378.000 L 65.000 378.000 L 66.000 379.000 L 66.000 380.000 L 72.000 380.000 L 73.000 381.000 L 73.000 382.000 L 74.000 383.000 L 74.000 386.000 L 75.000 387.000 L 75.000 388.000 L 76.000 388.000 L 79.000 391.000 L 79.000 392.000 L 80.000 392.000 L 81.000 393.000 L 82.000 393.000 L 83.000 394.000 L 84.000 394.000 L 85.000 395.000 L 86.000 395.000 L 87.000 396.000 L 89.000 396.000 L 90.000 397.000 L 93.000 397.000 L 94.000 398.000 L 95.000 398.000 L 96.000 397.000 L 98.000 397.000 L 98.000 396.000 L 100.000 394.000 L 100.000 393.000 L 101.000 392.000 L 101.000 391.000 L 102.000 390.000 L 102.000 385.000 L 101.000 384.000 L 101.000 383.000 L 100.000 383.000 L 98.000 381.000 L 98.000 379.000 L 97.000 378.000 L 95.000 378.000 L 94.000 377.000 L 94.000 376.000 L 91.000 376.000 L 89.000 374.000 L 88.000 374.000 L 87.000 375.000 L 86.000 375.000 L 85.000 376.000 L 80.000 376.000 L 79.000 375.000 L 79.000 373.000 L 82.000 370.000 L 84.000 370.000 L 85.000 369.000 L 87.000 369.000 L 87.000 368.000 L 86.000 367.000 L 81.000 367.000 L 79.000 365.000 L 79.000 363.000 L 81.000 361.000 L 82.000 361.000 L 83.000 360.000 L 87.000 360.000 L 89.000 358.000 L 87.000 358.000 L 86.000 357.000 L 85.000 357.000 L 83.000 355.000 L 83.000 352.000 L 85.000 350.000 L 88.000 350.000 L 89.000 351.000 L 90.000 351.000 L 91.000 352.000 L 92.000 351.000 L 91.000 350.000 L 89.000 350.000 L 87.000 348.000 L 87.000 345.000 L 88.000 344.000 L 93.000 344.000 L 94.000 345.000 L 97.000 345.000 L 97.000 344.000 L 96.000 344.000 L 95.000 343.000 L 95.000 341.000 L 94.000 341.000 L 91.000 344.000 L 88.000 344.000 L 87.000 343.000 L 86.000 343.000 L 84.000 341.000 Z" 
          class="ultra-vector-path"
          style="fill: rgb(111,106,0); stroke: rgb(111,106,0); fill-rule: evenodd;"
          inkstitch:fill="1"
          inkstitch:color="#6f6a00"
          inkstitch:angle="90"
          inkstitch:row_spacing_mm="0.4"
          inkstitch:end_row_spacing_mm="0.4"
          inkstitch:max_stitch_length_mm="3.0"
          inkstitch:staggers="4"
          inkstitch:skip_last="0"
          inkstitch:underpath="1"
          inkstitch:pull_compensation_mm="0.2"
          inkstitch:expand_mm="0.1"
          inkstitch:clockwise="true"
          data-quality="ultra-high"
          data-density="medium-high" />
    <path id="ultra-vector-path-2" 
          d="M 76.000 116.000 L 75.000 121.000 L 78.000 122.000 L 80.000 126.000 L 84.000 129.000 L 80.000 140.000 L 81.000 149.000 L 79.000 150.000 L 81.000 151.000 L 83.000 161.000 L 88.000 172.000 L 92.000 174.000 L 91.000 179.000 L 92.000 183.000 L 94.000 184.000 L 94.000 187.000 L 90.000 189.000 L 80.000 187.000 L 65.000 189.000 L 61.000 193.000 L 58.000 193.000 L 58.000 195.000 L 53.000 199.000 L 48.000 201.000 L 48.000 203.000 L 44.000 205.000 L 42.000 211.000 L 37.000 213.000 L 37.000 215.000 L 35.000 216.000 L 34.000 221.000 L 31.000 223.000 L 32.000 224.000 L 31.000 229.000 L 33.000 230.000 L 33.000 232.000 L 31.000 233.000 L 31.000 239.000 L 33.000 240.000 L 33.000 243.000 L 31.000 244.000 L 32.000 249.000 L 36.000 255.000 L 36.000 253.000 L 39.000 251.000 L 37.000 244.000 L 39.000 242.000 L 39.000 239.000 L 42.000 238.000 L 44.000 245.000 L 50.000 247.000 L 50.000 252.000 L 46.000 256.000 L 41.000 255.000 L 45.000 257.000 L 44.000 260.000 L 41.000 260.000 L 43.000 262.000 L 43.000 266.000 L 27.000 282.000 L 25.000 286.000 L 27.000 287.000 L 26.000 290.000 L 37.000 303.000 L 49.000 308.000 Q 57.100 314.000 63.000 308.000 L 69.000 309.000 L 72.000 312.000 L 70.000 321.000 L 72.000 322.000 L 77.000 320.000 L 83.000 321.000 L 85.000 318.000 L 100.000 321.000 L 105.000 317.000 L 107.000 317.000 L 109.000 320.000 L 112.000 321.000 L 114.000 327.000 L 120.000 330.000 L 123.000 330.000 L 125.000 327.000 L 144.000 327.000 L 150.000 330.000 L 165.000 329.000 L 186.000 330.000 L 188.000 325.000 L 185.000 276.000 L 184.000 270.000 L 182.000 269.000 L 182.000 257.000 L 180.000 256.000 L 178.000 234.000 L 175.000 226.000 L 176.000 215.000 L 175.000 213.000 L 172.000 212.000 L 169.000 202.000 L 166.000 198.000 L 166.000 195.000 L 170.000 194.000 L 167.000 188.000 L 164.000 187.000 L 164.000 184.000 L 162.000 184.000 L 159.000 179.000 L 159.000 182.000 L 162.000 186.000 L 162.000 188.000 L 159.000 189.000 L 149.000 174.000 L 149.000 172.000 L 147.000 172.000 L 153.000 183.000 L 152.000 186.000 L 149.000 185.000 L 148.000 188.000 L 149.000 199.000 L 146.000 200.000 L 140.000 197.000 L 136.000 198.000 L 135.000 195.000 L 144.000 181.000 L 141.000 180.000 L 143.000 170.000 L 140.000 169.000 L 141.000 175.000 L 137.000 177.000 L 131.000 168.000 L 131.000 165.000 L 134.000 163.000 L 131.000 162.000 L 130.000 164.000 L 125.000 163.000 L 119.000 164.000 L 116.000 161.000 L 111.000 150.000 L 108.000 148.000 L 109.000 140.000 L 107.000 139.000 Q 107.900 125.300 113.000 121.000 L 108.000 116.000 L 105.000 115.000 L 102.000 110.000 L 96.000 110.000 L 94.000 112.000 L 84.000 114.000 L 81.000 117.000 Z" 
          class="ultra-vector-path"
          style="fill: rgb(111,106,0); stroke: rgb(111,106,0); fill-rule: evenodd;"
          inkstitch:fill="1"
          inkstitch:color="#6f6a00"
          inkstitch:angle="120"
          inkstitch:row_spacing_mm="0.4"
          inkstitch:end_row_spacing_mm="0.4"
          inkstitch:max_stitch_length_mm="3.0"
          inkstitch:staggers="4"
          inkstitch:skip_last="0"
          inkstitch:underpath="1"
          inkstitch:pull_compensation_mm="0.2"
          inkstitch:expand_mm="0.1"
          inkstitch:clockwise="true"
          data-quality="ultra-high"
          data-density="medium-high" />
    <path id="ultra-vector-path-3" 
          d="M 149.000 349.000 L 148.000 350.000 L 148.000 358.000 L 147.000 359.000 L 147.000 364.000 L 146.000 365.000 L 146.000 367.000 L 145.000 368.000 L 145.000 370.000 L 144.000 371.000 L 144.000 372.000 L 143.000 373.000 L 143.000 375.000 L 142.000 376.000 L 142.000 377.000 L 141.000 378.000 L 141.000 379.000 L 140.000 380.000 L 140.000 388.000 L 141.000 389.000 L 141.000 391.000 L 142.000 392.000 L 142.000 394.000 L 143.000 395.000 L 143.000 396.000 L 144.000 397.000 L 145.000 397.000 L 146.000 398.000 L 148.000 398.000 L 150.000 396.000 L 153.000 396.000 L 154.000 395.000 L 154.000 394.000 L 156.000 392.000 L 158.000 392.000 L 159.000 393.000 L 159.000 394.000 L 162.000 397.000 L 163.000 397.000 L 164.000 398.000 L 183.000 398.000 L 184.000 397.000 L 186.000 397.000 L 187.000 396.000 L 187.000 395.000 L 188.000 394.000 L 188.000 393.000 L 189.000 392.000 L 189.000 383.000 L 188.000 382.000 L 188.000 381.000 L 186.000 379.000 L 185.000 379.000 L 184.000 378.000 L 176.000 378.000 L 175.000 379.000 L 169.000 379.000 L 167.000 377.000 L 164.000 377.000 L 163.000 376.000 L 162.000 376.000 L 161.000 377.000 L 156.000 377.000 L 155.000 376.000 L 155.000 373.000 L 156.000 372.000 L 157.000 372.000 L 158.000 371.000 L 160.000 371.000 L 161.000 370.000 L 160.000 369.000 L 160.000 367.000 L 159.000 366.000 L 154.000 366.000 L 153.000 365.000 L 153.000 362.000 L 154.000 361.000 L 159.000 361.000 L 161.000 359.000 L 161.000 357.000 L 160.000 356.000 L 155.000 356.000 L 154.000 355.000 L 154.000 353.000 L 155.000 352.000 L 156.000 352.000 L 157.000 351.000 L 159.000 351.000 L 160.000 352.000 L 161.000 351.000 L 160.000 350.000 L 159.000 351.000 L 157.000 351.000 L 156.000 350.000 L 154.000 350.000 L 153.000 351.000 L 151.000 351.000 Z" 
          class="ultra-vector-path"
          style="fill: rgb(138,66,18); stroke: rgb(138,66,18); fill-rule: evenodd;"
          inkstitch:fill="1"
          inkstitch:color="#8a4212"
          inkstitch:angle="150"
          inkstitch:row_spacing_mm="0.4"
          inkstitch:end_row_spacing_mm="0.4"
          inkstitch:max_stitch_length_mm="3.0"
          inkstitch:staggers="4"
          inkstitch:skip_last="0"
          inkstitch:underpath="1"
          inkstitch:pull_compensation_mm="0.2"
          inkstitch:expand_mm="0.1"
          inkstitch:clockwise="true"
          data-quality="ultra-high"
          data-density="medium-high" />
    <path id="ultra-vector-path-4" 
          d="M 84.000 340.000 L 81.000 343.000 L 81.000 344.000 L 78.000 347.000 L 78.000 348.000 L 66.000 360.000 L 66.000 361.000 L 64.000 363.000 L 64.000 364.000 L 63.000 365.000 L 63.000 368.000 L 62.000 369.000 L 62.000 372.000 L 61.000 373.000 L 61.000 375.000 L 62.000 376.000 L 62.000 377.000 L 63.000 378.000 L 63.000 379.000 L 64.000 380.000 L 67.000 380.000 L 68.000 381.000 L 72.000 381.000 L 73.000 382.000 L 73.000 383.000 L 74.000 384.000 L 74.000 386.000 L 75.000 387.000 L 75.000 388.000 L 80.000 393.000 L 81.000 393.000 L 82.000 394.000 L 83.000 394.000 L 84.000 395.000 L 85.000 395.000 L 86.000 396.000 L 88.000 396.000 L 89.000 397.000 L 91.000 397.000 L 92.000 398.000 L 97.000 398.000 L 98.000 397.000 L 98.000 396.000 L 102.000 392.000 L 102.000 391.000 L 103.000 390.000 L 103.000 386.000 L 102.000 385.000 L 102.000 384.000 L 101.000 383.000 L 101.000 382.000 L 94.000 375.000 L 91.000 375.000 L 89.000 373.000 L 87.000 375.000 L 86.000 375.000 L 85.000 376.000 L 80.000 376.000 L 79.000 375.000 L 79.000 373.000 L 81.000 371.000 L 83.000 371.000 L 84.000 370.000 L 86.000 370.000 L 87.000 369.000 L 89.000 369.000 L 88.000 368.000 L 88.000 366.000 L 81.000 366.000 L 80.000 365.000 L 80.000 363.000 L 82.000 361.000 L 88.000 361.000 L 89.000 360.000 L 89.000 358.000 L 88.000 357.000 L 87.000 357.000 L 86.000 356.000 L 85.000 356.000 L 83.000 354.000 L 83.000 352.000 L 84.000 351.000 L 89.000 351.000 L 90.000 352.000 L 92.000 352.000 L 93.000 351.000 L 92.000 350.000 L 91.000 350.000 L 90.000 349.000 L 89.000 349.000 L 87.000 347.000 L 87.000 345.000 L 88.000 344.000 L 92.000 344.000 L 93.000 345.000 L 97.000 345.000 L 97.000 344.000 L 96.000 344.000 L 95.000 343.000 L 95.000 341.000 L 94.000 341.000 L 91.000 344.000 L 88.000 344.000 Z" 
          class="ultra-vector-path"
          style="fill: rgb(138,66,18); stroke: rgb(138,66,18); fill-rule: evenodd;"
          inkstitch:fill="1"
          inkstitch:color="#8a4212"
          inkstitch:angle="180"
          inkstitch:row_spacing_mm="0.4"
          inkstitch:end_row_spacing_mm="0.4"
          inkstitch:max_stitch_length_mm="3.0"
          inkstitch:staggers="4"
          inkstitch:skip_last="0"
          inkstitch:underpath="1"
          inkstitch:pull_compensation_mm="0.2"
          inkstitch:expand_mm="0.1"
          inkstitch:clockwise="true"
          data-quality="ultra-high"
          data-density="medium-high" />
    <path id="ultra-vector-path-5" 
          d="M 77.000 115.000 L 75.000 117.000 L 75.000 121.000 L 78.000 122.000 Q 84.450 131.250 81.000 137.000 L 81.000 149.000 L 79.000 150.000 L 82.000 151.000 L 82.000 155.000 L 80.000 156.000 L 83.000 157.000 L 83.000 159.000 L 81.000 160.000 L 84.000 161.000 L 83.000 165.000 L 85.000 165.000 L 88.000 171.000 L 92.000 173.000 L 93.000 180.000 L 91.000 181.000 L 94.000 182.000 L 94.000 187.000 L 91.000 188.000 L 89.000 186.000 L 69.000 185.000 L 68.000 188.000 L 63.000 189.000 L 48.000 201.000 L 33.000 219.000 L 30.000 227.000 Q 31.950 256.400 43.000 263.000 L 43.000 266.000 L 26.000 285.000 L 29.000 286.000 L 28.000 289.000 L 34.000 289.000 L 39.000 294.000 L 39.000 296.000 L 49.000 300.000 L 50.000 305.000 L 45.000 306.000 L 50.000 306.000 L 51.000 310.000 L 52.000 303.000 L 59.000 306.000 L 60.000 310.000 L 60.000 307.000 L 64.000 306.000 L 74.000 312.000 L 74.000 314.000 L 72.000 315.000 L 83.000 320.000 L 84.000 317.000 Q 102.750 319.550 109.000 314.000 L 109.000 318.000 L 112.000 318.000 L 113.000 323.000 L 115.000 324.000 L 114.000 327.000 L 123.000 329.000 L 124.000 326.000 L 142.000 326.000 L 150.000 329.000 Q 191.550 327.500 187.000 319.000 L 185.000 288.000 L 174.000 226.000 L 177.000 214.000 L 171.000 212.000 L 167.000 199.000 L 165.000 199.000 L 164.000 195.000 L 161.000 194.000 L 162.000 191.000 L 166.000 191.000 L 169.000 196.000 L 170.000 190.000 L 167.000 188.000 L 166.000 184.000 L 163.000 183.000 L 161.000 185.000 L 162.000 188.000 L 156.000 191.000 L 157.000 195.000 L 162.000 198.000 L 163.000 203.000 L 164.000 200.000 L 166.000 200.000 L 168.000 203.000 L 168.000 212.000 L 165.000 213.000 L 168.000 214.000 L 168.000 223.000 L 166.000 223.000 L 164.000 219.000 L 161.000 219.000 L 164.000 221.000 L 163.000 224.000 L 158.000 223.000 L 157.000 225.000 L 155.000 225.000 L 154.000 222.000 L 153.000 224.000 L 142.000 224.000 L 141.000 221.000 L 136.000 220.000 L 135.000 218.000 L 134.000 220.000 L 132.000 220.000 L 131.000 217.000 L 129.000 220.000 L 126.000 220.000 L 125.000 216.000 L 127.000 213.000 L 129.000 213.000 L 128.000 210.000 L 132.000 208.000 L 133.000 205.000 L 130.000 204.000 L 130.000 200.000 L 132.000 197.000 L 134.000 197.000 L 138.000 201.000 L 138.000 203.000 L 141.000 200.000 L 144.000 200.000 L 145.000 205.000 L 147.000 206.000 L 147.000 204.000 L 150.000 203.000 L 145.000 199.000 L 135.000 197.000 L 136.000 192.000 L 138.000 191.000 L 136.000 190.000 L 136.000 185.000 L 139.000 184.000 L 136.000 183.000 L 135.000 178.000 L 140.000 177.000 L 134.000 175.000 L 129.000 164.000 L 122.000 162.000 L 120.000 165.000 L 118.000 165.000 L 110.000 150.000 L 110.000 154.000 L 106.000 154.000 Q 106.900 123.050 112.000 121.000 L 108.000 117.000 L 104.000 116.000 L 102.000 111.000 L 91.000 111.000 L 81.000 116.000 Z" 
          class="ultra-vector-path"
          style="fill: rgb(138,66,18); stroke: rgb(138,66,18); fill-rule: evenodd;"
          inkstitch:fill="1"
          inkstitch:color="#8a4212"
          inkstitch:angle="210"
          inkstitch:row_spacing_mm="0.4"
          inkstitch:end_row_spacing_mm="0.4"
          inkstitch:max_stitch_length_mm="3.0"
          inkstitch:staggers="4"
          inkstitch:skip_last="0"
          inkstitch:underpath="1"
          inkstitch:pull_compensation_mm="0.2"
          inkstitch:expand_mm="0.1"
          inkstitch:clockwise="true"
          data-quality="ultra-high"
          data-density="medium-high" />
    <path id="ultra-vector-path-6" 
          d="M 126.00 56.00 L 126.00 59.00 L 128.00 59.00 L 129.00 60.00 L 129.00 62.00 L 128.00 63.00 L 131.00 66.00 L 131.00 65.00 L 130.00 64.00 L 130.00 62.00 L 131.00 61.00 L 129.00 59.00 L 129.00 57.00 L 127.00 57.00 Z" 
          class="ultra-vector-path"
          style="fill: rgb(138,66,18); stroke: rgb(138,66,18); fill-rule: evenodd;"
          inkstitch:fill="1"
          inkstitch:color="#8a4212"
          inkstitch:angle="60"
          inkstitch:row_spacing_mm="0.4"
          inkstitch:end_row_spacing_mm="0.4"
          inkstitch:max_stitch_length_mm="3.0"
          inkstitch:staggers="4"
          inkstitch:skip_last="0"
          inkstitch:underpath="1"
          inkstitch:pull_compensation_mm="0.2"
          inkstitch:expand_mm="0.1"
          inkstitch:clockwise="true"
          data-quality="ultra-high"
          data-density="medium-high" />
    <path id="ultra-vector-path-7" 
          d="M 90.000 1.000 L 89.000 3.000 L 97.000 17.000 L 110.000 29.000 L 109.000 32.000 L 104.000 32.000 L 104.000 36.000 L 109.000 38.000 L 114.000 45.000 L 113.000 48.000 L 110.000 48.000 L 110.000 52.000 L 114.000 57.000 Q 89.350 95.450 43.000 120.000 L 44.000 124.000 L 52.000 123.000 L 77.000 130.000 L 78.000 135.000 L 76.000 142.000 L 51.000 140.000 L 45.000 144.000 L 45.000 148.000 L 40.000 154.000 L 38.000 170.000 L 41.000 172.000 L 42.000 183.000 L 46.000 187.000 L 54.000 188.000 L 55.000 191.000 L 37.000 207.000 Q 26.350 225.850 26.000 246.000 L 32.000 260.000 Q 36.200 269.750 20.000 285.000 L 20.000 290.000 L 32.000 304.000 L 47.000 311.000 Q 56.000 317.150 67.000 312.000 Q 67.650 325.950 78.000 325.000 L 78.000 328.000 L 72.000 334.000 L 72.000 337.000 L 75.000 337.000 L 78.000 342.000 L 62.000 359.000 L 58.000 370.000 L 58.000 378.000 L 63.000 384.000 L 70.000 384.000 L 75.000 394.000 L 81.000 397.000 L 89.000 396.000 L 90.000 398.000 L 97.000 398.000 L 97.000 395.000 L 100.000 394.000 L 102.000 397.000 L 106.000 389.000 L 105.000 383.000 L 98.000 374.000 L 91.000 370.000 L 91.000 362.000 L 95.000 353.000 L 102.000 350.000 Q 116.450 328.450 125.000 333.000 Q 142.950 332.850 138.000 352.000 L 144.000 354.000 L 144.000 360.000 Q 135.250 387.550 139.000 397.000 L 185.000 398.000 L 189.000 397.000 L 191.000 392.000 Q 189.950 377.450 184.000 375.000 Q 165.850 375.100 163.000 369.000 L 165.000 353.000 L 171.000 351.000 Q 173.800 328.300 183.000 333.000 L 190.000 331.000 L 189.000 289.000 L 180.000 237.000 L 182.000 203.000 L 179.000 197.000 L 183.000 191.000 L 185.000 177.000 L 184.000 170.000 L 178.000 165.000 L 178.000 162.000 L 192.000 152.000 Q 210.200 126.550 220.000 129.000 L 222.000 125.000 L 253.000 115.000 L 254.000 111.000 L 242.000 102.000 L 210.000 90.000 L 191.000 79.000 L 184.000 68.000 L 169.000 31.000 L 160.000 21.000 L 158.000 14.000 L 146.000 6.000 L 145.000 3.000 Q 129.000 4.100 125.000 17.000 L 121.000 18.000 L 107.000 3.000 Z" 
          class="ultra-vector-path"
          style="fill: rgb(201,162,99); stroke: rgb(201,162,99); fill-rule: evenodd;"
          inkstitch:fill="1"
          inkstitch:color="#c9a263"
          inkstitch:angle="155"
          inkstitch:row_spacing_mm="0.5"
          inkstitch:end_row_spacing_mm="0.5"
          inkstitch:max_stitch_length_mm="3.2"
          inkstitch:staggers="4"
          inkstitch:skip_last="0"
          inkstitch:underpath="0"
          inkstitch:pull_compensation_mm="0.2"
          inkstitch:expand_mm="0.1"
          inkstitch:clockwise="true"
          data-quality="ultra-high"
          data-density="medium" />
    <path id="ultra-vector-path-8" 
          d="M 141.000 329.000 L 139.000 329.000 L 138.000 330.000 L 137.000 330.000 L 136.000 331.000 L 125.000 331.000 L 124.000 332.000 L 119.000 332.000 L 118.000 331.000 L 116.000 331.000 L 115.000 330.000 L 114.000 330.000 L 113.000 331.000 L 112.000 331.000 L 112.000 332.000 L 111.000 333.000 L 111.000 334.000 L 109.000 336.000 L 109.000 337.000 L 108.000 338.000 L 108.000 339.000 L 106.000 341.000 L 106.000 342.000 L 105.000 343.000 L 105.000 344.000 L 104.000 345.000 L 104.000 346.000 L 103.000 347.000 L 103.000 348.000 L 101.000 350.000 L 98.000 350.000 L 95.000 353.000 L 95.000 355.000 L 94.000 356.000 L 94.000 357.000 L 92.000 359.000 L 92.000 361.000 L 91.000 362.000 L 91.000 369.000 L 92.000 370.000 L 92.000 372.000 L 94.000 372.000 L 95.000 373.000 L 96.000 373.000 L 98.000 375.000 L 99.000 375.000 L 102.000 378.000 L 102.000 379.000 L 104.000 381.000 L 104.000 382.000 L 105.000 383.000 L 105.000 392.000 L 104.000 393.000 L 104.000 394.000 L 103.000 395.000 L 103.000 396.000 L 101.000 398.000 L 100.000 398.000 L 144.000 398.000 L 142.000 398.000 L 140.000 396.000 L 140.000 395.000 L 139.000 394.000 L 139.000 392.000 L 138.000 391.000 L 138.000 388.000 L 137.000 387.000 L 137.000 381.000 L 138.000 380.000 L 138.000 378.000 L 139.000 377.000 L 139.000 375.000 L 140.000 374.000 L 140.000 373.000 L 141.000 372.000 L 141.000 370.000 L 142.000 369.000 L 142.000 368.000 L 143.000 367.000 L 143.000 365.000 L 144.000 364.000 L 144.000 360.000 L 145.000 359.000 L 145.000 353.000 L 143.000 351.000 L 143.000 349.000 L 142.000 349.000 L 141.000 348.000 L 141.000 340.000 L 142.000 339.000 L 142.000 334.000 L 143.000 333.000 L 143.000 331.000 Z" 
          class="ultra-vector-path"
          style="fill: rgb(254,254,254); stroke: rgb(254,254,254); fill-rule: evenodd;"
          inkstitch:fill="1"
          inkstitch:color="#fefefe"
          inkstitch:angle="295"
          inkstitch:row_spacing_mm="0.7"
          inkstitch:end_row_spacing_mm="0.7"
          inkstitch:max_stitch_length_mm="3.8"
          inkstitch:staggers="4"
          inkstitch:skip_last="0"
          inkstitch:underpath="0"
          inkstitch:pull_compensation_mm="0.1"
          inkstitch:expand_mm="0.1"
          inkstitch:clockwise="true"
          data-quality="ultra-high"
          data-density="low" />
    <path id="ultra-vector-path-9" 
          d="M 113.00 148.00 L 113.00 149.00 L 114.00 150.00 L 114.00 151.00 L 116.00 153.00 L 116.00 154.00 L 117.00 155.00 L 117.00 156.00 L 119.00 158.00 L 119.00 160.00 L 127.00 160.00 L 124.00 157.00 L 123.00 157.00 L 116.00 150.00 L 115.00 150.00 Z" 
          class="ultra-vector-path"
          style="fill: rgb(254,254,254); stroke: rgb(254,254,254); fill-rule: evenodd;"
          inkstitch:fill="1"
          inkstitch:color="#fefefe"
          inkstitch:angle="135"
          inkstitch:row_spacing_mm="0.7"
          inkstitch:end_row_spacing_mm="0.7"
          inkstitch:max_stitch_length_mm="3.8"
          inkstitch:staggers="4"
          inkstitch:skip_last="0"
          inkstitch:underpath="0"
          inkstitch:pull_compensation_mm="0.1"
          inkstitch:expand_mm="0.1"
          inkstitch:clockwise="true"
          data-quality="ultra-high"
          data-density="low" />
    <path id="ultra-vector-path-10" 
          d="M 150.00 108.00 L 146.00 108.00 L 145.00 107.00 L 143.00 107.00 L 142.00 108.00 L 141.00 108.00 L 141.00 109.00 L 142.00 110.00 L 142.00 111.00 L 143.00 112.00 L 143.00 118.00 L 142.00 119.00 L 141.00 119.00 L 141.00 120.00 L 140.00 121.00 L 140.00 123.00 L 138.00 125.00 L 140.00 125.00 L 141.00 126.00 L 142.00 126.00 L 143.00 125.00 L 145.00 125.00 L 146.00 124.00 L 147.00 124.00 L 150.00 121.00 L 150.00 120.00 L 151.00 119.00 L 151.00 118.00 L 152.00 117.00 L 152.00 110.00 Z" 
          class="ultra-vector-path"
          style="fill: rgb(254,254,254); stroke: rgb(254,254,254); fill-rule: evenodd;"
          inkstitch:fill="1"
          inkstitch:color="#fefefe"
          inkstitch:angle="155"
          inkstitch:row_spacing_mm="0.7"
          inkstitch:end_row_spacing_mm="0.7"
          inkstitch:max_stitch_length_mm="3.8"
          inkstitch:staggers="4"
          inkstitch:skip_last="0"
          inkstitch:underpath="0"
          inkstitch:pull_compensation_mm="0.1"
          inkstitch:expand_mm="0.1"
          inkstitch:clockwise="true"
          data-quality="ultra-high"
          data-density="low" />
    <path id="ultra-vector-path-11" 
          d="M 142.000 1.000 L 158.000 15.000 L 157.000 19.000 L 170.000 33.000 L 189.000 76.000 L 194.000 81.000 L 210.000 89.000 L 240.000 101.000 L 252.000 111.000 L 251.000 115.000 L 243.000 116.000 L 237.000 121.000 L 230.000 119.000 L 229.000 122.000 L 222.000 125.000 L 220.000 128.000 Q 203.000 130.050 200.000 135.000 L 200.000 140.000 L 196.000 146.000 Q 172.000 165.000 156.000 166.000 L 178.000 165.000 L 184.000 170.000 L 184.000 185.000 L 182.000 186.000 L 182.000 194.000 L 178.000 198.000 L 182.000 204.000 L 182.000 214.000 L 178.000 217.000 L 180.000 218.000 L 180.000 245.000 L 186.000 281.000 L 188.000 282.000 L 190.000 303.000 L 190.000 330.000 L 188.000 332.000 L 175.000 330.000 L 171.000 332.000 L 171.000 350.000 L 165.000 352.000 L 163.000 368.000 L 166.000 375.000 L 170.000 377.000 L 186.000 376.000 L 190.000 379.000 L 192.000 383.000 L 192.000 390.000 Q 197.950 399.200 265.000 398.000 L 265.000 1.000 Z" 
          class="ultra-vector-path"
          style="fill: rgb(254,254,254); stroke: rgb(254,254,254); fill-rule: evenodd;"
          inkstitch:fill="1"
          inkstitch:color="#fefefe"
          inkstitch:angle="175"
          inkstitch:row_spacing_mm="0.7"
          inkstitch:end_row_spacing_mm="0.7"
          inkstitch:max_stitch_length_mm="3.8"
          inkstitch:staggers="4"
          inkstitch:skip_last="0"
          inkstitch:underpath="0"
          inkstitch:pull_compensation_mm="0.1"
          inkstitch:expand_mm="0.1"
          inkstitch:clockwise="true"
          data-quality="ultra-high"
          data-density="low" />
    <path id="ultra-vector-path-12" 
          d="M 101.00 1.00 L 102.00 1.00 L 106.00 5.00 L 108.00 5.00 L 121.00 18.00 L 121.00 19.00 L 122.00 20.00 L 122.00 21.00 L 123.00 22.00 L 125.00 20.00 L 125.00 18.00 L 126.00 17.00 L 126.00 16.00 L 127.00 15.00 L 127.00 14.00 L 128.00 13.00 L 128.00 11.00 L 129.00 10.00 L 129.00 9.00 L 130.00 8.00 L 130.00 7.00 L 131.00 6.00 L 131.00 5.00 L 132.00 4.00 L 132.00 3.00 L 133.00 2.00 L 134.00 2.00 L 135.00 1.00 Z" 
          class="ultra-vector-path"
          style="fill: rgb(254,254,254); stroke: rgb(254,254,254); fill-rule: evenodd;"
          inkstitch:fill="1"
          inkstitch:color="#fefefe"
          inkstitch:angle="195"
          inkstitch:row_spacing_mm="0.7"
          inkstitch:end_row_spacing_mm="0.7"
          inkstitch:max_stitch_length_mm="3.8"
          inkstitch:staggers="4"
          inkstitch:skip_last="0"
          inkstitch:underpath="0"
          inkstitch:pull_compensation_mm="0.1"
          inkstitch:expand_mm="0.1"
          inkstitch:clockwise="true"
          data-quality="ultra-high"
          data-density="low" />
    <path id="ultra-vector-path-13" 
          d="M 1.000 1.000 Q 14.200 457.550 89.000 398.000 L 79.000 395.000 L 72.000 388.000 L 70.000 383.000 L 64.000 383.000 Q 57.850 371.400 63.000 359.000 L 81.000 340.000 L 75.000 335.000 Q 79.950 321.350 68.000 324.000 L 67.000 319.000 L 69.000 313.000 L 67.000 311.000 L 58.000 316.000 L 54.000 316.000 L 47.000 310.000 L 35.000 305.000 L 23.000 292.000 L 21.000 287.000 Q 41.650 260.500 32.000 257.000 L 27.000 246.000 Q 30.250 216.550 42.000 203.000 Q 60.750 186.450 47.000 186.000 L 43.000 182.000 L 42.000 171.000 L 39.000 168.000 L 41.000 154.000 L 47.000 144.000 L 54.000 140.000 L 67.000 140.000 Q 78.100 142.650 81.000 131.000 L 79.000 129.000 L 73.000 129.000 L 69.000 125.000 L 64.000 126.000 L 52.000 122.000 L 46.000 123.000 L 45.000 120.000 L 97.000 89.000 L 104.000 83.000 L 115.000 56.000 L 114.000 51.000 L 117.000 46.000 L 109.000 37.000 L 109.000 35.000 L 113.000 32.000 L 110.000 27.000 L 106.000 25.000 L 96.000 14.000 L 90.000 1.000 Z" 
          class="ultra-vector-path"
          style="fill: rgb(254,254,254); stroke: rgb(254,254,254); fill-rule: evenodd;"
          inkstitch:fill="1"
          inkstitch:color="#fefefe"
          inkstitch:angle="215"
          inkstitch:row_spacing_mm="0.7"
          inkstitch:end_row_spacing_mm="0.7"
          inkstitch:max_stitch_length_mm="3.8"
          inkstitch:staggers="4"
          inkstitch:skip_last="0"
          inkstitch:underpath="0"
          inkstitch:pull_compensation_mm="0.1"
          inkstitch:expand_mm="0.1"
          inkstitch:clockwise="true"
          data-quality="ultra-high"
          data-density="low" />
  </g>
  <metadata>
    <rdf:RDF xmlns:rdf="http://www.w3.org/1999/02/22-rdf-syntax-ns#">
      <rdf:Description rdf:about="">
        <dc:title xmlns:dc="http://purl.org/dc/elements/1.1/">Ultra High-Quality Vector Art</dc:title>
        <dc:description xmlns:dc="http://purl.org/dc/elements/1.1/">Generated with AI-enhanced vectorization</dc:description>
        <dc:creator xmlns:dc="http://purl.org/dc/elements/1.1/">Ultra Vector Generator</dc:creator>
      </rdf:Description>
    </rdf:RDF>
  </metadata>
</svg>