<?xml version="1.0" encoding="UTF-8"?>
<svg xmlns="http://www.w3.org/2000/svg" xmlns:xlink="http://www.w3.org/1999/xlink" 
     width="1181.1023622047244px" height="779.5275590551181px" viewBox="0 0 400 264">
  <title>Embroidery Pattern</title>
  <g id="embroidery-paths">
    <path d="M 197.3,224.0 L 208.0,224.0 L 208.0,226.7 L 197.3,226.7 Z" fill="rgb(224,224,224)" stroke="rgb(224,224,224)" stroke-width="1181.1023622047244px"/>
    <path d="M 144.0,58.7 L 149.3,58.7 L 149.3,72.0 L 144.0,72.0 Z" fill="rgb(0,96,96)" stroke="rgb(0,96,96)" stroke-width="1181.1023622047244px"/>
    <path d="M 128.0,61.3 L 138.7,61.3 L 138.7,77.3 L 128.0,77.3 Z" fill="rgb(0,96,96)" stroke="rgb(0,96,96)" stroke-width="1181.1023622047244px"/>
    <path d="M 157.3,61.3 L 170.7,61.3 L 170.7,72.0 L 157.3,72.0 Z" fill="rgb(0,96,96)" stroke="rgb(0,96,96)" stroke-width="1181.1023622047244px"/>
    <path d="M 24.0,64.0 L 373.3,64.0 L 373.3,224.0 L 24.0,224.0 Z" fill="rgb(0,96,96)" stroke="rgb(0,96,96)" stroke-width="1181.1023622047244px"/>
    <path d="M 93.3,66.7 L 106.7,66.7 L 106.7,82.7 L 93.3,82.7 Z" fill="rgb(0,96,96)" stroke="rgb(0,96,96)" stroke-width="1181.1023622047244px"/>
    <path d="M 74.7,69.3 L 85.3,69.3 L 85.3,77.3 L 74.7,77.3 Z" fill="rgb(0,96,96)" stroke="rgb(0,96,96)" stroke-width="1181.1023622047244px"/>
    <path d="M 112.0,69.3 L 122.7,69.3 L 122.7,80.0 L 112.0,80.0 Z" fill="rgb(0,96,96)" stroke="rgb(0,96,96)" stroke-width="1181.1023622047244px"/>
    <path d="M 32.0,80.0 L 42.7,80.0 L 42.7,90.7 L 32.0,90.7 Z" fill="rgb(0,96,96)" stroke="rgb(0,96,96)" stroke-width="1181.1023622047244px"/>
    <path d="M 290.7,157.3 L 304.0,157.3 L 304.0,160.0 L 290.7,160.0 Z" fill="rgb(0,96,96)" stroke="rgb(0,96,96)" stroke-width="1181.1023622047244px"/>
    <path d="M 272.0,160.0 L 288.0,160.0 L 288.0,165.3 L 272.0,165.3 Z" fill="rgb(0,96,96)" stroke="rgb(0,96,96)" stroke-width="1181.1023622047244px"/>
    <path d="M 154.7,58.7 L 168.0,58.7 L 168.0,69.3 L 154.7,69.3 Z" fill="rgb(0,128,128)" stroke="rgb(0,128,128)" stroke-width="1181.1023622047244px"/>
    <path d="M 93.3,64.0 L 101.3,64.0 L 101.3,69.3 L 93.3,69.3 Z" fill="rgb(0,128,128)" stroke="rgb(0,128,128)" stroke-width="1181.1023622047244px"/>
    <path d="M 216.0,64.0 L 224.0,64.0 L 224.0,69.3 L 216.0,69.3 Z" fill="rgb(0,128,128)" stroke="rgb(0,128,128)" stroke-width="1181.1023622047244px"/>
    <path d="M 109.3,66.7 L 122.7,66.7 L 122.7,74.7 L 109.3,74.7 Z" fill="rgb(0,128,128)" stroke="rgb(0,128,128)" stroke-width="1181.1023622047244px"/>
    <path d="M 234.7,66.7 L 240.0,66.7 L 240.0,72.0 L 234.7,72.0 Z" fill="rgb(0,128,128)" stroke="rgb(0,128,128)" stroke-width="1181.1023622047244px"/>
    <path d="M 80.0,69.3 L 85.3,69.3 L 85.3,85.3 L 80.0,85.3 Z" fill="rgb(0,128,128)" stroke="rgb(0,128,128)" stroke-width="1181.1023622047244px"/>
    <path d="M 248.0,69.3 L 253.3,69.3 L 253.3,74.7 L 248.0,74.7 Z" fill="rgb(0,128,128)" stroke="rgb(0,128,128)" stroke-width="1181.1023622047244px"/>
    <path d="M 93.3,72.0 L 106.7,72.0 L 106.7,82.7 L 93.3,82.7 Z" fill="rgb(0,128,128)" stroke="rgb(0,128,128)" stroke-width="1181.1023622047244px"/>
    <path d="M 45.3,74.7 L 56.0,74.7 L 56.0,85.3 L 45.3,85.3 Z" fill="rgb(0,128,128)" stroke="rgb(0,128,128)" stroke-width="1181.1023622047244px"/>
    <path d="M 192.0,74.7 L 197.3,74.7 L 197.3,80.0 L 192.0,80.0 Z" fill="rgb(0,128,128)" stroke="rgb(0,128,128)" stroke-width="1181.1023622047244px"/>
    <path d="M 264.0,74.7 L 272.0,74.7 L 272.0,80.0 L 264.0,80.0 Z" fill="rgb(0,128,128)" stroke="rgb(0,128,128)" stroke-width="1181.1023622047244px"/>
    <path d="M 37.3,80.0 L 45.3,80.0 L 45.3,90.7 L 37.3,90.7 Z" fill="rgb(0,128,128)" stroke="rgb(0,128,128)" stroke-width="1181.1023622047244px"/>
    <path d="M 176.0,80.0 L 181.3,80.0 L 181.3,85.3 L 176.0,85.3 Z" fill="rgb(0,128,128)" stroke="rgb(0,128,128)" stroke-width="1181.1023622047244px"/>
    <path d="M 290.7,80.0 L 296.0,80.0 L 296.0,85.3 L 290.7,85.3 Z" fill="rgb(0,128,128)" stroke="rgb(0,128,128)" stroke-width="1181.1023622047244px"/>
    <path d="M 304.0,82.7 L 309.3,82.7 L 309.3,88.0 L 304.0,88.0 Z" fill="rgb(0,128,128)" stroke="rgb(0,128,128)" stroke-width="1181.1023622047244px"/>
    <path d="M 154.7,85.3 L 160.0,85.3 L 160.0,90.7 L 154.7,90.7 Z" fill="rgb(0,128,128)" stroke="rgb(0,128,128)" stroke-width="1181.1023622047244px"/>
    <path d="M 314.7,85.3 L 322.7,85.3 L 322.7,90.7 L 314.7,90.7 Z" fill="rgb(0,128,128)" stroke="rgb(0,128,128)" stroke-width="1181.1023622047244px"/>
    <path d="M 141.3,88.0 L 146.7,88.0 L 146.7,93.3 L 141.3,93.3 Z" fill="rgb(0,128,128)" stroke="rgb(0,128,128)" stroke-width="1181.1023622047244px"/>
    <path d="M 328.0,88.0 L 333.3,88.0 L 333.3,93.3 L 328.0,93.3 Z" fill="rgb(0,128,128)" stroke="rgb(0,128,128)" stroke-width="1181.1023622047244px"/>
    <path d="M 122.7,90.7 L 133.3,90.7 L 133.3,96.0 L 122.7,96.0 Z" fill="rgb(0,128,128)" stroke="rgb(0,128,128)" stroke-width="1181.1023622047244px"/>
    <path d="M 85.3,93.3 L 114.7,93.3 L 114.7,98.7 L 85.3,98.7 Z" fill="rgb(0,128,128)" stroke="rgb(0,128,128)" stroke-width="1181.1023622047244px"/>
    <path d="M 48.0,96.0 L 53.3,96.0 L 53.3,101.3 L 48.0,101.3 Z" fill="rgb(0,128,128)" stroke="rgb(0,128,128)" stroke-width="1181.1023622047244px"/>
    <path d="M 61.3,96.0 L 82.7,96.0 L 82.7,98.7 L 61.3,98.7 Z" fill="rgb(0,128,128)" stroke="rgb(0,128,128)" stroke-width="1181.1023622047244px"/>
    <path d="M 37.3,98.7 L 45.3,98.7 L 45.3,106.7 L 37.3,106.7 Z" fill="rgb(0,128,128)" stroke="rgb(0,128,128)" stroke-width="1181.1023622047244px"/>
    <path d="M 24.0,112.0 L 373.3,112.0 L 373.3,224.0 L 24.0,224.0 Z" fill="rgb(0,128,128)" stroke="rgb(0,128,128)" stroke-width="1181.1023622047244px"/>
    <path d="M 322.7,112.0 L 328.0,112.0 L 328.0,117.3 L 322.7,117.3 Z" fill="rgb(0,128,128)" stroke="rgb(0,128,128)" stroke-width="1181.1023622047244px"/>
    <path d="M 312.0,114.7 L 317.3,114.7 L 317.3,120.0 L 312.0,120.0 Z" fill="rgb(0,128,128)" stroke="rgb(0,128,128)" stroke-width="1181.1023622047244px"/>
    <path d="M 301.3,117.3 L 306.7,117.3 L 306.7,122.7 L 301.3,122.7 Z" fill="rgb(0,128,128)" stroke="rgb(0,128,128)" stroke-width="1181.1023622047244px"/>
    <path d="M 290.7,120.0 L 296.0,120.0 L 296.0,125.3 L 290.7,125.3 Z" fill="rgb(0,128,128)" stroke="rgb(0,128,128)" stroke-width="1181.1023622047244px"/>
    <path d="M 74.7,125.3 L 80.0,125.3 L 80.0,130.7 L 74.7,130.7 Z" fill="rgb(0,128,128)" stroke="rgb(0,128,128)" stroke-width="1181.1023622047244px"/>
    <path d="M 272.0,125.3 L 277.3,125.3 L 277.3,130.7 L 272.0,130.7 Z" fill="rgb(0,128,128)" stroke="rgb(0,128,128)" stroke-width="1181.1023622047244px"/>
    <path d="M 85.3,128.0 L 93.3,128.0 L 93.3,133.3 L 85.3,133.3 Z" fill="rgb(0,128,128)" stroke="rgb(0,128,128)" stroke-width="1181.1023622047244px"/>
    <path d="M 261.3,128.0 L 266.7,128.0 L 266.7,133.3 L 261.3,133.3 Z" fill="rgb(0,128,128)" stroke="rgb(0,128,128)" stroke-width="1181.1023622047244px"/>
    <path d="M 98.7,130.7 L 106.7,130.7 L 106.7,136.0 L 98.7,136.0 Z" fill="rgb(0,128,128)" stroke="rgb(0,128,128)" stroke-width="1181.1023622047244px"/>
    <path d="M 298.7,154.7 L 309.3,154.7 L 309.3,160.0 L 298.7,160.0 Z" fill="rgb(0,128,128)" stroke="rgb(0,128,128)" stroke-width="1181.1023622047244px"/>
    <path d="M 285.3,157.3 L 293.3,157.3 L 293.3,162.7 L 285.3,162.7 Z" fill="rgb(0,128,128)" stroke="rgb(0,128,128)" stroke-width="1181.1023622047244px"/>
    <path d="M 50.7,160.0 L 82.7,160.0 L 82.7,165.3 L 50.7,165.3 Z" fill="rgb(0,128,128)" stroke="rgb(0,128,128)" stroke-width="1181.1023622047244px"/>
    <path d="M 184.0,168.0 L 189.3,168.0 L 189.3,173.3 L 184.0,173.3 Z" fill="rgb(0,128,128)" stroke="rgb(0,128,128)" stroke-width="1181.1023622047244px"/>
    <path d="M 194.7,170.7 L 202.7,170.7 L 202.7,176.0 L 194.7,176.0 Z" fill="rgb(0,128,128)" stroke="rgb(0,128,128)" stroke-width="1181.1023622047244px"/>
    <path d="M 109.3,173.3 L 114.7,173.3 L 114.7,181.3 L 109.3,181.3 Z" fill="rgb(0,128,128)" stroke="rgb(0,128,128)" stroke-width="1181.1023622047244px"/>
    <path d="M 245.3,173.3 L 250.7,173.3 L 250.7,181.3 L 245.3,181.3 Z" fill="rgb(0,128,128)" stroke="rgb(0,128,128)" stroke-width="1181.1023622047244px"/>
    <path d="M 120.0,181.3 L 128.0,181.3 L 128.0,192.0 L 120.0,192.0 Z" fill="rgb(0,128,128)" stroke="rgb(0,128,128)" stroke-width="1181.1023622047244px"/>
    <path d="M 181.3,216.0 L 186.7,216.0 L 186.7,221.3 L 181.3,221.3 Z" fill="rgb(0,128,128)" stroke="rgb(0,128,128)" stroke-width="1181.1023622047244px"/>
    <path d="M 192.0,218.7 L 197.3,218.7 L 197.3,224.0 L 192.0,224.0 Z" fill="rgb(0,128,128)" stroke="rgb(0,128,128)" stroke-width="1181.1023622047244px"/>
    <path d="M 154.7,56.0 L 168.0,56.0 L 168.0,69.3 L 154.7,69.3 Z" fill="rgb(0,128,96)" stroke="rgb(0,128,96)" stroke-width="1181.1023622047244px"/>
    <path d="M 144.0,58.7 L 149.3,58.7 L 149.3,69.3 L 144.0,69.3 Z" fill="rgb(0,128,96)" stroke="rgb(0,128,96)" stroke-width="1181.1023622047244px"/>
    <path d="M 109.3,61.3 L 122.7,61.3 L 122.7,80.0 L 109.3,80.0 Z" fill="rgb(0,128,96)" stroke="rgb(0,128,96)" stroke-width="1181.1023622047244px"/>
    <path d="M 128.0,61.3 L 138.7,61.3 L 138.7,77.3 L 128.0,77.3 Z" fill="rgb(0,128,96)" stroke="rgb(0,128,96)" stroke-width="1181.1023622047244px"/>
    <path d="M 24.0,64.0 L 373.3,64.0 L 373.3,224.0 L 24.0,224.0 Z" fill="rgb(0,128,96)" stroke="rgb(0,128,96)" stroke-width="1181.1023622047244px"/>
    <path d="M 93.3,66.7 L 106.7,66.7 L 106.7,82.7 L 93.3,82.7 Z" fill="rgb(0,128,96)" stroke="rgb(0,128,96)" stroke-width="1181.1023622047244px"/>
    <path d="M 74.7,69.3 L 85.3,69.3 L 85.3,77.3 L 74.7,77.3 Z" fill="rgb(0,128,96)" stroke="rgb(0,128,96)" stroke-width="1181.1023622047244px"/>
    <path d="M 32.0,80.0 L 45.3,80.0 L 45.3,93.3 L 32.0,93.3 Z" fill="rgb(0,128,96)" stroke="rgb(0,128,96)" stroke-width="1181.1023622047244px"/>
    <path d="M 128.0,61.3 L 133.3,61.3 L 133.3,72.0 L 128.0,72.0 Z" fill="rgb(0,96,64)" stroke="rgb(0,96,64)" stroke-width="1181.1023622047244px"/>
    <path d="M 157.3,61.3 L 170.7,61.3 L 170.7,72.0 L 157.3,72.0 Z" fill="rgb(0,96,64)" stroke="rgb(0,96,64)" stroke-width="1181.1023622047244px"/>
    <path d="M 202.7,66.7 L 216.0,66.7 L 216.0,74.7 L 202.7,74.7 Z" fill="rgb(0,96,64)" stroke="rgb(0,96,64)" stroke-width="1181.1023622047244px"/>
    <path d="M 224.0,66.7 L 234.7,66.7 L 234.7,69.3 L 224.0,69.3 Z" fill="rgb(0,96,64)" stroke="rgb(0,96,64)" stroke-width="1181.1023622047244px"/>
    <path d="M 77.3,69.3 L 82.7,69.3 L 82.7,77.3 L 77.3,77.3 Z" fill="rgb(0,96,64)" stroke="rgb(0,96,64)" stroke-width="1181.1023622047244px"/>
    <path d="M 93.3,69.3 L 96.0,69.3 L 96.0,80.0 L 93.3,80.0 Z" fill="rgb(0,96,64)" stroke="rgb(0,96,64)" stroke-width="1181.1023622047244px"/>
    <path d="M 112.0,69.3 L 122.7,69.3 L 122.7,80.0 L 112.0,80.0 Z" fill="rgb(0,96,64)" stroke="rgb(0,96,64)" stroke-width="1181.1023622047244px"/>
    <path d="M 237.3,69.3 L 248.0,69.3 L 248.0,72.0 L 237.3,72.0 Z" fill="rgb(0,96,64)" stroke="rgb(0,96,64)" stroke-width="1181.1023622047244px"/>
    <path d="M 98.7,72.0 L 106.7,72.0 L 106.7,82.7 L 98.7,82.7 Z" fill="rgb(0,96,64)" stroke="rgb(0,96,64)" stroke-width="1181.1023622047244px"/>
    <path d="M 170.7,74.7 L 200.0,74.7 L 200.0,85.3 L 170.7,85.3 Z" fill="rgb(0,96,64)" stroke="rgb(0,96,64)" stroke-width="1181.1023622047244px"/>
    <path d="M 269.3,77.3 L 280.0,77.3 L 280.0,80.0 L 269.3,80.0 Z" fill="rgb(0,96,64)" stroke="rgb(0,96,64)" stroke-width="1181.1023622047244px"/>
    <path d="M 32.0,80.0 L 40.0,80.0 L 40.0,85.3 L 32.0,85.3 Z" fill="rgb(0,96,64)" stroke="rgb(0,96,64)" stroke-width="1181.1023622047244px"/>
    <path d="M 282.7,80.0 L 304.0,80.0 L 304.0,85.3 L 282.7,85.3 Z" fill="rgb(0,96,64)" stroke="rgb(0,96,64)" stroke-width="1181.1023622047244px"/>
    <path d="M 306.7,85.3 L 317.3,85.3 L 317.3,88.0 L 306.7,88.0 Z" fill="rgb(0,96,64)" stroke="rgb(0,96,64)" stroke-width="1181.1023622047244px"/>
    <path d="M 320.0,88.0 L 330.7,88.0 L 330.7,90.7 L 320.0,90.7 Z" fill="rgb(0,96,64)" stroke="rgb(0,96,64)" stroke-width="1181.1023622047244px"/>
    <path d="M 130.7,90.7 L 141.3,90.7 L 141.3,93.3 L 130.7,93.3 Z" fill="rgb(0,96,64)" stroke="rgb(0,96,64)" stroke-width="1181.1023622047244px"/>
    <path d="M 112.0,93.3 L 125.3,93.3 L 125.3,96.0 L 112.0,96.0 Z" fill="rgb(0,96,64)" stroke="rgb(0,96,64)" stroke-width="1181.1023622047244px"/>
    <path d="M 344.0,93.3 L 354.7,93.3 L 354.7,96.0 L 344.0,96.0 Z" fill="rgb(0,96,64)" stroke="rgb(0,96,64)" stroke-width="1181.1023622047244px"/>
    <path d="M 40.0,96.0 L 96.0,96.0 L 96.0,104.0 L 40.0,104.0 Z" fill="rgb(0,96,64)" stroke="rgb(0,96,64)" stroke-width="1181.1023622047244px"/>
    <path d="M 357.3,96.0 L 365.3,96.0 L 365.3,109.3 L 357.3,109.3 Z" fill="rgb(0,96,64)" stroke="rgb(0,96,64)" stroke-width="1181.1023622047244px"/>
    <path d="M 42.7,114.7 L 53.3,114.7 L 53.3,122.7 L 42.7,122.7 Z" fill="rgb(0,96,64)" stroke="rgb(0,96,64)" stroke-width="1181.1023622047244px"/>
    <path d="M 296.0,117.3 L 314.7,117.3 L 314.7,122.7 L 296.0,122.7 Z" fill="rgb(0,96,64)" stroke="rgb(0,96,64)" stroke-width="1181.1023622047244px"/>
    <path d="M 24.0,130.7 L 29.3,130.7 L 29.3,144.0 L 24.0,144.0 Z" fill="rgb(0,96,64)" stroke="rgb(0,96,64)" stroke-width="1181.1023622047244px"/>
    <path d="M 90.7,130.7 L 101.3,130.7 L 101.3,133.3 L 90.7,133.3 Z" fill="rgb(0,96,64)" stroke="rgb(0,96,64)" stroke-width="1181.1023622047244px"/>
    <path d="M 104.0,133.3 L 162.7,133.3 L 162.7,162.7 L 104.0,162.7 Z" fill="rgb(0,96,64)" stroke="rgb(0,96,64)" stroke-width="1181.1023622047244px"/>
    <path d="M 338.7,133.3 L 346.7,133.3 L 346.7,146.7 L 338.7,146.7 Z" fill="rgb(0,96,64)" stroke="rgb(0,96,64)" stroke-width="1181.1023622047244px"/>
    <path d="M 226.7,136.0 L 245.3,136.0 L 245.3,165.3 L 226.7,165.3 Z" fill="rgb(0,96,64)" stroke="rgb(0,96,64)" stroke-width="1181.1023622047244px"/>
    <path d="M 301.3,136.0 L 312.0,136.0 L 312.0,138.7 L 301.3,138.7 Z" fill="rgb(0,96,64)" stroke="rgb(0,96,64)" stroke-width="1181.1023622047244px"/>
    <path d="M 352.0,136.0 L 360.0,136.0 L 360.0,146.7 L 352.0,146.7 Z" fill="rgb(0,96,64)" stroke="rgb(0,96,64)" stroke-width="1181.1023622047244px"/>
    <path d="M 50.7,138.7 L 64.0,138.7 L 64.0,144.0 L 50.7,144.0 Z" fill="rgb(0,96,64)" stroke="rgb(0,96,64)" stroke-width="1181.1023622047244px"/>
    <path d="M 282.7,138.7 L 293.3,138.7 L 293.3,141.3 L 282.7,141.3 Z" fill="rgb(0,96,64)" stroke="rgb(0,96,64)" stroke-width="1181.1023622047244px"/>
    <path d="M 80.0,141.3 L 93.3,141.3 L 93.3,144.0 L 80.0,144.0 Z" fill="rgb(0,96,64)" stroke="rgb(0,96,64)" stroke-width="1181.1023622047244px"/>
    <path d="M 314.7,141.3 L 325.3,141.3 L 325.3,144.0 L 314.7,144.0 Z" fill="rgb(0,96,64)" stroke="rgb(0,96,64)" stroke-width="1181.1023622047244px"/>
    <path d="M 58.7,144.0 L 72.0,144.0 L 72.0,146.7 L 58.7,146.7 Z" fill="rgb(0,96,64)" stroke="rgb(0,96,64)" stroke-width="1181.1023622047244px"/>
    <path d="M 290.7,144.0 L 304.0,144.0 L 304.0,146.7 L 290.7,146.7 Z" fill="rgb(0,96,64)" stroke="rgb(0,96,64)" stroke-width="1181.1023622047244px"/>
    <path d="M 32.0,146.7 L 53.3,146.7 L 53.3,162.7 L 32.0,162.7 Z" fill="rgb(0,96,64)" stroke="rgb(0,96,64)" stroke-width="1181.1023622047244px"/>
    <path d="M 325.3,146.7 L 344.0,146.7 L 344.0,157.3 L 325.3,157.3 Z" fill="rgb(0,96,64)" stroke="rgb(0,96,64)" stroke-width="1181.1023622047244px"/>
    <path d="M 101.3,154.7 L 112.0,154.7 L 112.0,162.7 L 101.3,162.7 Z" fill="rgb(0,96,64)" stroke="rgb(0,96,64)" stroke-width="1181.1023622047244px"/>
    <path d="M 306.7,154.7 L 320.0,154.7 L 320.0,157.3 L 306.7,157.3 Z" fill="rgb(0,96,64)" stroke="rgb(0,96,64)" stroke-width="1181.1023622047244px"/>
    <path d="M 290.7,157.3 L 301.3,157.3 L 301.3,160.0 L 290.7,160.0 Z" fill="rgb(0,96,64)" stroke="rgb(0,96,64)" stroke-width="1181.1023622047244px"/>
    <path d="M 165.3,162.7 L 176.0,162.7 L 176.0,168.0 L 165.3,168.0 Z" fill="rgb(0,96,64)" stroke="rgb(0,96,64)" stroke-width="1181.1023622047244px"/>
    <path d="M 130.7,165.3 L 141.3,165.3 L 141.3,173.3 L 130.7,173.3 Z" fill="rgb(0,96,64)" stroke="rgb(0,96,64)" stroke-width="1181.1023622047244px"/>
    <path d="M 232.0,165.3 L 269.3,165.3 L 269.3,189.3 L 232.0,189.3 Z" fill="rgb(0,96,64)" stroke="rgb(0,96,64)" stroke-width="1181.1023622047244px"/>
    <path d="M 98.7,168.0 L 122.7,168.0 L 122.7,186.7 L 98.7,186.7 Z" fill="rgb(0,96,64)" stroke="rgb(0,96,64)" stroke-width="1181.1023622047244px"/>
    <path d="M 178.7,168.0 L 194.7,168.0 L 194.7,173.3 L 178.7,173.3 Z" fill="rgb(0,96,64)" stroke="rgb(0,96,64)" stroke-width="1181.1023622047244px"/>
    <path d="M 200.0,173.3 L 216.0,173.3 L 216.0,176.0 L 200.0,176.0 Z" fill="rgb(0,96,64)" stroke="rgb(0,96,64)" stroke-width="1181.1023622047244px"/>
    <path d="M 149.3,184.0 L 160.0,184.0 L 160.0,186.7 L 149.3,186.7 Z" fill="rgb(0,96,64)" stroke="rgb(0,96,64)" stroke-width="1181.1023622047244px"/>
    <path d="M 144.0,200.0 L 184.0,200.0 L 184.0,218.7 L 144.0,218.7 Z" fill="rgb(0,96,64)" stroke="rgb(0,96,64)" stroke-width="1181.1023622047244px"/>
    <path d="M 186.7,200.0 L 197.3,200.0 L 197.3,205.3 L 186.7,205.3 Z" fill="rgb(0,96,64)" stroke="rgb(0,96,64)" stroke-width="1181.1023622047244px"/>
    <path d="M 210.7,210.7 L 221.3,210.7 L 221.3,221.3 L 210.7,221.3 Z" fill="rgb(0,96,64)" stroke="rgb(0,96,64)" stroke-width="1181.1023622047244px"/>
    <path d="M 197.3,221.3 L 208.0,221.3 L 208.0,224.0 L 197.3,224.0 Z" fill="rgb(0,96,64)" stroke="rgb(0,96,64)" stroke-width="1181.1023622047244px"/>
    <path d="M 232.0,152.0 L 234.7,152.0 L 234.7,165.3 L 232.0,165.3 Z" fill="rgb(192,224,224)" stroke="rgb(192,224,224)" stroke-width="1181.1023622047244px"/>
    <path d="M 202.7,176.0 L 216.0,176.0 L 216.0,178.7 L 202.7,178.7 Z" fill="rgb(192,224,224)" stroke="rgb(192,224,224)" stroke-width="1181.1023622047244px"/>
    <path d="M 224.0,66.7 L 234.7,66.7 L 234.7,69.3 L 224.0,69.3 Z" fill="rgb(0,64,64)" stroke="rgb(0,64,64)" stroke-width="1181.1023622047244px"/>
    <path d="M 229.3,149.3 L 232.0,149.3 L 232.0,162.7 L 229.3,162.7 Z" fill="rgb(0,64,64)" stroke="rgb(0,64,64)" stroke-width="1181.1023622047244px"/>
    <path d="M 37.3,154.7 L 48.0,154.7 L 48.0,162.7 L 37.3,162.7 Z" fill="rgb(0,64,64)" stroke="rgb(0,64,64)" stroke-width="1181.1023622047244px"/>
    <path d="M 202.7,173.3 L 216.0,173.3 L 216.0,176.0 L 202.7,176.0 Z" fill="rgb(0,64,64)" stroke="rgb(0,64,64)" stroke-width="1181.1023622047244px"/>
    <path d="M 197.3,221.3 L 208.0,221.3 L 208.0,224.0 L 197.3,224.0 Z" fill="rgb(0,64,64)" stroke="rgb(0,64,64)" stroke-width="1181.1023622047244px"/>
    <path d="M 160.0,56.0 L 168.0,56.0 L 168.0,66.7 L 160.0,66.7 Z" fill="rgb(32,160,160)" stroke="rgb(32,160,160)" stroke-width="1181.1023622047244px"/>
    <path d="M 45.3,74.7 L 56.0,74.7 L 56.0,85.3 L 45.3,85.3 Z" fill="rgb(32,160,160)" stroke="rgb(32,160,160)" stroke-width="1181.1023622047244px"/>
    <path d="M 288.0,80.0 L 298.7,80.0 L 298.7,85.3 L 288.0,85.3 Z" fill="rgb(32,160,160)" stroke="rgb(32,160,160)" stroke-width="1181.1023622047244px"/>
    <path d="M 138.7,88.0 L 149.3,88.0 L 149.3,93.3 L 138.7,93.3 Z" fill="rgb(32,160,160)" stroke="rgb(32,160,160)" stroke-width="1181.1023622047244px"/>
    <path d="M 61.3,93.3 L 85.3,93.3 L 85.3,96.0 L 61.3,96.0 Z" fill="rgb(32,160,160)" stroke="rgb(32,160,160)" stroke-width="1181.1023622047244px"/>
    <path d="M 88.0,93.3 L 104.0,93.3 L 104.0,96.0 L 88.0,96.0 Z" fill="rgb(32,160,160)" stroke="rgb(32,160,160)" stroke-width="1181.1023622047244px"/>
    <path d="M 34.7,109.3 L 40.0,109.3 L 40.0,122.7 L 34.7,122.7 Z" fill="rgb(32,160,160)" stroke="rgb(32,160,160)" stroke-width="1181.1023622047244px"/>
    <path d="M 37.3,144.0 L 42.7,144.0 L 42.7,152.0 L 37.3,152.0 Z" fill="rgb(32,160,160)" stroke="rgb(32,160,160)" stroke-width="1181.1023622047244px"/>
    <path d="M 64.0,146.7 L 74.7,146.7 L 74.7,149.3 L 64.0,149.3 Z" fill="rgb(32,160,160)" stroke="rgb(32,160,160)" stroke-width="1181.1023622047244px"/>
    <path d="M 317.3,152.0 L 328.0,152.0 L 328.0,157.3 L 317.3,157.3 Z" fill="rgb(32,160,160)" stroke="rgb(32,160,160)" stroke-width="1181.1023622047244px"/>
    <path d="M 298.7,154.7 L 309.3,154.7 L 309.3,160.0 L 298.7,160.0 Z" fill="rgb(32,160,160)" stroke="rgb(32,160,160)" stroke-width="1181.1023622047244px"/>
    <path d="M 50.7,160.0 L 80.0,160.0 L 80.0,165.3 L 50.7,165.3 Z" fill="rgb(32,160,160)" stroke="rgb(32,160,160)" stroke-width="1181.1023622047244px"/>
    <path d="M 157.3,186.7 L 162.7,186.7 L 162.7,200.0 L 157.3,200.0 Z" fill="rgb(32,160,160)" stroke="rgb(32,160,160)" stroke-width="1181.1023622047244px"/>
  </g>
</svg>