<?xml version="1.0" encoding="UTF-8"?>
<!-- Generator: visioncortex VTracer 0.6.4 -->
<svg version="1.1" xmlns="http://www.w3.org/2000/svg" width="809" height="814">
<path d="M0 0 C266.97 0 533.94 0 809 0 C809 268.62 809 537.24 809 814 C542.03 814 275.06 814 0 814 C0 545.38 0 276.76 0 0 Z " fill="#017143" transform="translate(0,0)"/>
<path d="M0 0 C266.97 0 533.94 0 809 0 C809 268.62 809 537.24 809 814 C542.03 814 275.06 814 0 814 C0 545.38 0 276.76 0 0 Z M346 7 C344.8 7.18 343.59 7.36 342.36 7.55 C315.95 11.63 290.5 17.92 265.25 26.62 C264.44 26.9 263.63 27.18 262.8 27.46 C258.33 29.04 254.14 30.85 249.94 33.02 C247.41 34.3 244.83 35.39 242.22 36.48 C235.53 39.3 229.3 42.43 223.1 46.2 C219.62 48.22 216.06 49.95 212.44 51.69 C203.55 56.01 195.33 61.3 187.05 66.68 C184.52 68.31 181.95 69.87 179.38 71.44 C164.82 80.71 151.17 92.16 138.45 103.77 C136.87 105.21 135.28 106.63 133.68 108.04 C123.16 117.31 113 127.23 104 138 C103.23 138.88 102.46 139.76 101.67 140.66 C88.8 155.46 77.29 171.31 67 188 C66.51 188.78 66.03 189.57 65.53 190.37 C45.38 222.99 30.22 257.37 19 294 C18.75 294.82 18.49 295.63 18.23 296.47 C11.04 319.61 6.86 343.43 4.23 367.49 C4.08 368.86 3.92 370.23 3.75 371.59 C2.48 380.15 2.48 380.15 4.7 388.26 C6.72 390.66 7.92 392.08 10.75 393.31 C11.36 393.6 11.98 393.88 12.61 394.18 C27.76 399.4 43.42 398.42 58 392 C58.68 391.71 59.36 391.41 60.07 391.11 C67.68 387.77 75.02 384.09 82.19 379.88 C95.85 371.87 109.35 366.8 125.31 366.88 C126.53 366.87 126.53 366.87 127.77 366.86 C133.75 366.87 133.75 366.87 136 368 C136.49 372.9 135.36 375.79 133.07 379.97 C132.05 381.91 131.27 383.83 130.5 385.88 C129 389 129 389 127.39 390.19 C124.68 391.11 122.26 391.14 119.42 391.12 C109.4 391.13 102.48 394.01 93.9 398.93 C90.95 400.59 87.92 402.07 84.88 403.56 C81.43 405.28 77.99 407 74.58 408.78 C52.34 420.25 29.83 427.14 5 420 C4.73 431.83 5.46 443.26 7 455 C17.47 460.43 33.89 457.6 44.66 454.26 C50.02 452.24 54.97 449.71 60 447 C69.17 442.26 78.36 437.71 88 434 C88.94 433.62 89.88 433.24 90.84 432.84 C99.18 429.71 107.19 429.22 116 429 C115.41 432.23 114.8 435.46 114.19 438.69 C114.02 439.6 113.86 440.51 113.69 441.45 C111.88 450.82 111.88 450.82 109 454 C106.18 454.82 106.18 454.82 102.88 455.12 C88.2 456.93 75.78 464.21 63.12 471.5 C47.12 480.67 31.6 487.14 13 488 C13.76 494.25 15.14 500.31 16.56 506.44 C16.91 507.96 16.91 507.96 17.27 509.52 C17.85 512.01 18.42 514.51 19 517 C39.2 518.4 55.83 508.96 72.56 498.62 C81.26 493.26 89.68 491.03 99.81 490.44 C100.51 490.39 101.2 490.35 101.91 490.31 C103.61 490.2 105.3 490.1 107 490 C106.75 490.96 106.75 490.96 106.5 491.95 C105.85 495.93 105.89 499.79 105.94 503.81 C105.94 504.6 105.95 505.39 105.95 506.2 C105.96 508.13 105.98 510.07 106 512 C104.83 511.95 103.65 511.9 102.45 511.84 C89.5 511.87 74.97 521.74 64.69 529 C53.83 536.37 41.95 541.03 29 543 C28.45 552.65 29.84 561.3 36 569 C40.04 571.69 43.34 571.76 48 571 C55.35 568.35 61.77 563.9 68.25 559.62 C81.49 550.96 91.72 544.32 108 546 C110.26 553.34 111.57 560.33 112 568 C111.18 567.9 111.18 567.9 110.34 567.79 C95.78 566.79 83.83 575.68 72.38 583.53 C66.17 587.76 59.95 591.12 53 594 C53.37 602.04 57.26 610.18 62.44 616.31 C64.93 618.26 64.93 618.26 68.12 618.19 C73.53 616.92 78.26 613.77 83 611 C105.95 597.61 105.95 597.61 120 597 C119.86 595.87 119.71 594.73 119.57 593.56 C119 589.04 118.47 584.52 117.94 580 C117.85 579.23 117.76 578.45 117.66 577.65 C117.44 575.77 117.22 573.88 117 572 C117.54 572.16 118.09 572.32 118.65 572.48 C129.55 574.87 140.09 572.17 149.53 566.64 C153.15 564.24 156.59 561.63 159.97 558.92 C162.71 556.72 165.34 554.8 168.36 552.98 C173.18 550 176.81 547.54 178.43 541.96 C179.13 538.87 179.65 535.76 180.16 532.62 C183.28 513.64 195.88 493.9 206.25 477.94 C209.74 472.51 213.01 466.96 216.25 461.38 C216.77 460.49 217.29 459.61 217.83 458.7 C223.69 448.5 225.56 440.43 225.5 428.62 C225.49 426.72 225.49 426.72 225.49 424.78 C225.25 411.51 222.92 398.91 220 386 C219.77 384.94 219.53 383.89 219.29 382.8 C218.23 378.04 217.14 373.29 216.02 368.55 C209.48 339.88 215.43 311.17 230 286 C235.53 277.23 241.16 270.69 251 267 C250.15 268.25 250.15 268.25 249.28 269.54 C241.21 281.61 234.87 293.62 232 308 C231.82 308.88 231.64 309.77 231.46 310.68 C229.98 318.67 229.65 326.45 229.69 334.56 C229.69 335.22 229.69 335.88 229.69 336.55 C229.74 347.65 230.58 358.18 233 369 C233.18 369.82 233.35 370.63 233.54 371.47 C235.81 381.79 238.72 391.63 242.67 401.42 C248.79 417.87 247.37 435.41 240.56 451.37 C235.95 461.14 230 470.04 224 479 C223.34 479.99 223.34 479.99 222.66 481.01 C221.8 482.29 220.93 483.58 220.07 484.87 C218.43 487.33 216.79 489.79 215.15 492.26 C214.05 493.92 212.95 495.57 211.84 497.23 C203.04 510.87 196.58 525.67 196.69 542.06 C196.69 542.98 196.7 543.9 196.7 544.85 C197.03 564.22 203.85 580.71 214.17 596.83 C216.95 601.32 216.95 601.32 217.15 604.11 C215.28 607.18 212.47 609.08 209.62 611.19 C208.34 612.16 207.06 613.14 205.77 614.12 C205.13 614.61 204.49 615.09 203.83 615.59 C201.25 617.58 198.75 619.66 196.25 621.75 C180.25 634.88 164.28 643.76 143.62 646.44 C139.78 645.8 138.52 643.93 136 641 C134.7 638.56 133.75 636.04 132.81 633.44 C130.66 627.61 130.66 627.61 128 622 C125.73 621.89 123.46 621.81 121.19 621.75 C119.29 621.68 119.29 621.68 117.36 621.61 C107.55 622.01 98.91 627.44 90.81 632.5 C89.86 633.07 88.91 633.64 87.93 634.22 C87.03 634.78 86.13 635.33 85.21 635.91 C84.4 636.4 83.59 636.9 82.75 637.42 C82.17 637.94 81.6 638.46 81 639 C81 644.04 83.05 645.84 86.25 649.38 C89.85 653.42 93.09 657.42 96 662 C99.93 661.43 102.6 660.25 105.94 658.12 C114.66 652.72 122.51 648.67 133 650 C137.03 651.32 139.51 653.29 141.94 656.81 C143.13 660.38 143.22 663.26 143 667 C140.22 668.51 137.77 669.37 134.66 669.93 C133.44 670.16 133.44 670.16 132.19 670.4 C130.49 670.72 128.79 671.02 127.09 671.32 C121.92 672.32 118.13 673.53 114 677 C112.61 679.1 112.61 679.1 112 681 C112.95 682.17 113.91 683.34 114.88 684.5 C115.41 685.15 115.94 685.8 116.49 686.47 C116.99 686.97 117.49 687.48 118 688 C118.66 688 119.32 688 120 688 C120.23 688.56 120.46 689.12 120.7 689.7 C122.34 692.6 124.32 694.54 126.75 696.81 C128.01 698.03 128.01 698.03 129.3 699.27 C131.89 701.28 131.89 701.28 135.01 700.92 C137.93 700.02 140.43 698.95 143.12 697.5 C146.09 695.91 148.7 694.68 152 694 C153.22 693.73 154.43 693.46 155.69 693.19 C157.76 693.18 157.76 693.18 160 694 C164.53 698.55 169 703.37 169 710 C166.28 711.91 163.55 713.44 160.62 715 C158.62 716.09 158.62 716.09 156 718 C155.57 722.15 155.57 722.15 158.56 725.06 C166.54 732.56 182.93 747.8 194.26 748.05 C196.96 746.42 197.24 744.4 198.19 741.44 C202.6 729.14 209.7 718.32 216.83 707.44 C220.1 702.44 223.26 697.38 226.31 692.25 C226.7 691.61 227.08 690.98 227.48 690.32 C228.7 688.24 229.86 686.13 231 684 C231.5 683.06 232.01 682.11 232.53 681.14 C236.76 672.67 238.52 664.6 239.81 655.31 C240.21 652.64 240.61 649.97 241.02 647.3 C241.27 645.56 241.27 645.56 241.52 643.77 C242 641 242 641 243 639 C243.63 640.21 244.25 641.41 244.88 642.62 C245.22 643.3 245.57 643.97 245.93 644.66 C248.69 650.7 249.34 655.77 249.31 662.31 C249.34 663.52 249.34 663.52 249.36 664.75 C249.37 681.54 238.56 696.59 229.16 709.7 C219.6 723.04 207.92 739.78 208.45 756.9 C209.36 760.38 211.49 761.7 214.43 763.58 C222.77 768.78 222.77 768.78 232 771 C232.13 769.03 232.13 769.03 232.26 767.01 C233.01 757.09 233.92 748.75 239 740 C239.61 738.8 239.61 738.8 240.24 737.57 C245.86 726.67 252.67 716.17 259.68 706.11 C264.38 699.36 268.44 692.55 272 685.12 C272.37 684.35 272.75 683.58 273.13 682.78 C278.64 670.9 280.34 656.71 276.62 644 C270.92 629.45 261.37 617.13 251.66 605.06 C247.68 600.11 243.83 595.06 240 590 C239.07 588.78 239.07 588.78 238.11 587.54 C234.46 582.59 231.52 577.42 228.75 571.94 C228.42 571.29 228.09 570.64 227.75 569.97 C223.65 561.62 221.51 554.35 221.69 545 C221.68 544.16 221.68 543.32 221.68 542.46 C221.86 520.77 233.1 500.93 247 485 C249.71 481.7 252.36 478.35 255 475 C255.77 474.04 256.53 473.08 257.32 472.09 C262.3 465.71 266.08 459.54 269 452 C269.53 450.81 270.05 449.62 270.59 448.39 C278.3 427.52 268.52 402.79 260.41 383.52 C257.86 377.15 255.96 370.57 254 364 C253.69 363.02 253.38 362.03 253.06 361.02 C252.79 360.16 252.52 359.31 252.25 358.44 C252.03 357.73 251.81 357.03 251.58 356.31 C247.51 340.07 248.33 320.66 254 305 C254.52 303.4 255.03 301.79 255.54 300.18 C261.8 280.9 271.07 260.37 289.34 249.62 C291.2 248.68 293.1 247.83 295 247 C294.45 247.61 293.91 248.22 293.35 248.84 C281.85 262.21 274.4 277.69 269.31 294.5 C269.11 295.16 268.91 295.83 268.7 296.51 C263.09 315.89 261.35 341.02 269 360 C269.32 360.8 269.63 361.59 269.96 362.41 C273.49 371.21 277.33 379.83 281.69 388.25 C284.32 393.39 286.45 398.57 288.38 404 C288.75 405.06 288.75 405.06 289.14 406.14 C291.76 413.81 292.18 420.79 292.19 428.81 C292.2 429.76 292.21 430.71 292.22 431.68 C292.24 441.52 290.64 448.87 285.44 457.25 C284.99 457.98 284.55 458.72 284.09 459.47 C278.93 467.9 273.39 476.01 267.27 483.77 C251.06 504.34 240.13 526.33 242 553 C244.66 574.63 259.59 590.75 273.33 606.53 C286.78 621.96 296.43 637.58 296.25 658.44 C296.26 659.31 296.27 660.19 296.27 661.1 C296.2 685.89 282.22 706 269.09 725.89 C257.73 743.34 253.47 758.21 255 779 C255.33 779.99 255.66 780.98 256 782 C258.6 783.35 258.6 783.35 261.81 784.44 C262.98 784.86 264.15 785.29 265.36 785.73 C266.56 786.15 267.76 786.57 269 787 C270.13 787.4 271.26 787.8 272.43 788.21 C278.09 790.28 278.09 790.28 284 791 C283.76 789.69 283.76 789.69 283.51 788.36 C281.37 774.38 281.54 759.12 287 746 C287.35 745.09 287.7 744.19 288.06 743.26 C291.1 735.6 294.92 728.74 299.25 721.75 C300.59 719.56 301.92 717.36 303.26 715.16 C303.9 714.11 304.54 713.06 305.2 711.97 C318.37 690.2 329.45 668.01 324.59 641.78 C323.53 637.62 321.89 633.84 320 630 C319.57 629.07 319.13 628.13 318.68 627.17 C313.56 616.97 306.01 608.3 298.62 599.69 C289.44 588.94 280.57 578.11 275 565 C274.53 563.93 274.53 563.93 274.05 562.84 C268.02 548.06 268.86 532.53 274.86 517.9 C280.47 505.41 287.89 494.21 296.28 483.43 C298.19 481.22 298.19 481.22 298 479 C298.66 479 299.32 479 300 479 C312.61 465.13 317.77 446.85 317.31 428.59 C316.97 421.74 315.16 415.48 313 409 C312.42 407.16 312.42 407.16 311.82 405.27 C308.35 394.69 303.88 384.51 299.4 374.32 C286.15 344.02 281.42 312.14 293.69 280.56 C296.85 272.87 300.63 266.39 306 260 C306.69 259.08 307.37 258.16 308.08 257.21 C313.49 250.13 319.48 244.75 327 240 C327.66 240 328.32 240 329 240 C328.55 240.51 328.1 241.03 327.64 241.55 C322.96 247.12 319.03 252.93 315.25 259.12 C314.79 259.88 314.33 260.63 313.86 261.4 C299.28 285.63 297.22 312.64 303.8 340.12 C306.59 350.84 310.02 361.23 315.07 371.11 C316.34 373.7 317.33 376.35 318.31 379.06 C320.12 383.88 322.15 388.55 324.38 393.19 C327.09 398.88 329.56 404.64 331.88 410.5 C332.17 411.24 332.47 411.98 332.78 412.75 C338.68 427.94 337.15 444.61 331.01 459.39 C325.79 470.61 318.7 481.33 311.5 491.38 C297.84 510.85 288.59 530.35 292.59 554.57 C295.89 566.92 303.36 577.52 311.69 587.01 C317.07 593.13 321.88 599.65 326.69 606.21 C327.83 607.77 328.98 609.31 330.14 610.85 C341.53 626.42 347.36 645.78 345 665 C342.25 682.49 333.44 697.71 325 713 C320.48 721.25 316.08 729.52 312 738 C311.6 738.84 311.19 739.68 310.77 740.55 C304.31 755.24 303.74 771.43 306.25 787.06 C306.36 787.78 306.47 788.49 306.58 789.23 C307.41 793.82 308.64 796.75 312 800 C319.83 804.16 330.36 803.17 339 803 C338.66 802.19 338.32 801.38 337.98 800.54 C331.16 783.63 328.88 764.55 335 747 C335.4 745.81 335.8 744.62 336.22 743.39 C341.13 729.36 347.63 716.01 355 703.12 C366.86 682.29 376.75 659.11 371.16 634.7 C366.99 621.14 358.59 610.07 350 599 C349.19 597.94 348.37 596.88 347.56 595.82 C344.18 591.41 340.79 587 337.36 582.64 C324.15 565.82 316.4 551.61 318 530 C320.38 516.69 328.97 505.15 336.92 494.54 C345.2 483.47 352.28 471.51 357.06 458.5 C358.68 454.43 359.89 451.97 364 450 C370.15 448.77 375.01 450.28 380.75 452.5 C394.44 457.58 409.11 456.14 422.78 451.8 C429.13 449.81 435.36 448.85 442 450 C443.7 450.95 445.37 451.94 447 453 C447.66 453 448.32 453 449 453 C449.09 453.83 449.17 454.66 449.26 455.51 C450.16 459.74 451.78 463.08 453.81 466.88 C454.2 467.61 454.6 468.35 455 469.11 C459.15 476.65 464.22 483.39 469.54 490.14 C483.05 507.37 493.55 523.23 491 546 C488.09 559.7 480.65 571.12 472.38 582.19 C471.77 583.01 471.16 583.82 470.54 584.67 C466.69 589.82 462.74 594.88 458.69 599.88 C444.37 617.57 432.72 635.36 435 659 C437.26 673.88 446.07 687.22 453.48 700.05 C462.95 716.51 470.32 733.58 475 752 C475.19 752.73 475.39 753.46 475.58 754.21 C476.99 759.9 477.38 765.34 477.38 771.19 C477.37 772.1 477.37 773.01 477.37 773.96 C477.23 782.83 475.32 790.49 471.87 798.69 C470.82 801.06 470.82 801.06 471 804 C472.19 803.73 473.39 803.47 474.62 803.2 C477.81 802.49 481 801.78 484.18 801.07 C484.97 800.89 485.77 800.71 486.58 800.52 C488.21 800.17 489.85 799.86 491.5 799.6 C496.3 798.83 496.3 798.83 499.96 795.83 C505.07 781.96 505.95 765.25 502 751 C501.74 750.02 501.49 749.04 501.22 748.03 C496.1 729.91 486.21 712.91 476.81 696.69 C466.89 679.44 460.66 663.29 464.75 643.06 C465.13 641.7 465.55 640.34 466 639 C466.28 638.13 466.56 637.27 466.85 636.38 C474.8 613.19 491.95 593.99 506.84 574.87 C510.31 570.26 513.26 565.97 515.19 560.5 C515.51 559.6 515.83 558.71 516.17 557.78 C520.64 542.85 518.81 527.77 512 514 C511.68 513.36 511.37 512.72 511.04 512.06 C504.67 499.52 496.42 488.1 488.33 476.63 C476.02 459.15 470.37 444.08 473.36 422.43 C474.41 416.61 476.19 411.27 478.44 405.81 C478.78 404.97 479.12 404.12 479.48 403.25 C483.1 394.47 487.25 385.96 491.39 377.41 C497.45 364.89 502.65 352.55 506 339 C506.19 338.27 506.38 337.55 506.57 336.8 C508.19 329.83 508.34 322.96 508.32 315.82 C508.31 313.83 508.34 311.84 508.36 309.85 C508.37 283.81 498.52 257.58 480.05 238.99 C479.38 238.33 478.7 237.68 478 237 C493.31 242.08 506 260.23 513 274 C523.95 297.82 524.97 322.73 518 348 C517.81 348.73 517.61 349.46 517.42 350.21 C515.05 359.15 512.07 367.65 508.54 376.19 C506.02 382.34 503.88 388.63 501.72 394.92 C501.02 396.93 500.32 398.94 499.62 400.95 C498.35 404.62 497.16 408.3 496 412 C495.52 413.54 495.52 413.54 495.02 415.12 C489.9 433.93 492.76 451.4 502.3 468.13 C505.52 473.51 509.27 478.22 513.39 482.95 C521.88 492.72 529.11 503.49 535 515 C535.53 516 536.06 517 536.6 518.03 C541.73 529.16 542.07 543.59 538.5 555.31 C537.72 557.23 536.88 559.13 536 561 C535.73 561.6 535.46 562.2 535.19 562.82 C530.58 573.09 524.82 582.08 518 591 C517.19 592.08 516.37 593.16 515.56 594.23 C512.09 598.82 508.55 603.34 504.91 607.8 C492.28 623.29 482.16 639.28 483.36 660.05 C485.44 680.19 496.72 698.72 507.64 715.27 C518.64 732.31 528.49 750.34 528.19 771.06 C528.19 771.91 528.19 772.76 528.19 773.63 C528.15 778.83 527.74 783.85 527 789 C533.33 787.69 539.38 786.02 545.5 783.94 C546.71 783.53 546.71 783.53 547.95 783.12 C551.77 782.09 551.77 782.09 555 780 C556.69 748.75 543.46 726.9 526.5 701.81 C515.79 685.89 510.81 669.75 513.69 650.44 C517.48 632.37 527.93 616.7 539.15 602.38 C544.6 595.38 549.8 588.19 555 581 C555.77 579.95 556.53 578.9 557.32 577.82 C566.61 564.29 568.2 547.52 565.6 531.54 C561.17 510.69 549.13 492.77 537 475.68 C533.26 470.41 529.67 465.06 526.19 459.62 C525.7 458.88 525.22 458.14 524.72 457.38 C517.03 445.24 514.96 430.93 517.72 416.85 C520.92 402.68 526.92 389.74 533.08 376.66 C546.23 348.51 547.09 315.25 537 286 C536.59 284.76 536.19 283.51 535.77 282.23 C531.22 269.38 524.37 257.71 516 247 C519.91 247 523.04 250.66 526 253 C526.98 253.74 526.98 253.74 527.99 254.5 C540.45 264.49 547.62 280.35 553 295 C553.35 295.95 553.7 296.89 554.06 297.87 C562.23 320.98 559.5 344.85 553 368 C552.78 368.78 552.57 369.56 552.34 370.36 C550.6 376.58 548.8 382.79 547 389 C546.38 391.15 545.75 393.31 545.13 395.46 C544.5 397.62 543.88 399.78 543.25 401.94 C542.81 403.46 542.81 403.46 542.36 405.01 C542.08 405.96 541.8 406.92 541.52 407.9 C541.12 409.25 541.12 409.25 540.72 410.63 C540.16 412.48 539.5 414.3 538.82 416.11 C537.67 420.18 537.66 424.05 537.69 428.25 C537.69 429.52 537.69 429.52 537.7 430.82 C537.82 437 538.53 442.29 541 448 C541.51 449.26 541.51 449.26 542.03 450.55 C548.24 465.07 557 477.38 566.45 489.93 C569.41 493.88 572.26 497.89 575 502 C575.51 502.76 576.01 503.51 576.54 504.29 C579.69 509.24 582.12 514.33 584.31 519.75 C584.57 520.38 584.82 521 585.08 521.65 C590.94 536.67 588.54 553.03 582.53 567.56 C578.7 575.67 573.86 582.85 568.51 589.99 C566.81 592.26 565.13 594.54 563.46 596.82 C550.77 614.12 550.77 614.12 544.59 622.12 C534.19 635.64 530.68 647.02 532 664 C534.31 679.99 544.09 695.18 553.15 708.24 C556.86 713.64 560.14 719.25 563.38 724.94 C563.88 725.81 564.38 726.69 564.89 727.59 C572.53 741.11 577.25 753.41 579 769 C586.28 767.77 593.19 764.95 599.25 760.75 C601.84 756.68 601.85 753.7 601 749 C598.7 741.1 595.13 734.04 590.84 727.05 C589.38 724.63 588.02 722.21 586.68 719.72 C583.97 714.82 580.84 710.27 577.62 705.69 C572.75 698.65 567.95 691.62 564 684 C563.45 683.03 562.91 682.07 562.34 681.07 C559.92 675.27 560.57 668.73 560.62 662.56 C560.61 661.28 560.6 659.99 560.59 658.67 C560.61 651.71 561.03 646.32 564 640 C564.33 639.01 564.66 638.02 565 637 C565.66 637.33 566.32 637.66 567 638 C567.32 639.97 567.32 639.97 567.42 642.57 C567.5 644 567.5 644 567.58 645.45 C567.64 646.48 567.69 647.51 567.75 648.56 C568.51 659.02 570.45 667.58 575 677 C575.31 677.66 575.63 678.32 575.95 679 C582.43 692.46 590.82 704.76 599.11 717.15 C605.47 726.85 610.51 737.31 615 748 C629.86 741.21 642.45 732.51 654 721 C650.66 717.41 647.54 714.94 643.19 712.69 C642.21 712.18 641.24 711.66 640.23 711.14 C639.13 710.57 639.13 710.57 638 710 C638 702.55 642.23 698.4 647 693 C654.35 694.14 660.98 696.35 667.9 699.07 C670.99 700 672.13 700.31 675 699 C681.26 694.62 690.35 687.03 692.75 679.7 C692.84 679.14 692.92 678.58 693 678 C678.97 669.2 678.97 669.2 663 666 C665.91 654.03 665.91 654.03 671 650 C683.25 647.35 695.59 653.98 706 659.71 C708.78 661.15 708.78 661.15 711.12 660.95 C718.44 657.24 723.84 649.37 727 642 C727.35 640.67 727.68 639.34 728 638 C727.39 637.71 726.77 637.42 726.14 637.12 C724.31 636.24 722.47 635.37 720.63 634.49 C718.53 633.49 716.43 632.49 714.33 631.5 C709.58 629.23 704.85 626.95 700.19 624.49 C699.13 623.93 699.13 623.93 698.05 623.37 C696.77 622.69 695.49 621.99 694.23 621.29 C689.55 618.82 686.16 618.51 681 619 C676.86 623.14 675.68 628.66 673.94 634.15 C672.57 638.32 671.12 641.88 668 645 C646.5 646.63 626.66 631.91 611 619 C609.98 618.18 608.97 617.36 607.92 616.51 C602.88 612.42 597.91 608.25 593 604 C594.58 597 597.33 591.36 600.88 585.19 C608.06 572.68 612.18 561.8 612.19 547.31 C612.2 546.26 612.21 545.21 612.22 544.13 C612.28 515.49 593.72 491.64 578.56 468.83 C565.93 449.83 558.76 433.44 563.18 410.37 C565.44 401.09 568.35 391.94 571.36 382.88 C582.91 347.35 580.6 314.73 565.31 281 C564.33 278.81 563.34 276.63 562.36 274.44 C561.72 273.01 561.72 273.01 561.06 271.56 C560.15 269.37 559.49 267.32 559 265 C581.43 281.37 588.76 303.11 593 330 C596.36 353.55 594.18 377.41 585.44 399.5 C578.57 417.21 580.45 433.67 587.19 451.06 C591.91 461.65 598.42 471.18 604.89 480.75 C629.7 517.47 629.7 517.47 630.06 534.8 C630.04 540.17 630.04 540.17 632.49 544.71 C634.45 546.17 634.45 546.17 636.64 547.49 C639.27 549.18 641.36 551.1 643.62 553.25 C654.85 563.46 667.44 573.83 683.27 573.27 C685.9 573.01 688.42 572.57 691 572 C690.64 576.66 690.28 581.07 688.94 585.56 C687.78 589.8 687.82 593.64 688 598 C688.83 598.06 689.65 598.13 690.5 598.19 C705.36 599.77 717.56 606.48 730.44 613.71 C735.06 616.24 738.73 617.62 744 618 C745.46 615.75 746.92 613.5 748.38 611.25 C748.79 610.62 749.2 609.98 749.62 609.33 C754.19 602.28 754.19 602.28 755 594 C753.82 593.53 752.65 593.05 751.44 592.56 C743.02 588.82 735.29 583.68 727.5 578.81 C712.35 569.17 712.35 569.17 695 566 C696.32 559.4 697.64 552.8 699 546 C706.93 546 706.93 546 711.31 547.25 C712.58 547.6 712.58 547.6 713.86 547.95 C723.78 551.26 732.44 555.94 741.43 561.22 C753.51 568.5 753.51 568.5 767 571 C775.1 565.45 778.08 553.07 780 544 C779.3 543.85 778.59 543.71 777.87 543.55 C764.72 540.57 753.86 535.03 742.38 528.19 C734.76 523.66 727.13 519.37 719.06 515.69 C718.28 515.32 717.49 514.95 716.68 514.58 C715.93 514.25 715.18 513.92 714.41 513.57 C713.77 513.29 713.13 513.01 712.48 512.72 C708.76 511.64 704.84 511.43 701 511 C701.33 504.07 701.66 497.14 702 490 C718.56 490 732.52 496.79 746.35 505.43 C758.08 512.39 770.75 519.28 784.59 519.63 C787.15 519.15 787.15 519.15 789.21 517.12 C791.74 512.71 792.17 508.45 792.75 503.44 C792.88 502.49 793 501.55 793.13 500.57 C793.63 496.66 794 492.95 794 489 C792.86 488.84 791.73 488.68 790.55 488.52 C772.19 485.82 757.97 479.17 742 470 C720.34 457.47 720.34 457.47 696 453 C694.58 445.35 693.26 437.68 692 430 C712.15 430.27 727.9 436.73 745.62 445.86 C751.81 449.04 758 451.91 764.5 454.38 C765.16 454.63 765.82 454.88 766.5 455.14 C777.36 459.12 789.96 459.61 801 456 C803.4 448.51 803.23 441.31 803.12 433.5 C803.11 431.55 803.11 431.55 803.1 429.56 C803.07 426.37 803.04 423.19 803 420 C802.24 420.21 801.48 420.42 800.7 420.64 C794.27 422.35 788.34 423.53 781.69 423.44 C780.47 423.43 780.47 423.43 779.23 423.41 C761.46 422.92 745.69 414.61 730.36 406.35 C714.3 397.75 698.58 390.98 680 392 C679.73 391.28 679.46 390.56 679.19 389.81 C678.09 387 678.09 387 676.51 384.64 C674.67 381.42 673.78 378.27 672.81 374.69 C672.47 373.43 672.12 372.18 671.77 370.89 C671.52 369.93 671.26 368.98 671 368 C674.33 367.6 677.66 367.28 681 367 C681.77 366.93 682.54 366.86 683.33 366.79 C697.85 366.13 710.59 372.26 723 379 C724.43 379.76 725.86 380.52 727.29 381.27 C730.16 382.79 733.02 384.3 735.89 385.82 C737.26 386.55 738.63 387.28 740 388 C740.64 388.34 741.29 388.68 741.95 389.03 C752.89 394.78 761.64 398.22 774.06 398.38 C774.9 398.39 775.74 398.4 776.61 398.42 C784.78 398.35 791.57 396.24 798.5 391.88 C799.34 391.36 800.17 390.84 801.03 390.3 C802.92 389.15 802.92 389.15 804 388 C803.83 346.23 795.87 299.13 778.8 260.87 C777.72 258.35 776.81 255.79 775.89 253.21 C762.8 216.56 740.98 181.21 715.52 151.92 C713.09 149.1 710.76 146.22 708.44 143.31 C704.63 138.62 700.51 134.38 696.16 130.19 C694 128 694 128 692.34 125.71 C691.9 125.15 691.45 124.58 691 124 C690.34 124 689.68 124 689 124 C688.67 123.01 688.34 122.02 688 121 C686.44 119.42 686.44 119.42 684.5 117.88 C681.43 115.28 678.59 112.59 675.81 109.69 C671.71 105.52 667.3 102 662.6 98.54 C660.08 96.67 657.78 94.78 655.56 92.55 C652.5 89.5 649.22 86.95 645.75 84.38 C645.05 83.85 644.35 83.33 643.63 82.79 C638.09 78.7 632.4 74.91 626.58 71.23 C620.22 67.19 614.02 62.93 607.86 58.59 C562.63 27.15 505.17 11.61 451 6 C449.84 5.87 449.84 5.87 448.67 5.74 C433.24 4.05 417.95 3.64 402.44 3.69 C401.25 3.69 400.06 3.69 398.84 3.69 C381.04 3.74 363.62 4.25 346 7 Z " fill="#FDFEFD" transform="translate(0,0)"/>
<path d="M0 0 C3.34 2.77 4.99 6.5 6.88 10.31 C7.23 11.02 7.58 11.73 7.95 12.47 C10.68 18.08 12.78 23.74 14.77 29.66 C16.44 34.19 18.6 38.41 20.86 42.67 C22 45 22 45 22 47 C22.73 46.99 23.46 46.98 24.22 46.96 C32.22 46.9 40.19 47.11 48.19 47.44 C49.18 47.48 50.18 47.52 51.21 47.56 C57.83 47.84 64.41 48.34 71 49 C70.51 53.52 69.02 55.47 65.81 58.62 C64.95 59.47 64.08 60.33 63.19 61.21 C62.28 62.09 61.37 62.97 60.44 63.88 C59.56 64.75 58.67 65.62 57.76 66.52 C51.44 72.73 45.04 78.74 37.94 84.06 C35.31 86.3 35.31 86.3 34.75 89.69 C35.79 92.46 36.94 95.08 38.18 97.76 C41.41 104.82 44.36 112 47.31 119.19 C47.87 120.53 48.42 121.88 48.98 123.23 C50.32 126.48 51.66 129.74 53 133 C56.97 131.47 60.39 129.64 64 127.38 C64.56 127.02 65.13 126.67 65.71 126.31 C68.57 124.54 71.41 122.74 74.25 120.94 C81.97 116.09 89.79 111.94 98 108 C98.85 107.56 99.71 107.12 100.59 106.66 C106.7 103.64 113.05 101.62 119.56 99.69 C120.44 99.42 121.31 99.15 122.21 98.88 C128.25 97.16 133.73 96.67 140 97 C139.45 104.91 136.03 111.96 133.1 119.24 C129.09 129.24 125.86 138.08 126 149 C134.85 146.55 143.27 143.4 151.75 139.91 C161.49 135.91 170.22 132.83 180.88 132.94 C182.03 132.95 183.18 132.96 184.37 132.96 C185.24 132.98 186.1 132.99 187 133 C183.28 140.75 179.4 148.16 174.68 155.37 C171.86 159.78 169.43 164.37 167 169 C166.15 170.55 166.15 170.55 165.28 172.14 C157.98 185.92 153.47 200.46 152 216 C144.68 213.97 137.76 211.35 130.75 208.44 C108.46 199.38 85.64 191.64 62 187 C60.18 186.64 60.18 186.64 58.32 186.27 C-2.69 174.62 -64.57 184.74 -122 207 C-122.73 207.28 -123.46 207.56 -124.21 207.85 C-132.27 210.96 -140.19 214.33 -148 218 C-149.83 216.17 -149.71 213.15 -150.12 210.69 C-152.94 195.65 -158.65 181.37 -166 168 C-166.32 167.42 -166.63 166.84 -166.96 166.24 C-172.07 156.9 -177.45 147.53 -184.23 139.29 C-186 137 -186 137 -186 135 C-167.61 133.6 -151.42 139.39 -134.98 147.17 C-131.06 149.02 -127.07 150.53 -123 152 C-123.36 132.72 -131.53 116.9 -140 100 C-138.43 98.13 -137.5 97.11 -135.07 96.58 C-128.9 96.61 -124.08 98.08 -118.44 100.5 C-117.57 100.86 -116.7 101.22 -115.8 101.6 C-96.61 109.7 -77.73 119.87 -60.56 131.68 C-58.27 133.29 -58.27 133.29 -55 135 C-52.88 134.7 -52.88 134.7 -51 133 C-49.51 130.5 -48.23 128.12 -47 125.5 C-46.65 124.77 -46.3 124.04 -45.94 123.29 C-44.94 121.2 -43.97 119.1 -43 117 C-42.58 116.11 -42.16 115.23 -41.73 114.32 C-39.46 109.1 -38.05 103.7 -36.69 98.19 C-36.41 97.09 -36.41 97.09 -36.13 95.97 C-34.77 90.4 -34.77 90.4 -36 85 C-38.19 82.62 -40.62 80.6 -43.12 78.56 C-43.78 78.02 -44.43 77.47 -45.1 76.9 C-46.41 75.81 -47.72 74.71 -49.04 73.62 C-53.9 69.59 -58.59 65.52 -63 61 C-63.61 60.43 -64.23 59.86 -64.86 59.27 C-65.51 58.67 -66.15 58.06 -66.81 57.44 C-67.42 56.88 -68.02 56.32 -68.64 55.75 C-70 54 -70 54 -70 50 C-54.01 48.44 -38.06 47.5 -22 47 C-21.35 45.48 -21.35 45.48 -20.68 43.92 C-17.52 36.6 -14.25 29.4 -10.62 22.3 C-8.13 17.23 -5.88 12.06 -3.63 6.88 C-1.1 1.1 -1.1 1.1 0 0 Z " fill="#FDFEFD" transform="translate(403,29)"/>
<path d="M0 0 C0.84 0.61 1.68 1.22 2.55 1.86 C9.64 8.06 16.58 18.97 17.25 28.56 C17.17 29.37 17.09 30.17 17 31 C14.64 31.79 13.2 32.04 10.74 31.54 C5.48 30.5 0.09 30.82 -5.25 30.81 C-6.44 30.8 -7.63 30.79 -8.86 30.78 C-20.16 30.76 -33.49 32.25 -42.8 39.38 C-51.6 49.38 -51.57 61.44 -51 74 C-50.38 80.47 -49.6 85.51 -46 91 C-43.64 90.93 -43.64 90.93 -41 90 C-38.81 87.44 -38.81 87.44 -36.81 84.38 C-32.79 79.16 -32.79 79.16 -29.3 78.46 C-25.65 78.86 -22.48 79.84 -19 81 C-15.69 81.23 -12.38 81.19 -9.06 81.19 C-8.16 81.2 -7.25 81.21 -6.31 81.22 C-5.44 81.23 -4.56 81.23 -3.66 81.23 C-2.46 81.24 -2.46 81.24 -1.24 81.24 C1.25 80.97 2.81 80.18 5 79 C7.94 78.5 7.94 78.5 11 79 C16.14 84.02 17.14 87.74 17.31 94.69 C16.97 122.38 2.45 153.09 -16.44 172.81 C-28.84 184.72 -42.72 192.37 -60.01 192.23 C-65.58 192.1 -70.66 191.56 -76 190 C-77.1 189.68 -78.2 189.36 -79.33 189.04 C-87.78 186.32 -94.22 182.68 -101 177 C-102.45 175.83 -102.45 175.83 -103.93 174.64 C-122.85 158.46 -135.74 133.61 -139 109 C-139.3 104.89 -139.37 100.81 -139.38 96.69 C-139.4 95.64 -139.42 94.6 -139.45 93.52 C-139.47 87.41 -139.24 83.57 -135 79 C-130.33 77.32 -127.59 78.03 -123.25 80 C-116.88 82.83 -111.25 81.95 -104.61 80.46 C-101.4 79.89 -98.32 79.79 -95.06 79.75 C-93.88 79.72 -92.69 79.7 -91.47 79.67 C-87.68 80.03 -85.27 81.1 -82 83 C-77.47 79.94 -75.65 77.21 -74 72 C-73.63 61.95 -73.39 48.61 -78.96 39.96 C-81.21 37.91 -83.31 36.42 -86 35 C-86.64 34.64 -87.28 34.29 -87.93 33.92 C-93.81 31.05 -100.1 30.87 -106.52 30.75 C-107.95 30.72 -109.38 30.69 -110.8 30.65 C-113.04 30.61 -115.27 30.56 -117.51 30.52 C-119.68 30.48 -121.85 30.43 -124.02 30.38 C-125.95 30.34 -125.95 30.34 -127.93 30.3 C-131 30 -131 30 -133 28 C-133.63 22.29 -132.41 19.19 -129.31 14.44 C-128.63 13.36 -127.94 12.29 -127.24 11.18 C-116.07 -4.7 -100.34 -10.89 -82 -15 C-54.53 -19.61 -22.94 -16.83 0 0 Z " fill="#FDFDFD" transform="translate(464,243)"/>
<path d="M0 0 C1.94 2.05 2.97 3.25 3.08 6.11 C2.95 6.87 2.83 7.63 2.7 8.42 C1.85 14.73 1.82 20.95 1.81 27.31 C1.8 28.45 1.79 29.58 1.78 30.75 C1.73 56.55 10.63 80.26 24 102 C24.7 103.16 25.4 104.31 26.09 105.47 C31.51 114.34 37.29 122.98 43.06 131.62 C43.46 132.21 43.85 132.8 44.25 133.41 C45.42 135.15 46.58 136.89 47.75 138.63 C54.93 149.39 54.93 149.39 57.62 153.5 C58.3 154.52 58.97 155.54 59.66 156.59 C61 159 61 159 61 162 C59.44 162.82 57.88 163.63 56.31 164.44 C55.44 164.89 54.57 165.34 53.68 165.81 C43.56 170.31 30.5 168.9 20.32 165.32 C10.34 161.36 0.83 156.97 -8.62 151.88 C-24.14 143.6 -40.47 138.16 -58.27 139.31 C-73.89 140.3 -73.89 140.3 -77.87 137.85 C-81.07 134.7 -83.03 130.9 -85 126.92 C-86.56 123.92 -88.56 121.35 -90.62 118.69 C-91.02 118.17 -91.42 117.65 -91.84 117.11 C-98 109.25 -105.01 102.11 -112 95 C-112.51 94.47 -113.03 93.94 -113.55 93.4 C-124.08 82.65 -137.13 74.66 -150 67 C-149.76 63.72 -148.82 62.83 -146.4 60.5 C-136.02 52.17 -118.86 52.96 -106.31 54.29 C-103.83 54.73 -101.44 55.35 -99 56 C-97.58 56.34 -96.16 56.67 -94.74 57 C-81.25 60.24 -68.72 64.85 -56.8 72.05 C-54.88 73.06 -53.11 73.56 -51 74 C-50.77 72.98 -50.54 71.96 -50.3 70.91 C-49.24 66.27 -48.12 61.63 -47 57 C-46.81 56.22 -46.63 55.43 -46.43 54.62 C-42.97 40.33 -37.4 29.42 -28 18 C-27.1 16.8 -27.1 16.8 -26.19 15.57 C-23.63 12.57 -20.76 10.23 -17.62 7.88 C-17.07 7.45 -16.52 7.02 -15.95 6.57 C-5.88 -1.11 -5.88 -1.11 0 0 Z " fill="#FDFEFD" transform="translate(727,195)"/>
<path d="M0 0 C9.83 1.07 18.41 10.66 24.27 17.97 C37.05 34.43 45.75 53.17 45.44 74.38 C46.64 73.86 47.83 73.34 49.07 72.8 C58.39 68.79 67.66 64.98 77.37 62.02 C79.68 61.3 81.97 60.52 84.26 59.74 C103.06 53.59 124.09 52.13 142.31 61.06 C143.7 61.82 145.08 62.58 146.44 63.38 C143.11 71.05 135.37 75.55 128.5 79.81 C122.18 83.75 116.77 88.15 111.44 93.38 C110.95 93.85 110.46 94.32 109.96 94.81 C104.43 100.2 99 105.65 94 111.54 C92.96 112.76 91.9 113.96 90.81 115.15 C85.94 120.49 81.82 126.29 77.67 132.2 C76.93 133.25 76.2 134.3 75.44 135.38 C75.01 136.09 74.58 136.81 74.14 137.56 C72.44 139.38 72.44 139.38 69.95 139.78 C68.97 139.74 67.99 139.7 66.98 139.66 C65.9 139.63 64.81 139.6 63.69 139.57 C62.53 139.53 61.38 139.48 60.19 139.44 C34.44 138.95 12.48 148.21 -10.1 159.67 C-20.71 164.9 -29.87 168.55 -41.81 168.56 C-42.62 168.57 -43.43 168.59 -44.26 168.6 C-51.89 168.62 -59.19 167.89 -65.56 163.38 C-64.94 160.33 -63.96 158.11 -62.3 155.5 C-61.83 154.75 -61.35 154 -60.87 153.23 C-60.36 152.44 -59.84 151.64 -59.31 150.81 C-58.51 149.55 -58.51 149.55 -57.69 148.27 C-53.94 142.4 -50.03 136.66 -46.06 130.94 C-39.89 122.04 -34.29 112.86 -28.82 103.51 C-27.76 101.71 -26.67 99.93 -25.57 98.15 C-16.68 83.62 -10.31 67.98 -6.56 51.38 C-6.17 49.77 -6.17 49.77 -5.77 48.14 C-3.46 37.96 -3.23 28.39 -3.44 18 C-3.47 15.61 -3.5 13.23 -3.53 10.84 C-3.55 9.38 -3.57 7.91 -3.6 6.44 C-3.62 4.75 -3.6 3.06 -3.56 1.38 C-2.56 0.38 -2.56 0.38 0 0 Z " fill="#FDFEFE" transform="translate(85.5625,193.625)"/>
<path d="M0 0 C3.22 1.38 6.11 3.11 9.02 5.05 C9.63 5.45 10.24 5.86 10.87 6.27 C21.13 13.09 30.5 20.61 39.45 29.05 C37.88 31.51 37.88 31.51 35.45 34.05 C32.33 34.68 32.33 34.68 28.62 34.68 C27.94 34.69 27.26 34.7 26.56 34.7 C24.33 34.72 22.09 34.7 19.86 34.68 C18.3 34.68 16.74 34.68 15.19 34.69 C11.93 34.69 8.67 34.68 5.41 34.65 C1.23 34.61 -2.95 34.62 -7.13 34.64 C-10.34 34.65 -13.55 34.64 -16.77 34.62 C-18.31 34.62 -19.85 34.62 -21.39 34.63 C-23.54 34.63 -25.69 34.61 -27.84 34.58 C-29.07 34.58 -30.29 34.57 -31.56 34.57 C-34.55 34.05 -34.55 34.05 -36.47 32.14 C-37.55 30.05 -37.55 30.05 -37.48 28.02 C-36.27 25.47 -34.82 24.32 -32.58 22.6 C-31.78 21.98 -30.98 21.36 -30.16 20.72 C-28.9 19.77 -28.9 19.77 -27.61 18.8 C-26.77 18.15 -25.93 17.5 -25.07 16.83 C-18.83 12.05 -18.83 12.05 -16.55 12.05 C-16.55 11.39 -16.55 10.73 -16.55 10.05 C-14.36 8.21 -12.17 6.53 -9.86 4.86 C-9.23 4.39 -8.61 3.91 -7.96 3.42 C-3.33 0.07 -3.33 0.07 0 0 Z " fill="#027143" transform="translate(402.546875,144.94921875)"/>
<path d="M0 0 C4.62 0 9.24 0 14 0 C16.42 6.08 18.16 12.14 19.69 18.5 C19.91 19.42 20.14 20.34 20.37 21.28 C20.92 23.52 21.46 25.76 22 28 C23.96 25.06 24.63 23.12 25.47 19.75 C25.73 18.73 25.99 17.71 26.26 16.66 C26.52 15.6 26.79 14.53 27.06 13.44 C27.59 11.33 28.13 9.23 28.66 7.12 C28.89 6.19 29.13 5.25 29.37 4.29 C30 2 30 2 31 0 C35.62 0 40.24 0 45 0 C45 15.51 45 31.02 45 47 C42.03 47 39.06 47 36 47 C35.67 37.1 35.34 27.2 35 17 C31.53 31.85 31.53 31.85 28 47 C24.7 47 21.4 47 18 47 C17.04 43.69 16.08 40.38 15.12 37.06 C14.72 35.67 14.72 35.67 14.31 34.26 C14.04 33.34 13.78 32.42 13.51 31.47 C13.27 30.64 13.03 29.81 12.78 28.95 C11.74 25 10.89 20.99 10 17 C9.67 26.9 9.34 36.8 9 47 C6.03 47 3.06 47 0 47 C0 31.49 0 15.98 0 0 Z " fill="#0B764A" transform="translate(726,759)"/>
<path d="M0 0 C7.75 0.11 15.51 0.22 23.26 0.34 C26.86 0.39 30.46 0.45 34.06 0.5 C37.54 0.55 41.01 0.6 44.49 0.65 C46.46 0.68 48.43 0.71 50.4 0.73 C51.6 0.75 52.8 0.77 54.04 0.79 C55.62 0.82 55.62 0.82 57.24 0.84 C59.65 0.98 61.7 1.31 64 2 C62.56 6.46 60.12 9.6 57 13 C56.52 13.53 56.03 14.06 55.53 14.6 C48.87 21.58 41.01 25.1 31.38 25.38 C22.89 25.26 18.33 23.39 12.41 17.36 C10.69 15.47 9.01 13.56 7.36 11.62 C5.09 8.92 5.09 8.92 2.2 6.97 C1.48 6.32 0.75 5.67 0 5 C-0.14 2.38 -0.14 2.38 0 0 Z " fill="#047245" transform="translate(371,379)"/>
<path d="M0 0 C12.21 0 24.42 0 37 0 C37 2.64 37 5.28 37 8 C32.38 8 27.76 8 23 8 C23 20.87 23 33.74 23 47 C20.03 47 17.06 47 14 47 C14 34.13 14 21.26 14 8 C9.38 8 4.76 8 0 8 C0 5.36 0 2.72 0 0 Z " fill="#047245" transform="translate(683,759)"/>
<path d="M0 0 C4.89 3.97 4.89 3.97 5.31 7.81 C5.21 8.53 5.11 9.26 5 10 C1.3 9.54 -2.03 8.99 -5.62 7.94 C-12.48 6.17 -20.04 5.9 -26.69 8.38 C-29.05 9.94 -29.05 9.94 -31 12 C-33.5 12.31 -33.5 12.31 -36 12 C-38.81 7.78 -38.8 3.96 -38 -1 C-29.31 -11.18 -9.84 -6.08 0 0 Z " fill="#F7FAF9" transform="translate(366,295)"/>
<path d="M0 0 C2.44 1.81 2.44 1.81 4 4 C4.51 7.53 4.53 9.24 2.47 12.19 C1.99 12.79 1.5 13.38 1 14 C0.37 13.81 -0.26 13.61 -0.91 13.41 C-2.7 12.87 -4.5 12.33 -6.3 11.8 C-8.42 11.17 -10.53 10.5 -12.62 9.81 C-16.76 8.81 -20.95 8.75 -25.19 8.69 C-25.88 8.67 -26.57 8.65 -27.28 8.63 C-31.75 8.64 -34.35 9.47 -38 12 C-38.66 12 -39.32 12 -40 12 C-40.14 10.57 -40.23 9.13 -40.31 7.69 C-40.37 6.89 -40.43 6.09 -40.49 5.26 C-40 3 -40 3 -37.85 1.31 C-27.07 -3.66 -10.57 -6.58 0 0 Z " fill="#F8FBF9" transform="translate(476,293)"/>
<path d="M0 0 C2.16 0.3 2.16 0.3 4.1 -0.88 C9.35 -1.22 12.91 -1.44 17.1 2.12 C17.73 4.23 17.73 4.23 18.1 6.12 C4.9 11.97 -2.27 13.81 -16.27 8.7 C-18.9 7.12 -18.9 7.12 -19.77 4.45 C-19.81 3.68 -19.86 2.91 -19.9 2.12 C-14.7 -3.08 -6.65 -0.83 0 0 Z " fill="#077447" transform="translate(401.8984375,351.87890625)"/>
</svg>
